<svg xmlns="http://www.w3.org/2000/svg" width="892.283" height="156.782" viewBox="0 0 892.283 156.782">
  <g id="Group_5175" data-name="Group 5175" transform="translate(-20639.967 -8139)">
    <g id="manageengine-logo-xmas" transform="translate(20639.967 8139)">
      <g id="XMLID_28_" transform="translate(0 18.105)">
        <path id="XMLID_23_" d="M179.088,13.5C198.6,27.121,190.5,58.413,169.7,61.911h0C196.206,61.911,205.042,25.649,179.088,13.5Z" transform="translate(140.644 -11.707)" fill="#ffcd23"/>
        <path id="XMLID_22_" d="M163.5,13.951c23.193-3.5,32.765,25.218,22.641,38.471C202.891,35.487,189.454,5.667,163.5,13.951Z" transform="translate(135.432 -12.526)" fill="#0078b7"/>
        <path id="XMLID_21_" d="M156.1,26.377c11.412-16.935,35.158-6.442,37.551,10.676C196.227,15.885,168.433,4.1,156.1,26.377Z" transform="translate(129.21 -10.964)" fill="#009b50"/>
        <path id="XMLID_20_" d="M155.7,36.361c2.761-17.671,25.77-19.512,33.869-6.995C182.943,11.7,156.252,13.9,155.7,36.361Z" transform="translate(128.874 -8.246)" fill="#cb1733"/>
        <path id="XMLID_29_" d="M1.1,54.5H6.99L8.279,36.273V31.119h0l.184.552.368,1.288.552,1.657.552,1.657,5.706,12.7H20.8l5.338-12.517a17.376,17.376,0,0,0,.552-1.657l.552-1.657.368-1.289.184-.552h0v5.154l1.288,18.223h5.89l-2.577-32.4H26.134L19.691,38.3c-.184.552-.368.92-.552,1.473a12.682,12.682,0,0,1-.552,1.473l-.368,1.1v.368h0l-.184-.552-.368-1.1c-.184-.552-.368-.92-.552-1.473a12.683,12.683,0,0,0-.552-1.473L10.119,22.1H3.861ZM39.571,47.87A6.05,6.05,0,0,0,40.307,51a5.025,5.025,0,0,0,1.657,2.209,11.736,11.736,0,0,0,2.577,1.473,8.337,8.337,0,0,0,2.945.552,14.208,14.208,0,0,0,2.761-.368,7.115,7.115,0,0,0,3.5-2.209c.184-.368.552-.736.736-1.1a.643.643,0,0,1,.184-.368h0v3.5H60V40.139a11.53,11.53,0,0,0-1.1-4.97,8.3,8.3,0,0,0-3.5-3.129,12.993,12.993,0,0,0-5.154-1.1,18.135,18.135,0,0,0-3.129.368,13.559,13.559,0,0,0-2.577.736,5.758,5.758,0,0,0-1.841.92,10.558,10.558,0,0,0-1.289.736l-.368.368L43.252,38.3l.552-.368a3.7,3.7,0,0,1,1.473-.736,8.973,8.973,0,0,1,2.025-.736,10.773,10.773,0,0,1,2.393-.368,10.773,10.773,0,0,1,2.393.368,2.937,2.937,0,0,1,1.657,1.288,5.668,5.668,0,0,1,.552,2.393v.368H51.167a16.11,16.11,0,0,0-2.945.368,19.256,19.256,0,0,0-3.129.736,10.092,10.092,0,0,0-2.761,1.473,4.416,4.416,0,0,0-2.761,4.786Zm5.706-.368a2.57,2.57,0,0,1,.552-1.657c.368-.368.92-.736,1.288-1.1a3.552,3.552,0,0,1,1.841-.552c.736-.184,1.289-.184,2.025-.368h2.945v.552a9.239,9.239,0,0,1-.368,2.209,4.388,4.388,0,0,1-1.1,2.025A11.909,11.909,0,0,1,50.8,50.079a4.2,4.2,0,0,1-2.025.552,7.828,7.828,0,0,1-2.025-.368,1.66,1.66,0,0,1-1.1-1.1,5.375,5.375,0,0,1-.368-1.657ZM65.893,54.5h5.89V42.164a3.468,3.468,0,0,1,.368-1.473A6.062,6.062,0,0,1,73.44,38.3a5.025,5.025,0,0,1,2.209-1.657,7.386,7.386,0,0,1,2.761-.552,4.372,4.372,0,0,1,2.209.552,3.311,3.311,0,0,1,1.1,1.657,10.864,10.864,0,0,1,.368,2.577V54.681H87.8V39.587a12.208,12.208,0,0,0-.92-5.154,6.108,6.108,0,0,0-2.761-2.945,10.919,10.919,0,0,0-4.234-.92,8.6,8.6,0,0,0-3.129.552,9.917,9.917,0,0,0-2.393,1.288A4.751,4.751,0,0,0,72.7,34.065l-1.1,1.657h0v-4.6H66.261L65.893,54.5ZM92.031,47.87A6.05,6.05,0,0,0,92.767,51a5.025,5.025,0,0,0,1.657,2.209A11.736,11.736,0,0,0,97,54.681a8.337,8.337,0,0,0,2.945.552,14.208,14.208,0,0,0,2.761-.368,7.115,7.115,0,0,0,3.5-2.209c.184-.368.552-.736.736-1.1a.643.643,0,0,1,.184-.368h0v3.5h5.338V40.139a11.53,11.53,0,0,0-1.1-4.97,9.015,9.015,0,0,0-3.313-3.129,12.993,12.993,0,0,0-5.154-1.1,18.135,18.135,0,0,0-3.129.368,13.559,13.559,0,0,0-2.577.736,5.758,5.758,0,0,0-1.841.92,10.559,10.559,0,0,0-1.289.736l-.368.368L95.9,38.3l.552-.368a3.7,3.7,0,0,1,1.473-.736,8.973,8.973,0,0,1,2.025-.736,7.961,7.961,0,0,1,4.786,0,2.937,2.937,0,0,1,1.657,1.288,5.668,5.668,0,0,1,.552,2.393v.368h-3.5a16.11,16.11,0,0,0-2.945.368,19.256,19.256,0,0,0-3.129.736,10.092,10.092,0,0,0-2.761,1.473c-1.657.552-2.761,2.577-2.577,4.786Zm5.706-.368a2.57,2.57,0,0,1,.552-1.657c.368-.368.92-.736,1.288-1.1a3.552,3.552,0,0,1,1.841-.552A7.551,7.551,0,0,1,103.444,44h2.945v.552a9.239,9.239,0,0,1-.368,2.209,4.388,4.388,0,0,1-1.1,2.025,11.908,11.908,0,0,1-1.657,1.473,4.2,4.2,0,0,1-2.025.552,7.828,7.828,0,0,1-2.025-.368,1.66,1.66,0,0,1-1.1-1.1,8.1,8.1,0,0,1-.368-1.841ZM120.746,57.81l-1.657,4.418c.736.368,1.657.736,2.577,1.1a15.334,15.334,0,0,0,2.761.736,15.834,15.834,0,0,0,2.945.184,10.717,10.717,0,0,0,3.5-.552,12.832,12.832,0,0,0,3.5-1.1,10.724,10.724,0,0,0,2.761-2.025,11.086,11.086,0,0,0,2.577-7.363V31.119h-5.522V33.7H134l-.184-.368-.736-.736c-.368-.368-.92-.552-1.288-.92a6.594,6.594,0,0,0-2.025-.736,14.44,14.44,0,0,0-2.577-.368,11.848,11.848,0,0,0-4.418.92,9,9,0,0,0-3.313,2.577,14.383,14.383,0,0,0-2.025,3.681,18.506,18.506,0,0,0-.736,4.6,13.376,13.376,0,0,0,.736,4.6,9.74,9.74,0,0,0,2.025,3.865,9,9,0,0,0,3.313,2.577,12.653,12.653,0,0,0,4.418.92,9.053,9.053,0,0,0,3.865-.736,5.428,5.428,0,0,0,2.577-2.393h0V53.76a5.879,5.879,0,0,1-.552,2.577,3.248,3.248,0,0,1-1.473,1.657,6.8,6.8,0,0,1-2.025.92,12.43,12.43,0,0,1-2.577.368,12.153,12.153,0,0,1-2.577-.184c-.736-.184-1.288-.368-2.025-.552a12.684,12.684,0,0,1-1.473-.552l-.184-.184Zm7.731-8.467a6.205,6.205,0,0,1-3.129-.92,4.761,4.761,0,0,1-2.025-2.577,8.241,8.241,0,0,1-.736-3.681,7.976,7.976,0,0,1,.736-3.5,5.411,5.411,0,0,1,1.841-2.209,4.427,4.427,0,0,1,2.945-.736,4.669,4.669,0,0,1,2.209.368,3.819,3.819,0,0,1,1.841,1.1,7.6,7.6,0,0,1,1.288,2.025A10.423,10.423,0,0,1,134,42.532a20.283,20.283,0,0,1-.368,3.313,4.766,4.766,0,0,1-1.288,2.025,4.347,4.347,0,0,1-1.657,1.1,9.239,9.239,0,0,1-2.209.368Zm15.83-6.442a14.7,14.7,0,0,0,.92,4.786,11.969,11.969,0,0,0,6.442,6.627,12.737,12.737,0,0,0,5.154.92,16.21,16.21,0,0,0,3.129-.368,14.2,14.2,0,0,0,4.6-1.841,8,8,0,0,1,1.288-.736l.368-.368L164,47.686l-.368.184a4.023,4.023,0,0,1-.92.552,5.512,5.512,0,0,1-1.473.736,7.013,7.013,0,0,1-1.841.552,8.962,8.962,0,0,1-2.209.184,6.5,6.5,0,0,1-2.577-.552,12.371,12.371,0,0,1-2.209-1.1A7.912,7.912,0,0,1,150.75,46.4a6.824,6.824,0,0,1-.736-2.761h16.2V41.427a12.374,12.374,0,0,0-.736-4.418,8.343,8.343,0,0,0-2.025-3.5,8.52,8.52,0,0,0-3.313-2.393,12.653,12.653,0,0,0-4.418-.92,13.827,13.827,0,0,0-4.786.92,8.892,8.892,0,0,0-3.681,2.577,10.511,10.511,0,0,0-2.393,3.865c-.184,2.025-.552,3.681-.552,5.338Zm6.258-2.761a6.454,6.454,0,0,1,1.1-2.577,5.221,5.221,0,0,1,1.841-1.657,5.879,5.879,0,0,1,2.577-.552,5.668,5.668,0,0,1,2.393.552,3.612,3.612,0,0,1,1.657,1.657,5.992,5.992,0,0,1,.736,2.577Zm21.9,14.542h19.512v-4.05h-14.91V40.323h11.6V36.458h-11.6V26.334h14.173V22.468H172.47V54.681Zm25.4,0h4.418V42.164a4.333,4.333,0,0,1,.368-1.473,14.676,14.676,0,0,1,1.473-2.945,7.732,7.732,0,0,1,5.706-2.761,9.239,9.239,0,0,1,2.209.368,2.223,2.223,0,0,1,1.288,1.289,5.512,5.512,0,0,1,.736,1.841,8.961,8.961,0,0,1,.184,2.209V54.5h4.418V39.771a9.495,9.495,0,0,0-2.025-6.627,7.617,7.617,0,0,0-6.074-2.209,11.558,11.558,0,0,0-3.5.552,11.246,11.246,0,0,0-2.577,1.288,14.06,14.06,0,0,0-1.657,1.657l-1.1,1.657h0V31.3H197.5l.368,23.377Zm29.635,4.05-1.473,3.5a16.894,16.894,0,0,0,5.154,1.657,14.377,14.377,0,0,0,6.258-.184,9.062,9.062,0,0,0,3.129-1.1,13.9,13.9,0,0,0,2.577-2.025,9.335,9.335,0,0,0,1.657-2.945,14.36,14.36,0,0,0,.736-4.05V31.3h-4.234v2.761h0c0-.184-.184-.184-.184-.368-.184-.368-.552-.552-.736-.92-.368-.368-.92-.736-1.288-1.1a9.864,9.864,0,0,0-2.025-.92,14.306,14.306,0,0,0-2.945-.368,9.5,9.5,0,0,0-7.363,3.313,10.381,10.381,0,0,0-2.025,3.681,15.684,15.684,0,0,0,0,9.2,10.381,10.381,0,0,0,2.025,3.681,11.464,11.464,0,0,0,3.313,2.577,11.122,11.122,0,0,0,4.418.92,10.919,10.919,0,0,0,4.234-.92,7.38,7.38,0,0,0,2.761-2.577h0v3.129a7.631,7.631,0,0,1-.552,2.945,5.851,5.851,0,0,1-4.05,3.129,14.209,14.209,0,0,1-2.761.368,10.5,10.5,0,0,1-2.393-.184c-.736-.184-1.289-.368-2.025-.552a4.4,4.4,0,0,1-1.288-.552l-.92.184Zm7.547-8.283a5.664,5.664,0,0,1-3.5-1.1,6.88,6.88,0,0,1-2.393-2.761,8.273,8.273,0,0,1-.736-4.234,9.906,9.906,0,0,1,.736-4.05,4.353,4.353,0,0,1,2.209-2.577,7.613,7.613,0,0,1,3.5-.92,12.43,12.43,0,0,1,2.577.368,4.766,4.766,0,0,1,2.025,1.289,6.5,6.5,0,0,1,1.473,2.393,13.75,13.75,0,0,1,.552,3.681,14.013,14.013,0,0,1-.552,3.865,5.023,5.023,0,0,1-1.288,2.393,4.766,4.766,0,0,1-2.025,1.289,12.43,12.43,0,0,1-2.577.368ZM252.541,26.7h4.418V22.1h-4.418Zm0,27.795h4.418V31.3h-4.418V54.5Zm11.412,0h4.418V41.98a4.333,4.333,0,0,1,.368-1.473,14.673,14.673,0,0,1,1.473-2.945,7.732,7.732,0,0,1,5.706-2.761,9.239,9.239,0,0,1,2.209.368,2.223,2.223,0,0,1,1.288,1.289,5.511,5.511,0,0,1,.736,1.841,8.961,8.961,0,0,1,.184,2.209V54.312h4.418V39.587a9.494,9.494,0,0,0-2.025-6.627,7.617,7.617,0,0,0-6.074-2.209,11.558,11.558,0,0,0-3.5.552,11.246,11.246,0,0,0-2.577,1.288,14.055,14.055,0,0,0-1.657,1.657l-1.1,1.657h0V31.119h-4.05l.184,23.377Zm25.954-11.6a13.826,13.826,0,0,0,.92,4.786,11.844,11.844,0,0,0,6.442,6.442,15.782,15.782,0,0,0,4.97.92,18.133,18.133,0,0,0,3.129-.368,15.057,15.057,0,0,0,4.418-1.841c.368-.184.736-.552,1.1-.736l.368-.368-1.841-3.313-.368.368c-.184.184-.552.368-.92.736a5.511,5.511,0,0,1-1.473.736,7.693,7.693,0,0,1-1.841.736,9.239,9.239,0,0,1-2.209.368,8.337,8.337,0,0,1-2.945-.552,7.222,7.222,0,0,1-2.577-1.473,7,7,0,0,1-1.657-2.393,7.47,7.47,0,0,1-.736-3.5h16.935V41.612a10.8,10.8,0,0,0-.736-4.234,12.729,12.729,0,0,0-1.841-3.5,10.119,10.119,0,0,0-3.129-2.393,10.919,10.919,0,0,0-4.234-.92,12.817,12.817,0,0,0-4.6.92,15.789,15.789,0,0,0-3.681,2.393,10.511,10.511,0,0,0-2.393,3.865,9.06,9.06,0,0,0-1.1,5.154Zm4.786-2.577a8.267,8.267,0,0,1,1.288-3.313,6.41,6.41,0,0,1,2.393-2.025,6.05,6.05,0,0,1,3.129-.736,5.194,5.194,0,0,1,2.761.736,4.436,4.436,0,0,1,1.841,1.841,7.5,7.5,0,0,1,.92,3.313Z" transform="translate(-1.1 -4.477)" fill="#fff"/>
      </g>
      <g id="XMLID_25_" transform="translate(307.241 0)" opacity="0">
        <path id="path1309" d="M199.949,2.708c-2.577-.184-7.179,1.1-10.676,2.209a43.569,43.569,0,0,0-9.756,4.6c-2.577,1.657-6.258,2.945-7.547,4.786-.184.368-3.313,3.129-2.393,3.865,1.657,1.288,2.761,3.313,4.6,4.418a39.487,39.487,0,0,1,8.283,7.547c1.473,1.657,3.866,4.6,6.074,5.522,3.866,1.473,6.627,5.522,6.995,5.89h0c1.288.184,0,3.681,1.473,3.5,1.657-.184,3.313-4.97,4.05-6.995,1.841-5.522,2.209-4.418,2.209-5.154,4.234-.184,6.811,2.025,9.572,3.865.736.552,2.209,2.761,3.681,2.945.552,0,4.234-.552,4.418-1.473.368-2.393-1.1-3.865-1.657-6.258s-4.418-11.6-5.89-15.094a38.242,38.242,0,0,0-6.995-11.044C203.262,2.34,202.342,3.076,199.949,2.708Z" transform="translate(-166.843 -2.69)" fill="#cf2026"/>
        <path id="path5882" d="M196.128,19.047c-9.756,2.945-22.825-9.2-22.089-7.363,1.657,4.05-5.522-1.288-4.6-.552,1.657,1.288,2.761,3.313,4.6,4.418a39.487,39.487,0,0,1,8.283,7.547c1.473,1.657,3.865,4.6,6.074,5.522,3.866,1.473,6.627,5.522,6.995,5.89h0c1.288.184,0,3.681,1.473,3.5,1.657-.184,3.313-4.97,4.05-6.995,1.841-5.522,2.209-4.418,2.209-5.154,4.234-.184,6.811,2.025,9.572,3.865.736.552,2.209,2.761,3.681,2.945.552,0-3.865-4.418-5.154-6.442-2.025-3.129.552-11.781-1.473-13.805C208.092,10.4,205.7,15.918,196.128,19.047Z" transform="translate(-166.887 4.347)" fill="#12090a" opacity="0.101"/>
        <path id="path5878" d="M200.09,20.5a4.619,4.619,0,0,1-1.841.368c-.368.184-1.1.736-1.1,1.288.368,1.1-.552.736-1.289.368-.552-.368-.736.184-.736.736-.368-.184-.736-.184-.92.368.184.552,5.706-1.473,6.258-1.473" transform="translate(-146 12.282)" fill="#010101" stroke="#010101" stroke-width="0.83" opacity="0.27"/>
        <path id="path5003" d="M176.419,14.163h-.552l-.368-.368c-.552-.736-1.473-2.209-1.841-1.473.552-1.1.368-2.393-.92-2.761-.736-.552-2.393.736-3.681,1.473-1.1.92,1.288.552.368,1.1-1.473.736-.368,2.761.736,2.209a16.158,16.158,0,0,0,2.209,2.761c1.473-.552,1.288,1.288,1.841,2.209.92-.552,2.577,1.288,1.1,2.025.552,1.288,3.129,1.1,3.681,2.577,1.1-.368,2.577,1.1,2.025,2.209-.552,1.657,1.841,2.945,3.129,2.209a4.358,4.358,0,0,1,2.393,2.393c-2.025.368,1.1.736.184,1.657.736.92.92,1.1,2.209.736.368-.736,1.289.368,1.473,1.841,0,1.657,1.657,1.288,2.577,1.841-.552.92.92,2.577.92,3.681.736-1.473.92.552,1.657,1.288.736-1.1.552-1.657.552-.736,1.657.552,1.657-.184,2.393-1.657.368-1.289.184-.552,1.288-2.025-.368-.368-2.393.184-2.025-.92-.368-1.473,1.657-3.313.184-4.05-3.313-.552-.92-2.761-2.577-3.313-.92-1.1-.92,1.1-1.473.184.184-1.288-3.129-2.577-3.5-1.657-.92-1.288-.368-2.209-1.1-4.234-.736,1.1-1.841-.552-2.393-1.473-.92,1.1-2.209-.552-1.657-1.657a10.069,10.069,0,0,0-2.025-1.841c-.552-.736-.92.368-1.1-.184-.552-.368-1.288-2.577-1.841-1.657-.368-.552-.368-1.288-1.473-1.288a12.7,12.7,0,0,0-3.5-1.288" transform="translate(-167.426 2.973)" fill="#010101" stroke="#010101" stroke-width="0.601" opacity="0.294"/>
        <path id="path1307" d="M175.719,14.245v-.184l-.184-.184c-.552-.736-2.209-2.209-2.577-1.288.552-1.1.368-2.393-.92-2.761-1.288-1.288-2.945.184-3.681,1.473-1.1.92,1.288.552.368,1.1-1.473.736-.368,2.761.736,2.209a16.156,16.156,0,0,0,2.209,2.761c1.473-.552,1.288,1.288,1.841,2.209.92-.552,2.577,1.288,1.1,2.025.552,1.288,3.129,1.1,3.681,2.577,1.1-.368,2.577,1.1,2.025,2.209-.552,1.657,2.025,2.577,3.129,2.209A4.358,4.358,0,0,1,185.843,31c-2.025.368,1.1.736.184,1.657.736.92,1.1,2.761,2.577,2.577.368-.736,1.1-1.289,1.289,0,0,1.657,1.657,1.288,2.577,1.841-.552.92.92,2.577.92,3.681.736-1.473.92.552,1.657,1.288.736-1.1.92-.368,1.1.552a2.265,2.265,0,0,0,3.129-1.473c2.025-1.1-1.288-2.761.184-3.5-.368-.368-1.288-.184-.92-1.1-.368-1.473.736-2.945-.92-3.865-1.841-.368-.184-3.129-1.841-3.5-.92-1.1-1.657,1.288-2.209.368.184-1.288-1.841-2.577-2.393-1.473-.92-1.288-.736-3.313-2.393-4.234-.736,1.1-.92-.92-1.657-1.841-.92,1.1-2.209-.552-1.657-1.657-.552-.736-2.025-.92-2.945-1.473-.552-.736-.92.368-1.1-.184-.552-.368-.552-2.945-1.288-2.025a1.724,1.724,0,0,0-1.841-.92,6.23,6.23,0,0,0-2.945-1.288" transform="translate(-168.014 2.891)" fill="#fff" stroke="#010101" stroke-width="0.25"/>
        <path id="path3249" d="M190.7,27.434s-.552,0-.736.92c-.736-.736-1.1,1.1-1.1,1.1s-1.841-2.577-1.841-.552c-1.288-1.289-.92-2.025-2.025-2.025.552-1.1,0-2.209-1.473-2.577s-2.761-1.657-2.209-1.1c.368.736,0,.184-.552.184s-1.841-4.786-4.786-4.05c-1.1.184,3.5,2.761,2.945,3.313-.92.92,1.1.736.184,1.657.736.92,1.1,2.761,2.577,2.577.368-.736,1.1-1.473,1.288-.184,0,1.657,1.473,1.473,2.393,1.841-.552.92.92,2.577.92,3.681.736-1.473.92.552,1.657,1.288.736-1.1.92-.368,1.1.552a2.265,2.265,0,0,0,3.129-1.473c2.025-1.1-1.288-2.761.184-3.5-.368-.368-1.288-.184-.92-1.1C190.888,26.7,190.7,27.434,190.7,27.434Z" transform="translate(-161.463 11.238)" fill="#010101" opacity="0.112"/>
        <path id="path2251" d="M200.9,20.775c.184,0,.184-.368,0,0s-.736.368-1.288.184a2.749,2.749,0,0,1-1.289.552c-.368.184-1.1.368-1.1.92.184.552-.736.552-1.288.368-.552-.368-.736.368-.736.736-.368-.184-.736-.368-.92,0a3.32,3.32,0,0,0-.552,2.209,4.681,4.681,0,0,1,.368,1.288c.184.368.184,1.1.92,1.1.368-.184.552,0,.368.368.184.368-.184,1.288.368,1.288a3.132,3.132,0,0,0,1.288.184,8,8,0,0,0,1.288.736c.552.184.92-.552,1.473-.184.368-.184.552,0,.92,0,.184-.368.736-.552,1.1-.92.368-.184.368-.368.368-.736.184-.368.736-.736.552-1.289s0-.92.552-1.288c.184-.368-.368-.736-.184-1.288.368.184.184-.368.552-.552a.958.958,0,0,0,0-1.473c-.184-.368-.368-.184,0,.184,0-.92-.736-1.473-.92-2.209-.184.184-.552-.368-.552,0a1.617,1.617,0,0,0-1.288-.184" transform="translate(-146.443 12.376)" fill="#fff" stroke="#010101" stroke-width="0.25"/>
        <path id="path4128" d="M200.995,25.045c-.368.368-.368.736-.736.552-.368.184,0,.184-.736.184-.368.184-.736-.552-.552,0s-1.1.736-1.473.552c-.552-.368-.368-.552-.368-.184,0,.92-1.1-1.1-1.289-.552-.368.736-1.1-1.473-.92-.736.184.552-.92-.736-.92-.184.184.368.184,1.1.92,1.1.368-.184.552,0,.368.368.184.368-.184,1.288.368,1.288a3.133,3.133,0,0,0,1.289.184,8,8,0,0,0,1.288.736c.552.184.92-.552,1.473-.184.368-.184.552,0,.92,0,.184-.368.736-.552,1.1-.92.368-.184.368-.368.368-.736.184-.368.736-.736.552-1.288s0-.92.552-1.288c.184-.368-.368.552-.552.184s-.552.368-.368.552c0-.92-.552.184-.736-.552-.184.184-.368,0-.368.368-.184.184.736.552.368.736C201.363,24.677,200.811,25.6,200.995,25.045Z" transform="translate(-146.168 15.1)" fill="#010101" opacity="0.096"/>
        <path id="path5880" d="M189,21.451a17.4,17.4,0,0,1,2.025-3.681,9.046,9.046,0,0,0,2.025-2.761c.552-.92.184-2.209-.552-2.209-.92,0-2.393,2.577-2.945,4.418-.552,2.025-1.657,7.363-1.657,7.363C187.9,24.949,188.636,22.372,189,21.451Z" transform="translate(-151.296 5.809)" fill="rgba(1,1,1,0.22)"/>
      </g>
    </g>
    <g id="Layer_x0020_1" transform="translate(20642.818 8233.069)">
      <g id="_600975312" transform="translate(0 0)">
        <path id="_707535864" d="M0,48.4H8.793l2.045-27.062c.045-.818.079-1.659.1-2.534s.011-1.693.011-2.454-.011-1.375-.023-1.852-.023-.716-.023-.727h.136c0,.023.091.284.25.784s.386,1.159.648,1.954.545,1.613.852,2.466.613,1.647.909,2.363l7.771,18.746h7.7l7.839-18.746c.3-.716.591-1.5.9-2.352s.579-1.67.829-2.443.466-1.42.625-1.92.239-.773.239-.784h.136c0,.011-.011.25-.023.716s-.011,1.079-.023,1.829,0,1.568.023,2.431.045,1.7.091,2.522L41.854,48.4h8.725L46.694,0H37.287L27.812,23.926c-.273.727-.557,1.5-.83,2.318s-.534,1.579-.773,2.306-.42,1.306-.568,1.761-.216.693-.216.7H25.29c0-.011-.079-.25-.227-.7s-.352-1.045-.591-1.761-.511-1.5-.8-2.306-.568-1.591-.841-2.318L13.361,0H3.954L0,48.4ZM57.4,31.016a18.326,18.326,0,0,0,1.5,7.362,17.137,17.137,0,0,0,4.09,5.749,18.378,18.378,0,0,0,6.09,3.749,21.42,21.42,0,0,0,14.917,0,18.39,18.39,0,0,0,6.067-3.749,17.266,17.266,0,0,0,4.079-5.749,18.738,18.738,0,0,0,0-14.69,17.3,17.3,0,0,0-4.09-5.76,18.591,18.591,0,0,0-6.09-3.76,21.247,21.247,0,0,0-14.917,0,18.724,18.724,0,0,0-6.067,3.76,17.428,17.428,0,0,0-4.079,5.76,18.162,18.162,0,0,0-1.5,7.328Zm8.793,0a11.83,11.83,0,0,1,.818-4.4,10.616,10.616,0,0,1,2.238-3.431,10.24,10.24,0,0,1,7.305-3.011,10.081,10.081,0,0,1,3.965.8A10.215,10.215,0,0,1,83.8,23.188a10.6,10.6,0,0,1,2.227,3.431,11.846,11.846,0,0,1,.818,4.4,12.028,12.028,0,0,1-.818,4.431,10.545,10.545,0,0,1-2.227,3.42,10.162,10.162,0,0,1-7.248,2.988,10.3,10.3,0,0,1-4.01-.784,10.06,10.06,0,0,1-3.295-2.2,10.566,10.566,0,0,1-2.238-3.42A12.011,12.011,0,0,1,66.19,31.016ZM102.59,48.4h8.18V46.421q-.017-1.039-.068-1.7-.068-.665-.068-.682h.136a6.114,6.114,0,0,0,.386.534,9.812,9.812,0,0,0,1.181,1.3,13.154,13.154,0,0,0,2.022,1.522,12.63,12.63,0,0,0,2.92,1.3,13.658,13.658,0,0,0,3.851.534,15.817,15.817,0,0,0,6.374-1.3,14.513,14.513,0,0,0,5.055-3.67,16.906,16.906,0,0,0,3.329-5.737,22.757,22.757,0,0,0,1.193-7.5A24.29,24.29,0,0,0,136,23.631a17.089,17.089,0,0,0-3.09-5.76,13.8,13.8,0,0,0-4.862-3.726,15.148,15.148,0,0,0-6.373-1.329,14.467,14.467,0,0,0-3.908.523,12.6,12.6,0,0,0-2.942,1.25,11.523,11.523,0,0,0-2.022,1.5,10.061,10.061,0,0,0-1.182,1.25,6.037,6.037,0,0,0-.375.523h-.136c0-.011.023-.3.068-.829s.057-1.239.068-2.1V0H102.59V48.4Zm8.384-17.178a15.623,15.623,0,0,1,.727-4.965,9.522,9.522,0,0,1,1.943-3.408,7.974,7.974,0,0,1,2.795-1.977,8.578,8.578,0,0,1,3.261-.625,7.924,7.924,0,0,1,4.522,1.352,8.887,8.887,0,0,1,3.034,3.783,14.286,14.286,0,0,1,1.1,5.771,14.541,14.541,0,0,1-.693,4.59,10.081,10.081,0,0,1-1.875,3.374,8.026,8.026,0,0,1-6.158,2.806,7.685,7.685,0,0,1-6.5-3.329,11.109,11.109,0,0,1-1.624-3.431,14.669,14.669,0,0,1-.534-3.942ZM144.24,7.7h8.589V0H144.24Zm0,40.7H152.9V13.633H144.24ZM161.963,37.56a16.833,16.833,0,0,0,.659,4.988A8.737,8.737,0,0,0,164.36,45.8a7.654,7.654,0,0,0,2.477,1.875,10.706,10.706,0,0,0,2.886.863,18.582,18.582,0,0,0,2.942.2c.489,0,.932-.023,1.341-.057s.75-.068,1-.091.375-.057.386-.057V40.968c-.012,0-.148.011-.4.034s-.545.034-.9.034a4,4,0,0,1-1.92-.386,2.653,2.653,0,0,1-1.2-1.454,8.014,8.014,0,0,1-.42-2.931V0h-8.589V37.56Zm17.382-6.544a19.358,19.358,0,0,0,1.3,7.01,17.228,17.228,0,0,0,9.6,9.737,20.605,20.605,0,0,0,7.783,1.454,21.575,21.575,0,0,0,4.783-.523,22.231,22.231,0,0,0,6.771-2.7,19.366,19.366,0,0,0,1.8-1.227c.42-.341.625-.511.625-.523l-3.34-6.2a5.69,5.69,0,0,1-.5.4c-.341.25-.807.568-1.42.943a18.769,18.769,0,0,1-2.159,1.136,16.256,16.256,0,0,1-2.749.943,13.79,13.79,0,0,1-3.192.4,12.031,12.031,0,0,1-3.738-.579,10.149,10.149,0,0,1-3.215-1.75,9.073,9.073,0,0,1-2.34-2.874,10.608,10.608,0,0,1-1.136-4H212.2c0-.011.011-.136.034-.375s.045-.545.068-.909.046-.738.068-1.1.034-.693.034-.954a20.181,20.181,0,0,0-1-6.465,15.3,15.3,0,0,0-2.942-5.237,13.462,13.462,0,0,0-4.829-3.511A16.569,16.569,0,0,0,197,12.815a18.82,18.82,0,0,0-7.135,1.341,16.1,16.1,0,0,0-5.578,3.749,16.809,16.809,0,0,0-3.636,5.749,20.408,20.408,0,0,0-1.307,7.362Zm9.134-4.294a9.7,9.7,0,0,1,1.534-3.874,7.539,7.539,0,0,1,2.84-2.477A8.645,8.645,0,0,1,196.8,19.5a7.089,7.089,0,0,1,3.454.829,6.106,6.106,0,0,1,2.431,2.431,8.507,8.507,0,0,1,1,3.965h-15.2ZM237.491,48.4h16.5a30.038,30.038,0,0,0,10.157-1.647,21.62,21.62,0,0,0,7.782-4.76,20.953,20.953,0,0,0,4.976-7.623,28.473,28.473,0,0,0,1.761-10.237A28.3,28.3,0,0,0,276.9,13.917a20.672,20.672,0,0,0-4.976-7.578,21.518,21.518,0,0,0-7.782-4.715A30.046,30.046,0,0,0,253.988,0h-16.5V48.4Zm8.794-7.566V7.567h7.226a19.53,19.53,0,0,1,6.6,1.068,13.94,13.94,0,0,1,5.079,3.17A14.2,14.2,0,0,1,268.45,17a20.787,20.787,0,0,1,1.148,7.135,19.656,19.656,0,0,1-1.988,9.18,13.083,13.083,0,0,1-5.567,5.612,17.947,17.947,0,0,1-8.532,1.909h-7.226Zm37.764-9.816a19.357,19.357,0,0,0,1.3,7.01,17.229,17.229,0,0,0,9.6,9.737,20.605,20.605,0,0,0,7.783,1.454,21.575,21.575,0,0,0,4.783-.523,22.231,22.231,0,0,0,6.771-2.7,19.366,19.366,0,0,0,1.8-1.227c.42-.341.625-.511.625-.523l-3.34-6.2a5.688,5.688,0,0,1-.5.4c-.341.25-.807.568-1.42.943a18.764,18.764,0,0,1-2.159,1.136,16.256,16.256,0,0,1-2.749.943,13.79,13.79,0,0,1-3.192.4,12.031,12.031,0,0,1-3.738-.579,10.148,10.148,0,0,1-3.215-1.75,9.073,9.073,0,0,1-2.341-2.874,10.609,10.609,0,0,1-1.136-4h23.995c0-.011.011-.136.034-.375s.045-.545.068-.909.046-.738.068-1.1.034-.693.034-.954a20.182,20.182,0,0,0-1-6.465,15.3,15.3,0,0,0-2.942-5.237,13.462,13.462,0,0,0-4.829-3.511,16.569,16.569,0,0,0-6.635-1.284,18.821,18.821,0,0,0-7.135,1.341,16.1,16.1,0,0,0-5.578,3.749,16.809,16.809,0,0,0-3.636,5.749,20.407,20.407,0,0,0-1.307,7.362Zm9.134-4.294a9.7,9.7,0,0,1,1.534-3.874,7.538,7.538,0,0,1,2.84-2.477A8.645,8.645,0,0,1,301.5,19.5a7.089,7.089,0,0,1,3.454.829,6.105,6.105,0,0,1,2.431,2.431,8.506,8.506,0,0,1,1,3.965h-15.2ZM332.106,48.4h10.225l12.474-34.765h-9.134l-7.225,21.541c-.171.523-.33,1.08-.466,1.681s-.273,1.17-.375,1.716-.193.977-.261,1.318a2.6,2.6,0,0,1-.125.534h-.136a2.584,2.584,0,0,1-.125-.534c-.068-.341-.147-.784-.261-1.318s-.227-1.113-.375-1.716-.3-1.159-.466-1.681L328.63,13.633H319.5ZM359.645,7.7h8.589V0h-8.589Zm0,40.7H368.3V13.633h-8.657Zm15.678-17.382a19.249,19.249,0,0,0,1.329,7.1,17.16,17.16,0,0,0,3.794,5.783,17.533,17.533,0,0,0,5.953,3.9,20.99,20.99,0,0,0,7.8,1.42,21.772,21.772,0,0,0,5.079-.591,20.786,20.786,0,0,0,4-1.4,19.635,19.635,0,0,0,2.886-1.681,16.94,16.94,0,0,0,1.761-1.4,7.337,7.337,0,0,0,.591-.591l-3.34-6.135c0,.012-.17.171-.5.466a17.666,17.666,0,0,1-1.409,1.091,18.465,18.465,0,0,1-2.181,1.318,15.834,15.834,0,0,1-2.818,1.091,12.437,12.437,0,0,1-3.318.466,11.574,11.574,0,0,1-4.488-.875A10.27,10.27,0,0,1,387.06,38.6a10.649,10.649,0,0,1-2.181-3.476,11.945,11.945,0,0,1-.011-8.362,10.431,10.431,0,0,1,2.124-3.431,9.882,9.882,0,0,1,3.34-2.306,11.129,11.129,0,0,1,4.352-.852,12.169,12.169,0,0,1,3.033.386,12.992,12.992,0,0,1,2.511.932,13.93,13.93,0,0,1,1.9,1.113,12.094,12.094,0,0,1,1.2.932c.273.25.42.375.42.386L407.567,18c0-.011-.171-.193-.523-.545a13.618,13.618,0,0,0-1.568-1.284,17.6,17.6,0,0,0-2.647-1.534,19.507,19.507,0,0,0-3.749-1.284,21.757,21.757,0,0,0-4.874-.534,20.766,20.766,0,0,0-7.8,1.454,17.439,17.439,0,0,0-9.748,9.736,18.9,18.9,0,0,0-1.329,7.01Zm37.218,0a19.358,19.358,0,0,0,1.3,7.01,17.228,17.228,0,0,0,9.6,9.737,20.605,20.605,0,0,0,7.783,1.454A21.575,21.575,0,0,0,436,48.694a22.233,22.233,0,0,0,6.772-2.7,19.377,19.377,0,0,0,1.795-1.227c.42-.341.625-.511.625-.523l-3.34-6.2a5.69,5.69,0,0,1-.5.4c-.341.25-.807.568-1.42.943a18.772,18.772,0,0,1-2.159,1.136,16.258,16.258,0,0,1-2.749.943,13.79,13.79,0,0,1-3.192.4,12.031,12.031,0,0,1-3.738-.579,10.148,10.148,0,0,1-3.215-1.75,9.074,9.074,0,0,1-2.341-2.874,10.61,10.61,0,0,1-1.136-4H445.4c0-.011.011-.136.034-.375s.045-.545.068-.909.046-.738.068-1.1.034-.693.034-.954a20.181,20.181,0,0,0-1-6.465,15.3,15.3,0,0,0-2.942-5.237,13.462,13.462,0,0,0-4.829-3.511,16.569,16.569,0,0,0-6.635-1.284,18.821,18.821,0,0,0-7.135,1.341,16.1,16.1,0,0,0-5.578,3.749,16.81,16.81,0,0,0-3.635,5.749,20.407,20.407,0,0,0-1.307,7.362Zm9.134-4.294a9.7,9.7,0,0,1,1.534-3.874,7.539,7.539,0,0,1,2.84-2.477,8.645,8.645,0,0,1,3.943-.875,7.089,7.089,0,0,1,3.454.829,6.105,6.105,0,0,1,2.431,2.431,8.507,8.507,0,0,1,1,3.965h-15.2ZM469.189,48.4h8.793l2.045-27.062c.045-.818.079-1.659.1-2.534s.011-1.693.011-2.454-.011-1.375-.023-1.852-.023-.716-.023-.727h.137c0,.023.091.284.25.784s.386,1.159.648,1.954.546,1.613.852,2.466.614,1.647.909,2.363l7.771,18.746h7.7L506.2,21.336c.3-.716.591-1.5.9-2.352s.579-1.67.829-2.443.466-1.42.625-1.92.239-.773.239-.784h.137c0,.011-.011.25-.023.716s-.011,1.079-.023,1.829,0,1.568.023,2.431.045,1.7.091,2.522L511.043,48.4h8.725L515.883,0h-9.407L497,23.926c-.273.727-.557,1.5-.83,2.318s-.534,1.579-.772,2.306-.42,1.306-.568,1.761-.216.693-.216.7h-.136c0-.011-.079-.25-.227-.7s-.352-1.045-.591-1.761-.511-1.5-.8-2.306-.568-1.591-.841-2.318L482.549,0h-9.407l-3.954,48.4Zm57.055-10.02A11.015,11.015,0,0,0,527.21,43a9.9,9.9,0,0,0,2.6,3.4,11.422,11.422,0,0,0,3.76,2.1,13.879,13.879,0,0,0,4.465.716,13.358,13.358,0,0,0,4.147-.636,11.49,11.49,0,0,0,3.011-1.522,11.371,11.371,0,0,0,2-1.818,10.8,10.8,0,0,0,1.1-1.522,3.007,3.007,0,0,0,.307-.636h.136q0,.034-.068.716-.051.7-.068,1.738V48.4h7.976V26.653a15.432,15.432,0,0,0-1.715-7.5,11.283,11.283,0,0,0-4.931-4.7,17.375,17.375,0,0,0-7.8-1.636,24.081,24.081,0,0,0-4.59.443,24.487,24.487,0,0,0-3.772,1.068,24.063,24.063,0,0,0-2.852,1.272,18.268,18.268,0,0,0-1.795,1.068c-.409.284-.625.432-.625.443l3.272,6.2c.011-.023.273-.193.8-.523a20.106,20.106,0,0,1,2.113-1.147,19.19,19.19,0,0,1,3.045-1.148,13.314,13.314,0,0,1,3.59-.523,9.032,9.032,0,0,1,3.431.579,4.768,4.768,0,0,1,2.363,1.931,6.729,6.729,0,0,1,.886,3.624v.477H546.83c-.966-.011-2.125.023-3.488.1a43.265,43.265,0,0,0-4.363.5,28,28,0,0,0-4.567,1.148,16.485,16.485,0,0,0-4.09,2.079,9.38,9.38,0,0,0-4.079,7.964Zm8.725-.409a3.915,3.915,0,0,1,.784-2.431,5.462,5.462,0,0,1,2.022-1.579,12.044,12.044,0,0,1,2.795-.92,23.372,23.372,0,0,1,3.079-.421c1.045-.079,2.011-.114,2.909-.1h1.5v.818a9.472,9.472,0,0,1-.58,3.215,10.789,10.789,0,0,1-1.625,2.943,8.625,8.625,0,0,1-2.488,2.147,6.47,6.47,0,0,1-3.147.829,6.21,6.21,0,0,1-2.931-.648,4.264,4.264,0,0,1-1.75-1.659,4.44,4.44,0,0,1-.568-2.193ZM565.576,48.4h8.657V32.447a20.736,20.736,0,0,1,.125-2.4,11.2,11.2,0,0,1,.489-2.238,10.78,10.78,0,0,1,1.965-3.692,9.341,9.341,0,0,1,3.181-2.488,9.861,9.861,0,0,1,4.192-.909,5.7,5.7,0,0,1,3.4.9,4.571,4.571,0,0,1,1.681,2.477,13.018,13.018,0,0,1,.443,3.715V48.4H598.3V26.04a17.5,17.5,0,0,0-1.42-7.521,9.107,9.107,0,0,0-4.09-4.317,13.945,13.945,0,0,0-6.555-1.386,14.779,14.779,0,0,0-4.68.716,13.377,13.377,0,0,0-3.556,1.8,13.734,13.734,0,0,0-2.533,2.352,13.231,13.231,0,0,0-1.568,2.363h-.137c0-.023.023-.261.068-.7s.057-1.011.068-1.681V13.633h-8.316V48.4Zm38.855-10.02A11.015,11.015,0,0,0,605.4,43a9.9,9.9,0,0,0,2.6,3.4,11.423,11.423,0,0,0,3.76,2.1,13.878,13.878,0,0,0,4.465.716,13.358,13.358,0,0,0,4.147-.636,11.488,11.488,0,0,0,3.011-1.522,11.365,11.365,0,0,0,2-1.818,10.79,10.79,0,0,0,1.1-1.522,3,3,0,0,0,.307-.636h.136q0,.034-.068.716-.051.7-.068,1.738V48.4h7.976V26.653a15.43,15.43,0,0,0-1.715-7.5,11.283,11.283,0,0,0-4.931-4.7,17.374,17.374,0,0,0-7.8-1.636,24.082,24.082,0,0,0-4.59.443,24.483,24.483,0,0,0-3.772,1.068A24.054,24.054,0,0,0,609.1,15.6a18.264,18.264,0,0,0-1.8,1.068c-.409.284-.625.432-.625.443l3.272,6.2c.011-.023.273-.193.8-.523a20.1,20.1,0,0,1,2.113-1.147,19.187,19.187,0,0,1,3.044-1.148,13.314,13.314,0,0,1,3.59-.523,9.032,9.032,0,0,1,3.431.579,4.769,4.769,0,0,1,2.363,1.931,6.729,6.729,0,0,1,.886,3.624v.477h-1.159c-.966-.011-2.125.023-3.488.1a43.272,43.272,0,0,0-4.363.5,28,28,0,0,0-4.567,1.148,16.487,16.487,0,0,0-4.09,2.079,9.38,9.38,0,0,0-4.079,7.964Zm8.726-.409a3.915,3.915,0,0,1,.784-2.431,5.462,5.462,0,0,1,2.022-1.579,12.046,12.046,0,0,1,2.795-.92,23.371,23.371,0,0,1,3.079-.421c1.046-.079,2.011-.114,2.909-.1h1.5v.818a9.473,9.473,0,0,1-.58,3.215,10.791,10.791,0,0,1-1.625,2.943,8.626,8.626,0,0,1-2.488,2.147,6.47,6.47,0,0,1-3.147.829,6.21,6.21,0,0,1-2.931-.648,4.264,4.264,0,0,1-1.75-1.659,4.439,4.439,0,0,1-.568-2.193ZM647.308,53.1l-2.591,6.612a25.327,25.327,0,0,0,3.715,1.568,29.441,29.441,0,0,0,4.226,1.045,26.125,26.125,0,0,0,4.4.386,25.07,25.07,0,0,0,5.385-.568,19.193,19.193,0,0,0,4.987-1.784,15.03,15.03,0,0,0,4.124-3.136,14.127,14.127,0,0,0,2.806-4.647,18.092,18.092,0,0,0,1.034-6.294V13.633H667.28v2.658a5.584,5.584,0,0,0,.034.682c.022.171.034.262.034.273h-.2a5.547,5.547,0,0,0-.341-.466,9.079,9.079,0,0,0-1.1-1.091,11.159,11.159,0,0,0-1.954-1.318,13.316,13.316,0,0,0-2.92-1.091,16.409,16.409,0,0,0-3.976-.466,15.644,15.644,0,0,0-6.635,1.363,13.7,13.7,0,0,0-4.829,3.715,16.41,16.41,0,0,0-2.942,5.5,22.308,22.308,0,0,0-1,6.737,21.621,21.621,0,0,0,1.045,6.771,16.814,16.814,0,0,0,3.034,5.6,14.158,14.158,0,0,0,4.9,3.806,15.6,15.6,0,0,0,6.635,1.409,12.812,12.812,0,0,0,5.817-1.2,10,10,0,0,0,3.863-3.5h.136c0,.011-.011.1-.034.3s-.045.421-.068.7-.034.557-.034.841V46.9a9.34,9.34,0,0,1-.784,3.942,6.882,6.882,0,0,1-2.124,2.613,9.3,9.3,0,0,1-3.124,1.454,15.554,15.554,0,0,1-3.783.443A20.192,20.192,0,0,1,653.2,55a22.489,22.489,0,0,1-3.056-.773c-.886-.3-1.579-.545-2.079-.773s-.75-.341-.761-.352ZM658.9,40.423a8.251,8.251,0,0,1-4.749-1.386,8.488,8.488,0,0,1-2.954-3.749,13.576,13.576,0,0,1-1.022-5.431,12.6,12.6,0,0,1,.954-5.112,7.469,7.469,0,0,1,2.772-3.363,8.065,8.065,0,0,1,4.454-1.2,10.928,10.928,0,0,1,3.329.454,6.623,6.623,0,0,1,2.727,1.591,7.417,7.417,0,0,1,1.852,3.067,15.768,15.768,0,0,1,.682,4.908,15.9,15.9,0,0,1-.671,4.908,8.157,8.157,0,0,1-1.8,3.147,6.559,6.559,0,0,1-2.568,1.67,8.635,8.635,0,0,1-3.011.5Zm23.586-9.407a19.356,19.356,0,0,0,1.3,7.01,17.229,17.229,0,0,0,9.6,9.737,20.605,20.605,0,0,0,7.783,1.454,21.575,21.575,0,0,0,4.783-.523,22.231,22.231,0,0,0,6.771-2.7,19.372,19.372,0,0,0,1.8-1.227c.42-.341.625-.511.625-.523l-3.34-6.2a5.707,5.707,0,0,1-.5.4c-.341.25-.807.568-1.42.943a18.761,18.761,0,0,1-2.159,1.136,16.252,16.252,0,0,1-2.75.943,13.789,13.789,0,0,1-3.192.4,12.031,12.031,0,0,1-3.738-.579,10.15,10.15,0,0,1-3.215-1.75,9.074,9.074,0,0,1-2.34-2.874,10.608,10.608,0,0,1-1.136-4h23.995c0-.011.011-.136.034-.375s.046-.545.068-.909.045-.738.068-1.1.034-.693.034-.954a20.179,20.179,0,0,0-1-6.465A15.3,15.3,0,0,0,711.6,17.61a13.463,13.463,0,0,0-4.829-3.511,16.569,16.569,0,0,0-6.635-1.284A18.82,18.82,0,0,0,693,14.156a16.1,16.1,0,0,0-5.578,3.749,16.81,16.81,0,0,0-3.635,5.749,20.407,20.407,0,0,0-1.307,7.362Zm9.134-4.295a9.7,9.7,0,0,1,1.534-3.874,7.538,7.538,0,0,1,2.84-2.477,8.645,8.645,0,0,1,3.943-.875,7.089,7.089,0,0,1,3.454.829,6.105,6.105,0,0,1,2.431,2.431,8.507,8.507,0,0,1,1,3.965h-15.2Z" transform="translate(0 0)" fill="#fff"/>
        <path id="_707535192" d="M183.07,48.194h8.657V34.425a24.752,24.752,0,0,1,.17-2.954,14.434,14.434,0,0,1,.579-2.7,10.982,10.982,0,0,1,2.363-4.192,9.5,9.5,0,0,1,3.386-2.363,9.641,9.641,0,0,1,3.726-.739,12.565,12.565,0,0,1,1.454.068,4.484,4.484,0,0,1,.591.068V13.089a3.138,3.138,0,0,0-.477-.068,7.55,7.55,0,0,0-1.09-.068,10.453,10.453,0,0,0-4.874,1.2,12.05,12.05,0,0,0-3.795,3.193,14.4,14.4,0,0,0-2.374,4.533h-.137c0-.011.011-.125.034-.352s.045-.523.068-.886.034-.784.034-1.216v-6H183.07Zm45.126,0h6.749V30.4h10.838a16.669,16.669,0,0,0,6.078-1.1,13.9,13.9,0,0,0,7.93-7.93,17.03,17.03,0,0,0,1.125-6.237,16.762,16.762,0,0,0-1.125-6.2,13.59,13.59,0,0,0-7.93-7.794A17.151,17.151,0,0,0,245.783.069H228.2V48.194Zm6.749-23.654V5.931h9.816a10.523,10.523,0,0,1,4.953,1.1,7.586,7.586,0,0,1,3.192,3.136,10.47,10.47,0,0,1,1.125,4.965,10.589,10.589,0,0,1-1.136,5.01,7.75,7.75,0,0,1-3.2,3.249,10.541,10.541,0,0,1-5,1.147h-9.748ZM267.8,38.788a14.153,14.153,0,0,0,.6,4.329,7.78,7.78,0,0,0,1.579,2.818,6.973,6.973,0,0,0,2.2,1.625,9.367,9.367,0,0,0,2.477.727,13.859,13.859,0,0,0,2.409.182c.6-.011,1.1-.034,1.522-.068s.636-.068.659-.068V42.469c-.011,0-.125.011-.352.034a8.03,8.03,0,0,1-.806.034,4.293,4.293,0,0,1-1.863-.352,2.733,2.733,0,0,1-1.318-1.432,7.9,7.9,0,0,1-.5-3.124V.069H267.8V38.787Zm18-3a18.185,18.185,0,0,0,1.329,7.487,8.953,8.953,0,0,0,3.953,4.34,13.73,13.73,0,0,0,6.51,1.4,14.181,14.181,0,0,0,4.624-.761,14.141,14.141,0,0,0,6.419-4.476,11.455,11.455,0,0,0,1.636-2.67h.136c0,.012-.023.261-.068.727s-.057,1.068-.068,1.8v4.567h6.408V13.7h-6.612V29.858a15.62,15.62,0,0,1-.761,4.908,13,13,0,0,1-2.193,4.158,10.257,10.257,0,0,1-8.225,3.954,7.384,7.384,0,0,1-3.34-.67,4.789,4.789,0,0,1-1.966-1.829,7.718,7.718,0,0,1-.931-2.738,19.5,19.5,0,0,1-.239-3.352V13.7H285.8V35.788Zm38.446,8.18a6.607,6.607,0,0,0,.545.523,16.938,16.938,0,0,0,1.625,1.25,18.434,18.434,0,0,0,2.658,1.5,19.695,19.695,0,0,0,8.26,1.772,15.753,15.753,0,0,0,6.6-1.329,10.328,10.328,0,0,0,4.317-3.545,9.049,9.049,0,0,0,1.557-5.147,8.688,8.688,0,0,0-.977-4.135,9.5,9.5,0,0,0-2.533-2.931,18.852,18.852,0,0,0-3.465-2.09c-1.261-.579-2.511-1.113-3.772-1.6s-2.408-.966-3.465-1.466a9.1,9.1,0,0,1-2.534-1.681,3.107,3.107,0,0,1-.977-2.249,3.678,3.678,0,0,1,.829-2.431A4.6,4.6,0,0,1,335,19.042a8.33,8.33,0,0,1,2.738-.432,13.5,13.5,0,0,1,3.636.477,13.352,13.352,0,0,1,2.67,1.056,11.064,11.064,0,0,1,1.647,1.057,4.474,4.474,0,0,1,.568.477l2.659-4.976a5.316,5.316,0,0,0-.432-.4,11.5,11.5,0,0,0-1.3-.943,15.053,15.053,0,0,0-2.2-1.136,16.865,16.865,0,0,0-3.113-.943,20.809,20.809,0,0,0-4.067-.4,17.514,17.514,0,0,0-4.851.647,12.251,12.251,0,0,0-3.965,1.909,8.688,8.688,0,0,0-3.659,7.26,8.626,8.626,0,0,0,.977,4.113,9.928,9.928,0,0,0,2.534,2.931,18.826,18.826,0,0,0,3.465,2.09c1.261.591,2.511,1.136,3.772,1.625s2.408.988,3.465,1.5a9.158,9.158,0,0,1,2.533,1.727,3.215,3.215,0,0,1,.977,2.306,3.514,3.514,0,0,1-.852,2.352,5.146,5.146,0,0,1-2.113,1.454,7.921,7.921,0,0,1-2.761.489,13.28,13.28,0,0,1-3.329-.42,14.029,14.029,0,0,1-2.738-1,15.923,15.923,0,0,1-2.068-1.182,14.941,14.941,0,0,1-1.3-1c-.3-.273-.454-.409-.454-.421l-3.2,4.7Z" transform="translate(539.628 0.204)" fill="#fff"/>
      </g>
    </g>
  </g>
</svg>
