<?xml version="1.0" encoding="UTF-8"?><svg xmlns="http://www.w3.org/2000/svg" viewBox="0 0 207.13 68.14"><defs><style>.cls-1{fill:#020202;}.cls-2{fill:#ffcf29;}.cls-3{fill:#cb2034;}.cls-4{fill:#079b4e;}.cls-5{fill:#0f7ab8;}.cls-6{fill:#2c2a29;}</style></defs><g id="Layer_1"><path class="cls-2" d="M160.26,.83c9.8,6.8,5.7,22.5-4.7,24.2h0c13.3,0,17.7-18.2,4.7-24.2h0Z"/><path class="cls-5" d="M149.86,.73c11.6-1.7,16.4,12.6,11.3,19.2,8.4-8.4,1.7-23.4-11.3-19.2h0Z"/><path class="cls-4" d="M143.06,7.63c5.7-8.5,17.6-3.3,18.8,5.3,1.4-10.5-12.6-16.4-18.8-5.3h0Z"/><path class="cls-3" d="M142.76,14.03c1.4-8.8,12.8-9.7,17-3.5-3.4-8.8-16.8-7.7-17,3.5h0Z"/><path class="cls-1" d="M.56,25.03H3.56l.7-9.1v-2.6h0s0,.1,.1,.3c.1,.2,.1,.4,.2,.6,.1,.3,.2,.6,.3,.8,.1,.3,.2,.6,.3,.8l2.6,6.3h2.6l2.6-6.3c.1-.3,.2-.5,.3-.8s.2-.6,.3-.8,.2-.5,.2-.6c0-.2,.1-.3,.1-.3h0v2.6l.7,9.1h2.9l-1.3-16.3h-3.1l-3.2,8c-.1,.3-.2,.5-.3,.8s-.2,.5-.3,.8-.1,.4-.2,.6c0,.2-.1,.2-.1,.3h0s0-.1-.1-.3c0-.2-.1-.3-.2-.6-.1-.3-.2-.5-.3-.8s-.2-.5-.3-.8l-3.2-8H1.86L.56,25.03H.56Zm19.1-3.4c0,.6,.1,1.1,.3,1.5,.2,.5,.5,.8,.9,1.2,.4,.3,.8,.6,1.2,.7,.5,.2,1,.3,1.5,.3s1-.1,1.4-.2,.7-.3,1-.5,.5-.4,.7-.6,.3-.4,.4-.5,.1-.2,.1-.2h0v1.8h2.7v-7.3c0-1-.2-1.8-.6-2.5s-.9-1.2-1.7-1.6c-.7-.3-1.6-.6-2.6-.6-.6,0-1.1,0-1.5,.1-.5,.1-.9,.2-1.3,.3s-.7,.3-.9,.4c-.3,.1-.5,.3-.6,.3-.1,.1-.2,.1-.2,.1l1.1,2.1s.1-.1,.3-.2c.2-.1,.4-.3,.7-.4,.3-.1,.6-.3,1-.4s.8-.2,1.2-.2,.8,0,1.2,.2c.3,.1,.6,.3,.8,.6s.3,.7,.3,1.2v.2h-1.6c-.5,0-.9,.1-1.5,.2s-1,.2-1.5,.4c-.5,.2-.9,.4-1.4,.7-.4,.3-.7,.6-1,1.1-.2,.7-.3,1.2-.4,1.8h0Zm3-.1c0-.3,.1-.6,.3-.8s.4-.4,.7-.5c.3-.1,.6-.3,.9-.3,.3-.1,.7-.1,1-.1h1.5v.3c0,.3-.1,.7-.2,1.1s-.3,.7-.6,1-.5,.6-.9,.7c-.3,.2-.7,.3-1.1,.3s-.7-.1-1-.2-.5-.3-.6-.6v-.9h0Zm10.2,3.5h2.9v-6.1c0-.3,.1-.5,.2-.8,.1-.5,.4-.9,.6-1.2,.3-.3,.6-.6,1.1-.9s.9-.3,1.4-.3,.9,.1,1.2,.3c.3,.2,.5,.5,.6,.8s.2,.8,.1,1.2v6.9h2.9v-7.5c0-1-.2-1.9-.5-2.5s-.8-1.2-1.4-1.5c-.6-.3-1.3-.5-2.2-.5-.6,0-1.1,.1-1.6,.3s-.9,.3-1.2,.6-.6,.5-.9,.8c-.2,.3-.4,.6-.5,.8h0v-2.3h-2.8l.1,11.9h0Zm13.1-3.4c0,.6,.1,1.1,.3,1.5,.2,.5,.5,.8,.9,1.2,.4,.3,.8,.6,1.2,.7,.5,.2,1,.3,1.5,.3s1-.1,1.4-.2,.7-.3,1-.5,.5-.4,.7-.6,.3-.4,.4-.5c.1-.1,.1-.2,.1-.2h0v1.8h2.7v-7.3c0-1-.2-1.8-.6-2.5-.4-.7-.9-1.2-1.7-1.6-.7-.3-1.6-.6-2.6-.6-.6,0-1.1,0-1.5,.1-.5,.1-.9,.2-1.3,.3-.4,.1-.7,.3-.9,.4-.3,.1-.5,.3-.6,.3-.1,.1-.2,.1-.2,.1l1.1,2.1s.1-.1,.3-.2,.4-.3,.7-.4,.6-.3,1-.4,.8-.2,1.2-.2,.8,0,1.2,.2c.3,.1,.6,.3,.8,.6,.2,.3,.3,.7,.3,1.2v.2h-1.6c-.5,0-.9,.1-1.5,.2-.5,.1-1,.2-1.5,.4-.5,.2-.9,.4-1.4,.7-.4,.3-.7,.6-1,1.1-.3,.7-.4,1.2-.4,1.8h0Zm2.9-.1c0-.3,.1-.6,.3-.8,.2-.2,.4-.4,.7-.5s.6-.3,.9-.3c.3-.1,.7-.1,1-.1h1.5v.3c0,.3-.1,.7-.2,1.1-.1,.3-.3,.7-.6,1s-.5,.6-.9,.7c-.3,.2-.7,.3-1.1,.3s-.7-.1-1-.2-.5-.3-.6-.6c.1-.4,0-.7,0-.9h0Zm11.5,5l-.9,2.3c.4,.2,.8,.4,1.2,.5,.5,.1,.9,.3,1.4,.3,.5,.1,1,.1,1.5,.1,.6,0,1.2,0,1.8-.2,.6-.1,1.2-.3,1.7-.6,.5-.3,1-.6,1.4-1.1,.4-.4,.7-.9,.9-1.5,.2-.6,.3-1.3,.3-2.1V13.33h-2.7v1.2h-.1l-.1-.2-.4-.4c-.2-.1-.4-.3-.6-.4-.3-.1-.6-.3-1-.4-.4-.1-.8-.2-1.3-.2-.9,0-1.6,.2-2.2,.5s-1.2,.7-1.6,1.2c-.4,.5-.8,1.2-1,1.8-.2,.7-.3,1.5-.3,2.3s.1,1.6,.3,2.3c.2,.7,.6,1.3,1,1.9s1,1,1.6,1.3,1.4,.5,2.2,.5,1.4-.1,2-.4c.5-.3,.9-.6,1.3-1.2h0v1.4c0,.5-.1,.9-.3,1.3-.2,.3-.4,.6-.7,.9-.3,.2-.6,.4-1,.5s-.8,.1-1.3,.1c-.4,0-.9,0-1.2-.1-.4-.1-.7-.2-1-.3-.3-.1-.5-.2-.7-.3-.2,0-.2-.1-.2-.1h0Zm3.9-4.2c-.6,0-1.2-.2-1.6-.5-.4-.3-.8-.7-1-1.2s-.3-1.2-.3-1.8,.1-1.2,.3-1.7,.5-.9,.9-1.1c.4-.3,.9-.4,1.5-.4,.4,0,.8,0,1.1,.2,.3,.1,.6,.3,.9,.5,.3,.3,.5,.6,.6,1s.2,1,.2,1.6-.1,1.2-.2,1.6-.3,.8-.6,1.1c-.3,.3-.6,.5-.9,.6-.3,0-.6,.1-.9,.1h0Zm7.9-3.1c0,.9,.1,1.6,.4,2.4,.3,.7,.7,1.4,1.2,1.9,.6,.6,1.2,1,2,1.3s1.6,.5,2.6,.5c.6,0,1.1,0,1.6-.2,.5-.1,.9-.3,1.3-.4,.4-.2,.7-.3,1-.5s.5-.3,.6-.4l.2-.2-1.1-2.1-.2,.1c-.1,.1-.3,.2-.5,.3-.2,.1-.4,.3-.7,.4l-.9,.3c-.3,.1-.7,.1-1.1,.1s-.9-.1-1.2-.2c-.4-.1-.8-.3-1.1-.6-.3-.3-.6-.6-.8-1-.2-.4-.3-.9-.4-1.3h8v-1.1c0-.8-.1-1.5-.3-2.2-.2-.7-.6-1.2-1-1.8-.4-.5-1-.9-1.6-1.2s-1.4-.4-2.2-.4c-.9,0-1.7,.2-2.4,.5-.7,.3-1.3,.7-1.9,1.2-.5,.6-.9,1.2-1.2,1.9-.2,.9-.3,1.7-.3,2.7h0Zm3-1.5c.1-.5,.3-.9,.5-1.3,.3-.3,.6-.6,.9-.8,.4-.2,.8-.3,1.3-.3,.4,0,.8,.1,1.2,.3,.3,.2,.6,.5,.8,.8,.2,.3,.3,.8,.3,1.3h-5Zm11,7.3h9.8v-2h-7.5v-5.2h5.8v-2h-5.8v-5h7.1v-2h-9.4V25.03h0Zm12.7,0h2.2v-6.2c0-.3,.1-.5,.1-.7,.2-.6,.4-1.1,.8-1.5,.3-.4,.8-.8,1.3-1,.5-.3,1-.3,1.6-.3,.5,0,.9,.1,1.1,.2,.3,.1,.5,.3,.7,.6,.2,.3,.3,.6,.3,.9s.1,.7,.1,1.2v6.9h2.2v-7.4c0-1.5-.3-2.6-1-3.3-.6-.7-1.7-1.1-3-1.1-.6,0-1.2,.1-1.7,.3s-.9,.4-1.3,.7l-.9,.9c-.2,.3-.4,.6-.5,.9h0v-2.3h-2.1l.1,11.2h0Zm14.8,2.1l-.7,1.8c.4,.2,.8,.3,1.2,.5,.4,.1,.9,.3,1.4,.3,.5,.1,.9,.1,1.4,.1,.6,0,1.2,0,1.7-.2,.6-.1,1.1-.3,1.6-.6,.5-.3,.9-.6,1.3-1s.7-.9,.9-1.5c.2-.6,.3-1.2,.3-2V13.53h-2.1v1.5h0s0-.1-.1-.2-.2-.3-.4-.4c-.2-.2-.4-.3-.7-.5-.3-.2-.6-.3-1-.4-.4-.1-.9-.2-1.5-.2-.8,0-1.5,.1-2.1,.4-.6,.3-1.2,.7-1.6,1.2s-.8,1.1-1,1.8c-.2,.7-.3,1.5-.3,2.3,0,.9,.1,1.6,.3,2.4,.2,.7,.6,1.3,1,1.9s1,.9,1.6,1.2,1.4,.5,2.2,.5,1.5-.2,2.1-.5,1-.8,1.3-1.3h0v1.6c0,.6-.1,1.1-.3,1.5-.2,.4-.5,.7-.8,1s-.7,.4-1.2,.6-.9,.2-1.4,.2c-.4,0-.9,0-1.2-.1-.4-.1-.7-.2-1-.3-.3-.1-.5-.2-.7-.3-.1-.3-.2-.3-.2-.3h0Zm3.8-4.2c-.7,0-1.3-.2-1.8-.5s-.9-.8-1.2-1.4c-.3-.6-.4-1.3-.4-2.1s.1-1.5,.4-2.1,.6-1,1.1-1.3,1-.5,1.7-.5c.5,0,.9,0,1.3,.2,.4,.1,.7,.3,1,.6,.3,.3,.5,.7,.7,1.2s.3,1.1,.3,1.9-.1,1.4-.3,1.9c-.2,.5-.4,.9-.7,1.2-.3,.3-.6,.5-1,.6-.3,.2-.7,.3-1.1,.3h0Zm8.7-11.8h2.2v-2.3h-2.2v2.3h0Zm0,13.9h2.2V13.43h-2.2v11.6h0Zm5.7,0h2.2v-6.2c0-.3,.1-.5,.1-.7,.2-.6,.4-1.1,.8-1.5,.3-.4,.8-.8,1.3-1,.5-.3,1-.3,1.6-.3,.5,0,.9,.1,1.1,.2,.3,.1,.5,.3,.7,.6,.2,.3,.3,.6,.3,.9s.1,.7,.1,1.2v6.9h2.2v-7.4c0-1.5-.3-2.6-1-3.3-.6-.7-1.7-1.1-3-1.1-.6,0-1.2,.1-1.7,.3s-.9,.4-1.3,.7l-.9,.9c-.2,.3-.4,.6-.5,.9h0v-2.3h-2.1l.1,11.2h0Zm13-5.8c0,.9,.2,1.7,.4,2.4,.3,.7,.7,1.4,1.2,1.9,.6,.6,1.2,1,1.9,1.3,.8,.3,1.6,.5,2.5,.5,.6,0,1.1,0,1.5-.2,.5-.1,.9-.3,1.2-.4,.3-.2,.7-.3,.9-.5,.3-.2,.5-.3,.6-.4l.2-.2-.9-1.6-.2,.1c-.2,.1-.3,.2-.5,.3-.2,.1-.4,.3-.7,.4s-.6,.3-.9,.3c-.3,.1-.7,.1-1.1,.1-.5,0-1-.1-1.5-.3-.5-.2-.9-.4-1.2-.7-.4-.3-.6-.7-.9-1.2-.2-.5-.3-1-.4-1.7h8.4v-1c0-.8-.1-1.5-.3-2.1s-.5-1.2-.9-1.7-.9-.9-1.6-1.2c-.6-.3-1.3-.4-2.2-.4-.8,0-1.6,.1-2.3,.4-.7,.3-1.3,.7-1.8,1.2s-.9,1.2-1.2,1.9c-.1,1-.2,1.9-.2,2.8h0Zm2.4-1.4c.1-.6,.3-1.2,.6-1.6s.7-.8,1.2-1,1-.3,1.5-.3,.9,.1,1.4,.3c.4,.2,.7,.6,1,1s.4,1,.4,1.7l-6.1-.1h0Z"/></g><g id="Layer_2"><g id="Layer_1-2"><g id="_260300256"><path id="_260300376" class="cls-6" d="M16.37,61.29h4.34l-8.15-23.15h-4.4L0,61.29H4.34l1.96-5.93H14.41l1.96,5.93Zm-5.97-19.14s.03,.14,.08,.37c.05,.24,.12,.55,.22,.93,.09,.37,.18,.77,.29,1.17,.11,.41,.21,.78,.32,1.11l2.05,6.2H7.3l2.05-6.2c.11-.34,.23-.71,.35-1.11,.11-.4,.22-.79,.32-1.17,.09-.37,.17-.68,.23-.93,.05-.24,.09-.37,.09-.37h.07Zm12.62,19.14h4.14v-7.63c0-.39,.02-.77,.06-1.15,.04-.37,.12-.73,.23-1.07,.21-.67,.52-1.26,.94-1.77,.42-.51,.92-.9,1.52-1.19,.6-.28,1.27-.43,2.01-.43,.7,0,1.24,.15,1.63,.43,.39,.28,.65,.67,.8,1.18,.15,.51,.22,1.1,.21,1.78v9.85h4.11v-10.7c0-1.46-.23-2.66-.68-3.6-.45-.93-1.1-1.62-1.96-2.07-.86-.45-1.9-.67-3.14-.66-.84,0-1.59,.12-2.24,.34-.65,.22-1.22,.51-1.7,.86-.48,.35-.89,.73-1.21,1.13-.32,.4-.57,.77-.75,1.13h-.07s.01-.12,.03-.34c.02-.22,.03-.48,.03-.8v-1.92h-3.98v16.63h0Zm18.59-4.79c0,.83,.16,1.57,.46,2.21,.3,.65,.72,1.18,1.24,1.63,.53,.45,1.13,.78,1.8,1.01,.68,.23,1.39,.34,2.14,.34,.76-.01,1.41-.11,1.98-.3,.57-.2,1.04-.44,1.44-.73,.4-.29,.71-.58,.96-.87,.24-.29,.42-.53,.53-.73,.1-.2,.16-.3,.15-.3h.07s-.01,.12-.03,.34c-.02,.22-.03,.5-.03,.83v1.37h3.82v-10.4c0-1.41-.28-2.6-.82-3.59-.54-.98-1.33-1.73-2.36-2.25-1.03-.52-2.27-.78-3.73-.78-.79,0-1.52,.08-2.2,.21-.67,.14-1.27,.31-1.8,.51-.53,.2-.99,.41-1.36,.61-.37,.2-.66,.37-.86,.51-.2,.14-.3,.21-.3,.21l1.57,2.97s.13-.09,.38-.25c.24-.16,.58-.34,1.01-.55,.42-.21,.91-.39,1.46-.55,.54-.16,1.12-.24,1.72-.25,.61,0,1.16,.09,1.64,.28,.48,.18,.86,.49,1.13,.92,.28,.43,.42,1.01,.42,1.73v.23h-.55c-.46,0-1.02,.01-1.67,.05-.65,.04-1.35,.12-2.09,.24-.74,.12-1.47,.3-2.18,.55-.72,.25-1.37,.58-1.96,.99-.59,.41-1.06,.93-1.41,1.56-.35,.63-.53,1.37-.54,2.25h0Zm4.17-.2c0-.46,.13-.85,.37-1.16,.24-.31,.57-.57,.97-.76,.4-.2,.85-.34,1.34-.44,.48-.1,.98-.17,1.47-.2,.5-.04,.96-.05,1.39-.05h.72v.39c0,.51-.09,1.02-.28,1.54-.18,.51-.45,.98-.78,1.41-.34,.42-.73,.77-1.19,1.03-.46,.26-.96,.39-1.51,.4-.57,0-1.03-.11-1.4-.31-.37-.2-.65-.47-.84-.79-.18-.32-.27-.67-.27-1.05Zm14.41-.2c0,.95,.11,1.74,.32,2.39,.2,.64,.48,1.16,.83,1.55,.35,.39,.74,.69,1.18,.9,.44,.2,.9,.34,1.38,.41,.48,.07,.95,.1,1.41,.1,.23,0,.45-.01,.64-.03,.2-.02,.36-.03,.48-.04,.12-.02,.18-.03,.18-.03v-3.62s-.07,0-.19,.02c-.12,.01-.26,.02-.43,.02-.36,0-.67-.05-.92-.18-.25-.13-.45-.36-.58-.7-.14-.33-.2-.8-.2-1.4v-17.35h-4.11v17.97h0Zm7.24,10.96s.09,.06,.26,.17c.17,.11,.41,.23,.72,.37,.31,.14,.67,.26,1.09,.37,.42,.11,.88,.16,1.38,.17,.84,0,1.65-.15,2.41-.45,.76-.3,1.45-.77,2.07-1.41,.62-.64,1.13-1.46,1.52-2.47l7.43-19.14h-4.53l-3.26,9.65c-.08,.22-.14,.46-.21,.71-.07,.25-.13,.49-.17,.71-.05,.22-.09,.4-.12,.54-.03,.14-.04,.21-.04,.22h-.07s-.02-.08-.05-.23c-.03-.15-.08-.34-.14-.57-.06-.23-.12-.48-.2-.73-.07-.26-.15-.5-.23-.72l-3.49-9.59h-4.66l7.01,16.37-.62,1.47c-.21,.49-.46,.89-.77,1.21-.3,.32-.63,.55-.99,.71-.36,.16-.73,.23-1.11,.23-.32,0-.62-.07-.9-.18-.28-.11-.51-.22-.68-.33-.17-.11-.27-.17-.27-.18l-1.37,3.1h0Zm19.96-11.87c0,.92,.12,1.73,.35,2.4,.23,.67,.54,1.24,.92,1.7,.39,.46,.83,.83,1.31,1.12,.48,.28,.99,.51,1.51,.65,.52,.15,1.02,.26,1.51,.31,.48,.05,.92,.08,1.32,.08,.4,0,.71-.02,.93-.05s.34-.04,.34-.05v-3.62s-.07,.02-.21,.03c-.13,.02-.32,.03-.54,.03-.29,0-.63-.03-.99-.1s-.73-.22-1.08-.43c-.35-.22-.64-.53-.86-.95-.23-.42-.35-.97-.35-1.65v-6.46h3.78v-3.29h-3.78v-4.79h-4.04v4.79h-2.25v3.29h2.15v6.98Zm11.58-13.37h4.11v-3.68h-4.11v3.68Zm0,19.47h4.14v-16.63h-4.14v16.63Zm7.5-8.32c0,1.21,.22,2.35,.64,3.4s1.03,1.97,1.82,2.77c.79,.79,1.73,1.41,2.85,1.86,1.11,.45,2.35,.67,3.73,.68,.89,0,1.7-.1,2.43-.28,.72-.18,1.36-.4,1.91-.67,.55-.27,1.01-.54,1.38-.8,.38-.27,.65-.49,.84-.67,.19-.18,.28-.28,.28-.28l-1.6-2.93s-.08,.08-.24,.22c-.16,.14-.39,.32-.67,.52-.29,.21-.64,.42-1.04,.63-.41,.21-.85,.38-1.35,.52-.49,.14-1.02,.22-1.59,.22-.79,0-1.51-.15-2.15-.42-.64-.28-1.18-.66-1.63-1.14-.46-.48-.8-1.04-1.04-1.66-.24-.63-.36-1.29-.36-2s.12-1.38,.36-2c.24-.63,.58-1.17,1.02-1.64,.45-.47,.98-.84,1.6-1.1,.62-.27,1.32-.4,2.08-.41,.52,0,1.01,.07,1.45,.18s.85,.27,1.2,.45c.36,.18,.66,.35,.91,.53,.25,.17,.45,.33,.58,.45,.13,.12,.2,.18,.2,.18l1.83-2.84s-.08-.09-.25-.26c-.16-.16-.41-.37-.75-.61-.34-.24-.76-.49-1.27-.73-.51-.24-1.11-.45-1.79-.61-.69-.16-1.46-.25-2.33-.26-1.38,.01-2.62,.24-3.73,.7-1.11,.46-2.06,1.08-2.85,1.89-.79,.8-1.4,1.72-1.82,2.77-.42,1.04-.63,2.16-.64,3.35h0Zm17.58,6.26s.09,.09,.27,.26c.18,.16,.45,.36,.81,.6,.35,.24,.79,.48,1.32,.73,.52,.24,1.12,.44,1.8,.6,.68,.16,1.43,.25,2.26,.26,.99,0,1.88-.14,2.66-.39s1.45-.61,2-1.07c.55-.45,.97-.98,1.26-1.58,.29-.6,.44-1.26,.44-1.95,0-.76-.16-1.42-.45-1.97-.29-.55-.68-1.03-1.16-1.42-.48-.4-1.01-.73-1.58-1.02-.57-.29-1.15-.54-1.72-.77-.58-.23-1.1-.45-1.58-.66-.48-.21-.86-.45-1.16-.69-.29-.25-.44-.54-.45-.87,0-.35,.11-.63,.31-.85,.2-.22,.46-.39,.78-.49,.32-.11,.66-.16,1.03-.16,.64,0,1.21,.08,1.71,.22,.5,.14,.93,.3,1.28,.49,.35,.18,.62,.35,.8,.49,.18,.14,.28,.22,.28,.22l1.53-3.07s-.07-.07-.22-.2c-.15-.12-.37-.28-.66-.47-.3-.18-.67-.37-1.11-.56-.45-.18-.96-.34-1.56-.47-.6-.12-1.27-.19-2.02-.2-.9,0-1.74,.11-2.51,.33-.77,.22-1.45,.54-2.02,.96-.58,.42-1.03,.93-1.35,1.54-.32,.6-.48,1.29-.49,2.07,.01,.76,.16,1.42,.45,1.97,.29,.55,.68,1.03,1.16,1.42,.48,.4,1.01,.74,1.58,1.03,.57,.29,1.15,.54,1.72,.77,.58,.23,1.1,.46,1.58,.67,.48,.22,.86,.46,1.16,.72,.29,.26,.44,.57,.45,.91,0,.33-.11,.6-.3,.83-.2,.22-.46,.39-.79,.5-.33,.11-.69,.17-1.09,.17-.54,0-1.04-.07-1.51-.19-.46-.12-.88-.27-1.26-.45-.37-.18-.68-.36-.95-.54-.26-.18-.46-.33-.6-.45-.14-.12-.21-.18-.21-.19l-1.89,2.9Z"/><path id="_260300304" class="cls-6" d="M148.96,61.29h3.23v-8.51h5.18c1.05,0,2.03-.18,2.91-.53,.88-.35,1.64-.84,2.29-1.49,.65-.64,1.15-1.41,1.51-2.3,.35-.89,.53-1.89,.54-2.98,0-1.1-.18-2.09-.54-2.97-.36-.89-.86-1.64-1.51-2.28-.65-.63-1.41-1.11-2.29-1.45-.88-.34-1.85-.51-2.91-.51h-8.41v23.02h0Zm3.23-11.32v-8.9h4.7c.92,0,1.71,.18,2.37,.53,.66,.34,1.17,.85,1.53,1.5,.35,.66,.53,1.45,.54,2.37,0,.93-.18,1.73-.54,2.4-.35,.67-.87,1.19-1.53,1.55-.67,.36-1.46,.54-2.39,.55h-4.66Zm15.72,6.82c0,.83,.1,1.52,.29,2.07,.19,.56,.44,1.01,.76,1.35,.32,.34,.67,.6,1.05,.78,.39,.17,.78,.29,1.18,.35,.41,.07,.79,.09,1.15,.09,.29,0,.53-.02,.73-.03,.2-.02,.3-.03,.32-.03v-2.8s-.06,0-.17,.02c-.1,.01-.23,.02-.39,.02-.33,0-.63-.05-.89-.17-.27-.12-.47-.35-.63-.68-.16-.34-.23-.84-.24-1.49v-17.97h-3.16v18.52h0Zm8.61-1.43c0,1.46,.21,2.65,.64,3.58,.42,.93,1.05,1.62,1.89,2.08,.84,.45,1.88,.67,3.11,.67,.81,0,1.54-.13,2.21-.36,.67-.23,1.26-.54,1.78-.92,.51-.38,.95-.78,1.29-1.22,.35-.43,.61-.86,.78-1.28h.07s-.01,.12-.03,.35c-.02,.22-.03,.51-.03,.86v2.18h3.07v-16.5h-3.16v7.73c0,.82-.12,1.6-.36,2.35-.24,.74-.59,1.41-1.05,1.99-.46,.58-1.02,1.04-1.68,1.37-.66,.34-1.41,.51-2.26,.52-.66,0-1.19-.11-1.6-.32-.41-.21-.72-.51-.94-.88-.22-.37-.37-.81-.45-1.31-.08-.49-.12-1.03-.11-1.6v-9.85h-3.16v10.57h0Zm18.39,3.91s.09,.09,.26,.25c.18,.16,.43,.36,.78,.6,.34,.24,.77,.48,1.27,.72,.51,.23,1.09,.43,1.75,.6,.66,.16,1.39,.24,2.2,.25,1.21-.01,2.27-.22,3.16-.64,.89-.41,1.58-.98,2.07-1.7,.49-.72,.74-1.54,.74-2.46-.01-.77-.16-1.43-.47-1.98-.3-.55-.71-1.02-1.21-1.4-.51-.39-1.05-.72-1.66-1-.6-.28-1.2-.53-1.8-.77-.6-.23-1.15-.46-1.66-.7-.5-.23-.91-.51-1.21-.8s-.46-.66-.47-1.08c0-.48,.14-.86,.4-1.16,.26-.3,.59-.52,1-.65,.41-.14,.85-.21,1.31-.21,.65,0,1.23,.08,1.74,.23,.51,.15,.93,.32,1.28,.51,.35,.19,.61,.36,.79,.51,.18,.14,.27,.22,.27,.23l1.27-2.38s-.07-.07-.21-.19c-.14-.12-.34-.27-.62-.45-.28-.18-.63-.36-1.05-.54-.42-.18-.92-.33-1.49-.45-.58-.12-1.22-.18-1.95-.19-.83,0-1.6,.1-2.32,.31-.72,.21-1.35,.51-1.9,.91-.55,.4-.97,.89-1.28,1.47-.3,.58-.46,1.25-.47,2,.01,.76,.16,1.42,.47,1.97,.31,.54,.71,1.01,1.21,1.4,.51,.39,1.05,.72,1.66,1,.6,.28,1.2,.54,1.8,.78,.6,.23,1.15,.47,1.66,.72,.5,.24,.91,.52,1.21,.83,.3,.3,.46,.67,.47,1.1,0,.45-.14,.82-.41,1.13-.26,.3-.6,.54-1.01,.7-.41,.15-.85,.23-1.32,.23-.58,0-1.11-.07-1.59-.2-.49-.12-.92-.29-1.31-.48s-.72-.37-.99-.57c-.27-.19-.48-.35-.62-.48-.14-.13-.22-.2-.22-.2l-1.53,2.25h0Z"/></g></g></g></svg>