<?xml version="1.0" encoding="UTF-8"?>
<svg id="a" data-name="Layer 1" xmlns="http://www.w3.org/2000/svg" xmlns:xlink="http://www.w3.org/1999/xlink" viewBox="0 0 28.0144 40">
  <defs>
    <clipPath id="b">
      <path d="m16.2529,13.9302c-.0249-.003-.0499-.0059-.0743-.0087.0244.0029.0488.0057.0743.0087m-2.7934-.3511c.0558.0064.1122.0128.1682.0186-.0553-.0064-.1111-.0128-.1664-.0193-.0007,0-.0012.0007-.0018.0007m2.8261-3.7988v-.0007.0007" fill="none"/>
    </clipPath>
    <clipPath id="c">
      <rect x="13.333" y="9.6331" width="3.118" height="4.4585" fill="none"/>
    </clipPath>
    <clipPath id="d">
      <polygon points="21.7798 10.3321 21.7798 10.3316 21.3651 10.2943 21.7798 10.3321" fill="none"/>
    </clipPath>
    <clipPath id="e">
      <rect x="21.2545" y="10.2111" width=".6742" height=".2478" fill="none"/>
    </clipPath>
    <linearGradient id="h" x1="16.3117" y1="-2.0202" x2="4.269" y2="25.0759" gradientUnits="userSpaceOnUse">
      <stop offset="0" stop-color="#65b9a5"/>
      <stop offset=".4933" stop-color="#4eadb8"/>
      <stop offset=".9211" stop-color="#4765aa"/>
    </linearGradient>
    <linearGradient id="i" x1="28.0809" y1="8.3849" x2="22.6394" y2="21.3485" xlink:href="#h"/>
    <linearGradient id="j" x1="22.5654" y1="5.261" x2="22.5654" y2="28.5323" xlink:href="#h"/>
    <linearGradient id="m" x1="11.7479" y1="14.4358" x2="15.6517" y2="12.9881" gradientUnits="userSpaceOnUse">
      <stop offset="0" stop-color="#357997" stop-opacity="0"/>
      <stop offset=".9995" stop-color="#357997"/>
    </linearGradient>
    <linearGradient id="n" x1="24.609" y1="13.4247" x2="28" y2="13.4247" gradientUnits="userSpaceOnUse">
      <stop offset=".1395" stop-color="#3f8fa9"/>
      <stop offset="1" stop-color="#4aa6b7"/>
    </linearGradient>
  </defs>
  <g clip-path="url(#b)">
    <g clip-path="url(#c)">
      <image width="37" height="54" transform="translate(13.333 9.6331) scale(.0843)" xlink:href="Nila Logo1.png"/>
    </g>
  </g>
  <g clip-path="url(#d)">
    <g clip-path="url(#e)">
      <image width="8" height="3" transform="translate(21.2545 10.2111) scale(.0843)" xlink:href="Nila Logo2.png"/>
    </g>
  </g>
  <g>
    <g id="f" data-name="Logo Nila">
      <g id="g" data-name="Shape 2">
        <path d="m20.5213,11.3995h-1.505c-.0054-.0471-.0118-.0943-.0177-.1414-.0101-.0733-.025-.1739-.046-.2983-.1209-.7164-.4443-2.2259-1.2161-3.9103-.5043-1.0879-1.2038-2.2739-2.1708-3.4265-.6233-.702-1.4184-1.3307-1.5248-1.4139-.7979-.5807-1.6933-1.0577-2.6873-1.43C10.0292.282,8.6553.0291,7.2317.0207c-.6872-.0136-1.3515.0285-1.993.1264v.0022c-.2709.0327-.572.0943-.9059.1874-.7043.1961-1.197.5281-1.4785.9957-.0161.0253-.0316.051-.0467.0771-.0034.0058-.0069.0116-.0102.0174-.0043.0076-.0084.0152-.0125.0228-.1983.3561-.2769.7237-.2359,1.1028.0806,1.044.9733,1.8667,2.0635,1.8667.2415,0,.4732-.0408.6887-.115.4572-.1044,1.037-.1707,1.3825-.204.6699-.0526,3.1613-.1055,5.4495,1.6964,1.6973,1.3287,2.8146,3.3274,2.9374,5.6028h-4.0708c-.2583-.0082-.5088-.0128-.7523-.014-.0253.0006-.0531.0005-.0837-.0004-.303-.0006-.5947.0041-.8744.0144h-.1608c-1.3788.0747-2.5815.342-2.8355.4014-1.097.2732-2.0528.6882-2.8662,1.246l-.0129.0063c-1.1086.7416-1.9693,1.7213-2.5818,2.939-.4702.9269-.7399,1.8814-.8088,2.863-.0259.3161-.0302.6363-.0129.9607.0604,1.3189.4701,2.5513,1.2294,3.6974l-.0129.0126c.7506,1.1503,1.7147,2.0415,2.8924,2.6735,1.5055.8132,3.2052,1.0997,5.099.8596.1963-.0232.3903-.0522.5824-.0861,1.0205-.1883,2.018-.6109,2.7515-.9805.4843-.2749,1.0341-.6308,1.5777-1.075,4.3548-3.9644,4.8562-9.422,4.8562-9.422l.044.0003s0-.0007,0-.0018c0,.0007,0,.001,0,.0018h1.4911v-4.096Zm-5.529,4.1573l-.0121.071c-.0042.0295-.0086.0589-.0129.0885-.0601.3072-.1288.6167-.2062.9282-.202.7914-.4663,1.5302-.7928,2.2164-.1504.3073-.3094.6041-.4769.8904-.0172,0-.0257.0063-.0257.019-.318.5262-.6746.9998-1.0699,1.4208-.3094.3199-.6381.6124-.9861.8777-.8164.5852-1.7273.9408-2.7328,1.0672-.9581.1221-1.8282-.0126-2.6102-.4041h-.0257c-.5672-.32-1.0312-.7599-1.3922-1.3198-.3695-.5599-.5672-1.1619-.593-1.806l-.0129.0127c-.0086-.2569.0086-.5094.0516-.7578.0644-.3789.1826-.7514.3545-1.1176v.0267c.3069-.5845.7284-1.0674,1.2644-1.4485.6182-.4065,1.3747-.6818,2.2695-.8259h.013c.0131-.0021.0268-.004.0401-.006.1236-.0134.443-.0444.7327-.0415.03.0013.0601.0021.0904.0021h6.1524l-.0192.1068Zm4.0377-.0766c0-.0038,0-.0049,0,0h0Z" fill="url(#h)"/>
        <path d="m25.9432,11.3995h-1.3341v4.0505h1.3341c1.136,0,2.0568-.9022,2.0568-2.0152v-.0201c0-1.113-.9209-2.0152-2.0568-2.0152Z" fill="url(#i)"/>
      </g>
      <path id="k" data-name="Shape 1" d="m24.6095,6.5048c0-1.1059-.9151-2.0025-2.0439-2.0025s-2.0439.8965-2.0439,2.0025v18.6299c-.025,1.1118.8949,2.013,2.0296,2.013h0c.0019,0,.0037-.0001.0056-.0002.0021,0,.0041.0002.0062.0002,1.1271,0,2.0407-.8952,2.0407-1.9994,0-.0006,0-.0011,0-.0017.0037-.0077.0056-.0119.0056-.0119V6.5048Z" fill="url(#j)"/>
    </g>
    <g id="l" data-name="Depth">
      <path d="m15.0705,11.3995h-1.1336c-.5065,1.5658-1.4197,2.9551-2.6187,4.0505h3.6932c.0903-.7147.17-1.5233.1557-2.323-.012-.6739-.0301-1.1663-.0967-1.7274Z" fill="url(#m)"/>
      <path d="m19.9443,11.4018l-.928-.0024c.0021.0293.0038.0575.0056.0861.0717.6935.1831,2.2653-.0338,4.0096l1.5333.0003v-4.096l-.577.0024Z" fill="#2e6e92"/>
      <path d="m25.9432,11.3995h-1.3341v4.0505h1.3341c1.136,0,2.0568-.9022,2.0568-2.0152v-.0201c0-1.113-.9209-2.0152-2.0568-2.0152Z" fill="url(#n)"/>
    </g>
  </g>
  <g>
    <path d="m4.8525,33.423v6.4789h-1.5196v-8.5145h1.9945l3.7754,6.0835v-6.0835h1.5137v8.5145h-1.7333l-4.0306-6.4789Z" fill="#2e3075"/>
    <path d="m13.7742,32.6087c-.1068.0427-.2236.064-.3502.064-.1227,0-.2385-.0213-.3473-.064-.1089-.0426-.2048-.1018-.2879-.1774s-.1484-.1658-.1959-.2704-.0712-.2171-.0712-.3373c0-.124.0237-.2374.0712-.3402.0475-.1027.1118-.1909.1929-.2646.0811-.0736.1761-.1318.2849-.1745.1088-.0426.2265-.064.3532-.064.1226,0,.2374.0214.3443.064.1068.0427.2008.1009.282.1745.0811.0737.1444.1619.19.2646.0455.1028.0683.2162.0683.3402,0,.1241-.0228.2385-.0683.3431-.0455.1047-.1079.1948-.187.2704-.0792.0756-.1721.1328-.279.1716Zm.4215,1.0643v6.2289h-1.5196v-6.2289h1.5196Z" fill="#2e3075"/>
    <path d="m17.6858,30.5034v9.3985h-1.5196v-8.753l1.5196-.6456Z" fill="#2e3075"/>
    <path d="m22.3751,39.8147c-.3364.1357-.7025.2036-1.0982.2036-.3008,0-.5808-.0378-.84-.1134-.2592-.0756-.4838-.1899-.6737-.3431-.19-.1531-.3394-.345-.4482-.5758-.1089-.2306-.1632-.5011-.1632-.8113,0-.3373.0662-.6194.1989-.8462.1325-.2268.3096-.4138.5313-.5612.2216-.1473.4739-.2597.7569-.3373.2829-.0775.5758-.1338.8785-.1687s.6015-.0542.8964-.0582c.2948-.0038.5649-.0058.8103-.0058v-.0931c0-.1899-.0119-.3731-.0356-.5496-.0237-.1764-.0792-.3334-.1662-.4711-.0871-.1376-.2128-.2443-.3769-.3199-.1643-.0756-.3829-.1134-.6559-.1134-.1543,0-.3048.0194-.4511.0582-.1465.0388-.281.096-.4037.1716-.1227.0756-.2315.1687-.3265.2792s-.1702.2375-.2256.3809l-1.1813-.5002c.1068-.2753.2562-.5079.4482-.6979.1919-.1899.4096-.3441.653-.4624.2434-.1182.5046-.2045.7836-.2588.279-.0542.5589-.0814.84-.0814.3799,0,.7291.0446,1.0477.1338.3185.0892.5936.2278.8251.4158.2315.1881.4115.4266.5402.7154.1286.2889.1929.631.1929,1.0265v4.0711h-1.4959v-.7619c-.2374.3141-.5244.539-.8607.6746Zm-1.1101-.9015c.1226.0311.2572.0465.4037.0465.1939,0,.3838-.0252.5699-.0756.186-.0504.3522-.1269.4986-.2297.1464-.1027.2642-.2316.3532-.3868.089-.155.1336-.3373.1336-.5467v-.6049h-.7598c-.1742,0-.3661.0087-.5758.0262-.2098.0174-.4066.0602-.5906.128-.184.0679-.3384.1687-.463.3024s-.187.3151-.187.5438c0,.1551.0257.286.0772.3926.0514.1067.1226.1929.2137.2588.091.066.1998.1144.3265.1454Z" fill="#2e3075"/>
  </g>
</svg>