<?xml version="1.0" encoding="UTF-8"?>
<svg width="100px" height="40px" viewBox="0 0 100 40" version="1.1" xmlns="http://www.w3.org/2000/svg" xmlns:xlink="http://www.w3.org/1999/xlink">
    <title>Artboard Copy 3</title>
    <g id="Artboard-Copy-3" stroke="none" stroke-width="1" fill="none" fill-rule="evenodd">
        <g id="Group" transform="translate(51.304348, 12.173913)" fill="#000000" fill-rule="nonzero">
            <polygon id="Path" points="14.45204 1.67438745 8.69328812 17.1903779 5.78081598 17.1903779 0 1.67438745 2.69183035 1.67438745 7.23705207 14.5783334 11.804338 1.67438745"></polygon>
            <path d="M15.7096984,10.9839817 C15.7096984,9.74865581 15.9634365,8.65472269 16.4709127,7.70218228 C16.9783889,6.74964187 17.6697333,6.00919052 18.5449459,5.48082826 C19.4201585,4.952466 20.3873052,4.68828487 21.446386,4.68828487 C22.4025006,4.68828487 23.2372621,4.87804878 23.9506708,5.2575766 C24.6640794,5.63710443 25.2340707,6.10965377 25.6606449,6.67522465 L25.6606449,4.88921136 L28.198026,4.88921136 L28.198026,17.1903779 L25.6606449,17.1903779 L25.6606449,15.3597142 C25.2340707,15.9401685 24.6530473,16.4238805 23.9175745,16.81085 C23.1821017,17.1978196 22.3436628,17.3913043 21.4022576,17.3913043 C20.3578863,17.3913043 19.4017717,17.1196815 18.5339138,16.5764358 C17.666056,16.03319 16.9783889,15.2741344 16.4709127,14.2992689 C15.9634365,13.3244033 15.7096984,12.2193076 15.7096984,10.9839817 Z M25.6606449,11.028632 C25.6606449,10.1802757 25.4878089,9.44354522 25.1421367,8.81844055 C24.7964645,8.19333597 24.3441487,7.71706572 23.7851894,7.38962996 C23.2262301,7.0621942 22.6231425,6.89847631 21.9759264,6.89847631 C21.3287103,6.89847631 20.7256227,7.05847333 20.1666634,7.37846738 C19.607704,7.69846142 19.1553883,8.16728988 18.8097161,8.78495281 C18.464044,9.40261573 18.2912078,10.1356254 18.2912078,10.9839817 C18.2912078,11.832338 18.464044,12.5765102 18.8097161,13.2164983 C19.1553883,13.8564863 19.6113815,14.3439192 20.1776955,14.6787967 C20.7440095,15.0136742 21.3434198,15.1811129 21.9759264,15.1811129 C22.6231425,15.1811129 23.2262301,15.017395 23.7851894,14.6899593 C24.3441487,14.3625235 24.7964645,13.8825324 25.1421367,13.249986 C25.4878089,12.6174397 25.6606449,11.8769883 25.6606449,11.028632 Z" id="Shape"></path>
            <path d="M37.6414964,4.68828487 C38.5976111,4.68828487 39.4544368,4.88921136 40.2119738,5.29106436 C40.9695107,5.69291734 41.5615663,6.2882551 41.9881405,7.07707764 C42.4147147,7.86590017 42.6280018,8.81844055 42.6280018,9.93469889 L42.6280018,17.1903779 L40.1347491,17.1903779 L40.1347491,10.3142267 C40.1347491,9.21285186 39.8626242,8.36821644 39.3183743,7.78032036 C38.7741245,7.19242432 38.0312969,6.89847631 37.0898919,6.89847631 C36.1484867,6.89847631 35.4019818,7.19242432 34.8503773,7.78032036 C34.2987727,8.36821644 34.0229704,9.21285186 34.0229704,10.3142267 L34.0229704,17.1903779 L31.5076535,17.1903779 L31.5076535,4.88921136 L34.0229704,4.88921136 L34.0229704,6.29569682 C34.4348351,5.78965973 34.9606982,5.39524846 35.6005595,5.11246303 C36.2404208,4.82967759 36.9207331,4.68828487 37.6414964,4.68828487 Z" id="Path"></path>
            <path d="M47.107031,3.25947425 C46.6510379,3.25947425 46.268592,3.10319808 45.9596934,2.79064575 C45.6507949,2.47809343 45.4963456,2.09112388 45.4963456,1.62973712 C45.4963456,1.16835036 45.6507949,0.781380812 45.9596934,0.468828487 C46.268592,0.156276162 46.6510379,0 47.107031,0 C47.5483147,0 47.9234058,0.156276162 48.2323043,0.468828487 C48.5412029,0.781380812 48.6956522,1.16835036 48.6956522,1.62973712 C48.6956522,2.09112388 48.5412029,2.47809343 48.2323043,2.79064575 C47.9234058,3.10319808 47.5483147,3.25947425 47.107031,3.25947425 Z M48.3426252,4.88921136 L48.3426252,17.1903779 L45.8273084,17.1903779 L45.8273084,4.88921136 L48.3426252,4.88921136 Z" id="Shape"></path>
        </g>
        <rect id="Rectangle" fill="#F4F4F4" fill-rule="nonzero" x="0" y="3.08931624e-15" width="40" height="40" rx="5.2173913"></rect>
        <g id="Group" transform="translate(8.888889, 9.629630)" fill-rule="nonzero">
            <path d="M6.98902689,1.37499446 C5.97996874,0.77142853 4.86947707,0.35431846 3.71115815,0.143799207 L3.47181733,0.105495355 C2.97592541,0.0325266823 2.47515609,-0.00268748855 1.97387396,0.000159761098 C1.31177634,-0.000562884463 0.651021785,0.0594267848 0,0.17936707 C0.332876305,0.117351309 0.663460074,0.0717514848 0.991751304,0.0425675974 C0.662543059,0.0726634815 0.33195929,0.118263306 0,0.17936707 L1.2929906,2.70058134 L2.32738309,4.72247756 C2.39203262,4.72247756 2.45530663,4.72247756 2.51995616,4.72247756 C4.59319944,4.72230096 6.4171827,3.3604058 6.99590448,1.38046644 L6.99590448,1.38046644 L6.98902689,1.37499446 Z" id="Path" fill="#FF7700"></path>
            <path d="M2.5204638,4.72314678 C2.45581427,4.72314678 2.39127811,4.72314678 2.32662858,4.72314678 L5.94268452,11.778636 C8.9749293,9.12113763 9.43250826,4.58622678 6.99531652,1.37976769 C6.41613019,3.35981991 4.59370707,4.72297019 2.5204638,4.72314678 Z" id="Path" fill="#FF5E00"></path>
            <path d="M11.6669136,6.42977593 C11.3435536,5.79593281 10.9679186,5.1886787 10.5433755,4.61440596 C9.47184396,3.21768335 8.27730296,2.1410715 6.99531652,1.38046644 C9.43250826,4.58692552 8.97449948,9.11972793 5.9422547,11.7772263 L5.99177348,11.872986 C6.31407063,11.9218984 6.63961511,11.9465921 6.965643,11.9468866 C8.03634533,11.9472998 9.06791093,11.6879846 9.97878285,11.2025249 C11.052152,10.6304603 12.0830378,8.20398578 11.6669136,6.42977593 Z" id="Path" fill="#FF4F1E"></path>
            <path d="M10.749446,10.7188854 C10.0806775,11.2063521 9.31639696,11.5645004 8.49522337,11.7649144 L8.48009263,11.7649144 C8.34254044,11.7991142 8.19535959,11.8292101 8.05092981,11.853834 C7.88311611,11.8811939 7.71392693,11.9030819 7.54336222,11.9181298 C7.35216467,11.9359137 7.15959159,11.9454897 6.96426748,11.9454897 C6.63823959,11.9452241 6.31269511,11.9205304 5.99039796,11.871618 L5.97939378,11.84973 L11.4830286,22.5925926 C11.5793151,22.4133853 11.6671769,22.2341779 11.7565859,22.0453947 C11.7813453,21.9947789 11.8047291,21.9441631 11.8294885,21.8921793 C11.8968891,21.7485399 11.9670407,21.6035324 12.0248126,21.458525 C12.0440699,21.4174851 12.0633273,21.3750773 12.081209,21.3326695 C12.1582383,21.1507262 12.2325164,20.9687829 12.3026681,20.7854716 L12.3480603,20.662352 C12.4030811,20.5146086 12.455351,20.3654971 12.5062453,20.2177538 C12.5255026,20.163034 11.4336839,10.220143 10.749446,10.7188854 Z" id="Path" fill="#FF1368"></path>
            <path d="M11.4828757,22.5912787 C11.4251038,22.4982551 10.9739326,21.6008506 10.8157476,21.2807398 C10.5562324,20.7900856 10.3728295,20.4056791 10.2655388,20.1275202 C8.06470374,14.6117655 8.80449415,8.34498167 10.7219717,4.86464016 C10.7254199,4.85833844 10.9837223,5.23287104 11.2028503,5.59961604 C11.3775713,5.8920387 11.5466434,6.18000359 11.5466434,6.22718804 C11.5429753,6.40958733 11.5058011,11.8680241 11.4828757,22.5912787 Z" id="Path" fill="#000000" opacity="0.25"></path>
            <path d="M14.118395,2.75530113 C16.3462845,3.94726604 18.0003274,5.99786615 18.7504807,8.400679 L22.962963,0.180735065 C22.3124356,0.0604196385 21.6521451,-2.76447344e-05 20.9904645,0.000148698284 C18.5021454,0.000148698284 16.1514164,0.908508256 14.118395,2.75530113 Z" id="Path" fill="#238BE7"></path>
            <path d="M12.4271158,4.64403293 C11.0515939,6.438842 9.98766467,9.15614844 9.63965763,12.2341366 C10.9367497,9.67033796 13.5764113,8.05286581 16.4622464,8.0535447 C16.9797776,8.05302593 17.742943,8.168319 18.7517428,8.39942385 C18.0015896,5.996611 16.3475466,3.94589804 14.1196572,2.75393314 C13.5036234,3.30275138 12.9394429,3.93278463 12.4271158,4.64403293 Z" id="Path" fill="#6359E0"></path>
            <path d="M9.94777452,12.2300326 C9.84323511,12.2296168 9.74144622,12.2300326 9.63965763,12.2382406 C9.63278,12.2902243 9.62727793,12.3435761 9.62177585,12.3955599 C9.56125289,12.9783257 9.5254893,13.5734034 9.5186117,14.1739531 C9.5186117,14.2519288 9.5186117,14.3312725 9.5186117,14.4092482 C9.50892281,16.4553181 9.84988893,18.4880693 10.5268693,20.4202169 C10.5612573,20.5146086 10.5956453,20.6103682 10.6314089,20.7047598 C10.8746556,21.3511424 11.1583161,21.9826368 11.4830286,22.5925926 L11.9175219,21.7444359 L12.6809366,20.2464816 L15.1307411,15.4585001 C14.9949716,15.1787718 14.8362492,14.9106491 14.6561861,14.6568552 C13.5680982,13.1162551 11.8641975,12.2376543 9.94777452,12.2300326 Z" id="Path" fill="#A40588"></path>
            <path d="M9.63965763,12.2341366 C9.74144622,12.2341366 9.84323485,12.2259286 9.94777452,12.2259286 C11.8388451,12.2598176 13.5735676,13.1312679 14.6535461,14.6527513 C14.8338054,14.9078578 14.9951719,15.17736 15.1307411,15.4585001 L15.6314311,14.4803839 L15.9478012,13.8634183 L18.7517428,8.39942385 C18.0118457,8.17200844 17.236665,8.05008422 16.4622464,8.05340422 C13.5764113,8.05286581 10.9367497,9.67033796 9.63965763,12.2341366 Z" id="Path" fill="#6E49B8"></path>
        </g>
    </g>
</svg>