<svg xmlns="http://www.w3.org/2000/svg" xmlns:xlink="http://www.w3.org/1999/xlink" width="350" height="350" viewBox="0 0 350 350">
  <defs>
    <clipPath id="clip-path">
      <rect id="Rectangle_136" data-name="Rectangle 136" width="55.665" height="115.218" fill="none"/>
    </clipPath>
    <clipPath id="clip-path-2">
      <rect id="Rectangle_1106" data-name="Rectangle 1106" width="104.056" height="76.681" fill="none"/>
    </clipPath>
    <clipPath id="clip-Backup_verification_codes">
      <rect width="350" height="350"/>
    </clipPath>
  </defs>
  <g id="Backup_verification_codes" data-name="Backup verification codes" clip-path="url(#clip-Backup_verification_codes)">
    <rect width="350" height="350" fill="#fff"/>
    <g id="Group_3160" data-name="Group 3160" transform="translate(0 4.669)">
      <rect id="Rectangle_237" data-name="Rectangle 237" width="350" height="5.62" transform="translate(0 315.017)" fill="#dee5f0"/>
      <g id="Group_3159" data-name="Group 3159" transform="translate(0 19.331)">
        <g id="Group_3149" data-name="Group 3149" transform="translate(37.057 22.079)">
          <rect id="Rectangle_1097" data-name="Rectangle 1097" width="284.982" height="226.867" rx="10" transform="translate(0 0)" fill="#d9ecf7" stroke="#f5f9ff" stroke-width="7"/>
          <g id="Group_3138" data-name="Group 3138" transform="translate(43.834 39.486)">
            <path id="Rectangle_1090" data-name="Rectangle 1090" d="M13.616,0h0A13.616,13.616,0,0,1,27.231,13.616V34.224a5.295,5.295,0,0,1-5.295,5.295H5.295A5.295,5.295,0,0,1,0,34.224V13.616A13.616,13.616,0,0,1,13.616,0Z" transform="translate(0.111 10.125)" fill="#90c8eb"/>
            <path id="Path_1588" data-name="Path 1588" d="M7368.84,10089.686v-12.6l-11.367,1.011Z" transform="translate(-7341.498 -10056.081)" fill="#72aace"/>
            <path id="Subtraction_11" data-name="Subtraction 11" d="M3.586,7.174A3.587,3.587,0,1,1,7.174,3.587,3.591,3.591,0,0,1,3.586,7.174ZM3.1,1.507A2.325,2.325,0,1,0,5.422,3.831,2.327,2.327,0,0,0,3.1,1.507Z" transform="translate(16.689 10.828)" fill="#af881c"/>
            <g id="Group_3103" data-name="Group 3103" transform="translate(9.859 12.809) rotate(-30)">
              <path id="Subtraction_8" data-name="Subtraction 8" d="M8.426,16.852a8.387,8.387,0,0,1-4.711-1.439A8.45,8.45,0,0,1,.662,11.706a8.415,8.415,0,0,1,.777-7.991A8.451,8.451,0,0,1,5.146.662a8.415,8.415,0,0,1,7.991.777A8.45,8.45,0,0,1,16.19,5.146a8.415,8.415,0,0,1-.777,7.991,8.451,8.451,0,0,1-3.707,3.053A8.373,8.373,0,0,1,8.426,16.852Zm0-13.059a2.716,2.716,0,1,0,1.061.214A2.708,2.708,0,0,0,8.426,3.794Z" transform="translate(0 0)" fill="#f6bc1a"/>
              <path id="Subtraction_7" data-name="Subtraction 7" d="M3.02,17.011A2.991,2.991,0,0,1,1.688,16.7v-.759L.468,15.606A3.013,3.013,0,0,1,0,14.075l1.687-.465V11.845L0,11.379v-1.4l1.688-.466V7.747L0,7.281V5.88l1.688-.466V3.65L0,3.184V3.02a3.021,3.021,0,0,1,6.042,0v10.97A3.024,3.024,0,0,1,3.02,17.011Z" transform="translate(5.405 13.991)" fill="#f6bc1a"/>
              <rect id="Rectangle_1092" data-name="Rectangle 1092" width="1.113" height="14.15" transform="translate(8.426 16.852)" fill="#af881c"/>
            </g>
            <path id="Subtraction_10" data-name="Subtraction 10" d="M1.834,17.074l0,0A10.977,10.977,0,0,1,1.877,4.848a11.02,11.02,0,0,1,2.97-2.97,10.977,10.977,0,0,1,12.292,0A11.073,11.073,0,0,1,18.768,3.22a10.98,10.98,0,0,1,1.454,13.751A2.97,2.97,0,0,1,17.8,15.188,8,8,0,1,0,3.626,14.106c.05.119.1.238.16.354a13.233,13.233,0,0,0-1.951,2.612Z" transform="translate(0 0)" fill="#79a4bf"/>
            <path id="Path_1587" data-name="Path 1587" d="M3.244-31.993l.911-.176-.2-.681-.86.377.113-.97h-.78l.113.97-.867-.377-.2.681.9.176-.652.754.6.428.483-.882.49.882.6-.428Zm5.422,0,.911-.176-.2-.681-.86.377.113-.97h-.78l.113.97-.867-.377-.2.681.9.176-.652.754.6.428.483-.882.49.882.6-.428Zm5.422,0L15-32.169l-.2-.681-.86.377.113-.97h-.78l.113.97-.867-.377-.2.681.9.176-.651.754.6.428.483-.882.49.882.6-.428Zm5.422,0,.911-.176-.2-.681-.86.377.113-.97h-.78l.113.97-.867-.377-.2.681.9.176-.651.754.6.428.483-.882.49.882.6-.428Z" transform="translate(2.859 75.013)" fill="#2c70ab"/>
            <rect id="Rectangle_1093" data-name="Rectangle 1093" width="18.929" height="3.321" transform="translate(4.428 35.696)" fill="#c5e0ef"/>
            <rect id="Rectangle_1094" data-name="Rectangle 1094" width="9.298" height="3.321" transform="translate(4.428 29.719)" fill="#c5e0ef"/>
          </g>
          <g id="Group_3146" data-name="Group 3146" transform="translate(43.834 133.178)">
            <path id="Rectangle_1090-2" data-name="Rectangle 1090" d="M13.616,0h0A13.616,13.616,0,0,1,27.231,13.616V34.224a5.295,5.295,0,0,1-5.295,5.295H5.295A5.295,5.295,0,0,1,0,34.224V13.616A13.616,13.616,0,0,1,13.616,0Z" transform="translate(0.111 10.125)" fill="#90c8eb"/>
            <path id="Path_1588-2" data-name="Path 1588" d="M7368.84,10089.686v-12.6l-11.367,1.011Z" transform="translate(-7341.498 -10056.081)" fill="#72aace"/>
            <path id="Subtraction_11-2" data-name="Subtraction 11" d="M3.586,7.174A3.587,3.587,0,1,1,7.174,3.587,3.591,3.591,0,0,1,3.586,7.174ZM3.1,1.507A2.325,2.325,0,1,0,5.422,3.831,2.327,2.327,0,0,0,3.1,1.507Z" transform="translate(16.689 10.828)" fill="#af881c"/>
            <g id="Group_3103-2" data-name="Group 3103" transform="translate(9.859 12.809) rotate(-30)">
              <path id="Subtraction_8-2" data-name="Subtraction 8" d="M8.426,16.852a8.387,8.387,0,0,1-4.711-1.439A8.45,8.45,0,0,1,.662,11.706a8.415,8.415,0,0,1,.777-7.991A8.451,8.451,0,0,1,5.146.662a8.415,8.415,0,0,1,7.991.777A8.45,8.45,0,0,1,16.19,5.146a8.415,8.415,0,0,1-.777,7.991,8.451,8.451,0,0,1-3.707,3.053A8.373,8.373,0,0,1,8.426,16.852Zm0-13.059a2.716,2.716,0,1,0,1.061.214A2.708,2.708,0,0,0,8.426,3.794Z" transform="translate(0 0)" fill="#f6bc1a"/>
              <path id="Subtraction_7-2" data-name="Subtraction 7" d="M3.02,17.011A2.991,2.991,0,0,1,1.688,16.7v-.759L.468,15.606A3.013,3.013,0,0,1,0,14.075l1.687-.465V11.845L0,11.379v-1.4l1.688-.466V7.747L0,7.281V5.88l1.688-.466V3.65L0,3.184V3.02a3.021,3.021,0,0,1,6.042,0v10.97A3.024,3.024,0,0,1,3.02,17.011Z" transform="translate(5.405 13.991)" fill="#f6bc1a"/>
              <rect id="Rectangle_1092-2" data-name="Rectangle 1092" width="1.113" height="14.15" transform="translate(8.426 16.852)" fill="#af881c"/>
            </g>
            <path id="Subtraction_10-2" data-name="Subtraction 10" d="M1.834,17.074l0,0A10.977,10.977,0,0,1,1.877,4.848a11.02,11.02,0,0,1,2.97-2.97,10.977,10.977,0,0,1,12.292,0A11.073,11.073,0,0,1,18.768,3.22a10.98,10.98,0,0,1,1.454,13.751A2.97,2.97,0,0,1,17.8,15.188,8,8,0,1,0,3.626,14.106c.05.119.1.238.16.354a13.233,13.233,0,0,0-1.951,2.612Z" transform="translate(0 0)" fill="#79a4bf"/>
            <path id="Path_1587-2" data-name="Path 1587" d="M3.244-31.993l.911-.176-.2-.681-.86.377.113-.97h-.78l.113.97-.867-.377-.2.681.9.176-.652.754.6.428.483-.882.49.882.6-.428Zm5.422,0,.911-.176-.2-.681-.86.377.113-.97h-.78l.113.97-.867-.377-.2.681.9.176-.652.754.6.428.483-.882.49.882.6-.428Zm5.422,0L15-32.169l-.2-.681-.86.377.113-.97h-.78l.113.97-.867-.377-.2.681.9.176-.651.754.6.428.483-.882.49.882.6-.428Zm5.422,0,.911-.176-.2-.681-.86.377.113-.97h-.78l.113.97-.867-.377-.2.681.9.176-.651.754.6.428.483-.882.49.882.6-.428Z" transform="translate(2.859 75.013)" fill="#2c70ab"/>
            <rect id="Rectangle_1093-2" data-name="Rectangle 1093" width="18.929" height="3.321" transform="translate(4.428 35.696)" fill="#c5e0ef"/>
            <rect id="Rectangle_1094-2" data-name="Rectangle 1094" width="9.298" height="3.321" transform="translate(4.428 29.719)" fill="#c5e0ef"/>
          </g>
          <g id="Group_3143" data-name="Group 3143" transform="translate(129.879 39.486)">
            <path id="Rectangle_1090-3" data-name="Rectangle 1090" d="M13.616,0h0A13.616,13.616,0,0,1,27.231,13.616V34.224a5.295,5.295,0,0,1-5.295,5.295H5.295A5.295,5.295,0,0,1,0,34.224V13.616A13.616,13.616,0,0,1,13.616,0Z" transform="translate(0.111 10.125)" fill="#90c8eb"/>
            <path id="Path_1588-3" data-name="Path 1588" d="M7368.84,10089.686v-12.6l-11.367,1.011Z" transform="translate(-7341.498 -10056.081)" fill="#72aace"/>
            <path id="Subtraction_11-3" data-name="Subtraction 11" d="M3.586,7.174A3.587,3.587,0,1,1,7.174,3.587,3.591,3.591,0,0,1,3.586,7.174ZM3.1,1.507A2.325,2.325,0,1,0,5.422,3.831,2.327,2.327,0,0,0,3.1,1.507Z" transform="translate(16.689 10.828)" fill="#af881c"/>
            <g id="Group_3103-3" data-name="Group 3103" transform="translate(9.859 12.809) rotate(-30)">
              <path id="Subtraction_8-3" data-name="Subtraction 8" d="M8.426,16.852a8.387,8.387,0,0,1-4.711-1.439A8.45,8.45,0,0,1,.662,11.706a8.415,8.415,0,0,1,.777-7.991A8.451,8.451,0,0,1,5.146.662a8.415,8.415,0,0,1,7.991.777A8.45,8.45,0,0,1,16.19,5.146a8.415,8.415,0,0,1-.777,7.991,8.451,8.451,0,0,1-3.707,3.053A8.373,8.373,0,0,1,8.426,16.852Zm0-13.059a2.716,2.716,0,1,0,1.061.214A2.708,2.708,0,0,0,8.426,3.794Z" transform="translate(0 0)" fill="#f6bc1a"/>
              <path id="Subtraction_7-3" data-name="Subtraction 7" d="M3.02,17.011A2.991,2.991,0,0,1,1.688,16.7v-.759L.468,15.606A3.013,3.013,0,0,1,0,14.075l1.687-.465V11.845L0,11.379v-1.4l1.688-.466V7.747L0,7.281V5.88l1.688-.466V3.65L0,3.184V3.02a3.021,3.021,0,0,1,6.042,0v10.97A3.024,3.024,0,0,1,3.02,17.011Z" transform="translate(5.405 13.991)" fill="#f6bc1a"/>
              <rect id="Rectangle_1092-3" data-name="Rectangle 1092" width="1.113" height="14.15" transform="translate(8.426 16.852)" fill="#af881c"/>
            </g>
            <path id="Subtraction_10-3" data-name="Subtraction 10" d="M1.834,17.074l0,0A10.977,10.977,0,0,1,1.877,4.848a11.02,11.02,0,0,1,2.97-2.97,10.977,10.977,0,0,1,12.292,0A11.073,11.073,0,0,1,18.768,3.22a10.98,10.98,0,0,1,1.454,13.751A2.97,2.97,0,0,1,17.8,15.188,8,8,0,1,0,3.626,14.106c.05.119.1.238.16.354a13.233,13.233,0,0,0-1.951,2.612Z" transform="translate(0 0)" fill="#79a4bf"/>
            <path id="Path_1587-3" data-name="Path 1587" d="M3.244-31.993l.911-.176-.2-.681-.86.377.113-.97h-.78l.113.97-.867-.377-.2.681.9.176-.652.754.6.428.483-.882.49.882.6-.428Zm5.422,0,.911-.176-.2-.681-.86.377.113-.97h-.78l.113.97-.867-.377-.2.681.9.176-.652.754.6.428.483-.882.49.882.6-.428Zm5.422,0L15-32.169l-.2-.681-.86.377.113-.97h-.78l.113.97-.867-.377-.2.681.9.176-.651.754.6.428.483-.882.49.882.6-.428Zm5.422,0,.911-.176-.2-.681-.86.377.113-.97h-.78l.113.97-.867-.377-.2.681.9.176-.651.754.6.428.483-.882.49.882.6-.428Z" transform="translate(2.859 75.013)" fill="#2c70ab"/>
            <rect id="Rectangle_1093-3" data-name="Rectangle 1093" width="18.929" height="3.321" transform="translate(4.428 35.696)" fill="#c5e0ef"/>
            <rect id="Rectangle_1094-3" data-name="Rectangle 1094" width="9.298" height="3.321" transform="translate(4.428 29.719)" fill="#c5e0ef"/>
          </g>
          <g id="Group_3145" data-name="Group 3145" transform="translate(129.879 133.178)">
            <path id="Rectangle_1090-4" data-name="Rectangle 1090" d="M13.616,0h0A13.616,13.616,0,0,1,27.231,13.616V34.224a5.295,5.295,0,0,1-5.295,5.295H5.295A5.295,5.295,0,0,1,0,34.224V13.616A13.616,13.616,0,0,1,13.616,0Z" transform="translate(0.111 10.125)" fill="#90c8eb"/>
            <path id="Path_1588-4" data-name="Path 1588" d="M7368.84,10089.686v-12.6l-11.367,1.011Z" transform="translate(-7341.498 -10056.081)" fill="#72aace"/>
            <path id="Subtraction_11-4" data-name="Subtraction 11" d="M3.586,7.174A3.587,3.587,0,1,1,7.174,3.587,3.591,3.591,0,0,1,3.586,7.174ZM3.1,1.507A2.325,2.325,0,1,0,5.422,3.831,2.327,2.327,0,0,0,3.1,1.507Z" transform="translate(16.689 10.828)" fill="#af881c"/>
            <g id="Group_3103-4" data-name="Group 3103" transform="translate(9.859 12.809) rotate(-30)">
              <path id="Subtraction_8-4" data-name="Subtraction 8" d="M8.426,16.852a8.387,8.387,0,0,1-4.711-1.439A8.45,8.45,0,0,1,.662,11.706a8.415,8.415,0,0,1,.777-7.991A8.451,8.451,0,0,1,5.146.662a8.415,8.415,0,0,1,7.991.777A8.45,8.45,0,0,1,16.19,5.146a8.415,8.415,0,0,1-.777,7.991,8.451,8.451,0,0,1-3.707,3.053A8.373,8.373,0,0,1,8.426,16.852Zm0-13.059a2.716,2.716,0,1,0,1.061.214A2.708,2.708,0,0,0,8.426,3.794Z" transform="translate(0 0)" fill="#f6bc1a"/>
              <path id="Subtraction_7-4" data-name="Subtraction 7" d="M3.02,17.011A2.991,2.991,0,0,1,1.688,16.7v-.759L.468,15.606A3.013,3.013,0,0,1,0,14.075l1.687-.465V11.845L0,11.379v-1.4l1.688-.466V7.747L0,7.281V5.88l1.688-.466V3.65L0,3.184V3.02a3.021,3.021,0,0,1,6.042,0v10.97A3.024,3.024,0,0,1,3.02,17.011Z" transform="translate(5.405 13.991)" fill="#f6bc1a"/>
              <rect id="Rectangle_1092-4" data-name="Rectangle 1092" width="1.113" height="14.15" transform="translate(8.426 16.852)" fill="#af881c"/>
            </g>
            <path id="Subtraction_10-4" data-name="Subtraction 10" d="M1.834,17.074l0,0A10.977,10.977,0,0,1,1.877,4.848a11.02,11.02,0,0,1,2.97-2.97,10.977,10.977,0,0,1,12.292,0A11.073,11.073,0,0,1,18.768,3.22a10.98,10.98,0,0,1,1.454,13.751A2.97,2.97,0,0,1,17.8,15.188,8,8,0,1,0,3.626,14.106c.05.119.1.238.16.354a13.233,13.233,0,0,0-1.951,2.612Z" transform="translate(0 0)" fill="#79a4bf"/>
            <path id="Path_1587-4" data-name="Path 1587" d="M3.244-31.993l.911-.176-.2-.681-.86.377.113-.97h-.78l.113.97-.867-.377-.2.681.9.176-.652.754.6.428.483-.882.49.882.6-.428Zm5.422,0,.911-.176-.2-.681-.86.377.113-.97h-.78l.113.97-.867-.377-.2.681.9.176-.652.754.6.428.483-.882.49.882.6-.428Zm5.422,0L15-32.169l-.2-.681-.86.377.113-.97h-.78l.113.97-.867-.377-.2.681.9.176-.651.754.6.428.483-.882.49.882.6-.428Zm5.422,0,.911-.176-.2-.681-.86.377.113-.97h-.78l.113.97-.867-.377-.2.681.9.176-.651.754.6.428.483-.882.49.882.6-.428Z" transform="translate(2.859 75.013)" fill="#2c70ab"/>
            <rect id="Rectangle_1093-4" data-name="Rectangle 1093" width="18.929" height="3.321" transform="translate(4.428 35.696)" fill="#c5e0ef"/>
            <rect id="Rectangle_1094-4" data-name="Rectangle 1094" width="9.298" height="3.321" transform="translate(4.428 29.719)" fill="#c5e0ef"/>
          </g>
          <g id="Group_3144" data-name="Group 3144" transform="translate(217.835 39.486)">
            <path id="Rectangle_1090-5" data-name="Rectangle 1090" d="M13.616,0h0A13.616,13.616,0,0,1,27.231,13.616V34.224a5.295,5.295,0,0,1-5.295,5.295H5.295A5.295,5.295,0,0,1,0,34.224V13.616A13.616,13.616,0,0,1,13.616,0Z" transform="translate(0.111 10.125)" fill="#90c8eb"/>
            <path id="Path_1588-5" data-name="Path 1588" d="M7368.84,10089.686v-12.6l-11.367,1.011Z" transform="translate(-7341.498 -10056.081)" fill="#72aace"/>
            <path id="Subtraction_11-5" data-name="Subtraction 11" d="M3.586,7.174A3.587,3.587,0,1,1,7.174,3.587,3.591,3.591,0,0,1,3.586,7.174ZM3.1,1.507A2.325,2.325,0,1,0,5.422,3.831,2.327,2.327,0,0,0,3.1,1.507Z" transform="translate(16.689 10.828)" fill="#af881c"/>
            <g id="Group_3103-5" data-name="Group 3103" transform="translate(9.859 12.809) rotate(-30)">
              <path id="Subtraction_8-5" data-name="Subtraction 8" d="M8.426,16.852a8.387,8.387,0,0,1-4.711-1.439A8.45,8.45,0,0,1,.662,11.706a8.415,8.415,0,0,1,.777-7.991A8.451,8.451,0,0,1,5.146.662a8.415,8.415,0,0,1,7.991.777A8.45,8.45,0,0,1,16.19,5.146a8.415,8.415,0,0,1-.777,7.991,8.451,8.451,0,0,1-3.707,3.053A8.373,8.373,0,0,1,8.426,16.852Zm0-13.059a2.716,2.716,0,1,0,1.061.214A2.708,2.708,0,0,0,8.426,3.794Z" transform="translate(0 0)" fill="#f6bc1a"/>
              <path id="Subtraction_7-5" data-name="Subtraction 7" d="M3.02,17.011A2.991,2.991,0,0,1,1.688,16.7v-.759L.468,15.606A3.013,3.013,0,0,1,0,14.075l1.687-.465V11.845L0,11.379v-1.4l1.688-.466V7.747L0,7.281V5.88l1.688-.466V3.65L0,3.184V3.02a3.021,3.021,0,0,1,6.042,0v10.97A3.024,3.024,0,0,1,3.02,17.011Z" transform="translate(5.405 13.991)" fill="#f6bc1a"/>
              <rect id="Rectangle_1092-5" data-name="Rectangle 1092" width="1.113" height="14.15" transform="translate(8.426 16.852)" fill="#af881c"/>
            </g>
            <path id="Subtraction_10-5" data-name="Subtraction 10" d="M1.834,17.074l0,0A10.977,10.977,0,0,1,1.877,4.848a11.02,11.02,0,0,1,2.97-2.97,10.977,10.977,0,0,1,12.292,0A11.073,11.073,0,0,1,18.768,3.22a10.98,10.98,0,0,1,1.454,13.751A2.97,2.97,0,0,1,17.8,15.188,8,8,0,1,0,3.626,14.106c.05.119.1.238.16.354a13.233,13.233,0,0,0-1.951,2.612Z" transform="translate(0 0)" fill="#79a4bf"/>
            <path id="Path_1587-5" data-name="Path 1587" d="M3.244-31.993l.911-.176-.2-.681-.86.377.113-.97h-.78l.113.97-.867-.377-.2.681.9.176-.652.754.6.428.483-.882.49.882.6-.428Zm5.422,0,.911-.176-.2-.681-.86.377.113-.97h-.78l.113.97-.867-.377-.2.681.9.176-.652.754.6.428.483-.882.49.882.6-.428Zm5.422,0L15-32.169l-.2-.681-.86.377.113-.97h-.78l.113.97-.867-.377-.2.681.9.176-.651.754.6.428.483-.882.49.882.6-.428Zm5.422,0,.911-.176-.2-.681-.86.377.113-.97h-.78l.113.97-.867-.377-.2.681.9.176-.651.754.6.428.483-.882.49.882.6-.428Z" transform="translate(2.859 75.013)" fill="#2c70ab"/>
            <rect id="Rectangle_1093-5" data-name="Rectangle 1093" width="18.929" height="3.321" transform="translate(4.428 35.696)" fill="#c5e0ef"/>
            <rect id="Rectangle_1094-5" data-name="Rectangle 1094" width="9.298" height="3.321" transform="translate(4.428 29.719)" fill="#c5e0ef"/>
          </g>
        </g>
        <g id="Group_3113" data-name="Group 3113" transform="translate(161.485 0)">
          <path id="Path_1574" data-name="Path 1574" d="M24.064,2S6,7.118,6,8.021V26.286c0,9.233,13.347,17.361,17.06,19.569a1.806,1.806,0,0,0,2.007,0c3.813-2.107,17.06-10.336,17.06-19.569V8.021C42.127,7.118,24.064,2,24.064,2Z" transform="translate(-6 -2)" fill="#69bf6d"/>
          <path id="Path_1575" data-name="Path 1575" d="M28.136,34.382,25.025,25.05h4.014a1,1,0,0,0,.7-1.706L20.81,11.2c-.4-.5-1.2,0-.9.5l3.111,9.333H19a1,1,0,0,0-.7,1.706l8.931,12.143C27.634,35.386,28.437,34.884,28.136,34.382Z" transform="translate(-5.958 -1.968)" fill="#fff"/>
        </g>
        <g id="Group_3148" data-name="Group 3148" transform="translate(161.484 89.739)">
          <g id="Group_3142" data-name="Group 3142" transform="translate(0 0)">
            <g id="Group_3136" data-name="Group 3136">
              <path id="Path_1638" data-name="Path 1638" d="M1182.325,696.233s4.693,6.047,7.034,4.969,6.273-5.2,8.693-9.434c1.529-2.774,6.915-2.689,8.233-4.474s.923-3.333,1.665-4.142.965,1.374,0,3.873.315.184.785-.843.262-2.7.932-2.483.378,3.062-.311,4.065a4.371,4.371,0,0,0,1.224-2.925c.153-.511,1.888.911-.6,4.26,1.77-1.242,1.221-2.727,1.863-2.074s-1.3,3.946-4.533,5.53-4.863.9-5.954,2.917-7.386,12.359-9.93,14.837-6.222,1.154-7.581.266a64.617,64.617,0,0,1-9.023-7.838C1171.969,699.6,1182.325,696.233,1182.325,696.233Z" transform="translate(-1119.638 -653.297)" fill="#f8be95"/>
              <path id="Path_1640" data-name="Path 1640" d="M1044.177,715s-5.495,7.745-6.228,8.853-2.382,3.959.345,8.647,12.242,17.709,13.779,19.478,2.427,3.141,1.37,5.745-1.72,3.949-1.37,6.583,1.215,4.389,1.37,2.928c.379.9,1.51,1.67,1.279,0,.644.736,2.143,1.916,1.627-.26,1.189,1.208,1.808,1.82,1.536-1.2s.056-4.322.994-5.552,1.447-.824,1.68,0,.758,2.348,1.29,2.242.829-3.391,0-5.3a95.557,95.557,0,0,0-6.454-10.732c-2.863-4.271-7.406-11.638-8.611-13.924s-1.374-2.874,0-4.628,5.013-5.452,5.013-5.452Z" transform="translate(-1036.782 -672.583)" fill="#f8be95"/>
              <path id="Path_1641" data-name="Path 1641" d="M1053.487,691.887s9.9-10.4,14.2-12.945,6.213-1.7,14.477,0,3.8,3.37,9.344.575c3.333-.147,9.081-.611,11.271,2.326s7.589,10.415,7.589,10.415l-6.724,5.273s2.231,5.545-4.206,8.892c-2.633,3.644-.7,14.749-.7,14.749s-10.214,6.5-26.23.038c-1.142-10.529-2.639-19.853-3.469-22.48s-1.9-2.977-3.057-1.835-4.036,3.572-4.036,3.572Z" transform="translate(-1046.845 -649.894)" fill="#fff"/>
              <path id="Path_1642" data-name="Path 1642" d="M1073.033,787.268s-8.163,21.209-11.038,38.167-7.508,80.179-7.508,80.179h7.557l23.934-84.442,7.742,84.442h7.747s6.523-76.206,6.13-89.07-8.256-29.276-8.256-29.276a29.109,29.109,0,0,1-13.519,2.772C1077.66,789.872,1073.033,787.268,1073.033,787.268Z" transform="translate(-1047.448 -716.119)" fill="#0f72ae"/>
              <path id="Path_1643" data-name="Path 1643" d="M1052.363,1084.923l-2.132,11.143a22.586,22.586,0,0,0,9.586,2.293c5.091-.066,3.5-2.293,3.5-2.293l-6.069-2.788,2.088-8.355Z" transform="translate(-1045.171 -895.429)" fill="#f8be95"/>
              <path id="Path_1652" data-name="Path 1652" d="M1050.231,1084.923v11.143a22.586,22.586,0,0,0,9.586,2.293c5.091-.066,3.5-2.293,3.5-2.293l-6.069-2.788.3-8.355Z" transform="translate(-1003.795 -895.429)" fill="#f8be95"/>
              <path id="Path_1645" data-name="Path 1645" d="M13.646,1.634s6.31,3.349,7.814,4.156,2.259,3.569-2.277,2.85l-17.7-2.8C-.5,5.522-.038,4.185.308,3.093A15.028,15.028,0,0,1,2.213,0s4.482,3.491,9.172,3.22S13.646,1.634,13.646,1.634Z" transform="translate(2.954 200.442) rotate(-9)" fill="#50567c"/>
              <path id="Path_1653" data-name="Path 1653" d="M13.706,1.82s6.25,3.162,7.755,3.969,2.259,3.569-2.277,2.85l-17.7-2.8C-.5,5.522-.038,4.185.308,3.093A15.028,15.028,0,0,1,2.213,0s4.482,3.491,9.172,3.22S13.706,1.82,13.706,1.82Z" transform="translate(44.331 200.442) rotate(-9)" fill="#50567c"/>
              <path id="Path_1594" data-name="Path 1594" d="M5370.345,12871.258v4.482s1.239,3.168,4.312,3.238,4.9-3.238,4.9-3.238v-4.482a11.171,11.171,0,0,0,4.063-8.189c-.006-5.078,0-8.748,0-8.748h-17.239v8.748S5366.458,12869.246,5370.345,12871.258Z" transform="translate(-5334.927 -12846.14)" fill="#f8be95"/>
              <path id="Path_1595" data-name="Path 1595" d="M5368.858,12833.122c-.324.871-1.955,6.191-12.813,5.979,0,5.149.637,7.944,3.9,10.4v2.97a17.763,17.763,0,0,1-5.9-1.413c-.86-2.869-3.085-10.783-1.234-17.933s5.614-8.3,7.488-8.476,6.135,0,6.135,0,3.463-.771,5.29.2,5.611,3.563,5.671,10.346-1.884,15.861-1.884,15.861a20.624,20.624,0,0,1-6.348,1.413v-2.97s3.172-2.057,4.1-7.459v-4.984s-2.5-.062-3.231-3.933a3.908,3.908,0,0,0,0,2.474A4.5,4.5,0,0,1,5368.858,12833.122Z" transform="translate(-5324.545 -12824.356)" fill="#002a69"/>
              <path id="Path_1647" data-name="Path 1647" d="M4782.869,10872.963s-.625,4.009-6.947,4.468c4.512,1.19,7.251-.437,8.357-4.468A10.274,10.274,0,0,0,4782.869,10872.963Z" transform="translate(-4736.505 -10843.279)" fill="#ebf3fa"/>
              <path id="Path_1648" data-name="Path 1648" d="M4812.868,10905.788s-.888-2.922-4.509-8.093c2.771,1.77,6.054,6.905,6.054,6.905Z" transform="translate(-4756.045 -10858.186)" fill="#ebf3fa"/>
              <path id="Path_1649" data-name="Path 1649" d="M4726.477,10910.529c2-1.572,3.854-3.143,3.854-3.143s.33,12,.336,14.412C4729.4,10915.408,4728.761,10911.232,4726.477,10910.529Z" transform="translate(-4706.719 -10864.022)" fill="#ebf3fa"/>
              <path id="Path_1650" data-name="Path 1650" d="M4735.918,10868.754s2.219,2,3.367,6.716a15.733,15.733,0,0,0-2.345-7.2A2.827,2.827,0,0,0,4735.918,10868.754Z" transform="translate(-4712.406 -10840.459)" fill="#ebf3fa"/>
            </g>
            <path id="Path_1663" data-name="Path 1663" d="M1087.572,315.465l6.23,67.241-5.488-70.082Z" transform="translate(-1049.041 -210.315)" fill="#176798"/>
            <path id="Path_1664" data-name="Path 1664" d="M1079.092,292.264a20.412,20.412,0,0,0,3.141,1.309c-1.029,1.822-8.7,15.017-8.7,15.017S1078.292,295.109,1079.092,292.264Z" transform="translate(-1054.073 -217.615)" fill="#176798"/>
            <path id="Path_1665" data-name="Path 1665" d="M1098.344,291.775s3.9,10.01,5.148,14.553c-2.159-4.52-6.9-13.868-6.9-13.868Z" transform="translate(-1045.807 -217.791)" fill="#176798"/>
          </g>
          <g id="Group_3150" data-name="Group 3150" transform="translate(82.272 26.167)">
            <path id="Rectangle_1090-6" data-name="Rectangle 1090" d="M13.616,0h0A13.616,13.616,0,0,1,27.231,13.616V34.224a5.295,5.295,0,0,1-5.295,5.295H5.295A5.295,5.295,0,0,1,0,34.224V13.616A13.616,13.616,0,0,1,13.616,0Z" transform="translate(0.111 10.125)" fill="#90c8eb"/>
            <path id="Path_1588-6" data-name="Path 1588" d="M7368.84,10089.686v-12.6l-11.367,1.011Z" transform="translate(-7341.498 -10056.081)" fill="#72aace"/>
            <path id="Subtraction_11-6" data-name="Subtraction 11" d="M3.586,7.174A3.587,3.587,0,1,1,7.174,3.587,3.591,3.591,0,0,1,3.586,7.174ZM3.1,1.507A2.325,2.325,0,1,0,5.422,3.831,2.327,2.327,0,0,0,3.1,1.507Z" transform="translate(16.689 10.828)" fill="#af881c"/>
            <g id="Group_3103-6" data-name="Group 3103" transform="translate(9.859 12.809) rotate(-30)">
              <path id="Subtraction_8-6" data-name="Subtraction 8" d="M8.426,16.852a8.387,8.387,0,0,1-4.711-1.439A8.45,8.45,0,0,1,.662,11.706a8.415,8.415,0,0,1,.777-7.991A8.451,8.451,0,0,1,5.146.662a8.415,8.415,0,0,1,7.991.777A8.45,8.45,0,0,1,16.19,5.146a8.415,8.415,0,0,1-.777,7.991,8.451,8.451,0,0,1-3.707,3.053A8.373,8.373,0,0,1,8.426,16.852Zm0-13.059a2.716,2.716,0,1,0,1.061.214A2.708,2.708,0,0,0,8.426,3.794Z" transform="translate(0 0)" fill="#f6bc1a"/>
              <path id="Subtraction_7-6" data-name="Subtraction 7" d="M3.02,17.011A2.991,2.991,0,0,1,1.688,16.7v-.759L.468,15.606A3.013,3.013,0,0,1,0,14.075l1.687-.465V11.845L0,11.379v-1.4l1.688-.466V7.747L0,7.281V5.88l1.688-.466V3.65L0,3.184V3.02a3.021,3.021,0,0,1,6.042,0v10.97A3.024,3.024,0,0,1,3.02,17.011Z" transform="translate(5.405 13.991)" fill="#f6bc1a"/>
              <rect id="Rectangle_1092-6" data-name="Rectangle 1092" width="1.113" height="14.15" transform="translate(8.426 16.852)" fill="#af881c"/>
            </g>
            <path id="Subtraction_10-6" data-name="Subtraction 10" d="M1.834,17.074l0,0A10.977,10.977,0,0,1,1.877,4.848a11.02,11.02,0,0,1,2.97-2.97,10.977,10.977,0,0,1,12.292,0A11.073,11.073,0,0,1,18.768,3.22a10.98,10.98,0,0,1,1.454,13.751A2.97,2.97,0,0,1,17.8,15.188,8,8,0,1,0,3.626,14.106c.05.119.1.238.16.354a13.233,13.233,0,0,0-1.951,2.612Z" transform="translate(0 0)" fill="#79a4bf"/>
            <path id="Path_1587-6" data-name="Path 1587" d="M3.244-31.993l.911-.176-.2-.681-.86.377.113-.97h-.78l.113.97-.867-.377-.2.681.9.176-.652.754.6.428.483-.882.49.882.6-.428Zm5.422,0,.911-.176-.2-.681-.86.377.113-.97h-.78l.113.97-.867-.377-.2.681.9.176-.652.754.6.428.483-.882.49.882.6-.428Zm5.422,0L15-32.169l-.2-.681-.86.377.113-.97h-.78l.113.97-.867-.377-.2.681.9.176-.651.754.6.428.483-.882.49.882.6-.428Zm5.422,0,.911-.176-.2-.681-.86.377.113-.97h-.78l.113.97-.867-.377-.2.681.9.176-.651.754.6.428.483-.882.49.882.6-.428Z" transform="translate(2.859 75.013)" fill="#2c70ab"/>
            <rect id="Rectangle_1093-6" data-name="Rectangle 1093" width="18.929" height="3.321" transform="translate(4.428 35.696)" fill="#c5e0ef"/>
            <rect id="Rectangle_1094-6" data-name="Rectangle 1094" width="9.298" height="3.321" transform="translate(4.428 29.719)" fill="#c5e0ef"/>
          </g>
          <path id="Path_1651" data-name="Path 1651" d="M1240.56,692.506c.237-1.183-1.4-.168-2.593-.4a2.734,2.734,0,0,0-3.093,1.146c-.717,1.165-2.538,5.009-2.538,5.009l2.343-.137,2.159-4.246S1240.323,693.69,1240.56,692.506Z" transform="translate(-1154.188 -658.682)" fill="#f8be95"/>
        </g>
        <g id="Group_3037" data-name="Group 3037" transform="translate(280.585 180.469)">
          <g id="Group_498" data-name="Group 498" clip-path="url(#clip-path)">
            <path id="Path_459" data-name="Path 459" d="M28.518,171.044a18.091,18.091,0,0,0-1.452-6.182c-1.151-2.3-3.173-3.961-4.939-5.79a32.334,32.334,0,0,1-7.365-12.208c-1.179-3.542-1.766-7.316-3.391-10.661-.992-2.043-2.344-3.869-3.471-5.834-2.663-4.645-4.112-10.134-7.723-14.022a17.329,17.329,0,0,0,3.661,13.333,22.31,22.31,0,0,1,2.6,3.286c1.23,2.241,1.118,4.975,1.262,7.553A34.172,34.172,0,0,0,11.512,154.4c2.369,4.524,5.789,8.553,7.056,13.536.949,3.734.667,7.922,2.691,11.158a2.9,2.9,0,0,1,.524,1.118,2.533,2.533,0,0,1-.04.7l-.136.9c-.46,3.056-.936,6.944,1.589,9.231,1.75,1.585,4,1.62,5.259-.485s1.153-5.223,1.059-7.608c-.156-3.973-.566-7.957-1-11.907" transform="translate(0 -101.783)" fill="#69bf6d"/>
            <path id="Path_460" data-name="Path 460" d="M171.776,66.8c-.982-3.537-2.507-6.906-3.271-10.5a51.434,51.434,0,0,1-.749-10.665q0-5.871-.008-11.742a46,46,0,0,0-.392-7.29c-.833-5.171-3.417-9.952-3.855-15.175-.189-2.259.031-4.541-.208-6.795A11.02,11.02,0,0,0,162.266.891a1.577,1.577,0,0,0-2.877.084,15.74,15.74,0,0,0-1.544,8.915,37.527,37.527,0,0,0,1.626,5.261c2.517,7.786,1.181,16.406,3.128,24.368.588,2.4,1.477,4.76,1.58,7.238.247,5.93-4.011,11.347-3.621,17.269.32,4.855,3.677,8.873,5.086,13.513.789,2.6.958,5.37,1.8,7.948.656,2,2.183,4.436,4.554,3.828,2.251-.577,1.571-2.488,1.47-4.313-.34-6.175-.02-12.166-1.7-18.2" transform="translate(-138.71 0)" fill="#40a148"/>
            <path id="Path_461" data-name="Path 461" d="M247.744,94.706a29.345,29.345,0,0,1-.15-5.509,33.159,33.159,0,0,1,1.219-4.482,41.807,41.807,0,0,0,1.175-8.636q.521-7.926,1.041-15.851a214.838,214.838,0,0,1,2.559-24.537c.41-2.245.87-4.679-.1-6.728-.2-.432-.607-.89-1.048-.747-.314.1-.469.463-.583.785-3.228,9.123-4.448,18.944-8.051,27.913a36.833,36.833,0,0,0-2.314,6.544c-.536,2.74-.242,5.571-.172,8.367a40.967,40.967,0,0,1-1.341,11.9,50.845,50.845,0,0,0-1.608,6.062,33.157,33.157,0,0,0,.177,7.826,125.007,125.007,0,0,1,.464,15.075c-.087,2.956,2.312,2.879,3.9,1.062,1.112-1.27,1.1-2.664,1.482-4.246,1.25-5.191,3.651-9.177,3.348-14.8" transform="translate(-209.525 -24.661)" fill="#69bf6d"/>
            <path id="Path_462" data-name="Path 462" d="M87.809,505.258c-2.122-3.546-6.349-5.561-7.705-9.494-.345-1-.48-2.077-.9-3.045-.936-2.15-3.065-3.366-5.158-4.355a.444.444,0,0,0-.625.414,1.591,1.591,0,0,0,.655,1.328,8.815,8.815,0,0,1,3.383,4.8c.647,2.3.366,4.831,1.17,7.081.675,1.889,2.063,3.434,2.716,5.331a31.193,31.193,0,0,1,.814,5.449c.28,1.819,1.057,3.75,2.664,4.52,5.812,2.785,4.36-9.737,2.989-12.028" transform="translate(-64.582 -427.197)" fill="#40a148"/>
            <path id="Path_463" data-name="Path 463" d="M316.755,448.609c-.09,1.714.162,3.511-.483,5.091a15.5,15.5,0,0,1-1.764,2.724c-2.139,3.147-2.915,7.606-6.2,9.378a.86.86,0,0,1-1.392-.556c-.806-1.953.1-4.153.634-6.2a1.579,1.579,0,0,0,.008-1.089c-.181-.363-.594-.521-.875-.805a2.743,2.743,0,0,1-.4-2.316,54.378,54.378,0,0,1,1.173-5.987,10.718,10.718,0,0,1,1.233-3.2,13.912,13.912,0,0,1,2.6-2.672,32.093,32.093,0,0,0,8.985-13.793,9.22,9.22,0,0,1,1.5-3.267,2.442,2.442,0,0,1,3.14-.666c.68.5-2.106,5.158-2.43,5.716-.928,1.6-.941,2.986-1.465,4.76-1.285,4.345-4.015,8.234-4.261,12.89" transform="translate(-269.353 -371.718)" fill="#69bf6d"/>
            <path id="Path_464" data-name="Path 464" d="M271.777,342.9a21.733,21.733,0,0,0,1.422-5.033c.223-1.936-.073-3.915.245-5.837.409-2.47,1.794-4.642,2.479-7.045a48.257,48.257,0,0,0,.914-5.341c.85-5.1,3.156-10.082,2.494-15.212-.144-1.116-.628-2.416-1.693-2.607-.964-.172-1.842.744-2.092,1.729a9.7,9.7,0,0,0,.005,3.041,12.923,12.923,0,0,1-2.162,8.051c-1.514,2.228-3.712,3.906-5.074,6.239-1.672,2.861-1.9,6.353-2.752,9.583-1.7,6.422-5.951,12.025-6.726,18.636-.309,2.631.285,5.829,2.62,6.88,6.753,3.04,8.791-8.97,10.321-13.084" transform="translate(-227.615 -264.029)" fill="#3fa148"/>
            <path id="Path_465" data-name="Path 465" d="M143.574,695.224h-15.5a1.694,1.694,0,0,0-1.6,2.105L132.13,722.1a1.656,1.656,0,0,0,1.6,1.314h18.616a1.656,1.656,0,0,0,1.6-1.314l5.649-24.774a1.694,1.694,0,0,0-1.6-2.105Z" transform="translate(-111.217 -608.2)" fill="#f6bc1a"/>
          </g>
        </g>
        <g id="Group_3157" data-name="Group 3157" transform="translate(13.134 180.469)">
          <path id="Path_1657" data-name="Path 1657" d="M62.66,126.1,48.07,170.55h1.121L71.027,126.1Z" transform="translate(-21.094 -55.333)" fill="#50567c"/>
          <path id="Path_1658" data-name="Path 1658" d="M137.911,126.1l21.836,44.45h1.121l-14.59-44.45Z" transform="translate(-60.516 -55.333)" fill="#50567c"/>
          <path id="Path_1659" data-name="Path 1659" d="M91.6,131.658l2.686,41.331h1.407l2.686-41.331Z" transform="translate(-40.195 -57.772)" fill="#50567c"/>
          <path id="Path_1660" data-name="Path 1660" d="M77.394,66.259c-.3-.557-7.1,0-7.936,0H26.976L1.481,18.347A12.483,12.483,0,0,1,12.5,0H31.961A16.928,16.928,0,0,1,46.913,8.984Z" transform="translate(0 0)" fill="#fcd704"/>
          <path id="Path_1661" data-name="Path 1661" d="M125.962,119.851v.12a8.329,8.329,0,0,1-8.318,8.324h-52.9a18.712,18.712,0,0,1-16.673-10.227h76.106a1.784,1.784,0,0,1,1.789,1.783" transform="translate(-21.092 -51.809)" fill="#fcd704"/>
          <g id="Group_3156" data-name="Group 3156" transform="translate(0 0)" style="mix-blend-mode: multiply;isolation: isolate">
            <g id="Group_3155" data-name="Group 3155">
              <g id="Group_3154" data-name="Group 3154" clip-path="url(#clip-path-2)">
                <path id="Path_1662" data-name="Path 1662" d="M104.027,71.82h.029c-1.547,3.408-5.725,4.769-9.466,4.838-5.562.1-11.162-.172-16.739-.172h-34.2A18.711,18.711,0,0,1,26.975,66.259L1.48,18.347A12.484,12.484,0,0,1,12.5,0H26.226c1.934,14.905,8.651,28.62,14.027,42.464,4.279,11.02,10.5,25.523,23.155,28.887,6.275,1.668,13.222.568,19.638.484,6.994-.091,13.987-.053,20.981-.015" transform="translate(0)" fill="#f9c119"/>
              </g>
            </g>
          </g>
          <rect id="Rectangle_1107" data-name="Rectangle 1107" width="104.87" height="115.217" transform="translate(0 0)" fill="none"/>
        </g>
        <rect id="Rectangle_1108" data-name="Rectangle 1108" width="104.87" height="115.217" transform="translate(0 180.469)" fill="none"/>
      </g>
    </g>
  </g>
</svg>
