<svg xmlns="http://www.w3.org/2000/svg" xmlns:xlink="http://www.w3.org/1999/xlink" width="350" height="350" viewBox="0 0 350 350">
  <defs>
    <clipPath id="clip-MobileNumber_11">
      <rect width="350" height="350"/>
    </clipPath>
  </defs>
  <g id="MobileNumber_11" data-name="MobileNumber – 11" clip-path="url(#clip-MobileNumber_11)">
    <rect width="350" height="350" fill="#fff"/>
    <g id="Group_4407" data-name="Group 4407">
      <g id="Group_4406" data-name="Group 4406">
        <rect id="Rectangle_1076" data-name="Rectangle 1076" width="350" height="350" transform="translate(0.01)" fill="#fff"/>
        <path id="Path_611" data-name="Path 611" d="M327.361,178.152H285.852c4.442-4.767,7.275-11.987,7.275-20.068v-5.938c0-17.2,10.71-31.151,23.922-31.151,13.544,0,24.522-14.3,24.522-31.93s-10.979-31.93-24.522-31.93h-4.017c-13.211,0-23.922-13.946-23.922-31.15h0C289.106,11.634,280.173,0,269.147,0H113.172C100.9,0,90.952,12.949,90.952,28.926c0,10.922,4.65,20.43,11.511,25.354h-27.4c-11.427,0-20.69,11.162-20.69,24.931,0,16.5-11.1,29.877-24.8,29.877H25.41c-14.038,0-25.42,13.712-25.42,30.63s11.38,30.63,25.42,30.63h0c13.694,0,24.8,13.376,24.8,29.877v5.7c0,13.769,9.263,24.931,20.69,24.931h96.274a19.625,19.625,0,0,0,2.207.125H327.361c12.493,0,22.619-11.825,22.619-26.411s-10.127-26.413-22.619-26.413" transform="translate(0.02 76.94)" fill="#9bc1f9" opacity="0.102"/>
        <g id="Group_3014" data-name="Group 3014" transform="translate(141.04 96.005)">
          <path id="Path_1472" data-name="Path 1472" d="M4199.191,6657.387c21.8,14.537,27.6,33.733,31.7,49.188s19.538,46.184,26.558,55.349,15.349,39.657,10.3,54.533-27.379,44.533-83.726,45.058-88.073-1.5-103.9-29.878-11.6-58.369-3.978-75.619,32.062-33.828,38.648-49.446,19.013-37.372,30.482-44.052S4177.392,6642.85,4199.191,6657.387Z" transform="translate(-4069.29 -6650.771)" fill="#d7eaf5"/>
          <g id="Group_3013" data-name="Group 3013" transform="translate(0 30.277)">
            <path id="Path_1473" data-name="Path 1473" d="M4241.244,6802.438c-20.625,30.228,14.158-15.593,37.228-12.034S4261.87,6772.209,4241.244,6802.438Z" transform="translate(-4103.476 -6708.588)" fill="#cadde8"/>
            <path id="Path_1474" data-name="Path 1474" d="M4101.329,6772.539c-28.6-13.445,30.334.1,42.85,32.518C4127.461,6794.22,4129.93,6785.984,4101.329,6772.539Z" transform="translate(-4074.293 -6704.771)" fill="#cadde8"/>
            <path id="Path_1475" data-name="Path 1475" d="M4138.209,6817.969c20.979,12.506-14.9-19.642-43.637-16.2S4117.23,6805.463,4138.209,6817.969Z" transform="translate(-4072.736 -6711.719)" fill="#f4fbff"/>
            <path id="Path_1476" data-name="Path 1476" d="M4236.222,6820.835c-7.879,4.953,25.1-22.216,46.97-11.926S4244.1,6815.883,4236.222,6820.835Z" transform="translate(-4103.492 -6712.755)" fill="#f4fbff"/>
            <path id="Path_1477" data-name="Path 1477" d="M4249.964,6696.286c7.979-6.611-9.12,1.929-14.107,17.072S4241.985,6702.9,4249.964,6696.286Z" transform="translate(-4103.406 -6689.979)" fill="#cadde8"/>
            <path id="Path_1478" data-name="Path 1478" d="M4156.65,6692.972c-10.591-13.523,13.888,9.963,14.982,24.712S4167.241,6706.494,4156.65,6692.972Z" transform="translate(-4086.763 -6688.925)" fill="#cadde8"/>
            <path id="Path_1479" data-name="Path 1479" d="M4069.338,6832.8s34.467,32.421,92.006,29.21,83.9-3.188,107.321-25c2.666,14.882.808,40.394-23.665,53.406s-77.014,8.4-110.12,7.563-47.8-11.935-57.345-33S4069.338,6832.8,4069.338,6832.8Z" transform="translate(-4069.273 -6717.819)" fill="#b3d3e5"/>
          </g>
        </g>
        <rect id="Rectangle_135" data-name="Rectangle 135" width="336.258" height="1.523" transform="translate(13.752 307.797)" fill="#dee5f0"/>
        <path id="Path_2475" data-name="Path 2475" d="M630.315,489.107a11.661,11.661,0,0,1-4.967-6.259,22.5,22.5,0,0,1-1.1-8.04,42.61,42.61,0,0,1,5.7-20.486,3.991,3.991,0,0,1,2.383-2.214,2.772,2.772,0,0,1,2.659,1.288A7.4,7.4,0,0,1,636,456.328a54.074,54.074,0,0,1-3.679,31.27,3.585,3.585,0,0,1-1.028,1.523C630.79,489.488,630,489.542,630.315,489.107Z" transform="translate(-574.358 -220.455)" fill="#94d082"/>
        <path id="Path_2478" data-name="Path 2478" d="M633.412,506.091q1.818,6.576,3.269,13.245" transform="translate(-577.374 -234.227)" fill="none" stroke="#3a8824" stroke-linecap="round" stroke-miterlimit="10" stroke-width="1"/>
        <path id="Path_2479" data-name="Path 2479" d="M615.477,508.228l14.234,7.232" transform="translate(-571.473 -234.93)" fill="none" stroke="#3a8824" stroke-linecap="round" stroke-miterlimit="10" stroke-width="1"/>
        <path id="Path_2480" data-name="Path 2480" d="M617.13,548.446l-3.7-22.832h32.518l-4.467,22.832Z" transform="translate(-570.8 -240.649)" fill="#ff9b00"/>
        <g id="Group_4405" data-name="Group 4405" transform="translate(0 -4)">
          <path id="Path_2476" data-name="Path 2476" d="M631.644,488.235c-2.716-1.694-3.561-5.305-3.35-8.5.433-6.562,4.266-12.524,9.164-16.912s10.826-7.428,16.682-10.42l4.835-2.471c-.53,7.723-1.651,15.545-4.929,22.559s-8.973,13.193-16.337,15.582C635.673,488.735,633.235,489.227,631.644,488.235Z" transform="translate(-575.68 -215.751)" fill="#66c34b"/>
          <g id="Group_4404" data-name="Group 4404">
            <path id="Path_2485" data-name="Path 2485" d="M638.585,495.117a35.331,35.331,0,0,0,14.7-2.306" transform="translate(-579.076 -229.857)" fill="none" stroke="#3a8824" stroke-linecap="round" stroke-miterlimit="10" stroke-width="0.5"/>
            <g id="Group_4403" data-name="Group 4403">
              <path id="Path_2477" data-name="Path 2477" d="M633.412,488.411c6.975-14.916,12.11-22.408,26.856-37.232" transform="translate(-577.374 -216.546)" fill="none" stroke="#3a8824" stroke-linecap="round" stroke-miterlimit="10" stroke-width="0.5"/>
              <path id="Path_2481" data-name="Path 2481" d="M634.139,496.147a26.506,26.506,0,0,1-3.921-9.387" transform="translate(-576.323 -227.867)" fill="none" stroke="#3a8824" stroke-linecap="round" stroke-miterlimit="10" stroke-width="0.5"/>
              <path id="Path_2482" data-name="Path 2482" d="M639.413,485.5a42.844,42.844,0,0,1-2.662-10.509" transform="translate(-578.328 -223.561)" fill="none" stroke="#3a8824" stroke-linecap="round" stroke-miterlimit="10" stroke-width="0.5"/>
              <path id="Path_2483" data-name="Path 2483" d="M647.406,475.4a27.281,27.281,0,0,1-.5-9.805" transform="translate(-582.408 -220.136)" fill="none" stroke="#3a8824" stroke-linecap="round" stroke-miterlimit="10" stroke-width="0.5"/>
              <path id="Path_2484" data-name="Path 2484" d="M655.464,467.126a16.8,16.8,0,0,1-.164-6.942" transform="translate(-585.152 -218.962)" fill="none" stroke="#3a8824" stroke-linecap="round" stroke-miterlimit="10" stroke-width="0.5"/>
              <path id="Path_2486" data-name="Path 2486" d="M645.283,483.8a24.915,24.915,0,0,0,14.7-3.24" transform="translate(-581.95 -225.765)" fill="none" stroke="#3a8824" stroke-linecap="round" stroke-miterlimit="10" stroke-width="0.5"/>
              <path id="Path_2487" data-name="Path 2487" d="M652.858,473.42A24.9,24.9,0,0,0,664.5,472.2" transform="translate(-584.442 -222.942)" fill="none" stroke="#3a8824" stroke-linecap="round" stroke-miterlimit="10" stroke-width="0.5"/>
              <path id="Path_2488" data-name="Path 2488" d="M661.914,462.537a18.05,18.05,0,0,0,7.731-2.575" transform="translate(-588.093 -218.379)" fill="none" stroke="#3a8824" stroke-linecap="round" stroke-miterlimit="10" stroke-width="0.5"/>
            </g>
          </g>
        </g>
        <path id="Path_2495" data-name="Path 2495" d="M1731.184,2851.157h-5.679l-5.083,22.832h6.288Z" transform="translate(-1656.037 -2566.192)" fill="#fe8808"/>
        <path id="Path_2496" data-name="Path 2496" d="M1705.531,2859.649h19.676" transform="translate(-1651.138 -2568.985)" fill="none" stroke="#e7b474" stroke-width="1"/>
        <g id="Group_4224" data-name="Group 4224" transform="translate(-3.403 -85.685)">
          <g id="Group_4216" data-name="Group 4216" transform="translate(152.509 300.465)">
            <path id="Path_1415" data-name="Path 1415" d="M887.026,462.065l71.683.977s20.047-8.389,25.554-8.614,16.439.474,21.5,8.614c5.227,8.413,5.958,23.256-10.15,34.041-15.686,10.5-87.418,20.21-97.245,19.317l-18.135-24.33s-.19-19.939,0-20.889,3.228-9.5,3.228-9.5Z" transform="translate(-823.905 -451.488)" fill="#6176be"/>
            <path id="Path_1416" data-name="Path 1416" d="M950.879,516.637l37.141,13.8-16.928,46.3c-1.888-.825-7.456-2.723-8.1-9.025-.786-7.684,3.655-20.061,3.655-20.061l-24.16-7.863Z" transform="translate(-844.851 -472.399)" fill="#1d3076"/>
            <path id="Path_1418" data-name="Path 1418" d="M1001.51,536.709l-3.749-1.392L982.645,582.15a11.391,11.391,0,0,0,1.938.855Z" transform="translate(-858.343 -478.675)" fill="#fff"/>
            <path id="Path_1419" data-name="Path 1419" d="M978.064,562.63c.228.075.744-1.017,1.879-1.866,1.112-.878,2.3-1.092,2.286-1.332.032-.22-1.442-.382-2.8.667s-1.594,2.5-1.369,2.524" transform="translate(-856.779 -486.723)" fill="#101d4e"/>
            <path id="Path_1420" data-name="Path 1420" d="M978.432,571.673c.2.131.942-.707,2.18-1.124,1.224-.454,2.329-.271,2.4-.5.11-.2-1.153-.841-2.681-.291s-2.114,1.831-1.9,1.914" transform="translate(-856.914 -490.174)" fill="#101d4e"/>
            <path id="Path_1421" data-name="Path 1421" d="M983.392,579.7c.123-.187-.891-.915-2.341-.788s-2.33,1.005-2.176,1.169c.14.2,1.055-.248,2.246-.329,1.189-.11,2.165.169,2.271-.047" transform="translate(-857.071 -493.316)" fill="#101d4e"/>
            <path id="Path_1422" data-name="Path 1422" d="M969.97,558.318c.24-.02.308-1.171.861-2.415.529-1.256,1.317-2.1,1.17-2.283-.116-.19-1.307.474-1.939,1.952s-.31,2.8-.093,2.744" transform="translate(-853.991 -484.814)" fill="#263238"/>
            <path id="Path_1423" data-name="Path 1423" d="M961.519,551.941a4.626,4.626,0,0,0,.835-2.323,11.1,11.1,0,0,0,.142-2.7,11.674,11.674,0,0,0-.22-1.59,3.036,3.036,0,0,0-.29-.9,1.049,1.049,0,0,0-1.165-.544,1.318,1.318,0,0,0-.878.8,3.233,3.233,0,0,0-.2.913,8.9,8.9,0,0,0-.033,1.624,8.727,8.727,0,0,0,.622,2.651c.6,1.438,1.317,2.113,1.384,2.051.11-.076-.4-.857-.825-2.25a9.842,9.842,0,0,1-.409-2.494,9.2,9.2,0,0,1,.076-1.481c.05-.538.2-.956.465-1,.1-.015.135-.009.241.146a2.469,2.469,0,0,1,.21.659,12.857,12.857,0,0,1,.252,1.481,13.7,13.7,0,0,1,.04,2.556,16.98,16.98,0,0,0-.248,2.4" transform="translate(-850.631 -481.546)" fill="#263238"/>
            <path id="Path_1424" data-name="Path 1424" d="M959.012,554.726c.064-.066-.582-.812-2.017-1.426a7.99,7.99,0,0,0-4.28-.536A2.04,2.04,0,0,0,951,553.814a1.154,1.154,0,0,0,.292,1.208,3.378,3.378,0,0,0,.768.549,5.484,5.484,0,0,0,1.56.572,5.675,5.675,0,0,0,2.757-.109c1.53-.466,2.146-1.311,2.076-1.358a19.959,19.959,0,0,1-2.216.783,5.689,5.689,0,0,1-2.447-.064,5.081,5.081,0,0,1-1.325-.533c-.466-.252-.794-.582-.677-.747.082-.232.6-.487,1.056-.534a8.214,8.214,0,0,1,1.468-.11,8.883,8.883,0,0,1,2.477.4c1.382.434,2.139.988,2.219.878" transform="translate(-847.692 -484.507)" fill="#263238"/>
            <path id="Path_1425" data-name="Path 1425" d="M890.8,508.022l-35.94,16.671,20.512,44.823c2.006-1.07,6.731-2.371,6.785-9.377.056-7.134-4.64-19.967-4.64-19.967l23.467-9.737Z" transform="translate(-815.411 -469.505)" fill="#1d3076"/>
            <path id="Path_1427" data-name="Path 1427" d="M854.86,532.277l3.627-1.683,19.094,45.4s-.745.442-2.209,1.11Z" transform="translate(-815.411 -477.089)" fill="#fff"/>
            <path id="Path_1428" data-name="Path 1428" d="M887.6,555.82c-.219.093-.822-.956-2.019-1.711-1.177-.785-2.378-.908-2.384-1.149-.05-.219,1.408-.493,2.841.446s1.784,2.369,1.562,2.414" transform="translate(-824.93 -484.531)" fill="#101d4e"/>
            <path id="Path_1429" data-name="Path 1429" d="M887.759,564.831c-.189.147-.994-.63-2.261-.95-1.256-.357-2.343-.087-2.433-.309-.129-.191,1.084-.928,2.651-.5s2.25,1.659,2.043,1.756" transform="translate(-824.884 -487.956)" fill="#101d4e"/>
            <path id="Path_1430" data-name="Path 1430" d="M883.5,573.2c-.138-.178.817-.987,2.272-.969s2.4.819,2.261.994c-.123.207-1.07-.165-2.266-.157-1.2-.021-2.146.339-2.268.132" transform="translate(-825.028 -491.079)" fill="#101d4e"/>
            <path id="Path_1431" data-name="Path 1431" d="M896.29,550.833c-.242,0-.4-1.143-1.05-2.341-.626-1.207-1.482-1.985-1.347-2.184.1-.2,1.341.37,2.086,1.792s.53,2.762.308,2.733" transform="translate(-828.521 -482.355)" fill="#263238"/>
            <path id="Path_1432" data-name="Path 1432" d="M904.091,543.772a4.631,4.631,0,0,1-1.016-2.25,11.084,11.084,0,0,1-.353-2.678,11.647,11.647,0,0,1,.093-1.6,3.047,3.047,0,0,1,.22-.919,1.049,1.049,0,0,1,1.118-.633,1.318,1.318,0,0,1,.94.73,3.2,3.2,0,0,1,.269.9,8.848,8.848,0,0,1,.161,1.615,8.71,8.71,0,0,1-.412,2.692c-.487,1.481-1.143,2.21-1.219,2.153-.117-.066.336-.885.647-2.3a9.866,9.866,0,0,0,.212-2.517,9.144,9.144,0,0,0-.193-1.471c-.092-.531-.274-.938-.541-.963-.1-.007-.135,0-.229.165a2.431,2.431,0,0,0-.157.675,13.164,13.164,0,0,0-.135,1.5,13.668,13.668,0,0,0,.161,2.551,16.91,16.91,0,0,1,.439,2.371" transform="translate(-831.491 -478.797)" fill="#263238"/>
            <path id="Path_1433" data-name="Path 1433" d="M904.11,546.4c-.069-.062.516-.855,1.9-1.584a7.986,7.986,0,0,1,4.223-.871,2.04,2.04,0,0,1,1.789.913,1.152,1.152,0,0,1-.2,1.224,3.357,3.357,0,0,1-.716.607,5.54,5.54,0,0,1-1.511.693,5.682,5.682,0,0,1-2.759.1c-1.563-.343-2.241-1.138-2.175-1.19a20.282,20.282,0,0,0,2.271.606,5.7,5.7,0,0,0,2.434-.256,5.092,5.092,0,0,0,1.279-.635c.439-.288.747-.643.617-.8a1.413,1.413,0,0,0-1.1-.449,8.133,8.133,0,0,0-1.472,0,8.835,8.835,0,0,0-2.438.59c-1.344.541-2.057,1.149-2.145,1.046" transform="translate(-831.956 -481.569)" fill="#263238"/>
            <path id="Path_1434" data-name="Path 1434" d="M855,460.215s-30.952-11.561-42.349-10.065c-6.368.837-16.331,5.7-17.091,13.862s2.313,17.272,12.247,24.407c11.231,8.067,53.168,31.3,62.7,36.721,10.43,5.93,34.291,19.362,34.291,19.362l14.019-44.01s-53.185-20.716-56.033-22.805-10.065-4.94-10.065-4.94Z" transform="translate(-795.451 -450.017)" fill="#6176be"/>
            <path id="Path_1435" data-name="Path 1435" d="M1005.75,469.781a1.14,1.14,0,0,1-.22-.056l-.621-.189c-.549-.164-2.475-.153-3.53-.4a30.2,30.2,0,0,0-3.643-.373,22.654,22.654,0,0,0-4.648,0,28.842,28.842,0,0,0-5.952,1.3,28.443,28.443,0,0,0-3.732,1.491c-1.1.533-4.866,2.157-6.018,2.72-4.631,2.213-6.606,2.524-12.115,4.7-11.031,4.42-21.623,6.516-29.167,8.232-3.788.839-6.849,1.528-8.959,2.029l-2.432.575-.633.144a1.169,1.169,0,0,1-.22.037,1.077,1.077,0,0,1,.21-.072l.626-.175c.548-.148,1.363-.374,2.414-.637,2.1-.541,5.159-1.266,8.938-2.134,7.539-1.775,18.1-3.905,29.1-8.312,5.5-2.173,10.67-4.428,15.3-6.623l3.372-1.63a21.647,21.647,0,0,1,3.317-1.278,30.131,30.131,0,0,1,6.256-1.15,28.143,28.143,0,0,1,5.247.043,27.581,27.581,0,0,1,3.892.734c1.054.272,1.857.529,2.4.714l.612.219a1.111,1.111,0,0,1,.2.088" transform="translate(-838.594 -456.017)" fill="#5063a3"/>
            <path id="Path_1436" data-name="Path 1436" d="M1036.278,463.918c-.011.054-.942-.11-2.457-.279a37.046,37.046,0,0,0-11.836.609c-1.491.318-2.4.581-2.414.529a2.577,2.577,0,0,1,.62-.249,13.16,13.16,0,0,1,1.8-.795,28.693,28.693,0,0,1,11.836-.627,12.006,12.006,0,0,1,1.816.627,2.569,2.569,0,0,1,.641.185" transform="translate(-870.749 -454.299)" fill="#5063a3"/>
            <path id="Path_1437" data-name="Path 1437" d="M856.449,474c-.037.047-.894-.618-2.378-1.537a31.572,31.572,0,0,0-12.741-4.5c-1.732-.219-2.815-.236-2.815-.295,0-.023.836-.036,1.327-.04a15.775,15.775,0,0,1,2.066,0,21.187,21.187,0,0,1,6.037,1.087,24.246,24.246,0,0,1,5.707,2.906q1.157.878,2.222,1.866a3.35,3.35,0,0,1,.568.511" transform="translate(-809.92 -455.922)" fill="#5063a3"/>
            <path id="Path_1438" data-name="Path 1438" d="M888.926,541.046" transform="translate(-826.856 -480.6)" fill="#60658d"/>
            <path id="Path_1438-2" data-name="Path 1438" d="M931.771,503.015l-.3-.949c-3.795-1.558-8.769-2.971-12.829-4.638-26.123-10.756-47.271-20.821-63.246-27.4l-.022-.01-.017-.017c-2.669-2.826-5.125-5.316-7.427-7.326a50.235,50.235,0,0,0-6.227-4.691,45.907,45.907,0,0,0-4.272-2.384l-1.147-.535c-.258-.122-.386-.193-.386-.193s.136.05.4.163l1.161.507a42.425,42.425,0,0,1,4.31,2.337,49.331,49.331,0,0,1,6.284,4.662c2.32,2,4.793,4.487,7.474,7.3l-.039-.027L921.1,496.716l11.854,4.867.147.06-.054.149" transform="translate(-809.04 -451.65)" fill="#5063a3"/>
            <path id="Path_1438-3" data-name="Path 1438" d="M890.711,554.2" transform="translate(-827.456 -485.02)" fill="#60658d"/>
          </g>
          <g id="Group_4222" data-name="Group 4222" transform="translate(151.495 156)">
            <g id="Group_4218" data-name="Group 4218" transform="translate(66.277)">
              <g id="Group_4217" data-name="Group 4217">
                <path id="Path_2446" data-name="Path 2446" d="M903.466,264.076s-9.51-5.37-2.948-14.429c0,0-3.222-24.7,15.358-13.506,3.4,2.049,4.093,6.525,14.442,8.7,10.255,2.158,5.343,11.705,2.891,15.473a52.513,52.513,0,0,0-3.386,5.909L926,274.191Z" transform="translate(-895.238 -232.718)" fill="#4f1c1a"/>
                <path id="Path_2447" data-name="Path 2447" d="M903.466,264.076s-9.51-5.37-2.948-14.429c0,0-3.222-24.7,15.358-13.506,3.4,2.049,4.093,6.525,14.442,8.7,10.255,2.158,5.343,11.705,2.891,15.473a52.513,52.513,0,0,0-3.386,5.909L926,274.191Z" transform="translate(-895.238 -232.718)" fill="#4f1c1a"/>
                <path id="Path_2448" data-name="Path 2448" d="M915.728,289.415l-.209,6.243h0c3.9,4.869,9.11,6.586,13.078-.1l.453-.583-1.025-29.213-21.751-1.187v15.186a9.546,9.546,0,0,0,7.178,9.3c2.341.578,5.391.512,9.336-.831" transform="translate(-897.948 -243.249)" fill="#f7bd9e"/>
                <path id="Path_2449" data-name="Path 2449" d="M934.06,276.813a3.279,3.279,0,0,1,3.475-1.115,3.437,3.437,0,0,1,2.349,2.821,3.613,3.613,0,0,1-1.553,3.349,3.808,3.808,0,0,1-3.7.247" transform="translate(-907.283 -246.942)" fill="#f7bd9e" stroke="#dba284" stroke-miterlimit="10" stroke-width="1"/>
                <path id="Path_2450" data-name="Path 2450" d="M902.419,256.041c.841,2.485,1.314,4.779,3.5,6.238a9.508,9.508,0,0,0,4.433,1.075c2.742.214,5.495-.318,8.242-.193a17.359,17.359,0,0,1,9.4,3.311c.418.306.957.645,1.411.4.4-.221.461-.763.473-1.221a5.931,5.931,0,0,0-2.965-6.539l-5.155-3.695" transform="translate(-896.652 -240.171)" fill="#4f1c1a"/>
                <path id="Path_2451" data-name="Path 2451" d="M902.1,246.01a21.178,21.178,0,0,0-.007,6.741,9.168,9.168,0,0,0,3.086,5.754,10.722,10.722,0,0,0,6.9,1.884c2.428-.034,4.851-.442,7.276-.3a16.209,16.209,0,0,1,8.124,2.779" transform="translate(-896.453 -237.011)" fill="none" stroke="#451c1a" stroke-miterlimit="10" stroke-width="1"/>
                <path id="Path_2452" data-name="Path 2452" d="M897.057,240.992a15.752,15.752,0,0,0,1.832,11.678,9.249,9.249,0,0,1-5.154-6.118" transform="translate(-893.735 -235.325)" fill="none" stroke="#451c1a" stroke-miterlimit="10" stroke-width="1"/>
                <path id="Path_2453" data-name="Path 2453" d="M917.764,232.458a17.33,17.33,0,0,1,10.158,6.5" transform="translate(-901.808 -232.458)" fill="none" stroke="#451c1a" stroke-miterlimit="10" stroke-width="1"/>
                <path id="Path_2454" data-name="Path 2454" d="M950.771,250.372a7.037,7.037,0,0,1,4.143,10.443" transform="translate(-912.898 -238.477)" fill="none" stroke="#451c1a" stroke-miterlimit="10" stroke-width="1"/>
              </g>
              <path id="Path_2455" data-name="Path 2455" d="M927.784,299.78s-2.965,4.5-7.3,4.128l.051-2.676A17.13,17.13,0,0,0,927.784,299.78Z" transform="translate(-902.721 -255.076)" fill="#dba284"/>
            </g>
            <path id="Path_2456" data-name="Path 2456" d="M916.651,309.685s12.986,6.08,16.862,11.808c16.335,24.149,28.29,59.861,32.15,88.759-29.658,17.951-58.925,22.366-96.249-.66,1.176-26.421,1.318-46.562,1.64-71.141.036-2.731.1-5.593,1.442-7.975,1.173-2.09,3.183-3.555,5.131-4.952,6.8-4.876,18.413-10.079,25.522-15.15,3.1,2.725,3.606,3.5,7.537,3.5,2.515,0,5.965-4.186,5.965-4.186" transform="translate(-819.286 -258.404)" fill="#fff"/>
            <path id="Path_2457" data-name="Path 2457" d="M853.549,345.831a252.158,252.158,0,0,1-20.141,32.434c-3.472,4.718-7.22,9.388-12.139,12.569s-11.248,4.687-16.734,2.633c-6.268-2.346-10.255-9.048-10.585-15.733s2.515-13.222,6.614-18.512S838.448,324,843.746,319.913c13.2-9.806,24.4-9.327,24.267-9.2" transform="translate(-784.15 -258.753)" fill="#fff"/>
            <path id="Path_2458" data-name="Path 2458" d="M979.871,383.218l3.5,38.2,7.768-2.1Z" transform="translate(-856.397 -283.109)" fill="#edebeb"/>
            <g id="Group_4219" data-name="Group 4219" transform="translate(4.391 33.816)">
              <path id="Path_2459" data-name="Path 2459" d="M820.163,392.317c-.451,3.654,3.91,7.763,2.653,11.223a16.459,16.459,0,0,1-6.55,8.63c-3.148,1.908-7.393,2.228-10.464.2-2.77-1.83-4.162-5.161-4.844-8.411-1.863-8.872,2.707-8.239,8.9-10.9" transform="translate(-792.537 -321.447)" fill="#edebeb"/>
              <path id="Path_2460" data-name="Path 2460" d="M863.2,283.383" transform="translate(-821.588 -283.383)" fill="#d6a11a"/>
            </g>
            <g id="Group_4226" data-name="Group 4226" transform="translate(7)">
              <path id="Path_2461" data-name="Path 2461" d="M830.365,390.176a13.851,13.851,0,0,1,8.686,3.221" transform="translate(-806.167 -285.447)" fill="none" stroke="#edebeb" stroke-miterlimit="10" stroke-width="1"/>
              <path id="Path_2462" data-name="Path 2462" d="M830.545,390.8a16.2,16.2,0,0,1,5.144,9.573" transform="translate(-806.227 -285.655)" fill="none" stroke="#edebeb" stroke-miterlimit="10" stroke-width="1"/>
            </g>
            <g id="Group_4220" data-name="Group 4220" transform="translate(12.391 40.578)">
              <path id="Path_2463" data-name="Path 2463" d="M802.444,286.535a1.127,1.127,0,0,1,.791-1.126,1.66,1.66,0,0,1,1.57.373,4.908,4.908,0,0,1,1.011,1.341c.547.932,1.094,1.863,1.618,2.833a5.516,5.516,0,0,0-1.171,1.76,15.318,15.318,0,0,1-3.359-3.957,2.813,2.813,0,0,1-.345-.762A2.175,2.175,0,0,1,802.444,286.535Z" transform="translate(-798.949 -278.347)" fill="#f7bd9e"/>
              <path id="Path_2464" data-name="Path 2464" d="M806.024,284.512a1.126,1.126,0,0,1,.791-1.125,1.659,1.659,0,0,1,1.57.373A4.893,4.893,0,0,1,809.4,285.1c.547.932,1.094,1.863,1.618,2.833a5.516,5.516,0,0,0-1.171,1.76,15.318,15.318,0,0,1-3.36-3.957,2.816,2.816,0,0,1-.344-.763A2.162,2.162,0,0,1,806.024,284.512Z" transform="translate(-800.51 -277.465)" fill="#f7bd9e"/>
              <path id="Path_2465" data-name="Path 2465" d="M807.8,287.341c-.143-.241-1.359-1.822-1.424-2.095a2.156,2.156,0,0,1-.116-.462,1.127,1.127,0,0,1,.791-1.125,1.659,1.659,0,0,1,1.57.373" transform="translate(-800.614 -277.584)" fill="#f7bd9e" stroke="#dda486" stroke-miterlimit="10" stroke-width="0.5"/>
              <path id="Path_2466" data-name="Path 2466" d="M807.574,285.927c1.458.765,1.391,2.837,1.2,4.472a9.926,9.926,0,0,1-1.164,4.309,13.361,13.361,0,0,0-1.954,4.5,12.979,12.979,0,0,0,.53,5.03q4.551,18.914,9.1,37.828a37.483,37.483,0,0,1,1.351,8.324,12.6,12.6,0,0,1-2.374,7.943,7.665,7.665,0,0,1-7.445,2.955c-2.477-.567-4.369-2.579-5.731-4.724-3.719-5.856-4.539-13.065-4.766-20a145.637,145.637,0,0,1,1.864-28.446c1.043-6.326,2.478-12.99.321-18.506a4.044,4.044,0,0,1-.116-1.2,1.368,1.368,0,0,1,.563-1.024,1.384,1.384,0,0,1,1.641.293,3.937,3.937,0,0,1,.848,1.569,4.269,4.269,0,0,0,.933,1.519" transform="translate(-796.249 -278.604)" fill="#f7bd9e"/>
              <path id="Path_2467" data-name="Path 2467" d="M809.379,279.352a26.569,26.569,0,0,1-1.026-5.821.627.627,0,0,1,.22-.533c.217-.153.576.041.752.239a10.131,10.131,0,0,1,1.708,3.84c.419,1.348.631,2.423,1.818,3.189l0,.062s-.012-.017-.038,0a2.522,2.522,0,0,1-1.172,1.623.719.719,0,0,1-.351.121.683.683,0,0,1-.33-.1,1.784,1.784,0,0,1-.535-.46,3.591,3.591,0,0,1-.4-.709A10.552,10.552,0,0,1,809.379,279.352Z" transform="translate(-801.526 -272.943)" fill="#f7bd9e"/>
              <path id="Path_2468" data-name="Path 2468" d="M804.219,289.38c-.142-.241-1.359-1.822-1.424-2.095a2.155,2.155,0,0,1-.115-.462,1.126,1.126,0,0,1,.791-1.125,1.163,1.163,0,0,1,1.3.278" transform="translate(-799.052 -278.464)" fill="#f7bd9e" stroke="#dda486" stroke-miterlimit="10" stroke-width="0.5"/>
            </g>
            <path id="Path_2469" data-name="Path 2469" d="M889.045,374.114l-18.429,39.207.213-9.545Z" transform="translate(-819.629 -286.986)" fill="#edebeb"/>
            <path id="Path_2470" data-name="Path 2470" d="M985.046,436.748,966.469,447.41l1.376,17.9s24.125-7.38,32.121-17.975" transform="translate(-851.894 -301.094)" fill="#f7bd9e"/>
            <path id="Path_2471" data-name="Path 2471" d="M940.551,309.685c11.72,3.385,23.775,8.834,32.134,17.718a86.356,86.356,0,0,1,18.658,31.792c4.911,14.028,7.563,30.075,1.793,43.832a3.019,3.019,0,0,1-3.365,1.783c-6.484-1.29-12.74-5.764-16.817-14.121l-6.245-32.628" transform="translate(-843.186 -258.404)" fill="#fff"/>
            <g id="Group_4221" data-name="Group 4221" transform="translate(57.767 125.964)">
              <path id="Path_2472" data-name="Path 2472" d="M888.089,463.537l-7.171-39.554h79.339l-7.171,39.785Z" transform="translate(-880.919 -422.769)" fill="#4f5055"/>
              <path id="Path_2473" data-name="Path 2473" d="M880.919,423.369l1.9-1.1,75.753-.116,1.827,1.214Z" transform="translate(-880.919 -422.155)" fill="#030303"/>
              <circle id="Ellipse_370" data-name="Ellipse 370" cx="2.313" cy="2.313" r="2.313" transform="translate(37.426 19.305)" fill="none"/>
              <circle id="Ellipse_371" data-name="Ellipse 371" cx="2.476" cy="2.476" r="2.476" transform="translate(37.426 19.305)" fill="#fef5f4"/>
            </g>
          </g>
          <path id="Path_2474" data-name="Path 2474" d="M920.218,310.374s6.744,7.322,13.5-.689c0,0-3.361,4.43-6.818,4.382A8.835,8.835,0,0,1,920.218,310.374Z" transform="translate(-684.86 -102.404)" fill="#dba284"/>
          <path id="Path_2489" data-name="Path 2489" d="M1006.293,456.335l.255,1.745a58.177,58.177,0,0,1-14.825,8.664l.193-1.091A54.913,54.913,0,0,0,1006.293,456.335Z" transform="translate(-708.884 -151.675)" fill="#e0dddc"/>
          <path id="Path_2491" data-name="Path 2491" d="M940.715,309.7" transform="translate(-691.747 -102.41)" fill="none" stroke="#fcfcfc" stroke-miterlimit="10" stroke-width="1"/>
          <path id="Path_2492" data-name="Path 2492" d="M920.218,310.723" transform="translate(-684.86 -102.753)" fill="none" stroke="#fcfcfc" stroke-miterlimit="10" stroke-width="1"/>
          <path id="Path_2493" data-name="Path 2493" d="M932.432,524.525,918.56,568.477l-82.141-47.1" transform="translate(-656.706 -173.525)" fill="none" stroke="#5063a3" stroke-miterlimit="10" stroke-width="1"/>
        </g>
        <g id="Group_4228" data-name="Group 4228" transform="translate(-2044.717 -3931.434)">
          <g id="Group_3896_00000155834495880407695460000010482248490364288641_" transform="translate(2116.717 4008.374)">
            <path id="Rectangle_2060_00000001654200698269020800000004406352293639699894_" d="M1372.53,668.6h50.412a10.3,10.3,0,0,1,10.329,10.329V803.892a10.3,10.3,0,0,1-10.329,10.329H1372.53a10.3,10.3,0,0,1-10.329-10.329V678.929A10.232,10.232,0,0,1,1372.53,668.6Z" transform="translate(-1361.414 -668.6)" fill="#50567c"/>
            <path id="Rectangle_2059_00000139981978345014656850000016827543867582492602_" d="M1373.729,669.8h47.6a10.3,10.3,0,0,1,10.329,10.329V802.285a10.3,10.3,0,0,1-10.329,10.329h-47.6a10.3,10.3,0,0,1-10.329-10.329V680.129A10.3,10.3,0,0,1,1373.729,669.8Z" transform="translate(-1361.267 -668.453)" fill="#2e3353"/>
            <path id="Rectangle_2057_00000110450121287530097230000010500935491802461833_" d="M1373.508,671.6h47.6a8.29,8.29,0,0,1,8.308,8.308V802.064a8.29,8.29,0,0,1-8.308,8.308h-47.6a8.29,8.29,0,0,1-8.308-8.308V679.908A8.29,8.29,0,0,1,1373.508,671.6Z" transform="translate(-1361.046 -668.232)" fill="#fff"/>
            <path id="Rectangle_2058_00000017486504205712552600000010593876799233581724_" d="M1388.307,674.7h13.136a2.78,2.78,0,0,1,2.807,2.807h0a2.78,2.78,0,0,1-2.807,2.807h-13.136a2.78,2.78,0,0,1-2.807-2.807h0A2.78,2.78,0,0,1,1388.307,674.7Z" transform="translate(-1358.554 -667.851)" fill="#50567c"/>
            <path id="Rectangle_2061_00000039122430095865972050000005511652360971192487_" d="M1425.473,711h0a.724.724,0,0,1,.674.674v14.484a.724.724,0,0,1-.674.674h0a.724.724,0,0,1-.673-.674V711.674A.724.724,0,0,1,1425.473,711Z" transform="translate(-1353.729 -663.395)" fill="#2e3353"/>
            <path id="Rectangle_2062_00000103954994898426477630000008162266470475689868_" d="M1362.174,699.9h0a.724.724,0,0,1,.674.674V710.9a.725.725,0,0,1-.674.674h0a.724.724,0,0,1-.674-.674V700.574A.724.724,0,0,1,1362.174,699.9Z" transform="translate(-1361.5 -664.758)" fill="#2e3353"/>
            <path id="Rectangle_2064_00000124120905039372996560000006128255414558400896_" d="M1362.174,691.3h0a.724.724,0,0,1,.674.674v5.5a.725.725,0,0,1-.674.674h0a.724.724,0,0,1-.674-.674v-5.5A.724.724,0,0,1,1362.174,691.3Z" transform="translate(-1361.5 -665.813)" fill="#2e3353"/>
            <path id="Rectangle_2063_00000078046372248829849380000001587501843637521085_" d="M1362.174,714.1h0a.724.724,0,0,1,.674.674V725.1a.725.725,0,0,1-.674.674h0a.724.724,0,0,1-.674-.674V714.774A.647.647,0,0,1,1362.174,714.1Z" transform="translate(-1361.5 -663.015)" fill="#2e3353"/>
          </g>
        </g>
        <g id="Group_4231" data-name="Group 4231">
          <rect id="Rectangle_1054" data-name="Rectangle 1054" width="54.207" height="10.168" rx="2" transform="translate(81 146.11)" fill="#f4fbff"/>
          <rect id="Rectangle_1054-2" data-name="Rectangle 1054" width="54.207" height="10.168" rx="2" transform="translate(81 159.26)" fill="#f4fbff"/>
          <rect id="Rectangle_1054-3" data-name="Rectangle 1054" width="54.207" height="10.168" rx="2" transform="translate(81 172.409)" fill="#a1c7e9"/>
          <path id="Subtraction_24" data-name="Subtraction 24" d="M20.3,19.635h0a9.358,9.358,0,0,0-7.9-4.307H11.021a9.362,9.362,0,0,0-7.9,4.307A11.7,11.7,0,0,1,19.994,3.423,11.672,11.672,0,0,1,20.3,19.634ZM11.713,4.595a4.7,4.7,0,1,0,4.705,4.7A4.706,4.706,0,0,0,11.713,4.595Z" transform="translate(97 106.575)" fill="#a1c7e9"/>
        </g>
        <g id="Group_4402" data-name="Group 4402">
          <g id="Group_3017" data-name="Group 3017" transform="translate(21 40)">
            <g id="Group_3011" data-name="Group 3011">
              <path id="Union_40" data-name="Union 40" d="M76.657,30.044H43.3V0H164.354a4.418,4.418,0,0,1,4.418,4.418V25.626a4.418,4.418,0,0,1-4.418,4.418h-87.7ZM5,30.044a5,5,0,0,1-5-5V5A5,5,0,0,1,5,0H43.3V30.044Z" fill="#d9ecf7"/>
            </g>
          </g>
          <g id="Group_4401" data-name="Group 4401" transform="translate(5)">
            <path id="Path_2998" data-name="Path 2998" d="M2195.547,3584h1.1v3.6l3.3-1.219.294,1.219-3.351.944,2.387,2.963-1.007.6-2.159-3.026-2.058,3.193-.991-.767,2.285-3.04-3.328-1.031.33-1.056,3.2,1.219Z" transform="translate(-2095.741 -3533.117)" fill="#bdd4e2"/>
            <path id="Path_2999" data-name="Path 2999" d="M2195.547,3584h1.1v3.6l3.3-1.219.294,1.219-3.351.944,2.387,2.963-1.007.6-2.159-3.026-2.058,3.193-.991-.767,2.285-3.04-3.328-1.031.33-1.056,3.2,1.219Z" transform="translate(-2076.816 -3533.117)" fill="#bdd4e2"/>
            <path id="Path_3000" data-name="Path 3000" d="M2195.547,3584h1.1v3.6l3.3-1.219.294,1.219-3.351.944,2.387,2.963-1.007.6-2.159-3.026-2.058,3.193-.991-.767,2.285-3.04-3.328-1.031.33-1.056,3.2,1.219Z" transform="translate(-2057.891 -3533.117)" fill="#bdd4e2"/>
            <path id="Path_3004" data-name="Path 3004" d="M2195.547,3584h1.1v3.6l3.3-1.219.294,1.219-3.351.944,2.387,2.963-1.007.6-2.159-3.026-2.058,3.193-.991-.767,2.285-3.04-3.328-1.031.33-1.056,3.2,1.219Z" transform="translate(-2038.965 -3533.117)" fill="#bdd4e2"/>
            <path id="Path_3001" data-name="Path 3001" d="M2195.547,3584h1.1v3.6l3.3-1.219.294,1.219-3.351.944,2.387,2.963-1.007.6-2.159-3.026-2.058,3.193-.991-.767,2.285-3.04-3.328-1.031.33-1.056,3.2,1.219Z" transform="translate(-2114.667 -3533.117)" fill="#bdd4e2"/>
            <path id="Path_3002" data-name="Path 3002" d="M2195.547,3584h1.1v3.6l3.3-1.219.294,1.219-3.351.944,2.387,2.963-1.007.6-2.159-3.026-2.058,3.193-.991-.767,2.285-3.04-3.328-1.031.33-1.056,3.2,1.219Z" transform="translate(-2133.592 -3533.117)" fill="#bdd4e2"/>
            <path id="Path_3003" data-name="Path 3003" d="M2195.547,3584h1.1v3.6l3.3-1.219.294,1.219-3.351.944,2.387,2.963-1.007.6-2.159-3.026-2.058,3.193-.991-.767,2.285-3.04-3.328-1.031.33-1.056,3.2,1.219Z" transform="translate(-2152.517 -3533.117)" fill="#bdd4e2"/>
          </g>
        </g>
      </g>
    </g>
  </g>
</svg>
