<svg xmlns="http://www.w3.org/2000/svg" xmlns:xlink="http://www.w3.org/1999/xlink" width="350" height="350" viewBox="0 0 350 350">
  <defs>
    <clipPath id="clip-path">
      <rect id="Rectangle_167" data-name="Rectangle 167" width="108.249" height="135.032" fill="#69bf6d"/>
    </clipPath>
    <clipPath id="clip-VerifyAccount">
      <rect width="350" height="350"/>
    </clipPath>
  </defs>
  <g id="VerifyAccount" clip-path="url(#clip-VerifyAccount)">
    <rect width="350" height="350" fill="#fff"/>
    <g id="Group_3019" data-name="Group 3019" transform="translate(-840.437 -134)">
      <rect id="Rectangle_1076" data-name="Rectangle 1076" width="350" height="350" transform="translate(840.447 134)" fill="#fff"/>
    </g>
    <g id="Group_3090" data-name="Group 3090" transform="translate(-840 -123)">
      <g id="Group_524" data-name="Group 524" transform="translate(859.165 300.469)">
        <g id="Group_523" data-name="Group 523" transform="translate(0)" clip-path="url(#clip-path)">
          <path id="Path_513" data-name="Path 513" d="M202.175,124.7c-7.324,6.687-4.14,13.375,1.274,25.794s6.369,58.276,6.369,58.276l-4.459-.637S206,161,199.945,148.263s-8.6-19.107-14.012-14.967,16.241-8.6,16.241-8.6" transform="translate(-145.09 -95.373)" fill="#40a148"/>
          <path id="Path_514" data-name="Path 514" d="M259.882,20.667c-.89-3.963-6.172-8.252-13.236-11.889,1.05,5.846,4.418,15.4.932,17.363-4.7,2.644-.458-10.7-2.272-18.034A87.262,87.262,0,0,0,223.348.9c.011.027.019.053.03.081,4.14,10.509,9.553,14.648,7.324,16.241-1.677,1.2-7.139-10.941-14.352-17.164-5.414-.289-9.995.446-12.7,2.591-4.188,3.315-7,6.257-2.787,16.353A18.926,18.926,0,0,0,210,22.319c9.553.955,14.012,1.274,7.324,4.458-3.275,1.559-8.764-.088-13.214-1.091,1.444,2.66,3.218,5.671,5.375,9.1a33.815,33.815,0,0,0,4.476,5.7c3.079.59,5.763.6,7.185-.012,4.458-1.911,15.922-7.961,18.788-5.414,2.805,2.494-21.232,4.073-19.566,10.409,11.651,6.713,24.982,3.519,27.339-2.645,3.165-8.277,14.851-10.225,12.173-22.154" transform="translate(-198.774 0)" fill="#69bf6d"/>
          <path id="Path_515" data-name="Path 515" d="M149.6,267.169c12.738-9.554,25.794-.637,32.482,9.553s1.911,33.118,1.911,33.118-2.548,0-2.548-.955,7.006-27.068-9.553-38.851c-10.359-7.371-17.833-3.821-18.788-.318s4.14,9.872,4.14,9.872Z" transform="translate(-112.578 -201.223)" fill="#40a148"/>
          <path id="Path_516" data-name="Path 516" d="M190.456,196.917c-12.738,0-16.878,19.744-13.375,31.208s8.28,32.8,8.28,32.8l3.184-3.185s-12.1-29.934-9.235-43.309,9.872-15.6,11.146-15.6,0-1.911,0-1.911" transform="translate(-124.136 -150.609)" fill="#69bf6d"/>
          <path id="Path_517" data-name="Path 517" d="M213.485,320.837a9.227,9.227,0,0,0-3.353-2.818,25.176,25.176,0,0,0,.662,2.729c1.6,5.223,3.456,12.5,5.009,18.865l.694-4.012c.079-.458.141-.955.185-1.482a123.477,123.477,0,0,1-3.2-13.283" transform="translate(-157.849 -243.232)" fill="#74b570"/>
          <path id="Path_518" data-name="Path 518" d="M257.208,272.012c-24.2-10.19-11.451-24.174-32.787-14.939a15.832,15.832,0,0,0-5.168,4.553,15.887,15.887,0,0,0,6.76.543c6.369-.955,4.14,4.14-6.369,5.414a23.619,23.619,0,0,0-4.925,1.039c-5.006,9.616-7.263,22.268,3.332,26.666a23.994,23.994,0,0,0,7.541,1.547c3.269-2.6-.8-17.634,4.242-15.559,4.839,1.993-1.517,12.89-.646,15.635a69.8,69.8,0,0,0,15.118-2.119,7.526,7.526,0,0,0,4-4.6c1.592-6.687-8.917-10.827-9.235-16.559-.293-5.269,3.852,11.593,14.832,14.074,9.928-4.637,14.62-10.931,3.307-15.695" transform="translate(-205.054 -194.311)" fill="#69bf6d"/>
          <path id="Path_519" data-name="Path 519" d="M10.679,178.71c-2.548-5.414,4.14-6.687,3.821-2.548-.282,3.668-.313,12.585,3.449,15.013a59.032,59.032,0,0,0,21.989-7.3,2.7,2.7,0,0,0-.281-1.66c-2.866-5.732-21.336-10.509-15.6-12.42,4.565-1.522,12.564,7.46,19.01,11.984,3.872-2.937,6.465-6.439,6.465-10.348,0-5.29-6.428-11.279-14.741-14.141-3.741.377-7.217,2.423-12.645,5.5-8.019,4.544-6.165-2.8,1.417-7.163A22.837,22.837,0,0,0,5.676,165.44s.455,2.856-2.567,7.273c-8.246,12.051,1.27,19.086,12.645,18.629-.643-3.176-3.315-8.893-5.076-12.633" transform="translate(58.719 -119.027)" fill="#69bf6d"/>
          <path id="Path_520" data-name="Path 520" d="M316.074,277.864c-6.227,4.812-13.145,10.439-21.638,14.26s-6.794,16.277-6.794,16.277-1.274-10.757,5.8-14.437,11.748-8.068,17.126-8.917a77.885,77.885,0,0,0,8.351-1.7s-1.7-3.4-.708-4.671-2.141-.814-2.141-.814" transform="translate(-278.285 -212.458)" fill="#40a148"/>
          <path id="Path_521" data-name="Path 521" d="M235.744,37.832c22.788,6.086,39.49,20.664,42.6,24.2s3.114,4.529,3.114,4.529l-2.406,4.529-1.132-.566s1.84-3.822-2.972-8.775c-8.3-8.543-18.4-15.286-25.336-18.259s-13.871-5.661-13.871-5.661" transform="translate(-228.651 -28.935)" fill="#40a148"/>
          <path id="Path_522" data-name="Path 522" d="M134.919,472.684h-8.706A11.21,11.21,0,0,1,115,461.474v-20h31.125v20a11.21,11.21,0,0,1-11.209,11.209" transform="translate(-64.924 -337.652)" fill="#f6bc1a"/>
          <rect id="Rectangle_165" data-name="Rectangle 165" width="31.125" height="2.191" transform="translate(50.079 107.395)" fill="#fbd805"/>
        </g>
      </g>
      <rect id="Rectangle_216" data-name="Rectangle 216" width="155.267" height="225.138" rx="5" transform="translate(904.858 160)" fill="#fff" opacity="0.8"/>
      <g id="Group_549" data-name="Group 549" transform="translate(908.922 163.662)">
        <g id="Group_548" data-name="Group 548">
          <rect id="Rectangle_128" data-name="Rectangle 128" width="147.287" height="216.707" rx="5" fill="#b9e6ff"/>
          <rect id="Rectangle_129" data-name="Rectangle 129" width="110.167" height="18.56" rx="2" transform="translate(18.56 113.653)" fill="#fff"/>
          <rect id="Rectangle_130" data-name="Rectangle 130" width="110.167" height="18.56" rx="2" transform="translate(18.56 142.05)" fill="#fff"/>
          <rect id="Rectangle_131" data-name="Rectangle 131" width="50.111" height="18.56" rx="2" transform="translate(18.56 180.055)" fill="#3689e3"/>
        </g>
        <g id="Group_547" data-name="Group 547" transform="translate(32.288 19.255)">
          <circle id="Ellipse_179" data-name="Ellipse 179" cx="38.437" cy="38.437" r="38.437" transform="translate(3.844 3.844)" fill="#b9e6ff"/>
          <g id="icons_Q2" data-name="icons Q2" transform="translate(0 0)">
            <g id="Group_546" data-name="Group 546" transform="translate(0 0)">
              <path id="Path_597" data-name="Path 597" d="M31.375,10A15.375,15.375,0,1,0,46.749,25.375,15.375,15.375,0,0,0,31.375,10Z" transform="translate(10.906 5.375)" fill="#90c8eb"/>
              <path id="Path_598" data-name="Path 598" d="M44.28,2A42.088,42.088,0,1,0,74.234,14.327,42.28,42.28,0,0,0,44.28,2ZM72.915,63.691h0A59,59,0,0,0,44.28,55.811a59,59,0,0,0-28.635,7.879h0A34.016,34.016,0,0,1,9.687,44.28a34.593,34.593,0,0,1,69.186,0,34.016,34.016,0,0,1-5.958,19.41Z" transform="translate(-2 -2)" fill="#90c8eb"/>
            </g>
          </g>
        </g>
        <g id="Group_545" data-name="Group 545" transform="translate(96.298 26.194)">
          <circle id="Ellipse_177" data-name="Ellipse 177" cx="14.689" cy="14.689" r="14.689" fill="#ed473f"/>
          <g id="Icons" transform="translate(8.449 6.845)">
            <g id="Group_544" data-name="Group 544" transform="translate(0 0)">
              <path id="Path_596" data-name="Path 596" d="M18.9,6a6.076,6.076,0,0,0-4.5,1.79,5.968,5.968,0,0,0-1.9,4.449,1.356,1.356,0,1,0,2.713,0A3.526,3.526,0,0,1,16.3,9.687a3.364,3.364,0,0,1,2.55-.977,3.526,3.526,0,0,1,.543,7A2.387,2.387,0,0,0,17.382,18.1v1.736a1.356,1.356,0,1,0,2.713,0V18.313a6.293,6.293,0,0,0,4.883-6.239A6.348,6.348,0,0,0,18.9,6Z" transform="translate(-12.499 -5.994)" fill="#ffe9e8"/>
              <circle id="Ellipse_178" data-name="Ellipse 178" cx="1.356" cy="1.356" r="1.356" transform="translate(4.883 16.822)" fill="#ffe9e8"/>
            </g>
          </g>
        </g>
      </g>
      <path id="Path_559" data-name="Path 559" d="M819.834,887.476l-.107,0a1.446,1.446,0,0,1-1.462-1.547l5.81-58.03,5.07.452L820.8,886.692a.944.944,0,0,1-.969.784" transform="translate(276.531 -451.02)" fill="#acc7eb"/>
      <path id="Path_560" data-name="Path 560" d="M1207.657,887.476l.107,0a1.446,1.446,0,0,0,1.462-1.547l-5.811-58.03-5.07.452,8.343,58.342a.944.944,0,0,0,.969.784" transform="translate(-55.341 -451.02)" fill="#c8dbf4"/>
      <path id="Path_561" data-name="Path 561" d="M496.666,887.476l-.107,0a1.446,1.446,0,0,1-1.462-1.547l5.81-58.03,5.07.452-8.344,58.342a.944.944,0,0,1-.969.784" transform="translate(558.706 -451.02)" fill="#bad4f4"/>
      <path id="Path_562" data-name="Path 562" d="M905.591,321.011,915.9,270.076c1.324-6.9-4.391-13.2-11.81-13.032L884.2,257.5a15.713,15.713,0,0,0-14.736,11.343l-15.09,52.17Z" transform="translate(244.994 47.425)" fill="#bad4f4"/>
      <path id="Path_563" data-name="Path 563" d="M856.4,321.011l10.314-50.935c1.324-6.9-4.391-13.2-11.81-13.032l-19.892.454a15.713,15.713,0,0,0-14.736,11.343l-15.09,52.17Z" transform="translate(287.946 47.425)" fill="#acc7eb"/>
      <path id="Path_564" data-name="Path 564" d="M673.941,770.641h-78.7a2.883,2.883,0,0,1-2.875-2.875v-3.54a2.883,2.883,0,0,1,2.875-2.875h81.574v6.415a2.883,2.883,0,0,1-2.875,2.875" transform="translate(473.77 -392.915)" fill="#c8dbf4"/>
      <path id="Path_565" data-name="Path 565" d="M583.028,770.641H532.859a2.323,2.323,0,0,1-2.316-2.316v-4.658a2.322,2.322,0,0,1,2.316-2.316h50.169a2.322,2.322,0,0,1,2.316,2.316v4.658a2.323,2.323,0,0,1-2.316,2.316" transform="translate(527.751 -392.915)" fill="#acc7eb"/>
      <path id="Path_566" data-name="Path 566" d="M306.19,493.331h23.3a1.858,1.858,0,0,0-1.858-1.858H306.19Z" transform="translate(723.646 -157.27)" fill="#2c70ab"/>
      <path id="Path_567" data-name="Path 567" d="M58.714,306.039H22.686l8.642,25.38H67.59Z" transform="translate(971.188 4.642)" fill="#2c70ab"/>
      <path id="Path_568" data-name="Path 568" d="M18.5,306.035l8.642,25.38H63.408l-8.876-25.38Z" transform="translate(974.84 4.646)" fill="#90c8eb"/>
      <path id="Path_569" data-name="Path 569" d="M171.315,392.142a2.343,2.343,0,0,0,2.161,1.756,1.352,1.352,0,0,0,1.351-1.756,2.343,2.343,0,0,0-2.161-1.756,1.352,1.352,0,0,0-1.35,1.756" transform="translate(841.452 -69.006)" fill="#fff"/>
      <path id="Path_570" data-name="Path 570" d="M2.174,511.828H123.428a2.174,2.174,0,0,0,2.174-2.174v-1.362a2.174,2.174,0,0,0-2.174-2.174H2.174A2.174,2.174,0,0,0,0,508.292v1.362a2.174,2.174,0,0,0,2.174,2.174" transform="translate(990.996 -170.058)" fill="#2a6ca8"/>
      <path id="Path_571" data-name="Path 571" d="M19.863,625.536l-.068-.008a1.45,1.45,0,0,1-1.279-1.612l12.318-95.29,6.9.2L21.182,624.578a1.184,1.184,0,0,1-1.319.958" transform="translate(974.84 -189.71)" fill="#2a6ca8"/>
      <path id="Path_572" data-name="Path 572" d="M853.554,625.536l.068-.008a1.45,1.45,0,0,0,1.279-1.612l-12.318-95.29-6.9.2,16.554,95.755a1.184,1.184,0,0,0,1.319.958" transform="translate(261.32 -189.71)" fill="#2a6ca8"/>
      <path id="Path_573" data-name="Path 573" d="M617.957,44.419c-1.109-.908,17.927-17.355,23.109-5.917,0,0,12.41-9.561.982-15.158-6.433-3.151-7.356-9.779-8.883-13.68S623.929-4.877,615.026,2.6c0,0-4.519.8-6.952,3.774-5.534,6.762-15.636,48.772,6.952,38.784" transform="translate(467.346 271.86)" fill="#163560"/>
      <path id="Path_574" data-name="Path 574" d="M643.6,224.754A79.433,79.433,0,0,1,633.5,238.581c-3.112,3.312-3.941,6.287-7.625,7.574-1.8.628-5.451,2.488-19.856,2.234-1.15-.2.517-3.374.517-3.374l15-2.453s4.321-8.848,4.942-8.758l5.507-13.935Z" transform="translate(452.196 87.767)" fill="#dba681"/>
      <path id="Path_575" data-name="Path 575" d="M552.2,591.945s-41.843-.666-47.425,2.885,5.58,60.249,5.58,60.249,10.822.345,11.683-2.519c0,0-1.947-26.568-.243-31.157s.653-10.95.653-10.95,21.167,3.229,27.888,1.64,1.864-20.149,1.864-20.149" transform="translate(551.613 -244.955)" fill="#0f72ae"/>
      <path id="Path_576" data-name="Path 576" d="M574.081,1032.234s2.382,6.377,1.876,8.742.31,6.951-.658,9-2.7,5.031-1.038,5.786c.629.286,7.957-5.4,8.376-7.074s.747-6.625,2.149-9.311a3.991,3.991,0,0,0-1.8-5.84c-2.027-.988-4.852-6.4-4.852-6.4Z" transform="translate(490.182 -624.991)" fill="#7293c4"/>
      <path id="Path_577" data-name="Path 577" d="M417.2,1136.514s-2.295,6.409-4.207,7.89-4.248,5.511-6.311,6.453-5.307,2.1-4.526,3.751c.3.625,9.561,1.01,10.964,0s4.845-4.58,7.649-5.727a3.991,3.991,0,0,0,2.392-5.623c-.912-2.063.42-8.018.42-8.018Z" transform="translate(639.957 -719.376)" fill="#7293c4"/>
      <path id="Path_578" data-name="Path 578" d="M577.708,580.542s-49.655,7.77-53.48,12.189S505.25,654.7,505.25,654.7s4.421,2.48,8.452.185c0,0,11.536-19.506,16.632-25.625s7.051-25.051,7.891-25.242,27.56,3.227,37.4-3.288c5.8-3.839,2.078-20.19,2.078-20.19" transform="translate(549.836 -235.041)" fill="#1898d5"/>
      <path id="Path_579" data-name="Path 579" d="M722.962,232.354c-2.93-2.206-11.748-4.642-17.264-2.16-2.612,1.175-6.575,2.716-8.946,5.662-2.56,3.18-6.64,15.479-6.64,15.479.827,4.837,6.6,4.815,6.6,4.815-2.637,9.972,9.788,7.367,8.985,12.9-1.4,9.65,7.626,14.717,12.546,16.966,6.438,2.944,24.534,6.654,24.553,0,.089-30.308-11.41-47.317-19.835-53.659" transform="translate(387.435 71.779)" fill="#fff"/>
      <path id="Path_580" data-name="Path 580" d="M791.428,339.177s-4.284,19.858-12.521,24.933l-5.463-3.85,7.138-9.5Z" transform="translate(317.967 -24.293)" fill="#ebf3fa"/>
      <path id="Path_581" data-name="Path 581" d="M3.306.414A42.684,42.684,0,0,0,.13,4.607c-.474.975.413,5.173,1.514,5.146.695-.017,1.55-2.56,2.309-3.485S8.018,4.028,6.62.143C6.463-.3,3.306.414,3.306.414" transform="matrix(0.656, 0.755, -0.755, 0.656, 1056.482, 328.76)" fill="#dba681"/>
      <path id="Path_582" data-name="Path 582" d="M741.474,173.747c-.762,1.144.168,4.348,4.488,3.351,2.836-.655,8.363-5.255,7.365-7.6-.474-1.116-3.193-3.735-4.9-10.547l-.495.235-8.317,3.966s.9,2.706,1.569,5.3c.562,2.179.607,4.823.292,5.3" transform="translate(345.201 133.075)" fill="#f8be95"/>
      <path id="Path_583" data-name="Path 583" d="M739.613,164.77s.9,2.706,1.569,5.3c4.866-1.387,6.318-6.518,6.748-9.267Z" transform="translate(345.201 131.454)" fill="#dba681"/>
      <path id="Path_584" data-name="Path 584" d="M689.677,72.468s11.659,2.838,13.232-4.808,4.137-12.429-3.241-14.565-9.429.453-10.546,2.872-2.438,15.565.554,16.5" transform="translate(391.333 360.185) rotate(-11)" fill="#f8be95"/>
      <path id="Path_585" data-name="Path 585" d="M739.338,41.73s.074,8.386,6.249,12.457c3.613,2.382,3.783,4.819,3.783,4.819a69.607,69.607,0,0,0,2.48-12.573s-9.222-8.253-12.512-4.7" transform="translate(345.441 236.199)" fill="#163560"/>
      <path id="Path_586" data-name="Path 586" d="M692.592,43.055a20.223,20.223,0,0,0-4.979,2.415c-2.27,1.879-2.862,7.989-2.591,9.51,0,0-.618-10.62,2.8-13.325,3.625-2.869,4.771,1.4,4.771,1.4" transform="translate(392.921 236.355)" fill="#163560"/>
      <path id="Path_587" data-name="Path 587" d="M794.1,265.162a60.893,60.893,0,0,1-4.016,7.9c-5.564,9.2-12.368,14.757-14.825,12.167-.68-.717-2.4-1.758-.6-5.609,1.385-2.975,3.1-6.7,4.784-10.359,3.47-7.551,6.8-14.852,6.8-14.852,1.059,0,12.207.388,7.86,10.753" transform="translate(315.293 49.723)" fill="#f8be95"/>
      <path id="Path_588" data-name="Path 588" d="M636.816,432.216c-.381-.228-21.36,4.867-27.857,6.452l-1.9.464v2.448s21.707,1.019,25.1-.538a24.713,24.713,0,0,0,6.627-5.18Z" transform="translate(460.938 -105.523)" fill="#f8be95"/>
      <path id="Path_589" data-name="Path 589" d="M832.49,265.162a60.892,60.892,0,0,1-4.016,7.9,30.933,30.933,0,0,1-10.643-3.8c3.47-7.551,6.8-14.852,6.8-14.852,1.059,0,12.207.388,7.86,10.753" transform="translate(276.904 49.723)" fill="#fff"/>
      <path id="Path_590" data-name="Path 590" d="M532.975,472.586s-6.91-1.985-8.833-1.437c-1.357.387-3.089,2.394-3.993,3.543a.508.508,0,0,0,.406.821,10.547,10.547,0,0,0,4.005-.6c.923-.485,2.3.584,3.83.59,1.176.005,2.688,0,2.688,0Z" transform="translate(536.922 -139.441)" fill="#f8be95"/>
      <rect id="Rectangle_185" data-name="Rectangle 185" width="170.094" height="164.596" transform="translate(990.996 271.861)" fill="none"/>
      <rect id="Rectangle_135" data-name="Rectangle 135" width="350" height="1.912" transform="translate(840 435.501)" fill="#dee5f0"/>
      <g id="Group_500" data-name="Group 500" transform="translate(1078.501 180.07)">
        <path id="Path_466" data-name="Path 466" d="M73.162,47.726A24.074,24.074,0,1,1,47.628,25.16,24.106,24.106,0,0,1,73.162,47.726" transform="translate(-21.02 -21.063)" fill="#e8f7ff"/>
        <rect id="Rectangle_139" data-name="Rectangle 139" width="8.875" height="0.683" transform="translate(2.225 27.699)" fill="#317cba"/>
        <rect id="Rectangle_140" data-name="Rectangle 140" width="8.875" height="0.683" transform="translate(45.186 27.699)" fill="#317cba"/>
        <rect id="Rectangle_141" data-name="Rectangle 141" width="0.682" height="8.893" transform="translate(27.737 2.412)" fill="#317cba"/>
        <rect id="Rectangle_142" data-name="Rectangle 142" width="0.682" height="8.893" transform="translate(27.737 45.29)" fill="#317cba"/>
        <path id="Path_467" data-name="Path 467" d="M171.28,170.9a.735.735,0,1,1-.735-.736.735.735,0,0,1,.735.736" transform="translate(-142.43 -142.726)" fill="#317cba"/>
        <path id="Path_468" data-name="Path 468" d="M103.992,104.538a.327.327,0,0,1-.232-.1l-13.2-13.228a.329.329,0,1,1,.464-.466l13.2,13.228a.329.329,0,0,1-.232.562" transform="translate(-75.877 -76.034)" fill="#317cba"/>
        <path id="Path_469" data-name="Path 469" d="M177.81,188.1a.238.238,0,0,1-.119-.139l-4.267-12.915a.239.239,0,1,1,.453-.15l4.267,12.915a.239.239,0,0,1-.334.289" transform="translate(-145.45 -146.556)" fill="#317cba"/>
        <path id="Path_470" data-name="Path 470" d="M28.115,0A28.174,28.174,0,1,0,56.231,28.174,28.145,28.145,0,0,0,28.115,0m1.508,52.251A24.124,24.124,0,1,1,52.142,26.663,24.091,24.091,0,0,1,29.623,52.251" transform="translate(0 0)" fill="#90c8eb"/>
      </g>
      <path id="Path_1563" data-name="Path 1563" d="M16202.916,3052.585l2.213,4.933-.821-9.292Z" transform="translate(-15116 -2729)" fill="#ebf3fa"/>
      <path id="Path_1564" data-name="Path 1564" d="M16216.234,3032.675c-1.686,2.832-1.561,5.554-7.232,8.26,2.611,1.38,3.255,1.654,3.255,1.654A11.317,11.317,0,0,0,16216.234,3032.675Z" transform="translate(-15116 -2729)" fill="#ebf3fa"/>
    </g>
  </g>
</svg>
