<svg xmlns="http://www.w3.org/2000/svg" xmlns:xlink="http://www.w3.org/1999/xlink" width="244" height="140" viewBox="0 0 244 140">
  <defs>
    <clipPath id="clip-path">
      <rect id="Rectangle_2102" data-name="Rectangle 2102" width="145.61" height="132" fill="#fff"/>
    </clipPath>
    <clipPath id="clip-path-2">
      <rect id="Rectangle_2548" data-name="Rectangle 2548" width="51" height="56" transform="translate(12543 -6647)" fill="#fff" stroke="#707070" stroke-width="1"/>
    </clipPath>
    <filter id="Ellipse_374">
      <feOffset dx="-9" input="SourceAlpha"/>
      <feGaussianBlur result="blur"/>
      <feFlood flood-color="#f5cccc" result="color"/>
      <feComposite operator="out" in="SourceGraphic" in2="blur"/>
      <feComposite operator="in" in="color"/>
      <feComposite operator="in" in2="SourceGraphic"/>
    </filter>
    <filter id="Ellipse_376">
      <feOffset dx="1" input="SourceAlpha"/>
      <feGaussianBlur result="blur-2"/>
      <feFlood flood-color="#fff" flood-opacity="0.502" result="color-2"/>
      <feComposite operator="out" in="SourceGraphic" in2="blur-2"/>
      <feComposite operator="in" in="color-2"/>
      <feComposite operator="in" in2="SourceGraphic"/>
    </filter>
    <filter id="Ellipse_377">
      <feOffset dx="-1" input="SourceAlpha"/>
      <feGaussianBlur result="blur-3"/>
      <feFlood flood-color="#a71313" result="color-3"/>
      <feComposite operator="out" in="SourceGraphic" in2="blur-3"/>
      <feComposite operator="in" in="color-3"/>
      <feComposite operator="in" in2="SourceGraphic"/>
    </filter>
    <filter id="Path_2585" x="31.816" y="99.104" width="8.293" height="22.318" filterUnits="userSpaceOnUse">
      <feOffset dx="-1" input="SourceAlpha"/>
      <feGaussianBlur result="blur-4"/>
      <feFlood flood-color="#b5443f" flood-opacity="0.149"/>
      <feComposite operator="in" in2="blur-4"/>
      <feComposite in="SourceGraphic"/>
    </filter>
    <filter id="Ellipse_378" x="34.302" y="122.89" width="5.111" height="4.431" filterUnits="userSpaceOnUse">
      <feOffset dx="-1" input="SourceAlpha"/>
      <feGaussianBlur result="blur-5"/>
      <feFlood flood-color="#b53f3f" flood-opacity="0.149"/>
      <feComposite operator="in" in2="blur-5"/>
      <feComposite in="SourceGraphic"/>
    </filter>
  </defs>
  <g id="Group_6328" data-name="Group 6328" transform="translate(-12534 6731)">
    <path id="Path_1557" data-name="Path 1557" d="M0,0H215V1H0Z" transform="translate(12543 -6592)" fill="#dee5f0"/>
    <path id="Path_611" data-name="Path 611" d="M228.231,105.666h-28.94a16.077,16.077,0,0,0,5.072-11.9V90.241c0-10.2,7.467-18.475,16.678-18.475,9.442,0,17.1-8.479,17.1-18.939s-7.654-18.939-17.1-18.939h-2.8c-9.211,0-16.678-8.272-16.678-18.475h0C201.562,6.9,195.331,0,187.645,0H78.9C70.346,0,63.41,7.679,63.41,17.156a17.51,17.51,0,0,0,8.026,15.038h-19.1A14.609,14.609,0,0,0,37.909,46.982,17.508,17.508,0,0,1,20.623,64.7h-2.9a18.172,18.172,0,0,0,0,36.332h0a17.508,17.508,0,0,1,17.286,17.721v3.378a14.609,14.609,0,0,0,14.425,14.788h67.121c.506.049,1.019.074,1.539.074h110.14a15.666,15.666,0,1,0,0-31.331" transform="translate(12534 -6728.997)" fill="#9bc1f9" opacity="0.102"/>
    <g id="Group_4300" data-name="Group 4300" transform="translate(12561.838 -6692.605)">
      <g id="Group_4297" data-name="Group 4297">
        <path id="Rectangle_2057_00000110450121287530097230000010500935491802461833_" d="M1369.69,671.6h25.73a4.481,4.481,0,0,1,4.491,4.491v66.025a4.481,4.481,0,0,1-4.491,4.491h-25.73a4.481,4.481,0,0,1-4.491-4.491V676.091A4.481,4.481,0,0,1,1369.69,671.6Z" transform="translate(-1365.2 -671.6)" fill="#fff"/>
        <g id="Group_4292" data-name="Group 4292" transform="translate(3.884 14.339)" opacity="0.3">
          <rect id="Rectangle_1054" data-name="Rectangle 1054" width="26.77" height="5.496" rx="2" transform="translate(0 21.369)" fill="#dbe0ff"/>
          <rect id="Rectangle_1054-2" data-name="Rectangle 1054" width="26.77" height="5.496" rx="2" transform="translate(0 28.476)" fill="#dbe0ff"/>
          <rect id="Rectangle_1054-3" data-name="Rectangle 1054" width="26.77" height="5.496" rx="2" transform="translate(0 35.583)" fill="#6176be"/>
          <path id="Subtraction_24" data-name="Subtraction 24" d="M1.688,10.614h0a6.325,6.325,0,1,1,10.974-4.3,6.291,6.291,0,0,1-1.687,4.295A5.066,5.066,0,0,0,6.7,8.284H5.957a5.061,5.061,0,0,0-4.269,2.328ZM6.331,2.483A2.538,2.538,0,1,0,8.874,5.021,2.544,2.544,0,0,0,6.331,2.483Z" transform="translate(7.383 0)" fill="#6176be"/>
        </g>
      </g>
      <g id="Group_4298" data-name="Group 4298" transform="translate(153.89)">
        <path id="Rectangle_2057_00000110450121287530097230000010500935491802461833_2" data-name="Rectangle_2057_00000110450121287530097230000010500935491802461833_" d="M1369.69,671.6h25.73a4.481,4.481,0,0,1,4.491,4.491v66.025a4.481,4.481,0,0,1-4.491,4.491h-25.73a4.481,4.481,0,0,1-4.491-4.491V676.091A4.481,4.481,0,0,1,1369.69,671.6Z" transform="translate(-1365.2 -671.6)" fill="#fff"/>
        <g id="Group_4292-2" data-name="Group 4292" transform="translate(3.884 14.339)" opacity="0.3">
          <rect id="Rectangle_1054-4" data-name="Rectangle 1054" width="26.77" height="5.496" rx="2" transform="translate(0 21.369)" fill="#dbe0ff"/>
          <rect id="Rectangle_1054-5" data-name="Rectangle 1054" width="26.77" height="5.496" rx="2" transform="translate(0 28.476)" fill="#dbe0ff"/>
          <rect id="Rectangle_1054-6" data-name="Rectangle 1054" width="26.77" height="5.496" rx="2" transform="translate(0 35.583)" fill="#6176be"/>
          <path id="Subtraction_24-2" data-name="Subtraction 24" d="M1.688,10.614h0a6.325,6.325,0,1,1,10.974-4.3,6.291,6.291,0,0,1-1.687,4.295A5.066,5.066,0,0,0,6.7,8.284H5.957a5.061,5.061,0,0,0-4.269,2.328ZM6.331,2.483A2.538,2.538,0,1,0,8.874,5.021,2.544,2.544,0,0,0,6.331,2.483Z" transform="translate(7.383 0)" fill="#6176be"/>
        </g>
      </g>
    </g>
    <g id="Group_4301" data-name="Group 4301" transform="translate(12579.203 -6700.016)">
      <g id="Group_4296" data-name="Group 4296">
        <path id="Rectangle_2057_00000110450121287530097230000010500935491802461833_3" data-name="Rectangle_2057_00000110450121287530097230000010500935491802461833_" d="M1370.569,671.6h30.762a5.357,5.357,0,0,1,5.369,5.369v78.937a5.357,5.357,0,0,1-5.369,5.369h-30.762a5.357,5.357,0,0,1-5.369-5.369V676.969A5.357,5.357,0,0,1,1370.569,671.6Z" transform="translate(-1365.2 -671.6)" fill="#fff"/>
        <g id="Group_4292-3" data-name="Group 4292" transform="translate(4.643 17.143)" opacity="0.6">
          <rect id="Rectangle_1054-7" data-name="Rectangle 1054" width="32.005" height="6.571" rx="2" transform="translate(0 25.548)" fill="#dbe0ff"/>
          <rect id="Rectangle_1054-8" data-name="Rectangle 1054" width="32.005" height="6.571" rx="2" transform="translate(0 34.045)" fill="#dbe0ff"/>
          <rect id="Rectangle_1054-9" data-name="Rectangle 1054" width="32.005" height="6.571" rx="2" transform="translate(0 42.542)" fill="#6176be"/>
          <path id="Subtraction_24-3" data-name="Subtraction 24" d="M2.018,12.689h0a7.562,7.562,0,1,1,13.12-5.135,7.52,7.52,0,0,1-2.018,5.135A6.054,6.054,0,0,0,8.015,9.9H7.122a6.051,6.051,0,0,0-5.1,2.783Zm5.55-9.72A3.034,3.034,0,1,0,10.609,6,3.04,3.04,0,0,0,7.568,2.969Z" transform="translate(8.827 0)" fill="#6176be"/>
        </g>
      </g>
      <g id="Group_4295" data-name="Group 4295" transform="translate(112.39)">
        <path id="Rectangle_2057_00000110450121287530097230000010500935491802461833_4" data-name="Rectangle_2057_00000110450121287530097230000010500935491802461833_" d="M1370.569,671.6h30.762a5.357,5.357,0,0,1,5.369,5.369v78.937a5.357,5.357,0,0,1-5.369,5.369h-30.762a5.357,5.357,0,0,1-5.369-5.369V676.969A5.357,5.357,0,0,1,1370.569,671.6Z" transform="translate(-1365.2 -671.6)" fill="#fff"/>
        <g id="Group_4292-4" data-name="Group 4292" transform="translate(4.643 17.143)" opacity="0.6">
          <rect id="Rectangle_1054-10" data-name="Rectangle 1054" width="32.005" height="6.571" rx="2" transform="translate(0 25.548)" fill="#dbe0ff"/>
          <rect id="Rectangle_1054-11" data-name="Rectangle 1054" width="32.005" height="6.571" rx="2" transform="translate(0 34.045)" fill="#dbe0ff"/>
          <rect id="Rectangle_1054-12" data-name="Rectangle 1054" width="32.005" height="6.571" rx="2" transform="translate(0 42.542)" fill="#6176be"/>
          <path id="Subtraction_24-4" data-name="Subtraction 24" d="M2.018,12.689h0a7.562,7.562,0,1,1,13.12-5.135,7.52,7.52,0,0,1-2.018,5.135A6.054,6.054,0,0,0,8.015,9.9H7.122a6.051,6.051,0,0,0-5.1,2.783Zm5.55-9.72A3.034,3.034,0,1,0,10.609,6,3.04,3.04,0,0,0,7.568,2.969Z" transform="translate(8.827 0)" fill="#6176be"/>
        </g>
      </g>
    </g>
    <g id="Group_4302" data-name="Group 4302" transform="translate(12599.961 -6708.877)">
      <g id="Group_4293" data-name="Group 4293">
        <path id="Rectangle_2057_00000110450121287530097230000010500935491802461833_5" data-name="Rectangle_2057_00000110450121287530097230000010500935491802461833_" d="M1371.635,671.6h36.872a6.421,6.421,0,0,1,6.435,6.435v94.616a6.421,6.421,0,0,1-6.435,6.435h-36.872a6.421,6.421,0,0,1-6.435-6.435V678.035A6.421,6.421,0,0,1,1371.635,671.6Z" transform="translate(-1365.2 -671.6)" fill="#fff"/>
        <g id="Group_4292-5" data-name="Group 4292" transform="translate(5.566 20.548)" opacity="0.8">
          <rect id="Rectangle_1054-13" data-name="Rectangle 1054" width="38.361" height="7.876" rx="2" transform="translate(0 30.622)" fill="#dbe0ff"/>
          <rect id="Rectangle_1054-14" data-name="Rectangle 1054" width="38.361" height="7.876" rx="2" transform="translate(0 40.807)" fill="#dbe0ff"/>
          <rect id="Rectangle_1054-15" data-name="Rectangle 1054" width="38.361" height="7.876" rx="2" transform="translate(0 50.991)" fill="#6176be"/>
          <path id="Subtraction_24-5" data-name="Subtraction 24" d="M15.723,15.209h0a7.246,7.246,0,0,0-6.115-3.336H8.536A7.252,7.252,0,0,0,2.42,15.207,9.062,9.062,0,1,1,18.143,9.053a9.014,9.014,0,0,1-2.419,6.155ZM9.072,3.559A3.637,3.637,0,1,0,12.716,7.2,3.645,3.645,0,0,0,9.072,3.559Z" transform="translate(10.58 0)" fill="#6176be"/>
        </g>
      </g>
      <g id="Group_4294" data-name="Group 4294" transform="translate(62.646)">
        <path id="Rectangle_2057_00000110450121287530097230000010500935491802461833_6" data-name="Rectangle_2057_00000110450121287530097230000010500935491802461833_" d="M1371.635,671.6h36.872a6.421,6.421,0,0,1,6.435,6.435v94.616a6.421,6.421,0,0,1-6.435,6.435h-36.872a6.421,6.421,0,0,1-6.435-6.435V678.035A6.421,6.421,0,0,1,1371.635,671.6Z" transform="translate(-1365.2 -671.6)" fill="#fff"/>
        <g id="Group_4292-6" data-name="Group 4292" transform="translate(5.566 20.548)" opacity="0.8">
          <rect id="Rectangle_1054-16" data-name="Rectangle 1054" width="38.361" height="7.876" rx="2" transform="translate(0 30.622)" fill="#dbe0ff"/>
          <rect id="Rectangle_1054-17" data-name="Rectangle 1054" width="38.361" height="7.876" rx="2" transform="translate(0 40.807)" fill="#dbe0ff"/>
          <rect id="Rectangle_1054-18" data-name="Rectangle 1054" width="38.361" height="7.876" rx="2" transform="translate(0 50.991)" fill="#6176be"/>
          <path id="Subtraction_24-6" data-name="Subtraction 24" d="M15.723,15.209h0a7.246,7.246,0,0,0-6.115-3.336H8.536A7.252,7.252,0,0,0,2.42,15.207,9.062,9.062,0,1,1,18.143,9.053a9.014,9.014,0,0,1-2.419,6.155ZM9.072,3.559A3.637,3.637,0,1,0,12.716,7.2,3.645,3.645,0,0,0,9.072,3.559Z" transform="translate(10.58 0)" fill="#6176be"/>
        </g>
      </g>
    </g>
    <g id="Mask_Group_36" data-name="Mask Group 36" transform="translate(12592 -6724)" clip-path="url(#clip-path)">
      <g id="Group_4311" data-name="Group 4311" transform="translate(10.424 4.371)">
        <g id="Group_4309" data-name="Group 4309" transform="matrix(0.966, 0.259, -0.259, 0.966, 15.055, 46.238)">
          <path id="Path_2586" data-name="Path 2586" d="M.817,4.725A9.629,9.629,0,0,1,4.871,1.04,8.243,8.243,0,0,1,8.43,0a6.681,6.681,0,0,1,5.59,3.141,9.351,9.351,0,0,1,1.206,6.433A6.478,6.478,0,0,1,13.85,12.9a6.171,6.171,0,0,1-4.582,1.845c-3.033.048-5.435-1.4-7.53-3.438A4.531,4.531,0,0,1,.153,9.134,6.173,6.173,0,0,1,.817,4.725" transform="translate(10.775 31.333)" fill="#f8be95"/>
          <path id="Path_2587" data-name="Path 2587" d="M4.012,14.675a9.758,9.758,0,0,0,6.183-1.591,9.722,9.722,0,0,0,3.836-5.093,6.692,6.692,0,0,0-.252-5.128A5.492,5.492,0,0,0,10.619.28,6.455,6.455,0,0,0,6.5.392,12.24,12.24,0,0,0,2.3,3.2,7.3,7.3,0,0,0,.033,7.433a7.585,7.585,0,0,0,.2,2.544A8.176,8.176,0,0,0,1.588,13.1a3.164,3.164,0,0,0,2.424,1.577" transform="translate(3.807 17.228)" fill="#f8be95"/>
          <path id="Path_2588" data-name="Path 2588" d="M24.307,3.107A31.909,31.909,0,0,0,5.347.426a8.3,8.3,0,0,0-2.791.864A5.526,5.526,0,0,0,.039,6.7a7.592,7.592,0,0,0,3.319,5.15c3.079,2.13,6.811,2.714,10.522,3.243a19.324,19.324,0,0,0,4.468.25,7.555,7.555,0,0,0,4.137-1.555,8.26,8.26,0,0,0,1.949-2.519,8.412,8.412,0,0,0-.127-8.158" fill="#f8be95"/>
        </g>
        <g id="Group_4308" data-name="Group 4308" transform="matrix(0.966, 0.259, -0.259, 0.966, 35.739, 79.145)">
          <path id="Path_2589" data-name="Path 2589" d="M12.389,47.8a52.687,52.687,0,0,0,8.965,5.854c4.362,2.253,9.018,3.886,13.482,5.931,5.127,2.348,10.008,5.243,15.287,7.232s11.14,3.035,16.581,1.523c6.024-1.674,10.819-6.276,14.482-11.333,3.73-5.15,6.649-11.437,5.57-17.691a24.313,24.313,0,0,0-2.692-7.143A60.688,60.688,0,0,0,17.014,1.462c-3.947.892-7.932,2.251-10.92,4.977C2.773,9.468,1.029,13.913.436,18.359c-.73,5.469-.83,12.453,1.747,17.4A38.907,38.907,0,0,0,12.389,47.8" transform="translate(0 0)" fill="#f8be95"/>
          <path id="Path_2590" data-name="Path 2590" d="M.386,32.468a.4.4,0,0,1-.394-.476A102.593,102.593,0,0,0,1.206.446.4.4,0,0,1,2,.352,103.4,103.4,0,0,1,.78,32.143a.4.4,0,0,1-.394.324" transform="translate(34.654 18.359)" fill="#b78365" opacity="0.201"/>
          <path id="Path_2591" data-name="Path 2591" d="M.388,26.271a.4.4,0,0,1-.341-.61A58.151,58.151,0,0,0,8.45.362a.4.4,0,0,1,.8.069A58.945,58.945,0,0,1,.73,26.08a.4.4,0,0,1-.342.191" transform="translate(20.992 21.718)" fill="#b78365" opacity="0.201"/>
        </g>
        <g id="Group_4291" data-name="Group 4291" transform="translate(21.256)">
          <g id="Group_4228" data-name="Group 4228">
            <g id="Group_3896_00000155834495880407695460000010482248490364288641_">
              <path id="Rectangle_2060_00000001654200698269020800000004406352293639699894_" d="M1371.229,668.6H1415.3a9.006,9.006,0,0,1,9.03,9.03V786.869a9.006,9.006,0,0,1-9.03,9.03h-44.069a9.006,9.006,0,0,1-9.03-9.03V677.63A8.944,8.944,0,0,1,1371.229,668.6Z" transform="translate(-1361.513 -668.6)" fill="#50567c"/>
              <path id="Rectangle_2059_00000139981978345014656850000016827543867582492602_" d="M1372.429,669.8h41.615a9.006,9.006,0,0,1,9.03,9.03V785.615a9.006,9.006,0,0,1-9.03,9.03h-41.615a9.006,9.006,0,0,1-9.029-9.03V678.83A9.006,9.006,0,0,1,1372.429,669.8Z" transform="translate(-1361.535 -668.622)" fill="#2e3353"/>
              <path id="Rectangle_2057_00000110450121287530097230000010500935491802461833_7" data-name="Rectangle_2057_00000110450121287530097230000010500935491802461833_" d="M1372.463,671.6h41.615a7.247,7.247,0,0,1,7.263,7.263V785.648a7.247,7.247,0,0,1-7.263,7.263h-41.615a7.247,7.247,0,0,1-7.263-7.263V678.863A7.247,7.247,0,0,1,1372.463,671.6Z" transform="translate(-1361.568 -668.656)" fill="#fff"/>
              <path id="Rectangle_2058_00000017486504205712552600000010593876799233581724_" d="M1387.954,674.7h11.483a2.43,2.43,0,0,1,2.454,2.454h0a2.43,2.43,0,0,1-2.454,2.454h-11.483a2.43,2.43,0,0,1-2.454-2.454h0A2.43,2.43,0,0,1,1387.954,674.7Z" transform="translate(-1361.944 -668.713)" fill="#50567c"/>
              <path id="Rectangle_2061_00000039122430095865972050000005511652360971192487_" d="M1425.389,711h0a.633.633,0,0,1,.589.589V724.25a.633.633,0,0,1-.589.589h0a.633.633,0,0,1-.589-.589V711.589A.633.633,0,0,1,1425.389,711Z" transform="translate(-1362.672 -669.385)" fill="#2e3353"/>
              <path id="Rectangle_2062_00000103954994898426477630000008162266470475689868_" d="M1362.089,699.9h0a.633.633,0,0,1,.589.589v9.03a.633.633,0,0,1-.589.589h0a.633.633,0,0,1-.589-.589v-9.03A.633.633,0,0,1,1362.089,699.9Z" transform="translate(-1361.5 -669.18)" fill="#2e3353"/>
              <path id="Rectangle_2064_00000124120905039372996560000006128255414558400896_" d="M1362.089,691.3h0a.633.633,0,0,1,.589.589V696.7a.633.633,0,0,1-.589.589h0a.633.633,0,0,1-.589-.589v-4.809A.633.633,0,0,1,1362.089,691.3Z" transform="translate(-1361.5 -669.02)" fill="#2e3353"/>
              <path id="Rectangle_2063_00000078046372248829849380000001587501843637521085_" d="M1362.089,714.1h0a.633.633,0,0,1,.589.589v9.03a.633.633,0,0,1-.589.589h0a.633.633,0,0,1-.589-.589v-9.03A.566.566,0,0,1,1362.089,714.1Z" transform="translate(-1361.5 -669.443)" fill="#2e3353"/>
            </g>
          </g>
          <g id="Group_4231" data-name="Group 4231" transform="translate(9.913 26.136)">
            <rect id="Rectangle_1054-19" data-name="Rectangle 1054" width="43.295" height="8.889" rx="2" transform="translate(0 34.561)" fill="#dbe0ff"/>
            <rect id="Rectangle_1054-20" data-name="Rectangle 1054" width="43.295" height="8.889" rx="2" transform="translate(0 46.055)" fill="#dbe0ff"/>
            <rect id="Rectangle_1054-21" data-name="Rectangle 1054" width="43.295" height="8.889" rx="2" transform="translate(0 57.55)" fill="#6176be"/>
            <path id="Subtraction_24-7" data-name="Subtraction 24" d="M17.746,17.165h0a8.179,8.179,0,0,0-6.9-3.765H9.635a8.186,8.186,0,0,0-6.9,3.764,10.228,10.228,0,1,1,17.746-6.945,10.172,10.172,0,0,1-2.73,6.946ZM10.238,4.016a4.1,4.1,0,1,0,4.113,4.1A4.114,4.114,0,0,0,10.238,4.016Z" transform="translate(11.941 0)" fill="#6176be"/>
          </g>
        </g>
        <g id="Group_4310" data-name="Group 4310" transform="matrix(0.966, 0.259, -0.259, 0.966, 12.662, 67.106)">
          <path id="Path_2593" data-name="Path 2593" d="M5.238.855a12.946,12.946,0,0,0-3.493,4.11A11.329,11.329,0,0,0,0,10.308c-.107,2.494,1.687,4.718,3.282,6.434A15.481,15.481,0,0,0,7.437,20.17a6.349,6.349,0,0,0,5.238.425,5.138,5.138,0,0,0,2.793-2.98,5.7,5.7,0,0,0-.137-4.1,9.448,9.448,0,0,0-2.245-3.03,10.8,10.8,0,0,1-2.078-2.329c-.931-1.664-.664-3.712-1-5.588A3.223,3.223,0,0,0,8.721.293C7.657-.349,6.263.149,5.238.855" transform="translate(12.293 27.838)" fill="#f8be95"/>
          <path id="Path_2594" data-name="Path 2594" d="M7.074.33c4.034,1.475,7.241,4.506,10,7.792a12.613,12.613,0,0,1,1.892,2.729,6.7,6.7,0,0,1-1,7.035,6.75,6.75,0,0,1-6.84,2,11.274,11.274,0,0,1-4.532-3.039c-.855-.843-1.669-1.725-2.483-2.606C2.277,12.264.338,10.1.059,7.42-.558,1.5,3.562-.954,7.074.33" transform="translate(4.563 17.922)" fill="#f8be95"/>
          <path id="Path_2595" data-name="Path 2595" d="M.131,8.694A17.545,17.545,0,0,0,3.375,16.5,8.114,8.114,0,0,0,4.834,18.16,5.622,5.622,0,0,0,9,19.285a7.666,7.666,0,0,0,3.982-1.809,6.358,6.358,0,0,0,2.4-4.215A7.618,7.618,0,0,0,14.7,9.88,19.424,19.424,0,0,0,8.476,1.708,9.015,9.015,0,0,0,5.416.072,4.222,4.222,0,0,0,.969,2.422,10.284,10.284,0,0,0,.131,8.694" transform="translate(0 0)" fill="#f8be95"/>
          <path id="Path_2597" data-name="Path 2597" d="M4.563,8.8a.4.4,0,0,1-.219-.065A13.9,13.9,0,0,1,1.69,6.494,6.026,6.026,0,0,1,.076,3.7,3.133,3.133,0,0,1,1.114.544,3.142,3.142,0,0,1,3.41.035,6.435,6.435,0,0,1,5.5.8,15.493,15.493,0,0,1,7.171,1.828a.4.4,0,0,1,.017.638A5.536,5.536,0,0,0,5.505,5.16a10.745,10.745,0,0,0-.541,3.262.4.4,0,0,1-.218.338.4.4,0,0,1-.183.044M2.891.8a2.184,2.184,0,0,0-1.3.387A2.345,2.345,0,0,0,.861,3.534,5.28,5.28,0,0,0,2.283,5.953,13.063,13.063,0,0,0,4.206,7.671,10.393,10.393,0,0,1,4.748,4.9,6.9,6.9,0,0,1,6.29,2.2c-.378-.249-.769-.482-1.167-.7A5.687,5.687,0,0,0,3.3.827,2.934,2.934,0,0,0,2.891.8" transform="translate(16.427 38.826)" fill="#b78365" opacity="0.202"/>
          <path id="Path_2598" data-name="Path 2598" d="M3.98,10.532a.4.4,0,0,1-.309-.145A19.586,19.586,0,0,1,.527,5.762,4.691,4.691,0,0,1,.305,2.011a3.707,3.707,0,0,1,3.137-2A5.9,5.9,0,0,1,6.959,1.05,16.5,16.5,0,0,1,9.63,3.385.4.4,0,0,1,9.572,4a15.68,15.68,0,0,0-5.226,6.3.4.4,0,0,1-.312.232.409.409,0,0,1-.054,0M3.738.8q-.121,0-.244.008a2.937,2.937,0,0,0-2.461,1.54,3.941,3.941,0,0,0,.231,3.1A16.956,16.956,0,0,0,3.889,9.393a16.607,16.607,0,0,1,4.839-5.78A13.941,13.941,0,0,0,6.52,1.721,5.26,5.26,0,0,0,3.738.8" transform="translate(9.777 24.763)" fill="#b78365" opacity="0.202"/>
          <path id="Path_2599" data-name="Path 2599" d="M2.866,9.356a.394.394,0,0,1-.109-.015.4.4,0,0,1-.277-.493A7.992,7.992,0,0,1,7.391,3.426C6.813,2.372,5.468.445,3.559.857,1.71,1.254.916,3.312.8,4.953A.4.4,0,0,1,0,4.9C.135,2.979,1.106.565,3.392.074,6.17-.522,7.873,2.54,8.328,3.493a.4.4,0,0,1-.257.558A7.118,7.118,0,0,0,3.252,9.063a.4.4,0,0,1-.386.292" transform="translate(1.675 7.163)" fill="#b78365" opacity="0.202"/>
          <path id="Path_2606" data-name="Path 2606" d="M3.93,2.29A6.889,6.889,0,0,1,.182,1.25.4.4,0,0,1,.62.578a6.3,6.3,0,0,0,4.057.872A10.544,10.544,0,0,0,8.75.048a.4.4,0,1,1,.4.7,11.339,11.339,0,0,1-4.387,1.5,8.2,8.2,0,0,1-.828.043" transform="translate(13.256 35.603)" fill="#b78365" opacity="0.202"/>
          <path id="Path_2607" data-name="Path 2607" d="M.857,4.529q-.249,0-.485-.016a.4.4,0,1,1,.056-.8C2.692,3.869,6.32,2.74,6.936.3a.4.4,0,0,1,.778.194C7.027,3.215,3.45,4.527.857,4.529" transform="translate(7.318 15.033)" fill="#b78365" opacity="0.202"/>
          <path id="Path_2608" data-name="Path 2608" d="M2.747,2.731A.4.4,0,0,1,2.453,2.6,11.462,11.462,0,0,0,.187.739.4.4,0,0,1,.615.061a12.243,12.243,0,0,1,2.425,2,.4.4,0,0,1-.294.674" transform="translate(7.805 1.921)" fill="#b78365" opacity="0.202"/>
          <path id="Path_2609" data-name="Path 2609" d="M2.967,2.853a.4.4,0,0,1-.288-.121A12.833,12.833,0,0,0,.191.741.4.4,0,0,1,.612.059,13.629,13.629,0,0,1,3.255,2.174a.4.4,0,0,1-.289.679" transform="translate(13.877 19.018)" fill="#b78365" opacity="0.202"/>
        </g>
        <g id="Group_4306" data-name="Group 4306" transform="matrix(0.966, 0.259, -0.259, 0.966, 57.136, 72.873)">
          <path id="Path_2596" data-name="Path 2596" d="M65.324,58.268c3.132-3.2,4.14-8.041,3.53-12.468s-2.65-8.527-4.934-12.37-4.85-7.539-6.68-11.617C55.346,17.59,54.053,12.719,50.3,10c-2.131-1.542-4.776-2.156-7.324-2.824a113.624,113.624,0,0,1-16.38-5.666A15.281,15.281,0,0,0,21.821,0,5.489,5.489,0,0,0,17.33,2.242,22.593,22.593,0,0,1,9.762,9.005a53.77,53.77,0,0,1-8.569,3.806,1.828,1.828,0,0,0-1.2,1.747A7.158,7.158,0,0,0,2.119,19.6,13.648,13.648,0,0,0,8.33,22.74,24.09,24.09,0,0,0,24.279,21.2a14.417,14.417,0,0,0,6.988,1.953c-.44,2.594,1.67,5.146,2.284,7.7.822,3.42-.587,6.932-1.815,10.232-1.81,4.865-3.289,10.136-2.315,15.192a13.45,13.45,0,0,0,5.561,8.534,20.992,20.992,0,0,0,12.05,3.366A24.446,24.446,0,0,0,57.8,65.822c3.323-1.639,4.938-4.907,7.527-7.554" transform="translate(0 0)" fill="#f8be95"/>
          <path id="Path_2600" data-name="Path 2600" d="M.4,10.911a.4.4,0,0,1-.269-.7A10.326,10.326,0,0,0,3.172.49.4.4,0,0,1,3.954.307a11,11,0,0,1-3.288,10.5.4.4,0,0,1-.27.1" transform="translate(24.879 9.509)" fill="#b78365" opacity="0.199"/>
          <path id="Path_2601" data-name="Path 2601" d="M.4,7.353a.4.4,0,0,1-.043-.8A13.466,13.466,0,0,0,10.228.191a.4.4,0,0,1,.69.408A14.287,14.287,0,0,1,.442,7.351l-.045,0" transform="translate(32.318 16.314)" fill="#b78365" opacity="0.199"/>
          <path id="Path_2602" data-name="Path 2602" d="M6.622,10.087a.406.406,0,0,1-.089-.01A10.206,10.206,0,0,1,.051,5.3a.4.4,0,0,1,.7-.4A9.4,9.4,0,0,0,6.585,9.267,13.189,13.189,0,0,0,10.4,6.933,5.959,5.959,0,0,0,12.31,4.1a2.683,2.683,0,0,0-.9-2.872A3.3,3.3,0,0,0,9.364.806a.4.4,0,1,1-.045-.8,4.05,4.05,0,0,1,2.542.557,3.488,3.488,0,0,1,1.228,3.728A6.716,6.716,0,0,1,10.944,7.52a14.137,14.137,0,0,1-4.163,2.534.4.4,0,0,1-.159.033" transform="translate(1.622 10.32)" fill="#b78365" opacity="0.199"/>
          <path id="Path_2610" data-name="Path 2610" d="M8.578,30.861a.4.4,0,0,1-.325-.165A43.579,43.579,0,0,1,.275.355.4.4,0,0,1,.72,0a.4.4,0,0,1,.353.443A42.768,42.768,0,0,0,8.9,30.226a.4.4,0,0,1-.325.636" transform="translate(33.4 33.538)" fill="#b78365" opacity="0.199"/>
        </g>
        <g id="Group_4307" data-name="Group 4307" transform="matrix(0.966, 0.259, -0.259, 0.966, 84.198, 123.233)">
          <path id="Path_2592" data-name="Path 2592" d="M72.763,32.155C55.805,23.143,39.626,12.935,25.377-.013a81.966,81.966,0,0,0-22.89,25.82,18.934,18.934,0,0,0-2.5,9.059A186.68,186.68,0,0,1,39.734,55.287c13.617-3.59,25.606-11.131,33.03-23.132" fill="#f8be95"/>
          <path id="Path_2603" data-name="Path 2603" d="M.392,18.522A.4.4,0,0,1,.1,17.847,29.587,29.587,0,0,0,8.036.36.4.4,0,0,1,8.472,0a.4.4,0,0,1,.362.435A30.387,30.387,0,0,1,.684,18.4a.4.4,0,0,1-.292.126" transform="translate(21.039 5.069)" fill="#b78365" opacity="0.197"/>
          <path id="Path_2604" data-name="Path 2604" d="M20.769,15.123a.4.4,0,0,1-.216-.063C13.574,10.6,6.711,5.776.155.717A.4.4,0,0,1,.647.083c6.537,5.045,13.38,9.857,20.339,14.3a.4.4,0,0,1-.218.737" transform="translate(27.172 19.978)" fill="#b78365" opacity="0.197"/>
          <path id="Path_2605" data-name="Path 2605" d="M34.234,20.74a.4.4,0,0,1-.242-.081A173.747,173.747,0,0,0,.237.765.4.4,0,1,1,.566.035,174.551,174.551,0,0,1,34.477,20.021a.4.4,0,0,1-.243.719" transform="translate(18.158 25.332)" fill="#b78365" opacity="0.197"/>
        </g>
      </g>
    </g>
    <g id="Group_4313" data-name="Group 4313" transform="translate(12564.448 -6731)">
      <path id="Path_2611" data-name="Path 2611" d="M8106.272,1216.889a2.064,2.064,0,0,1,2.391-.858c1.457.579.784,3.454-1.946,3.42s-3.427-3.037-1.363-4.724,5.232-.6,5.554,1.478" transform="translate(-8085.846 -1184.24)" fill="none" stroke="#fabebc" stroke-linecap="round" stroke-width="1"/>
      <path id="Path_2965" data-name="Path 2965" d="M1.769-5.647q.32.056.64.094t.7.075a.778.778,0,0,0,.047-.151q.009-.056.028-.132v.019a3.869,3.869,0,0,1,.132-.452q.075-.207.113-.3.151-.3.264-.489a.447.447,0,0,1,.264-.226v.019q.245-.151.264-.085a1.958,1.958,0,0,1-.094.518.436.436,0,0,1-.009.085.436.436,0,0,0-.009.085q-.094.32-.16.593T3.8-5.384q.4.038.791.038t.791.038H5.5a1.181,1.181,0,0,1,.056-.254q.038-.1.075-.2v.019a2.379,2.379,0,0,1,.113-.452q.075-.207.113-.3a5.125,5.125,0,0,1,.273-.489A.48.48,0,0,1,6.4-7.209v.019q.245-.151.264-.085a1.958,1.958,0,0,1-.094.518.231.231,0,0,1-.019.085.231.231,0,0,0-.019.085l-.075.4q-.075.245-.132.452t-.113.471q.207.019.4.019h.555a2.365,2.365,0,0,1,.518.028q.066.028.009.179a.672.672,0,0,1-.527.358h.019a1.655,1.655,0,0,1-.376.066q-.282.028-.489.028a.834.834,0,0,1-.264.038q-.094.433-.179.847t-.16.847q.264.019.518.019h.631a2.683,2.683,0,0,1,.546.028q.075.028.019.2a1.493,1.493,0,0,1-.226.216.945.945,0,0,1-.339.16,2.049,2.049,0,0,1-.386.056q-.254.019-.461.019l-.4.038q-.038.207-.056.376t-.056.376a.436.436,0,0,1-.009.085.4.4,0,0,0-.009.066,1.592,1.592,0,0,1-.085.5q-.047.066-.292-.085A.635.635,0,0,1,4.932-1.3,1.4,1.4,0,0,1,4.9-1.685a3.187,3.187,0,0,1,.047-.442q-.433,0-.875-.019A6.787,6.787,0,0,1,3.2-2.24V-2.2q-.038.207-.056.4t-.056.4a.436.436,0,0,1-.009.085.436.436,0,0,0-.009.085,1.746,1.746,0,0,1-.1.5q-.047.066-.292-.085A.635.635,0,0,1,2.485-1.3a3.635,3.635,0,0,1-.019-.424A2.709,2.709,0,0,1,2.5-2.2v-.169a.153.153,0,0,1-.113-.038,3.808,3.808,0,0,1-.527-.075,2.284,2.284,0,0,1-.4-.113q-.226-.094-.386-.179a.533.533,0,0,1-.235-.235v.019Q.659-3.2.734-3.238a1.731,1.731,0,0,1,.565.019.436.436,0,0,1,.085.009.436.436,0,0,0,.085.009q.264.038.536.066t.555.066A13.385,13.385,0,0,1,2.88-4.8l-.207-.038a3.319,3.319,0,0,1-.5-.085l-.424-.1a2.42,2.42,0,0,1-.358-.16.545.545,0,0,1-.226-.235V-5.4q-.188-.226-.132-.264a1.6,1.6,0,0,1,.546.019h.169Zm3.5,1.092q-.433,0-.819-.009a4.364,4.364,0,0,1-.819-.1q-.094.433-.169.838t-.151.838q.433.038.828.056l.828.038q.038-.376.122-.819T5.271-4.555ZM3.558-4.687a.109.109,0,0,0,.075.019.167.167,0,0,1,.019-.075Z" transform="translate(148.872 7.295)" fill="#e0b810"/>
      <path id="Path_2612" data-name="Path 2612" d="M8110.281,1178.9l2.2-2.4,2.78,1.336,1.9-2.32,3.25,1.561" transform="translate(-8110.281 -1172.219)" fill="none" stroke="#8cb9f8" stroke-width="1"/>
      <circle id="Ellipse_379" data-name="Ellipse 379" cx="2.632" cy="2.632" r="2.632" transform="translate(174.309 21.908)" fill="#9bc1f9"/>
      <circle id="Ellipse_380" data-name="Ellipse 380" cx="0.877" cy="0.877" r="0.877" transform="translate(178.695 20.154)" fill="#9bc1f9"/>
    </g>
    <g id="Mask_Group_5920" data-name="Mask Group 5920" transform="translate(-0.307)" clip-path="url(#clip-path-2)">
      <g id="Group_4475" data-name="Group 4475" transform="translate(12539.465 -6649.314)">
        <g id="Group_4299" data-name="Group 4299" transform="translate(-0.001 0.007)">
          <path id="Ellipse_375" data-name="Ellipse 375" d="M30.27,6.669a22.066,22.066,0,0,1,7.828,4.4,26.122,26.122,0,0,1,5.729,7.11,28.737,28.737,0,0,1,3.146,8.872,28.331,28.331,0,0,1,.052,9.725,25.212,25.212,0,0,1-3.213,8.811,21.407,21.407,0,0,1-5.788,6.349A18.737,18.737,0,0,1,21.77,54.8a21.839,21.839,0,0,1-8.057-4.28,25.978,25.978,0,0,1-5.969-7.211,28.716,28.716,0,0,1-3.267-9.132A28.28,28.28,0,0,1,4.5,24.177a25.014,25.014,0,0,1,3.441-8.935,21.17,21.17,0,0,1,6.028-6.248A18.842,18.842,0,0,1,21.7,5.969,19.108,19.108,0,0,1,30.27,6.669Z" transform="translate(0 1.406)" fill="#d52225"/>
          <path id="Path_2583" data-name="Path 2583" d="M13.316,1.491,8.072,2.608,14.959,51.7l5.758.127Z" transform="translate(11.492 5.229)" fill="#d52225"/>
          <g data-type="innerShadowGroup">
            <g id="Ellipse_374-2" data-name="Ellipse 374" transform="translate(4.862)" fill="#ffe5e5">
              <path d="M31.216,6.958a23.15,23.15,0,0,1,8.119,4.558,27.165,27.165,0,0,1,5.954,7.32,29.524,29.524,0,0,1,3.287,9.112,28.8,28.8,0,0,1,.089,9.971,25.517,25.517,0,0,1-3.292,9.021,21.784,21.784,0,0,1-5.967,6.487,19.541,19.541,0,0,1-7.864,3.338,19.862,19.862,0,0,1-8.956-.465,22.907,22.907,0,0,1-8.364-4.425,27.02,27.02,0,0,1-6.213-7.426,29.5,29.5,0,0,1-3.42-9.388,28.743,28.743,0,0,1-.014-10.27,25.311,25.311,0,0,1,3.536-9.154,21.551,21.551,0,0,1,6.226-6.381,19.466,19.466,0,0,1,8-3.062A20.01,20.01,0,0,1,31.216,6.958Z" stroke="none"/>
              <path d="M 23.27052116394043 52.39292526245117 C 23.90363883972168 52.57253265380859 24.53746604919434 52.71585083007812 25.17088890075684 52.82286834716797 C 25.80377006530762 52.92978286743164 26.43623542785645 53.00046157836914 27.06715393066406 53.03486633300781 C 27.69753265380859 53.06924438476562 28.32636642456055 53.06743240356445 28.95252990722656 53.02939605712891 C 29.57814788818359 52.99139022827148 30.20109748840332 52.91724014282227 30.82028007507324 52.80692672729492 C 31.41827774047852 52.70038604736328 32.00665664672852 52.56143188476562 32.58445358276367 52.39052581787109 C 33.16176223754883 52.21976470947266 33.72851181030273 52.0171012878418 34.28374099731445 51.78297805786133 C 34.83849716186523 51.54905700683594 35.38176345825195 51.28372192382812 35.91259765625 50.98744201660156 C 36.4429931640625 50.69141387939453 36.96097183227539 50.36447143554688 37.46559143066406 50.00706100463867 C 37.96979141235352 49.64995193481445 38.4542236328125 49.2669792175293 38.91818618774414 48.85897827148438 C 39.38178253173828 48.4512825012207 39.82496643066406 48.01859664916992 40.24702072143555 47.56170272827148 C 40.66875457763672 47.10515594482422 41.06941604614258 46.62442398071289 41.44831085205078 46.12032699584961 C 41.82693862915039 45.61658096313477 42.18383407592773 45.08948516845703 42.5182991027832 44.53982543945312 C 42.86408233642578 43.97158432006836 43.18206405639648 43.38508987426758 43.47188186645508 42.78144836425781 C 43.76153182983398 42.17819595336914 44.02306365966797 41.55776596069336 44.25612258911133 40.92127227783203 C 44.48904800415039 40.28514099121094 44.69355010986328 39.63290405273438 44.86924743652344 38.96567535400391 C 45.04485321044922 38.29875946044922 45.19170379638672 37.61681747436523 45.30940628051758 36.92092514038086 C 45.42706680297852 36.22532272338867 45.51381301879883 35.5263786315918 45.56967926025391 34.82528305053711 C 45.62553024291992 34.12441635131836 45.65052795410156 33.42134857177734 45.64469146728516 32.71724700927734 C 45.63885879516602 32.01332855224609 45.60221481323242 31.30832672119141 45.53477096557617 30.60342597961426 C 45.46733474731445 29.89863586425781 45.36911773681641 29.19389152526855 45.24010848999023 28.49037551879883 C 45.11540603637695 27.81036376953125 44.96341323852539 27.13840675354004 44.78450012207031 26.4755687713623 C 44.60559463500977 25.81272506713867 44.39976501464844 25.15895462036133 44.16741943359375 24.51534461975098 C 43.93504333496094 23.87166976928711 43.67611312866211 23.23810386657715 43.39101409912109 22.61573791503906 C 43.10587310791016 21.99325752258301 42.79452514648438 21.38192558288574 42.45735931396484 20.78284072875977 C 42.12009811401367 20.1835994720459 41.76130294799805 19.6042308807373 41.38166046142578 19.04561042785645 C 41.00189208984375 18.48680114746094 40.60124588012695 17.9487133026123 40.18041229248047 17.43223190307617 C 39.75941467285156 16.9155445098877 39.31818771362305 16.42044067382812 38.8574333190918 15.94781970977783 C 38.39645767211914 15.47497177124023 37.91590118408203 15.02459049224854 37.41647338867188 14.59757804870605 C 36.89951705932617 14.1555814743042 36.36767578125 13.74347686767578 35.82191467285156 13.36183071136475 C 35.27581024169922 12.97994518280029 34.71573257446289 12.62853240966797 34.14265060424805 12.3081693649292 C 33.56916809082031 11.98758506774902 32.98262023925781 11.69807052612305 32.38399505615234 11.44021511077881 C 31.7849063873291 11.18216228485107 31.17368125915527 10.95580101013184 30.55126953125 10.76171684265137 C 29.92836761474609 10.56747817993164 29.30377960205078 10.40853404998779 28.6785945892334 10.2850227355957 C 28.05289268493652 10.16140842437744 27.42657279968262 10.07327938079834 26.80071830749512 10.02077198028564 C 26.1743278503418 9.968216896057129 25.54838752746582 9.951342582702637 24.92398262023926 9.970288276672363 C 24.29903793334961 9.989250183105469 23.67561721801758 10.04409503936768 23.0548210144043 10.13496112823486 C 22.45420074462891 10.22287368774414 21.8621654510498 10.34337997436523 21.27970504760742 10.4961404800415 C 20.69674110412598 10.64903450012207 20.12337493896484 10.83423805236816 19.56060028076172 11.05141639709473 C 18.99734687805176 11.26878070831299 18.44470977783203 11.51817035675049 17.90369606018066 11.79924297332764 C 17.36222076416016 12.08055305480957 16.8323917388916 12.39359855651855 16.31522178649902 12.73803424835205 C 15.79761981964111 13.08276176452637 15.29932975769043 13.45451068878174 14.82115650177002 13.85251808166504 C 14.3425989151001 14.25084400177002 13.88420867919922 14.67545700073242 13.44678688049316 15.12558937072754 C 13.0090274810791 15.57606315612793 12.59228897094727 16.05207443237305 12.19736957550049 16.55284690856934 C 11.80216884613037 17.05398368835449 11.42883491516113 17.57989311218262 11.07817459106445 18.12980270385742 C 10.71516609191895 18.69907760620117 10.38051128387451 19.28812980651855 10.07469177246094 19.89582824707031 C 9.768679618835449 20.50391006469727 9.491559028625488 21.1306266784668 9.243802070617676 21.77482604980469 C 8.995904922485352 22.41938972473145 8.777423858642578 23.08141899108887 8.588825225830078 23.7597599029541 C 8.40013313293457 24.43843650817871 8.241366386413574 25.13339614868164 8.112992286682129 25.84347724914551 C 7.984562397003174 26.55385971069336 7.888526916503906 27.26844215393066 7.824906826019287 27.98591613769531 C 7.761266708374023 28.70362854003906 7.730069637298584 29.4241771697998 7.731330394744873 30.146240234375 C 7.73259162902832 30.86848640441895 7.766326904296875 31.59219169616699 7.832540988922119 32.31604385375977 C 7.898766994476318 33.04001617431641 7.997477531433105 33.76406860351562 8.128668785095215 34.48689651489258 C 8.255492210388184 35.1856575012207 8.411157608032227 35.87606048583984 8.595233917236328 36.55691528320312 C 8.779308319091797 37.23775482177734 8.991778373718262 37.90898895263672 9.232209205627441 38.56941223144531 C 9.472614288330078 39.22976684570312 9.740954399108887 39.87925720214844 10.03678226470947 40.51670074462891 C 10.33255577087402 41.15401840209961 10.65578460693359 41.77923965454102 11.00602245330811 42.39116287231445 C 11.35616493225098 43.00292205810547 11.72879314422607 43.59352493286133 12.1231107711792 44.16202163696289 C 12.51728916168213 44.73032760620117 12.93311405181885 45.27651596069336 13.36978149414062 45.79962539672852 C 13.80627059936523 46.32252883911133 14.26355075836182 46.82234954833984 14.7408275604248 47.29816436767578 C 15.21786880493164 47.77375030517578 15.71484851837158 48.22531509399414 16.2309684753418 48.65195465087891 C 16.76459121704102 49.09306335449219 17.31308364868164 49.50259780883789 17.87537956237793 49.88004302978516 C 18.43731307983398 50.25724792480469 19.01299667358398 50.60236358642578 19.60135650634766 50.91486358642578 C 20.18930625915527 51.22714996337891 20.78988456726074 51.5068473815918 21.40202140808105 51.75344085693359 C 22.01370239257812 51.99984359741211 22.63688850402832 52.21317672729492 23.27052116394043 52.39292526245117 M 22.58711814880371 56.30062484741211 C 19.50695991516113 55.43493270874023 16.68548583984375 53.90425872802734 14.22325134277344 51.87544631958008 C 11.75441265106201 49.84119415283203 9.650063514709473 47.30885696411133 8.010661125183105 44.44909286499023 C 6.369202613830566 41.58574295043945 5.196329593658447 38.39846801757812 4.591123580932617 35.06066131591797 C 3.986118078231812 31.72395324707031 3.949410438537598 28.24233818054199 4.577297687530518 24.79051399230957 C 5.203894138336182 21.34578132629395 6.432180881500244 18.26189804077148 8.113447189331055 15.6368579864502 C 9.789303779602051 13.02026462554932 11.91367053985596 10.8619966506958 14.3391580581665 9.256016731262207 C 16.75518035888672 7.656303882598877 19.4688720703125 6.605305671691895 22.33579635620117 6.194039821624756 C 25.19091415405273 5.784468650817871 28.19803237915039 6.009368419647217 31.21642303466797 6.958388328552246 C 34.22311401367188 7.903730869293213 36.95931243896484 9.479155540466309 39.3353271484375 11.51681995391846 C 41.70513916015625 13.54916381835938 43.71979522705078 16.04402923583984 45.28937149047852 18.83712959289551 C 46.8570442199707 21.62683868408203 47.9830207824707 24.71813774108887 48.57607650756836 27.94924163818359 C 49.16932678222656 31.18137168884277 49.23027801513672 34.5585823059082 48.66518402099609 37.92031097412109 C 48.09896087646484 41.28876495361328 46.95703125 44.32763290405273 45.37367630004883 46.94085693359375 C 43.78530883789062 49.56234359741211 41.75123596191406 51.75793838500977 39.40681076049805 53.42768859863281 C 37.05329132080078 55.10392379760742 34.3858642578125 56.25103759765625 31.54261207580566 56.76603317260742 C 28.68756866455078 57.28314971923828 25.65516471862793 57.16291427612305 22.58711814880371 56.30062484741211 Z" stroke="none"/>
            </g>
            <g transform="matrix(1, 0, 0, 1, -5.16, -81.69)" filter="url(#Ellipse_374)">
              <g id="Ellipse_374-3" data-name="Ellipse 374" transform="translate(10.02 81.69)" fill="#fff">
                <path d="M31.216,6.958a23.15,23.15,0,0,1,8.119,4.558,27.165,27.165,0,0,1,5.954,7.32,29.524,29.524,0,0,1,3.287,9.112,28.8,28.8,0,0,1,.089,9.971,25.517,25.517,0,0,1-3.292,9.021,21.784,21.784,0,0,1-5.967,6.487,19.541,19.541,0,0,1-7.864,3.338,19.862,19.862,0,0,1-8.956-.465,22.907,22.907,0,0,1-8.364-4.425,27.02,27.02,0,0,1-6.213-7.426,29.5,29.5,0,0,1-3.42-9.388,28.743,28.743,0,0,1-.014-10.27,25.311,25.311,0,0,1,3.536-9.154,21.551,21.551,0,0,1,6.226-6.381,19.466,19.466,0,0,1,8-3.062A20.01,20.01,0,0,1,31.216,6.958Z" stroke="none"/>
                <path d="M 23.27052116394043 52.39292526245117 C 23.90363883972168 52.57253265380859 24.53746604919434 52.71585083007812 25.17088890075684 52.82286834716797 C 25.80377006530762 52.92978286743164 26.43623542785645 53.00046157836914 27.06715393066406 53.03486633300781 C 27.69753265380859 53.06924438476562 28.32636642456055 53.06743240356445 28.95252990722656 53.02939605712891 C 29.57814788818359 52.99139022827148 30.20109748840332 52.91724014282227 30.82028007507324 52.80692672729492 C 31.41827774047852 52.70038604736328 32.00665664672852 52.56143188476562 32.58445358276367 52.39052581787109 C 33.16176223754883 52.21976470947266 33.72851181030273 52.0171012878418 34.28374099731445 51.78297805786133 C 34.83849716186523 51.54905700683594 35.38176345825195 51.28372192382812 35.91259765625 50.98744201660156 C 36.4429931640625 50.69141387939453 36.96097183227539 50.36447143554688 37.46559143066406 50.00706100463867 C 37.96979141235352 49.64995193481445 38.4542236328125 49.2669792175293 38.91818618774414 48.85897827148438 C 39.38178253173828 48.4512825012207 39.82496643066406 48.01859664916992 40.24702072143555 47.56170272827148 C 40.66875457763672 47.10515594482422 41.06941604614258 46.62442398071289 41.44831085205078 46.12032699584961 C 41.82693862915039 45.61658096313477 42.18383407592773 45.08948516845703 42.5182991027832 44.53982543945312 C 42.86408233642578 43.97158432006836 43.18206405639648 43.38508987426758 43.47188186645508 42.78144836425781 C 43.76153182983398 42.17819595336914 44.02306365966797 41.55776596069336 44.25612258911133 40.92127227783203 C 44.48904800415039 40.28514099121094 44.69355010986328 39.63290405273438 44.86924743652344 38.96567535400391 C 45.04485321044922 38.29875946044922 45.19170379638672 37.61681747436523 45.30940628051758 36.92092514038086 C 45.42706680297852 36.22532272338867 45.51381301879883 35.5263786315918 45.56967926025391 34.82528305053711 C 45.62553024291992 34.12441635131836 45.65052795410156 33.42134857177734 45.64469146728516 32.71724700927734 C 45.63885879516602 32.01332855224609 45.60221481323242 31.30832672119141 45.53477096557617 30.60342597961426 C 45.46733474731445 29.89863586425781 45.36911773681641 29.19389152526855 45.24010848999023 28.49037551879883 C 45.11540603637695 27.81036376953125 44.96341323852539 27.13840675354004 44.78450012207031 26.4755687713623 C 44.60559463500977 25.81272506713867 44.39976501464844 25.15895462036133 44.16741943359375 24.51534461975098 C 43.93504333496094 23.87166976928711 43.67611312866211 23.23810386657715 43.39101409912109 22.61573791503906 C 43.10587310791016 21.99325752258301 42.79452514648438 21.38192558288574 42.45735931396484 20.78284072875977 C 42.12009811401367 20.1835994720459 41.76130294799805 19.6042308807373 41.38166046142578 19.04561042785645 C 41.00189208984375 18.48680114746094 40.60124588012695 17.9487133026123 40.18041229248047 17.43223190307617 C 39.75941467285156 16.9155445098877 39.31818771362305 16.42044067382812 38.8574333190918 15.94781970977783 C 38.39645767211914 15.47497177124023 37.91590118408203 15.02459049224854 37.41647338867188 14.59757804870605 C 36.89951705932617 14.1555814743042 36.36767578125 13.74347686767578 35.82191467285156 13.36183071136475 C 35.27581024169922 12.97994518280029 34.71573257446289 12.62853240966797 34.14265060424805 12.3081693649292 C 33.56916809082031 11.98758506774902 32.98262023925781 11.69807052612305 32.38399505615234 11.44021511077881 C 31.7849063873291 11.18216228485107 31.17368125915527 10.95580101013184 30.55126953125 10.76171684265137 C 29.92836761474609 10.56747817993164 29.30377960205078 10.40853404998779 28.6785945892334 10.2850227355957 C 28.05289268493652 10.16140842437744 27.42657279968262 10.07327938079834 26.80071830749512 10.02077198028564 C 26.1743278503418 9.968216896057129 25.54838752746582 9.951342582702637 24.92398262023926 9.970288276672363 C 24.29903793334961 9.989250183105469 23.67561721801758 10.04409503936768 23.0548210144043 10.13496112823486 C 22.45420074462891 10.22287368774414 21.8621654510498 10.34337997436523 21.27970504760742 10.4961404800415 C 20.69674110412598 10.64903450012207 20.12337493896484 10.83423805236816 19.56060028076172 11.05141639709473 C 18.99734687805176 11.26878070831299 18.44470977783203 11.51817035675049 17.90369606018066 11.79924297332764 C 17.36222076416016 12.08055305480957 16.8323917388916 12.39359855651855 16.31522178649902 12.73803424835205 C 15.79761981964111 13.08276176452637 15.29932975769043 13.45451068878174 14.82115650177002 13.85251808166504 C 14.3425989151001 14.25084400177002 13.88420867919922 14.67545700073242 13.44678688049316 15.12558937072754 C 13.0090274810791 15.57606315612793 12.59228897094727 16.05207443237305 12.19736957550049 16.55284690856934 C 11.80216884613037 17.05398368835449 11.42883491516113 17.57989311218262 11.07817459106445 18.12980270385742 C 10.71516609191895 18.69907760620117 10.38051128387451 19.28812980651855 10.07469177246094 19.89582824707031 C 9.768679618835449 20.50391006469727 9.491559028625488 21.1306266784668 9.243802070617676 21.77482604980469 C 8.995904922485352 22.41938972473145 8.777423858642578 23.08141899108887 8.588825225830078 23.7597599029541 C 8.40013313293457 24.43843650817871 8.241366386413574 25.13339614868164 8.112992286682129 25.84347724914551 C 7.984562397003174 26.55385971069336 7.888526916503906 27.26844215393066 7.824906826019287 27.98591613769531 C 7.761266708374023 28.70362854003906 7.730069637298584 29.4241771697998 7.731330394744873 30.146240234375 C 7.73259162902832 30.86848640441895 7.766326904296875 31.59219169616699 7.832540988922119 32.31604385375977 C 7.898766994476318 33.04001617431641 7.997477531433105 33.76406860351562 8.128668785095215 34.48689651489258 C 8.255492210388184 35.1856575012207 8.411157608032227 35.87606048583984 8.595233917236328 36.55691528320312 C 8.779308319091797 37.23775482177734 8.991778373718262 37.90898895263672 9.232209205627441 38.56941223144531 C 9.472614288330078 39.22976684570312 9.740954399108887 39.87925720214844 10.03678226470947 40.51670074462891 C 10.33255577087402 41.15401840209961 10.65578460693359 41.77923965454102 11.00602245330811 42.39116287231445 C 11.35616493225098 43.00292205810547 11.72879314422607 43.59352493286133 12.1231107711792 44.16202163696289 C 12.51728916168213 44.73032760620117 12.93311405181885 45.27651596069336 13.36978149414062 45.79962539672852 C 13.80627059936523 46.32252883911133 14.26355075836182 46.82234954833984 14.7408275604248 47.29816436767578 C 15.21786880493164 47.77375030517578 15.71484851837158 48.22531509399414 16.2309684753418 48.65195465087891 C 16.76459121704102 49.09306335449219 17.31308364868164 49.50259780883789 17.87537956237793 49.88004302978516 C 18.43731307983398 50.25724792480469 19.01299667358398 50.60236358642578 19.60135650634766 50.91486358642578 C 20.18930625915527 51.22714996337891 20.78988456726074 51.5068473815918 21.40202140808105 51.75344085693359 C 22.01370239257812 51.99984359741211 22.63688850402832 52.21317672729492 23.27052116394043 52.39292526245117 M 22.58711814880371 56.30062484741211 C 19.50695991516113 55.43493270874023 16.68548583984375 53.90425872802734 14.22325134277344 51.87544631958008 C 11.75441265106201 49.84119415283203 9.650063514709473 47.30885696411133 8.010661125183105 44.44909286499023 C 6.369202613830566 41.58574295043945 5.196329593658447 38.39846801757812 4.591123580932617 35.06066131591797 C 3.986118078231812 31.72395324707031 3.949410438537598 28.24233818054199 4.577297687530518 24.79051399230957 C 5.203894138336182 21.34578132629395 6.432180881500244 18.26189804077148 8.113447189331055 15.6368579864502 C 9.789303779602051 13.02026462554932 11.91367053985596 10.8619966506958 14.3391580581665 9.256016731262207 C 16.75518035888672 7.656303882598877 19.4688720703125 6.605305671691895 22.33579635620117 6.194039821624756 C 25.19091415405273 5.784468650817871 28.19803237915039 6.009368419647217 31.21642303466797 6.958388328552246 C 34.22311401367188 7.903730869293213 36.95931243896484 9.479155540466309 39.3353271484375 11.51681995391846 C 41.70513916015625 13.54916381835938 43.71979522705078 16.04402923583984 45.28937149047852 18.83712959289551 C 46.8570442199707 21.62683868408203 47.9830207824707 24.71813774108887 48.57607650756836 27.94924163818359 C 49.16932678222656 31.18137168884277 49.23027801513672 34.5585823059082 48.66518402099609 37.92031097412109 C 48.09896087646484 41.28876495361328 46.95703125 44.32763290405273 45.37367630004883 46.94085693359375 C 43.78530883789062 49.56234359741211 41.75123596191406 51.75793838500977 39.40681076049805 53.42768859863281 C 37.05329132080078 55.10392379760742 34.3858642578125 56.25103759765625 31.54261207580566 56.76603317260742 C 28.68756866455078 57.28314971923828 25.65516471862793 57.16291427612305 22.58711814880371 56.30062484741211 Z" stroke="none"/>
              </g>
            </g>
            <g id="Ellipse_374-4" data-name="Ellipse 374" transform="translate(4.862)" fill="none">
              <path d="M31.216,6.958a23.15,23.15,0,0,1,8.119,4.558,27.165,27.165,0,0,1,5.954,7.32,29.524,29.524,0,0,1,3.287,9.112,28.8,28.8,0,0,1,.089,9.971,25.517,25.517,0,0,1-3.292,9.021,21.784,21.784,0,0,1-5.967,6.487,19.541,19.541,0,0,1-7.864,3.338,19.862,19.862,0,0,1-8.956-.465,22.907,22.907,0,0,1-8.364-4.425,27.02,27.02,0,0,1-6.213-7.426,29.5,29.5,0,0,1-3.42-9.388,28.743,28.743,0,0,1-.014-10.27,25.311,25.311,0,0,1,3.536-9.154,21.551,21.551,0,0,1,6.226-6.381,19.466,19.466,0,0,1,8-3.062A20.01,20.01,0,0,1,31.216,6.958Z" stroke="none"/>
              <path d="M 23.27052116394043 52.39292526245117 C 23.90363883972168 52.57253265380859 24.53746604919434 52.71585083007812 25.17088890075684 52.82286834716797 C 25.80377006530762 52.92978286743164 26.43623542785645 53.00046157836914 27.06715393066406 53.03486633300781 C 27.69753265380859 53.06924438476562 28.32636642456055 53.06743240356445 28.95252990722656 53.02939605712891 C 29.57814788818359 52.99139022827148 30.20109748840332 52.91724014282227 30.82028007507324 52.80692672729492 C 31.41827774047852 52.70038604736328 32.00665664672852 52.56143188476562 32.58445358276367 52.39052581787109 C 33.16176223754883 52.21976470947266 33.72851181030273 52.0171012878418 34.28374099731445 51.78297805786133 C 34.83849716186523 51.54905700683594 35.38176345825195 51.28372192382812 35.91259765625 50.98744201660156 C 36.4429931640625 50.69141387939453 36.96097183227539 50.36447143554688 37.46559143066406 50.00706100463867 C 37.96979141235352 49.64995193481445 38.4542236328125 49.2669792175293 38.91818618774414 48.85897827148438 C 39.38178253173828 48.4512825012207 39.82496643066406 48.01859664916992 40.24702072143555 47.56170272827148 C 40.66875457763672 47.10515594482422 41.06941604614258 46.62442398071289 41.44831085205078 46.12032699584961 C 41.82693862915039 45.61658096313477 42.18383407592773 45.08948516845703 42.5182991027832 44.53982543945312 C 42.86408233642578 43.97158432006836 43.18206405639648 43.38508987426758 43.47188186645508 42.78144836425781 C 43.76153182983398 42.17819595336914 44.02306365966797 41.55776596069336 44.25612258911133 40.92127227783203 C 44.48904800415039 40.28514099121094 44.69355010986328 39.63290405273438 44.86924743652344 38.96567535400391 C 45.04485321044922 38.29875946044922 45.19170379638672 37.61681747436523 45.30940628051758 36.92092514038086 C 45.42706680297852 36.22532272338867 45.51381301879883 35.5263786315918 45.56967926025391 34.82528305053711 C 45.62553024291992 34.12441635131836 45.65052795410156 33.42134857177734 45.64469146728516 32.71724700927734 C 45.63885879516602 32.01332855224609 45.60221481323242 31.30832672119141 45.53477096557617 30.60342597961426 C 45.46733474731445 29.89863586425781 45.36911773681641 29.19389152526855 45.24010848999023 28.49037551879883 C 45.11540603637695 27.81036376953125 44.96341323852539 27.13840675354004 44.78450012207031 26.4755687713623 C 44.60559463500977 25.81272506713867 44.39976501464844 25.15895462036133 44.16741943359375 24.51534461975098 C 43.93504333496094 23.87166976928711 43.67611312866211 23.23810386657715 43.39101409912109 22.61573791503906 C 43.10587310791016 21.99325752258301 42.79452514648438 21.38192558288574 42.45735931396484 20.78284072875977 C 42.12009811401367 20.1835994720459 41.76130294799805 19.6042308807373 41.38166046142578 19.04561042785645 C 41.00189208984375 18.48680114746094 40.60124588012695 17.9487133026123 40.18041229248047 17.43223190307617 C 39.75941467285156 16.9155445098877 39.31818771362305 16.42044067382812 38.8574333190918 15.94781970977783 C 38.39645767211914 15.47497177124023 37.91590118408203 15.02459049224854 37.41647338867188 14.59757804870605 C 36.89951705932617 14.1555814743042 36.36767578125 13.74347686767578 35.82191467285156 13.36183071136475 C 35.27581024169922 12.97994518280029 34.71573257446289 12.62853240966797 34.14265060424805 12.3081693649292 C 33.56916809082031 11.98758506774902 32.98262023925781 11.69807052612305 32.38399505615234 11.44021511077881 C 31.7849063873291 11.18216228485107 31.17368125915527 10.95580101013184 30.55126953125 10.76171684265137 C 29.92836761474609 10.56747817993164 29.30377960205078 10.40853404998779 28.6785945892334 10.2850227355957 C 28.05289268493652 10.16140842437744 27.42657279968262 10.07327938079834 26.80071830749512 10.02077198028564 C 26.1743278503418 9.968216896057129 25.54838752746582 9.951342582702637 24.92398262023926 9.970288276672363 C 24.29903793334961 9.989250183105469 23.67561721801758 10.04409503936768 23.0548210144043 10.13496112823486 C 22.45420074462891 10.22287368774414 21.8621654510498 10.34337997436523 21.27970504760742 10.4961404800415 C 20.69674110412598 10.64903450012207 20.12337493896484 10.83423805236816 19.56060028076172 11.05141639709473 C 18.99734687805176 11.26878070831299 18.44470977783203 11.51817035675049 17.90369606018066 11.79924297332764 C 17.36222076416016 12.08055305480957 16.8323917388916 12.39359855651855 16.31522178649902 12.73803424835205 C 15.79761981964111 13.08276176452637 15.29932975769043 13.45451068878174 14.82115650177002 13.85251808166504 C 14.3425989151001 14.25084400177002 13.88420867919922 14.67545700073242 13.44678688049316 15.12558937072754 C 13.0090274810791 15.57606315612793 12.59228897094727 16.05207443237305 12.19736957550049 16.55284690856934 C 11.80216884613037 17.05398368835449 11.42883491516113 17.57989311218262 11.07817459106445 18.12980270385742 C 10.71516609191895 18.69907760620117 10.38051128387451 19.28812980651855 10.07469177246094 19.89582824707031 C 9.768679618835449 20.50391006469727 9.491559028625488 21.1306266784668 9.243802070617676 21.77482604980469 C 8.995904922485352 22.41938972473145 8.777423858642578 23.08141899108887 8.588825225830078 23.7597599029541 C 8.40013313293457 24.43843650817871 8.241366386413574 25.13339614868164 8.112992286682129 25.84347724914551 C 7.984562397003174 26.55385971069336 7.888526916503906 27.26844215393066 7.824906826019287 27.98591613769531 C 7.761266708374023 28.70362854003906 7.730069637298584 29.4241771697998 7.731330394744873 30.146240234375 C 7.73259162902832 30.86848640441895 7.766326904296875 31.59219169616699 7.832540988922119 32.31604385375977 C 7.898766994476318 33.04001617431641 7.997477531433105 33.76406860351562 8.128668785095215 34.48689651489258 C 8.255492210388184 35.1856575012207 8.411157608032227 35.87606048583984 8.595233917236328 36.55691528320312 C 8.779308319091797 37.23775482177734 8.991778373718262 37.90898895263672 9.232209205627441 38.56941223144531 C 9.472614288330078 39.22976684570312 9.740954399108887 39.87925720214844 10.03678226470947 40.51670074462891 C 10.33255577087402 41.15401840209961 10.65578460693359 41.77923965454102 11.00602245330811 42.39116287231445 C 11.35616493225098 43.00292205810547 11.72879314422607 43.59352493286133 12.1231107711792 44.16202163696289 C 12.51728916168213 44.73032760620117 12.93311405181885 45.27651596069336 13.36978149414062 45.79962539672852 C 13.80627059936523 46.32252883911133 14.26355075836182 46.82234954833984 14.7408275604248 47.29816436767578 C 15.21786880493164 47.77375030517578 15.71484851837158 48.22531509399414 16.2309684753418 48.65195465087891 C 16.76459121704102 49.09306335449219 17.31308364868164 49.50259780883789 17.87537956237793 49.88004302978516 C 18.43731307983398 50.25724792480469 19.01299667358398 50.60236358642578 19.60135650634766 50.91486358642578 C 20.18930625915527 51.22714996337891 20.78988456726074 51.5068473815918 21.40202140808105 51.75344085693359 C 22.01370239257812 51.99984359741211 22.63688850402832 52.21317672729492 23.27052116394043 52.39292526245117 M 22.58711814880371 56.30062484741211 C 19.50695991516113 55.43493270874023 16.68548583984375 53.90425872802734 14.22325134277344 51.87544631958008 C 11.75441265106201 49.84119415283203 9.650063514709473 47.30885696411133 8.010661125183105 44.44909286499023 C 6.369202613830566 41.58574295043945 5.196329593658447 38.39846801757812 4.591123580932617 35.06066131591797 C 3.986118078231812 31.72395324707031 3.949410438537598 28.24233818054199 4.577297687530518 24.79051399230957 C 5.203894138336182 21.34578132629395 6.432180881500244 18.26189804077148 8.113447189331055 15.6368579864502 C 9.789303779602051 13.02026462554932 11.91367053985596 10.8619966506958 14.3391580581665 9.256016731262207 C 16.75518035888672 7.656303882598877 19.4688720703125 6.605305671691895 22.33579635620117 6.194039821624756 C 25.19091415405273 5.784468650817871 28.19803237915039 6.009368419647217 31.21642303466797 6.958388328552246 C 34.22311401367188 7.903730869293213 36.95931243896484 9.479155540466309 39.3353271484375 11.51681995391846 C 41.70513916015625 13.54916381835938 43.71979522705078 16.04402923583984 45.28937149047852 18.83712959289551 C 46.8570442199707 21.62683868408203 47.9830207824707 24.71813774108887 48.57607650756836 27.94924163818359 C 49.16932678222656 31.18137168884277 49.23027801513672 34.5585823059082 48.66518402099609 37.92031097412109 C 48.09896087646484 41.28876495361328 46.95703125 44.32763290405273 45.37367630004883 46.94085693359375 C 43.78530883789062 49.56234359741211 41.75123596191406 51.75793838500977 39.40681076049805 53.42768859863281 C 37.05329132080078 55.10392379760742 34.3858642578125 56.25103759765625 31.54261207580566 56.76603317260742 C 28.68756866455078 57.28314971923828 25.65516471862793 57.16291427612305 22.58711814880371 56.30062484741211 Z" stroke="none" fill="#f23538"/>
            </g>
          </g>
        </g>
        <g transform="matrix(1, 0, 0, 1, -5.16, -81.69)" filter="url(#Ellipse_376)">
          <path id="Ellipse_376-2" data-name="Ellipse 376" d="M31.214,6.958a23.149,23.149,0,0,1,8.119,4.558,27.165,27.165,0,0,1,5.954,7.32,29.524,29.524,0,0,1,3.287,9.112,28.8,28.8,0,0,1,.089,9.971,25.516,25.516,0,0,1-3.291,9.02A21.783,21.783,0,0,1,39.4,53.426a19.54,19.54,0,0,1-7.864,3.338,19.861,19.861,0,0,1-8.955-.465,22.907,22.907,0,0,1-8.364-4.425A27.02,27.02,0,0,1,8.01,44.448,29.5,29.5,0,0,1,4.59,35.059a28.743,28.743,0,0,1-.014-10.27,25.31,25.31,0,0,1,3.536-9.153,21.55,21.55,0,0,1,6.225-6.381,19.465,19.465,0,0,1,8-3.062A20.009,20.009,0,0,1,31.214,6.958Z" transform="translate(10.05 81.69)" fill="#fff"/>
        </g>
        <g transform="matrix(1, 0, 0, 1, -5.16, -81.69)" filter="url(#Ellipse_377)">
          <path id="Ellipse_377-2" data-name="Ellipse 377" d="M31.215,6.958a23.15,23.15,0,0,1,8.119,4.558,27.165,27.165,0,0,1,5.954,7.32,29.524,29.524,0,0,1,3.287,9.112,28.8,28.8,0,0,1,.089,9.971,25.517,25.517,0,0,1-3.292,9.021,21.784,21.784,0,0,1-5.967,6.487,19.541,19.541,0,0,1-7.864,3.338,19.862,19.862,0,0,1-8.955-.465,22.907,22.907,0,0,1-8.364-4.425A27.02,27.02,0,0,1,8.01,44.449,29.5,29.5,0,0,1,4.59,35.06a28.743,28.743,0,0,1-.014-10.27,25.311,25.311,0,0,1,3.536-9.154,21.551,21.551,0,0,1,6.226-6.381,19.466,19.466,0,0,1,8-3.062A20.01,20.01,0,0,1,31.215,6.958Z" transform="translate(10.02 81.7)" fill="#fff"/>
        </g>
        <g id="Group_4303" data-name="Group 4303" transform="translate(26.658 17.418)">
          <g transform="matrix(1, 0, 0, 1, -31.82, -99.1)" filter="url(#Path_2585)">
            <path id="Path_2585-2" data-name="Path 2585" d="M7.123,2.937,6.307,21.013a2.067,2.067,0,0,1-.106.558,1.134,1.134,0,0,1-.235.4.953.953,0,0,1-.364.242,1.42,1.42,0,0,1-.494.084,1.312,1.312,0,0,1-.481-.08,1.049,1.049,0,0,1-.378-.248,1.4,1.4,0,0,1-.275-.416,2.53,2.53,0,0,1-.172-.584L1.2,3.267a7.009,7.009,0,0,1-.009-.707,4.536,4.536,0,0,1,.064-.608,2.91,2.91,0,0,1,.136-.509,1.942,1.942,0,0,1,.209-.41A1.98,1.98,0,0,1,2,.585,2.215,2.215,0,0,1,2.548.269,3.079,3.079,0,0,1,3.224.081a4.761,4.761,0,0,1,.81-.058A4.672,4.672,0,0,1,4.78.086,3.347,3.347,0,0,1,5.427.26a2.629,2.629,0,0,1,.547.286,2.408,2.408,0,0,1,.447.4,2.487,2.487,0,0,1,.279.4,2.882,2.882,0,0,1,.21.464,3.623,3.623,0,0,1,.141.532A4.778,4.778,0,0,1,7.123,2.937Z" transform="translate(31.82 99.1)" fill="#f23538"/>
          </g>
          <g transform="matrix(1, 0, 0, 1, -31.82, -99.1)" filter="url(#Ellipse_378)">
            <path id="Ellipse_378-2" data-name="Ellipse 378" d="M2.925.017a1.77,1.77,0,0,1,.759.166,2.078,2.078,0,0,1,.639.464,2.394,2.394,0,0,1,.453.693,2.533,2.533,0,0,1,.2.852,2.408,2.408,0,0,1-.1.855,2.1,2.1,0,0,1-.369.7,1.8,1.8,0,0,1-.582.477,1.659,1.659,0,0,1-.738.181,1.769,1.769,0,0,1-.76-.164,2.076,2.076,0,0,1-.641-.464,2.393,2.393,0,0,1-.455-.694,2.533,2.533,0,0,1-.2-.854,2.407,2.407,0,0,1,.1-.857A2.1,2.1,0,0,1,1.6.672,1.8,1.8,0,0,1,2.186.2,1.659,1.659,0,0,1,2.925.017Z" transform="translate(34.3 122.89)" fill="#f23538"/>
          </g>
        </g>
      </g>
    </g>
  </g>
</svg>
