<?xml version="1.0" encoding="UTF-8"?>
<svg width="320px" height="240px" viewBox="0 0 320 240" version="1.1" xmlns="http://www.w3.org/2000/svg" xmlns:xlink="http://www.w3.org/1999/xlink">
    <title>Approved</title>
    <defs>
        <path d="M20.7648626,3 L108.608,3 C117.27129,3 125.215479,10.0229843 126.351843,18.6862745 L152.277208,216.333333 C153.413572,224.996624 147.311793,232.019608 138.648502,232.019608 L50.8053652,232.019608 C42.142075,232.019608 34.1978858,224.996624 33.061522,216.333333 L7.13615673,18.6862745 C5.99979293,10.0229843 12.1015724,3 20.7648626,3 Z" id="path-1"></path>
        <path d="M7.11006259,0 L71.3835669,0 C75.6094331,0 79.5002697,3.42574143 80.0739937,7.65160765 L88.8000751,71.9251119 C89.3737991,76.1509781 86.4131529,79.5767196 82.1872866,79.5767196 L17.9137824,79.5767196 C13.6879162,79.5767196 9.79707952,76.1509781 9.22335551,71.9251119 L0.497274149,7.65160765 C-0.0764498583,3.42574143 2.88419637,0 7.11006259,0 Z" id="path-2"></path>
        <filter x="-1.1%" y="-1.3%" width="102.3%" height="102.5%" filterUnits="objectBoundingBox" id="filter-3">
            <feOffset dx="2" dy="-2" in="SourceAlpha" result="shadowOffsetInner1"></feOffset>
            <feComposite in="shadowOffsetInner1" in2="SourceAlpha" operator="arithmetic" k2="-1" k3="1" result="shadowInnerInner1"></feComposite>
            <feColorMatrix values="0 0 0 0 0   0 0 0 0 0   0 0 0 0 0  0 0 0 0.166657561 0" type="matrix" in="shadowInnerInner1"></feColorMatrix>
        </filter>
    </defs>
    <g id="Approved" stroke="none" stroke-width="1" fill="none" fill-rule="evenodd">
        <g transform="translate(41.000000, 0.000000)">
            <g id="PushIllustration">
                <path d="M70.3142526,195.886859 C56.9921318,134.635648 43.670011,104.010042 7.70028474,62.732052 C-28.2694415,21.4540619 68.9820405,-1.18225528 150.246978,22.7856099 C231.511915,46.7534752 259.488368,104.010042 220.854218,161.266609 C182.220068,218.523176 83.6363734,257.13807 70.3142526,195.886859 Z" id="Path-5" fill="#F3FAFF" transform="translate(119.000000, 120.000000) rotate(-180.000000) translate(-119.000000, -120.000000) "></path>
                <g id="Group-2" transform="translate(41.000000, 0.000000)">
                    <path d="M19.2708076,4.45830736e-14 L105.545317,4.45830736e-14 C117.673924,4.45830736e-14 128.795789,9.83217804 130.386698,21.9607843 L156.106306,218.039216 C157.697216,230.167822 149.154724,240 137.026118,240 L50.7516083,240 C38.623002,240 27.5011371,230.167822 25.9102278,218.039216 L0.190619421,21.9607843 C-1.4002899,9.83217804 7.14220133,4.45830736e-14 19.2708076,4.45830736e-14 Z" id="Rectangle" fill="#29A3FF"></path>
                    <path d="M20.839435,-2.22915368e-14 L108.682572,-2.22915368e-14 C119.078521,-2.22915368e-14 128.611548,8.42758118 129.975184,18.8235294 L155.900549,216.470588 C157.264186,226.866536 149.942051,235.294118 139.546102,235.294118 L51.7029651,235.294118 C41.3070169,235.294118 31.7739898,226.866536 30.4103533,216.470588 L4.48498804,18.8235294 C3.12135148,8.42758118 10.4434868,-2.22915368e-14 20.839435,-2.22915368e-14 Z" id="Rectangle" fill="#0270C2"></path>
                    <g id="Rectangle">
                        <use fill="#DFF1FF" xlink:href="#path-1"></use>
                        <use fill="#FFFFFF" xlink:href="#path-1"></use>
                    </g>
                </g>
            </g>
            <g id="Group-9" transform="translate(76.000000, 65.000000)">
                <g id="Group-7">
                    <g id="Rectangle">
                        <use fill="#29A3FF" fill-rule="evenodd" xlink:href="#path-2"></use>
                        <use fill="black" fill-opacity="1" filter="url(#filter-3)" xlink:href="#path-2"></use>
                    </g>
                    <path d="M43.812433,20 C49.9980222,20 55.6966397,25.0144108 56.5406515,31.2 C57.3846632,37.3855892 53.0544591,42.4 46.8688699,42.4 C40.6832807,42.4 34.9846632,37.3855892 34.1406515,31.2 C33.2966397,25.0144108 37.6268438,20 43.812433,20 Z M44.1399084,22.4 C39.2798026,22.4 35.8774994,26.3398942 36.5406515,31.2 C37.2038036,36.0601058 41.6812887,40 46.5413945,40 C51.4015003,40 54.8038036,36.0601058 54.1406515,31.2 C53.4774994,26.3398942 49.0000142,22.4 44.1399084,22.4 Z M50.4402917,26.7477758 L50.5426697,26.830152 C51.0419566,27.2694918 51.1642809,27.9647417 50.8441704,28.4360703 L50.7742298,28.5272083 L44.6679956,35.5982761 C44.2886028,36.0376159 43.5970996,36.0650746 43.0733173,35.6806523 L42.9709393,35.5982761 L39.7565787,32.7698489 C39.224006,32.3012198 39.1203331,31.5414218 39.5250187,31.0727927 C39.9044114,30.6334528 40.5959147,30.6059941 41.1196969,30.9904165 L41.2220749,31.0727927 L43.4721273,33.0526917 L48.8456134,26.830152 C49.2250062,26.3908122 49.9165094,26.3633534 50.4402917,26.7477758 Z" id="Combined-Shape" fill="#FFFFFF" fill-rule="nonzero"></path>
                    <path d="M27.4085027,57.25 L27.7257495,55.6386719 L30.5509448,55.6386719 L31.3132879,57.25 L33.0266668,57.25 L29.0323541,49.4296875 L27.5391901,49.4296875 L25.6951238,57.25 L27.4085027,57.25 Z M29.9377975,54.3334961 L27.9827194,54.3334961 L28.5554702,51.40625 L29.9377975,54.3334961 Z M35.2543945,59.484375 L34.8806281,56.7451172 C35.2979803,57.1533203 35.8002761,57.3574219 36.3875157,57.3574219 C37.0785964,57.3574219 37.5905773,57.087972 37.9234582,56.5490723 C38.2563391,56.0101725 38.3617066,55.2931315 38.2395607,54.3979492 L38.2285676,54.3173828 C38.1015359,53.3863932 37.8031344,52.6559245 37.333363,52.1259766 C36.8635917,51.5960286 36.2706332,51.3310547 35.5544873,51.3310547 C34.9493441,51.3310547 34.489565,51.5566406 34.1751499,52.0078125 L34.0437542,51.4384766 L32.6043011,51.4384766 L33.7021484,59.484375 L35.2543945,59.484375 Z M35.8085526,56.105957 C35.3215735,56.105957 34.9570553,55.914388 34.7149982,55.53125 L34.3903344,53.1518555 C34.5221389,52.7794596 34.8315308,52.5932617 35.3185099,52.5932617 C35.6837443,52.5932617 35.9821779,52.7400716 36.2138108,53.0336914 C36.4454436,53.3273112 36.5981481,53.7444661 36.6719243,54.2851562 C36.8375541,55.4990234 36.5497636,56.105957 35.8085526,56.105957 Z M41.4472656,59.484375 L41.0734992,56.7451172 C41.4908513,57.1533203 41.9931472,57.3574219 42.5803868,57.3574219 C43.2714675,57.3574219 43.7834484,57.087972 44.1163293,56.5490723 C44.4492102,56.0101725 44.5545777,55.2931315 44.4324318,54.3979492 L44.4214387,54.3173828 C44.294407,53.3863932 43.9960054,52.6559245 43.5262341,52.1259766 C43.0564628,51.5960286 42.4635043,51.3310547 41.7473584,51.3310547 C41.1422152,51.3310547 40.6824361,51.5566406 40.368021,52.0078125 L40.2366253,51.4384766 L38.7971722,51.4384766 L39.8950195,59.484375 L41.4472656,59.484375 Z M42.0014237,56.105957 C41.5144445,56.105957 41.1499264,55.914388 40.9078693,55.53125 L40.5832055,53.1518555 C40.71501,52.7794596 41.0244018,52.5932617 41.511381,52.5932617 C41.8766154,52.5932617 42.175049,52.7400716 42.4066819,53.0336914 C42.6383147,53.3273112 42.7910192,53.7444661 42.8647954,54.2851562 C43.0304252,55.4990234 42.7426347,56.105957 42.0014237,56.105957 Z M47.3352606,57.25 L46.8163848,53.4472656 C46.9447692,53.0498047 47.3025812,52.8510742 47.8898208,52.8510742 C48.0509536,52.8510742 48.2391058,52.8653971 48.4542775,52.894043 L48.2720225,51.4008789 C48.1152803,51.3543294 47.9509717,51.3310547 47.7790967,51.3310547 C47.2276644,51.3310547 46.832586,51.597819 46.5938615,52.1313477 L46.4563519,51.4384766 L44.9900433,51.4384766 L45.7830145,57.25 L47.3352606,57.25 Z M52.1301915,57.3574219 C52.9680821,57.3574219 53.5991222,57.087972 54.0233117,56.5490723 C54.4475012,56.0101725 54.5987673,55.2949219 54.47711,54.4033203 L54.4121351,54.0058594 C54.2424692,53.1822917 53.8769356,52.530599 53.3155344,52.0507812 C52.7541332,51.5709635 52.0813428,51.3310547 51.2971631,51.3310547 C50.7457308,51.3310547 50.2782933,51.4545898 49.8948506,51.7016602 C49.511408,51.9487305 49.2394648,52.2978516 49.0790211,52.7490234 C48.9185774,53.2001953 48.8776866,53.7140299 48.9563485,54.2905273 L48.9658759,54.3603516 C49.0919305,55.2841797 49.4413574,56.0146484 50.0141567,56.5517578 C50.5869559,57.0888672 51.2923009,57.3574219 52.1301915,57.3574219 Z M51.9594315,56.105957 C51.5727128,56.105957 51.2556025,55.9600423 51.0081006,55.6682129 C50.7605988,55.3763835 50.5992269,54.9547526 50.523985,54.4033203 C50.4394601,53.7838542 50.4808847,53.326416 50.6482588,53.0310059 C50.8156329,52.7355957 51.0890987,52.5878906 51.4686559,52.5878906 C51.851794,52.5878906 52.1692707,52.7364909 52.4210862,53.0336914 C52.6729016,53.3308919 52.8356974,53.7498372 52.9094735,54.2905273 C52.9959528,54.9243164 52.9532265,55.3853353 52.7812944,55.673584 C52.6093624,55.9618327 52.3354081,56.105957 51.9594315,56.105957 Z M58.6575262,57.25 L59.8250042,51.4384766 L58.2029339,51.4384766 L57.6576102,55.3540039 L56.0437542,51.4384766 L54.4216839,51.4384766 L57.1751043,57.25 L58.6575262,57.25 Z M63.9197423,57.3574219 C64.4031407,57.3574219 64.8309894,57.2652181 65.2032883,57.0808105 C65.5755871,56.896403 65.8556354,56.6394857 66.0434331,56.3100586 L65.1642106,55.4560547 C64.8867407,55.8893229 64.4490149,56.105957 63.8510331,56.105957 C63.4643143,56.105957 63.1290996,55.9913737 62.8453888,55.762207 C62.5616781,55.5330404 62.3688627,55.2286784 62.2669426,54.8491211 L65.9676262,54.8491211 L65.8811469,54.215332 C65.7555809,53.2950846 65.4303256,52.5843099 64.9053809,52.0830078 C64.3804362,51.5817057 63.7205029,51.3310547 62.9255811,51.3310547 C62.3956332,51.3310547 61.9408504,51.455485 61.5612327,51.7043457 C61.1816151,51.9532064 60.9104048,52.3076986 60.7476018,52.7678223 C60.5847989,53.227946 60.543217,53.7498372 60.6228561,54.3334961 L60.6433766,54.4838867 C60.7621024,55.3540039 61.1247914,56.0504557 61.7314436,56.5732422 C62.3380959,57.0960286 63.0675287,57.3574219 63.9197423,57.3574219 Z M64.2978591,53.7910156 L62.1386794,53.7910156 C62.1396233,53.4042969 62.2217109,53.1070964 62.384942,52.8994141 C62.5481732,52.6917318 62.7837601,52.5878906 63.0917028,52.5878906 C63.4211299,52.5878906 63.688187,52.6818848 63.8928741,52.869873 C64.0975612,53.0578613 64.2269375,53.3237305 64.281003,53.6674805 L64.2978591,53.7910156 Z M69.2156407,57.3574219 C69.8243647,57.3574219 70.2891066,57.1157227 70.6098666,56.6323242 L70.7693426,57.25 L72.1711981,57.25 L71.0455014,49 L69.4878842,49 L69.8924315,51.9648437 C69.4659635,51.5423177 68.9698519,51.3310547 68.4040967,51.3310547 C67.6986931,51.3310547 67.1794286,51.5996094 66.8463034,52.1367188 C66.5131782,52.6738281 66.4084214,53.3953451 66.532033,54.3012695 C66.6629735,55.2609049 66.9719967,56.0101725 67.4591027,56.5490723 C67.9462088,57.087972 68.5317214,57.3574219 69.2156407,57.3574219 Z M69.4416088,56.1005859 C69.0799552,56.1005859 68.7844514,55.9555664 68.5550975,55.6655273 C68.3257435,55.3754883 68.1739342,54.9583333 68.0996695,54.4140625 C67.9340397,53.2001953 68.225411,52.5932617 68.9737834,52.5932617 C69.4500203,52.5932617 69.8124235,52.7955729 70.0609928,53.2001953 L70.3739306,55.4936523 C70.2322004,55.8982747 69.9214265,56.1005859 69.4416088,56.1005859 Z" id="Approved" fill="#FFFFFF" fill-rule="nonzero"></path>
                </g>
            </g>
        </g>
    </g>
</svg>