<svg xmlns="http://www.w3.org/2000/svg" xmlns:xlink="http://www.w3.org/1999/xlink" width="350" height="350" viewBox="0 0 350 350">
  <defs>
    <filter id="Ellipse_195" x="75" y="77" width="112" height="112" filterUnits="userSpaceOnUse">
      <feOffset dx="3" dy="3" input="SourceAlpha"/>
      <feGaussianBlur result="blur"/>
      <feFlood flood-color="#a1c7e9"/>
      <feComposite operator="in" in2="blur"/>
      <feComposite in="SourceGraphic"/>
    </filter>
    <clipPath id="clip-path">
      <rect id="Rectangle_1032" data-name="Rectangle 1032" width="83" height="45" transform="translate(-0.358 -0.39)" fill="none" stroke="#707070" stroke-width="1"/>
    </clipPath>
    <clipPath id="clip-path-2">
      <rect id="Rectangle_1035" data-name="Rectangle 1035" width="54" height="20" rx="8" transform="translate(0.42 -0.39)" fill="#fff" stroke="#707070" stroke-width="1"/>
    </clipPath>
    <clipPath id="clip-path-3">
      <rect id="Rectangle_1034" data-name="Rectangle 1034" width="19" height="28" rx="6" transform="translate(-0.357 0.357)" fill="none" stroke="#707070" stroke-width="1"/>
    </clipPath>
    <clipPath id="clip-path-4">
      <rect id="Rectangle_1033" data-name="Rectangle 1033" width="83" height="47" transform="translate(-0.358 -0.071)" fill="#fff" stroke="#707070" stroke-width="1"/>
    </clipPath>
    <clipPath id="clip-Concurrent">
      <rect width="350" height="350"/>
    </clipPath>
  </defs>
  <g id="Concurrent" clip-path="url(#clip-Concurrent)">
    <rect width="350" height="350" fill="#fff"/>
    <g id="Group_3067" data-name="Group 3067" transform="translate(-840 -54)">
      <g id="Group_3016" data-name="Group 3016" transform="translate(320.881 -43.235)">
        <path id="Path_611" data-name="Path 611" d="M294.514,168.588H257.17c4-4.511,6.545-11.343,6.545-18.991v-5.62c0-16.279,9.636-29.476,21.522-29.476,12.185,0,22.062-13.528,22.062-30.216S297.422,54.07,285.237,54.07h-3.614c-11.886,0-21.522-13.2-21.522-29.476h0c0-13.584-8.04-24.6-17.959-24.6H101.815C90.776,0,81.826,12.254,81.826,27.374c0,10.336,4.183,19.333,10.357,23.993H67.533c-10.28,0-18.614,10.563-18.614,23.593,0,15.615-9.987,28.273-22.306,28.273H22.866C10.238,103.233,0,116.209,0,132.216S10.238,161.2,22.866,161.2h0c12.319,0,22.306,12.658,22.306,28.273v5.39c0,13.03,8.334,23.593,18.614,23.593H150.4a16.8,16.8,0,0,0,1.985.119H294.514c11.239,0,20.349-11.19,20.349-24.993s-9.111-24.993-20.349-24.993" transform="translate(526.535 163.238)" fill="#9bc1f9" opacity="0.102"/>
        <rect id="Rectangle_235" data-name="Rectangle 235" width="112.046" height="98.316" transform="translate(717.167 282.747)" fill="none"/>
        <g id="Group_643" data-name="Group 643" transform="translate(519.119 227.023)">
          <rect id="Rectangle_237" data-name="Rectangle 237" width="350" height="4.112" transform="translate(0 151.429)" fill="#dee5f0"/>
          <g id="Group_608" data-name="Group 608" transform="translate(37.025 113.121)">
            <rect id="Rectangle_170" data-name="Rectangle 170" width="1.857" height="21.886" transform="translate(0.44 8.4) rotate(-9.118)" fill="#50567c"/>
            <path id="Path_554" data-name="Path 554" d="M2.7,24.277,2.4,28.229l1.833-.294Z" transform="translate(-1.957 -19.828)" fill="#efcbab"/>
            <rect id="Rectangle_171" data-name="Rectangle 171" width="21.886" height="1.857" transform="matrix(0.183, -0.983, 0.983, 0.183, 16.312, 31.448)" fill="#50567c"/>
            <path id="Path_555" data-name="Path 555" d="M110.842,38.063l1.825.339-.209-3.958Z" transform="translate(-90.532 -28.132)" fill="#efcbab"/>
            <rect id="Rectangle_172" data-name="Rectangle 172" width="21.886" height="1.857" transform="matrix(0.183, -0.983, 0.983, 0.183, 13.997, 25.137)" fill="#50567c"/>
            <path id="Path_556" data-name="Path 556" d="M99.825,0,98.209,3.618l1.826.339Z" transform="translate(-80.213 0.001)" fill="#efcbab"/>
            <rect id="Rectangle_173" data-name="Rectangle 173" width="14.626" height="21.079" transform="translate(7.313 17.229)" fill="#dc7d28"/>
            <rect id="Rectangle_174" data-name="Rectangle 174" width="14.626" height="21.079" transform="translate(0 17.229)" fill="#f2ac20"/>
          </g>
          <g id="Group_605" data-name="Group 605" transform="translate(71.468 0)">
            <path id="Path_524" data-name="Path 524" d="M650.457,365.9c-8.3,16.84-18.7,62.857-21.534,65.378S609.7,443.569,606.861,448.3s-1.576,3.152-.315,3.467,72.492.63,72.492.63-8.195-48.854-9.14-49.169S650.457,365.9,650.457,365.9" transform="translate(-492.997 -298.512)" fill="#fdefce"/>
            <path id="Path_525" data-name="Path 525" d="M722.9,452.166c13.083.091,26.888.163,34.487.2l-10.405-62.226c-5.55-10.76-12.287-24.242-12.287-24.242-1.045,2.123-2.125,4.71-3.219,7.615-1.079,46.737,5.652,59.837.6,68.164-3.945,6.5-7.546,9.406-9.173,10.488" transform="translate(-577.234 -298.513)" fill="#efdeb8"/>
            <path id="Path_527" data-name="Path 527" d="M807.761,294.488c11.831,10.921,32.922,19.268,32.922,19.268s9.245,38.977,6.515,59.909-1.213,25.179-1.213,25.179h-54.3s-7.288-10.114-20.629-41.561c-8.494-20.022-6.977-42.47-6.977-42.47l33.066-14.865Z" transform="translate(-606.617 -247.427)" fill="#ffeece"/>
            <path id="Path_529" data-name="Path 529" d="M808,161.173c-6.546,14.579,1.311,28.084,1.072,27.514s9.907-24.614,9.907-24.614Z" transform="translate(-636.245 -152.252)" fill="#50567c"/>
            <path id="Path_530" data-name="Path 530" d="M866.648,199.049l8.3,30.343a2.747,2.747,0,0,1-.525,2.458c-1.947,2.4-4.72,7.333-10.313,8.915a13.845,13.845,0,0,1-3.511.394,2.37,2.37,0,0,1-2.339-1.918l-5.562-28.78Z" transform="translate(-670.091 -179.348)" fill="#f8be95"/>
            <path id="Path_532" data-name="Path 532" d="M833.173,181.587c-1.838,9.982-9.307,16.733-16.683,15.079s-10.9-8.115-10.029-21.068c.679-10.162,5.691-21.209,13.067-19.555s15.482,15.563,13.645,25.545" transform="translate(-636.92 -148.463)" fill="#f8be95"/>
            <g id="Group_526" data-name="Group 526" transform="translate(172.808 65.877)">
              <path id="Path_528" data-name="Path 528" d="M844.83,457.169h54.3s-1.516-4.361,1.214-25.856c2.248-17.7-.068-46.564-.956-56.205l-4.938-2.173c-12.4,3.668-19.542,22.658-21.644,41.215-1.406,12.417-21.438,24.641-34.542,31.37a110.883,110.883,0,0,0,6.565,11.65" transform="translate(-838.265 -371.629)" fill="#efdeb8"/>
              <path id="Path_533" data-name="Path 533" d="M910,368.611c10.987,2.546,13.028,25.448,16.6,49.6.411,2.78,2.522,26.311,2.522,26.311a7.248,7.248,0,0,1-3.993,6.47c-3.591,1.843-5.043,3.235-25.846,3.451-19.979.207-45.739-.647-45.739-.647s-.228-7.63,1.821-11.358c3.082-5.607,34.672-13.658,37.614-14.09.42-6.039-2.9-27.887,1.681-42.7,3.152-10.19,6.541-15.528,10.786-16.923a8.312,8.312,0,0,1,4.554-.115" transform="translate(-849.187 -368.35)" fill="#ffeece"/>
              <path id="Path_534" data-name="Path 534" d="M893.25,467.443c9.849.152,23.367.3,34.442.183,20.8-.216,22.256-1.61,25.846-3.456a7.6,7.6,0,0,0,4.413-5.833s-2.124-25.081-2.521-27.868c-2.312-16.2-4.809-34.742-10.622-43.691a125.273,125.273,0,0,1,6.441,36.29,37.13,37.13,0,0,1-1.073,9.994c-.945,3.186-3.362,5.185-7.145,4.1-7.565-2.16-17.02,2.377-17.02,2.377s7.144-2.593,13.869-.216,20.593,18.146,5.464,23.979c-4.63,1.785-32.361,3.241-52.093,4.138" transform="translate(-877.6 -381.533)" fill="#efdeb8"/>
            </g>
            <path id="Path_535" data-name="Path 535" d="M857.06,612.472a10.417,10.417,0,0,1,8.546-4.763c5.744,0,5.323,9.386,4.483,12.468s-4.2,3.222-4.2,3.222l-12.328-.56Z" transform="translate(-670.704 -471.498)" fill="#efdeb8"/>
            <path id="Path_536" data-name="Path 536" d="M621.269,658.1H543.554a2.137,2.137,0,0,1-2.131-2.131v-.613a2.137,2.137,0,0,1,2.131-2.131h77.715a2.137,2.137,0,0,1,2.131,2.131v.613a2.137,2.137,0,0,1-2.131,2.131" transform="translate(-447.411 -504.059)" fill="#2c70ab"/>
            <path id="Path_537" data-name="Path 537" d="M782.906,615.861c-12.048-4.343-15.208-2.708-17.931-3.5-6.724-1.961-8.405-.28-12.748,11.627-.865,2.373,1.681,2.521,4.2,2.521s5.6-4.9,6.584-5.463a13.7,13.7,0,0,1,3.642-.841s-.841,0-2.1,2.521-2.8,3.5-.841,3.5,2.241-3.222,5.884-2.522,2.241,2.522,11.347,2.382,15.978,0,15.831-5.464c-.141-5.183.433-7.775-4.483-8.685-3.783-.7-9.386,3.922-9.386,3.922" transform="translate(-598.091 -474.327)" fill="#f8be95"/>
            <path id="Path_538" data-name="Path 538" d="M860.652,618.314c8.055-.91,5.691,9.123,4.851,9.964s4.485.3,4.485.3a9.726,9.726,0,0,0,.4-8.648,7.855,7.855,0,0,0-6.3-4.833l-3.572,1.961Z" transform="translate(-675.679 -476.779)" fill="#50567c"/>
            <path id="Path_539" data-name="Path 539" d="M867.763,616.652c-.1,1.244-2.217,2.082-4.72,1.873s-4.448-1.387-4.343-2.63,2.217-2.082,4.72-1.873,4.448,1.387,4.344,2.631" transform="translate(-674.38 -475.991)" fill="#50567c"/>
            <path id="Path_540" data-name="Path 540" d="M867.941,615.193c-.092,1.111-1.98,1.86-4.217,1.673s-3.973-1.239-3.881-2.35,1.981-1.86,4.217-1.673,3.974,1.239,3.881,2.35" transform="translate(-675.198 -475.15)" fill="#3e6bab"/>
            <path id="Path_541" data-name="Path 541" d="M868.737,615.058c-.067.8-1.426,1.339-3.035,1.2s-2.861-.892-2.794-1.692,1.426-1.339,3.036-1.2,2.86.892,2.793,1.692" transform="translate(-677.391 -475.53)" fill="#9bc1f9"/>
            <path id="Path_546" data-name="Path 546" d="M610.61,625.606c5.982-3.323,13.294-2.216,15.952,1.108s3.1,5.539-2.88,5.539-17.946.443-19.941.222,6.868-6.868,6.868-6.868" transform="translate(-491.782 -482.866)" fill="#eaa778"/>
            <path id="Path_547" data-name="Path 547" d="M659.744,622.738c6.425-1.551,10.815,2.188,16.174,5.76,4.653,3.1,5.588,6.117.443,3.545-7.533-3.767-11.964-4.21-11.964-4.21Z" transform="translate(-532.055 -481.991)" fill="#eaa778"/>
            <path id="Path_548" data-name="Path 548" d="M596.736,628.4c-3.245,0-6.077-1.035-8.368-.844s-9.544,7.635-8.4,8.207a2.6,2.6,0,0,0,.267.114,3.908,3.908,0,0,0,4.636-1.626c1.026-1.647,2.7-3.564,4.64-2.878a20.631,20.631,0,0,0,6.65,1.035Z" transform="translate(-474.899 -485.678)" fill="#eaa778"/>
            <path id="Path_549" data-name="Path 549" d="M629.809,627.488c-3.323-1.329,1.994-12.407,3.766-12.407s8.419,5.317,8.419,5.317-1.563.882-6.868-.886c-1.329-.444-2.437,7.09-3.988,7.976s-1.329,0-1.329,0" transform="translate(-509.875 -476.772)" fill="#f8be95"/>
            <path id="Path_550" data-name="Path 550" d="M823.226,159.812c.9.812,2.014,3.114,4.757,7.013.255.363,2.037,2.773,2.131,1.972,1.273-10.924,6.961-14.316,5.607-25.365-1-8.145-6.169-7.5-6.169-7.5s-3.335-6.816-13.718-6.041c-6.956.518-13.158,3.229-20.329,5.074s8.484,18.1,17.785,12.161,4.709,7.142,6.176,8.157.706.135,1.379,6.828" transform="translate(-627.87 -129.832)" fill="#50567c"/>
            <path id="Path_551" data-name="Path 551" d="M903.448,215.25c-.894,3.074-3.078,5.061-4.878,4.436s-1.854-3.123-1.642-6.7c.192-3.223,3.077-5.061,4.878-4.436s2.535,3.623,1.642,6.7" transform="translate(-701.669 -186.06)" fill="#f8be95"/>
            <g id="Group_528" data-name="Group 528" transform="translate(0 66.643)">
              <path id="Path_553" data-name="Path 553" d="M9.212,0H104.54a4.518,4.518,0,0,1,4.588,4.445L118.3,70.528a4.518,4.518,0,0,1-4.588,4.445H15.541a4.518,4.518,0,0,1-4.588-4.445L2.486,6.091C2.486,3.636,6.679,0,9.212,0Z" transform="translate(-2.175 0)" fill="#2c70ab"/>
              <path id="Path_552" data-name="Path 552" d="M4.269,0H95.634A4.269,4.269,0,0,1,99.9,4.269l8.539,63.471a4.269,4.269,0,0,1-4.269,4.269H12.808a4.269,4.269,0,0,1-4.269-4.269L0,4.269A4.269,4.269,0,0,1,4.269,0Z" transform="translate(0 2.963)" fill="#90c8eb"/>
              <rect id="Rectangle_168" data-name="Rectangle 168" width="25.047" height="53.794" rx="2" transform="translate(42.694 33.418)" fill="#2c70ab"/>
              <rect id="Rectangle_169" data-name="Rectangle 169" width="46.394" height="3.7" rx="1.85" transform="translate(42.694 83.511)" fill="#2c70ab"/>
            </g>
          </g>
        </g>
      </g>
      <g id="Group_3026" data-name="Group 3026" transform="translate(-245.334 -384.633)">
        <g transform="matrix(1, 0, 0, 1, 1085.33, 438.63)" filter="url(#Ellipse_195)">
          <circle id="Ellipse_195-2" data-name="Ellipse 195" cx="54.5" cy="54.5" r="54.5" transform="translate(75 77)" fill="#fff"/>
        </g>
        <g id="Mask_Group_6" data-name="Mask Group 6" transform="translate(1173.692 531.023)" clip-path="url(#clip-path)">
          <path id="Ellipse_196" data-name="Ellipse 196" d="M36.574,0H38.9l.034,0,.047,0h.731l.054,0h.548l.015,0h.014l.015,0h.014l.015,0H40.4l.015,0h.018l.025,0h0l.083.009h0l.027,0,.015,0H40.6l.016,0h.025l.014,0,.016,0,.014,0,.014,0,.014,0,.015,0,.014,0,.014,0,.014,0,.015,0,.015,0,.015,0,.015,0,.015,0,.015,0,.014,0,.014,0,.015,0,.014,0,.015,0,.014,0,.014,0,.015,0,.014,0,.014,0,.015,0,.015,0,.014,0,.015,0,.015,0,.014,0,.014,0,.014,0,.015,0,.014,0,.015,0,.014,0,.014,0,.015,0h0l.016,0,.015,0,.125.016h0l.014,0,.015,0,.014,0,.014,0,.014,0,.014,0,.015,0,.014,0,.014,0,.014,0,.015,0,.014,0,.014,0,.015,0,.015,0,.014,0,.014,0,.015,0,.015,0,.014,0,.014,0,.015,0,.015,0,.014,0,.014,0,.014,0,.015,0,.014,0,.014,0,.014,0,.015,0,.013,0,.014,0,.014,0,.015,0,.014,0,.014,0,.013,0,.016,0,.013,0,.014,0,.2.029.016,0h0l.014,0,.014,0,.014,0,.014,0h0l.013,0h0l.028,0h0l.014,0,.015,0,.014,0,.015,0,.013,0h0l.014,0,.014,0,.015,0,.014,0,.014,0,.014,0,.015,0,.014,0,.014,0,.014,0,.015,0,.014,0,.015,0,.014,0,.014,0,.014,0,.014,0,.014,0L42.6.5l.014,0,.014,0,.012,0h0l.015,0,.013,0,.323.056h0l.013,0h0l.014,0,.014,0,.014,0,.014,0,.014,0,.014,0,.014,0,.014,0,.014,0,.014,0,.014,0,.013,0h0l.015,0L43.2.6l.014,0,.014,0,.012,0,.014,0,.014,0,.015,0h0l.012,0h0l.012,0h0l.012,0h0l.012,0h0l.012,0,.014,0h0l.012,0h0l.027.005h0l.028.005h0L43.72.7h0l.027.005h0l.013,0h0l.013,0h0l.013,0h0l.012,0h0l.012,0h0l.012,0h0l.013,0h0l.013,0h0l.012,0h0l.012,0h0l.012,0h0l.012,0h0l.012,0,.013,0,.014,0h0l.011,0h0l.011,0h0l.011,0h0l.012,0h0l.013,0h0l.013,0h0l.013,0h0l.111.023h0L44.5.866h0l.055.012h0l.027.006h0l.013,0h0l.012,0h0l.012,0h0l.012,0h0l.012,0h0l.012,0h0l.012,0h0l.012,0h0l.012,0h0l.011,0h0l.011,0h0l.012,0h0l.012,0h0l.012,0h0l.012,0h0l.012,0h0l.012,0h0l.012,0h0l.012,0h0l.013,0h0l.027.006h0l.385.092h0l.055.013h0l.027.007h0l.027.007h0l.013,0h0l.013,0h0l.082.021h0l.013,0h0l.013,0h0l.041.01h0q.295.075.587.154h0l.013,0h0l.013,0h0l.081.022h0q.272.075.542.154h0l.054.016h0l.054.016h0l.108.032h0l.43.131h0l.013,0h0l.013,0h0l.026.008h0l.053.017h0l.013,0h0l.147.047h0q.241.077.48.158h0l.026.009h0l.013,0h0l.012,0h0l.012,0h0l.012,0h0l.012,0h0l.012,0h0l.012,0h0l.012,0h0l.012,0h0l.012,0h0l.012,0h0l.012,0h0l.025.009h0l.012,0h0l.012,0h0l.012,0h0l.013,0h0q.238.082.475.168h0l.026.009h0l.026.009h0l.013,0h0l.013,0h0l.012,0h0l.012,0h0l.012,0h0l.012,0h0l.012,0h0l.012,0h0l.012,0h0l.012,0h0l.011,0h0l.01,0h0l.011,0h0l.012,0h0l.025.009h0l.026.01h0l.026.01h0l.313.118h0l.026.01h0l.026.01h0l.051.02h0l.012,0h0l.012,0h0l.012,0h0l.012,0h0l.012,0h0l.012,0h0l.012,0h0l.011,0h0l.011,0h0l.012,0h0l.012,0h0l.012,0h0l.011,0h0l.011,0h0l.011,0h0l.011,0h0l.011,0h0l.012,0h0l.011,0h0l.011,0h0l.011,0h0l.011,0h0l.012,0h0l.011,0h0l.3.119h0l.011,0h0l.011,0h0l.012,0h0l.012,0h0l.011,0h0l.01,0h0l.011,0h0l.011,0h0l.01,0h0l.01,0h0l.011,0h0l.012,0h0l.01,0h0l.01,0h0l.01,0h0l.011,0h0l.01,0h0l.01,0h0l.011,0h0l.011,0h0l.011,0h0l.011,0h0l.012,0h0l.012,0h0l.012,0h0l.011,0h0l.064.027h0l.025.011h0l.2.086h0l.012.005h0l.012,0h0l.024.01h0l.012.005h0l.011,0h0l.011,0h0l.01,0h0l.011,0h0l.012.005h0L51.065,3h0l.011,0h0l.011,0h0l.01,0h0l.01,0h0l.01,0h0l.011,0h0l.011,0h0l.011,0h0l.01,0h0l.01,0h0l.01,0h0l.01,0,0,0,.009,0h0l.01,0h0l.01,0h0l.011,0h0l.01,0h0l.01,0h0l.01,0h0l.01,0h0l.01,0h0l.011,0h0l.011,0h0l.011.005h0l.012.005h0l.012.005h0l.177.079h0l.011,0h0l.009,0,0,0,.009,0,0,0,.007,0,.006,0,.007,0,.005,0,.007,0,.006,0,.008,0,0,0,.009,0,0,0,.009,0,0,0,.008,0,0,0,.008,0,0,0,.007,0,.005,0,.008,0,0,0,.008,0,0,0,.009,0,0,0,.009,0,0,0,.009,0,0,0,.009,0,0,0,.008,0,0,0,.007,0,.006,0,.008,0,0,0,.008,0,0,0,.009,0h0l.009,0,0,0,.01,0h0l.009,0,0,0,.008,0,0,0,.008,0,0,0,.008,0,0,0,.008,0,0,0,.008,0,0,0,.007,0,.005,0,.008,0,.005,0,.007,0,.006,0,.007,0,.006,0,.006,0,.007,0,.007,0,.006,0,.007,0,.006,0,.008,0,0,0,.008,0,0,0,.009,0h0l.011.005,0,0,.009,0h0l.011,0,0,0,.021.01h0l.068.032.005,0,.008,0,0,0,.009,0,0,0,.009,0h0l.009,0,0,0,.011.005h0l.009,0,0,0,.007,0,.005,0,.006,0,.007,0,.006,0,.006,0,.006,0,.007,0,.006,0,.006,0,.006,0,.007,0,.006,0,.006,0,.007,0,.006,0,.006,0,.007,0,0,0,.008,0,0,0,.007,0,.006,0,.007,0,.006,0,.007,0,.006,0,.006,0,.007,0,.005,0,.007,0,.005,0,.007,0,.006,0,.006,0,.007,0,.006,0,.006,0,.007,0,.006,0,.007,0,.006,0,.006,0,.006,0,.007,0,.005,0,.008,0,.005,0,.007,0,.006,0,.006,0,.007,0,.006,0,.005,0,.007,0,.005,0,.007,0,.005,0,.007,0,.005,0,.008,0,0,0,.01,0h0l.01.005h0l.009,0,0,0,.009,0h0l.01,0h0l.01,0h0l.01,0,0,0,.009,0h0l.01,0h0l.01.005.009,0h0l.008,0,.029.015h0l.005,0,.007,0,.008,0,0,0,.01.005h0l.009,0,0,0,.006,0,.006,0,.006,0,.007,0,.007,0,.006,0,.007,0,.005,0,.006,0,.007,0,.006,0,.006,0,.007,0,.006,0,.007,0,.006,0,0,0,.008,0,0,0,.009,0,0,0,.008,0,0,0,.008,0,0,0,.008,0,0,0,.008,0,0,0,.007,0,.006,0,.007,0,0,0,.008,0,0,0,.008,0,0,0,.009,0,0,0,.008,0,0,0,.009,0,0,0,.009,0,0,0,.009,0,0,0,.009,0h0l.01.005h0l.01,0h0l.009,0,0,0,.009,0,0,0,.009,0,0,0,.008,0,0,0,.008,0,.005,0,.008,0,0,0,.008,0,0,0,.008,0,0,0,.008,0,0,0,.008,0,0,0,.009,0,0,0,.009,0,0,0,.008,0,0,0,.01.005h0l.011.006h0l.012.006h0l.01.005h0l.024.013h0l.021.011.005,0,.048.025,0,0,.01.005h0l.012.006,0,0,.01.005,0,0,.009,0,0,0,.022.012h0l.01.005h0l.009,0,0,0,.009,0,0,0,.009,0,0,0,.008,0,0,0,.007,0,.005,0,.008,0,0,0,.009,0,0,0,.008,0,0,0,.008,0,0,0,.008,0,0,0,.008,0,0,0,.008,0,0,0,.008,0,0,0,.009,0h0l.009,0,0,0,.009,0,0,0,.008,0,0,0,.008,0,0,0,.008,0,0,0,.008,0,0,0,.008,0,0,0,.009,0,0,0,.009,0,0,0,.009,0,0,0,.009.005,0,0,.011.006h0l.011.006h0l.012.007h0L54,4.434h0l.025.013h0l.025.013h0l.012.007h0l.012.006h0l.012.007h0l.173.1h0l.011.006,0,0,.009,0,0,0,.009,0,0,0,.008,0,0,0,.009.005,0,0,.009.005h0l.01.006h0l.011.006h0l.011.006h0l.012.006h0l.012.007h0l.011.006h0l.011.006h0l.011.006h0l.01.006,0,0,.01.005h0l.01.006h0l.01.006h0l.01.006h0l.01.006h0l.01.006h0l.011.006h0l.011.006h0l.011.006h0l.012.007h0l.024.014h0l.1.056h0l.34.2h0l.023.014h0l.023.014h0l.023.014h0l.024.014h0l.048.029h0q.339.2.672.41h0a36.773,36.773,0,0,1,6.957,5.631L57.87,15.966a29.386,29.386,0,0,0-21.3-9.047V0ZM65.619,14.415a36.739,36.739,0,0,1,5.205,9.42h0l.048.131h0q.117.316.228.635h0l.023.066h0l.023.066h0l.023.066h0l.045.132h0l.044.132h0l.014.044h0l.065.2h0l.022.067h0l.021.066h0l.021.066h0l.021.066h0l.021.066h0c.04.126.079.252.117.379h0l.02.066h0l.02.066h0l.006.022h0l.013.044h0l.02.066h0l.013.044h0l.006.022h0l.013.044h0l.006.022h0l.019.067h0l.013.044h0l.006.022h0l.013.045h0l.006.022h0l.013.045h0l.019.067h0l.019.067h0l.018.066v0l.012.044h0l.006.022v0l.012.044h0l.006.022h0l.012.044h0l.006.021v0l.012.044h0l.006.022h0l.012.044v0l.006.021v0l.011.043v0l.006.021v0l.012.044h0l.006.022h0l.012.044v0l.006.022h0l.006.022h0l.006.022h0l.017.067v0L72,27.6h0l.011.045h0l.006.022v0l.011.044h0l.005.022v0l.011.044h0l.005.022v0l.011.043v0l.005.022h0l.011.044v0l.005.021v0l.011.043v0l.005.022h0l.011.044v0l.005.022h0l.011.044v0l.005.022h0l.005.022h0l.005.022v0l.005.022h0l.011.045v0l.01.045h0l.005.022v0l.005.022h0l.005.023h0l.005.022h0l.01.045h0l.005.023h0l.01.045h0l.005.022h0l.01.045h0l.005.022h0l.01.045h0l0,.022h0l.01.044v0l0,.022h0l.01.044v0l0,.022h0l.01.044v0l0,.022h0l0,.022h0l0,.022v0l.01.045h0l0,.022v0l0,.022h0l0,.022h0l0,.022v0l0,.022h0l0,.022h0l0,.022v0l.009.044v0l0,.022v0l.009.045h0l0,.022h0l.009.045h0l0,.023h0l.009.045h0l0,.022h0l.009.045v0l0,.022h0l.009.045h0l0,.022h0l.009.045v0l.009.045h0l0,.022v0l0,.022h0l0,.022h0l0,.022v0l.009.045h0l0,.022v0l0,.022h0l0,.021v0l0,.021v0l.008.044v0l0,.022v0l.008.044v0l0,.021v0l.008.044v0l0,.021v0l.008.044v0l0,.021v0l.008.044v0l0,.022h0l.008.045v0l0,.022v0l0,.022h0l0,.022v0l0,.022v0l0,.021v0l0,.021v0l0,.021v0l0,.021h0l0,.021v0l0,.021h0l0,.021v0l0,.021v0l0,.021h0l0,.02v0l0,.021v0l.007.043v0l0,.021v0l.007.044v0l0,.021v0l.007.043v0l0,.021v0l.007.043v0l0,.021v0l0,.022h0l0,.021v0l0,.021v0l0,.021h0l0,.022v0l0,.021v0l0,.021v0l0,.022v0l0,.022h0l0,.023h0l0,.022v0l0,.022h0l0,.021v0l0,.021v0l.007.044v0l0,.021v0l0,.021h0l0,.021v0l0,.022v0l.006.044v0l0,.022v0l.006.044v0l0,.021v0l.006.044v0l0,.022v0l.006.045v0l0,.022v0l0,.022h0l0,.022v0l0,.021v0l0,.022h0l0,.022v0l0,.022v0l.006.045v0l0,.022h0l0,.022v0l0,.022v0l.006.046h0l0,.022v0l0,.022h0l0,.022v0l0,.022v0l0,.022h0l0,.022v0l0,.022v0l.005.044v0l0,.022v0l.005.044v0l0,.022v0l.005.045v0l0,.022v0l0,.022h0l0,.022v0l0,.022v0l0,.022h0l0,.022v0l0,.022h0l.005.046v0l0,.022v0l0,.022h0l0,.022v0l0,.022h0l0,.022v0l0,.022v0l0,.022h0l0,.022v0l0,.022v0l0,.022h0l0,.022v0l0,.022v0l0,.022h0l0,.022v0l0,.022v0l0,.045v0l0,.022v0l0,.045v0l0,.022v0l0,.044v0l0,.022v0l0,.022h0l0,.022v0l0,.022v0l0,.022h0l0,.022v0l0,.022v0l0,.022h0l0,.022v0l0,.022v0l0,.021v0l0,.022v0l0,.022h0l0,.021v0l0,.022v0l0,.022h0l0,.022v0l0,.021v0l0,.021v0l0,.02v0l0,.021v0l0,.021v0l0,.02v0l0,.021v0l0,.044v0l0,.022v0l0,.044v0l0,.021v0l0,.021h0l0,.022v0l0,.022v0l0,.022h0l0,.022v0l0,.021v0l0,.02v0l0,.021v0l0,.021v.026l0,.021v0l0,.022v.363h0v.071h0v.072h0v.486h0v.145h0v.073h0v.488h0v.072h0v.367c0,.008,0,.014,0,.022v.029c0,.007,0,.013,0,.02v.246s0,0,0,0,0,.014,0,.022h0c0,.007,0,.015,0,.021v0c0,.007,0,.014,0,.021v.026h0c0,.007,0,.014,0,.021s0,0,0,0,0,.014,0,.021,0,0,0,0,0,.015,0,.022h0c0,.006,0,.013,0,.019v.005c0,.005,0,.011,0,.016s0,0,0,0,0,.012,0,.019,0,0,0,.005,0,.01,0,.015,0,0,0,0,0,.013,0,.019,0,0,0,0,0,.011,0,.016,0,0,0,0,0,.013,0,.019v0c0,.006,0,.012,0,.017s0,0,0,.005,0,.012,0,.017v0q0,.01,0,.019s0,0,0,0,0,.011,0,.016v0c0,.006,0,.013,0,.019v0c0,.005,0,.01,0,.016s0,0,0,0,0,.013,0,.019v.019s0,0,0,.005,0,.012,0,.018,0,0,0,0,0,.011,0,.017v.11c0,.007,0,.013,0,.02v.234h0v.212h0v.021h0v.042h0v.084h0a37.166,37.166,0,0,1-.334,4.017h0l-.006.04v0l0,.019h0l0,.019v0l0,.016v0l0,.018v0l0,.016v0l0,.017v0l0,.015v.007l0,.013v.006l0,.016v.026l0,.015v0l-6.812-1a30.286,30.286,0,0,0,.315-4.369,29.646,29.646,0,0,0-6.108-18.13ZM65.24,44.554l6.646,1.8a36.6,36.6,0,0,1-1.613,4.7h0q-.084.2-.17.4h0l-.005.012h0l-.005.012h0l-.005.013h0l-.118.267h0l0,.011v0l0,.011v0l0,.01v0l0,.011v0l0,.01v0l0,.01v0l0,.01,0,0,0,.009,0,0,0,.008,0,0,0,.009,0,0,0,.009,0,0,0,.009,0,0,0,.009,0,0,0,.01v0l0,.01,0,0,0,.009v0l0,.01v0l-.044.1v0l-.011.025h0l-.005.012h0l0,.01v0l0,.011v0l0,.01,0,0,0,.009,0,0,0,.008,0,.005,0,.008,0,0,0,.009,0,0,0,.008,0,0,0,.008,0,.005,0,.008,0,0,0,.009,0,0,0,.008,0,.005,0,.007,0,.006,0,.007,0,.006,0,.007,0,.005,0,.007,0,.005,0,.008,0,.006,0,.007,0,0,0,.009,0,0,0,.009,0,0,0,.009,0,0-.04.084h0l0,.01,0,0,0,.009,0,0,0,.009,0,0,0,.009,0,0,0,.007,0,.006,0,.007,0,.005,0,.007,0,.006,0,.007,0,.006,0,.006,0,.007,0,.006,0,.007,0,.006,0,.007,0,.006,0,.007,0,.005,0,.008,0,.005,0,.007,0,.005,0,.007,0,.006,0,.008,0,0,0,.009,0,0,0,.009,0,0,0,.009,0,0,0,.009v0l0,.009,0,0,0,.009v0l0,.009,0,0-.025.051,0,0,0,.009v0l0,.01,0,.006,0,.007,0,.006,0,.006,0,.006,0,.007,0,.005,0,.007,0,.006,0,.007,0,.006,0,.007,0,.006,0,.007,0,.005,0,.007,0,.006,0,.007,0,.006,0,.007,0,.006,0,.008,0,0,0,.007,0,.005,0,.008,0,.005,0,.007,0,.005,0,.008,0,0,0,.008,0,0,0,.008,0,0,0,.008,0,0,0,.009,0,0,0,.009,0,0,0,.01v0l-.006.011v0l-.026.051h0l-.006.012,0,0,0,.009,0,0,0,.008,0,0,0,.008,0,0,0,.008,0,0,0,.008,0,.005,0,.008,0,0,0,.009,0,0,0,.008,0,0,0,.009,0,0,0,.009,0,0,0,.009,0,0,0,.009v0l-.005.01v0l-.005.011h0l-.005.011v0l-.005.011v0l-.006.011v0l-.012.024h0l-.078.153h0l-.006.012h0l-.006.013h0l-.013.025v0l-.006.011h0l-.006.012v0l-.006.011h0l-.006.011v0l-.006.011h0l-.006.011v0l-.006.011h0l-.006.011v0L69,53.764h0L69,53.777h0l-.013.025h0l-.107.2h0l-.027.05h0l-.02.037h0l-.006.012v0a36.85,36.85,0,0,1-5.643,7.865h0l-.039.041h0l-.029.031h0l-.008.009,0,0-.009.009h0l-.009.01h0l-.009.01h0l-.009.01h0l-.117.123,0,0-.008.009h0l-.009.01h0l-.009.009h0l-.009.009v0l-.009.009h0l-.008.009,0,0-.007.008,0,0-.007.007,0,0-.007.007,0,0-.007.008,0,0-.008.008,0,0-.008.008,0,0-.008.008,0,0-.007.008,0,0-.008.008,0,0-.007.008,0,0-.008.008,0,0-.008.009,0,0-.009.01h0l-.1.1h0l-.008.009,0,0-.007.007,0,0-.006.007,0,0-.006.006,0,0-.007.007,0,0-.007.008,0,0-.008.008,0,0-.007.007,0,0-.008.008,0,0-.007.008,0,0-.007.007,0,0-.007.007,0,0-.007.007,0,0-.008.008,0,0-.008.008,0,0-.008.008,0,0-.008.008,0,0-.009.009h0l-.008.008,0,0-.009.009h0l-.07.07h0l-.009.009h0l-.009.009,0,0-.008.008,0,0-.007.007,0,0-.006.006,0,0-.005.005,0,0-.006.006,0,0,0,0-.005.005-.005,0,0,0-.005.005,0,0-.006.006,0,0-.005.005,0,0-.005.005,0,0-.005,0,0,0-.005.005,0,0,0,0-.006.006,0,0-.005.005-.005.005,0,0-.006.006,0,0-.005.005-.005,0,0,0L62.173,63l-.006.005,0,0-.006.006,0,0,0,0-.005.005,0,0-.006.006-.02.02,0,0-.006.006,0,0-.005.005,0,0-.006.006,0,0,0,0-.006.006,0,0-.006.006,0,0-.005.005,0,0-.006.005,0,0-.006.006,0,0-.006.006,0,0-.006.006,0,0L62,63.175l0,0-.007.007,0,0-.007.007,0,0-.006.006,0,0-.006.006,0,0-.007.006,0,0-.007.007,0,0-.007.006,0,0-.007.007,0,0-.007.007,0,0-.008.008h0l-.008.008,0,0-.008.007h0l-.009.009h0l-.118.113h0l-.01.009h0l-.009.009,0,0-.009.008h0l-.009.008,0,0-.009.009h0l-.009.009h0l-.009.009h0l-.01.009h0A36.692,36.692,0,0,1,54.322,68.9L50.976,62.85A30,30,0,0,0,65.24,44.554ZM24.714,64.115a29.675,29.675,0,0,0,23.12.255l2.613,6.4a36.165,36.165,0,0,1-6.5,1.99h0l-.433.086h0l-.013,0h0l-.012,0h0l-.013,0h0l-.027.005h0l-.027.005h0l-.013,0h0l-.013,0h0l-.027.005h0l-.281.052-.014,0-.013,0-.015,0-.014,0-.014,0-.014,0-.014,0-.014,0-.014,0-.014,0-.015,0-.014,0h0l-.084.015h0l-.212.036h0l-.015,0-.014,0-.014,0-.014,0-.014,0-.014,0-.015,0-.014,0-.015,0-.014,0-.014,0-.013,0-.015,0-.014,0-.015,0-.014,0-.015,0-.014,0-.014,0-.014,0-.014,0-.014,0h0l-.014,0-.028,0h0l-.113.018-.014,0-.014,0-.015,0-.014,0-.015,0-.014,0-.014,0-.014,0-.015,0L42,73.1l-.014,0-.013,0-.014,0-.014,0-.014,0-.013,0-.015,0-.015,0-.014,0-.014,0-.015,0-.015,0-.014,0-.013,0-.015,0h0l-.041.006h0l-.057.008h0l-.015,0-.014,0-.018,0-.014,0-.013,0-.014,0-.015,0-.015,0-.013,0-.014,0-.015,0-.015,0-.014,0-.015,0-.014,0-.014,0-.013,0-.014,0-.014,0-.014,0-.014,0-.014,0-.014,0-.014,0-.014,0-.015,0-.014,0-.014,0-.014,0-.015,0-.014,0-.014,0-.057.007h0l-.026,0-.014,0-.014,0-.015,0-.014,0-.014,0-.014,0-.014,0-.014,0-.014,0-.014,0-.014,0-.014,0-.014,0-.014,0-.015,0-.014,0-.015,0-.014,0-.014,0-.014,0-.014,0-.014,0-.014,0-.014,0-.014,0-.014,0-.015,0-.013,0h-.013l-.015,0-.02,0h0l-.043,0-.014,0-.014,0-.014,0-.014,0-.014,0-.014,0-.014,0-.014,0-.014,0-.014,0-.014,0-.014,0-.014,0-.014,0-.014,0h-.084l-.015,0H40.3l-.015,0h-.043l-.016,0-.029,0h0l-.028,0h-.485l-.021,0h-.48l-.043,0h-.476l-.034,0H34.516l-.057,0h0l-.056,0h-.416l-.049,0-.03,0h-.439l-.055,0h-.435l-.128-.013h-.012l-.015,0-.015,0-.015,0h-.013l-.015,0-.015,0-.015,0-.014,0-.015,0-.014,0-.015,0-.014,0-.014,0-.015,0-.015,0-.014,0-.014,0-.015,0-.015,0-.015,0-.014,0-.014,0-.015,0h0l-.157-.018h0l-.015,0-.014,0-.014,0-.014,0-.014,0-.015,0-.014,0-.015,0-.015,0-.015,0-.015,0-.015,0-.014,0-.014,0-.014,0-.014,0-.014,0-.014,0-.014,0-.015,0-.014,0-.015,0-.028,0h0l-.256-.033-.015,0-.014,0-.015,0-.014,0-.015,0-.014,0-.014,0-.014,0-.015,0-.014,0-.014,0-.014,0-.015,0h0l-.043-.006h0l-.284-.041h0l-.056-.008-.014,0h0l-.042-.006-.015,0h0l-.042-.006h0L31,73.083h0a36.175,36.175,0,0,1-9.043-2.628ZM7.745,43.92A30,30,0,0,0,21.6,62.526L18.127,68.5q-.915-.538-1.8-1.128h0l-.011-.007h0l-.01-.007h0l-.011-.007h0l-.011-.008h0l-.022-.015h0l-.011-.007h0l-.011-.008h0l-.011-.007h0l-.011-.007h0l-.01-.007h0l-.023-.015h0l-.011-.007h0l-.135-.092h0l-.01-.007h0L16,67.145h0l-.01-.007h0l-.009-.006,0,0-.009-.006,0,0-.009-.006h0l-.009-.006,0,0-.009-.006,0,0-.009-.006h0l-.01-.007h0l-.009-.006,0,0-.009-.006h0l-.009-.007h0l-.01-.007h0l-.01-.007h0l-.044-.03h0l-.088-.061,0,0-.008-.006,0,0-.007,0-.005,0-.006,0-.005,0-.006,0-.006,0-.006,0-.005,0-.006,0-.005,0-.006,0,0,0-.007,0,0,0-.006,0,0,0-.006,0-.006,0-.006,0-.006,0-.005,0-.006,0-.005,0-.006,0-.006,0-.006,0-.005,0-.006,0-.006,0-.006,0-.006,0-.006,0-.006,0-.006,0-.006,0-.005,0-.006,0-.006,0-.005,0-.006,0-.006,0-.005,0-.006,0,0,0-.007-.005,0,0-.007-.005-.006,0,0,0-.035-.025h0l-.011-.008h0l-.01-.007,0,0-.009-.006,0,0-.007-.005,0,0-.008-.006,0,0-.008-.006,0,0-.008-.006,0,0-.007-.005,0,0-.007-.005,0,0-.007,0,0,0-.007,0-.005,0-.006,0,0,0-.008-.006,0,0-.008-.006,0,0-.008-.006,0,0-.007-.005,0,0-.007-.005,0,0-.007-.005,0,0-.007-.005,0,0-.008-.005,0,0-.009-.006,0,0-.011-.008h0l-.01-.007h0l-.011-.008h0l-.011-.008h0l-.022-.016h0l-.045-.033h0l-.01-.007h0l-.009-.007,0,0L15,66.434h0l-.009-.007,0,0-.008-.006,0,0-.009-.007h0l-.01-.007h0l-.009-.007,0,0-.009-.006,0,0-.009-.007,0,0-.009-.007,0,0-.008-.006,0,0-.009-.006,0,0-.01-.007h0l-.01-.007h0l-.009-.007,0,0-.01-.007h0l-.011-.008h0l-.01-.008h0l-.01-.007h0l-.182-.136h0l-.045-.034h0l-.045-.034h0A36.793,36.793,0,0,1,1.06,45.575ZM8.024,13.78,13.4,18.107A29.6,29.6,0,0,0,6.884,36.753a30.35,30.35,0,0,0,.228,3.72L.28,41.325c-.016-.127-.03-.252-.045-.379h0v-.03l0-.039v-.131l0-.017h0l0-.017v0l0-.014v0l0-.016h0L.2,40.621h0Q.049,39.173.012,37.694h0l0-.071V37.55h0v-.017h0v-.053h0v-.053h0v-.09H0v-.162H0v-.236c0-.006,0-.011,0-.017H0v-.039s0-.008,0-.011V36.86s0-.009,0-.013v0q0-.008,0-.016s0,0,0-.005,0-.008,0-.012,0,0,0-.006,0-.007,0-.011,0,0,0-.007,0-.007,0-.011V36.77c0-.006,0-.011,0-.017H0c0-.007,0-.016,0-.023s0,0,0,0,0-.014,0-.022,0,0,0,0,0-.015,0-.022v-.024s0,0,0,0,0-.015,0-.022,0,0,0,0V36.6c0-.015,0-.031,0-.046V36.4H0v-.355h0v-.177h0v-.176h0v-.176h0v-.176h0v-.352h0v-.075h0v-.1h0V34.63h0v-.075h0v-.175h0v-.152l0-.046v0l0-.022v0l0-.023v0l0-.023h0l0-.023v0l0-.022v0L.1,34v0l0-.022v0l0-.023v0l0-.023h0l0-.023v0l0-.023v0l0-.047v0l0-.023v0l0-.023h0l0-.024h0l0-.023v0l0-.022v0l0-.046v0l0-.022v0l0-.022v0l0-.022v0l0-.022v0l0-.022v0l0-.046v0l0-.022v0l0-.023h0l0-.023h0l0-.022v0l0-.022v0l0-.023h0l0-.023v0l0-.022v0l0-.023h0l0-.023v0l0-.023v0l0-.022v0l0-.046v0l0-.022v0l0-.023h0l0-.024h0l0-.023v0l0-.023h0l0-.048v0l0-.023v0l0-.048h0l0-.023v0l0-.023v0l0-.046v0l0-.022v0l0-.023h0l0-.022v0l0-.022v0l0-.022v0l0-.023h0l0-.023v0l0-.022v0l.005-.047h0l0-.023v0l0-.023h0l.005-.047v0l0-.023v0l.006-.047v0l0-.023v0l0-.023h0l.006-.047v0l0-.022v0l.006-.047v0l0-.023v0l0-.023v0l.006-.046v0l0-.023v0L.3,32.019v0L.3,32v0l0-.022v0l0-.022h0l0-.023v0l0-.022v0l.006-.046v0l0-.022v0l0-.022v0l0-.023h0l0-.022v0l0-.022v0l.006-.046v0l0-.022v0l0-.023h0l0-.024h0l0-.023v0l0-.022v0L.37,31.5v0l0-.022v0l0-.022v0l0-.023h0l0-.023v0l0-.023v0L.4,31.333v0l0-.022v0l0-.023h0l0-.023h0l0-.023v0l0-.022v0l.007-.046v0l0-.023v0l0-.023h0l0-.023h0l0-.023v0l0-.022v0l.007-.046v0l0-.022v0l0-.022h0l0-.023h0l0-.022v0l0-.022v0l.007-.046v0l0-.022v0l0-.022v0l0-.023h0l0-.023v0l0-.023h0L.5,30.649v0l0-.023v0l0-.023h0l0-.022v0l0-.022v0l0-.022v0l.008-.046v0l0-.022v0l0-.022h0l0-.022v0l0-.022v0l0-.022v0L.56,30.31v0l0-.022v0l.013-.07h0l0-.023v0l.008-.047h0l0-.023v0L.6,30.067h0l0-.023v0l0-.023h0l.009-.047h0l0-.023h0L.635,29.9h0l0-.023v0l0-.023h0L.653,29.8h0l0-.023h0l.009-.047h0l0-.023v0l0-.023h0l.009-.047h0l0-.023v0L.7,29.56h0l0-.023v0l0-.023h0l.01-.048h0l0-.024h0l.01-.047h0l0-.023h0L.753,29.3h0l0-.024h0l.01-.047h0l0-.023h0l.015-.071h0l0-.023h0l.01-.047h0l0-.023v0l.015-.07h0l0-.023h0l.015-.07h0l.005-.023h0l.01-.047h0l.005-.023h0L.881,28.7h0L.9,28.626h0L.9,28.6h0l.032-.142h0l.022-.095h0l.016-.071h0l.005-.023h0l.011-.047h0L1,28.2H1l.017-.07h0l.006-.023h0l.011-.047h0l.006-.023h0l.017-.07h0l.006-.023h0l.011-.047h0l.006-.023h0l.017-.07h0l.024-.094h0q.03-.118.06-.236h0L1.2,27.37h0l.018-.07h0l.006-.023h0l.012-.047h0l.006-.023h0l.019-.07h0A36.7,36.7,0,0,1,8.024,13.78ZM36.574,0V6.918A29.44,29.44,0,0,0,15.737,15.5l-4.832-4.928a36.819,36.819,0,0,1,4.743-3.966h0l.113-.079h0q.316-.22.637-.434h0l.011-.007h0l.011-.007h0l.01-.007h0l.01-.007,0,0,.009-.006h0l.01-.006h0l.01-.006h0l.009-.006,0,0,.008-.005,0,0,.009-.006,0,0,.009-.006h0L16.536,6l0,0,.009-.006h0l.01-.006h0l.01-.006h0l.009-.006,0,0,.009-.006,0,0,.009-.006,0,0,.009-.006h0l.009-.006,0,0,.009-.006h0l.009-.006,0,0,.009-.006,0,0,.008-.005,0,0,.008-.005,0,0L16.7,5.9l0,0,.008-.005,0,0,.008-.005,0,0,.008-.005,0,0,.008-.006,0,0,.009-.006,0,0,.008-.005,0,0,.008-.005,0,0,.008-.005,0,0,.009-.006,0,0,.009-.006,0,0,.009-.006,0,0,.009-.006,0,0,.009-.006,0,0,.008-.005,0,0,.007,0,0,0,.008-.005,0,0,.009-.006,0,0,.008-.005,0,0,.008-.005,0,0,.008-.005,0,0,.009-.006,0,0,.008-.005,0,0,.007,0,0,0,.008,0,0,0,.008-.005,0,0L17,5.7l0,0,.008-.005,0,0,.009-.005,0,0,.009-.006,0,0,.007,0,0,0,.007,0,0,0,.008,0,0,0,.008-.005,0,0,.007,0,0,0,.008-.005,0,0,.008-.005,0,0,.008-.005,0,0,.007,0,.005,0,.007,0,0,0,.008,0,0,0,.008-.005,0,0,.007,0,0,0,.007,0,0,0,.008,0,0,0,.008-.005,0,0,.005,0,.006,0,0,0,.007,0,.006,0,.005,0,.006,0,.005,0,.005,0,.006,0,.01-.006h0l.022-.014h0l.007,0,0,0,.009-.006h0l.07-.044,0,0,.006,0,.01-.006h0l.007,0,.005,0,.007,0,0,0,.007,0,0,0,.006,0,.005,0,0,0,.007,0,.006,0,.005,0,.008,0,0,0,.009-.005,0,0,.008,0,0,0,.009-.005,0,0,.009-.005,0,0,.008-.005,0,0,.007,0,0,0,.008,0,0,0,.008-.005,0,0,.009-.005,0,0,.008,0,0,0,.008,0,0,0,.007,0,0,0,.008,0,0,0,.006,0,.006,0,.006,0,.005,0,.007,0,0,0,.007,0,0,0,.006,0,.006,0,.007,0,.005,0,.006,0,.005,0,.006,0,.006,0,0,0,.007,0,.005,0,.006,0,.006,0,0,0,.007,0,0,0,.006,0,.005,0,.007,0,0,0,.007,0,0,0,.007,0,.005,0,.006,0,.006,0,.007,0,0,0,.008,0,0,0,.008,0,0,0,.007,0,.005,0,.007,0,0,0,.007,0,0,0,.007,0,0,0,.006,0,.006,0,.007,0,0,0,.008,0,0,0,.009-.005,0,0,.008,0,0,0,.008,0,0,0,.008,0,0,0,.008,0,0,0,.007,0,.005,0,.007,0,0,0,.008,0,0,0,.008,0,0,0,.007,0,0,0,.007,0,0,0,.007,0,0,0,.008,0,0,0,.007,0,.005,0,.007,0,0,0,.008,0,0,0,.009-.005h0l.009-.005,0,0,.009-.005,0,0,.009-.005,0,0,.009-.005,0,0,.008,0,0,0,.008,0,0,0,.009-.005h0l.01-.006h0l.01-.006h0L18.3,4.91h0l.009-.006h0l.01-.006h0l.01-.006,0,0,.009,0h0l.01-.006h0l.023-.013h0l.046-.027h0q.189-.109.379-.215h0l.023-.013h0l.023-.013h0l.011-.006h0l.011-.006h0l.011-.006h0l.01-.006h0l.011-.006h0l.035-.02h0l.012-.006h0l.012-.006h0l.012-.006h0L19,4.512h0l.012-.006h0l.012-.007h0l.024-.013h0l.036-.02h0l.011-.006h0l.011-.006h0l.084-.046h0l.011-.006h0l.011-.006h0l.024-.013h0l.011-.006h0l.011-.006h0l.01-.006h0l.01-.005h0l.01-.005h0l.01-.005h0l.01-.006h0l.011-.006h0l.011-.006h0l.011-.006h0l.011-.006h0l.011-.006h0L19.4,4.3h0l.011-.006h0l.036-.019h0l.012-.006h0l.024-.013h0A36.2,36.2,0,0,1,29.938.6h0l.223-.04h0q.446-.079.9-.148h0l.013,0h0l.014,0h0L31.127.4h0l.015,0,.014,0,.014,0,.014,0,.014,0,.028,0h0l.014,0h0l.015,0,.013,0h0l.014,0,.013,0h0l.013,0h0l.013,0h0l.013,0h0l.013,0h0l.013,0h0l.013,0h0l.012,0h0l.013,0h0l.013,0h0l.013,0h0l.013,0h0l.013,0h0l.013,0h0l.013,0h0l.015,0,.014,0,.014,0,.014,0,.014,0,.013,0h0l.015,0,.014,0,.015,0,.013,0h0l.014,0h0l.013,0h0l.014,0h0l.027,0h0l.014,0h0l.014,0h0q.324-.043.651-.081h0l.027,0h.016l.015,0h.014l.015,0h.042l.015,0,.014,0,.014,0,.014,0,.014,0H32.6l.015,0,.015,0,.015,0h.014l.014,0h.014L32.7.2h.028l.014,0,.015,0h.1l.015,0H33.4l.313-.026h2.861Z" transform="translate(4.568 2.27)" fill="#95d298"/>
        </g>
        <g id="Mask_Group_9" data-name="Mask Group 9" transform="translate(1187.914 531.023)" clip-path="url(#clip-path-2)">
          <path id="Ellipse_200" data-name="Ellipse 200" d="M36.753,0h2.335l.035,0,.048,0H39.9l.054,0h.551l.015,0h.015l.015,0h.014l.015,0H40.6l.015,0h.019l.025,0h0l.083.009h0l.027,0,.015,0H40.8l.016,0h.026l.014,0,.016,0,.015,0,.014,0,.014,0,.015,0,.014,0,.014,0,.014,0,.015,0,.015,0,.015,0,.015,0,.015,0,.015,0,.014,0,.014,0,.015,0,.015,0,.015,0,.014,0,.014,0,.015,0,.014,0,.014,0,.015,0,.015,0,.014,0,.015,0,.015,0,.015,0,.014,0,.014,0,.015,0,.015,0,.015,0,.015,0,.014,0,.015,0h0l.016,0,.015,0,.125.016h0l.014,0,.015,0,.014,0,.014,0,.014,0,.014,0,.015,0,.014,0,.014,0,.015,0,.015,0,.014,0,.014,0,.015,0,.015,0,.014,0,.014,0,.015,0,.015,0,.014,0,.014,0,.015,0,.015,0,.014,0,.014,0,.014,0,.015,0,.014,0,.014,0,.014,0,.015,0,.014,0,.014,0,.014,0,.016,0,.014,0,.014,0,.013,0,.016,0,.013,0,.014,0,.2.029.016,0h0l.015,0,.014,0,.014,0,.014,0h0l.013,0h0l.028,0h0l.014,0,.015,0,.014,0,.015,0,.013,0h0l.014,0,.014,0,.015,0,.014,0,.014,0,.014,0,.015,0,.014,0,.014,0,.014,0,.015,0,.014,0,.015,0,.014,0,.014,0,.014,0,.014,0,.014,0,.015,0,.014,0,.014,0,.012,0h0l.015,0,.013,0L43.2.564h0l.013,0h0l.014,0,.014,0,.014,0,.014,0,.014,0,.014,0,.014,0,.014,0,.014,0,.014,0,.014,0,.013,0h0L43.4.6l.014,0,.014,0,.014,0,.012,0,.014,0,.014,0,.015,0h0l.012,0h0l.012,0h0l.012,0h0l.012,0h0l.012,0,.014,0h0l.012,0h0l.027.005h0l.028.005h0l.28.054h0l.027.005h0l.013,0h0l.013,0h0l.013,0h0l.012,0h0l.012,0h0l.012,0h0l.013,0h0l.013,0h0l.012,0h0l.012,0h0l.012,0h0l.012,0h0l.012,0,.013,0,.014,0h0l.011,0h0l.011,0h0l.011,0h0l.012,0h0l.013,0h0l.013,0h0l.013,0h0l.111.023h0l.335.072h0l.055.012h0L44.8.884h0l.013,0h0l.012,0h0l.012,0h0l.013,0h0l.012,0h0l.012,0h0l.012,0h0l.012,0h0l.012,0h0l.011,0h0l.011,0h0l.012,0h0l.012,0h0l.012,0h0l.012,0h0l.012,0h0l.012,0h0l.012,0h0l.012,0h0l.013,0h0l.027.006h0l.387.092h0l.055.013h0l.027.007h0l.027.007h0l.013,0h0l.013,0h0l.082.021h0l.013,0h0l.013,0h0l.041.01h0q.3.075.59.154h0l.013,0h0l.013,0h0l.082.022h0q.274.075.545.154h0l.054.016h0l.054.016h0l.108.032h0l.432.131h0l.013,0h0l.013,0h0l.026.008h0l.053.017h0l.013,0h0l.148.047h0q.242.077.482.158h0l.026.009h0l.013,0h0l.012,0h0l.012,0h0l.012,0h0l.012,0h0l.012,0h0l.012,0h0l.012,0h0l.013,0h0l.012,0h0l.012,0h0l.012,0h0l.026.009h0l.013,0h0l.013,0h0l.012,0h0l.013,0h0q.24.082.477.168h0l.026.009h0l.026.009h0l.013,0h0l.013,0h0l.012,0h0l.012,0h0l.012,0h0l.012,0h0l.012,0h0l.012,0h0l.012,0h0l.012,0h0l.011,0h0l.011,0h0l.011,0h0l.012,0h0l.025.009h0l.026.01h0l.026.01h0l.315.118h0l.026.01h0l.026.01h0l.052.02h0l.012,0h0l.012,0h0l.012,0h0l.012,0h0l.012,0h0l.012,0h0l.012,0h0l.011,0h0l.011,0h0l.012,0h0l.012,0h0l.012,0h0l.011,0h0l.011,0h0l.011,0h0l.011,0h0l.011,0h0l.012,0h0l.012,0h0l.011,0h0l.011,0h0l.011,0h0l.012,0h0l.011,0h0l.3.119h0l.011,0h0l.011,0h0l.012,0h0l.012,0h0l.011,0h0l.01,0h0l.011,0h0l.011,0h0l.01,0h0l.01,0h0l.011,0h0l.012,0h0l.011,0h0l.01,0h0l.01,0h0l.011,0h0l.01,0h0l.01,0h0l.011,0h0l.011,0h0l.011,0h0l.011,0h0l.012,0h0l.012,0h0l.012,0h0l.011,0h0l.064.027h0l.025.011h0l.2.086h0l.012.005h0l.012,0h0l.024.01h0l.012.005h0l.011,0h0l.011,0h0l.01,0h0l.011,0h0l.012.005h0L51.316,3h0l.011,0h0l.011,0h0l.01,0h0l.01,0h0l.01,0h0l.011,0h0l.011,0h0l.011,0h0l.01,0h0l.01,0h0l.01,0h0l.01,0,0,0,.009,0h0l.01,0h0l.01,0h0l.011,0h0l.01,0h0l.01,0h0l.01,0h0l.01,0h0l.01,0h0l.011,0h0l.011,0h0l.011.005h0l.012.005h0l.012.005h0l.178.079h0l.011,0h0l.009,0,0,0,.009,0,0,0,.007,0,.006,0,.007,0,.005,0,.007,0,.006,0,.008,0,0,0,.009,0,0,0,.009,0,0,0,.008,0,0,0,.008,0,0,0,.008,0,.005,0,.008,0,0,0L52,3.3l0,0,.009,0,0,0,.009,0,0,0,.009,0,0,0,.009,0,0,0,.008,0,0,0,.007,0,.006,0,.008,0,0,0,.008,0,0,0,.009,0h0l.009,0,0,0,.01,0h0l.009,0,0,0,.009,0,0,0,.008,0,0,0,.008,0,0,0,.008,0,0,0,.008,0,.005,0,.007,0,.005,0,.008,0,.005,0,.007,0,.006,0,.007,0,.006,0,.006,0,.007,0,.007,0,.006,0,.007,0,.006,0,.008,0,0,0,.008,0,0,0,.009,0h0l.011.005,0,0,.009,0h0l.011,0,0,0,.021.01h0l.068.032.005,0,.008,0,0,0,.009,0,0,0,.009,0h0l.009,0,0,0,.011.005h0l.009,0,0,0,.007,0,.005,0,.006,0,.007,0,.006,0,.006,0,.006,0,.007,0,.006,0,.006,0,.006,0,.007,0,.006,0,.006,0,.007,0,.006,0,.006,0,.007,0,0,0,.008,0,0,0,.007,0,.006,0,.007,0,.006,0,.007,0,.006,0,.007,0,.007,0,.005,0,.008,0,.005,0,.007,0,.006,0,.006,0,.007,0,.006,0,.006,0,.007,0,.006,0,.007,0,.006,0,.007,0,.006,0,.007,0,.005,0,.008,0,.005,0,.007,0,.006,0,.006,0,.007,0,.006,0,.005,0,.007,0,.005,0,.007,0,.005,0,.007,0,.005,0,.008,0,0,0,.01,0h0l.01.005h0l.009,0,0,0,.009,0h0l.01,0h0l.01,0h0l.01,0,0,0,.009,0h0l.01,0h0l.01.005.009,0h0l.008,0,.029.015h0l.006,0,.007,0,.008,0,0,0,.01.005h0l.009,0,0,0,.006,0,.007,0,.006,0,.007,0,.007,0,.006,0,.008,0,.005,0,.006,0,.007,0,.006,0,.006,0,.007,0,.006,0,.007,0,.006,0,0,0,.008,0,0,0,.009,0,0,0,.009,0,0,0,.008,0,0,0,.008,0,0,0,.008,0,0,0,.007,0,.006,0,.007,0,0,0,.008,0,0,0,.009,0,0,0,.009,0,0,0,.008,0,0,0,.009,0,0,0,.009,0,0,0,.009,0,0,0,.009,0h0l.01.005h0l.01,0h0l.009,0,0,0,.009,0,0,0,.009,0,0,0,.008,0,0,0,.008,0,.005,0,.008,0,0,0,.008,0,0,0,.008,0,0,0,.008,0,0,0,.009,0,0,0,.009,0,0,0,.009,0,0,0,.008,0,0,0,.011.005h0l.011.006h0l.012.006h0l.01.005h0l.024.013h0l.021.011.005,0,.049.025,0,0,.01.005h0l.012.006,0,0,.01.005,0,0,.009,0,0,0,.022.012h0l.01.005h0l.009,0,0,0,.009,0,0,0,.009,0,0,0,.008,0,0,0,.008,0,.005,0,.008,0,0,0,.009,0,0,0,.008,0,0,0,.008,0,0,0,.008,0,0,0,.008,0,0,0,.008,0,0,0,.008,0,0,0,.009,0h0l.009,0,0,0,.009,0,0,0,.008,0,0,0,.008,0,0,0,.008,0,0,0,.008,0,0,0,.008,0,0,0,.009,0,0,0,.009,0,0,0,.009,0,0,0,.009.005,0,0,.011.006h0l.011.006h0l.012.007h0l.012.007h0l.025.013h0l.025.013h0l.012.007h0l.012.006h0l.012.007h0l.173.1h0l.011.006,0,0,.009,0,0,0,.009,0,0,0,.009,0,0,0,.009.005,0,0,.01.005h0l.01.006h0l.011.006h0l.011.006h0l.012.006h0l.012.007h0l.011.006h0l.011.006h0l.011.006h0l.01.006,0,0,.01.005h0l.01.006h0l.01.006h0l.01.006h0l.01.006h0l.01.006h0l.011.006h0l.011.006h0l.011.006h0l.012.007h0l.024.014h0l.1.056h0l.342.2h0l.024.014h0l.023.014h0l.023.014h0l.024.014h0l.049.029h0q.34.2.676.41h0a36.92,36.92,0,0,1,6.991,5.631l-4.962,4.821a29.6,29.6,0,0,0-21.4-9.047V0ZM65.942,14.415a36.686,36.686,0,0,1,5.231,9.42h0l.049.131h0q.117.316.229.635h0l.023.066h0l.023.066h0l.023.066h0l.045.132h0l.045.132h0l.015.044h0l.066.2h0l.022.067h0l.022.066h0l.021.066h0l.021.066h0l.021.066h0c.04.126.079.252.118.379h0l.02.066h0l.02.066h0l.007.022h0l.013.044h0l.02.066h0l.013.044h0l.006.022h0l.013.044h0l.007.022h0l.02.067h0l.013.044h0l.006.022h0l.013.045h0l.006.022h0l.013.045h0l.019.067h0l.019.067h0l.019.066v0l.012.044h0l.006.022v0l.012.044h0l.006.022h0l.012.044h0l.006.021v0l.012.044h0l.006.022h0l.012.044v0l.006.021v0l.012.043v0l.006.021v0l.012.044h0l.006.022h0l.012.044v0l.006.022h0l.006.022h0l.006.022h0l.017.067v0l.017.067h0l.011.045h0l.006.022v0l.011.044h0l.005.022v0l.011.044h0l.005.022v0l.011.043v0l.005.022h0l.011.044v0l.005.021v0l.011.043v0l.005.022h0l.011.044v0l.005.022h0l.011.044v0l.005.022h0l.005.022h0l.005.022v0l.005.022h0l.011.045v0l.011.045h0l.005.022v0l.005.022h0l.005.023h0l.005.022h0l.01.045h0l.005.023h0l.01.045h0l.005.022h0l.01.045h0l.005.022h0l.01.045h0l0,.022h0l.01.044v0l0,.022h0l.01.044v0l0,.022h0l.01.044v0l0,.022h0l0,.022h0l0,.022v0l.01.045h0l0,.022v0l0,.022h0l0,.022h0l0,.022v0l0,.022h0l0,.022h0l0,.022v0l.009.044v0l0,.022v0l.009.045h0l0,.022h0l.009.045h0l0,.023h0l.009.045h0l0,.022h0l.009.045v0l0,.022h0l.009.045h0l0,.022h0l.009.045v0l.009.045h0l0,.022v0l0,.022h0l0,.022h0l0,.022v0l.009.045h0l0,.022v0l0,.022h0l0,.021v0l0,.021v0l.008.044v0l0,.022v0l.008.044v0l0,.021v0l.008.044v0l0,.021v0l.008.044v0l0,.021v0l.008.044v0l0,.022h0l.008.045v0l0,.022v0l0,.022h0l0,.022v0l0,.022v0l0,.021v0l0,.021v0l0,.021v0l0,.021h0l0,.021v0l0,.021h0l0,.021v0l0,.021v0l0,.021h0l0,.02v0l0,.021v0l.007.043v0l0,.021v0l.007.044v0l0,.021v0l.007.043v0l0,.021v0l.007.043v0l0,.021v0l0,.022h0l0,.021v0l0,.021v0l0,.021h0l0,.022v0l0,.021v0l0,.021v0l0,.022v0l0,.022h0l0,.023h0l0,.022v0l0,.022h0l0,.021v0l0,.021v0l.007.044v0l0,.021v0l0,.021h0l0,.021v0l0,.022v0l.006.044v0l0,.022v0l.006.044v0l0,.021v0l.006.044v0l0,.022v0l.006.045v0l0,.022v0l0,.022h0l0,.022v0l0,.021v0l0,.022h0l0,.022v0l0,.022v0l.006.045v0l0,.022h0l0,.022v0l0,.022v0l.006.046h0l0,.022v0l0,.022h0l0,.022v0l0,.022v0l0,.022h0l0,.022v0l0,.022v0l.005.044v0l0,.022v0l.005.044v0l0,.022v0l.005.045v0l0,.022v0l0,.022h0l0,.022v0l0,.022v0l0,.022h0l0,.022v0l0,.022h0l.005.046v0l0,.022v0l0,.022h0l0,.022v0l0,.022h0l0,.022v0l0,.022v0l0,.022h0l0,.022v0l0,.022v0l0,.022h0l0,.022v0l0,.022v0l0,.022h0l0,.022v0l0,.022v0l0,.045v0l0,.022v0l0,.045v0l0,.022v0l0,.044v0l0,.022v0l0,.022h0l0,.022v0l0,.022v0l0,.022h0l0,.022v0l0,.022v0l0,.022h0l0,.022v0l0,.022v0l0,.021v0l0,.022v0l0,.022h0l0,.021v0l0,.022v0l0,.022h0l0,.022v0l0,.021v0l0,.021v0l0,.02v0l0,.021v0l0,.021v0l0,.02v0l0,.021v0l0,.044v0l0,.022v0l0,.044v0l0,.021v0l0,.021h0l0,.022v0l0,.022v0l0,.022h0l0,.022v0l0,.021V34l0,.021v0l0,.021v.026l0,.021v0l0,.022v.026l0,.022v.316h0v.071h0v.072h0v.486h0v.145h0v.073h0v.488h0v.072h0v.418c0,.007,0,.013,0,.02v.029c0,.007,0,.014,0,.021s0,0,0,0v.023c0,.007,0,.014,0,.021v.049s0,0,0,0v.026c0,.008,0,.014,0,.022v.026q0,.011,0,.022s0,0,0,0,0,.014,0,.022h0c0,.007,0,.015,0,.021v0c0,.007,0,.014,0,.021v0c0,.007,0,.014,0,.022h0c0,.007,0,.014,0,.021s0,0,0,0,0,.014,0,.021,0,0,0,0,0,.015,0,.022h0c0,.006,0,.013,0,.019v.005c0,.005,0,.011,0,.016s0,0,0,0,0,.012,0,.019,0,0,0,.005,0,.01,0,.015,0,0,0,0,0,.013,0,.019,0,0,0,0,0,.011,0,.016,0,0,0,0,0,.013,0,.019v0c0,.006,0,.012,0,.017v.005c0,.006,0,.012,0,.017v0q0,.01,0,.019s0,0,0,0,0,.011,0,.016v.042s0,0,0,0v.019s0,0,0,0v.016s0,0,0,.005,0,.012,0,.018v0c0,.006,0,.011,0,.017s0,0,0,.005v.126c0,.006,0,.012,0,.018v.215h0v.212h0v.021h0v.042h0v.084h0a36.989,36.989,0,0,1-.336,4.017h0l-.006.04v0l0,.019h0l0,.019v0l0,.016v0l0,.018v0l0,.016v0l0,.017v0l0,.015v.007l0,.013v.006l0,.016v.026l0,.015v0l-6.845-1a30.143,30.143,0,0,0,.317-4.369,29.552,29.552,0,0,0-6.138-18.13ZM65.56,44.554l6.679,1.8a36.472,36.472,0,0,1-1.621,4.7h0q-.084.2-.171.4h0l-.005.012h0l-.005.012h0l-.006.013h0l-.119.267h0l0,.011v0l0,.011v0l0,.01v0l0,.011v0l0,.01v0l0,.01v0l0,.01,0,0,0,.009,0,0,0,.008,0,0,0,.009,0,0,0,.009,0,0,0,.009,0,0,0,.009,0,0,0,.01v0l0,.01,0,0,0,.009v0l0,.01v0l-.044.1v0l-.011.025h0l-.005.012h0l0,.01v0l0,.011v0l0,.01,0,0,0,.009,0,0,0,.008,0,.005,0,.008,0,0,0,.009,0,0,0,.008,0,0,0,.008,0,.005,0,.008,0,0,0,.009,0,0,0,.008,0,.005,0,.007,0,.006,0,.007,0,.006,0,.007,0,.005,0,.007,0,.005,0,.008,0,.006,0,.007,0,0,0,.009,0,0,0,.009,0,0,0,.009,0,0-.04.084h0l0,.01,0,0,0,.009,0,0,0,.009,0,0,0,.009,0,0,0,.007,0,.006,0,.007,0,.005,0,.007,0,.006,0,.007,0,.006,0,.006,0,.007,0,.006,0,.007,0,.006,0,.007,0,.006,0,.007,0,.005,0,.008,0,.005,0,.007,0,.005,0,.007,0,.006,0,.008,0,0,0,.009,0,0,0,.009,0,0,0,.009,0,0,0,.009v0l0,.009,0,0,0,.009v0l0,.009,0,0-.025.051,0,0,0,.009v0l0,.01,0,.006,0,.007,0,.006,0,.006,0,.006,0,.007,0,.005,0,.007,0,.006,0,.007,0,.006,0,.007,0,.006,0,.007,0,.005,0,.007,0,.006,0,.007,0,.006,0,.007,0,.006,0,.008,0,0,0,.007,0,.005,0,.008,0,.005,0,.007,0,.005,0,.008,0,0,0,.008,0,0,0,.008,0,0,0,.008,0,0,0,.009,0,0,0,.009,0,0,0,.01v0l-.006.011v0l-.026.051h0l-.006.012,0,0,0,.009,0,0,0,.008,0,0,0,.008,0,0,0,.008,0,0,0,.008,0,.005,0,.008,0,0,0,.009,0,0,0,.008,0,0,0,.009,0,0,0,.009,0,0,0,.009,0,0,0,.009v0l-.005.01v0l-.005.011h0l-.005.011v0l-.005.011v0l-.006.011v0l-.012.024h0l-.079.153h0l-.006.012h0l-.006.013h0l-.013.025v0l-.006.011h0l-.006.012v0l-.006.011h0l-.006.011v0l-.006.011h0l-.006.011v0l-.006.011h0l-.006.011v0l-.006.011h0l-.006.012h0l-.013.025h0l-.107.2h0l-.027.05h0l-.02.037h0l-.006.012v0a36.855,36.855,0,0,1-5.671,7.865h0l-.039.041h0l-.029.031h0l-.008.009,0,0-.009.009h0l-.009.01h0l-.009.01h0l-.009.01h0l-.118.123,0,0-.008.009h0l-.009.01h0l-.009.009h0l-.009.009v0l-.009.009h0l-.008.009,0,0-.007.008,0,0-.007.007,0,0-.007.007,0,0-.007.008,0,0-.008.008,0,0-.008.008,0,0-.008.008,0,0-.008.008,0,0-.008.008,0,0-.007.008,0,0-.008.008,0,0-.008.009,0,0-.009.01h0l-.1.1h0l-.009.009,0,0-.007.007,0,0-.007.007,0,0-.006.006,0,0-.007.007,0,0-.007.008,0,0-.008.008,0,0-.007.007,0,0-.008.008,0,0-.008.008,0,0-.007.007,0,0-.007.007,0,0-.007.007,0,0-.008.008,0,0-.008.008,0,0-.008.008,0,0-.008.008,0,0-.009.009h0l-.008.008,0,0-.009.009h0l-.07.07h0l-.009.009h0l-.009.009,0,0-.008.008,0,0-.007.007,0,0-.006.006,0,0-.005.005,0,0-.006.006,0,0,0,0-.005.005-.005,0,0,0-.005.005,0,0-.006.006,0,0-.005.005,0,0-.005.005,0,0-.005,0,0,0-.005.005,0,0,0,0-.006.006,0,0-.005.005-.005.005,0,0-.006.006,0,0-.005.005-.005,0,0,0L62.479,63l-.006.005,0,0-.006.006,0,0,0,0-.005.005,0,0-.006.006-.02.02,0,0-.006.006,0,0-.005.005,0,0-.006.006,0,0,0,0-.006.006,0,0-.006.006,0,0-.005.005,0,0-.006.005,0,0-.006.006,0,0-.006.006,0,0-.006.006,0,0-.007.006,0,0-.007.007,0,0-.007.007,0,0-.006.006,0,0-.006.006,0,0-.007.006,0,0-.007.007,0,0-.007.006,0,0-.007.007,0,0-.007.007,0,0-.008.008h0l-.008.008,0,0-.008.007h0l-.009.009h0l-.119.113h0l-.01.009h0l-.009.009,0,0-.009.008h0l-.009.008,0,0L62,63.462h0l-.009.009h0l-.009.009h0l-.01.009h0A36.863,36.863,0,0,1,54.589,68.9L51.227,62.85A30.02,30.02,0,0,0,65.56,44.554ZM24.835,64.115a29.956,29.956,0,0,0,23.234.255l2.626,6.4a36.475,36.475,0,0,1-6.534,1.99h0l-.435.086h0l-.013,0h0l-.012,0h0l-.013,0h0l-.027.005h0l-.027.005h0l-.013,0h0l-.013,0h0l-.027.005h0l-.282.052-.014,0-.013,0-.015,0-.014,0-.014,0-.014,0-.015,0-.014,0-.014,0-.014,0-.015,0-.014,0h0l-.084.015h0l-.213.036h0l-.016,0-.014,0-.014,0-.014,0-.015,0-.014,0-.015,0-.014,0-.015,0-.014,0-.014,0-.014,0-.015,0-.014,0-.015,0-.014,0-.015,0-.014,0-.014,0-.014,0-.014,0-.014,0h0l-.014,0-.028,0h0l-.113.018-.015,0-.014,0-.015,0-.014,0-.015,0-.014,0-.014,0-.014,0-.015,0-.015,0-.014,0-.013,0-.014,0-.014,0-.014,0-.013,0-.015,0-.015,0-.014,0-.014,0-.015,0-.015,0-.014,0-.013,0-.015,0h0l-.041.006h0l-.057.008h0l-.015,0-.014,0-.018,0-.015,0-.013,0-.014,0-.015,0-.015,0-.013,0-.014,0-.015,0-.015,0-.014,0-.015,0-.014,0-.014,0-.013,0-.015,0-.014,0-.014,0-.014,0-.014,0-.014,0-.014,0-.014,0-.015,0-.014,0-.014,0-.014,0-.015,0-.014,0-.014,0-.057.007h0l-.026,0-.014,0-.014,0-.015,0-.014,0-.014,0-.014,0-.015,0-.014,0-.014,0-.014,0-.015,0-.014,0-.014,0-.014,0-.015,0-.014,0-.015,0-.014,0-.015,0-.014,0-.014,0-.014,0-.014,0-.014,0-.014,0-.014,0-.015,0-.013,0h-.013l-.015,0-.02,0h0l-.043,0-.014,0-.014,0-.014,0-.014,0-.014,0-.014,0-.014,0-.014,0-.014,0-.014,0-.014,0-.014,0-.014,0-.014,0-.014,0H40.56l-.015,0H40.5l-.015,0h-.043l-.016,0-.029,0h0l-.028,0h-.487l-.021,0h-.482l-.043,0h-.478l-.034,0H34.686l-.057,0h0l-.057,0h-.418l-.049,0-.03,0h-.441l-.055,0H33.14l-.129-.013H33l-.015,0-.015,0-.015,0h-.014l-.015,0-.015,0-.015,0-.014,0-.015,0-.014,0-.015,0-.014,0-.014,0-.015,0-.015,0-.014,0-.014,0-.015,0-.015,0-.015,0-.015,0-.014,0-.015,0h0l-.158-.018h0l-.015,0-.014,0-.014,0-.014,0-.014,0-.015,0-.014,0-.015,0-.015,0-.015,0-.015,0-.015,0-.014,0-.014,0-.014,0-.014,0-.014,0-.014,0-.014,0-.015,0-.014,0-.015,0-.028,0h0l-.257-.033-.015,0-.014,0-.015,0-.014,0-.015,0-.014,0-.014,0-.014,0-.015,0-.014,0-.014,0-.014,0-.015,0h0l-.043-.006h0l-.285-.041h0l-.057-.008-.014,0h0l-.042-.006-.015,0h0l-.043-.006h0l-.057-.009h0a36.489,36.489,0,0,1-9.088-2.628ZM7.783,43.92A30.013,30.013,0,0,0,21.711,62.526L18.216,68.5q-.92-.538-1.805-1.128h0l-.011-.007h0l-.01-.007h0l-.011-.007h0l-.011-.008h0l-.022-.015h0l-.011-.007h0l-.011-.008h0l-.011-.007h0l-.011-.007h0l-.01-.007h0l-.023-.015h0l-.011-.007h0l-.135-.092h0l-.011-.007h0l-.022-.015h0l-.01-.007h0l-.009-.006,0,0-.009-.006,0,0-.009-.006h0l-.009-.006,0,0-.009-.006,0,0L16,67.091h0l-.01-.007h0l-.009-.006,0,0-.009-.006h0l-.01-.007h0l-.01-.007h0l-.01-.007h0l-.044-.03h0L15.8,66.95l0,0-.008-.006,0,0-.007,0-.005,0-.006,0-.005,0-.006,0-.006,0-.006,0-.005,0-.006,0-.005,0-.006,0,0,0-.007,0,0,0-.007,0,0,0-.006,0-.006,0-.006,0-.006,0-.006,0-.006,0-.005,0-.006,0-.006,0-.006,0-.005,0-.006,0-.006,0-.006,0-.006,0-.006,0-.006,0-.006,0-.006,0-.005,0-.006,0-.006,0-.005,0-.006,0-.006,0-.005,0-.006,0,0,0-.007-.005,0,0-.007-.005-.006,0,0,0-.035-.025h0l-.011-.008h0l-.01-.007,0,0-.009-.006,0,0-.007-.005,0,0-.008-.006,0,0-.008-.006,0,0-.008-.006,0,0-.007-.005,0,0-.007-.005,0,0-.007,0,0,0-.007,0-.005,0-.006,0,0,0-.008-.006,0,0L15.3,66.6l0,0-.008-.006,0,0-.008-.005,0,0-.007-.005,0,0-.007-.005,0,0-.007-.005,0,0-.008-.005,0,0-.009-.006,0,0-.011-.008h0l-.01-.007h0l-.011-.008h0l-.011-.008h0l-.022-.016h0l-.045-.033h0l-.01-.007h0l-.009-.007,0,0-.009-.007h0l-.009-.007,0,0-.008-.006,0,0-.009-.007h0l-.01-.007h0l-.009-.007,0,0L15,66.383l0,0-.009-.007,0,0-.009-.007,0,0-.008-.006,0,0-.009-.006,0,0-.01-.007h0l-.01-.007h0l-.009-.007,0,0-.01-.007h0l-.011-.008h0l-.01-.008h0l-.01-.007h0l-.183-.136h0l-.045-.034h0l-.045-.034h0A36.781,36.781,0,0,1,1.066,45.575Zm.28-30.141,5.4,4.328A29.5,29.5,0,0,0,6.918,36.753a30.2,30.2,0,0,0,.229,3.72l-6.866.852c-.016-.127-.031-.252-.045-.379h0v-.03l0-.039v-.131l0-.017h0l0-.017v0l0-.014v0l0-.016h0L.2,40.621h0Q.05,39.173.012,37.694h0l0-.071V37.55h0v-.017h0v-.053h0v-.053h0v-.09H0v-.162H0v-.236c0-.006,0-.011,0-.017H0v-.039s0-.008,0-.011V36.86s0-.009,0-.013v0q0-.008,0-.016s0,0,0-.005,0-.008,0-.012,0,0,0-.006,0-.007,0-.011,0,0,0-.007,0-.007,0-.011V36.77c0-.006,0-.011,0-.017H0c0-.007,0-.016,0-.023s0,0,0,0,0-.014,0-.022,0,0,0,0,0-.015,0-.022v-.024s0,0,0,0,0-.015,0-.022,0,0,0,0V36.6c0-.015,0-.031,0-.046V36.4H0v-.355h0v-.177h0v-.176h0v-.176h0v-.176h0v-.352h0v-.075h0v-.1h0V34.63h0v-.075h0v-.175h0v-.152l0-.046v0l0-.022v0l0-.023v0l0-.023h0l0-.023v0l0-.022v0L.1,34v0l0-.022v0l0-.023v0l0-.023h0l0-.023v0l0-.023v0l0-.047v0l0-.023v0l0-.023h0l0-.024h0l0-.023v0l0-.022v0l0-.046v0l0-.022v0l0-.022v0l0-.022v0l0-.022v0l0-.022v0l0-.046v0l0-.022v0l0-.023h0l0-.023h0l0-.022v0l0-.022v0l0-.023h0l0-.023v0l0-.022v0l0-.023h0l0-.023v0l0-.023v0l0-.022v0l0-.046v0l0-.022v0l0-.023h0l0-.024h0l0-.023v0l0-.023h0l0-.048v0l0-.023v0l0-.048h0l0-.023v0l0-.023v0l0-.046v0l0-.022v0l0-.023h0l0-.022v0l0-.022v0l0-.022v0l0-.023h0l0-.023v0l0-.022v0l.005-.047h0l0-.023v0l0-.023h0l.005-.047v0l0-.023v0l.006-.047v0l0-.023v0l0-.023h0l.006-.047v0l0-.022v0l.006-.047v0l0-.023v0l0-.023v0l.006-.046v0l0-.023v0L.3,32.019v0l0-.023v0l0-.022v0l0-.022h0l0-.023v0l0-.022v0l.006-.046v0l0-.022v0l0-.022v0l0-.023h0l0-.022v0l0-.022v0l.006-.046v0l0-.022v0l0-.023h0l0-.024h0l0-.023v0l0-.022v0L.372,31.5v0l0-.022v0l0-.022v0l0-.023h0l0-.023v0l0-.023v0L.4,31.333v0l0-.022v0l0-.023h0l0-.023h0l0-.023v0l0-.022v0l.007-.046v0l0-.023v0l0-.023h0l0-.023h0l0-.023v0l0-.022v0l.007-.046v0l0-.022v0l0-.022h0l0-.023h0l0-.022v0l0-.022v0l.007-.046v0l0-.022v0l0-.022v0l0-.023h0l0-.023v0l0-.023h0L.5,30.649v0l0-.023v0l0-.023h0l0-.022v0l0-.022v0l0-.022v0l.008-.046v0l0-.022v0l0-.022h0l0-.022v0l0-.022v0l0-.022v0l.008-.046v0l0-.022v0l.013-.07h0l0-.023v0l.008-.047h0l0-.023v0l.009-.047h0l0-.023v0l0-.023h0l.009-.047h0l0-.023h0L.638,29.9h0l0-.023v0l0-.023h0L.657,29.8h0l0-.023h0l.009-.047h0l0-.023v0l0-.023h0l.009-.047h0l0-.023v0L.7,29.56h0l0-.023v0l0-.023h0l.01-.048h0l0-.024h0l.01-.047h0l0-.023h0L.757,29.3h0l0-.024h0l.01-.047h0l0-.023h0l.015-.071h0l0-.023h0l.01-.047h0l0-.023v0l.015-.07h0l.005-.023h0l.015-.07h0l.005-.023h0l.01-.047h0l.005-.023h0L.886,28.7h0L.9,28.626h0L.907,28.6h0l.033-.142h0l.022-.095h0l.017-.071h0l.006-.023h0L1,28.221H1L1,28.2H1l.017-.07h0l.006-.023h0l.011-.047h0l.006-.023h0l.017-.07h0l.006-.023h0l.012-.047h0l.006-.023h0L1.1,27.8h0l.024-.094h0q.03-.118.061-.236h0l.025-.094h0l.019-.07h0l.006-.023h0l.012-.047h0l.006-.023h0l.019-.07h0A36.638,36.638,0,0,1,8.063,13.78ZM36.753,0V6.918A29.659,29.659,0,0,0,15.815,15.5l-4.856-4.928a36.958,36.958,0,0,1,4.766-3.966h0l.113-.079h0q.318-.22.641-.434h0l.011-.007h0l.011-.007h0l.01-.007h0l.01-.007,0,0,.009-.006h0l.01-.006h0l.01-.006h0l.009-.006,0,0,.008-.005,0,0,.009-.006,0,0,.009-.006h0L16.618,6l0,0,.009-.006h0l.01-.006h0l.01-.006h0l.009-.006,0,0,.009-.006,0,0,.009-.006,0,0,.009-.006h0l.009-.006,0,0,.009-.006h0l.009-.006,0,0,.009-.006,0,0,.008-.005,0,0,.008-.005,0,0,.008-.005,0,0,.008-.005,0,0,.008-.005,0,0,.008-.005,0,0,.009-.006,0,0,.009-.006,0,0,.008-.005,0,0,.008-.005,0,0,.008-.005,0,0,.009-.006,0,0,.009-.006,0,0,.009-.006,0,0,.009-.006,0,0,.009-.006,0,0,.008-.005,0,0,.007,0,0,0,.008-.005,0,0,.009-.006,0,0,.008-.005,0,0L17,5.754l0,0,.008-.005,0,0,.009-.006,0,0,.008-.005,0,0,.008,0,0,0,.008,0,0,0,.008-.005,0,0,.007,0,0,0,.008-.005,0,0,.009-.005,0,0,.009-.006,0,0,.007,0,0,0,.007,0,0,0,.008,0,0,0,.008-.005,0,0,.007,0,0,0,.008-.005,0,0,.008-.005,0,0,.008-.005,0,0,.007,0,.005,0,.007,0,0,0,.008,0,0,0,.008-.005,0,0,.007,0,0,0,.007,0,0,0,.008,0,0,0,.008-.005,0,0,.006,0,.006,0,0,0,.007,0,.006,0,.005,0,.007,0,.005,0,.005,0,.006,0,.01-.006h0L17.4,5.5h0l.007,0,0,0,.01-.006h0l.071-.044.005,0,.006,0,.01-.006h0l.007,0,.005,0,.007,0,.005,0,.007,0,0,0,.007,0,.005,0,0,0,.007,0,.006,0,.005,0,.008,0,0,0,.009-.005,0,0,.008,0,0,0,.009-.005,0,0,.009-.005,0,0,.008-.005,0,0,.007,0,0,0,.008,0,0,0,.009-.005,0,0,.009-.005,0,0,.008,0,0,0,.008,0,0,0,.007,0,0,0,.008,0,0,0,.006,0,.006,0,.006,0,.005,0,.007,0,0,0,.007,0,0,0,.006,0,.006,0,.007,0,.005,0,.006,0,.005,0,.006,0,.006,0,0,0,.007,0,.005,0,.006,0,.006,0,0,0,.007,0,0,0,.006,0,.005,0,.007,0,.005,0,.007,0,0,0,.007,0,.005,0,.006,0,.006,0,.007,0,0,0,.008,0,0,0,.008,0,0,0,.007,0,.005,0,.007,0,0,0,.007,0,0,0,.007,0,0,0,.006,0,.006,0,.007,0,0,0,.008,0,0,0,.009-.005,0,0,.008,0,0,0,.008,0,0,0,.008,0,0,0,.008,0,0,0,.007,0,.005,0,.007,0,0,0,.008,0,0,0,.008,0,0,0,.007,0,0,0,.007,0,0,0,.007,0,0,0,.008,0,0,0,.007,0,.005,0,.007,0,0,0,.008,0,0,0,.009-.005h0l.009-.005,0,0,.009-.005,0,0,.009-.005,0,0,.009-.005,0,0,.008,0,0,0,.008,0,0,0,.009-.005h0l.01-.006h0l.01-.006h0l.01-.006h0L18.4,4.9h0l.01-.006h0l.01-.006,0,0,.009,0h0l.01-.006h0l.023-.013h0l.047-.027h0q.19-.109.381-.215h0l.023-.013h0l.023-.013h0l.011-.006h0l.011-.006h0l.011-.006h0L19,4.565h0l.011-.006h0l.036-.02h0l.012-.006h0l.012-.006h0l.012-.006h0l.011-.006h0l.012-.006h0L19.12,4.5h0l.024-.013h0l.036-.02h0l.011-.006h0l.012-.006h0l.084-.046h0L19.3,4.4h0l.012-.006h0l.024-.013h0l.011-.006h0l.011-.006h0l.01-.006h0l.01-.005h0l.01-.005h0l.01-.005h0l.011-.006h0l.011-.006h0l.011-.006h0l.011-.006h0l.011-.006h0l.011-.006h0L19.5,4.3h0l.011-.006h0l.036-.019h0l.012-.006h0l.024-.013h0A36.495,36.495,0,0,1,30.085.6h0l.224-.04h0q.448-.079.9-.148h0l.013,0h0l.014,0h0L31.28.4h0l.015,0,.014,0,.014,0,.014,0,.014,0,.028,0h0l.014,0h0l.015,0,.013,0h0l.015,0,.013,0h0l.013,0h0l.013,0h0l.013,0h0l.013,0h0l.013,0h0l.013,0h0l.012,0h0l.013,0h0l.013,0h0l.013,0h0l.013,0h0l.013,0h0l.013,0h0l.013,0h0l.015,0,.014,0,.014,0,.014,0,.014,0,.013,0h0l.015,0,.014,0,.015,0,.013,0h0l.014,0h0l.013,0h0l.014,0h0l.028,0h0l.014,0h0l.014,0h0q.326-.043.654-.081h0l.027,0h.016l.015,0h.014l.015,0h.043l.015,0,.014,0,.015,0,.014,0,.014,0h.014l.015,0,.015,0,.015,0h.014l.014,0h.014l.015,0h.028L32.9.2l.015,0h.1l.015,0h.531l.314-.026h2.875Z" transform="translate(-9.837 2.27)" fill="#f9d05d"/>
        </g>
        <g id="Mask_Group_8" data-name="Mask Group 8" transform="translate(1237.691 547.276)" clip-path="url(#clip-path-3)">
          <path id="Ellipse_199" data-name="Ellipse 199" d="M36.753,0h2.335l.035,0,.048,0H39.9l.054,0h.551l.015,0h.015l.015,0h.014l.015,0H40.6l.015,0h.019l.025,0h0l.083.009h0l.027,0,.015,0H40.8l.016,0h.026l.014,0,.016,0,.015,0,.014,0,.014,0,.015,0,.014,0,.014,0,.014,0,.015,0,.015,0,.015,0,.015,0,.015,0,.015,0,.014,0,.014,0,.015,0,.015,0,.015,0,.014,0,.014,0,.015,0,.014,0,.014,0,.015,0,.015,0,.014,0,.015,0,.015,0,.015,0,.014,0,.014,0,.015,0,.015,0,.015,0,.015,0,.014,0,.015,0h0l.016,0,.015,0,.125.016h0l.014,0,.015,0,.014,0,.014,0,.014,0,.014,0,.015,0,.014,0,.014,0,.015,0,.015,0,.014,0,.014,0,.015,0,.015,0,.014,0,.014,0,.015,0,.015,0,.014,0,.014,0,.015,0,.015,0,.014,0,.014,0,.014,0,.015,0,.014,0,.014,0,.014,0,.015,0,.014,0,.014,0,.014,0,.016,0,.014,0,.014,0,.013,0,.016,0,.013,0,.014,0,.2.029.016,0h0l.015,0,.014,0,.014,0,.014,0h0l.013,0h0l.028,0h0l.014,0,.015,0,.014,0,.015,0,.013,0h0l.014,0,.014,0,.015,0,.014,0,.014,0,.014,0,.015,0,.014,0,.014,0,.014,0,.015,0,.014,0,.015,0,.014,0,.014,0,.014,0,.014,0,.014,0,.015,0,.014,0,.014,0,.012,0h0l.015,0,.013,0L43.2.564h0l.013,0h0l.014,0,.014,0,.014,0,.014,0,.014,0,.014,0,.014,0,.014,0,.014,0,.014,0,.014,0,.013,0h0L43.4.6l.014,0,.014,0,.014,0,.012,0,.014,0,.014,0,.015,0h0l.012,0h0l.012,0h0l.012,0h0l.012,0h0l.012,0,.014,0h0l.012,0h0l.027.005h0l.028.005h0l.28.054h0l.027.005h0l.013,0h0l.013,0h0l.013,0h0l.012,0h0l.012,0h0l.012,0h0l.013,0h0l.013,0h0l.012,0h0l.012,0h0l.012,0h0l.012,0h0l.012,0,.013,0,.014,0h0l.011,0h0l.011,0h0l.011,0h0l.012,0h0l.013,0h0l.013,0h0l.013,0h0l.111.023h0l.335.072h0l.055.012h0L44.8.884h0l.013,0h0l.012,0h0l.012,0h0l.013,0h0l.012,0h0l.012,0h0l.012,0h0l.012,0h0l.012,0h0l.011,0h0l.011,0h0l.012,0h0l.012,0h0l.012,0h0l.012,0h0l.012,0h0l.012,0h0l.012,0h0l.012,0h0l.013,0h0l.027.006h0l.387.092h0l.055.013h0l.027.007h0l.027.007h0l.013,0h0l.013,0h0l.082.021h0l.013,0h0l.013,0h0l.041.01h0q.3.075.59.154h0l.013,0h0l.013,0h0l.082.022h0q.274.075.545.154h0l.054.016h0l.054.016h0l.108.032h0l.432.131h0l.013,0h0l.013,0h0l.026.008h0l.053.017h0l.013,0h0l.148.047h0q.242.077.482.158h0l.026.009h0l.013,0h0l.012,0h0l.012,0h0l.012,0h0l.012,0h0l.012,0h0l.012,0h0l.012,0h0l.013,0h0l.012,0h0l.012,0h0l.012,0h0l.026.009h0l.013,0h0l.013,0h0l.012,0h0l.013,0h0q.24.082.477.168h0l.026.009h0l.026.009h0l.013,0h0l.013,0h0l.012,0h0l.012,0h0l.012,0h0l.012,0h0l.012,0h0l.012,0h0l.012,0h0l.012,0h0l.011,0h0l.011,0h0l.011,0h0l.012,0h0l.025.009h0l.026.01h0l.026.01h0l.315.118h0l.026.01h0l.026.01h0l.052.02h0l.012,0h0l.012,0h0l.012,0h0l.012,0h0l.012,0h0l.012,0h0l.012,0h0l.011,0h0l.011,0h0l.012,0h0l.012,0h0l.012,0h0l.011,0h0l.011,0h0l.011,0h0l.011,0h0l.011,0h0l.012,0h0l.012,0h0l.011,0h0l.011,0h0l.011,0h0l.012,0h0l.011,0h0l.3.119h0l.011,0h0l.011,0h0l.012,0h0l.012,0h0l.011,0h0l.01,0h0l.011,0h0l.011,0h0l.01,0h0l.01,0h0l.011,0h0l.012,0h0l.011,0h0l.01,0h0l.01,0h0l.011,0h0l.01,0h0l.01,0h0l.011,0h0l.011,0h0l.011,0h0l.011,0h0l.012,0h0l.012,0h0l.012,0h0l.011,0h0l.064.027h0l.025.011h0l.2.086h0l.012.005h0l.012,0h0l.024.01h0l.012.005h0l.011,0h0l.011,0h0l.01,0h0l.011,0h0l.012.005h0L51.316,3h0l.011,0h0l.011,0h0l.01,0h0l.01,0h0l.01,0h0l.011,0h0l.011,0h0l.011,0h0l.01,0h0l.01,0h0l.01,0h0l.01,0,0,0,.009,0h0l.01,0h0l.01,0h0l.011,0h0l.01,0h0l.01,0h0l.01,0h0l.01,0h0l.01,0h0l.011,0h0l.011,0h0l.011.005h0l.012.005h0l.012.005h0l.178.079h0l.011,0h0l.009,0,0,0,.009,0,0,0,.007,0,.006,0,.007,0,.005,0,.007,0,.006,0,.008,0,0,0,.009,0,0,0,.009,0,0,0,.008,0,0,0,.008,0,0,0,.008,0,.005,0,.008,0,0,0L52,3.3l0,0,.009,0,0,0,.009,0,0,0,.009,0,0,0,.009,0,0,0,.008,0,0,0,.007,0,.006,0,.008,0,0,0,.008,0,0,0,.009,0h0l.009,0,0,0,.01,0h0l.009,0,0,0,.009,0,0,0,.008,0,0,0,.008,0,0,0,.008,0,0,0,.008,0,.005,0,.007,0,.005,0,.008,0,.005,0,.007,0,.006,0,.007,0,.006,0,.006,0,.007,0,.007,0,.006,0,.007,0,.006,0,.008,0,0,0,.008,0,0,0,.009,0h0l.011.005,0,0,.009,0h0l.011,0,0,0,.021.01h0l.068.032.005,0,.008,0,0,0,.009,0,0,0,.009,0h0l.009,0,0,0,.011.005h0l.009,0,0,0,.007,0,.005,0,.006,0,.007,0,.006,0,.006,0,.006,0,.007,0,.006,0,.006,0,.006,0,.007,0,.006,0,.006,0,.007,0,.006,0,.006,0,.007,0,0,0,.008,0,0,0,.007,0,.006,0,.007,0,.006,0,.007,0,.006,0,.007,0,.007,0,.005,0,.008,0,.005,0,.007,0,.006,0,.006,0,.007,0,.006,0,.006,0,.007,0,.006,0,.007,0,.006,0,.007,0,.006,0,.007,0,.005,0,.008,0,.005,0,.007,0,.006,0,.006,0,.007,0,.006,0,.005,0,.007,0,.005,0,.007,0,.005,0,.007,0,.005,0,.008,0,0,0,.01,0h0l.01.005h0l.009,0,0,0,.009,0h0l.01,0h0l.01,0h0l.01,0,0,0,.009,0h0l.01,0h0l.01.005.009,0h0l.008,0,.029.015h0l.006,0,.007,0,.008,0,0,0,.01.005h0l.009,0,0,0,.006,0,.007,0,.006,0,.007,0,.007,0,.006,0,.008,0,.005,0,.006,0,.007,0,.006,0,.006,0,.007,0,.006,0,.007,0,.006,0,0,0,.008,0,0,0,.009,0,0,0,.009,0,0,0,.008,0,0,0,.008,0,0,0,.008,0,0,0,.007,0,.006,0,.007,0,0,0,.008,0,0,0,.009,0,0,0,.009,0,0,0,.008,0,0,0,.009,0,0,0,.009,0,0,0,.009,0,0,0,.009,0h0l.01.005h0l.01,0h0l.009,0,0,0,.009,0,0,0,.009,0,0,0,.008,0,0,0,.008,0,.005,0,.008,0,0,0,.008,0,0,0,.008,0,0,0,.008,0,0,0,.009,0,0,0,.009,0,0,0,.009,0,0,0,.008,0,0,0,.011.005h0l.011.006h0l.012.006h0l.01.005h0l.024.013h0l.021.011.005,0,.049.025,0,0,.01.005h0l.012.006,0,0,.01.005,0,0,.009,0,0,0,.022.012h0l.01.005h0l.009,0,0,0,.009,0,0,0,.009,0,0,0,.008,0,0,0,.008,0,.005,0,.008,0,0,0,.009,0,0,0,.008,0,0,0,.008,0,0,0,.008,0,0,0,.008,0,0,0,.008,0,0,0,.008,0,0,0,.009,0h0l.009,0,0,0,.009,0,0,0,.008,0,0,0,.008,0,0,0,.008,0,0,0,.008,0,0,0,.008,0,0,0,.009,0,0,0,.009,0,0,0,.009,0,0,0,.009.005,0,0,.011.006h0l.011.006h0l.012.007h0l.012.007h0l.025.013h0l.025.013h0l.012.007h0l.012.006h0l.012.007h0l.173.1h0l.011.006,0,0,.009,0,0,0,.009,0,0,0,.009,0,0,0,.009.005,0,0,.01.005h0l.01.006h0l.011.006h0l.011.006h0l.012.006h0l.012.007h0l.011.006h0l.011.006h0l.011.006h0l.01.006,0,0,.01.005h0l.01.006h0l.01.006h0l.01.006h0l.01.006h0l.01.006h0l.011.006h0l.011.006h0l.011.006h0l.012.007h0l.024.014h0l.1.056h0l.342.2h0l.024.014h0l.023.014h0l.023.014h0l.024.014h0l.049.029h0q.34.2.676.41h0a36.92,36.92,0,0,1,6.991,5.631l-4.962,4.821a29.6,29.6,0,0,0-21.4-9.047V0ZM65.942,14.415a36.686,36.686,0,0,1,5.231,9.42h0l.049.131h0q.117.316.229.635h0l.023.066h0l.023.066h0l.023.066h0l.045.132h0l.045.132h0l.015.044h0l.066.2h0l.022.067h0l.022.066h0l.021.066h0l.021.066h0l.021.066h0c.04.126.079.252.118.379h0l.02.066h0l.02.066h0l.007.022h0l.013.044h0l.02.066h0l.013.044h0l.006.022h0l.013.044h0l.007.022h0l.02.067h0l.013.044h0l.006.022h0l.013.045h0l.006.022h0l.013.045h0l.019.067h0l.019.067h0l.019.066v0l.012.044h0l.006.022v0l.012.044h0l.006.022h0l.012.044h0l.006.021v0l.012.044h0l.006.022h0l.012.044v0l.006.021v0l.012.043v0l.006.021v0l.012.044h0l.006.022h0l.012.044v0l.006.022h0l.006.022h0l.006.022h0l.017.067v0l.017.067h0l.011.045h0l.006.022v0l.011.044h0l.005.022v0l.011.044h0l.005.022v0l.011.043v0l.005.022h0l.011.044v0l.005.021v0l.011.043v0l.005.022h0l.011.044v0l.005.022h0l.011.044v0l.005.022h0l.005.022h0l.005.022v0l.005.022h0l.011.045v0l.011.045h0l.005.022v0l.005.022h0l.005.023h0l.005.022h0l.01.045h0l.005.023h0l.01.045h0l.005.022h0l.01.045h0l.005.022h0l.01.045h0l0,.022h0l.01.044v0l0,.022h0l.01.044v0l0,.022h0l.01.044v0l0,.022h0l0,.022h0l0,.022v0l.01.045h0l0,.022v0l0,.022h0l0,.022h0l0,.022v0l0,.022h0l0,.022h0l0,.022v0l.009.044v0l0,.022v0l.009.045h0l0,.022h0l.009.045h0l0,.023h0l.009.045h0l0,.022h0l.009.045v0l0,.022h0l.009.045h0l0,.022h0l.009.045v0l.009.045h0l0,.022v0l0,.022h0l0,.022h0l0,.022v0l.009.045h0l0,.022v0l0,.022h0l0,.021v0l0,.021v0l.008.044v0l0,.022v0l.008.044v0l0,.021v0l.008.044v0l0,.021v0l.008.044v0l0,.021v0l.008.044v0l0,.022h0l.008.045v0l0,.022v0l0,.022h0l0,.022v0l0,.022v0l0,.021v0l0,.021v0l0,.021v0l0,.021h0l0,.021v0l0,.021h0l0,.021v0l0,.021v0l0,.021h0l0,.02v0l0,.021v0l.007.043v0l0,.021v0l.007.044v0l0,.021v0l.007.043v0l0,.021v0l.007.043v0l0,.021v0l0,.022h0l0,.021v0l0,.021v0l0,.021h0l0,.022v0l0,.021v0l0,.021v0l0,.022v0l0,.022h0l0,.023h0l0,.022v0l0,.022h0l0,.021v0l0,.021v0l.007.044v0l0,.021v0l0,.021h0l0,.021v0l0,.022v0l.006.044v0l0,.022v0l.006.044v0l0,.021v0l.006.044v0l0,.022v0l.006.045v0l0,.022v0l0,.022h0l0,.022v0l0,.021v0l0,.022h0l0,.022v0l0,.022v0l.006.045v0l0,.022h0l0,.022v0l0,.022v0l.006.046h0l0,.022v0l0,.022h0l0,.022v0l0,.022v0l0,.022h0l0,.022v0l0,.022v0l.005.044v0l0,.022v0l.005.044v0l0,.022v0l.005.045v0l0,.022v0l0,.022h0l0,.022v0l0,.022v0l0,.022h0l0,.022v0l0,.022h0l.005.046v0l0,.022v0l0,.022h0l0,.022v0l0,.022h0l0,.022v0l0,.022v0l0,.022h0l0,.022v0l0,.022v0l0,.022h0l0,.022v0l0,.022v0l0,.022h0l0,.022v0l0,.022v0l0,.045v0l0,.022v0l0,.045v0l0,.022v0l0,.044v0l0,.022v0l0,.022h0l0,.022v0l0,.022v0l0,.022h0l0,.022v0l0,.022v0l0,.022h0l0,.022v0l0,.022v0l0,.021v0l0,.022v0l0,.022h0l0,.021v0l0,.022v0l0,.022h0l0,.022v0l0,.021v0l0,.021v0l0,.02v0l0,.021v0l0,.021v0l0,.02v0l0,.021v0l0,.044v0l0,.022v0l0,.044v0l0,.021v0l0,.021h0l0,.022v0l0,.022v0l0,.022h0l0,.022v0l0,.021V34l0,.021v0l0,.021v.026l0,.021v0l0,.022v.026l0,.022v.316h0v.071h0v.072h0v.486h0v.145h0v.073h0v.488h0v.072h0v.418c0,.007,0,.013,0,.02v.029c0,.007,0,.014,0,.021s0,0,0,0v.023c0,.007,0,.014,0,.021v.049s0,0,0,0v.026c0,.008,0,.014,0,.022v.026q0,.011,0,.022s0,0,0,0,0,.014,0,.022h0c0,.007,0,.015,0,.021v0c0,.007,0,.014,0,.021v0c0,.007,0,.014,0,.022h0c0,.007,0,.014,0,.021s0,0,0,0,0,.014,0,.021,0,0,0,0,0,.015,0,.022h0c0,.006,0,.013,0,.019v.005c0,.005,0,.011,0,.016s0,0,0,0,0,.012,0,.019,0,0,0,.005,0,.01,0,.015,0,0,0,0,0,.013,0,.019,0,0,0,0,0,.011,0,.016,0,0,0,0,0,.013,0,.019v0c0,.006,0,.012,0,.017v.005c0,.006,0,.012,0,.017v0q0,.01,0,.019s0,0,0,0,0,.011,0,.016v.042s0,0,0,0v.019s0,0,0,0v.016s0,0,0,.005,0,.012,0,.018v0c0,.006,0,.011,0,.017s0,0,0,.005v.126c0,.006,0,.012,0,.018v.215h0v.212h0v.021h0v.042h0v.084h0a36.989,36.989,0,0,1-.336,4.017h0l-.006.04v0l0,.019h0l0,.019v0l0,.016v0l0,.018v0l0,.016v0l0,.017v0l0,.015v.007l0,.013v.006l0,.016v.026l0,.015v0l-6.845-1a30.143,30.143,0,0,0,.317-4.369,29.552,29.552,0,0,0-6.138-18.13ZM65.56,44.554l6.679,1.8a36.472,36.472,0,0,1-1.621,4.7h0q-.084.2-.171.4h0l-.005.012h0l-.005.012h0l-.006.013h0l-.119.267h0l0,.011v0l0,.011v0l0,.01v0l0,.011v0l0,.01v0l0,.01v0l0,.01,0,0,0,.009,0,0,0,.008,0,0,0,.009,0,0,0,.009,0,0,0,.009,0,0,0,.009,0,0,0,.01v0l0,.01,0,0,0,.009v0l0,.01v0l-.044.1v0l-.011.025h0l-.005.012h0l0,.01v0l0,.011v0l0,.01,0,0,0,.009,0,0,0,.008,0,.005,0,.008,0,0,0,.009,0,0,0,.008,0,0,0,.008,0,.005,0,.008,0,0,0,.009,0,0,0,.008,0,.005,0,.007,0,.006,0,.007,0,.006,0,.007,0,.005,0,.007,0,.005,0,.008,0,.006,0,.007,0,0,0,.009,0,0,0,.009,0,0,0,.009,0,0-.04.084h0l0,.01,0,0,0,.009,0,0,0,.009,0,0,0,.009,0,0,0,.007,0,.006,0,.007,0,.005,0,.007,0,.006,0,.007,0,.006,0,.006,0,.007,0,.006,0,.007,0,.006,0,.007,0,.006,0,.007,0,.005,0,.008,0,.005,0,.007,0,.005,0,.007,0,.006,0,.008,0,0,0,.009,0,0,0,.009,0,0,0,.009,0,0,0,.009v0l0,.009,0,0,0,.009v0l0,.009,0,0-.025.051,0,0,0,.009v0l0,.01,0,.006,0,.007,0,.006,0,.006,0,.006,0,.007,0,.005,0,.007,0,.006,0,.007,0,.006,0,.007,0,.006,0,.007,0,.005,0,.007,0,.006,0,.007,0,.006,0,.007,0,.006,0,.008,0,0,0,.007,0,.005,0,.008,0,.005,0,.007,0,.005,0,.008,0,0,0,.008,0,0,0,.008,0,0,0,.008,0,0,0,.009,0,0,0,.009,0,0,0,.01v0l-.006.011v0l-.026.051h0l-.006.012,0,0,0,.009,0,0,0,.008,0,0,0,.008,0,0,0,.008,0,0,0,.008,0,.005,0,.008,0,0,0,.009,0,0,0,.008,0,0,0,.009,0,0,0,.009,0,0,0,.009,0,0,0,.009v0l-.005.01v0l-.005.011h0l-.005.011v0l-.005.011v0l-.006.011v0l-.012.024h0l-.079.153h0l-.006.012h0l-.006.013h0l-.013.025v0l-.006.011h0l-.006.012v0l-.006.011h0l-.006.011v0l-.006.011h0l-.006.011v0l-.006.011h0l-.006.011v0l-.006.011h0l-.006.012h0l-.013.025h0l-.107.2h0l-.027.05h0l-.02.037h0l-.006.012v0a36.855,36.855,0,0,1-5.671,7.865h0l-.039.041h0l-.029.031h0l-.008.009,0,0-.009.009h0l-.009.01h0l-.009.01h0l-.009.01h0l-.118.123,0,0-.008.009h0l-.009.01h0l-.009.009h0l-.009.009v0l-.009.009h0l-.008.009,0,0-.007.008,0,0-.007.007,0,0-.007.007,0,0-.007.008,0,0-.008.008,0,0-.008.008,0,0-.008.008,0,0-.008.008,0,0-.008.008,0,0-.007.008,0,0-.008.008,0,0-.008.009,0,0-.009.01h0l-.1.1h0l-.009.009,0,0-.007.007,0,0-.007.007,0,0-.006.006,0,0-.007.007,0,0-.007.008,0,0-.008.008,0,0-.007.007,0,0-.008.008,0,0-.008.008,0,0-.007.007,0,0-.007.007,0,0-.007.007,0,0-.008.008,0,0-.008.008,0,0-.008.008,0,0-.008.008,0,0-.009.009h0l-.008.008,0,0-.009.009h0l-.07.07h0l-.009.009h0l-.009.009,0,0-.008.008,0,0-.007.007,0,0-.006.006,0,0-.005.005,0,0-.006.006,0,0,0,0-.005.005-.005,0,0,0-.005.005,0,0-.006.006,0,0-.005.005,0,0-.005.005,0,0-.005,0,0,0-.005.005,0,0,0,0-.006.006,0,0-.005.005-.005.005,0,0-.006.006,0,0-.005.005-.005,0,0,0L62.479,63l-.006.005,0,0-.006.006,0,0,0,0-.005.005,0,0-.006.006-.02.02,0,0-.006.006,0,0-.005.005,0,0-.006.006,0,0,0,0-.006.006,0,0-.006.006,0,0-.005.005,0,0-.006.005,0,0-.006.006,0,0-.006.006,0,0-.006.006,0,0-.007.006,0,0-.007.007,0,0-.007.007,0,0-.006.006,0,0-.006.006,0,0-.007.006,0,0-.007.007,0,0-.007.006,0,0-.007.007,0,0-.007.007,0,0-.008.008h0l-.008.008,0,0-.008.007h0l-.009.009h0l-.119.113h0l-.01.009h0l-.009.009,0,0-.009.008h0l-.009.008,0,0L62,63.462h0l-.009.009h0l-.009.009h0l-.01.009h0A36.863,36.863,0,0,1,54.589,68.9L51.227,62.85A30.02,30.02,0,0,0,65.56,44.554ZM24.835,64.115a29.956,29.956,0,0,0,23.234.255l2.626,6.4a36.475,36.475,0,0,1-6.534,1.99h0l-.435.086h0l-.013,0h0l-.012,0h0l-.013,0h0l-.027.005h0l-.027.005h0l-.013,0h0l-.013,0h0l-.027.005h0l-.282.052-.014,0-.013,0-.015,0-.014,0-.014,0-.014,0-.015,0-.014,0-.014,0-.014,0-.015,0-.014,0h0l-.084.015h0l-.213.036h0l-.016,0-.014,0-.014,0-.014,0-.015,0-.014,0-.015,0-.014,0-.015,0-.014,0-.014,0-.014,0-.015,0-.014,0-.015,0-.014,0-.015,0-.014,0-.014,0-.014,0-.014,0-.014,0h0l-.014,0-.028,0h0l-.113.018-.015,0-.014,0-.015,0-.014,0-.015,0-.014,0-.014,0-.014,0-.015,0-.015,0-.014,0-.013,0-.014,0-.014,0-.014,0-.013,0-.015,0-.015,0-.014,0-.014,0-.015,0-.015,0-.014,0-.013,0-.015,0h0l-.041.006h0l-.057.008h0l-.015,0-.014,0-.018,0-.015,0-.013,0-.014,0-.015,0-.015,0-.013,0-.014,0-.015,0-.015,0-.014,0-.015,0-.014,0-.014,0-.013,0-.015,0-.014,0-.014,0-.014,0-.014,0-.014,0-.014,0-.014,0-.015,0-.014,0-.014,0-.014,0-.015,0-.014,0-.014,0-.057.007h0l-.026,0-.014,0-.014,0-.015,0-.014,0-.014,0-.014,0-.015,0-.014,0-.014,0-.014,0-.015,0-.014,0-.014,0-.014,0-.015,0-.014,0-.015,0-.014,0-.015,0-.014,0-.014,0-.014,0-.014,0-.014,0-.014,0-.014,0-.015,0-.013,0h-.013l-.015,0-.02,0h0l-.043,0-.014,0-.014,0-.014,0-.014,0-.014,0-.014,0-.014,0-.014,0-.014,0-.014,0-.014,0-.014,0-.014,0-.014,0-.014,0H40.56l-.015,0H40.5l-.015,0h-.043l-.016,0-.029,0h0l-.028,0h-.487l-.021,0h-.482l-.043,0h-.478l-.034,0H34.686l-.057,0h0l-.057,0h-.418l-.049,0-.03,0h-.441l-.055,0H33.14l-.129-.013H33l-.015,0-.015,0-.015,0h-.014l-.015,0-.015,0-.015,0-.014,0-.015,0-.014,0-.015,0-.014,0-.014,0-.015,0-.015,0-.014,0-.014,0-.015,0-.015,0-.015,0-.015,0-.014,0-.015,0h0l-.158-.018h0l-.015,0-.014,0-.014,0-.014,0-.014,0-.015,0-.014,0-.015,0-.015,0-.015,0-.015,0-.015,0-.014,0-.014,0-.014,0-.014,0-.014,0-.014,0-.014,0-.015,0-.014,0-.015,0-.028,0h0l-.257-.033-.015,0-.014,0-.015,0-.014,0-.015,0-.014,0-.014,0-.014,0-.015,0-.014,0-.014,0-.014,0-.015,0h0l-.043-.006h0l-.285-.041h0l-.057-.008-.014,0h0l-.042-.006-.015,0h0l-.043-.006h0l-.057-.009h0a36.489,36.489,0,0,1-9.088-2.628ZM7.783,43.92A30.013,30.013,0,0,0,21.711,62.526L18.216,68.5q-.92-.538-1.805-1.128h0l-.011-.007h0l-.01-.007h0l-.011-.007h0l-.011-.008h0l-.022-.015h0l-.011-.007h0l-.011-.008h0l-.011-.007h0l-.011-.007h0l-.01-.007h0l-.023-.015h0l-.011-.007h0l-.135-.092h0l-.011-.007h0l-.022-.015h0l-.01-.007h0l-.009-.006,0,0-.009-.006,0,0-.009-.006h0l-.009-.006,0,0-.009-.006,0,0L16,67.091h0l-.01-.007h0l-.009-.006,0,0-.009-.006h0l-.01-.007h0l-.01-.007h0l-.01-.007h0l-.044-.03h0L15.8,66.95l0,0-.008-.006,0,0-.007,0-.005,0-.006,0-.005,0-.006,0-.006,0-.006,0-.005,0-.006,0-.005,0-.006,0,0,0-.007,0,0,0-.007,0,0,0-.006,0-.006,0-.006,0-.006,0-.006,0-.006,0-.005,0-.006,0-.006,0-.006,0-.005,0-.006,0-.006,0-.006,0-.006,0-.006,0-.006,0-.006,0-.006,0-.005,0-.006,0-.006,0-.005,0-.006,0-.006,0-.005,0-.006,0,0,0-.007-.005,0,0-.007-.005-.006,0,0,0-.035-.025h0l-.011-.008h0l-.01-.007,0,0-.009-.006,0,0-.007-.005,0,0-.008-.006,0,0-.008-.006,0,0-.008-.006,0,0-.007-.005,0,0-.007-.005,0,0-.007,0,0,0-.007,0-.005,0-.006,0,0,0-.008-.006,0,0L15.3,66.6l0,0-.008-.006,0,0-.008-.005,0,0-.007-.005,0,0-.007-.005,0,0-.007-.005,0,0-.008-.005,0,0-.009-.006,0,0-.011-.008h0l-.01-.007h0l-.011-.008h0l-.011-.008h0l-.022-.016h0l-.045-.033h0l-.01-.007h0l-.009-.007,0,0-.009-.007h0l-.009-.007,0,0-.008-.006,0,0-.009-.007h0l-.01-.007h0l-.009-.007,0,0L15,66.383l0,0-.009-.007,0,0-.009-.007,0,0-.008-.006,0,0-.009-.006,0,0-.01-.007h0l-.01-.007h0l-.009-.007,0,0-.01-.007h0l-.011-.008h0l-.01-.008h0l-.01-.007h0l-.183-.136h0l-.045-.034h0l-.045-.034h0A36.781,36.781,0,0,1,1.066,45.575Zm.28-30.141,5.4,4.328A29.5,29.5,0,0,0,6.918,36.753a30.2,30.2,0,0,0,.229,3.72l-6.866.852c-.016-.127-.031-.252-.045-.379h0v-.03l0-.039v-.131l0-.017h0l0-.017v0l0-.014v0l0-.016h0L.2,40.621h0Q.05,39.173.012,37.694h0l0-.071V37.55h0v-.017h0v-.053h0v-.053h0v-.09H0v-.162H0v-.236c0-.006,0-.011,0-.017H0v-.039s0-.008,0-.011V36.86s0-.009,0-.013v0q0-.008,0-.016s0,0,0-.005,0-.008,0-.012,0,0,0-.006,0-.007,0-.011,0,0,0-.007,0-.007,0-.011V36.77c0-.006,0-.011,0-.017H0c0-.007,0-.016,0-.023s0,0,0,0,0-.014,0-.022,0,0,0,0,0-.015,0-.022v-.024s0,0,0,0,0-.015,0-.022,0,0,0,0V36.6c0-.015,0-.031,0-.046V36.4H0v-.355h0v-.177h0v-.176h0v-.176h0v-.176h0v-.352h0v-.075h0v-.1h0V34.63h0v-.075h0v-.175h0v-.152l0-.046v0l0-.022v0l0-.023v0l0-.023h0l0-.023v0l0-.022v0L.1,34v0l0-.022v0l0-.023v0l0-.023h0l0-.023v0l0-.023v0l0-.047v0l0-.023v0l0-.023h0l0-.024h0l0-.023v0l0-.022v0l0-.046v0l0-.022v0l0-.022v0l0-.022v0l0-.022v0l0-.022v0l0-.046v0l0-.022v0l0-.023h0l0-.023h0l0-.022v0l0-.022v0l0-.023h0l0-.023v0l0-.022v0l0-.023h0l0-.023v0l0-.023v0l0-.022v0l0-.046v0l0-.022v0l0-.023h0l0-.024h0l0-.023v0l0-.023h0l0-.048v0l0-.023v0l0-.048h0l0-.023v0l0-.023v0l0-.046v0l0-.022v0l0-.023h0l0-.022v0l0-.022v0l0-.022v0l0-.023h0l0-.023v0l0-.022v0l.005-.047h0l0-.023v0l0-.023h0l.005-.047v0l0-.023v0l.006-.047v0l0-.023v0l0-.023h0l.006-.047v0l0-.022v0l.006-.047v0l0-.023v0l0-.023v0l.006-.046v0l0-.023v0L.3,32.019v0l0-.023v0l0-.022v0l0-.022h0l0-.023v0l0-.022v0l.006-.046v0l0-.022v0l0-.022v0l0-.023h0l0-.022v0l0-.022v0l.006-.046v0l0-.022v0l0-.023h0l0-.024h0l0-.023v0l0-.022v0L.372,31.5v0l0-.022v0l0-.022v0l0-.023h0l0-.023v0l0-.023v0L.4,31.333v0l0-.022v0l0-.023h0l0-.023h0l0-.023v0l0-.022v0l.007-.046v0l0-.023v0l0-.023h0l0-.023h0l0-.023v0l0-.022v0l.007-.046v0l0-.022v0l0-.022h0l0-.023h0l0-.022v0l0-.022v0l.007-.046v0l0-.022v0l0-.022v0l0-.023h0l0-.023v0l0-.023h0L.5,30.649v0l0-.023v0l0-.023h0l0-.022v0l0-.022v0l0-.022v0l.008-.046v0l0-.022v0l0-.022h0l0-.022v0l0-.022v0l0-.022v0l.008-.046v0l0-.022v0l.013-.07h0l0-.023v0l.008-.047h0l0-.023v0l.009-.047h0l0-.023v0l0-.023h0l.009-.047h0l0-.023h0L.638,29.9h0l0-.023v0l0-.023h0L.657,29.8h0l0-.023h0l.009-.047h0l0-.023v0l0-.023h0l.009-.047h0l0-.023v0L.7,29.56h0l0-.023v0l0-.023h0l.01-.048h0l0-.024h0l.01-.047h0l0-.023h0L.757,29.3h0l0-.024h0l.01-.047h0l0-.023h0l.015-.071h0l0-.023h0l.01-.047h0l0-.023v0l.015-.07h0l.005-.023h0l.015-.07h0l.005-.023h0l.01-.047h0l.005-.023h0L.886,28.7h0L.9,28.626h0L.907,28.6h0l.033-.142h0l.022-.095h0l.017-.071h0l.006-.023h0L1,28.221H1L1,28.2H1l.017-.07h0l.006-.023h0l.011-.047h0l.006-.023h0l.017-.07h0l.006-.023h0l.012-.047h0l.006-.023h0L1.1,27.8h0l.024-.094h0q.03-.118.061-.236h0l.025-.094h0l.019-.07h0l.006-.023h0l.012-.047h0l.006-.023h0l.019-.07h0A36.638,36.638,0,0,1,8.063,13.78ZM36.753,0V6.918A29.659,29.659,0,0,0,15.815,15.5l-4.856-4.928a36.958,36.958,0,0,1,4.766-3.966h0l.113-.079h0q.318-.22.641-.434h0l.011-.007h0l.011-.007h0l.01-.007h0l.01-.007,0,0,.009-.006h0l.01-.006h0l.01-.006h0l.009-.006,0,0,.008-.005,0,0,.009-.006,0,0,.009-.006h0L16.618,6l0,0,.009-.006h0l.01-.006h0l.01-.006h0l.009-.006,0,0,.009-.006,0,0,.009-.006,0,0,.009-.006h0l.009-.006,0,0,.009-.006h0l.009-.006,0,0,.009-.006,0,0,.008-.005,0,0,.008-.005,0,0,.008-.005,0,0,.008-.005,0,0,.008-.005,0,0,.008-.005,0,0,.009-.006,0,0,.009-.006,0,0,.008-.005,0,0,.008-.005,0,0,.008-.005,0,0,.009-.006,0,0,.009-.006,0,0,.009-.006,0,0,.009-.006,0,0,.009-.006,0,0,.008-.005,0,0,.007,0,0,0,.008-.005,0,0,.009-.006,0,0,.008-.005,0,0L17,5.754l0,0,.008-.005,0,0,.009-.006,0,0,.008-.005,0,0,.008,0,0,0,.008,0,0,0,.008-.005,0,0,.007,0,0,0,.008-.005,0,0,.009-.005,0,0,.009-.006,0,0,.007,0,0,0,.007,0,0,0,.008,0,0,0,.008-.005,0,0,.007,0,0,0,.008-.005,0,0,.008-.005,0,0,.008-.005,0,0,.007,0,.005,0,.007,0,0,0,.008,0,0,0,.008-.005,0,0,.007,0,0,0,.007,0,0,0,.008,0,0,0,.008-.005,0,0,.006,0,.006,0,0,0,.007,0,.006,0,.005,0,.007,0,.005,0,.005,0,.006,0,.01-.006h0L17.4,5.5h0l.007,0,0,0,.01-.006h0l.071-.044.005,0,.006,0,.01-.006h0l.007,0,.005,0,.007,0,.005,0,.007,0,0,0,.007,0,.005,0,0,0,.007,0,.006,0,.005,0,.008,0,0,0,.009-.005,0,0,.008,0,0,0,.009-.005,0,0,.009-.005,0,0,.008-.005,0,0,.007,0,0,0,.008,0,0,0,.009-.005,0,0,.009-.005,0,0,.008,0,0,0,.008,0,0,0,.007,0,0,0,.008,0,0,0,.006,0,.006,0,.006,0,.005,0,.007,0,0,0,.007,0,0,0,.006,0,.006,0,.007,0,.005,0,.006,0,.005,0,.006,0,.006,0,0,0,.007,0,.005,0,.006,0,.006,0,0,0,.007,0,0,0,.006,0,.005,0,.007,0,.005,0,.007,0,0,0,.007,0,.005,0,.006,0,.006,0,.007,0,0,0,.008,0,0,0,.008,0,0,0,.007,0,.005,0,.007,0,0,0,.007,0,0,0,.007,0,0,0,.006,0,.006,0,.007,0,0,0,.008,0,0,0,.009-.005,0,0,.008,0,0,0,.008,0,0,0,.008,0,0,0,.008,0,0,0,.007,0,.005,0,.007,0,0,0,.008,0,0,0,.008,0,0,0,.007,0,0,0,.007,0,0,0,.007,0,0,0,.008,0,0,0,.007,0,.005,0,.007,0,0,0,.008,0,0,0,.009-.005h0l.009-.005,0,0,.009-.005,0,0,.009-.005,0,0,.009-.005,0,0,.008,0,0,0,.008,0,0,0,.009-.005h0l.01-.006h0l.01-.006h0l.01-.006h0L18.4,4.9h0l.01-.006h0l.01-.006,0,0,.009,0h0l.01-.006h0l.023-.013h0l.047-.027h0q.19-.109.381-.215h0l.023-.013h0l.023-.013h0l.011-.006h0l.011-.006h0l.011-.006h0L19,4.565h0l.011-.006h0l.036-.02h0l.012-.006h0l.012-.006h0l.012-.006h0l.011-.006h0l.012-.006h0L19.12,4.5h0l.024-.013h0l.036-.02h0l.011-.006h0l.012-.006h0l.084-.046h0L19.3,4.4h0l.012-.006h0l.024-.013h0l.011-.006h0l.011-.006h0l.01-.006h0l.01-.005h0l.01-.005h0l.01-.005h0l.011-.006h0l.011-.006h0l.011-.006h0l.011-.006h0l.011-.006h0l.011-.006h0L19.5,4.3h0l.011-.006h0l.036-.019h0l.012-.006h0l.024-.013h0A36.495,36.495,0,0,1,30.085.6h0l.224-.04h0q.448-.079.9-.148h0l.013,0h0l.014,0h0L31.28.4h0l.015,0,.014,0,.014,0,.014,0,.014,0,.028,0h0l.014,0h0l.015,0,.013,0h0l.015,0,.013,0h0l.013,0h0l.013,0h0l.013,0h0l.013,0h0l.013,0h0l.013,0h0l.012,0h0l.013,0h0l.013,0h0l.013,0h0l.013,0h0l.013,0h0l.013,0h0l.013,0h0l.015,0,.014,0,.014,0,.014,0,.014,0,.013,0h0l.015,0,.014,0,.015,0,.013,0h0l.014,0h0l.013,0h0l.014,0h0l.028,0h0l.014,0h0l.014,0h0q.326-.043.654-.081h0l.027,0h.016l.015,0h.014l.015,0h.043l.015,0,.014,0,.015,0,.014,0,.014,0h.014l.015,0,.015,0,.015,0h.014l.014,0h.014l.015,0h.028L32.9.2l.015,0h.1l.015,0h.531l.314-.026h2.875Z" transform="translate(-59.809 -13.916)" fill="#ce4941"/>
        </g>
        <g id="Mask_Group_7" data-name="Mask Group 7" transform="translate(1173.692 574.704)" clip-path="url(#clip-path-4)">
          <path id="Ellipse_197" data-name="Ellipse 197" d="M36.574,0h.782c.6.013,1.2.04,1.8.082l-.479,6.9q-1.041-.073-2.1-.073V0Zm9.363,1.215h0l.018,0h0l.039.01h0q.519.139,1.031.292h0l.038.011h0l.038.011h0l.018.006h0l.037.011h0l.036.011h0l.018.005h0l.019.006h0l.017.005h0l.018.006h0l.017.005h0l.036.011h0l.036.011h0l.016,0h0l.018.006h0l.017.005h0l.036.011h0l.017.005h0l.018.006h0l.016,0h0l.018.006h0l.015,0h0l.018.006h0L47.6,1.7h0l.035.011h0l.017.005h0l.018.006h0l.016.005h0l.018.006h0l.018.006h0l.037.012h0q.316.1.629.21L46.18,8.513q-.986-.339-2-.608Zm8.736,3.593q1.123.644,2.2,1.364l-3.825,5.752q-.87-.584-1.782-1.107l3.412-6.009ZM62.2,10.532q.921.909,1.777,1.881L58.821,17q-.7-.79-1.444-1.529Zm5.83,7.461q.128.217.254.435v0l.019.033,0,0,.008.014v0l.009.015,0,0,.007.011,0,0,.008.014,0,.007,0,.008,0,.007.007.013,0,.008,0,.006.005.009,0,.005.009.016,0,0,.006.01,0,0,.01.018,0,0,.006.01v0l.019.034h0q.343.61.663,1.234h0l.018.035v0l.006.011v0l.01.019,0,.005,0,.009,0,.008,0,.009.006.011,0,.008,0,.008,0,.007.007.014,0,.006.005.011,0,.005.008.015,0,0,.006.013,0,0,.008.016v0l.008.016v0l.017.034h0l.018.035h0l.009.018L63.12,23.375q-.471-.942-1.006-1.846Zm3.733,8.712q.112.4.216.8h0l.01.039h0l0,.019h0L72,27.6v0l.009.036v0l0,.015v0l0,.018v0l0,.016v0l0,.018h0l0,.017v0l0,.016v0l0,.017v0l0,.014v0l0,.017v0l0,.014v0l0,.017v0l0,.016v.005l0,.015v0l0,.017v.005l0,.013v0l0,.017v0l0,.014v0l.009.036v0l0,.016v0l0,.018v0l0,.015v0l0,.018h0l0,.017v0l.009.036v0l0,.018h0l0,.019h0l0,.019h0l.009.039h0q.114.484.215.972l-6.74,1.41q-.214-1.034-.5-2.041Zm1.378,9.385-6.883.122,6.883-.122Zm0,0-6.879.663h6.884v.015s0,0,0,.005,0,.006,0,.01,0,0,0,.006,0,.006,0,.009,0,0,0,.005,0,.006,0,.01v.015s0,0,0,.006v.015s0,.006,0,.009,0,0,0,.005,0,.006,0,.01,0,0,0,.006v.015s0,.006,0,.009v.006s0,.006,0,.01,0,0,0,0,0,.007,0,.01v.005s0,.007,0,.01v0s0,.007,0,.011v0s0,.007,0,.011,0,0,0,0V37s0,.007,0,.011v0s0,.008,0,.012,0,0,0,0v.03s0,.008,0,.013V37.1h0s0,.009,0,.014v0s0,.009,0,.014h0v.015h0q-.008.772-.048,1.537l-6.875-.358.04-1.573,6.879-.663Zm-7.728,7.785L72.1,45.519q-.24.985-.531,1.947h0l-.012.04h0l0,.013h0l-.008.026h0l0,.012v0l-.011.035,0,.006,0,.01v0l-.006.018,0,.007,0,.009,0,.009,0,.012,0,.011,0,.008,0,.009,0,.008,0,.015,0,.007,0,.01,0,.007,0,.015,0,.006,0,.011,0,.007,0,.014v0l0,.015,0,.006,0,.012v0l-.005.016,0,.006,0,.013v0l-.005.017v0l0,.015v0l-.005.017h0l-.006.018v0l-.005.016v0L71.4,48v0l-.005.016v0L64.844,45.9Q65.163,44.9,65.413,43.875Zm-2.769,7.168,6.04,3.319q-.621,1.14-1.318,2.23l-5.792-3.739Q62.14,51.969,62.644,51.043Zm-4.516,6.228,5,4.759-.2.211h0l-.018.019h0l-.008.008-.005.006-.006.006-.01.011-.005.005-.008.009,0,0-.012.013,0,0-.011.012v0q-.751.778-1.546,1.511l-4.653-5.1Q57.406,58.037,58.128,57.271ZM52.181,62.14l3.625,5.881q-.248.154-.5.3h0l-.032.019,0,0-.014.009h0l-.015.009,0,0-.012.007,0,0-.015.009,0,0-.011.006-.005,0-.014.008,0,0-.011.006-.006,0-.013.008-.007,0-.008,0-.008,0-.008,0-.013.007-.007,0-.009.005-.006,0-.016.009,0,0-.01.006,0,0-.02.012h0l-.011.006h0l-.033.02h0l-.034.02h0c-.4.235-.806.461-1.217.681h0l-.011.006h0l-.022.012h0l-.01.005-.006,0-.014.008-.007,0-.008,0-.008,0-.006,0-.014.007-.006,0-.01.005-.006,0-.014.008h0l-3.2-6.124Q51.291,62.693,52.181,62.14Zm-6.974,3.17,2,6.62c-.169.052-.34.1-.51.151h0l-.04.012h0l-.054.015h0l-.039.011h0l-.038.011h0l-.012,0h0l-.022.006h0l-.012,0h0l-.036.01h0l-.011,0h0l-.023.006-.006,0-.01,0-.006,0-.019.005h-.005l-.01,0-.006,0-.035.01h0l-.035.01-.006,0-.01,0-.006,0-.019.005H46.2l-.01,0-.006,0-.018,0-.006,0-.01,0-.007,0-.01,0-.006,0-.018,0-.006,0-.01,0h-.006l-.019.005h-.005l-.011,0-.006,0-.018,0-.006,0-.01,0-.006,0-.01,0h0l-.02.005-.006,0-.01,0-.006,0-.017,0-.007,0-.01,0-.007,0-.012,0-.011,0-.01,0-.007,0-.01,0-.007,0-.017,0-.016,0-.008,0-.014,0-.009,0-.009,0-.008,0-.009,0-.015,0-.008,0-.009,0-.008,0-.014,0-.017,0-.018,0-.012,0-.01,0-.009,0-.017,0-.015,0-.018,0-.007,0-.012,0-.011,0-.018,0-.01,0-.012,0-.011,0-.017,0-.008,0-.015,0-.017,0-.008,0-.014,0-.007,0-.011,0-.008,0-.011,0-.007,0-.015,0-.018,0-.007,0-.015,0-.007,0-.011,0-.007,0-.016,0h0l-.013,0h-.005l-.014,0h0l-.017,0h-.005l-.013,0h0l-.017,0h0l-.014,0h-.005l-.035.008h0l-.017,0h0l-.018,0h0l-.017,0h0l-.039.009h0l-.335.078-1.525-6.746Q44.21,65.614,45.207,65.31Zm-7.558,1.26.244,6.914-.163.005H36.248c-.314,0-.625-.009-.937-.02l.233-6.914,1.029.018Zm-9.665-1.246q1,.3,2.023.535l-1.515,6.749q-.7-.159-1.393-.345h0l-.038-.01h0l-.019-.005h0L27,72.236h0l-.037-.01h0l-.017,0h0l-.018,0h0l-.015,0h0l-.018,0h0l-.017,0h0l-.017,0h0l-.018,0h0l-.015,0h0l-.017,0h0l-.014,0h0l-.017,0h0l-.014,0h-.005l-.015,0h0l-.017,0-.006,0-.013,0h0l-.017,0-.005,0-.012,0-.006,0-.016,0h0l-.013,0-.006,0-.014,0h0l-.017,0h-.005l-.012,0-.005,0-.016,0-.005,0-.012,0-.006,0-.016,0h0l-.013,0-.006,0-.013,0h0l-.016,0-.006,0-.013,0h0l-.017,0h0l-.013,0h0l-.017,0h0l-.015,0-.005,0-.013,0h0l-.017,0h0l-.013,0h0l-.017,0h0l-.014,0h0l-.017-.005h0l-.016,0h0l-.016,0h0l-.017-.005h0l-.016,0h0l-.018-.006h0l-.017-.005h0l-.036-.011h0l-.037-.011h0L26,71.947h0Zm-6.979-3.159q.89.552,1.82,1.042l-3.193,6.129q-.214-.113-.427-.228h0l-.017-.009h0l-.015-.008,0,0-.016-.009h0l-.013-.007-.006,0-.011-.006-.01-.005-.008,0-.009,0-.006,0-.019-.011h0l-.011-.006h0L19.02,69h0q-.576-.317-1.138-.654h0l-.033-.02,0,0-.01-.006h0l-.02-.012-.005,0L17.8,68.3l-.008,0-.012-.007-.008,0-.007,0-.009-.006-.007,0-.012-.007-.006,0-.011-.007,0,0-.015-.009,0,0-.013-.008,0,0-.015-.009,0,0-.014-.008h0l-.257-.158ZM15.051,57.3q.723.764,1.5,1.476L11.9,63.887q-.614-.564-1.2-1.154l0,0-.027-.027,0,0-.025-.026,0,0-.008-.008,0,0-.015-.015,0,0-.007-.008,0,0-.012-.012-.005-.005-.007-.007-.006-.006-.01-.01-.007-.007-.006-.006-.008-.008-.007-.007-.008-.009-.005-.005-.008-.008-.007-.007-.009-.009,0,0-.009-.009,0,0-.012-.013,0,0-.01-.011,0,0-.013-.013h0l-.013-.013h0l-.028-.029h0q-.169-.174-.336-.35Zm-4.526-6.221q.505.925,1.072,1.809L5.812,56.641c-.166-.259-.328-.519-.488-.782h0L5.3,55.812v0l-.013-.021v0l-.006-.011v0l-.019-.032,0,0L5.24,55.72l0,0-.005-.009,0-.006-.005-.009,0,0-.01-.016,0-.007,0-.008-.006-.01-.005-.009-.005-.009,0-.006-.007-.011,0-.008-.006-.01,0-.006-.007-.011,0-.005-.008-.013,0-.006-.007-.011,0,0-.009-.015,0,0-.008-.014v0l-.01-.016v0l-.009-.015v0q-.308-.523-.6-1.057ZM7.745,43.92q.251,1.025.572,2.022L1.767,48.07q-.111-.346-.216-.694h0l-.011-.038v0L1.528,47.3v0l-.005-.017h0l-.005-.018v0l0-.016v0L1.5,47.222v0l0-.014,0-.005,0-.015,0-.005,0-.013,0-.007,0-.011,0-.006,0-.015,0-.008,0-.009,0-.008,0-.015,0-.008,0-.009,0-.009,0-.01,0-.012,0-.01,0-.009,0-.008,0-.016,0-.006,0-.01,0-.006-.01-.034,0-.005,0-.011v0L1.411,46.9v0l0-.012v0L1.4,46.844v0L1.384,46.8v0l-.011-.038v0l0-.013h0l-.011-.039v0l-.011-.038v0l-.011-.039v0l0-.013v0l-.011-.038v0l-.01-.037v0l-.01-.036v-.005l0-.011v0l-.005-.02v0l0-.01,0-.007,0-.015,0-.009,0-.009,0-.009,0-.008,0-.014,0-.008,0-.01,0-.007,0-.012,0-.007,0-.013,0-.006,0-.012v-.006l0-.017v0l0-.014v0l0-.018v0l0-.016v0l-.01-.038h0q-.077-.295-.15-.591ZM0,36.753H6.884l.043,1.62-6.875.368Q.01,37.94,0,37.128H0Q0,37.066,0,37v-.143s0-.006,0-.009,0,0,0-.006v-.009s0-.006,0-.007,0-.005,0-.008,0-.005,0-.008,0-.005,0-.008,0,0,0-.007,0-.006,0-.008,0,0,0-.007,0-.007,0-.01v0c0-.005,0-.01,0-.015Zm1.368-9.993,6.626,1.877q-.283,1.007-.5,2.042l-6.742-1.4.018-.088h0l.008-.04v0l0-.012v0l0-.022v-.006l0-.01,0-.008,0-.013,0-.011,0-.008,0-.01,0-.007,0-.016v0l0-.013V29l0-.017h0l0-.017v0l0-.018h0l0-.019h0q.178-.824.392-1.634v0l.01-.037v0l0-.016v0l0-.018v0l0-.014v-.005l0-.017v0l0-.015,0-.006,0-.012v-.005l0-.016,0-.008,0-.008,0-.009v0l.006-.02v0l0-.011v0l.006-.023v0l0-.013h0C1.323,26.923,1.345,26.843,1.368,26.761Zm3.72-8.718L11.01,21.57q-.533.9-1,1.847l-6.156-3.1q.253-.508.522-1.008h0l.019-.035h0l.018-.034v0l.018-.032,0,0,.007-.012,0,0,.008-.014,0-.007,0-.009,0-.008.007-.013,0-.007,0-.008,0-.008.007-.012,0-.009,0-.006,0-.009v0l.011-.02,0,0,.006-.01v0l.012-.021v0Q4.8,18.524,5.088,18.042Zm5.818-7.471L15.737,15.5q-.747.74-1.442,1.532L9.132,12.456l.161-.182h0l.013-.015h0l.013-.015h0l.012-.014v0l.013-.014h0l.012-.013,0,0,.013-.014h0l.011-.013,0,0,.012-.013,0,0,.011-.012,0,0,.012-.013h0l.012-.013,0,0,.009-.01,0,0,.011-.013,0,0,.009-.01,0,0,.011-.013,0,0,.009-.01,0,0,.011-.012,0,0,.008-.009,0,0,.011-.012,0,0,.007-.008.005-.006.011-.012,0,0,.007-.008.005-.006.011-.012,0,0,.008-.009.005-.006.009-.01.005-.006.008-.009,0,0,.009-.01,0,0,.01-.011,0-.005.008-.009,0,0,.011-.012,0-.005.008-.009,0,0,.011-.012,0,0,.009-.009,0,0,.011-.012,0,0,.009-.01,0,0,.011-.012,0,0,.009-.01,0,0,.012-.013,0,0,.01-.011,0,0,.012-.013,0,0,.01-.011,0,0,.012-.013h0l.012-.013,0,0L9.9,11.6l0,0,.012-.013h0l.013-.014,0,0,.013-.013h0l.013-.014,0,0,.012-.013h0l.013-.014h0L10,11.5h0l.027-.029h0l.027-.029h0l.027-.029h0q.222-.235.449-.466h0l.028-.028h0l.027-.028h0l.027-.027,0,0,.026-.026,0,0,.011-.011,0,0,.012-.012,0,0,.009-.009,0,0,.011-.011,0,0,.008-.008.005-.005.01-.01.007-.007.005-.005.007-.007,0,0,.013-.013,0,0,.134-.133Zm7.52-5.735,3.421,6q-.911.524-1.781,1.11L16.232,6.2q.906-.61,1.85-1.167l0,0,.033-.019,0,0L18.14,5h0L18.151,5l.006,0,.008,0,.013-.008.006,0,.01-.006.006,0,.014-.008,0,0,.011-.007,0,0,.015-.009h0l.014-.008,0,0,.033-.019h0Zm8.73-3.607,1.768,6.686q-1.015.271-2,.612L24.686,1.985q.427-.148.859-.285h0l.037-.012h0l.036-.011h0l.017-.005h0l.018-.006h0l.015,0h0l.017-.005h0l.015,0,.005,0,.014,0,.007,0,.012,0,.008,0,.009,0,.009,0,.013,0,.009,0,.008,0,.009,0h0l.021-.006h0l.011,0h0l.025-.008h0q.631-.193,1.27-.364ZM36.516,0l.011,6.918q-1.059,0-2.1.077l-.489-6.9q.379-.027.761-.047h0l.04,0h.022l.041,0h.02l.041,0h.281l.041,0h.159Q35.927,0,36.516,0Z" transform="translate(4.568 -41.238)" fill="#5cb6e1"/>
        </g>
        <circle id="Ellipse_198" data-name="Ellipse 198" cx="7.5" cy="7.5" r="7.5" transform="translate(1207.334 562.633)" fill="#faedce"/>
        <path id="Ellipse_198_-_Outline" data-name="Ellipse 198 - Outline" d="M8.215,4.324a3.892,3.892,0,1,0,3.892,3.892A3.9,3.9,0,0,0,8.215,4.324M8.215,0A8.215,8.215,0,1,1,0,8.215,8.215,8.215,0,0,1,8.215,0Z" transform="translate(1206.618 561.917)" fill="#2c70ab"/>
        <path id="Polygon_6" data-name="Polygon 6" d="M4.756,0,9.513,32H0Z" transform="translate(1229.042 536.589) rotate(30)" fill="#2c70ab"/>
      </g>
      <g id="Group_3027" data-name="Group 3027" transform="translate(-27 -359.19)">
        <path id="Path_614" data-name="Path 614" d="M46.966,16.1,35.516,4.654A2.181,2.181,0,0,0,33.989,4H17.631a2.181,2.181,0,0,0-1.527.654L4.654,16.1A2.181,2.181,0,0,0,4,17.631V33.989a2.181,2.181,0,0,0,.654,1.527L16.1,46.966a2.181,2.181,0,0,0,1.527.654H33.989a2.181,2.181,0,0,0,1.527-.654l11.45-11.45a2.181,2.181,0,0,0,.654-1.527V17.631A2.181,2.181,0,0,0,46.966,16.1Z" transform="translate(1055 485.19)" fill="#f2ac20"/>
        <g id="Group_2992" data-name="Group 2992" transform="translate(1079.255 500.095)">
          <path id="Path_615" data-name="Path 615" d="M24.181,29.267a2.181,2.181,0,0,0,2.181-2.181V16.181a2.181,2.181,0,0,0-4.362,0V27.086A2.181,2.181,0,0,0,24.181,29.267Z" transform="translate(-22.255 -14)" fill="#fff"/>
          <circle id="Ellipse_188" data-name="Ellipse 188" cx="2.5" cy="2.5" r="2.5" transform="translate(-0.255 16.905)" fill="#fff"/>
        </g>
      </g>
    </g>
  </g>
</svg>
