<svg xmlns="http://www.w3.org/2000/svg" xmlns:xlink="http://www.w3.org/1999/xlink" width="350" height="350" viewBox="0 0 350 350">
  <defs>
    <clipPath id="clip-path">
      <rect id="Rectangle_1058" data-name="Rectangle 1058" width="95.757" height="90.387" transform="translate(45.194 0) rotate(30)" fill="#fff" stroke="#95d298" stroke-width="1"/>
    </clipPath>
    <clipPath id="clip-path-2">
      <path id="Polygon_7" data-name="Polygon 7" d="M129.764,0,259.527,83.228H0Z" fill="#fff" stroke="#fff" stroke-width="1"/>
    </clipPath>
    <clipPath id="clip-path-3">
      <rect id="Rectangle_1059" data-name="Rectangle 1059" width="60.855" height="70.699" transform="translate(35.349 0) rotate(30)" fill="#fff" stroke="#f9d05d" stroke-width="1"/>
    </clipPath>
    <clipPath id="clip-path-4">
      <rect id="Rectangle_1060" data-name="Rectangle 1060" width="59.065" height="69.804" transform="translate(0 29.532) rotate(-30)" fill="#fff" stroke="#f9d05d" stroke-width="1"/>
    </clipPath>
    <clipPath id="clip-path-5">
      <rect id="Rectangle_136" data-name="Rectangle 136" width="51.662" height="102.823" fill="none"/>
    </clipPath>
    <clipPath id="clip-Dailylimit">
      <rect width="350" height="350"/>
    </clipPath>
  </defs>
  <g id="Dailylimit" clip-path="url(#clip-Dailylimit)">
    <rect width="350" height="350" fill="#fff"/>
    <g id="Group_3062" data-name="Group 3062" transform="translate(-879.11 -148.285)">
      <path id="Path_611" data-name="Path 611" d="M327.381,152.58H285.869a23.288,23.288,0,0,0,7.276-17.188v-5.086c0-14.733,10.711-26.677,23.924-26.677,13.544,0,24.524-12.244,24.524-27.347s-10.98-27.347-24.524-27.347h-4.018c-13.213,0-23.924-11.944-23.924-26.677h0C289.127,9.964,280.19,0,269.164,0H113.178c-12.272,0-22.22,11.093-22.22,24.777,0,9.355,4.65,17.5,11.512,21.714h-27.4c-11.427,0-20.691,9.56-20.691,21.353,0,14.132-11.1,25.589-24.8,25.589H25.418C11.38,93.43,0,105.174,0,119.661s11.38,26.231,25.418,26.231h0c13.694,0,24.8,11.456,24.8,25.589v4.878c0,11.793,9.264,21.353,20.691,21.353h96.28c.726.07,1.462.107,2.207.107H327.381a22.62,22.62,0,1,0,0-45.24" transform="translate(879.11 228.964)" fill="#9bc1f9" opacity="0.102"/>
      <path id="Path_1557" data-name="Path 1557" d="M0,0H349.982V1.543H0Z" transform="translate(879.119 426.783)" fill="#dee5f0"/>
      <g id="Ellipse_220" data-name="Ellipse 220" transform="translate(1001.31 235.225)" fill="none" stroke="#ce4941" stroke-width="20">
        <circle cx="59.512" cy="59.512" r="59.512" stroke="none"/>
        <circle cx="59.512" cy="59.512" r="69.512" fill="none"/>
      </g>
      <g id="Mask_Group_13" data-name="Mask Group 13" transform="translate(943.066 246.873)" clip-path="url(#clip-path)">
        <g id="Ellipse_222" data-name="Ellipse 222" transform="translate(58.244 -11.648)" fill="none" stroke="#95d298" stroke-width="20">
          <circle cx="59.512" cy="59.512" r="59.512" stroke="none"/>
          <circle cx="59.512" cy="59.512" r="69.512" fill="none"/>
        </g>
      </g>
      <g id="Group_3035" data-name="Group 3035" transform="translate(1001.31 235.225)">
        <circle id="Ellipse_219" data-name="Ellipse 219" cx="59.512" cy="59.512" r="59.512" transform="translate(0 0)" fill="#fff"/>
      </g>
      <g id="Mask_Group_12" data-name="Mask Group 12" transform="translate(931.506 291.605)" clip-path="url(#clip-path-2)">
        <g id="Ellipse_221" data-name="Ellipse 221" transform="translate(69.804 -56.38)" fill="none" stroke="#fff" stroke-width="21">
          <circle cx="59.512" cy="59.512" r="59.512" stroke="none"/>
          <circle cx="59.512" cy="59.512" r="70.012" fill="none"/>
        </g>
      </g>
      <g id="Mask_Group_14" data-name="Mask Group 14" transform="translate(989.018 186.042)" clip-path="url(#clip-path-3)">
        <g id="Ellipse_223" data-name="Ellipse 223" transform="translate(12.292 49.183)" fill="none" stroke="#f9d05d" stroke-width="20">
          <circle cx="59.512" cy="59.512" r="59.512" stroke="none"/>
          <circle cx="59.512" cy="59.512" r="69.512" fill="none"/>
        </g>
      </g>
      <g id="Mask_Group_15" data-name="Mask Group 15" transform="translate(1043.724 188.891)" clip-path="url(#clip-path-4)">
        <g id="Ellipse_224" data-name="Ellipse 224" transform="translate(-42.415 46.335)" fill="none" stroke="#f9d05d" stroke-width="20">
          <circle cx="59.512" cy="59.512" r="59.512" stroke="none"/>
          <circle cx="59.512" cy="59.512" r="69.512" fill="none"/>
        </g>
      </g>
      <g id="Ellipse_198" data-name="Ellipse 198" transform="translate(1054.11 298.765)" fill="#fff" stroke="#2c70ab" stroke-width="5">
        <circle cx="8.502" cy="8.502" r="8.502" stroke="none"/>
        <circle cx="8.502" cy="8.502" r="6.002" fill="none"/>
      </g>
      <path id="Path_1487" data-name="Path 1487" d="M5.569,0l5.569,80.444H0Z" transform="translate(1057.043 222.92)" fill="#2c70ab"/>
      <g id="Group_3037" data-name="Group 3037" transform="translate(1120.178 324.317)">
        <g id="Group_498" data-name="Group 498" clip-path="url(#clip-path-5)">
          <path id="Path_459" data-name="Path 459" d="M26.467,165.16a15.632,15.632,0,0,0-1.347-5.517c-1.068-2.054-2.945-3.535-4.584-5.167A28.67,28.67,0,0,1,13.7,143.58c-1.094-3.161-1.639-6.529-3.147-9.514-.92-1.823-2.176-3.452-3.222-5.206-2.471-4.145-3.817-9.044-7.168-12.514a15.042,15.042,0,0,0,3.4,11.9,20.054,20.054,0,0,1,2.412,2.932c1.142,2,1.038,4.44,1.171,6.74A29.6,29.6,0,0,0,10.684,150.3c2.2,4.038,5.373,7.633,6.548,12.08.881,3.332.619,7.07,2.5,9.957a2.546,2.546,0,0,1,.486,1,2.176,2.176,0,0,1-.037.626l-.126.8c-.427,2.727-.869,6.2,1.475,8.238,1.624,1.415,3.715,1.446,4.881-.433s1.07-4.661.983-6.79c-.145-3.546-.525-7.1-.924-10.626" transform="translate(0 -103.349)" fill="#69bf6d"/>
          <path id="Path_460" data-name="Path 460" d="M170.763,59.617c-.912-3.157-2.327-6.163-3.036-9.372a44.172,44.172,0,0,1-.7-9.518q0-5.239-.007-10.479a39.5,39.5,0,0,0-.363-6.506c-.773-4.614-3.171-8.881-3.578-13.542-.176-2.016.028-4.053-.193-6.064A9.543,9.543,0,0,0,161.937.8a1.488,1.488,0,0,0-2.67.075,13.576,13.576,0,0,0-1.433,7.956,32.558,32.558,0,0,0,1.509,4.7c2.336,6.949,1.1,14.641,2.9,21.746a32.352,32.352,0,0,1,1.467,6.459c.23,5.292-3.723,10.127-3.36,15.411.3,4.333,3.412,7.919,4.72,12.06.732,2.318.889,4.792,1.673,7.093.609,1.788,2.026,3.958,4.227,3.416,2.089-.515,1.458-2.221,1.365-3.849-.316-5.51-.019-10.857-1.574-16.241" transform="translate(-140.075 0)" fill="#40a148"/>
          <path id="Path_461" data-name="Path 461" d="M247.057,87.55a25.189,25.189,0,0,1-.14-4.916,28.7,28.7,0,0,1,1.131-4,35.962,35.962,0,0,0,1.09-7.707q.483-7.073.966-14.146a184.612,184.612,0,0,1,2.375-21.9c.38-2,.808-4.175-.093-6-.19-.386-.563-.795-.973-.666-.292.091-.435.413-.541.7-3,8.141-4.128,16.906-7.472,24.91a32.047,32.047,0,0,0-2.147,5.84,33.119,33.119,0,0,0-.16,7.467,35.224,35.224,0,0,1-1.244,10.624,43.979,43.979,0,0,0-1.493,5.41,28.462,28.462,0,0,0,.164,6.984,107.293,107.293,0,0,1,.431,13.453c-.081,2.638,2.146,2.569,3.621.948,1.032-1.133,1.022-2.378,1.375-3.789,1.16-4.632,3.389-8.19,3.107-13.212" transform="translate(-211.586 -25.041)" fill="#69bf6d"/>
          <path id="Path_462" data-name="Path 462" d="M86.774,503.436c-1.969-3.164-5.892-4.963-7.151-8.473-.32-.893-.445-1.853-.837-2.718-.869-1.919-2.845-3-4.787-3.887a.411.411,0,0,0-.58.37,1.4,1.4,0,0,0,.608,1.185,7.879,7.879,0,0,1,3.14,4.283c.6,2.057.34,4.311,1.085,6.319.626,1.686,1.915,3.064,2.52,4.758a26.846,26.846,0,0,1,.755,4.863c.26,1.624.981,3.346,2.472,4.034,5.394,2.486,4.046-8.69,2.774-10.734" transform="translate(-65.217 -433.773)" fill="#40a148"/>
          <path id="Path_463" data-name="Path 463" d="M316,446.059c-.084,1.53.15,3.134-.449,4.543a13.786,13.786,0,0,1-1.637,2.431c-1.986,2.809-2.706,6.788-5.757,8.369a1.038,1.038,0,0,1-.649.156.994.994,0,0,1-.643-.652c-.748-1.743.091-3.706.588-5.537a1.359,1.359,0,0,0,.007-.972c-.168-.324-.551-.465-.812-.719a2.371,2.371,0,0,1-.369-2.067,46.861,46.861,0,0,1,1.088-5.343,9.347,9.347,0,0,1,1.144-2.858,12.658,12.658,0,0,1,2.41-2.385,28.564,28.564,0,0,0,8.338-12.309,8.086,8.086,0,0,1,1.4-2.916,2.326,2.326,0,0,1,2.914-.594c.631.444-1.954,4.6-2.256,5.1-.861,1.425-.873,2.665-1.36,4.248-1.193,3.878-3.726,7.348-3.955,11.5" transform="translate(-272.003 -377.44)" fill="#69bf6d"/>
          <path id="Path_464" data-name="Path 464" d="M270.841,338.481a18.822,18.822,0,0,0,1.32-4.492c.207-1.727-.068-3.494.228-5.209.379-2.2,1.665-4.143,2.3-6.287a41.547,41.547,0,0,0,.848-4.767c.789-4.551,2.929-9,2.315-13.575-.134-1-.583-2.156-1.571-2.326a1.907,1.907,0,0,0-1.942,1.543,8.33,8.33,0,0,0,0,2.714,11.2,11.2,0,0,1-2.007,7.184c-1.405,1.989-3.445,3.486-4.709,5.568-1.551,2.553-1.763,5.67-2.554,8.552-1.574,5.731-5.523,10.731-6.242,16.631-.286,2.348.265,5.2,2.431,6.14,6.267,2.713,8.159-8.005,9.579-11.677" transform="translate(-229.855 -268.093)" fill="#3fa148"/>
          <path id="Path_465" data-name="Path 465" d="M142.342,695.224H127.959a1.525,1.525,0,0,0-1.481,1.879l5.243,22.109a1.524,1.524,0,0,0,1.481,1.173h17.277a1.524,1.524,0,0,0,1.481-1.173L157.2,697.1a1.525,1.525,0,0,0-1.482-1.879Z" transform="translate(-112.312 -617.562)" fill="#f6bc1a"/>
        </g>
      </g>
      <g id="Group_3047" data-name="Group 3047" transform="translate(910.393 272.092)">
        <path id="Path_1541" data-name="Path 1541" d="M1.511,78.414c.547-8.605,6.43-37.344,16.615-45.313s9.94-8.723,48.334-9.063c17.27-.153,30.913,12.5,37.761,40.782s38.735.692,45.313,40.782-84.792,37.5-107.242,36.251S-.148,132.323,0,104.091s.964-17.073,1.51-25.678" transform="translate(0.001 12.269)" fill="#c8dbf4" fill-rule="evenodd"/>
        <path id="Path_1546" data-name="Path 1546" d="M11.9,26.042c7.773.707,8.447-6.829,8.447-6.829l-.176-5-.2-5.87S14.336,4.778,9.9,2.307C7.067.732,4.718-.4,4.625.132,3.976,3.784,2.1,11.062.159,14.337-.981,20,4.124,25.334,11.9,26.042" transform="translate(36.036 29.293) rotate(-8)" fill="#eaa778"/>
        <path id="Path_1532" data-name="Path 1532" d="M87.085,95.156S78.051,105,75,107.239c0,0,14.949,18.219,37.761,25.678,0,0,10.289-.716,9.063-12.084,0,0-12.578-14.27-34.284-26.028" transform="translate(38.285 48.392)" fill="#7293c4" fill-rule="evenodd"/>
        <path id="Path_1530" data-name="Path 1530" d="M76.162,104.334s14.667,15.532,29.311,21.91,16.242-4.694,15.759-10.275c0,0-1.055-3.621-23.485-6.185,0,0-7.137-.708-18.513-4.475" transform="translate(38.877 53.257)" fill="#a1c7e9" fill-rule="evenodd"/>
        <path id="Path_1533" data-name="Path 1533" d="M112.064,99.684c1.2-2.5,21.225-.933,25.678-4.531s14.378-15.867,22.657-15.1,6.367,7.729,4.531,13.594-19.918,34.7-30.209,46.824a84.11,84.11,0,0,1-7.552,7.552S111.233,137.883,103,122.341a153.965,153.965,0,0,1,9.063-22.657" transform="translate(52.577 40.843)" fill="#7293c4" fill-rule="evenodd"/>
        <path id="Path_1531" data-name="Path 1531" d="M136.387,113.67s7.269-18.322,8.58-26.51,8.288-9.064,6.042,1.51-9.528,19.922-17.778,32.689" transform="translate(67.722 41.283)" fill="#a1c7e9" fill-rule="evenodd"/>
        <path id="Path_1542" data-name="Path 1542" d="M1726.708,8814.843c-35.8,5.2-49.253,7.211-56.359-3.282s-5.11-28.4-2.168-34.514,61.018-.026,83.847,12.24S1762.51,8809.642,1726.708,8814.843Z" transform="translate(-1645.716 -8704.616)" fill="#b5c9e3"/>
        <path id="Path_1537" data-name="Path 1537" d="M35.181,28.805a103.068,103.068,0,0,0-13.465,4.718c-3.92,1.8-5.977,3.542-7.079,7.117C12.072,48.954,10.689,58.505,8.6,64.807S5.5,80,10.106,85.953H20.679S25.471,91.506,28.231,92c0,0-1.1-7.308,7.552-13.594S75.055,57.255,75.055,57.255l9.063-1.51L76.565,30.067S73.83,26.691,67.5,27.046s-13.049.382-13.049.382.524,7.249-7.156,7.745S35.181,28.805,35.181,28.805Z" transform="translate(3.489 13.792)" fill="#fdefce" fill-rule="evenodd"/>
        <path id="Path_1538" data-name="Path 1538" d="M32.051,71.335S18.78,79.7,12.415,80.4,6.107,62.706,18.457,60.762s17.841-3.22,27.188-7.552,21.747-10.93,25.678-9.063,3.021,4.531,3.021,4.531S58.631,53.593,48.666,59.251A90.853,90.853,0,0,0,32.051,71.335" transform="translate(4.201 22.369)" fill="#f8be95" fill-rule="evenodd"/>
        <path id="Path_1535" data-name="Path 1535" d="M49,59.84l40.782,6.042,6.042-6.042,9.063-33.23L58.063,16.037Z" transform="translate(25.013 8.186)" fill="#90c8eb" fill-rule="evenodd"/>
        <path id="Path_1536" data-name="Path 1536" d="M38,55.676,54.615,45.037,95.4,50.357,83.314,61Z" transform="translate(19.398 22.989)" fill="#2c70ab" fill-rule="evenodd"/>
        <path id="Path_1539" data-name="Path 1539" d="M112.179,45.177c8.242,6.375,8.754,22.113,7.637,37.954s-3.064,26.963-3.064,26.963l-20.8-16.442s.648-10.636,1.207-16.562-4.043-4.775-6.042-3.021-9.063,6.042-9.063,6.042S69.928,65.913,67.1,58.859c0,0,16.593-10.272,22.506-13.683S103.937,38.8,112.179,45.177Z" transform="translate(34.252 21.146)" fill="#4b4e6c" fill-rule="evenodd"/>
        <path id="Path_1540" data-name="Path 1540" d="M21.4,82.645s-4.16-5.711,3.021-12.084,22.657-15.1,22.657-15.1S67.2,48.033,72.76,46.394s13.083-2.467,16.615,6.042,13.544,29.717,64.949,64.949c0,0-2.729,13.277-9.063,22.657,0,0-34.372-23.273-49.845-33.23S75.674,85.865,74.271,82.645s-3.29-3.225-9.063-1.51-25.57,5.632-43.8,1.51" transform="translate(10.315 23.142)" fill="#53577a" fill-rule="evenodd"/>
        <path id="Path_1534" data-name="Path 1534" d="M104.271,116.39s-5.759-4.424-3.021-10.573,9.059-14.143,9.059-14.143l3.058,2.012a65.057,65.057,0,0,1-9.1,22.7" transform="translate(51.307 46.794)" fill="#f8be95" fill-rule="evenodd"/>
        <rect id="Rectangle_1066" data-name="Rectangle 1066" width="219.385" height="188.862" transform="translate(0.001 0)" fill="none"/>
        <path id="Path_1544" data-name="Path 1544" d="M1673.524,8771.373s1.9,10.727-.916,16.841c3.837-1.148,8.881-1.492,13.241-3.575-7.288-1.925-8.413-.83-9.642-5.742A33.687,33.687,0,0,0,1673.524,8771.373Z" transform="translate(-1642.086 -8706.285)" fill="#efdeb8"/>
        <g id="Group_3046" data-name="Group 3046" transform="translate(30.573 4.892) rotate(-8)">
          <path id="Path_1525" data-name="Path 1525" d="M9.136,0c5.446,12.13-1.09,23.366-.892,22.892S0,2.413,0,2.413Z" transform="translate(21.071 7.423)" fill="#50567c"/>
          <path id="Path_1526" data-name="Path 1526" d="M.219,21.391C1.748,29.7,7.963,35.313,14.1,33.936s9.066-6.752,8.345-17.529C21.88,7.952,17.71-1.239,11.572.138S-1.309,13.086.219,21.391" transform="translate(9.602 6.167)" fill="#f8be95"/>
          <path id="Path_1527" data-name="Path 1527" d="M10.568,24.944c-.748.676-1.676,2.591-3.958,5.835-.212.3-1.7,2.307-1.773,1.641C3.778,23.331-.955,20.509.172,11.316,1,4.54,5.3,5.077,5.3,5.077S8.08-.593,16.719.051c5.788.431,10.948,2.686,16.914,4.222s-7.059,15.059-14.8,10.118-3.918,5.942-5.139,6.786-.587.112-1.147,5.681" transform="translate(0 0)" fill="#50567c"/>
          <path id="Path_1528" data-name="Path 1528" d="M.316,5.673c.744,2.558,2.561,4.21,4.058,3.691s1.543-2.6,1.366-5.572C5.581,1.11,3.18-.419,1.683.1S-.427,3.115.316,5.673" transform="translate(4.908 18.614)" fill="#f8be95"/>
        </g>
        <path id="Path_1545" data-name="Path 1545" d="M1702.289,8763.318l-.817,13.291h.283l2.2-10.778Z" transform="translate(-1627.352 -8710.397)" fill="#efdeb8"/>
        <path id="Path_1547" data-name="Path 1547" d="M1803.565,8808.557s-3.173,3.455-8.168,19.283-27.854,44.129-27.854,44.129l1.76,1.411s15.005-19.191,21.907-32.848,4.753-11.157,6.855-16.955,6.338-14.9,7.523-15.282A16.783,16.783,0,0,0,1803.565,8808.557Z" transform="translate(-1593.627 -8687.438)" fill="#fff" opacity="0.5"/>
        <path id="Path_1548" data-name="Path 1548" d="M1729.644,8829.547a68.583,68.583,0,0,0,18.262,5.921c10.419,1.8,15.546,3.513,20.155,5.76-.41-.878-.582-.567-.582-.567s-2.643-2.205-12.663-4.551-11.988-2.358-17.66-4.395-6.733-2.883-6.733-2.883Z" transform="translate(-1612.972 -8676.955)" fill="#fff" opacity="0.5"/>
        <circle id="Ellipse_225" data-name="Ellipse 225" cx="3.132" cy="3.132" r="3.132" transform="translate(99.866 47.256)" fill="#fff"/>
        <path id="Path_1549" data-name="Path 1549" d="M1718.181,8775.208s.855,9.884-9.01,10.722c6.5.986,11.811-2.946,12.35-10.722A28.6,28.6,0,0,1,1718.181,8775.208Z" transform="translate(-1657.494 -8734.107)" fill="#efdeb8"/>
      </g>
    </g>
  </g>
</svg>
