<svg xmlns="http://www.w3.org/2000/svg" width="12" height="12" viewBox="0 0 12 12">
  <g id="Group_5356" data-name="Group 5356" transform="translate(-896 -745)">
    <rect id="Rectangle_2422" data-name="Rectangle 2422" width="12" height="12" transform="translate(896 745)" fill="rgba(255,255,255,0)"/>
    <g id="Group_5355" data-name="Group 5355">
      <path id="Path_3050" data-name="Path 3050" d="M.1,9.406,8.877.081a.257.257,0,0,1,.38.007L11.25,2.054a.211.211,0,0,1,.007.293l-8.8,9.57L2.268,12H.2a.2.2,0,0,1-.2-.2V9.657a.366.366,0,0,1,.1-.251" transform="translate(896 745)"/>
      <path id="Path_3051" data-name="Path 3051" d="M9.323,4.354l-2.38-2.3.676-.733L10.01,3.6Z" transform="translate(896.073 745.014)" fill="#fff"/>
      <path id="Path_3052" data-name="Path 3052" d="M11.82,11.429a.621.621,0,0,1-.571.66H5.541a.667.667,0,0,1,0-1.32h5.708a.621.621,0,0,1,.571.66" transform="translate(896.153 744.911)"/>
    </g>
  </g>
</svg>
