<svg xmlns="http://www.w3.org/2000/svg" xmlns:xlink="http://www.w3.org/1999/xlink" width="350.133" height="249.14" viewBox="0 0 350.133 249.14">
  <defs>
    <clipPath id="clip-path">
      <path id="Path_2388" data-name="Path 2388" d="M3.223-8.758a2.358,2.358,0,0,1-.694.1,3.269,3.269,0,0,1-.663-.066,2.018,2.018,0,0,1-.585-.215,1.635,1.635,0,0,1-.465-.392,1.67,1.67,0,0,1-.3-.6l.805-.347a1.255,1.255,0,0,0,.441.67,1.262,1.262,0,0,0,.77.226,1.32,1.32,0,0,0,.349-.047.971.971,0,0,0,.307-.142A.741.741,0,0,0,3.4-9.806a.674.674,0,0,0,.083-.34.562.562,0,0,0-.123-.383.846.846,0,0,0-.323-.222,2.225,2.225,0,0,0-.456-.127q-.257-.045-.524-.1a4.463,4.463,0,0,1-.524-.135,1.468,1.468,0,0,1-.456-.239,1.146,1.146,0,0,1-.323-.409,1.476,1.476,0,0,1-.123-.645,1.289,1.289,0,0,1,.154-.64,1.424,1.424,0,0,1,.406-.46,1.83,1.83,0,0,1,.573-.278,2.311,2.311,0,0,1,.651-.094,2.7,2.7,0,0,1,.592.064,1.955,1.955,0,0,1,.531.2,1.763,1.763,0,0,1,.439.349,1.633,1.633,0,0,1,.312.51l-.753.326a1.288,1.288,0,0,0-.453-.527,1.187,1.187,0,0,0-.668-.191,1.428,1.428,0,0,0-.314.035A.87.87,0,0,0,1.826-13a.614.614,0,0,0-.2.2.592.592,0,0,0-.076.311.576.576,0,0,0,.08.316.636.636,0,0,0,.219.206,1.237,1.237,0,0,0,.323.128q.184.047.39.085l.423.078a3.9,3.9,0,0,1,.423.1,2.193,2.193,0,0,1,.39.16,1.143,1.143,0,0,1,.323.253,1.139,1.139,0,0,1,.219.382,1.629,1.629,0,0,1,.08.541,1.373,1.373,0,0,1-.163.678,1.554,1.554,0,0,1-.429.493A1.891,1.891,0,0,1,3.223-8.758Z" transform="translate(-0.513 13.876)" fill="#fff"/>
    </clipPath>
    <clipPath id="clip-path-2">
      <path id="Path_2390" data-name="Path 2390" d="M11.037-13.264a.538.538,0,0,1-.2.038.541.541,0,0,1-.2-.038.539.539,0,0,1-.168-.106.488.488,0,0,1-.115-.161.49.49,0,0,1-.042-.2.486.486,0,0,1,.042-.2.486.486,0,0,1,.113-.158.534.534,0,0,1,.167-.1.551.551,0,0,1,.206-.038.528.528,0,0,1,.2.038.54.54,0,0,1,.165.1.465.465,0,0,1,.111.158.5.5,0,0,1,.04.2.517.517,0,0,1-.04.2.492.492,0,0,1-.109.161A.459.459,0,0,1,11.037-13.264Zm.246.635v3.717H10.4v-3.717Z" transform="translate(-10.305 14.235)" fill="#fff"/>
    </clipPath>
    <clipPath id="clip-path-3">
      <path id="Path_2392" data-name="Path 2392" d="M16.533-5.943a3.039,3.039,0,0,1-.753.09,3.322,3.322,0,0,1-.522-.042,2.049,2.049,0,0,1-.494-.142,1.43,1.43,0,0,1-.416-.274,1.267,1.267,0,0,1-.295-.437l.7-.305a.786.786,0,0,0,.179.259.878.878,0,0,0,.246.163,1.215,1.215,0,0,0,.291.087,1.886,1.886,0,0,0,.314.026,1.132,1.132,0,0,0,.769-.243.937.937,0,0,0,.279-.746v-.555a1.308,1.308,0,0,1-.229.288,1.508,1.508,0,0,1-.3.22,1.473,1.473,0,0,1-.345.141,1.428,1.428,0,0,1-.37.049,1.632,1.632,0,0,1-.7-.146,1.518,1.518,0,0,1-.519-.394,1.745,1.745,0,0,1-.321-.58,2.186,2.186,0,0,1-.111-.7,2.087,2.087,0,0,1,.116-.7,1.774,1.774,0,0,1,.335-.583,1.624,1.624,0,0,1,.529-.4,1.586,1.586,0,0,1,.7-.149,1.748,1.748,0,0,1,.366.038,1.383,1.383,0,0,1,.337.118,1.247,1.247,0,0,1,.29.2,1.267,1.267,0,0,1,.229.29v-.569h.888v3.439a1.681,1.681,0,0,1-.153.748,1.407,1.407,0,0,1-.416.51A1.759,1.759,0,0,1,16.533-5.943Zm-1.128-2.2a.911.911,0,0,0,.413.09,1.061,1.061,0,0,0,.458-.092.929.929,0,0,0,.324-.25,1.055,1.055,0,0,0,.194-.37,1.547,1.547,0,0,0,.064-.451,1.486,1.486,0,0,0-.062-.439A1,1,0,0,0,16.608-10a.89.89,0,0,0-.316-.238,1.052,1.052,0,0,0-.442-.087,1.015,1.015,0,0,0-.458.1.888.888,0,0,0-.314.257,1.064,1.064,0,0,0-.18.377,1.775,1.775,0,0,0-.057.458,1.308,1.308,0,0,0,.066.416,1.073,1.073,0,0,0,.191.349A.885.885,0,0,0,15.405-8.139Z" transform="translate(-13.931 11.013)" fill="#fff"/>
    </clipPath>
    <clipPath id="clip-path-4">
      <path id="Path_2394" data-name="Path 2394" d="M24.912-9.76a1.054,1.054,0,0,0-.059.361v2.183h-.888v-3.717h.888v.59a1.124,1.124,0,0,1,.224-.3,1.226,1.226,0,0,1,.3-.208,1.474,1.474,0,0,1,.345-.121,1.722,1.722,0,0,1,.37-.04,1.409,1.409,0,0,1,.59.113,1.086,1.086,0,0,1,.4.311,1.313,1.313,0,0,1,.234.467,2.121,2.121,0,0,1,.076.581v2.325h-.9V-9.455a.914.914,0,0,0-.184-.609.733.733,0,0,0-.59-.217,1.008,1.008,0,0,0-.366.062.74.74,0,0,0-.272.179A.785.785,0,0,0,24.912-9.76Z" transform="translate(-23.965 11.013)" fill="#fff"/>
    </clipPath>
    <clipPath id="clip-path-5">
      <path id="Path_2396" data-name="Path 2396" d="M32.937-7.234h1.732v-.732H32.937Z" transform="translate(-32.937 7.966)" fill="#fff"/>
    </clipPath>
    <clipPath id="clip-path-6">
      <path id="Path_2398" data-name="Path 2398" d="M38.979-13.264a.538.538,0,0,1-.2.038.541.541,0,0,1-.2-.038.539.539,0,0,1-.168-.106.488.488,0,0,1-.115-.161.49.49,0,0,1-.042-.2.487.487,0,0,1,.042-.2.486.486,0,0,1,.113-.158.534.534,0,0,1,.167-.1.551.551,0,0,1,.206-.038.528.528,0,0,1,.2.038.54.54,0,0,1,.165.1.465.465,0,0,1,.111.158.5.5,0,0,1,.04.2.517.517,0,0,1-.04.2.492.492,0,0,1-.109.161A.459.459,0,0,1,38.979-13.264Zm.246.635v3.717h-.888v-3.717Z" transform="translate(-38.247 14.235)" fill="#fff"/>
    </clipPath>
    <clipPath id="clip-path-7">
      <path id="Path_2400" data-name="Path 2400" d="M43.34-9.76a1.054,1.054,0,0,0-.059.361v2.183h-.888v-3.717h.888v.59a1.124,1.124,0,0,1,.224-.3,1.226,1.226,0,0,1,.3-.208,1.474,1.474,0,0,1,.345-.121,1.722,1.722,0,0,1,.37-.04,1.409,1.409,0,0,1,.59.113,1.086,1.086,0,0,1,.4.311,1.313,1.313,0,0,1,.234.467,2.121,2.121,0,0,1,.076.581v2.325h-.9V-9.455a.914.914,0,0,0-.184-.609.733.733,0,0,0-.59-.217,1.008,1.008,0,0,0-.366.062.74.74,0,0,0-.272.179A.785.785,0,0,0,43.34-9.76Z" transform="translate(-42.393 11.013)" fill="#fff"/>
    </clipPath>
  </defs>
  <g id="Group_4181" data-name="Group 4181" transform="translate(-83.078 -90.2)">
    <g id="Group_4128" data-name="Group 4128" transform="translate(147.083 90.2)">
      <path id="Path_2285" data-name="Path 2285" d="M175.018,139.152l.112-.225c13.585-13.249,10.329-33.458,10.329-33.458l-5.052-14.933c-14.371,3.481-22.567-.337-22.567-.337s-6.4,9.768-17.74,14.259l5.052,14.708s7.522,16.055,29.529,19.873Z" transform="translate(-140.1 -90.2)" fill="#eaeaea"/>
      <path id="Path_2286" data-name="Path 2286" d="M158.064,90.2a8.1,8.1,0,0,0,1.684.674c-2.358,3.031-8.084,9.656-16.5,13.136l4.94,14.147s6.737,13.585,27.957,19.536a11.185,11.185,0,0,1-1.123,1.235l-.112.225h-.225c-22.006-3.93-29.529-19.873-29.529-19.873L140.1,104.571C151.44,99.968,158.064,90.2,158.064,90.2Z" transform="translate(-140.1 -90.2)" fill="#dfdfdf"/>
      <path id="Path_2287" data-name="Path 2287" d="M172.943,134.431l.112-.225c11.34-11,8.645-27.732,8.645-27.732l-4.154-12.238c-12.013,2.919-18.638-.337-18.638-.337A35,35,0,0,1,144.2,105.8l4.154,12.126s6.287,13.249,24.364,16.5Z" transform="translate(-139.597 -89.746)" fill="#f5f5f5"/>
      <circle id="Ellipse_358" data-name="Ellipse 358" cx="6.849" cy="6.849" r="6.849" transform="translate(17.627 13.922)" fill="#e0e0e0"/>
      <path id="Path_2288" data-name="Path 2288" d="M163.512,121.385l-1.8-5.5a2.458,2.458,0,0,1,1.46-3.144l.674-.225a2.458,2.458,0,0,1,3.144,1.46l1.8,5.5a2.458,2.458,0,0,1-1.46,3.144l-.674.225A2.3,2.3,0,0,1,163.512,121.385Z" transform="translate(-137.464 -87.478)" fill="#e0e0e0"/>
      <path id="Path_2289" data-name="Path 2289" d="M168.121,107.327a6.922,6.922,0,0,0-8.421-4.379c.112-.112.112-.112.225-.112a6.942,6.942,0,0,1,8.758,4.266,6.793,6.793,0,0,1-2.133,7.522,1.615,1.615,0,0,1-.337.225l-.112-.112c0-.112.225-.225.337-.337A6.545,6.545,0,0,0,168.121,107.327Z" transform="translate(-137.694 -88.69)" fill="#e7e7e7"/>
      <path id="Path_2290" data-name="Path 2290" d="M167.546,119.387l-1.684-4.94a2.257,2.257,0,0,0-.449-.9l-.112-.112c0-.112.225-.225.337-.337.112.112.112.112.112.225.225.225.561.561.561.9l1.684,4.94a2.669,2.669,0,0,1-1.684,3.481h-.225A2.408,2.408,0,0,0,167.546,119.387Z" transform="translate(-137.007 -87.389)" fill="#e7e7e7"/>
      <path id="Path_2291" data-name="Path 2291" d="M160.406,102.912a4.864,4.864,0,0,1,.561-.112,6.82,6.82,0,0,0,1.347,12.912,3.108,3.108,0,0,0,1.01.112v.449a3.82,3.82,0,0,1-1.123.112,6.856,6.856,0,0,1-6.063-4.6A6.973,6.973,0,0,1,160.406,102.912Z" transform="translate(-138.176 -88.653)" fill="#d7d7d7"/>
      <path id="Path_2292" data-name="Path 2292" d="M161.712,114.774c0-.225.112-.449.112-.674a3.108,3.108,0,0,0,1.01.112v.449c0,.225.112.561.112.9l1.684,4.94a2.59,2.59,0,0,0,2.807,1.8c-.225.112-.449.112-.674.225a2.669,2.669,0,0,1-3.481-1.684L161.6,115.9A4.652,4.652,0,0,1,161.712,114.774Z" transform="translate(-137.461 -87.266)" fill="#d7d7d7"/>
    </g>
    <ellipse id="Ellipse_359" data-name="Ellipse 359" cx="153.032" cy="2.246" rx="153.032" ry="2.246" transform="translate(83.648 334.849)" fill="#dee4ee"/>
    <g id="Group_4156" data-name="Group 4156" transform="translate(116.881 95.926)">
      <g id="Group_4134" data-name="Group 4134" transform="translate(7.956 97.724)">
        <path id="Path_2293" data-name="Path 2293" d="M130,187c3.031,1.8,6.175,3.705,8.308,6.512,4.042,4.94,4.379,11.9,3.817,18.3s-2.133,12.8-1.235,19.087c1.01,7.073,4.6,15.831,8.308,21.894,3.368,5.389,6.961,8.308,10.329,13.7" transform="translate(-119.093 -181.767)" fill="none" stroke="#afd0f9" stroke-miterlimit="10" stroke-width="0.5"/>
        <path id="Path_2294" data-name="Path 2294" d="M132.091,187.909s-3.817-6.287-9.768-5.5a2.382,2.382,0,0,0-2.021,2.021c-.112,1.01.337,2.133,2.582,3.144A14.5,14.5,0,0,0,132.091,187.909Z" transform="translate(-120.286 -182.339)" fill="#afd0f9"/>
        <g id="Group_4129" data-name="Group 4129" transform="translate(9.435 2.987)">
          <path id="Path_2295" data-name="Path 2295" d="M141.052,196.557s-5.389-5.052-10.891-2.582a2.591,2.591,0,0,0-1.46,2.47c.112,1.01.9,2.021,3.368,2.245A15.15,15.15,0,0,0,141.052,196.557Z" transform="translate(-128.689 -183.982)" fill="#afd0f9"/>
          <path id="Path_2296" data-name="Path 2296" d="M139.219,197.126s5.951-4.379,4.379-10.329a2.266,2.266,0,0,0-2.133-1.8c-1.01,0-2.133.561-2.807,2.919A14.558,14.558,0,0,0,139.219,197.126Z" transform="translate(-127.53 -185)" fill="#afd0f9"/>
        </g>
        <g id="Group_4130" data-name="Group 4130" transform="translate(12.196 23.06)">
          <path id="Path_2297" data-name="Path 2297" d="M141.76,212.673s-1.909-7.073-7.972-7.972a2.407,2.407,0,0,0-2.47,1.347c-.337.9-.337,2.133,1.572,3.705A15.324,15.324,0,0,0,141.76,212.673Z" transform="translate(-131.149 -202.656)" fill="#afd0f9"/>
          <path id="Path_2298" data-name="Path 2298" d="M140.5,213.008s7.3-1.347,8.533-7.3a2.343,2.343,0,0,0-1.123-2.582c-.9-.449-2.133-.449-3.817,1.347A14.792,14.792,0,0,0,140.5,213.008Z" transform="translate(-130.001 -202.878)" fill="#afd0f9"/>
        </g>
        <g id="Group_4131" data-name="Group 4131" transform="translate(11.074 37.094)">
          <path id="Path_2299" data-name="Path 2299" d="M140.76,225.173s-1.909-7.073-7.972-7.972a2.407,2.407,0,0,0-2.47,1.347c-.337.9-.337,2.133,1.572,3.705A15.526,15.526,0,0,0,140.76,225.173Z" transform="translate(-130.149 -215.156)" fill="#afd0f9"/>
          <path id="Path_2300" data-name="Path 2300" d="M139.6,225.507s7.3-1.347,8.533-7.3a2.343,2.343,0,0,0-1.123-2.582c-.9-.449-2.133-.449-3.817,1.347A14.792,14.792,0,0,0,139.6,225.507Z" transform="translate(-128.989 -215.378)" fill="#afd0f9"/>
        </g>
        <g id="Group_4132" data-name="Group 4132" transform="translate(14.034 50.668)">
          <path id="Path_2301" data-name="Path 2301" d="M143.917,237.586s-2.582-6.961-8.645-7.186a2.432,2.432,0,0,0-2.358,1.572c-.337.9-.112,2.246,1.909,3.593A14.822,14.822,0,0,0,143.917,237.586Z" transform="translate(-132.786 -227.108)" fill="#afd0f9"/>
          <path id="Path_2302" data-name="Path 2302" d="M142.6,238.17s7.073-2.021,7.859-8.084a2.407,2.407,0,0,0-1.347-2.47c-.9-.337-2.133-.225-3.705,1.684A14.783,14.783,0,0,0,142.6,238.17Z" transform="translate(-131.581 -227.468)" fill="#afd0f9"/>
        </g>
        <g id="Group_4133" data-name="Group 4133" transform="translate(20.771 62.995)">
          <path id="Path_2303" data-name="Path 2303" d="M150.591,249.221s-3.705-6.4-9.768-5.614a2.267,2.267,0,0,0-2.021,1.909c-.112,1.01.337,2.133,2.582,3.144A14.463,14.463,0,0,0,150.591,249.221Z" transform="translate(-138.786 -237.821)" fill="#afd0f9"/>
          <path id="Path_2304" data-name="Path 2304" d="M149.331,249.959s6.624-3.144,6.287-9.207a2.535,2.535,0,0,0-1.8-2.246c-1.01-.225-2.245.112-3.368,2.246A14.943,14.943,0,0,0,149.331,249.959Z" transform="translate(-137.526 -238.447)" fill="#afd0f9"/>
        </g>
      </g>
      <g id="Group_4155" data-name="Group 4155" transform="translate(42.328 33.009)">
        <g id="Group_4135" data-name="Group 4135">
          <path id="Path_2305" data-name="Path 2305" d="M313.363,307.148H155.054a4.3,4.3,0,0,1-4.154-4.491V129.191a4.371,4.371,0,0,1,4.154-4.491H313.363a4.3,4.3,0,0,1,4.154,4.491V302.657A4.371,4.371,0,0,1,313.363,307.148Z" transform="translate(-150.9 -124.7)" fill="#ebf7ff"/>
          <path id="Path_2306" data-name="Path 2306" d="M317.517,134.58H150.9V129.3a4.553,4.553,0,0,1,4.6-4.6h157.41a4.553,4.553,0,0,1,4.6,4.6v5.277Z" transform="translate(-150.9 -124.7)" fill="#bbe1f9"/>
          <g id="Group_4182" data-name="Group 4182" transform="translate(4.105 3.469)">
            <circle id="Ellipse_365" data-name="Ellipse 365" cx="1.684" cy="1.684" r="1.684" fill="#fff"/>
            <circle id="Ellipse_366" data-name="Ellipse 366" cx="1.684" cy="1.684" r="1.684" transform="translate(5.052)" fill="#fff"/>
            <circle id="Ellipse_367" data-name="Ellipse 367" cx="1.684" cy="1.684" r="1.684" transform="translate(10.329)" fill="#fff"/>
          </g>
        </g>
        <g id="Group_4154" data-name="Group 4154" transform="translate(19.985 20.546)">
          <g id="Group_4141" data-name="Group 4141" transform="translate(0 64.559)">
            <g id="Group_4139" data-name="Group 4139" transform="translate(0 60.067)">
              <path id="Path_2307" data-name="Path 2307" d="M293.214,269.045H170.721a2.013,2.013,0,0,1-2.021-2.021v-11A2.013,2.013,0,0,1,170.721,254H293.214a2.013,2.013,0,0,1,2.021,2.021v11A2.013,2.013,0,0,1,293.214,269.045Z" transform="translate(-168.683 -254)" fill="#3687e1"/>
              <g id="Group_4196" data-name="Group 4196" transform="translate(51.504 18.428)">
                <g id="Group_4189" data-name="Group 4189" transform="translate(0.513 -14.065)" clip-path="url(#clip-path)">
                  <path id="Path_2387" data-name="Path 2387" d="M-.487-14.876H4.368v6.17H-.487Z" transform="translate(0.014 14.403)" fill="#fff"/>
                </g>
                <g id="Group_4190" data-name="Group 4190" transform="translate(5.152 -14.235)" clip-path="url(#clip-path-2)">
                  <path id="Path_2389" data-name="Path 2389" d="M9.305-15.235H11.3v6.271H9.305Z" transform="translate(-9.779 14.762)" fill="#fff"/>
                </g>
                <g id="Group_4191" data-name="Group 4191" transform="translate(6.87 -12.708)" clip-path="url(#clip-path-3)">
                  <path id="Path_2391" data-name="Path 2391" d="M12.931-12.013h4.734V-5.9H12.931Z" transform="translate(-13.404 11.539)" fill="#fff"/>
                </g>
                <g id="Group_4192" data-name="Group 4192" transform="translate(11.624 -12.708)" clip-path="url(#clip-path-4)">
                  <path id="Path_2393" data-name="Path 2393" d="M22.965-12.013h4.376v4.744H22.965Z" transform="translate(-23.439 11.539)" fill="#fff"/>
                </g>
                <g id="Group_4193" data-name="Group 4193" transform="translate(15.875 -11.265)" clip-path="url(#clip-path-5)">
                  <path id="Path_2395" data-name="Path 2395" d="M31.937-8.966h2.679v1.68H31.937Z" transform="translate(-32.411 8.492)" fill="#fff"/>
                </g>
                <g id="Group_4194" data-name="Group 4194" transform="translate(18.391 -14.235)" clip-path="url(#clip-path-6)">
                  <path id="Path_2397" data-name="Path 2397" d="M37.247-15.235h1.992v6.271H37.247Z" transform="translate(-37.721 14.762)" fill="#fff"/>
                </g>
                <g id="Group_4195" data-name="Group 4195" transform="translate(20.355 -12.708)" clip-path="url(#clip-path-7)">
                  <path id="Path_2399" data-name="Path 2399" d="M41.393-12.013h4.376v4.744H41.393Z" transform="translate(-41.866 11.539)" fill="#fff"/>
                </g>
              </g>
            </g>
            <g id="Group_4140" data-name="Group 4140">
              <path id="Path_2308" data-name="Path 2308" d="M293.214,242.548H170.721a2.013,2.013,0,0,1-2.021-2.021V224.921a2.013,2.013,0,0,1,2.021-2.021H293.214a2.013,2.013,0,0,1,2.021,2.021v15.606A2.013,2.013,0,0,1,293.214,242.548Z" transform="translate(-168.7 -197.75)" fill="#cae6fc"/>
              <path id="Path_2309" data-name="Path 2309" d="M293.214,220.148H170.721a2.013,2.013,0,0,1-2.021-2.021V202.521a2.013,2.013,0,0,1,2.021-2.021H293.214a2.013,2.013,0,0,1,2.021,2.021v15.606A2.013,2.013,0,0,1,293.214,220.148Z" transform="translate(-168.7 -200.5)" fill="#cae6fc"/>
            </g>
          </g>
          <g id="Group_4153" data-name="Group 4153" transform="translate(42.609)">
            <g id="Group_4145" data-name="Group 4145" transform="translate(36.237 0.786)">
              <g id="Group_4143" data-name="Group 4143">
                <g id="Group_4142" data-name="Group 4142">
                  <path id="Path_2310" data-name="Path 2310" d="M240.02,145.945a1.123,1.123,0,0,0,0-2.246,1.123,1.123,0,0,0,0,2.246Z" transform="translate(-238.925 -143.7)" fill="#ffb800"/>
                </g>
              </g>
              <g id="Group_4144" data-name="Group 4144" transform="translate(1.488)">
                <path id="Path_2311" data-name="Path 2311" d="M240.755,144.823a.564.564,0,0,0,0-1.123.564.564,0,0,0,0,1.123Z" transform="translate(-240.25 -143.7)" fill="#ffefca"/>
              </g>
            </g>
            <g id="Group_4146" data-name="Group 4146" transform="translate(39.858 31.662)">
              <path id="Path_2312" data-name="Path 2312" d="M242.655,171.2a.564.564,0,0,0,0,1.123A.564.564,0,0,0,242.655,171.2Z" transform="translate(-242.15 -171.2)" fill="#ffb800"/>
              <path id="Path_2313" data-name="Path 2313" d="M243.337,171.7a.337.337,0,1,0,0,.674A.337.337,0,1,0,243.337,171.7Z" transform="translate(-242.046 -171.139)" fill="#ffefca"/>
            </g>
            <g id="Group_4147" data-name="Group 4147" transform="translate(0 43.226)">
              <path id="Path_2314" data-name="Path 2314" d="M207.155,181.5a.564.564,0,0,0,0,1.123A.564.564,0,0,0,207.155,181.5Z" transform="translate(-206.65 -181.5)" fill="#ffb800"/>
              <path id="Path_2315" data-name="Path 2315" d="M207.837,182a.337.337,0,0,0,0,.674A.337.337,0,0,0,207.837,182Z" transform="translate(-206.546 -181.439)" fill="#ffefca"/>
            </g>
            <g id="Group_4152" data-name="Group 4152" transform="translate(1.21)">
              <path id="Path_2316" data-name="Path 2316" d="M208.819,150.859,227.233,143h0l18.75,7.747h0c.225,1.01,5.838,33.346-20.21,42.777h0c-.337-.225-23.241-13.136-16.954-42.665Z" transform="translate(-207.727 -143)" fill="#fcbd50" opacity="0.34"/>
              <g id="Group_4151" data-name="Group 4151" transform="translate(4.011 6.51)">
                <g id="Group_4148" data-name="Group 4148">
                  <path id="Path_2317" data-name="Path 2317" d="M218.2,167.887v-11a8.027,8.027,0,0,1,7.972-8.084,7.675,7.675,0,0,1,7.41,7.635v11.34" transform="translate(-210.453 -148.798)" fill="none" stroke="#ffb200" stroke-miterlimit="10" stroke-width="2"/>
                  <path id="Path_2318" data-name="Path 2318" d="M239.706,184.6H213.77a2.492,2.492,0,0,1-2.47-2.47V166.07a2.492,2.492,0,0,1,2.47-2.47h25.936a2.492,2.492,0,0,1,2.47,2.47v16.055A2.492,2.492,0,0,1,239.706,184.6Z" transform="translate(-211.3 -146.981)" fill="#ffb200"/>
                </g>
                <g id="Group_4150" data-name="Group 4150" transform="translate(13.249 23.58)">
                  <g id="Group_4149" data-name="Group 4149">
                    <circle id="Ellipse_360" data-name="Ellipse 360" cx="2.133" cy="2.133" r="2.133" fill="#e29805"/>
                  </g>
                  <path id="Path_2319" data-name="Path 2319" d="M225.123,176.666h0A1.061,1.061,0,0,1,224,175.544v-2.021a1.061,1.061,0,0,1,1.123-1.123h0a1.061,1.061,0,0,1,1.123,1.123v2.021A1.125,1.125,0,0,1,225.123,176.666Z" transform="translate(-222.99 -169.481)" fill="#e29805"/>
                </g>
              </g>
            </g>
          </g>
        </g>
      </g>
      <circle id="Ellipse_361" data-name="Ellipse 361" cx="1.235" cy="1.235" r="1.235" transform="translate(19.311 61.19)" fill="#afd0f9"/>
      <circle id="Ellipse_362" data-name="Ellipse 362" cx="1.235" cy="1.235" r="1.235" transform="translate(0 138.773)" fill="#afd0f9"/>
      <circle id="Ellipse_363" data-name="Ellipse 363" cx="2.133" cy="2.133" r="2.133" transform="translate(32.111 88.136)" fill="#afd0f9"/>
      <line id="Line_7" data-name="Line 7" y1="0.561" transform="translate(266.093)" fill="none"/>
    </g>
    <g id="Group_3896_00000155834495880407695460000010482248490364288641_" transform="translate(324.928 190.574)">
      <path id="Rectangle_2060_00000001654200698269020800000004406352293639699894_" d="M1372.53,668.6h50.412a10.3,10.3,0,0,1,10.329,10.329V803.892a10.3,10.3,0,0,1-10.329,10.329H1372.53a10.3,10.3,0,0,1-10.329-10.329V678.929A10.232,10.232,0,0,1,1372.53,668.6Z" transform="translate(-1361.414 -668.6)" fill="#a1c4e2"/>
      <path id="Rectangle_2059_00000139981978345014656850000016827543867582492602_" d="M1373.729,669.8h47.6a10.3,10.3,0,0,1,10.329,10.329V802.285a10.3,10.3,0,0,1-10.329,10.329h-47.6a10.3,10.3,0,0,1-10.329-10.329V680.129A10.3,10.3,0,0,1,1373.729,669.8Z" transform="translate(-1361.267 -668.453)" fill="#8cacc4"/>
      <path id="Rectangle_2057_00000110450121287530097230000010500935491802461833_" d="M1373.508,671.6h47.6a8.29,8.29,0,0,1,8.308,8.308V802.064a8.29,8.29,0,0,1-8.308,8.308h-47.6a8.29,8.29,0,0,1-8.308-8.308V679.908A8.29,8.29,0,0,1,1373.508,671.6Z" transform="translate(-1361.046 -668.232)" fill="#f4f9fd"/>
      <path id="Rectangle_2058_00000017486504205712552600000010593876799233581724_" d="M1388.307,674.7h13.136a2.78,2.78,0,0,1,2.807,2.807h0a2.78,2.78,0,0,1-2.807,2.807h-13.136a2.78,2.78,0,0,1-2.807-2.807h0A2.78,2.78,0,0,1,1388.307,674.7Z" transform="translate(-1358.554 -667.851)" fill="#8cacc4"/>
      <path id="Rectangle_2061_00000039122430095865972050000005511652360971192487_" d="M1425.473,711h0a.724.724,0,0,1,.674.674v14.484a.724.724,0,0,1-.674.674h0a.724.724,0,0,1-.673-.674V711.674A.724.724,0,0,1,1425.473,711Z" transform="translate(-1353.729 -663.395)" fill="#80a7c9"/>
      <path id="Rectangle_2062_00000103954994898426477630000008162266470475689868_" d="M1362.174,699.9h0a.724.724,0,0,1,.674.674V710.9a.725.725,0,0,1-.674.674h0a.724.724,0,0,1-.674-.674V700.574A.724.724,0,0,1,1362.174,699.9Z" transform="translate(-1361.5 -664.758)" fill="#80a7c9"/>
      <path id="Rectangle_2064_00000124120905039372996560000006128255414558400896_" d="M1362.174,691.3h0a.724.724,0,0,1,.674.674v5.5a.725.725,0,0,1-.674.674h0a.724.724,0,0,1-.674-.674v-5.5A.724.724,0,0,1,1362.174,691.3Z" transform="translate(-1361.5 -665.813)" fill="#80a7c9"/>
      <path id="Rectangle_2063_00000078046372248829849380000001587501843637521085_" d="M1362.174,714.1h0a.724.724,0,0,1,.674.674V725.1a.725.725,0,0,1-.674.674h0a.724.724,0,0,1-.674-.674V714.774A.647.647,0,0,1,1362.174,714.1Z" transform="translate(-1361.5 -663.015)" fill="#80a7c9"/>
      <g id="Group_3895_00000114753155616076144940000018405642260747738003_" transform="translate(15.899 37.913)">
        <path id="Rectangle_2068_00000159437883977548651690000016045695577660755592_" d="M2082.462,1002.3h15.943a12.506,12.506,0,0,1,12.463,12.463v15.943a12.507,12.507,0,0,1-12.463,12.463h-15.943A12.507,12.507,0,0,1,2070,1030.706v-15.943A12.434,12.434,0,0,1,2082.462,1002.3Z" transform="translate(-2070 -1002.3)" fill="#5d6bc5"/>
        <g id="Group_3894_00000165218263468728221810000007594875501600227503_" transform="translate(7.566 7.558)">
          <path id="Combined-Shape_00000013894758330044040810000017446240467333309844_" d="M291.575,175.407a10.614,10.614,0,0,0,12.575.225.811.811,0,0,1,1.235.225h0a.8.8,0,0,1-.225,1.235,12.3,12.3,0,0,1-14.6-.225.914.914,0,0,1-.225-1.235.8.8,0,0,1,1.235-.225Zm18.862-9.207v.449a12.643,12.643,0,0,1-3.031,8.308.889.889,0,0,1-1.235.112h0a.889.889,0,0,1-.112-1.235,10.984,10.984,0,0,0,2.582-7.073v-.337c-.112-.449.337-.9.786-1.01s.9.337,1.01.786Zm-22.9,3.256a13.654,13.654,0,0,0,2.021,4.042.877.877,0,1,1-1.347,1.123h0a12.442,12.442,0,0,1-2.358-4.716.9.9,0,0,1,.674-1.123.874.874,0,0,1,1.01.674Zm14.484-9.656a7.914,7.914,0,1,1-10.891,2.582,8.1,8.1,0,0,1,2.582-2.582.994.994,0,0,1,1.235.225h0a.994.994,0,0,1-.225,1.235,6.105,6.105,0,1,0,8.421,1.909,6.93,6.93,0,0,0-2.021-2.021.9.9,0,0,1-.337-1.235c.337-.225.9-.449,1.235-.112Zm-8.982-3.93a.9.9,0,0,1-.337,1.235,10.991,10.991,0,0,0-5.5,9.431.9.9,0,1,1-1.8,0h0a12.964,12.964,0,0,1,6.4-11.115,1.066,1.066,0,0,1,1.235.449Zm10.554-.561a12.509,12.509,0,0,1,6.287,7.635.888.888,0,1,1-1.684.561h0a11.254,11.254,0,0,0-5.389-6.624.9.9,0,0,1-.337-1.235.835.835,0,0,1,1.123-.337Z" transform="translate(-285.4 -153.963)" fill="#fff"/>
          <path id="Combined-Shape-2_00000166654142138866442660000013310692923075240893_" d="M296.963,154.1a.886.886,0,0,1,.9.9v8.308c2.246.786,3.031,3.031,2.358,6.287a.874.874,0,0,1-1.01.674h0a.874.874,0,0,1-.674-1.01c0-.225.112-.337.112-.561h-1.123a.966.966,0,0,1-.9-.9.886.886,0,0,1,.9-.9h1.235a2.043,2.043,0,0,0-1.684-2.021h0A1.934,1.934,0,0,0,295.728,166h0a6.366,6.366,0,0,0-.112,3.256.926.926,0,1,1-1.8.449v-.112c-.561-3.368.225-5.5,2.358-6.287v-5.838l-1.01.112a.886.886,0,0,1-.9-.9.868.868,0,0,1,.786-.9h0l1.235-.112v-.561a.726.726,0,0,1,.674-1.01Z" transform="translate(-284.388 -154.1)" fill="#efcb4b"/>
        </g>
      </g>
    </g>
    <g id="Group_4166" data-name="Group 4166" transform="translate(355.242 126.69)">
      <g id="Group_4158" data-name="Group 4158" transform="translate(43.002 13.024)">
        <g id="Group_4157" data-name="Group 4157">
          <path id="Path_2320" data-name="Path 2320" d="M363.8,134.3a30.816,30.816,0,0,0,2.695,6.175" transform="translate(-363.8 -134.3)" fill="none" stroke="#798eeb" stroke-miterlimit="10" stroke-width="1"/>
          <path id="Path_2321" data-name="Path 2321" d="M373.6,147.4c6.849,4.379,18.525,9.993,21,18.638a19.542,19.542,0,0,1-.561,13.136" transform="translate(-362.597 -132.692)" fill="none" stroke="#798eeb" stroke-miterlimit="10" stroke-width="1" stroke-dasharray="10.701 10.701"/>
          <path id="Path_2322" data-name="Path 2322" d="M389.833,180.5c-.9,2.246-1.572,4.266-1.01,6.512" transform="translate(-360.753 -128.629)" fill="none" stroke="#798eeb" stroke-miterlimit="10" stroke-width="1"/>
        </g>
      </g>
      <g id="Group_4160" data-name="Group 4160" transform="translate(59.726 69.538)">
        <path id="Path_2323" data-name="Path 2323" d="M396.2,196.423a7.623,7.623,0,0,1-10.217,3.705l-1.123-.674-5.614-3.256a.751.751,0,0,1-.225-1.123l3.481-5.614a7.664,7.664,0,0,1,10.1-3.481A8.109,8.109,0,0,1,396.2,196.423Z" transform="translate(-378.677 -184.561)" fill="#b0b4eb"/>
        <circle id="Ellipse_364" data-name="Ellipse 364" cx="7.298" cy="7.298" r="7.298" transform="translate(2.587 0.522)" fill="#b0b4eb"/>
        <path id="Path_2324" data-name="Path 2324" d="M382.518,188l-3.705,5.951a.731.731,0,0,0,.225,1.01l6.4,3.705Z" transform="translate(-378.696 -184.222)" fill="#b0b4eb"/>
        <path id="Path_2325" data-name="Path 2325" d="M396.1,195.711a7.623,7.623,0,0,1-10.217,3.705l-1.123-.674-5.614-3.256a.751.751,0,0,1-.225-1.123l3.481-5.614a7.722,7.722,0,0,1,10.1-3.368A7.865,7.865,0,0,1,396.1,195.711Z" transform="translate(-378.689 -184.635)" fill="#5b67d3"/>
        <g id="Group_4159" data-name="Group 4159" transform="translate(4.159 3.399)">
          <path id="Path_2326" data-name="Path 2326" d="M386.371,192.83a1.106,1.106,0,1,1,1.46-.561A1.114,1.114,0,0,1,386.371,192.83Z" transform="translate(-381.992 -187.287)" fill="none" stroke="#fff" stroke-miterlimit="10" stroke-width="0.75"/>
          <path id="Path_2327" data-name="Path 2327" d="M388.575,187.7l1.347.674a.215.215,0,0,1,.112.337c-.225.561-.561,2.021,1.347,2.021a.241.241,0,0,1,.225.225l.225,1.572c0,.112,0,.225-.225.225-.561.112-2.133.786-1.123,2.358.112.112,0,.225-.112.337l-1.235.9a.21.21,0,0,1-.337,0,1.378,1.378,0,0,0-2.47.112.413.413,0,0,1-.337.112l-1.46-.674c-.112,0-.112-.225-.112-.337.112-.561.337-2.133-1.46-1.909-.112,0-.225-.112-.337-.225l-.225-1.46a.241.241,0,0,1,.225-.225c.561-.112,2.246-.786,1.235-2.358-.112-.112,0-.225.112-.337l1.235-.786c.112-.112.225,0,.337,0,.337.449,1.572,1.572,2.47-.225C388.238,187.7,388.463,187.592,388.575,187.7Z" transform="translate(-382.4 -187.662)" fill="none" stroke="#fff" stroke-miterlimit="10" stroke-width="0.75"/>
        </g>
      </g>
      <g id="Group_4161" data-name="Group 4161" transform="translate(25.689)">
        <path id="Path_2328" data-name="Path 2328" d="M365.07,131.059a7.763,7.763,0,0,1-7.747,7.747h0l-1.123-.112-6.624-.561a.719.719,0,0,1-.674-.9l.786-6.961v-.449h0a7.741,7.741,0,0,1,7.635-6.624A7.934,7.934,0,0,1,365.07,131.059Z" transform="translate(-348.319 -122.639)" fill="#b0b4eb"/>
        <path id="Path_2329" data-name="Path 2329" d="M364.57,130.447a7.763,7.763,0,0,1-7.747,7.747l-1.123-.112-6.624-.561a.719.719,0,0,1-.674-.9l.786-6.737.112-.561a7.671,7.671,0,0,1,15.269,1.123Z" transform="translate(-348.381 -122.7)" fill="#5b67d3"/>
        <path id="Path_2330" data-name="Path 2330" d="M354.7,133.744a2.246,2.246,0,0,0,2.695-3.593,2.117,2.117,0,0,0-3.144.561A2.08,2.08,0,0,0,354.7,133.744Zm1.909-2.695a1.044,1.044,0,1,1-1.46.225A1.065,1.065,0,0,1,356.609,131.049Z" transform="translate(-347.718 -121.842)" fill="#fff"/>
        <path id="Path_2331" data-name="Path 2331" d="M355.41,130.591v-2.246H354.4V127l.9-.112V126.1h1.347l.112,4.379" transform="translate(-347.642 -122.283)" fill="none" stroke="#fff" stroke-miterlimit="10" stroke-width="0.75"/>
      </g>
      <g id="Group_4162" data-name="Group 4162" transform="translate(0 38.286)">
        <path id="Path_2332" data-name="Path 2332" d="M382.536,156.8H327.97a2.492,2.492,0,0,0-2.47,2.47v15.382a2.492,2.492,0,0,0,2.47,2.47h54.566a2.492,2.492,0,0,0,2.47-2.47V159.27A2.421,2.421,0,0,0,382.536,156.8Z" transform="translate(-325.531 -156.575)" fill="#ffb200"/>
        <path id="Union_49" data-name="Union 49" d="M-16179.892-9800.07l-1.633,2.342-.729-.509,1.857-2.22-2.635-.814.3-.745,2.514.989-.114-2.749h.863l-.118,2.749,2.521-.989.253.745-2.59.814,1.82,2.22-.754.509Zm-9,0-1.633,2.342-.729-.509,1.857-2.22-2.635-.814.31-.745,2.509.989-.114-2.749h.863l-.118,2.749,2.521-.989.252.745-2.59.814,1.82,2.22-.753.509Zm-9,0-1.638,2.342-.729-.509,1.856-2.22-2.635-.814.31-.745,2.509.989-.114-2.749h.868l-.122,2.749,2.521-.989.253.745-2.587.814,1.816,2.22-.749.509Zm-9,0-1.637,2.342-.729-.509,1.857-2.22-2.631-.814.3-.745,2.514.989-.118-2.749h.867l-.118,2.749,2.517-.989.253.745-2.586.814,1.816,2.22-.75.509Zm-9,0-1.637,2.342-.729-.509,1.857-2.22-2.631-.814.306-.745,2.513.989-.118-2.749h.867l-.118,2.749,2.521-.989.252.745-2.59.814,1.816,2.22-.749.509Zm-9,0-1.634,2.342-.729-.509,1.857-2.22-2.636-.814.306-.745,2.513.989-.118-2.749h.868l-.118,2.749,2.521-.989.253.745-2.591.814,1.816,2.22-.749.509Z" transform="translate(16232.5 9811.2)" fill="#fff" stroke="#fff" stroke-linecap="round" stroke-linejoin="round" stroke-width="0.5"/>
      </g>
      <g id="Group_4165" data-name="Group 4165" transform="translate(55.218 25.599)">
        <path id="Path_2333" data-name="Path 2333" d="M391.37,153.947a7.763,7.763,0,0,1-7.747,7.747l-1.123-.112-6.624-.561a.719.719,0,0,1-.674-.9l.786-6.737.112-.561a7.671,7.671,0,0,1,15.269,1.123Z" transform="translate(-374.619 -145.414)" fill="#b0b4eb"/>
        <path id="Path_2334" data-name="Path 2334" d="M382.423,159.412a3.819,3.819,0,0,1-1.123-.112Z" transform="translate(-373.868 -143.806)" fill="#5b67d3"/>
        <g id="Group_4164" data-name="Group 4164">
          <path id="Path_2335" data-name="Path 2335" d="M390.87,153.247a7.763,7.763,0,0,1-7.747,7.747L382,160.882l-6.624-.561a.719.719,0,0,1-.674-.9l.786-6.737.112-.561a7.671,7.671,0,0,1,15.269,1.123Z" transform="translate(-374.681 -145.5)" fill="#5b67d3"/>
          <g id="Group_4163" data-name="Group 4163" transform="translate(3.825 3.368)">
            <path id="Path_2336" data-name="Path 2336" d="M384.472,152.707A2.325,2.325,0,0,0,382.9,149.9" transform="translate(-377.496 -148.328)" fill="none" stroke="#fff" stroke-linecap="round" stroke-miterlimit="10" stroke-width="0.75"/>
            <path id="Path_2337" data-name="Path 2337" d="M385.931,153.665A4.4,4.4,0,0,0,382.9,148.5" transform="translate(-377.496 -148.5)" fill="none" stroke="#fff" stroke-linecap="round" stroke-miterlimit="10" stroke-width="0.75"/>
            <path id="Path_2338" data-name="Path 2338" d="M381.1,156.274l1.572-.674C382.672,155.488,382.56,157.06,381.1,156.274Z" transform="translate(-377.717 -147.629)" fill="#fff"/>
            <path id="Path_2339" data-name="Path 2339" d="M378.887,155.317v1.235s0,.337.449.225l4.828-2.246s.337-.225,0-.449l-.674-.561s-1.01-3.93-3.817-2.695C376.642,152.061,378.887,155.317,378.887,155.317Z" transform="translate(-378.087 -148.244)" fill="none" stroke="#fff" stroke-miterlimit="10" stroke-width="0.75"/>
          </g>
        </g>
      </g>
    </g>
    <g id="Group_4176" data-name="Group 4176" transform="translate(83.211 99.369)">
      <path id="Path_2340" data-name="Path 2340" d="M117.6,128.8a15.707,15.707,0,0,1,3.481,6.961,30.642,30.642,0,0,1,.786,7.859" transform="translate(-78.99 -94.631)" fill="none" stroke="#222338" stroke-miterlimit="10" stroke-width="0.25"/>
      <g id="Group_4175" data-name="Group 4175">
        <path id="Path_2341" data-name="Path 2341" d="M98.5,172.612s12.35,3.368,37.949-.112Z" transform="translate(-81.334 -89.266)" fill="#231c19"/>
        <g id="Group_4167" data-name="Group 4167">
          <path id="Path_2342" data-name="Path 2342" d="M83.311,148.136a4.415,4.415,0,0,1,1.01-3.705c.786-1.01,1.909-1.909,2.695-2.919,2.358-2.807,2.919-6.624,3.817-10.217s2.358-7.3,5.614-9.094" transform="translate(-83.211 -95.441)" fill="none" stroke="#222338" stroke-miterlimit="10" stroke-width="0.25"/>
          <path id="Path_2343" data-name="Path 2343" d="M104.2,98.7a3.962,3.962,0,0,1,1.909,1.347,2.354,2.354,0,0,1,.449,1.235,7,7,0,0,1-.337,3.705,23.565,23.565,0,0,1-1.684,3.368" transform="translate(-80.635 -98.326)" fill="none" stroke="#222338" stroke-miterlimit="10" stroke-width="0.25"/>
          <path id="Path_2344" data-name="Path 2344" d="M100.062,170.822c-11-.112-13.7-4.6-13.7-4.6-5.614-6.4,0-14.147,2.246-15.269,2.246-1.235,1.572-4.042,1.572-4.042a12.539,12.539,0,0,1,3.256-9.207,5.272,5.272,0,0,0,.674-1.01,3.84,3.84,0,0,0,.112-2.246c-2.021-9.319,3.93-12.013,3.93-12.013-.9-2.358.786-8.421.786-8.421-8.533-2.582-6.063-10.217-6.063-10.217s.112-5.951,8.308-5.389,5.726,10.1,5.726,10.1a26.777,26.777,0,0,1,7.41-1.123s9.993.337,8.87,8.533c-1.123,8.308-12.238,3.705-12.238,3.705-1.909-.561-1.46.786-1.46.786l.674,2.021,13.81,32.223Z" transform="translate(-83.121 -98.367)" fill="#222338"/>
        </g>
        <path id="Path_2345" data-name="Path 2345" d="M146.964,287.093s-11.564,4.6-30.764.449l22.792-4.042Z" transform="translate(-79.162 -75.64)" fill="#357ca0"/>
        <g id="Group_4168" data-name="Group 4168" transform="translate(48.378 208.87)">
          <path id="Path_2346" data-name="Path 2346" d="M127.737,287.656l-.337,6.175h14.147V284.4H127.961Z" transform="translate(-126.165 -284.4)" fill="#fcb093"/>
          <path id="Path_2347" data-name="Path 2347" d="M127.535,291.3h19.2l1.235,8.645s9.656,2.919,13.7,6.4c1.01.9,2.021,1.684,2.807,2.47a1.351,1.351,0,0,1-.9,2.358H126.3Z" transform="translate(-126.3 -283.553)" fill="#515679"/>
          <path id="Path_2348" data-name="Path 2348" d="M129.456,291.2s-2.807,10.329,4.716,10.442" transform="translate(-125.975 -283.565)" fill="none" stroke="#444a66" stroke-miterlimit="10" stroke-width="1"/>
          <path id="Path_2349" data-name="Path 2349" d="M127.6,288.982s11.564,1.46,13.922-1.01c.225-.225,0-1.46,0-1.46L127.6,286.4Z" transform="translate(-126.14 -284.154)" fill="#e49b85"/>
        </g>
        <path id="Path_2350" data-name="Path 2350" d="M85,287.3s13.7,7.522,39.746,0Z" transform="translate(-82.992 -75.174)" fill="#3e84af"/>
        <g id="Group_4169" data-name="Group 4169" transform="translate(3.356 209.768)">
          <path id="Path_2351" data-name="Path 2351" d="M87.637,288.456l-.337,6.175h14.147V285.2H87.861Z" transform="translate(-86.065 -285.2)" fill="#fcb093"/>
          <path id="Path_2352" data-name="Path 2352" d="M87.435,292.212l19.2-.112,1.235,8.645s8.533,2.246,14.147,6.624c.9.674,1.8,1.46,2.582,2.133a1.351,1.351,0,0,1-.9,2.358l-37.5.225Z" transform="translate(-86.2 -284.353)" fill="#515679"/>
          <path id="Path_2353" data-name="Path 2353" d="M87.6,288.647a71.538,71.538,0,0,0,13.922,2.021v-3.256L87.6,287.3Z" transform="translate(-86.028 -284.942)" fill="#e49b85"/>
        </g>
        <path id="Path_2354" data-name="Path 2354" d="M89.356,292.1s-2.807,10.329,4.716,10.442" transform="translate(-82.52 -74.585)" fill="none" stroke="#444a66" stroke-miterlimit="10" stroke-width="1"/>
        <path id="Path_2355" data-name="Path 2355" d="M147.032,300.608h.112c-2.807.337-16.954,1.46-25.936,0l-7.3-85.442-1.01-28.518L128.057,173.4l19.2,126.984v.112C147.256,300.608,147.144,300.608,147.032,300.608Z" transform="translate(-79.567 -89.156)" fill="#3c83af"/>
        <path id="Path_2356" data-name="Path 2356" d="M122.525,196.766l2.133,104.529h-.112c-27.058,2.695-39.184,0-39.746-.112h0L106.806,173.3l24.813.112Z" transform="translate(-83.016 -89.168)" fill="#478cbf"/>
        <g id="Group_4170" data-name="Group 4170" transform="translate(23.678 77.508)">
          <path id="Path_2357" data-name="Path 2357" d="M104.3,174.249V167.4h26.609l-1.8,6.961S104.3,173.912,104.3,174.249Z" transform="translate(-104.3 -167.4)" fill="#fcb093"/>
          <path id="Path_2358" data-name="Path 2358" d="M104.3,172.725v.561l25.037-.112.112-.674Z" transform="translate(-104.3 -166.774)" fill="#e69c87"/>
        </g>
        <g id="Group_4174" data-name="Group 4174" transform="translate(1.784 17.889)">
          <g id="Group_4172" data-name="Group 4172">
            <g id="Group_4171" data-name="Group 4171" transform="translate(23.581)">
              <path id="Path_2359" data-name="Path 2359" d="M108.8,123.2l2.695,18.413,7.41-.561-1.01-14.259Z" transform="translate(-105.435 -113.207)" fill="#fcb093"/>
              <path id="Path_2360" data-name="Path 2360" d="M108.8,123.9s2.246,8.308,9.543,7.972l-.112-2.246Z" transform="translate(-105.435 -113.122)" fill="#e69c87"/>
              <path id="Path_2361" data-name="Path 2361" d="M107.035,119.352s-2.246.112-.674,2.807c1.572,2.582,2.133,1.46,2.133,1.46a9.292,9.292,0,0,0,8.87,7.186c7.522.225,5.165-10.891,5.165-10.891s-.674-4.94-2.807-5.614c0,0-.225,3.368-4.6,3.93a10.3,10.3,0,0,1-6.624-1.123c-.449-.225-1.01-.449-1.347-.225C106.7,117.107,106.586,117.556,107.035,119.352Z" transform="translate(-105.803 -114.3)" fill="#fcb093"/>
            </g>
            <path id="Path_2362" data-name="Path 2362" d="M113.43,200.134l.337.449a13.743,13.743,0,0,1-8.084,11.789l-.449-.674L84.8,183.181l14.147-24.364a57.655,57.655,0,0,1,.337-7.186,17.772,17.772,0,0,1,7.522-12.8c3.368-2.358,8.2-3.93,14.6-2.47,15.494,3.593,16.729,40.532,16.729,40.532l-37.949.225c-.112-1.01-.337-2.133-.449-3.144h0l-3.705,7.859Z" transform="translate(-84.8 -111.661)" fill="#a7c5e5"/>
          </g>
          <g id="Group_4173" data-name="Group 4173" transform="translate(15.045 44.573)">
            <path id="Path_2363" data-name="Path 2363" d="M98.2,171.852l1.572,1.572L101.456,175l5.165-21Z" transform="translate(-98.2 -154)" fill="#80a2c1"/>
            <path id="Path_2364" data-name="Path 2364" d="M98.649,173.044h2.807L98.2,169.9Z" transform="translate(-98.2 -152.048)" fill="#80a2c1"/>
          </g>
        </g>
      </g>
      <path id="Path_2365" data-name="Path 2365" d="M102.7,205.685s9.207-1.8,8.757-13.585" transform="translate(-80.819 -86.86)" fill="none" stroke="#4185af" stroke-miterlimit="10" stroke-width="0.5"/>
    </g>
    <g id="Group_4178" data-name="Group 4178" transform="translate(375.789 289.938)">
      <g id="Group_4177" data-name="Group 4177" transform="translate(0 10.554)">
        <path id="Path_2366" data-name="Path 2366" d="M370.084,277.5s-1.8,21.669-14.147,36.377c0,0-8.87-12.238-7.522-22.231" transform="translate(-343.25 -277.5)" fill="none" stroke="#134f13" stroke-miterlimit="10" stroke-width="0.5"/>
        <path id="Path_2367" data-name="Path 2367" d="M348.536,293.357s3.256-3.256.674-8.757C349.209,284.6,345.392,288.866,348.536,293.357Z" transform="translate(-343.371 -276.628)" fill="#0079a3"/>
        <path id="Path_2368" data-name="Path 2368" d="M363.144,292.78s2.358-4.828-2.582-9.88C360.674,282.9,358.091,289.075,363.144,292.78Z" transform="translate(-341.811 -276.837)" fill="#008473"/>
        <path id="Path_2369" data-name="Path 2369" d="M364.5,298.714s4.6,0,6.624-5.614C371.237,293.1,365.51,293.437,364.5,298.714Z" transform="translate(-341.259 -275.585)" fill="#0079a3"/>
        <path id="Path_2370" data-name="Path 2370" d="M350.761,302.377s-1.01-4.491-6.961-5.277C343.8,297.1,345.372,302.6,350.761,302.377Z" transform="translate(-343.8 -275.094)" fill="#008473"/>
        <path id="Path_2371" data-name="Path 2371" d="M351.608,299.763s3.481-1.235,3.481-6.063C355.2,293.7,350.934,295.5,351.608,299.763Z" transform="translate(-342.85 -275.511)" fill="#295968"/>
      </g>
      <path id="Path_2372" data-name="Path 2372" d="M367.345,284.268S373.3,278.2,368.58,268.1C368.692,268.1,361.619,276.184,367.345,284.268Z" transform="translate(-341.185 -268.1)" fill="#176796"/>
    </g>
    <g id="Group_4180" data-name="Group 4180" transform="translate(312.578 286.346)">
      <path id="Path_2373" data-name="Path 2373" d="M287.6,278.261l.337,33.346a1.486,1.486,0,0,0,1.46,1.46h14.933a1.486,1.486,0,0,0,1.46-1.46l-.337-33.346a1.486,1.486,0,0,0-1.46-1.46H289.06A1.354,1.354,0,0,0,287.6,278.261Z" transform="translate(-287.488 -263.44)" fill="#1e1e1e"/>
      <path id="Path_2374" data-name="Path 2374" d="M287.5,278.261l.337,33.346a1.486,1.486,0,0,0,1.46,1.46h14.933a1.486,1.486,0,0,0,1.46-1.46l-.337-33.346a1.486,1.486,0,0,0-1.46-1.46H288.96A1.354,1.354,0,0,0,287.5,278.261Z" transform="translate(-287.5 -263.44)" fill="none" stroke="#000" stroke-miterlimit="10" stroke-width="0.75"/>
      <path id="Path_2375" data-name="Path 2375" d="M289.7,266.584l.112,11.564,12.912-.112-.337-11.677a1.513,1.513,0,0,0-1.572-1.46l-9.656.112A1.388,1.388,0,0,0,289.7,266.584Z" transform="translate(-287.231 -264.9)" fill="#282624"/>
      <path id="Path_2376" data-name="Path 2376" d="M289.6,266.584l.112,11.564,12.912-.112-.337-11.677a1.513,1.513,0,0,0-1.572-1.46l-9.656.112A1.513,1.513,0,0,0,289.6,266.584Z" transform="translate(-287.242 -264.9)" fill="none" stroke="#000" stroke-miterlimit="10" stroke-width="0.5"/>
      <circle id="Ellipse_368" data-name="Ellipse 368" cx="5.838" cy="5.838" r="5.838" transform="translate(3.031 20.546)" fill="#f9d589"/>
      <circle id="Ellipse_369" data-name="Ellipse 369" cx="2.919" cy="2.919" r="2.919" transform="translate(6.624 40.195)" fill="#fdfdfd"/>
      <path id="Path_2377" data-name="Path 2377" d="M300.345,266.1l.112,9.543h-2.133l-.225-9.431Z" transform="translate(-286.199 -264.753)" fill="#f9d589"/>
      <path id="Path_2378" data-name="Path 2378" d="M292.945,266.1l.112,9.543h-2.133l-.225-9.431Z" transform="translate(-287.107 -264.753)" fill="#f9d589"/>
      <path id="Path_2379" data-name="Path 2379" d="M297.958,268.2v7.186h-2.133L295.6,268.2Z" transform="translate(-286.506 -264.495)" fill="#f9d589"/>
      <path id="Path_2380" data-name="Path 2380" d="M295.458,268.2v7.186h-2.133L293.1,268.2Z" transform="translate(-286.813 -264.495)" fill="#f9d589"/>
    </g>
  </g>
</svg>
