<svg xmlns="http://www.w3.org/2000/svg" xmlns:xlink="http://www.w3.org/1999/xlink" width="350" height="263.999" viewBox="0 0 350 263.999">
  <defs>
    <clipPath id="clip-path">
      <rect id="Rectangle_2608" data-name="Rectangle 2608" width="291.122" height="166.71" fill="none"/>
    </clipPath>
    <filter id="Path_4167" x="82.269" y="72.837" width="134.416" height="131.866" filterUnits="userSpaceOnUse">
      <feOffset dy="3" input="SourceAlpha"/>
      <feGaussianBlur stdDeviation="3" result="blur"/>
      <feFlood flood-color="#b2b2b2" flood-opacity="0.545"/>
      <feComposite operator="in" in2="blur"/>
      <feComposite in="SourceGraphic"/>
    </filter>
  </defs>
  <g id="Group_6752" data-name="Group 6752" transform="translate(-820.906 -100)">
    <line id="Line_133" data-name="Line 133" x2="194.429" transform="translate(874.134 362.999)" fill="none" stroke="#e5e5e5" stroke-linecap="round" stroke-miterlimit="10" stroke-width="2"/>
    <g id="Group_6618" data-name="Group 6618" transform="translate(839.03 167.728)" opacity="0.102" style="isolation: isolate">
      <g id="Group_6617" data-name="Group 6617">
        <g id="Group_6616" data-name="Group 6616" clip-path="url(#clip-path)">
          <path id="Path_4008" data-name="Path 4008" d="M272.307,250.638H237.778a19.751,19.751,0,0,0,6.052-14.485v-4.286c0-12.416,8.909-22.482,19.9-22.482,11.266,0,20.4-10.319,20.4-23.047s-9.133-23.046-20.4-23.046h-3.342c-10.99,0-19.9-10.066-19.9-22.482,0-10.361-7.434-18.758-16.6-18.758H94.139c-10.208,0-18.482,9.349-18.482,20.881,0,7.884,3.868,14.748,9.575,18.3H62.441c-9.5,0-17.21,8.057-17.21,18,0,11.91-9.233,21.565-20.628,21.565H21.142C9.466,200.789,0,210.687,0,222.9S9.466,245,21.142,245c11.39,0,20.628,9.654,20.628,21.565v4.111c0,9.938,7.706,18,17.21,18h80.083c.6.059,1.216.09,1.836.09H272.307a19.064,19.064,0,0,0,0-38.126" transform="translate(0 -122.052)" fill="#95c6ff"/>
        </g>
      </g>
    </g>
    <g id="Group_6697" data-name="Group 6697" transform="translate(865.157 259.689)">
      <path id="Path_4132" data-name="Path 4132" d="M43.123,0S60.641,14.649,82.389,14.951c0,0,22.63,63.551-39.668,88.36,0,0-56.784-16.539-39.418-88.209,0,0,18.637,1.929,39.821-15.1" transform="translate(0 0)" fill="#97c0f0"/>
      <path id="Path_4133" data-name="Path 4133" d="M50.044,12.216S66.167,25.7,86.182,25.977c0,0,20.828,58.49-36.509,81.324,0,0-52.263-15.222-36.279-81.185,0,0,17.153,1.775,36.65-13.9" transform="translate(-6.915 -8.158)" fill="#599ae5"/>
      <g id="Group_6693" data-name="Group 6693" transform="translate(24.735 26.142)">
        <path id="Path_4135" data-name="Path 4135" d="M113.916,82.5a12.99,12.99,0,0,0-22.177,9.185v23.994H117.72V91.687a12.952,12.952,0,0,0-3.8-9.185m-2.033,10.64H97.041a11.492,11.492,0,0,0-1.362.083v-1.83a9.18,9.18,0,1,1,18.36,0v1.96a10.985,10.985,0,0,0-2.156-.213" transform="translate(-85.999 -78.695)" fill="#fff"/>
        <path id="Path_4136" data-name="Path 4136" d="M111.385,133.227v14.5a11.041,11.041,0,0,1-11.042,11.042H85.5a11.043,11.043,0,0,1-11.042-11.042v-14.5a11.038,11.038,0,0,1,5.74-9.687,10.9,10.9,0,0,1,3.94-1.272,11.489,11.489,0,0,1,1.362-.083h14.842a11.032,11.032,0,0,1,11.042,11.042" transform="translate(-74.459 -107.738)" fill="#ffaf52"/>
        <path id="Path_4137" data-name="Path 4137" d="M124.272,168.822a.742.742,0,0,1-.721.92h-8.414a.742.742,0,0,1-.724-.9l2.272-10.364a5.69,5.69,0,1,1,5.083.063Z" transform="translate(-100.597 -124.794)" fill="#dd8f34"/>
        <path id="Path_4138" data-name="Path 4138" d="M119.776,145.079v14.5a11.041,11.041,0,0,1-11.042,11.042H93.892a11.016,11.016,0,0,1-6.717-2.275,11.693,11.693,0,0,0,4.119.747H107.01A11.69,11.69,0,0,0,118.7,157.4V142.053a11.716,11.716,0,0,0-.193-2.116,10.98,10.98,0,0,1,1.269,5.142" transform="translate(-82.951 -119.593)" fill="#ed9f44"/>
      </g>
    </g>
    <g id="Group_6634" data-name="Group 6634" transform="translate(928.408 139.479)">
      <path id="Path_4009" data-name="Path 4009" d="M132.116,52.442h78.032a15.864,15.864,0,0,1,15.988,15.737v191.7a15.875,15.875,0,0,1-15.909,15.842h-78.11a15.864,15.864,0,0,1-15.991-15.734q0-.054,0-.108V68.279a15.1,15.1,0,0,1,1.181-6.178,15.513,15.513,0,0,1,3.427-5.033,16.215,16.215,0,0,1,11.383-4.626" transform="translate(-115.085 -52.442)" fill="#8593c3"/>
      <path id="Path_4010" data-name="Path 4010" d="M246.264,139.744h0a.9.9,0,0,1,.383.09,1.2,1.2,0,0,1,.569.569.9.9,0,0,1,.09.382v22.384a.9.9,0,0,1-.09.382,1.208,1.208,0,0,1-.57.569.86.86,0,0,1-.763,0,1.21,1.21,0,0,1-.569-.569.909.909,0,0,1-.09-.382V140.785a.907.907,0,0,1,.09-.382,1.2,1.2,0,0,1,.569-.569.894.894,0,0,1,.382-.09" transform="translate(-135.387 -66.823)" fill="#7081b9"/>
      <path id="Path_4011" data-name="Path 4011" d="M115.931,116.886h0a.9.9,0,0,1,.382.09,1.2,1.2,0,0,1,.57.569.894.894,0,0,1,.09.382V133.89a.894.894,0,0,1-.09.382,1.208,1.208,0,0,1-.57.571.86.86,0,0,1-.764,0,1.21,1.21,0,0,1-.569-.571.907.907,0,0,1-.09-.382V117.927a.907.907,0,0,1,.09-.382,1.2,1.2,0,0,1,.569-.569.9.9,0,0,1,.382-.09" transform="translate(-114.89 -63.042)" fill="#7081b9"/>
      <path id="Path_4012" data-name="Path 4012" d="M115.931,99.181h0a.894.894,0,0,1,.382.09,1.2,1.2,0,0,1,.57.569.894.894,0,0,1,.09.382v8.5a.894.894,0,0,1-.09.382,1.206,1.206,0,0,1-.57.57.853.853,0,0,1-.764,0,1.2,1.2,0,0,1-.569-.57.907.907,0,0,1-.09-.382v-8.5a.907.907,0,0,1,.09-.382,1.2,1.2,0,0,1,.569-.569.894.894,0,0,1,.382-.09" transform="translate(-114.89 -60.117)" fill="#7081b9"/>
      <path id="Path_4013" data-name="Path 4013" d="M115.931,146.125h0a.9.9,0,0,1,.382.09,1.2,1.2,0,0,1,.57.569.894.894,0,0,1,.09.382V163.13a.9.9,0,0,1-.09.383,1.208,1.208,0,0,1-.57.569.861.861,0,0,1-.764,0,1.21,1.21,0,0,1-.569-.569.914.914,0,0,1-.09-.383V147.166a1.122,1.122,0,0,1,.09-.455.921.921,0,0,1,.235-.325,1.01,1.01,0,0,1,.334-.2,1.154,1.154,0,0,1,.382-.065" transform="translate(-114.89 -67.852)" fill="#5f6cbe"/>
      <path id="Path_4014" data-name="Path 4014" d="M135.349,58.617h73.569a12.758,12.758,0,0,1,12.844,12.668V258.573a12.756,12.756,0,0,1-12.777,12.734H135.349a12.757,12.757,0,0,1-12.841-12.671V71.351a12.756,12.756,0,0,1,12.777-12.734h.064" transform="translate(-116.088 -53.412)" fill="#f4f8fc"/>
      <path id="Path_4015" data-name="Path 4015" d="M168.641,65h20.3a4.418,4.418,0,0,1,1.7.336,4.264,4.264,0,0,1,2.3,2.3,4.463,4.463,0,0,1,0,3.4,4.262,4.262,0,0,1-2.3,2.3,4.419,4.419,0,0,1-1.7.337h-20.3a4.418,4.418,0,0,1-1.7-.337,4.265,4.265,0,0,1-2.3-2.3,4.48,4.48,0,0,1,0-3.406,4.27,4.27,0,0,1,2.3-2.3,4.413,4.413,0,0,1,1.7-.336" transform="translate(-122.661 -57.829)" fill="#6f7eb5"/>
    </g>
    <g id="Group_6712" data-name="Group 6712" transform="translate(1077.886 100)">
      <path id="Path_4080" data-name="Path 4080" d="M281.516,20.52A20.521,20.521,0,1,1,260.995,0,20.521,20.521,0,0,1,281.516,20.52" transform="translate(-240.474 0.001)" fill="#dce4ff"/>
      <path id="Path_4081" data-name="Path 4081" d="M272.676,18.84a11.742,11.742,0,0,0-19.7,1.057.722.722,0,0,0,.246.986l.005,0a.712.712,0,0,0,.976-.25,10.319,10.319,0,0,1,17.334-.933.709.709,0,0,0,.608.286v0a.718.718,0,0,0,.532-1.146" transform="translate(-242.319 -2.087)" fill="#5f6cbe"/>
      <path id="Path_4082" data-name="Path 4082" d="M254.519,15.219a.71.71,0,0,0,1-.026,10.428,10.428,0,0,1,5.221-3.017c.236-.057.475-.1.713-.14.217-.036.434-.072.653-.094.158-.016.316-.023.475-.032.3-.017.6-.028.9-.018.081,0,.162.009.242.013a10.543,10.543,0,0,1,1.137.119,10.405,10.405,0,0,1,5.3,2.509l.005,0a.711.711,0,0,0,1-.073.723.723,0,0,0-.07-1.015,11.849,11.849,0,0,0-9.582-2.891c-.105.014-.209.034-.314.052s-.225.036-.339.059a11.854,11.854,0,0,0-6.374,3.528.722.722,0,0,0,.019,1.017l.006.005" transform="translate(-242.53 -1.559)" fill="#5f6cbe"/>
      <path id="Path_4083" data-name="Path 4083" d="M262.851,37.807h0Z" transform="translate(-243.801 -5.645)" fill="#5f6cbe"/>
      <path id="Path_4084" data-name="Path 4084" d="M258.717,27.661A5.152,5.152,0,1,1,269,27.108a.716.716,0,0,0,.828.743.717.717,0,0,0,.6-.82,6.574,6.574,0,1,0-13.121.706c.191,3.61,4.04,7.163,4.2,7.316a.7.7,0,0,0,.51.18.717.717,0,0,0,.439-1.248c-.033-.033-3.574-3.3-3.736-6.325" transform="translate(-242.976 -3.074)" fill="#5f6cbe"/>
      <path id="Path_4085" data-name="Path 4085" d="M263.493,17.289a9.022,9.022,0,0,0-6.709,2.84,9.867,9.867,0,0,0-.225,13.254.709.709,0,0,0,1,.059.722.722,0,0,0,.067-1.013,8.426,8.426,0,0,1,.191-11.307,7.614,7.614,0,0,1,5.661-2.4c4.116.054,7.526,3.6,7.763,8.058l.009.163a1.012,1.012,0,0,1,.009.168,1.992,1.992,0,1,1-3.985.048l-.025-.468a4.022,4.022,0,0,0-1.329-2.8,3.783,3.783,0,0,0-2.747-.98h-.02a3.63,3.63,0,0,0-2.641,1.4,4.66,4.66,0,0,0-.905,3.595c.578,3.632,4.724,6.7,6.437,6.607l0,0a.718.718,0,0,0-.077-1.434c-.937.05-4.481-2.438-4.954-5.4a3.2,3.2,0,0,1,.607-2.466,2.2,2.2,0,0,1,1.614-.863h.014a2.369,2.369,0,0,1,1.72.618,2.6,2.6,0,0,1,.852,1.808l.025.468c0,.066,0,.13.01.2l.005.065a3.418,3.418,0,0,0,6.807-.63l-.009-.164c-.277-5.216-4.309-9.351-9.169-9.416" transform="translate(-242.504 -2.582)" fill="#5f6cbe"/>
      <path id="Path_4086" data-name="Path 4086" d="M270.024,33c-1.867.1-4.371-2.3-4.521-5.134a.717.717,0,1,0-1.425.076c.194,3.66,3.471,6.628,6.021,6.49v0A.718.718,0,0,0,270.024,33" transform="translate(-243.989 -4.048)" fill="#5f6cbe"/>
    </g>
    <g id="Group_6715" data-name="Group 6715" transform="translate(820.906 170.813)">
      <path id="Path_4087" data-name="Path 4087" d="M50.457,118.518A20.521,20.521,0,1,1,29.936,98a20.521,20.521,0,0,1,20.521,20.521" transform="translate(-9.415 -97.997)" fill="#dce4ff"/>
      <g id="Group_6714" data-name="Group 6714" transform="translate(10.956 10.89)">
        <path id="Path_4088" data-name="Path 4088" d="M38.411,132.492h3.033a2.386,2.386,0,0,0,2.387-2.385v-3.034" transform="translate(-24.701 -113.262)" fill="none" stroke="#5f6cbe" stroke-linecap="round" stroke-miterlimit="10" stroke-width="2"/>
        <path id="Path_4089" data-name="Path 4089" d="M38.411,110.8h3.033a2.386,2.386,0,0,1,2.387,2.385v3.034" transform="translate(-24.701 -110.797)" fill="none" stroke="#5f6cbe" stroke-linecap="round" stroke-miterlimit="10" stroke-width="2"/>
        <path id="Path_4090" data-name="Path 4090" d="M27.715,132.492H24.682a2.386,2.386,0,0,1-2.387-2.385v-3.034" transform="translate(-22.295 -113.262)" fill="none" stroke="#5f6cbe" stroke-linecap="round" stroke-miterlimit="10" stroke-width="2"/>
        <path id="Path_4091" data-name="Path 4091" d="M27.715,110.8H24.682a2.386,2.386,0,0,0-2.387,2.385v3.034" transform="translate(-22.295 -110.797)" fill="none" stroke="#5f6cbe" stroke-linecap="round" stroke-miterlimit="10" stroke-width="2"/>
        <path id="Path_4092" data-name="Path 4092" d="M38.053,120.746h0a.878.878,0,0,1-.878-.878v-1.361a.878.878,0,1,1,1.757,0v1.361a.878.878,0,0,1-.878.878" transform="translate(-24.516 -111.83)" fill="#5f6cbe"/>
        <path id="Path_4093" data-name="Path 4093" d="M28.661,120.746h0a.878.878,0,0,1-.878-.878v-1.361a.878.878,0,1,1,1.757,0v1.361a.878.878,0,0,1-.878.878" transform="translate(-23.114 -111.83)" fill="#5f6cbe"/>
        <path id="Path_4094" data-name="Path 4094" d="M32.28,122.719h.282a.842.842,0,0,0,.841-.841v-3.507" transform="translate(-23.786 -111.944)" fill="none" stroke="#5f6cbe" stroke-linecap="round" stroke-miterlimit="10" stroke-width="1.5"/>
        <path id="Path_4095" data-name="Path 4095" d="M29.749,125.991s2.511,3.194,6.28.027" transform="translate(-23.408 -113.094)" fill="none" stroke="#5f6cbe" stroke-linecap="round" stroke-miterlimit="10" stroke-width="1.5"/>
      </g>
    </g>
    <g id="Group_6711" data-name="Group 6711" transform="translate(1129.864 170.813)">
      <path id="Path_4096" data-name="Path 4096" d="M356.945,118.518A20.521,20.521,0,1,1,336.424,98a20.521,20.521,0,0,1,20.521,20.521" transform="translate(-315.903 -97.997)" fill="#dce4ff"/>
      <path id="Path_4097" data-name="Path 4097" d="M343.471,121.195v-5.759a4.179,4.179,0,1,0-8.357,0v5.759" transform="translate(-318.772 -99.981)" fill="none" stroke="#5f6cbe" stroke-miterlimit="10" stroke-width="2"/>
      <path id="Path_4098" data-name="Path 4098" d="M346.049,121.163V122.4h-5.828a1.521,1.521,0,0,0-2.942,0H331.44v-1.234a1.813,1.813,0,0,1,1.808-1.818h10.993a1.81,1.81,0,0,1,1.808,1.814Z" transform="translate(-318.223 -101.2)" fill="#5f6cbe"/>
      <path id="Path_4099" data-name="Path 4099" d="M326.936,124.968h21.755a1.729,1.729,0,0,1,1.729,1.728v3.362a1.728,1.728,0,0,1-1.729,1.727H326.936a1.728,1.728,0,0,1-1.728-1.723V126.7A1.728,1.728,0,0,1,326.936,124.968Z" transform="translate(-317.293 -102.053)" fill="none" stroke="#5f6cbe" stroke-miterlimit="10" stroke-width="1.5"/>
      <path id="Path_4100" data-name="Path 4100" d="M330.859,128.608a1.53,1.53,0,1,1-1.531-1.533,1.529,1.529,0,0,1,1.531,1.533v0" transform="translate(-317.68 -102.371)" fill="#5f6cbe"/>
      <path id="Path_4101" data-name="Path 4101" d="M336.6,128.608a1.53,1.53,0,1,1-1.53-1.533,1.529,1.529,0,0,1,1.53,1.533v0" transform="translate(-318.537 -102.371)" fill="#5f6cbe"/>
      <path id="Path_4102" data-name="Path 4102" d="M342.087,128.608a1.53,1.53,0,1,1-1.532-1.533,1.529,1.529,0,0,1,1.532,1.533v0" transform="translate(-319.356 -102.371)" fill="#5f6cbe"/>
      <path id="Path_4103" data-name="Path 4103" d="M347.5,128.608a1.53,1.53,0,1,1-1.531-1.531,1.529,1.529,0,0,1,1.531,1.531Z" transform="translate(-320.164 -102.371)" fill="#5f6cbe"/>
      <line id="Line_142" data-name="Line 142" x2="2.576" transform="translate(28.35 27.928)" fill="none" stroke="#5f6cbe" stroke-linecap="round" stroke-miterlimit="10" stroke-width="1"/>
    </g>
    <g id="Group_6709" data-name="Group 6709" transform="translate(1022.145 303.73)">
      <path id="Path_4119" data-name="Path 4119" d="M251.156,316.788h-7.5l-4.965-15.851h12.463Z" transform="translate(-229.934 -257.519)" fill="#dd9d83"/>
      <rect id="Rectangle_2616" data-name="Rectangle 2616" width="1.515" height="15.847" transform="translate(19.703 43.422)" fill="#ba7b6a"/>
      <line id="Line_149" data-name="Line 149" x2="11.64" transform="translate(9.526 45.98)" fill="none" stroke="#c98773" stroke-miterlimit="10" stroke-width="1"/>
      <g id="Group_6661" data-name="Group 6661">
        <path id="Path_4120" data-name="Path 4120" d="M244.451,294.041s-1.963-24.7-10.476-28.94a3.866,3.866,0,0,0-5.546,3.133c-.164,2.035.451,4.986,3.244,8.983a121.425,121.425,0,0,1,9.865,16.88Z" transform="translate(-228.405 -252.111)" fill="#80a37f"/>
        <path id="Path_4121" data-name="Path 4121" d="M244.578,296.516a38.08,38.08,0,0,0-5.916-14.292" transform="translate(-229.937 -254.726)" fill="none" stroke="#a7cbaf" stroke-linecap="round" stroke-miterlimit="10" stroke-width="1"/>
        <path id="Path_4122" data-name="Path 4122" d="M243.787,291.857s2.759-34.722,14.668-41.266a5.608,5.608,0,0,1,8.3,4.622c.146,2.9-.808,7.03-4.666,12.555a173.9,173.9,0,0,0-14.126,24.17Z" transform="translate(-230.702 -249.899)" fill="#a7cbaf"/>
        <path id="Path_4123" data-name="Path 4123" d="M245.962,293.554s3.434-18.483,12.935-31.277" transform="translate(-231.027 -251.747)" fill="none" stroke="#80a37f" stroke-linecap="round" stroke-miterlimit="10" stroke-width="1"/>
      </g>
    </g>
    <g id="Group_6713" data-name="Group 6713" transform="translate(872.876 100)">
      <path id="Path_4104" data-name="Path 4104" d="M124.827,20.52A20.521,20.521,0,1,1,104.306,0,20.521,20.521,0,0,1,124.827,20.52" transform="translate(-83.785 0.001)" fill="#dce4ff"/>
      <g id="passkey_outline" transform="translate(9.351 10.207)">
        <path id="Path_4128" data-name="Path 4128" d="M9.839,35.266A5.074,5.074,0,0,0,14.7,30.2q0-.089,0-.176v.009c0-.043,0-.095,0-.146A4.945,4.945,0,0,0,9.843,24.94h0a5,5,0,0,0-4.865,5q0,.061,0,.121v-.006c0,.043,0,.094,0,.145a5.072,5.072,0,0,0,4.855,5.067h.01Zm0-1.682a3.334,3.334,0,0,1-3.057-3.32q0-.111.007-.221v.01c0-.058-.006-.125-.006-.193A3.243,3.243,0,0,1,9.83,26.623h.009a3.209,3.209,0,0,1,3.057,3.2q0,.108-.007.215v-.01c0,.066.007.144.007.222a3.343,3.343,0,0,1-3.045,3.33H9.839ZM2.767,45.57H17.459a1.926,1.926,0,0,1-.36-1.078v0c-.012-.2-.012-.4-.022-.6H2.229c-.293,0-.416-.078-.416-.312,0-1.827,2.859-5.246,8.026-5.246.087,0,.189,0,.292,0a8.679,8.679,0,0,1,6.574,3l.009.011V39.89A4.52,4.52,0,0,1,15.16,37.9l-.011-.03a11.472,11.472,0,0,0-5.2-1.226H9.836C3.726,36.648,0,40.87,0,43.787c0,1.227.889,1.783,2.767,1.783Z" transform="translate(0 -24.94)" fill="#5f6cbe"/>
        <path id="Path_4129" data-name="Path 4129" d="M782.553,385.265a3.443,3.443,0,0,0-1.283,6.631l.023.008v5.313a.525.525,0,0,0,.158.338h0l.9.912a.269.269,0,0,0,.383,0l1.711-1.711a.247.247,0,0,0,0-.371h0l-1.058-1.07,1.464-1.429a.273.273,0,0,0-.023-.394h0l-1.441-1.441a3.653,3.653,0,0,0,2.589-3.36v-.006a3.42,3.42,0,0,0-3.42-3.42h0Zm-.012,1.644a1.064,1.064,0,0,1,0,2.128h0a1.064,1.064,0,1,1,0-2.128Z" transform="translate(-762.921 -377.771)" fill="#5f6cbe"/>
      </g>
    </g>
    <g id="Group_6739" data-name="Group 6739" transform="translate(1013.729 129.643)">
      <g id="Group_6633" data-name="Group 6633" transform="translate(0 0)">
        <path id="Path_4016" data-name="Path 4016" d="M148.605,124.883h14.067a10.89,10.89,0,0,1,4.268.869,11.119,11.119,0,0,1,5.863,5.861,10.883,10.883,0,0,1,.869,4.268v14.067a10.884,10.884,0,0,1-.869,4.268,11.118,11.118,0,0,1-5.861,5.863,10.874,10.874,0,0,1-4.268.869H148.605a10.874,10.874,0,0,1-4.268-.869,11.117,11.117,0,0,1-5.861-5.861,10.882,10.882,0,0,1-.869-4.27V135.881a10.965,10.965,0,0,1,10.931-11h.067" transform="translate(-137.608 -124.883)" fill="#5f6cbe"/>
        <path id="Path_4017" data-name="Path 4017" d="M159.238,161.788a9.4,9.4,0,0,0,2.628,1.426,9.2,9.2,0,0,0,8.423-1.226.875.875,0,0,1,.295-.153.613.613,0,0,1,.285-.011.694.694,0,0,1,.267.121,1.1,1.1,0,0,1,.239.243.883.883,0,0,1,.15.313.75.75,0,0,1,.011.313.66.66,0,0,1-.358.476,10.662,10.662,0,0,1-12.827-.2.832.832,0,0,1-.225-.256.812.812,0,0,1-.1-.294.857.857,0,0,1,.016-.294.8.8,0,0,1,.108-.257.678.678,0,0,1,.2-.243.645.645,0,0,1,.271-.121.714.714,0,0,1,.308.011.859.859,0,0,1,.308.153Zm16.577-8.218v.4a12.027,12.027,0,0,1-.167,2,11.512,11.512,0,0,1-.5,1.931,11.161,11.161,0,0,1-2,3.482.966.966,0,0,1-.252.185.891.891,0,0,1-.29.091.692.692,0,0,1-.29-.022.592.592,0,0,1-.252-.153.981.981,0,0,1-.182-.256.929.929,0,0,1-.09-.294.729.729,0,0,1,.022-.294.609.609,0,0,1,.15-.256,10.206,10.206,0,0,0,.979-1.423,9.881,9.881,0,0,0,.712-1.55,9.781,9.781,0,0,0,.433-1.64,9.9,9.9,0,0,0,.147-1.705v-.3a.551.551,0,0,1,.011-.3.777.777,0,0,1,.15-.268,1.05,1.05,0,0,1,.242-.212,1,1,0,0,1,.288-.127.527.527,0,0,1,.291.011.758.758,0,0,1,.264.153,1.048,1.048,0,0,1,.208.246,1.022,1.022,0,0,1,.125.292Zm-20.13,2.906q.15.489.333.958t.407.921q.222.451.481.883t.556.846a.608.608,0,0,1,.15.256.722.722,0,0,1,.022.294.937.937,0,0,1-.089.294.991.991,0,0,1-.182.256.593.593,0,0,1-.253.153.691.691,0,0,1-.29.022.891.891,0,0,1-.29-.091.967.967,0,0,1-.253-.185,9.309,9.309,0,0,1-.684-.954,10.691,10.691,0,0,1-.573-1.038q-.258-.535-.463-1.094c-.136-.371-.252-.747-.35-1.123a.884.884,0,0,1,.074-.613.751.751,0,0,1,.2-.246.739.739,0,0,1,.314-.142.63.63,0,0,1,.292,0,.725.725,0,0,1,.264.117.852.852,0,0,1,.333.489Zm12.729-8.619a6.9,6.9,0,0,1,2.019,1.9,7.17,7.17,0,0,1,1.228,5.19,7.061,7.061,0,0,1-5.282,5.814,6.8,6.8,0,0,1-2.675.116,6.681,6.681,0,0,1-2.59-.993,6.9,6.9,0,0,1-2.019-1.9,7.167,7.167,0,0,1-1.227-5.189,6.909,6.909,0,0,1,.978-2.633c.15-.226.3-.445.466-.656a7.758,7.758,0,0,1,.521-.61,6.448,6.448,0,0,1,.6-.552,6.115,6.115,0,0,1,.687-.487.975.975,0,0,1,.617-.088.818.818,0,0,1,.271.1.616.616,0,0,1,.2.187,1.019,1.019,0,0,1,.087.626.865.865,0,0,1-.1.275.616.616,0,0,1-.184.2,5.341,5.341,0,0,0-2.393,3.42,5.5,5.5,0,0,0,.715,4.1,5.275,5.275,0,0,0,7.4,1.7,5.34,5.34,0,0,0,2.393-3.42,5.5,5.5,0,0,0-.715-4.1,3.767,3.767,0,0,0-.347-.508,5.286,5.286,0,0,0-.43-.47c-.154-.152-.318-.294-.486-.432s-.341-.27-.513-.395a.689.689,0,0,1-.241-.2.747.747,0,0,1-.13-.275.885.885,0,0,1-.018-.313.954.954,0,0,1,.093-.313,1.74,1.74,0,0,1,.252-.142,1.279,1.279,0,0,1,.29-.1.724.724,0,0,1,.29,0,.5.5,0,0,1,.252.139Zm-7.894-3.506a.958.958,0,0,1,.093.313.888.888,0,0,1-.019.313.754.754,0,0,1-.129.275.7.7,0,0,1-.241.2,9.353,9.353,0,0,0-2,1.555,9.974,9.974,0,0,0-2.491,4.35,9.582,9.582,0,0,0-.339,2.513.709.709,0,0,1-.068.294.927.927,0,0,1-.432.439.643.643,0,0,1-.579,0,.925.925,0,0,1-.432-.439.71.71,0,0,1-.069-.294,11.476,11.476,0,0,1,1.518-5.713,11.7,11.7,0,0,1,1.771-2.349,11.914,11.914,0,0,1,2.336-1.86,1.207,1.207,0,0,1,.308-.036,1.079,1.079,0,0,1,.308.051.832.832,0,0,1,.271.142.718.718,0,0,1,.2.246Zm9.276-.5a11.12,11.12,0,0,1,1.874,1.248,11.327,11.327,0,0,1,1.589,1.6,11.075,11.075,0,0,1,1.238,1.88,10.465,10.465,0,0,1,.825,2.091.929.929,0,0,1,.02.311.972.972,0,0,1-.082.3.786.786,0,0,1-.174.246.6.6,0,0,1-.258.142.888.888,0,0,1-.307.02.933.933,0,0,1-.3-.083.77.77,0,0,1-.242-.177.611.611,0,0,1-.14-.262,9.041,9.041,0,0,0-.712-1.8,9.7,9.7,0,0,0-1.064-1.61,10.385,10.385,0,0,0-1.359-1.384,10.833,10.833,0,0,0-1.6-1.122.7.7,0,0,1-.241-.2.76.76,0,0,1-.129-.275.887.887,0,0,1-.018-.313.954.954,0,0,1,.091-.314.47.47,0,0,1,.14-.2.723.723,0,0,1,.242-.136.816.816,0,0,1,.3-.042.747.747,0,0,1,.307.08Z" transform="translate(-147.091 -136.116)" fill="#fff"/>
        <path id="Path_4018" data-name="Path 4018" d="M176.692,141.067a.821.821,0,0,1,.551.213.767.767,0,0,1,.181.254.826.826,0,0,1,.069.337v7.418a3.351,3.351,0,0,1,1.259.762,3.245,3.245,0,0,1,.769,1.213,5,5,0,0,1,.282,1.628,9.049,9.049,0,0,1-.207,2,.851.851,0,0,1-.338.489.749.749,0,0,1-.268.117.654.654,0,0,1-.3,0,.852.852,0,0,1-.489-.338.733.733,0,0,1-.117-.268.647.647,0,0,1,0-.3.564.564,0,0,1,.016-.135,1.069,1.069,0,0,1,.034-.116c.012-.038.025-.076.034-.116a.586.586,0,0,0,.016-.134h-1a.693.693,0,0,1-.294-.069.932.932,0,0,1-.439-.438.7.7,0,0,1-.069-.294.822.822,0,0,1,.055-.294.8.8,0,0,1,.158-.256.765.765,0,0,1,.254-.182.817.817,0,0,1,.337-.069h1.1a1.865,1.865,0,0,0-.108-.634,1.734,1.734,0,0,0-.3-.531,1.827,1.827,0,0,0-.475-.4,2.1,2.1,0,0,0-.616-.24,1.513,1.513,0,0,0-.371.129,1.8,1.8,0,0,0-.63.52,1.541,1.541,0,0,0-.2.355,4.53,4.53,0,0,0-.17.693,5.2,5.2,0,0,0-.068.722,6.144,6.144,0,0,0,.027.741,7.248,7.248,0,0,0,.111.75.876.876,0,0,1-.075.614.758.758,0,0,1-.207.246.766.766,0,0,1-.32.142.875.875,0,0,1-.613-.075.748.748,0,0,1-.388-.526v-.1a10.042,10.042,0,0,1-.153-2.047,5.259,5.259,0,0,1,.3-1.621,3.164,3.164,0,0,1,1.956-1.944v-5.212l-.9.1a.82.82,0,0,1-.292-.056.808.808,0,0,1-.259-.156.763.763,0,0,1-.182-.254.827.827,0,0,1-.067-.337.854.854,0,0,1,.2-.551.732.732,0,0,1,.223-.182.6.6,0,0,1,.279-.069l1.1-.1v-.5a.673.673,0,0,1-.047-.352.613.613,0,0,1,.124-.286.683.683,0,0,1,.233-.193.658.658,0,0,1,.291-.071" transform="translate(-158.919 -134.46)" fill="#e9ca62"/>
      </g>
    </g>
    <g id="Group_6751" data-name="Group 6751" transform="translate(912.175 178.837)">
      <g transform="matrix(1, 0, 0, 1, -91.27, -78.84)" filter="url(#Path_4167)">
        <path id="Path_4167-2" data-name="Path 4167" d="M116.416,9.586v94.638c0,5.294-3.167,9.586-7.073,9.586H96.775c-9.4.047-19.4.1-23.15,0H7.073C3.167,113.81,0,109.518,0,104.224V9.586C0,4.292,3.167,0,7.073,0h102.27c3.906,0,7.073,4.292,7.073,9.586" transform="translate(91.27 78.84)" fill="#fff"/>
      </g>
      <g id="Group_6750" data-name="Group 6750" transform="translate(10.107 12.746)">
        <g id="Group_6749" data-name="Group 6749" transform="translate(0)">
          <rect id="Rectangle_2625" data-name="Rectangle 2625" width="46.736" height="3.399" rx="1.699" transform="translate(28.974 4.674)" fill="#e9e6ff"/>
          <rect id="Rectangle_2629" data-name="Rectangle 2629" width="46.51" height="2.848" rx="1.424" transform="translate(0 29.932)" fill="#e9e6ff"/>
          <rect id="Rectangle_2628" data-name="Rectangle 2628" width="66.28" height="3.399" rx="1.699" transform="translate(28.974 14.021)" fill="#f0f2ff"/>
          <path id="Path_4108" data-name="Path 4108" d="M251.34,192.068H235.8a2,2,0,0,1-2-2v-15.54a2,2,0,0,1,2-2H251.34a2,2,0,0,1,2,2v15.54a2,2,0,0,1-2,2" transform="translate(-233.858 -172.524)" fill="#cfd6fa"/>
        </g>
        <g id="Group_6748" data-name="Group 6748" transform="translate(0.09 39.938)">
          <rect id="Rectangle_2630" data-name="Rectangle 2630" width="66.443" height="3.797" rx="1.898" transform="translate(18.893 4.231)" fill="#f0f2ff"/>
          <g id="Group_6741" data-name="Group 6741" transform="translate(0 0)">
            <path id="Path_4109" data-name="Path 4109" d="M244.3,222.046h-8.918a1.489,1.489,0,0,1-1.489-1.489v-8.918a1.489,1.489,0,0,1,1.489-1.489H244.3a1.489,1.489,0,0,1,1.489,1.489v8.918a1.489,1.489,0,0,1-1.489,1.489" transform="translate(-233.895 -210.15)" fill="#e3e7fc"/>
            <g id="Group_6740" data-name="Group 6740" transform="translate(2.852 1.784)">
              <path id="Path_4112" data-name="Path 4112" d="M242.1,215.206a1.148,1.148,0,0,1,1.019,1.141V218.9a1.148,1.148,0,0,1-1.147,1.146h-3.57a1.146,1.146,0,0,1-1.147-1.147h0v-2.551a1.148,1.148,0,0,1,1.019-1.139c0-.025,3.824-.027,3.825,0m-.128.757h-3.57a.383.383,0,0,0-.383.383V218.9a.383.383,0,0,0,.383.383h3.57a.383.383,0,0,0,.383-.383v-2.551a.383.383,0,0,0-.383-.383m-1.786,1.148a.51.51,0,1,1-.51.51.51.51,0,0,1,.51-.51" transform="translate(-237.26 -212.427)" fill="#5f6cbe"/>
              <path id="Path_4113" data-name="Path 4113" d="M239.116,212.753a1.912,1.912,0,0,1,2.661.349s.12.127.222.262a3.243,3.243,0,0,1,.185.279c.047.563-.617.457-.617.457l-2.439,1.845-.388-.515a1.912,1.912,0,0,1,.376-2.677m.46.611a1.147,1.147,0,0,0-.236,1.59l.4.53,1.828-1.384a3.9,3.9,0,0,0-.384-.509,1.147,1.147,0,0,0-1.606-.228h0" transform="translate(-237.28 -212.366)" fill="#5f6cbe"/>
            </g>
          </g>
        </g>
        <g id="Group_6747" data-name="Group 6747" transform="translate(0.09 58.633)">
          <rect id="Rectangle_2631" data-name="Rectangle 2631" width="66.443" height="2.848" rx="1.424" transform="translate(18.893 4.52)" fill="#e9e6ff"/>
          <g id="Group_6743" data-name="Group 6743" transform="translate(0 0)">
            <path id="Path_4110" data-name="Path 4110" d="M244.3,241.385h-8.918A1.489,1.489,0,0,1,233.9,239.9v-8.918a1.489,1.489,0,0,1,1.489-1.489H244.3a1.489,1.489,0,0,1,1.489,1.489V239.9a1.489,1.489,0,0,1-1.489,1.489" transform="translate(-233.895 -229.488)" fill="#e3e7fc"/>
            <path id="Path_4114" data-name="Path 4114" d="M240.657,234.514a2.285,2.285,0,0,1,1.429,1.979.26.26,0,1,1-.511.1l0-.022a1.729,1.729,0,0,0-2.486-1.515,1.723,1.723,0,0,0-.916,1.178,2.773,2.773,0,0,0,.354,1.859,2.956,2.956,0,0,0,.848,1.084h.005a.262.262,0,1,1-.209.48,3.142,3.142,0,0,1-1.108-1.326,3.25,3.25,0,0,1-.393-2.223,2.242,2.242,0,0,1,1.191-1.521,2.3,2.3,0,0,1,1.8-.074m-.4-1.1a2.882,2.882,0,0,1,1.751.847,3.692,3.692,0,0,1,.942,1.564,1.653,1.653,0,0,1-.074,1.329,1.337,1.337,0,0,1-.756.586,1.216,1.216,0,0,1-1.475-.865l-.012-.041-.019-.067-.034-.119-.006-.026a1.271,1.271,0,0,0-.232-.511.651.651,0,0,0-.529-.191c-.648,0-.933.77-.461,1.663a3.441,3.441,0,0,0,1.54,1.512.261.261,0,0,1-.233.466,3.96,3.96,0,0,1-1.765-1.735,2.041,2.041,0,0,1-.2-1.64,1.245,1.245,0,0,1,2.037-.423,1.669,1.669,0,0,1,.341.7l.016.056.044.158.015.054a.7.7,0,0,0,.811.519.826.826,0,0,0,.47-.354,1.154,1.154,0,0,0,.025-.92,3.183,3.183,0,0,0-.8-1.339,2.365,2.365,0,0,0-1.441-.7,2.671,2.671,0,0,0-2.44.973,3.216,3.216,0,0,0-.545,1.059,2.676,2.676,0,0,0,.064,1.516l.007.024a3.153,3.153,0,0,0,.468,1.027.261.261,0,1,1-.412.321,3.6,3.6,0,0,1-.545-1.172l-.009-.024-.006-.023a3.2,3.2,0,0,1-.066-1.8,3.69,3.69,0,0,1,.622-1.226,3.187,3.187,0,0,1,2.911-1.191m-.157,3.178a1.665,1.665,0,0,0,.672,1.256,2.1,2.1,0,0,0,1.37.346.261.261,0,0,1,.061.518l-.025,0a2.617,2.617,0,0,1-1.7-.436,2.182,2.182,0,0,1-.894-1.627.261.261,0,0,1,.513-.091c0,.009,0,.019,0,.028Zm-.287-4.2a3.239,3.239,0,0,1,2.543,1.111.261.261,0,0,1-.39.344,2.725,2.725,0,0,0-2.152-.934,3.1,3.1,0,0,0-2.28.946.261.261,0,0,1-.369-.368,3.621,3.621,0,0,1,2.649-1.1" transform="translate(-234.145 -229.754)" fill="#5f6cbe"/>
          </g>
        </g>
        <g id="Group_6746" data-name="Group 6746" transform="translate(0.09 77.327)">
          <rect id="Rectangle_2632" data-name="Rectangle 2632" width="66.443" height="3.797" rx="1.898" transform="translate(18.893 3.86)" fill="#f0f2ff"/>
          <g id="Group_6745" data-name="Group 6745" transform="translate(0 0)">
            <path id="Path_4111" data-name="Path 4111" d="M244.3,261.465h-8.918a1.489,1.489,0,0,1-1.489-1.489v-8.918a1.489,1.489,0,0,1,1.489-1.489H244.3a1.489,1.489,0,0,1,1.489,1.489v8.918a1.489,1.489,0,0,1-1.489,1.489" transform="translate(-233.895 -249.569)" fill="#e3e7fc"/>
            <g id="Group_6744" data-name="Group 6744" transform="translate(2.464 2.518)">
              <path id="Path_4115" data-name="Path 4115" d="M242.035,256.106v-.569a1.98,1.98,0,0,0-.59-1.415,2.012,2.012,0,0,0-3.427,1.415v.568" transform="translate(-236.84 -253.54)" fill="none" stroke="#5f6cbe" stroke-miterlimit="10" stroke-width="0.75"/>
              <path id="Path_4116" data-name="Path 4116" d="M237.984,256.119s.072,1.9-1.092,2.489c0,0-.471.418.745.339h2.354" transform="translate(-236.801 -253.625)" fill="none" stroke="#5f6cbe" stroke-miterlimit="10" stroke-width="0.75"/>
              <path id="Path_4117" data-name="Path 4117" d="M242.1,256.119s-.07,1.9,1.093,2.489c0,0,.471.418-.745.339h-2.356" transform="translate(-236.905 -253.625)" fill="none" stroke="#5f6cbe" stroke-miterlimit="10" stroke-width="0.75"/>
              <path id="Path_4118" data-name="Path 4118" d="M241.151,259.036v.009a1.089,1.089,0,0,1-1.091,1.088h-.008a1.087,1.087,0,0,1-1.09-1.085v-.012" transform="translate(-236.87 -253.719)" fill="none" stroke="#5f6cbe" stroke-miterlimit="10" stroke-width="0.75"/>
            </g>
          </g>
        </g>
      </g>
    </g>
  </g>
</svg>
