<svg xmlns="http://www.w3.org/2000/svg" width="66" height="66" viewBox="0 0 66 66">
  <g id="Group_5307" data-name="Group 5307" transform="translate(-20724 -3933.967)">
    <rect id="Rectangle_2391" data-name="Rectangle 2391" width="66" height="66" rx="10" transform="translate(20724 3933.967)" fill="#4c53a1"/>
    <g id="oneauth-1" transform="translate(20732.23 3942.224)">
      <path id="Path_2999" data-name="Path 2999" d="M216.348,246.662a12.469,12.469,0,0,0-5.523-10.493,1.765,1.765,0,0,1-.924-1.836,1.573,1.573,0,0,1,1.856-1.212,1.539,1.539,0,0,1,.622.285,15.6,15.6,0,1,1-17.126.074,1.579,1.579,0,0,1,2.158.119,1.537,1.537,0,0,1,.165,1.965,2.923,2.923,0,0,1-.658.6,12.188,12.188,0,0,0-5.322,8.281,12.459,12.459,0,1,0,24.569,4.159c.11-.661.128-1.34.183-1.937h0Z" transform="translate(-179.177 -221.877)" fill="#fff"/>
      <path id="Path_3000" data-name="Path 3000" d="M383.1,28.315c-.945,0-1.779.009-2.614,0a1.543,1.543,0,0,1-1.687-1.377.8.8,0,0,1-.009-.147,1.566,1.566,0,0,1,1.55-1.579h.055c.651-.037,1.311-.009,1.963-.018a.561.561,0,0,0,.55-.661,5.166,5.166,0,0,0-2.366-3.415l-.11-.055a2.767,2.767,0,0,0-3.155.918,7.207,7.207,0,0,0-1.55,5.132,20.233,20.233,0,0,0,.4,2.46A1.556,1.556,0,0,1,375,31.463a1.471,1.471,0,0,1-1.779-1.019,11,11,0,0,1,1.128-9.612,6.6,6.6,0,0,1,3.036-2.6.708.708,0,0,0,.513-.753q-.014-5.37,0-10.741c0-.5-.193-.679-.669-.633-.5.064-.99.1-1.486.119a1.427,1.427,0,0,1-1.467-1.285,1.449,1.449,0,0,1,1.165-1.689,15.406,15.406,0,0,1,1.944-.239c.394-.028.5-.22.5-.578a6.453,6.453,0,0,1,.092-1.184A1.43,1.43,0,0,1,379.482,0a1.532,1.532,0,0,1,1.486,1.368,6.22,6.22,0,0,1,.018.716q0,7.574-.009,15.157a.973.973,0,0,0,.66,1.074,7.68,7.68,0,0,1,4.164,5.169,11.389,11.389,0,0,1-.064,6.821,1.554,1.554,0,0,1-1.522,1.212,1.488,1.488,0,0,1-1.385-1.028.735.735,0,0,1-.027-.138,4.48,4.48,0,0,1,.092-1.212c.064-.257.128-.487.2-.826Z" transform="translate(-354.637 0)" fill="#f6cc1b"/>
      <path id="Path_3001" data-name="Path 3001" d="M210.885,875.714a23.777,23.777,0,0,1-12.864-4.581,1.656,1.656,0,0,1-.786-1.79,1.342,1.342,0,0,1,1.271-1.157,2.267,2.267,0,0,1,1.307.377,21.7,21.7,0,0,0,24.347.5c.146-.1.293-.2.448-.294a1.529,1.529,0,0,1,2.158.285l.082.11a1.516,1.516,0,0,1-.53,2.212,40.509,40.509,0,0,1-4.1,2.276c-3.182,1.451-6.4,2.066-11.337,2.066h0Z" transform="translate(-187.668 -826.33)" fill="#fff"/>
      <path id="Path_3002" data-name="Path 3002" d="M0,82.654a24.36,24.36,0,0,1,5.4-14.6,23.759,23.759,0,0,1,6.869-5.921,1.548,1.548,0,0,1,2.164.386,1.636,1.636,0,0,1,.266.67,1.7,1.7,0,0,1-.926,1.717,36.513,36.513,0,0,0-3.925,2.984A20.769,20.769,0,0,0,3.459,79.927C3.266,81.139,3.2,82.369,3.1,83.6a1.575,1.575,0,0,1-1.568,1.542A1.547,1.547,0,0,1,.02,83.563v-.009c-.027-.3-.018-.606-.018-.9H0Z" transform="translate(0 -58.865)" fill="#fff"/>
      <path id="Path_3003" data-name="Path 3003" d="M713.228,65.606a1.629,1.629,0,0,1-1.293,1.689,1.578,1.578,0,0,1-1.752-1.028c-.33-.826-.587-1.689-.954-2.5a21.393,21.393,0,0,0-9.584-10.346c-.917-.5-1.3-1.12-1.155-1.882a1.562,1.562,0,0,1,1.816-1.258,1.344,1.344,0,0,1,.5.184,24.1,24.1,0,0,1,6.722,5.077,24.78,24.78,0,0,1,5.539,9.428c.074.257.128.5.165.633Z" transform="translate(-664.805 -47.83)" fill="#fff"/>
      <path id="Path_3004" data-name="Path 3004" d="M855.246,466.178a24.368,24.368,0,0,1-5.567,15.185,1.6,1.6,0,1,1-2.448-1.974,20.223,20.223,0,0,0,4.383-9.079,51.447,51.447,0,0,0,.56-5.435,1.61,1.61,0,0,1,1.385-1.533,1.567,1.567,0,0,1,1.66,1.166.459.459,0,0,1,.018.11,14.753,14.753,0,0,1,.009,1.561h0Z" transform="translate(-805.879 -441.015)" fill="#fff"/>
      <path id="Path_3005" data-name="Path 3005" d="M23.9,614.744A1.835,1.835,0,0,1,22.7,616.3a1.569,1.569,0,0,1-1.779-.615,24.208,24.208,0,0,1-4.044-7.372,13.061,13.061,0,0,1-.477-1.653,1.513,1.513,0,0,1,1.091-1.836c.028-.009.046-.009.073-.018a1.543,1.543,0,0,1,1.825,1.056c.312.854.559,1.735.9,2.58a21.221,21.221,0,0,0,2.88,5.031c.009.009.018.028.028.037a8.5,8.5,0,0,1,.7,1.23h0Z" transform="translate(-15.568 -575.621)" fill="#fff"/>
    </g>
  </g>
</svg>
