<svg xmlns="http://www.w3.org/2000/svg" width="60" height="60" viewBox="0 0 60 60">
  <g id="Group_5345" data-name="Group 5345" transform="translate(-18296.82 -3818.758)">
    <ellipse id="Ellipse_419" data-name="Ellipse 419" cx="26.811" cy="27.686" rx="26.811" ry="27.686" transform="translate(18296.82 3823.387)" fill="#e6e5f5"/>
    <g id="Path_3042" data-name="Path 3042" transform="translate(18304.82 3818.758)" fill="none">
      <path d="M26,0C40.359,0,52,11.874,52,26.521a26.86,26.86,0,0,1-5.937,16.87A25.666,25.666,0,0,1,26,53.042c-14.359,0-26-11.874-26-26.521S11.64,0,26,0Z" stroke="none"/>
      <path d="M 25.99977874755859 1.000003814697266 C 22.62686920166016 1.000003814697266 19.35519790649414 1.673683166503906 16.27563858032227 3.002334594726562 C 13.29930877685547 4.286453247070312 10.62575912475586 6.125312805175781 8.329250335693359 8.467853546142578 C 6.031387329101562 10.81176376342773 4.227237701416016 13.54135131835938 2.966930389404297 16.58079147338867 C 1.661769866943359 19.7283821105957 1 23.07271385192871 1 26.52089309692383 C 1 29.96907234191895 1.661769866943359 33.31340026855469 2.966930389404297 36.46099090576172 C 4.227237701416016 39.50043487548828 6.031387329101562 42.23002243041992 8.329250335693359 44.57393264770508 C 10.62575912475586 46.91647338867188 13.29930877685547 48.75533294677734 16.27563858032227 50.03945159912109 C 19.35519790649414 51.36810302734375 22.62686920166016 52.04178237915039 25.99977874755859 52.04178237915039 C 29.81761932373047 52.04178237915039 33.48403930664062 51.18893432617188 36.897216796875 49.50692367553711 C 40.13900756835938 47.90938186645508 43.03791809082031 45.57883453369141 45.28068923950195 42.76708221435547 C 49.02200698852539 38.07843399047852 50.99955749511719 32.4605827331543 50.99955749511719 26.52089309692383 C 50.99955749511719 23.07271385192871 50.33778762817383 19.7283821105957 49.03262710571289 16.58079147338867 C 47.77231979370117 13.54135131835938 45.96817016601562 10.81176376342773 43.67031097412109 8.467853546142578 C 41.37379837036133 6.125312805175781 38.70024871826172 4.286453247070312 35.72391891479492 3.002334594726562 C 32.64435958862305 1.673683166503906 29.37268829345703 1.000003814697266 25.99977874755859 1.000003814697266 M 25.99977874755859 3.814697265625e-06 C 40.35905838012695 3.814697265625e-06 51.99955749511719 11.87381362915039 51.99955749511719 26.52089309692383 C 51.99955749511719 32.86308288574219 49.81708908081055 38.6853141784668 46.06233978271484 43.39080429077148 C 41.40914916992188 49.22448348999023 34.14149856567383 53.04178237915039 25.99977874755859 53.04178237915039 C 11.64049911499023 53.04178237915039 0 41.16797256469727 0 26.52089309692383 C 0 11.87381362915039 11.64049911499023 3.814697265625e-06 25.99977874755859 3.814697265625e-06 Z" stroke="none" fill="#c9c7e6"/>
    </g>
  </g>
</svg>
