<svg xmlns="http://www.w3.org/2000/svg" width="566.397" height="167.821" viewBox="0 0 566.397 167.821">
  <g id="Playstore" transform="translate(-15012 -5886)">
    <path id="Path_3798" data-name="Path 3798" d="M545.42,167.821H20.978A20.774,20.774,0,0,1,0,146.844V20.978A20.774,20.774,0,0,1,20.978,0H545.42A20.774,20.774,0,0,1,566.4,20.978V146.844A20.774,20.774,0,0,1,545.42,167.821Z" transform="translate(15012 5886)"/>
    <path id="Path_3799" data-name="Path 3799" d="M545.42,3.356a17.728,17.728,0,0,1,17.621,17.621V146.844a17.728,17.728,0,0,1-17.621,17.621H20.978A17.728,17.728,0,0,1,3.356,146.844V20.978A17.728,17.728,0,0,1,20.978,3.356H545.42m0-3.356H20.978A21.039,21.039,0,0,0,0,20.978V146.844a20.774,20.774,0,0,0,20.978,20.978H545.42A20.774,20.774,0,0,0,566.4,146.844V20.978A21.039,21.039,0,0,0,545.42,0Z" transform="translate(15012 5886)" fill="#a6a6a6"/>
    <path id="Union_254" data-name="Union 254" d="M136.355,103.21l6.713-2.937a9.32,9.32,0,0,0,8.81,6.293c5.874,0,9.65-3.775,9.65-10.489V93.56h-.419a12.047,12.047,0,0,1-9.23,4.2,17.372,17.372,0,0,1-17.2-17.622c0-10.069,8.392-18.041,17.2-18.041a13.814,13.814,0,0,1,9.65,4.2V63.353h7.552V95.239c0,13.006-7.552,18.46-16.782,18.46A17.308,17.308,0,0,1,136.355,103.21Zm5.873-23.076c0,6.294,4.615,10.909,10.069,10.909s9.65-4.615,9.65-10.909-4.195-10.908-9.65-10.908S142.229,73.841,142.229,80.134ZM325.574,112.86l7.971-17.621L319.7,63.353h8.391l9.23,22.656h.419l8.81-22.656h8.392l-21.4,49.507ZM186.282,80.555c0-10.909,7.552-18.041,16.782-18.041s13.426,7.132,15.1,11.328l.84,2.1L195.093,86.008c2.1,3.776,4.615,5.454,8.81,5.454s6.713-2.1,8.811-5.035l5.873,4.2A17.209,17.209,0,0,1,203.9,98.6C193.834,98.6,186.282,90.624,186.282,80.555Zm7.552-.84L209.777,73c-.84-2.1-3.776-3.776-6.713-3.776C199.289,69.226,193.834,73,193.834,79.715Zm-98.6.84A17.651,17.651,0,0,1,113.28,62.513c10.069,0,18.04,7.132,18.04,18.041A17.651,17.651,0,0,1,113.28,98.6,17.907,17.907,0,0,1,95.239,80.555Zm7.971-.42c0,6.294,4.615,10.909,10.07,10.909s10.069-4.615,10.069-10.909c0-6.712-4.615-10.908-10.069-10.908S103.21,73.841,103.21,80.134Zm-46.99.42A17.652,17.652,0,0,1,74.262,62.513c10.069,0,18.04,7.132,18.04,18.041A17.651,17.651,0,0,1,74.262,98.6,17.908,17.908,0,0,1,56.22,80.555Zm7.972-.42c0,6.294,4.614,10.909,10.069,10.909s10.069-4.615,10.069-10.909c0-6.712-4.615-10.908-10.069-10.908S64.193,73.841,64.193,80.134ZM0,70.485c0-15.1,13.007-27.691,28.111-27.691a26.889,26.889,0,0,1,18.88,7.552L41.536,55.8a20.8,20.8,0,0,0-13.845-5.455A19.791,19.791,0,0,0,7.972,70.485c0,11.327,8.391,20.138,19.719,20.138,7.132,0,11.327-2.937,13.845-5.455a15.86,15.86,0,0,0,4.2-9.649H27.691V67.968H53.7a15.732,15.732,0,0,1,.419,4.614c0,5.455-1.678,12.587-6.712,17.622-5.035,5.454-10.909,7.971-19.3,7.971C13.007,98.176,0,85.589,0,70.485ZM289.073,86.008c0-7.552,7.552-11.748,15.1-11.748a16.641,16.641,0,0,1,7.971,2.1v-.419c-.419-4.2-4.195-6.713-8.391-6.713-2.937,0-5.454.839-7.133,3.776l-7.132-2.938c2.1-5.454,7.971-7.971,13.846-7.971,8.81,0,15.943,5.454,16.782,14.684V96.917h-7.552V92.722h-.42c-2.1,2.517-4.614,5.035-10.069,5.035C295.367,97.756,289.073,93.141,289.073,86.008Zm7.133.419c0,3.356,3.776,4.615,6.294,4.615a9.771,9.771,0,0,0,9.23-8.392,16.229,16.229,0,0,0-7.133-1.678C300.82,80.974,296.205,82.232,296.205,86.428ZM276.067,96.917V44.473h7.971V96.917Zm-40.278,0V44.473h18.88c8.811,0,17.2,6.294,17.2,16.363S263.48,77.2,254.669,77.2H243.761V96.917Zm7.972-27.271h11.327c5.454,0,8.811-4.615,9.23-9.23a9.215,9.215,0,0,0-9.23-8.81H243.761ZM174.115,96.917V44.473h7.972V96.917Zm-56.22-74.68a12.336,12.336,0,0,1-3.776-9.23,12.336,12.336,0,0,1,3.776-9.23,13.168,13.168,0,0,1,18.46,0,12.336,12.336,0,0,1,3.776,9.23,12.336,12.336,0,0,1-3.776,9.23,13.168,13.168,0,0,1-18.46,0Zm2.517-16.363a10.122,10.122,0,0,0-2.938,7.133c0,2.938.84,5.455,2.938,7.133a9.9,9.9,0,0,0,6.712,2.937,8.348,8.348,0,0,0,6.713-2.937,10.118,10.118,0,0,0,2.937-7.133c0-2.937-.839-5.454-2.937-7.133a9.9,9.9,0,0,0-6.713-2.937A8.348,8.348,0,0,0,120.412,5.873ZM5.035,22.236a12.336,12.336,0,0,1-3.776-9.23,12.336,12.336,0,0,1,3.776-9.23A12.336,12.336,0,0,1,14.265,0,11.167,11.167,0,0,1,19.3,1.259,9.13,9.13,0,0,1,23.075,4.2l-2.1,2.1C19.3,4.2,17.2,3.356,14.265,3.356A8.348,8.348,0,0,0,7.552,6.294c-2.1,1.678-2.937,4.195-2.937,7.132s.839,5.454,2.937,7.132,4.2,2.938,6.713,2.938A9.2,9.2,0,0,0,21.4,20.558a6.945,6.945,0,0,0,2.1-5.035h-9.23V12.167H26.431v1.679c0,3.356-.839,6.293-2.937,8.391a12.336,12.336,0,0,1-9.23,3.776A12.336,12.336,0,0,1,5.035,22.236Zm155.654,3.357L147.683,5.035V25.593h-2.937V.419h3.775l12.167,19.719V.419h3.356V25.593Zm-64.611,0h0Zm-2.937,0V3.356H86.008V.419h17.2V3.356H96.078V25.593Zm-14.265,0V.419h3.356V25.593Zm-22.656,0V3.356H49.088V.419H66.709V3.356H59.576V25.593Zm-25.174,0V.419H45.731V3.356H34.4v7.972H44.892v2.937H34.4v7.971H45.731v3.357Z" transform="translate(15184.437 5914.949)" fill="#fff" stroke="#fff" stroke-miterlimit="10" stroke-width="0.2"/>
    <path id="Path_3806" data-name="Path 3806" d="M80.046,24.1,19.211,58.5c-3.356,2.1-6.293,1.678-8.391,0l-.42.42.42.42c2.1,1.678,5.035,2.1,8.391,0Z" transform="translate(15045.233 5963.012)" opacity="0.2"/>
    <path id="Path_3807" data-name="Path 3807" d="M11.678,71.605C10.42,70.346,10,68.249,10,65.731v.42a8.3,8.3,0,0,0,2.1,5.874v-.42h-.42ZM102.3,25.454,81.324,37.2l.42.42L102.3,25.874c2.937-1.678,4.2-3.776,4.2-5.874C106.5,22.1,104.819,23.776,102.3,25.454Z" transform="translate(15043.955 5949.911)" opacity="0.12"/>
    <path id="Path_3824" data-name="Path 3824" d="M43.612,6.506A13.149,13.149,0,0,1,56.276.043,12.843,12.843,0,0,1,66.311,6.506l7.774,13.361,34.038,58.5A13.13,13.13,0,0,1,96.773,98.1H13.15A13.13,13.13,0,0,1,1.8,78.369Z" transform="translate(15152.059 5914.949) rotate(90)" fill="#4285f4"/>
    <path id="Intersection_12" data-name="Intersection 12" d="M5.857,52.4A12.74,12.74,0,0,1,0,44.722L45.689,0h0l23.5,23.5L19.3,52.528a12.882,12.882,0,0,1-6.522,1.787A13.868,13.868,0,0,1,5.857,52.4Z" transform="translate(15054.426 5970.539)" fill="#ea4335"/>
    <path id="Intersection_10" data-name="Intersection 10" d="M0,24.433H0L24.434,0,45.616,12.324A13.143,13.143,0,0,1,52.087,22.34a12.968,12.968,0,0,1-6.471,12.727L23.5,47.934Z" transform="translate(15099.92 5946.217)" fill="#fbbc08"/>
    <path id="Intersection_11" data-name="Intersection 11" d="M0,10.218A13.167,13.167,0,0,1,19.447,1.8l50.882,29.6L45.845,55.822Z" transform="translate(15054.281 5914.949)" fill="#34a853"/>
  </g>
</svg>
