<?xml version="1.0" encoding="UTF-8"?>
<svg width="320px" height="240px" viewBox="0 0 320 240" version="1.1" xmlns="http://www.w3.org/2000/svg" xmlns:xlink="http://www.w3.org/1999/xlink">
    <title>Prompt</title>
    <defs>
        <path d="M4.15418241,0 L104.154182,0 C112.990738,0 121.100104,7.163444 122.266958,16 L133.887224,104 C135.054078,112.836556 128.836556,120 120,120 L32,120 C23.163444,120 15.0540781,112.836556 13.8872243,104 L0.682376331,4 C0.390662884,1.790861 1.94504341,0 4.15418241,0 Z" id="path-1"></path>
    </defs>
    <g id="Prompt" stroke="none" stroke-width="1" fill="none" fill-rule="evenodd">
        <g transform="translate(41.000000, 0.000000)">
            <g id="PushIllustration">
                <path d="M70.3142526,195.886859 C56.9921318,134.635648 43.670011,104.010042 7.70028474,62.732052 C-28.2694415,21.4540619 68.9820405,-1.18225528 150.246978,22.7856099 C231.511915,46.7534752 259.488368,104.010042 220.854218,161.266609 C182.220068,218.523176 83.6363734,257.13807 70.3142526,195.886859 Z" id="Path-5" fill="#F3FAFF" transform="translate(119.000000, 120.000000) rotate(-180.000000) translate(-119.000000, -120.000000) "></path>
                <g id="Group-2" transform="translate(41.000000, 0.000000)">
                    <path d="M19.2708076,4.45830736e-14 L105.545317,4.45830736e-14 C117.673924,4.45830736e-14 128.795789,9.83217804 130.386698,21.9607843 L156.106306,218.039216 C157.697216,230.167822 149.154724,240 137.026118,240 L50.7516083,240 C38.623002,240 27.5011371,230.167822 25.9102278,218.039216 L0.190619421,21.9607843 C-1.4002899,9.83217804 7.14220133,4.45830736e-14 19.2708076,4.45830736e-14 Z" id="Rectangle" fill="#29A3FF"></path>
                    <path d="M20.839435,-2.22915368e-14 L108.682572,-2.22915368e-14 C119.078521,-2.22915368e-14 128.611548,8.42758118 129.975184,18.8235294 L155.900549,216.470588 C157.264186,226.866536 149.942051,235.294118 139.546102,235.294118 L51.7029651,235.294118 C41.3070169,235.294118 31.7739898,226.866536 30.4103533,216.470588 L4.48498804,18.8235294 C3.12135148,8.42758118 10.4434868,-2.22915368e-14 20.839435,-2.22915368e-14 Z" id="Rectangle" fill="#0270C2"></path>
                    <path d="M20.7648626,3 L108.608,3 C117.27129,3 125.215479,10.0229843 126.351843,18.6862745 L152.277208,216.333333 C153.413572,224.996624 147.311793,232.019608 138.648502,232.019608 L50.8053652,232.019608 C42.142075,232.019608 34.1978858,224.996624 33.061522,216.333333 L7.13615673,18.6862745 C5.99979293,10.0229843 12.1015724,3 20.7648626,3 Z" id="Rectangle" fill="#FFFFFF"></path>
                </g>
            </g>
            <g id="Group-9" transform="translate(63.000000, 26.000000)">
                <g id="Rectangle-+-Rectangle-+-Oval-+-Rectangle-+-Rectangle-Copy-2-Mask">
                    <mask id="mask-2" fill="white">
                        <use xlink:href="#path-1"></use>
                    </mask>
                    <use id="Rectangle" fill="#29A3FF" xlink:href="#path-1"></use>
                    <polygon id="Rectangle" fill-opacity="0.2" fill="#FFFFFF" mask="url(#mask-2)" points="12.6686839 94 72.5972823 94 75.6686839 120 15.7400855 120"></polygon>
                    <polygon id="Rectangle" fill-opacity="0.2" fill="#000000" mask="url(#mask-2)" points="72.6686839 94 132.597282 94 135.668684 120 75.7400855 120"></polygon>
                    <path d="M66.5021222,46 C75.2672327,46 81.4622845,38.836556 80.3393594,30 C79.2160308,21.163444 71.2000305,14 62.43492,14 C53.6698095,14 47.4747577,21.163444 48.5976829,30 C49.7210115,38.836556 57.7370117,46 66.5021222,46 Z" id="Oval" fill-opacity="0.15" fill="#FFFFFF" mask="url(#mask-2)"></path>
                    <path d="M36.4154546,53 L97.4154546,53 C100.176878,53 102.701809,54.790861 103.055045,57 C103.408282,59.209139 101.45606,61 98.694636,61 L37.694636,61 C34.9332123,61 32.4082815,59.209139 32.0550453,57 C31.7018091,54.790861 33.6540309,53 36.4154546,53 Z" id="Rectangle" fill-opacity="0.15" fill="#FFFFFF" mask="url(#mask-2)"></path>
                    <path d="M24.2638174,70 L116.718567,70 C118.720973,70 120.552404,71.790861 120.809747,74 C121.065964,76.209139 119.650854,78 117.648449,78 L25.1936992,78 C23.1912934,78 21.3598617,76.209139 21.1025188,74 C20.8463021,71.790861 22.2614116,70 24.2638174,70 Z" id="Rectangle-Copy-2" fill-opacity="0.15" fill="#FFFFFF" mask="url(#mask-2)"></path>
                </g>
            </g>
        </g>
    </g>
</svg>