<?xml version="1.0" encoding="UTF-8"?>
<svg width="320px" height="240px" viewBox="0 0 320 240" version="1.1" xmlns="http://www.w3.org/2000/svg" xmlns:xlink="http://www.w3.org/1999/xlink">
    <title>Push</title>
    <g id="Push" stroke="none" stroke-width="1" fill="none" fill-rule="evenodd">
        <g id="PushCame" transform="translate(41.000000, 0.000000)">
            <g id="PushIllustration">
                <path d="M70.3142526,195.886859 C56.9921318,134.635648 43.670011,104.010042 7.70028474,62.732052 C-28.2694415,21.4540619 68.9820405,-1.18225528 150.246978,22.7856099 C231.511915,46.7534752 259.488368,104.010042 220.854218,161.266609 C182.220068,218.523176 83.6363734,257.13807 70.3142526,195.886859 Z" id="Path-5" fill="#F3FAFF" transform="translate(119.000000, 120.000000) rotate(-180.000000) translate(-119.000000, -120.000000) "></path>
                <g id="Group-2" transform="translate(41.000000, 0.000000)">
                    <path d="M19.2708076,4.45830736e-14 L105.545317,4.45830736e-14 C117.673924,4.45830736e-14 128.795789,9.83217804 130.386698,21.9607843 L156.106306,218.039216 C157.697216,230.167822 149.154724,240 137.026118,240 L50.7516083,240 C38.623002,240 27.5011371,230.167822 25.9102278,218.039216 L0.190619421,21.9607843 C-1.4002899,9.83217804 7.14220133,4.45830736e-14 19.2708076,4.45830736e-14 Z" id="Rectangle" fill="#29A3FF"></path>
                    <path d="M20.839435,-2.22915368e-14 L108.682572,-2.22915368e-14 C119.078521,-2.22915368e-14 128.611548,8.42758118 129.975184,18.8235294 L155.900549,216.470588 C157.264186,226.866536 149.942051,235.294118 139.546102,235.294118 L51.7029651,235.294118 C41.3070169,235.294118 31.7739898,226.866536 30.4103533,216.470588 L4.48498804,18.8235294 C3.12135148,8.42758118 10.4434868,-2.22915368e-14 20.839435,-2.22915368e-14 Z" id="Rectangle" fill="#0270C2"></path>
                    <path d="M21.2509488,3.1372549 L109.094086,3.1372549 C117.757376,3.1372549 125.701565,10.1602392 126.837929,18.8235294 L152.763294,216.470588 C153.899658,225.133878 147.797879,232.156863 139.134589,232.156863 L51.2914514,232.156863 C42.6281612,232.156863 34.683972,225.133878 33.5476082,216.470588 L7.62224294,18.8235294 C6.48587914,10.1602392 12.5876586,3.1372549 21.2509488,3.1372549 Z" id="Rectangle" fill="#FFFFFF"></path>
                </g>
            </g>
            <g id="Group-9" transform="translate(60.000000, 19.000000)">
                <path d="M6.87342828,0 L114.762439,0 C117.762956,3.8897061e-15 120.302164,2.21654316 120.707453,5.18956219 L126.296666,46.1895622 C126.744259,49.4729027 124.44543,52.4974215 121.16209,52.9450139 C120.893496,52.9816292 120.62273,53 120.351652,53 L12.4626414,53 C9.46212463,53 6.92291622,50.7834568 6.51762751,47.8104378 L0.928414356,6.81043781 C0.480821915,3.52709728 2.77964995,0.502578516 6.06299047,0.0549860755 C6.33158411,0.0183707809 6.60235039,9.3797462e-16 6.87342828,0 Z" id="Rectangle" fill="#29A3FF"></path>
                <path d="M29.7080313,10 L74.0955659,10 C75.2654982,10 76.397842,10.4131865 77.2928332,11.1666667 L77.7776922,11.5748624 C78.3576093,12.0630862 78.7358677,12.7490227 78.8393057,13.5 C78.9411225,14.2392066 78.7091789,14.9854327 78.2062621,15.5366747 L77.9356103,15.8333333 C77.2575628,16.5765343 76.2979985,17 75.2919687,17 L30.9044341,17 C29.7345018,17 28.602158,16.5868135 27.7071668,15.8333333 L27.2223078,15.4251376 C26.6423907,14.9369138 26.2641323,14.2509773 26.1606943,13.5 C26.0588775,12.7607934 26.2908211,12.0145673 26.7937379,11.4633253 L27.0643897,11.1666667 C27.7424372,10.4234657 28.7020015,10 29.7080313,10 Z" id="Rectangle" fill-opacity="0.3" fill="#FFFFFF"></path>
                <path d="M15.6748223,27.0083385 L112.361012,27.3249948 C113.840185,27.3298392 115.109062,28.3809103 115.389138,29.8333333 C115.608216,30.9694376 114.86482,32.0680304 113.728716,32.2871089 C113.595744,32.3127503 113.460599,32.3254383 113.325178,32.3249948 L16.6389879,32.0083385 C15.1598154,32.0034941 13.8909375,30.9524231 13.6108622,29.5 C13.3917837,28.3638957 14.13518,27.265303 15.2712843,27.0462244 C15.4042563,27.020583 15.5394013,27.007895 15.6748223,27.0083385 Z" id="Rectangle" fill="#FFFFFF" opacity="0.148498"></path>
                <path d="M17.6747989,37.0137374 L74.3610355,37.3195959 C75.8409219,37.3275809 77.1089247,38.380196 77.3891378,39.8333333 C77.6077433,40.9669847 76.8659521,42.0632055 75.7323007,42.2818111 C75.5981614,42.3076775 75.4618096,42.320333 75.3252011,42.3195959 L18.6389645,42.0137374 C17.1590781,42.0057525 15.8910753,40.9531374 15.6108622,39.5 C15.3922567,38.3663486 16.1340479,37.2701278 17.2676993,37.0515223 C17.4018386,37.0256558 17.5381904,37.0130003 17.6747989,37.0137374 Z" id="Rectangle" fill="#FFFFFF" opacity="0.148498"></path>
                <path d="M18.2152269,19 C21.2266538,19 23.3476797,16.5375661 22.9526709,13.5 C22.557662,10.4624339 19.7962001,8 16.7847731,8 C13.7733462,8 11.6523203,10.4624339 12.0473291,13.5 C12.442338,16.5375661 15.2037999,19 18.2152269,19 Z" id="Oval" fill-opacity="0.3" fill="#FFFFFF"></path>
            </g>
        </g>
    </g>
</svg>