<svg xmlns="http://www.w3.org/2000/svg" xmlns:xlink="http://www.w3.org/1999/xlink" width="350" height="350" viewBox="0 0 350 350">
  <defs>
    <linearGradient id="linear-gradient" x1="0.5" x2="0.5" y2="1" gradientUnits="objectBoundingBox">
      <stop offset="0" stop-color="#f4fbff"/>
      <stop offset="1" stop-color="#d9ecf7"/>
    </linearGradient>
    <clipPath id="clip-IP_Restriction">
      <rect width="350" height="350"/>
    </clipPath>
  </defs>
  <g id="IP_Restriction" data-name="IP Restriction" clip-path="url(#clip-IP_Restriction)">
    <rect width="350" height="350" fill="#fff"/>
    <g id="Group_3158" data-name="Group 3158" transform="translate(-21.061 1.858)">
      <path id="Union_41" data-name="Union 41" d="M13.707,120.521l8.527-8.283H7.182l2.333-2.073,16.334-.656,27.57-25.858L39.759,49.963,74.967,44.4l32.912-16.753,3.313,1.555L78.936,45.619s-.034,16.364,0,16.78-4.791-.74-4.791-.74L73.573,46.9l-28.29,4.791L57.926,82.639l28.107-.931.531-15.092h4.352V81.708l27.259-.611L151.211,68.35,134.569,40.7l7.487,2.054L134.8,40.692,64.191,5.447,75.1,3.492l33.921,18.475L136.658,10.5,112.439,23.54l-2.368-1.012L137.49,36.607l5.2,1.411-1.756-.5,70.178-8.729h21.132V17.129h14.407l-.93-11.735,2.783-1.546,2.553,15.818H236.936v9.129l91.023-2.8-1.275-11.912H283.507V1.7L286.094,0l2.363,11.425,42.268-.716,2,15.282h8.047v2.8L217.7,32.256,194.875,52.313l-1.337-.337c3.659,1.021,7.048,1.975,9.986,2.812C215.7,58.254,262.046,70.55,299.39,80.414l-3.2-1.056L294.7,64.851l-29.291-7.06,29.291,4.58-1.028-9.017,7.712,1.815,1.883,18.775,26.863,6.962V84.14L303.27,77.347v4.092C329.283,88.308,350,93.753,350,93.753v5.233L214.583,63.322l-69.444-19.7,45.083,72.549H179.315L168.559,97.844l-45.808,1v10.59l-30.856.855,1.576-2.452,24.7-.825V96.126l48.32-1.295L152.986,71.519,119.847,84.467,57.926,86.178,43.3,98.848H74.967l-1.393,20.2h-4.8l.94-16.846H39.759L20.324,120.521ZM189.555,50.867l20.01-17.8-58.923,7.117C161.293,43.082,176.6,47.268,189.555,50.867Zm79.468,62.309c.663-.347,13.934-11.991,13.934-11.991l-17.23-4.055L247.4,110.672,207.1,96.6a30.681,30.681,0,0,1,4.724-.778s33.307,11.929,33.953,11.473,19.347-13.611,19.347-13.611l24.063,6.394L274.314,113.7S268.36,113.524,269.022,113.176ZM203.479,74.713l-11.4,5.992h-4.767L202.8,69.827l29.615,12.5,15.708-10.011,7.317,1.88L232.415,86.966ZM1.187,35.256,48.621,17.9l15.418,3.144L82.249,14.5l3.013,1.685L64.039,23.11,48.621,20.253,0,38.312Z" transform="translate(21.061 162.042)" fill="url(#linear-gradient)"/>
      <path id="Path_1635" data-name="Path 1635" d="M3801.44,12141.8s46.421-1.219,87.889,2.108" transform="translate(-3622.759 -11981.311)" fill="none" stroke="#93c0e5" stroke-width="1" stroke-dasharray="7"/>
      <path id="Subtraction_14" data-name="Subtraction 14" d="M44.823,151.885h0c-8.742-9.244-18.982-24.318-27.392-40.324C8.049,93.7,2.02,76.849.455,64.1a60,60,0,0,1,1.43-22.312,58.1,58.1,0,0,1,9.105-19.57A53.692,53.692,0,0,1,26.552,7.671a51.519,51.519,0,0,1,20.8-7.24A57.476,57.476,0,0,1,54.329,0,53.193,53.193,0,0,1,73.914,3.674,52.067,52.067,0,0,1,90.33,14.037a55.262,55.262,0,0,1,11.9,16.062,63.036,63.036,0,0,1,6.028,20.764,67.316,67.316,0,0,1,.3,12.168,70.183,70.183,0,0,1-1.84,11.884,91.2,91.2,0,0,1-9.453,23.258,166.494,166.494,0,0,1-16.053,23.157c-5.793,7.147-12.772,14.915-21.336,23.745-1.02.455-2.208,1-3.585,1.637l-.12.056c-2.654,1.221-6.289,2.894-11.35,5.118h0Zm9.059-125.5a21.529,21.529,0,1,0,8.408,1.7A21.44,21.44,0,0,0,53.882,26.385Z" transform="translate(150.444 110.487)" fill="#c13f39"/>
      <path id="Subtraction_13" data-name="Subtraction 13" d="M57.071,154.524h0c-10.6-10.844-24.252-25.372-35.779-41.594A149.662,149.662,0,0,1,6.2,87.113C2.086,77.767,0,69.135,0,61.459A65.124,65.124,0,0,1,4.349,37.968,63.882,63.882,0,0,1,9.492,27.544a61.674,61.674,0,0,1,6.861-9.161A56.468,56.468,0,0,1,34.448,4.974,53.334,53.334,0,0,1,57.07,0,55.889,55.889,0,0,1,79.69,4.664a54.569,54.569,0,0,1,18.094,12.9,59.359,59.359,0,0,1,12,19.481,68.536,68.536,0,0,1,4.349,24.418,56.807,56.807,0,0,1-1.622,13.114,80.8,80.8,0,0,1-4.443,13.152,138.8,138.8,0,0,1-14.808,25.447A262.33,262.33,0,0,1,74.8,135.853c-6.2,6.886-12.211,13.029-17.039,17.966l-.689.705Zm1.136-125.5a21.535,21.535,0,1,0,8.407,1.7A21.44,21.44,0,0,0,58.206,29.024Z" transform="translate(138.165 107.848)" fill="#f5716b"/>
      <path id="Subtraction_18" data-name="Subtraction 18" d="M35.6,127.173h0C25.068,116.4,11.5,101.972,0,85.827c3.974.249,7.882.377,11.616.377C40.946,86.2,62,78.439,74.2,63.131c7.179-9.01,11.233-20.549,12.049-34.3A104.568,104.568,0,0,0,83.647,0a61.505,61.505,0,0,1,4.67,9.689,68.486,68.486,0,0,1,4.348,24.418,56.907,56.907,0,0,1-1.62,13.115A80.818,80.818,0,0,1,86.6,60.372a138.653,138.653,0,0,1-14.806,25.45A262.557,262.557,0,0,1,53.329,108.5C47.164,115.343,41.2,121.447,36.4,126.353l-.112.114-.689.706Z" transform="translate(159.636 135.2)" fill="#ef5e57"/>
      <path id="Subtraction_15" data-name="Subtraction 15" d="M9.481,25.671h0a59.734,59.734,0,0,1-5.943-6.91C1.19,15.457,0,12.58,0,10.211A10.611,10.611,0,0,1,2.717,3.054,9.062,9.062,0,0,1,9.481,0c5.4,0,9.477,4.39,9.477,10.211,0,5.762-6.088,11.991-9.359,15.339l-.118.121Zm0-20.149a3.41,3.41,0,1,0,3.408,3.412A3.416,3.416,0,0,0,9.481,5.521Z" transform="translate(277.835 231.392)" fill="#a1c7e9"/>
      <path id="Subtraction_16" data-name="Subtraction 16" d="M7.207,18.85h0a44.184,44.184,0,0,1-4.517-5.073C.9,11.351,0,9.237,0,7.5A7.643,7.643,0,0,1,2.065,2.242,7,7,0,0,1,7.207,0a7.194,7.194,0,0,1,7.2,7.5c0,4.23-4.628,8.8-7.114,11.263l-.09.089Zm0-14.794a2.553,2.553,0,0,0-2.594,2.5,2.553,2.553,0,0,0,2.594,2.5A2.551,2.551,0,0,0,9.8,6.56,2.551,2.551,0,0,0,7.207,4.056Z" transform="translate(130.96 227.651)" fill="#a1c7e9"/>
      <path id="Path_1610" data-name="Path 1610" d="M4307,10961.872s61.311,10.721,23.922,24.126-172.744,20.433-239.459,5.786-12.485-27.8,0-29.912,48.821-5.139,48.821-5.139" transform="translate(-4005.794 -10794.688)" fill="none" stroke="#93c0e5" stroke-width="1" stroke-dasharray="7"/>
      <g id="Group_3123" data-name="Group 3123" transform="translate(283.596 181.677)">
        <circle id="Ellipse_252" data-name="Ellipse 252" cx="11.019" cy="11.019" r="11.019" transform="translate(4.048 4.048)" fill="#fff"/>
        <g id="Group_3122" data-name="Group 3122" transform="translate(0 11.105) rotate(-30)">
          <g id="Ellipse_242" data-name="Ellipse 242" transform="translate(0 0)" fill="none" stroke="#f4827d" stroke-width="3">
            <circle cx="11.105" cy="11.105" r="11.105" stroke="none"/>
            <circle cx="11.105" cy="11.105" r="9.605" fill="none"/>
          </g>
          <rect id="Rectangle_1088" data-name="Rectangle 1088" width="19.743" height="3.702" transform="translate(1.234 9.871)" fill="#f4827d"/>
        </g>
      </g>
      <g id="Group_3124" data-name="Group 3124" transform="translate(98.316 186.331)">
        <path id="Path_1574" data-name="Path 1574" d="M18.408,2S6,5.516,6,6.136V18.682c0,6.342,9.168,11.925,11.719,13.442a1.241,1.241,0,0,0,1.379,0c2.619-1.448,11.719-7.1,11.719-13.442V6.136C30.816,5.516,18.408,2,18.408,2Z" transform="translate(-6 -2)" fill="#94cfa0"/>
        <path id="Path_1575" data-name="Path 1575" d="M24.967,27.059,22.83,20.648h2.757a.689.689,0,0,0,.483-1.172l-6.135-8.341c-.276-.345-.827,0-.62.345l2.137,6.411H18.694a.689.689,0,0,0-.483,1.172L24.346,27.4C24.622,27.748,25.173,27.4,24.967,27.059Z" transform="translate(-9.732 -4.794)" fill="#fff"/>
      </g>
      <g id="Group_3125" data-name="Group 3125" transform="translate(271.39 151.708)">
        <path id="Path_1581" data-name="Path 1581" d="M19.023,25a9.165,9.165,0,0,0-6.592,2.955c.259.314,1.231,1.478,1.483,1.792a6.9,6.9,0,0,1,5.11-2.39,6.386,6.386,0,0,1,4.852,2.12c.382-.44,1.194-1.43,1.533-1.768A8.972,8.972,0,0,0,19.023,25Z" transform="translate(-6.413 -15.566)" fill="#7293c4"/>
        <path id="Path_1582" data-name="Path 1582" d="M16.949,17a13.1,13.1,0,0,0-9.6,3.945c.3.352,1.016,1.282,1.455,1.768a11.536,11.536,0,0,1,8.144-3.36A10.971,10.971,0,0,1,24.894,22.6c.441-.44,1.045-1.263,1.534-1.8A13.141,13.141,0,0,0,16.949,17Z" transform="translate(-4.339 -12.279)" fill="#7293c4"/>
        <path id="Path_1583" data-name="Path 1583" d="M27.492,13.928a18.488,18.488,0,0,0-25.162.029c.361.457,1.109,1.348,1.47,1.786a16.42,16.42,0,0,1,22.181-.037c.494-.584,1.1-1.325,1.511-1.779Z" transform="translate(-2.329 -9.001)" fill="#7293c4"/>
        <circle id="Ellipse_243" data-name="Ellipse 243" cx="3.226" cy="3.226" r="3.226" transform="translate(9.385 14.221)" fill="#7293c4"/>
      </g>
      <path id="Union_42" data-name="Union 42" d="M53.3,31.553H5a5,5,0,0,1-5-5V5A5,5,0,0,1,5,0H115a5,5,0,0,1,5,5V26.553a5,5,0,0,1-5,5H65.391c-1.9,1.86-4.587,5.313-4.022,9.608A13.126,13.126,0,0,1,53.3,31.553Z" transform="translate(134.982 63.141)" fill="#d9ecf7"/>
      <g id="Group_3134" data-name="Group 3134" transform="translate(144.076 72.075)">
        <rect id="Rectangle_1085" data-name="Rectangle 1085" width="28.42" height="13.642" rx="2" transform="translate(0 0)" fill="#a1c7e9"/>
        <rect id="Rectangle_1103" data-name="Rectangle 1103" width="28.42" height="13.642" rx="2" transform="translate(36.378 0)" fill="#a1c7e9"/>
        <rect id="Rectangle_1104" data-name="Rectangle 1104" width="28.42" height="13.642" rx="2" transform="translate(72.756 0)" fill="#a1c7e9"/>
        <circle id="Ellipse_240" data-name="Ellipse 240" cx="1.502" cy="1.502" r="1.502" transform="translate(30.694 10.637)" fill="#a1c7e9"/>
        <circle id="Ellipse_253" data-name="Ellipse 253" cx="1.502" cy="1.502" r="1.502" transform="translate(67.072 10.637)" fill="#a1c7e9"/>
      </g>
    </g>
  </g>
</svg>
