<?xml version="1.0" encoding="UTF-8"?>
<svg width="320px" height="240px" viewBox="0 0 320 240" version="1.1" xmlns="http://www.w3.org/2000/svg" xmlns:xlink="http://www.w3.org/1999/xlink">
    <title>SCANQR(with laptop)</title>
    <defs>
        <linearGradient x1="94.6625777%" y1="37.4525497%" x2="7.04417854%" y2="59.429554%" id="linearGradient-1">
            <stop stop-color="#FFFFFF" stop-opacity="0.208970717" offset="0%"></stop>
            <stop stop-color="#29A3FF" stop-opacity="0.503414554" offset="100%"></stop>
        </linearGradient>
        <linearGradient x1="55.5087063%" y1="9.45629699%" x2="55.5087063%" y2="100%" id="linearGradient-2">
            <stop stop-color="#29A3FF" stop-opacity="0" offset="0%"></stop>
            <stop stop-color="#29A3FF" stop-opacity="0.5" offset="100%"></stop>
        </linearGradient>
    </defs>
    <g id="SCANQR(with-laptop)" stroke="none" stroke-width="1" fill="none" fill-rule="evenodd">
        <g id="PushIllustration" transform="translate(10.000000, 13.000000)">
            <path d="M110.314253,182.886859 C96.9921318,121.635648 83.670011,91.0100421 47.7002847,49.732052 C11.7305585,8.45406188 108.982041,-14.1822553 190.246978,9.78560995 C271.511915,33.7534752 299.488368,91.0100421 260.854218,148.266609 C222.220068,205.523176 123.636373,244.13807 110.314253,182.886859 Z" id="Path-5" fill-opacity="0.05" fill="#29A3FF" transform="translate(159.000000, 107.000000) rotate(-180.000000) translate(-159.000000, -107.000000) "></path>
            <g id="Group-8" transform="translate(0.000000, 28.000000)">
                <path d="M89.2260749,158.089044 C135.495968,158.089044 170.198387,158.089044 193.333333,158.089044 C216.408586,158.089044 251.021465,158.089044 297.17197,158.089044 C298.984525,158.089044 299.701686,153.351275 298.888889,153.065069 C285.461173,148.336855 264.455198,143.185484 235.870966,137.610957 C234.858853,137.254568 232.294556,136.927012 230.143448,136.879341 C229.970743,136.875513 229.803634,136.873593 229.643228,136.873593 L19.888547,130.232558 C18.0759922,130.232558 19.2170148,134.892778 20.1352207,135.2161 L82.9983367,157.351681 C84.0104499,157.708069 86.574747,158.035625 88.7258547,158.083297 C88.8985594,158.087124 89.0656683,158.089044 89.2260749,158.089044 Z" id="Rectangle" fill="#0270C2"></path>
                <path d="M4.13368945,1.11111111 L212.079585,1.11111111 C213.892139,1.11111111 215.424907,2.45250245 215.66522,4.24905603 L232.117752,127.246472 C232.382642,129.226764 230.992034,131.046843 229.011743,131.311733 C228.852752,131.333 228.692523,131.343669 228.532117,131.343669 L20.5862214,131.343669 C18.7736666,131.343669 17.2408991,130.002278 17.0005863,128.205724 L0.548054342,5.20830831 C0.283164138,3.22801672 1.67377172,1.40793727 3.65406331,1.14304706 C3.81305384,1.12177997 3.97328285,1.11111111 4.13368945,1.11111111 Z" id="Rectangle" fill="#0270C2"></path>
                <path d="M5.24480056,0 L213.190696,0 C215.003251,1.90408692e-14 216.536018,1.34139134 216.776331,3.13794492 L233.228863,126.135361 C233.493753,128.115653 232.103145,129.935732 230.122854,130.200622 C229.963863,130.221889 229.803634,130.232558 229.643228,130.232558 L21.6973325,130.232558 C19.8847777,130.232558 18.3520102,128.891167 18.1116974,127.094613 L1.65916545,4.0971972 C1.39427525,2.11690561 2.78488283,0.296826155 4.76517442,0.0319359507 C4.92416495,0.0106688631 5.08439396,2.24991226e-15 5.24480056,0 Z" id="Rectangle" fill="#29A3FF"></path>
                <polygon id="Rectangle" fill="#FFFFFF" points="5 4 213.010336 4 230.430664 126.997416 22.420328 126.997416"></polygon>
                <path d="M89.2260749,153.670231 L297.17197,153.670231 C298.984525,153.670231 299.652288,153.428824 298.734082,153.105502 L235.870966,130.969922 C234.858853,130.613533 232.294556,130.285977 230.143448,130.238306 C229.970743,130.234478 229.803634,130.232558 229.643228,130.232558 L21.6973325,130.232558 C19.8847777,130.232558 19.2170148,130.473965 20.1352207,130.797287 L82.9983367,152.932868 C84.0104499,153.289256 86.574747,153.616812 88.7258547,153.664484 C88.8985594,153.668311 89.0656683,153.670231 89.2260749,153.670231 Z" id="Rectangle" fill="#5FBAFF"></path>
                <path d="M47.6295401,133 L225.822366,133 C225.939869,133 226.056453,133.020709 226.166767,133.061178 L256.152248,144.061178 C256.670746,144.251385 256.936877,144.825904 256.746669,145.344402 C256.602203,145.738209 256.227316,146 255.807847,146 L77.6150212,146 C77.497518,146 77.3809343,145.979291 77.2706197,145.938822 L47.2851385,134.938822 C46.7666412,134.748615 46.5005099,134.174096 46.6907176,133.655598 C46.8351836,133.261791 47.2100707,133 47.6295401,133 Z" id="Rectangle" fill-opacity="0.540537587" fill="#218BDA"></path>
            </g>
            <g id="Scan" transform="translate(92.000000, 42.000000)">
                <path d="M36.8344144,69.3310628 L37.2429299,72.2412431 C37.3283576,72.8498125 36.9042674,73.4124082 36.295698,73.4978359 C36.2444518,73.5050296 36.1927662,73.5086396 36.1410175,73.5086396 L33.3316145,73.5086396 C32.7768423,73.5086396 32.306822,73.0999899 32.2297022,72.5506041 L31.8211867,69.6404239 C31.735759,69.0318545 32.1598491,68.4692587 32.7684185,68.383831 C32.8196647,68.3766373 32.8713504,68.3730273 32.923099,68.3730273 L35.732502,68.3730273 C36.2872742,68.3730273 36.7572946,68.781677 36.8344144,69.3310628 Z M49.9583706,66.7632567 L50.7273409,72.2412431 C50.8127686,72.8498125 50.3886785,73.4124082 49.7801091,73.4978359 C49.7288628,73.5050296 49.6771772,73.5086396 49.6254285,73.5086396 L40.9165957,73.5086396 C40.3618235,73.5086396 39.8918032,73.0999899 39.8146834,72.5506041 L39.4061387,69.6402159 C39.320711,69.0316465 39.7448011,68.4690507 40.3533705,68.383623 C40.404557,68.3764377 40.4561819,68.3728277 40.5078702,68.3728193 L42.1618749,68.3725505 C42.776411,68.3724506 43.2745099,67.8741897 43.27441,67.2596537 C43.2744017,67.2081201 43.2708133,67.1566493 43.2636708,67.1056131 L43.2589888,67.0721586 C43.1738147,66.4635537 43.5981392,65.9011346 44.2067441,65.8159605 C44.2578401,65.8088096 44.3093716,65.8052212 44.3609655,65.8052212 L48.8564582,65.8052212 C49.4112304,65.8052212 49.8812508,66.2138709 49.9583706,66.7632567 Z M23.113129,55.6360968 L25.4440702,72.2412431 C25.5294979,72.8498125 25.1054078,73.4124082 24.4968384,73.4978359 C24.4455922,73.5050296 24.3939065,73.5086396 24.3421579,73.5086396 L8.04834382,73.5086396 C7.49357163,73.5086396 7.0235513,73.0999899 6.94643148,72.5506041 L4.61549025,55.9454578 C4.53006255,55.3368884 4.95415268,54.7742927 5.56272206,54.688865 C5.61396829,54.6816713 5.66565392,54.6780613 5.71740259,54.6780613 L22.0112166,54.6780613 C22.5659888,54.6780613 23.0360092,55.086711 23.113129,55.6360968 Z M19.1359742,58.1018028 L9.55385793,58.1018028 C8.93932186,58.1018028 8.44114194,58.5999827 8.44114194,59.2145188 C8.44114194,59.2662675 8.44475192,59.3179531 8.45194559,59.3691993 L9.82167394,69.1268626 C9.89879376,69.6762484 10.3688141,70.0848981 10.9235863,70.0848981 L20.5057025,70.0848981 C21.1202386,70.0848981 21.6184185,69.5867182 21.6184185,68.9721821 C21.6184185,68.9204334 21.6148085,68.8687478 21.6076149,68.8175016 L20.2378865,59.0598383 C20.1607667,58.5104525 19.6907464,58.1018028 19.1359742,58.1018028 Z M18.0547604,61.6276444 L18.7035791,66.2496954 C18.7890068,66.8582648 18.3649167,67.4208606 17.7563473,67.5062883 C17.7051011,67.513482 17.6534154,67.517092 17.6016668,67.517092 L13.1067124,67.517092 C12.5519402,67.517092 12.0819199,67.1084423 12.0048,66.5590565 L11.3559813,61.9370055 C11.2705536,61.3284361 11.6946438,60.7658403 12.3032132,60.6804126 C12.3544594,60.6732189 12.406145,60.6696089 12.4578937,60.6696089 L16.9528481,60.6696089 C17.5076203,60.6696089 17.9776406,61.0782586 18.0547604,61.6276444 Z M36.59754,55.6360968 L37.2463587,60.2581478 C37.3317864,60.8667172 36.9076963,61.429313 36.2991269,61.5147407 C36.2478807,61.5219343 36.196195,61.5255443 36.1444464,61.5255443 L31.649492,61.5255443 C31.0947198,61.5255443 30.6246994,61.1168946 30.5475796,60.5675089 L29.8987609,55.9454578 C29.8133332,55.3368884 30.2374234,54.7742927 30.8459927,54.688865 C30.897239,54.6816713 30.9489246,54.6780613 31.0006733,54.6780613 L35.4956277,54.6780613 C36.0503999,54.6780613 36.5204202,55.086711 36.59754,55.6360968 Z M48.3963997,55.6360968 L48.5646119,56.8344063 C48.6500396,57.4429757 48.2259495,58.0055715 47.6173801,58.0909992 C47.5661339,58.0981928 47.5144482,58.1018028 47.4626996,58.1018028 L44.6532966,58.1018028 C44.0985244,58.1018028 43.628504,57.6931531 43.5513842,57.1437674 L43.383172,55.9454578 C43.2977443,55.3368884 43.7218344,54.7742927 44.3304038,54.688865 C44.38165,54.6816713 44.4333356,54.6780613 44.4850843,54.6780613 L47.2944873,54.6780613 C47.8492595,54.6780613 48.3192798,55.086711 48.3963997,55.6360968 Z M19.5085807,29.9580355 L21.8395219,46.5631818 C21.9249496,47.1717511 21.5008595,47.7343469 20.8922901,47.8197746 C20.8410439,47.8269683 20.7893582,47.8305783 20.7376096,47.8305783 L4.44379553,47.8305783 C3.88902334,47.8305783 3.41900301,47.4219286 3.34188319,46.8725428 L1.01094197,30.2673965 C0.925514267,29.6588271 1.34960439,29.0962313 1.95817377,29.0108036 C2.00942,29.00361 2.06110564,29 2.11285431,29 L18.4066683,29 C18.9614405,29 19.4314609,29.4086497 19.5085807,29.9580355 Z M44.7918514,29.9580355 L47.1227926,46.5631818 C47.2082203,47.1717511 46.7841302,47.7343469 46.1755608,47.8197746 C46.1243146,47.8269683 46.0726289,47.8305783 46.0208803,47.8305783 L29.7270662,47.8305783 C29.172294,47.8305783 28.7022737,47.4219286 28.6251539,46.8725428 L26.2942126,30.2673965 C26.2087849,29.6588271 26.6328751,29.0962313 27.2414445,29.0108036 C27.2926907,29.00361 27.3443763,29 27.396125,29 L43.689939,29 C44.2447112,29 44.7147316,29.4086497 44.7918514,29.9580355 Z M15.5311978,32.4227144 L5.94815871,32.4227144 C5.33362264,32.4227144 4.83544272,32.9208943 4.83544272,33.5354304 C4.83544272,33.587179 4.8390527,33.6388647 4.84624637,33.6901109 L6.21609487,43.4486301 C6.29321469,43.9980159 6.76323502,44.4066656 7.31800721,44.4066656 L16.9010463,44.4066656 C17.5155824,44.4066656 18.0137623,43.9084857 18.0137623,43.2939496 C18.0137623,43.2422009 18.0101523,43.1905153 18.0029587,43.1392691 L16.6331102,33.3807498 C16.5559903,32.8313641 16.08597,32.4227144 15.5311978,32.4227144 Z M40.8135761,32.4227144 L31.2316277,32.4227144 C30.6170916,32.4227144 30.1189117,32.9208943 30.1189117,33.5354304 C30.1189117,33.587179 30.1225217,33.6388647 30.1297154,33.6901109 L31.4995639,43.4486301 C31.5766837,43.9980159 32.046704,44.4066656 32.6014762,44.4066656 L42.1834246,44.4066656 C42.7979607,44.4066656 43.2961406,43.9084857 43.2961406,43.2939496 C43.2961406,43.2422009 43.2925307,43.1905153 43.285337,43.1392691 L41.9154885,33.3807498 C41.8383687,32.8313641 41.3683483,32.4227144 40.8135761,32.4227144 Z M14.4502121,35.9495831 L15.0990308,40.5716341 C15.1844585,41.1802035 14.7603684,41.7427993 14.151799,41.828227 C14.1005528,41.8354207 14.0488672,41.8390307 13.9971185,41.8390307 L9.50216409,41.8390307 C8.9473919,41.8390307 8.47737157,41.430381 8.40025175,40.8809952 L7.75143306,36.2589442 C7.66600536,35.6503748 8.09009548,35.087779 8.69866487,35.0023513 C8.74991109,34.9951576 8.80159673,34.9915476 8.8533454,34.9915476 L13.3482998,34.9915476 C13.903072,34.9915476 14.3730923,35.4001973 14.4502121,35.9495831 Z M39.7334828,35.9495831 L40.3823015,40.5716341 C40.4677292,41.1802035 40.0436391,41.7427993 39.4350697,41.828227 C39.3838235,41.8354207 39.3321378,41.8390307 39.2803892,41.8390307 L34.7854348,41.8390307 C34.2306626,41.8390307 33.7606423,41.430381 33.6835224,40.8809952 L33.0347037,36.2589442 C32.949276,35.6503748 33.3733662,35.087779 33.9819355,35.0023513 C34.0331818,34.9951576 34.0848674,34.9915476 34.1366161,34.9915476 L38.6315705,34.9915476 C39.1863427,34.9915476 39.656363,35.4001973 39.7334828,35.9495831 Z" id="Combined-Shape" fill="#444444"></path>
                <polygon id="Path-3" fill="url(#linearGradient-1)" points="125.482587 1 1 28.8178997 7.23120954 73.3265393 51.0722195 73.3265393 126.595303 7.01444391"></polygon>
                <path d="M2.29123666,29 L41.2930301,29 C42.2762934,29 43.1137052,29.7147184 43.2681907,30.6857699 L49.631827,70.6857699 C49.8053715,71.776621 49.0617476,72.8016161 47.9708965,72.9751606 C47.8669698,72.9916944 47.7619002,73 47.6566664,73 L7.74578212,73 C6.74564073,73 5.89925409,72.2611967 5.76412178,71.2702264 L0.309576329,31.2702264 C0.160334404,30.1757856 0.926569472,29.1675816 2.02101026,29.0183397 C2.11056783,29.0061273 2.20085027,29 2.29123666,29 Z" id="Path-4" stroke-opacity="0.147071678" stroke="#00BDFF"></path>
                <polyline id="Path-7" stroke-opacity="0.147071678" stroke="#00BDFF" opacity="0.5" points="1.30845771 29.2686567 129.308458 0.268656716 44.3084577 29.2686567"></polyline>
                <polyline id="Path-8" stroke-opacity="0.147071678" stroke="#00BDFF" opacity="0.5" points="51.3084577 73.2686567 133.308458 1.26865672 7.30845771 73.2686567"></polyline>
            </g>
            <g id="Group-2" transform="translate(185.000000, 39.000000)">
                <path d="M8.83245348,0 L48.3749371,0 C53.9338817,0 59.0314031,4.50641494 59.7605698,10.0653595 L71.5487237,99.9346405 C72.2778905,105.493585 68.362582,110 62.8036374,110 L23.2611538,110 C17.7022092,110 12.6046878,105.493585 11.8755211,99.9346405 L0.0873672348,10.0653595 C-0.641799536,4.50641494 3.27350894,0 8.83245348,0 Z" id="Rectangle" fill="#29A3FF"></path>
                <path d="M9.55140773,0 L49.8128456,0 C54.5776552,0 58.9469593,3.86264137 59.5719594,8.62745098 L71.4544185,99.2156863 C72.0794185,103.980496 68.7234399,107.843137 63.9586302,107.843137 L23.6971923,107.843137 C18.9323827,107.843137 14.5630787,103.980496 13.9380786,99.2156863 L2.05561952,8.62745098 C1.43061943,3.86264137 4.78659812,0 9.55140773,0 Z" id="Rectangle" fill="#0270C2"></path>
                <path d="M9.74001819,1.4379085 L50.0014561,1.4379085 C53.9721308,1.4379085 57.6132175,4.65677631 58.1340509,8.62745098 L70.01651,99.2156863 C70.5373434,103.186361 67.7406945,106.405229 63.7700198,106.405229 L23.5085819,106.405229 C19.5379072,106.405229 15.8968205,103.186361 15.3759871,99.2156863 L3.49352802,8.62745098 C2.97269461,4.65677631 5.76934352,1.4379085 9.74001819,1.4379085 Z" id="Rectangle" fill="#FFFFFF"></path>
                <path d="M55.1127248,51.425 C55.5177336,51.425 55.8460581,51.7533245 55.8460581,52.1583333 C55.8460581,52.5321876 55.5663023,52.8407014 55.2047126,52.885953 L55.1127248,52.8916667 L19.1127248,52.8916667 C18.707716,52.8916667 18.3793915,52.5633421 18.3793915,52.1583333 C18.3793915,51.784479 18.6591473,51.4759652 19.020737,51.4307137 L19.1127248,51.425 L55.1127248,51.425 Z" id="Line-2" fill="#29A3FF" fill-rule="nonzero"></path>
                <path d="M42.7289427,61.8410689 L42.9557955,63.4664101 C43.0027632,63.8029215 42.7680417,64.1137928 42.4315302,64.1607605 C42.4033534,64.1646932 42.3749376,64.1666667 42.3464876,64.1666667 L40.7930486,64.1666667 C40.4861345,64.1666667 40.2261663,63.9404629 40.1837408,63.6364952 L39.956888,62.0111541 C39.9099202,61.6746426 40.1446418,61.3637713 40.4811532,61.3168036 C40.5093301,61.3128709 40.5377458,61.3108974 40.5661958,61.3108974 L42.1196348,61.3108974 C42.426549,61.3108974 42.6865172,61.5371012 42.7289427,61.8410689 Z M49.9850998,60.4131843 L50.411246,63.4664101 C50.4582137,63.8029215 50.2234921,64.1137928 49.8869807,64.1607605 C49.8588038,64.1646932 49.8303881,64.1666667 49.8019381,64.1666667 L44.9867395,64.1666667 C44.6798254,64.1666667 44.4198572,63.9404629 44.3774317,63.6364952 L44.1505627,62.0110385 C44.103595,61.674527 44.3383166,61.3636558 44.674828,61.316688 C44.7029716,61.31276 44.7313536,61.3107865 44.75977,61.3107819 L45.6753825,61.3106322 C46.0151558,61.3105766 46.2905515,61.0350909 46.2904959,60.6953176 C46.2904913,60.6669862 46.2885296,60.6386891 46.2846249,60.6106281 L46.2807828,60.5830169 C46.2339546,60.2464861 46.4688049,59.9357121 46.8053358,59.8888838 C46.83343,59.8849745 46.861761,59.8830128 46.8901259,59.8830128 L49.375792,59.8830128 C49.6827061,59.8830128 49.9426743,60.1092166 49.9850998,60.4131843 Z M35.1425258,54.2256843 L36.4322764,63.4664101 C36.4792441,63.8029215 36.2445225,64.1137928 35.9080111,64.1607605 C35.8798342,64.1646932 35.8514185,64.1666667 35.8229685,64.1666667 L26.814079,64.1666667 C26.5071649,64.1666667 26.2471967,63.9404629 26.2047712,63.6364952 L24.9150206,54.3957694 C24.8680529,54.059258 25.1027745,53.7483867 25.4392859,53.701419 C25.4674628,53.6974863 25.4958785,53.6955128 25.5243285,53.6955128 L34.5332179,53.6955128 C34.8401321,53.6955128 35.1001003,53.9217166 35.1425258,54.2256843 Z M32.9435135,55.599359 L27.6454818,55.599359 C27.3057084,55.599359 27.0302677,55.8747997 27.0302677,56.214573 C27.0302677,56.243023 27.0322412,56.2714387 27.0361739,56.2996156 L27.7944756,61.7326491 C27.8369011,62.0366168 28.0968693,62.2628205 28.4037835,62.2628205 L33.7018152,62.2628205 C34.0415885,62.2628205 34.3170293,61.9873798 34.3170293,61.6476065 C34.3170293,61.6191565 34.3150558,61.5907408 34.3111231,61.5625639 L33.5528214,56.1295304 C33.5103959,55.8255627 33.2504277,55.599359 32.9435135,55.599359 Z M32.345784,57.557415 L32.705499,60.1346793 C32.7524667,60.4711907 32.5177452,60.782062 32.1812337,60.8290297 C32.1530569,60.8329624 32.1246412,60.8349359 32.0961912,60.8349359 L29.6108209,60.8349359 C29.3039067,60.8349359 29.0439385,60.6087322 29.001513,60.3047644 L28.641798,57.7275002 C28.5948302,57.3909888 28.8295518,57.0801175 29.1660632,57.0331498 C29.1942401,57.0292171 29.2226558,57.0272436 29.2511058,57.0272436 L31.7364761,57.0272436 C32.0433903,57.0272436 32.3033585,57.2534473 32.345784,57.557415 Z M42.5979763,54.2256843 L42.9576913,56.8029485 C43.004659,57.13946 42.7699374,57.4503312 42.433426,57.497299 C42.4052491,57.5012317 42.3768334,57.5032051 42.3483834,57.5032051 L39.8630131,57.5032051 C39.556099,57.5032051 39.2961308,57.2770014 39.2537053,56.9730337 L38.8939902,54.3957694 C38.8470225,54.059258 39.0817441,53.7483867 39.4182555,53.701419 C39.4464324,53.6974863 39.4748481,53.6955128 39.5032981,53.6955128 L41.9886684,53.6955128 C42.2955826,53.6955128 42.5555507,53.9217166 42.5979763,54.2256843 Z M49.1214954,54.2256843 L49.215486,54.8991024 C49.2624537,55.2356138 49.0277322,55.5464851 48.6912207,55.5934528 C48.6630439,55.5973855 48.6346281,55.599359 48.6061781,55.599359 L47.0527391,55.599359 C46.745825,55.599359 46.4858568,55.3731552 46.4434313,55.0691875 L46.3494407,54.3957694 C46.302473,54.059258 46.5371945,53.7483867 46.873706,53.701419 C46.9018828,53.6974863 46.9302986,53.6955128 46.9587485,53.6955128 L48.5121875,53.6955128 C48.8191017,53.6955128 49.0790699,53.9217166 49.1214954,54.2256843 Z M33.1495926,39.9468381 L34.4393431,49.1875639 C34.4863108,49.5240753 34.2515893,49.8349466 33.9150778,49.8819143 C33.886901,49.8858471 33.8584852,49.8878205 33.8300352,49.8878205 L24.8211458,49.8878205 C24.5142316,49.8878205 24.2542634,49.6616168 24.2118379,49.3576491 L22.9220874,40.1169233 C22.8751197,39.7804118 23.1098412,39.4695406 23.4463527,39.4225728 C23.4745295,39.4186401 23.5029453,39.4166667 23.5313952,39.4166667 L32.5402847,39.4166667 C32.8471988,39.4166667 33.107167,39.6428704 33.1495926,39.9468381 Z M47.1285621,39.9468381 L48.4183127,49.1875639 C48.4652804,49.5240753 48.2305589,49.8349466 47.8940474,49.8819143 C47.8658706,49.8858471 47.8374548,49.8878205 47.8090048,49.8878205 L38.8001154,49.8878205 C38.4932012,49.8878205 38.233233,49.6616168 38.1908075,49.3576491 L36.901057,40.1169233 C36.8540893,39.7804118 37.0888108,39.4695406 37.4253223,39.4225728 C37.4534991,39.4186401 37.4819148,39.4166667 37.5103648,39.4166667 L46.5192543,39.4166667 C46.8261684,39.4166667 47.0861366,39.6428704 47.1285621,39.9468381 Z M30.9504542,41.3199417 L25.6519122,41.3199417 C25.3121388,41.3199417 25.0366981,41.5953824 25.0366981,41.9351557 C25.0366981,41.9636057 25.0386716,41.9920214 25.0426043,42.0201983 L25.8009724,47.4537077 C25.8433979,47.7576754 26.1033661,47.9838792 26.4102803,47.9838792 L31.7088223,47.9838792 C32.0485956,47.9838792 32.3240363,47.7084385 32.3240363,47.3686651 C32.3240363,47.3402151 32.3220629,47.3117994 32.3181302,47.2836226 L31.559762,41.8501131 C31.5173365,41.5461454 31.2573683,41.3199417 30.9504542,41.3199417 Z M44.9289304,41.3199417 L39.6309914,41.3199417 C39.2912181,41.3199417 39.0157774,41.5953824 39.0157774,41.9351557 C39.0157774,41.9636057 39.0177508,41.9920214 39.0216835,42.0201983 L39.7800517,47.4537077 C39.8224772,47.7576754 40.0824454,47.9838792 40.3893595,47.9838792 L45.6872985,47.9838792 C46.0270718,47.9838792 46.3025125,47.7084385 46.3025125,47.3686651 C46.3025125,47.3402151 46.3005391,47.3117994 46.2966064,47.2836226 L45.5382383,41.8501131 C45.4958127,41.5461454 45.2358446,41.3199417 44.9289304,41.3199417 Z M30.3528507,43.2785689 L30.7125658,45.8558331 C30.7595335,46.1923446 30.5248119,46.5032158 30.1883005,46.5501836 C30.1601236,46.5541163 30.1317079,46.5560897 30.1032579,46.5560897 L27.6178876,46.5560897 C27.3109734,46.5560897 27.0510053,46.329886 27.0085797,46.0259183 L26.6488647,43.4486541 C26.601897,43.1121426 26.8366186,42.8012713 27.17313,42.7543036 C27.2013069,42.7503709 27.2297226,42.7483974 27.2581726,42.7483974 L29.7435429,42.7483974 C30.050457,42.7483974 30.3104252,42.9746012 30.3528507,43.2785689 Z M44.3318203,43.2785689 L44.6915354,45.8558331 C44.7385031,46.1923446 44.5037815,46.5032158 44.1672701,46.5501836 C44.1390932,46.5541163 44.1106775,46.5560897 44.0822275,46.5560897 L41.5968572,46.5560897 C41.289943,46.5560897 41.0299749,46.329886 40.9875493,46.0259183 L40.6278343,43.4486541 C40.5808666,43.1121426 40.8155882,42.8012713 41.1520996,42.7543036 C41.1802765,42.7503709 41.2086922,42.7483974 41.2371422,42.7483974 L43.7225125,42.7483974 C44.0294266,42.7483974 44.2893948,42.9746012 44.3318203,43.2785689 Z" id="Combined-Shape" fill="#444444"></path>
                <polygon id="Path-2" fill="url(#linearGradient-2)" points="19.6666667 52.25 54.6666667 52.25 52 34.1838235 17.6666667 34.1838235"></polygon>
            </g>
        </g>
    </g>
</svg>