<svg xmlns="http://www.w3.org/2000/svg" width="1783.986" height="983.208" viewBox="0 0 1783.986 983.208">
  <g id="BG" transform="translate(-74.866 -27.028)" opacity="0.07">
    <path id="Path_473" data-name="Path 473" d="M11.768,42.016a.745.745,0,0,1-.627-1.147l3.459-5.4a.745.745,0,0,1,.63-.343h7.515a1.245,1.245,0,0,0,1.244-1.244V20.137a1.245,1.245,0,0,0-1.244-1.244H14.878a.747.747,0,0,1,0-1.493h7.866a2.739,2.739,0,0,1,2.737,2.737V33.876a2.739,2.739,0,0,1-2.737,2.737H15.635L12.4,41.672a.747.747,0,0,1-.63.343Zm-3.454-5.4H2.737A2.739,2.739,0,0,1,0,33.876V20.137A2.739,2.739,0,0,1,2.737,17.4h7.07a.747.747,0,1,1,0,1.493H2.737a1.245,1.245,0,0,0-1.244,1.244V33.876A1.245,1.245,0,0,0,2.737,35.12H8.314a.747.747,0,0,1,0,1.493Z" transform="matrix(0.875, 0.485, -0.485, 0.875, 104.162, 69.853)"/>
    <circle id="Ellipse_43" data-name="Ellipse 43" cx="1.369" cy="1.369" r="1.369" transform="matrix(0.875, 0.485, -0.485, 0.875, 106.451, 100.467)"/>
    <circle id="Ellipse_44" data-name="Ellipse 44" cx="1.369" cy="1.369" r="1.369" transform="matrix(0.619, -0.786, 0.786, 0.619, 100.274, 99.902)"/>
    <circle id="Ellipse_45" data-name="Ellipse 45" cx="1.369" cy="1.369" r="1.369" transform="matrix(0.875, 0.485, -0.485, 0.875, 96.875, 95.159)"/>
    <path id="backtowork" d="M82.894,15.105a4.859,4.859,0,1,1,4.859-4.859A4.859,4.859,0,0,1,82.894,15.105Zm0-7.348a2.49,2.49,0,1,0,2.49,2.49,2.49,2.49,0,0,0-2.49-2.49Zm13.181,33.29H86.493a1.184,1.184,0,1,1,0-2.369h9.583a2.1,2.1,0,0,0,2.093-2.093V5.111a2.1,2.1,0,0,0-2.093-2.093H69.7a2.1,2.1,0,0,0-2.093,2.093V29.928a1.782,1.782,0,0,0,.732,1.437l9.478,6.89a2.086,2.086,0,0,0,2.464,0l10.572-7.712a1.782,1.782,0,0,0,.729-1.435V21.615a1.777,1.777,0,0,0-1.777-1.777H75.989a1.777,1.777,0,0,0-1.777,1.777v5.831l4.812,3.5,8.791-6.413a1.184,1.184,0,1,1,1.394,1.912l-9.021,6.582a1.968,1.968,0,0,1-2.324,0l-5.207-3.784a1.98,1.98,0,0,1-.813-1.6V21.615a4.15,4.15,0,0,1,4.146-4.146H89.8a4.15,4.15,0,0,1,4.146,4.146v7.491a4.157,4.157,0,0,1-1.7,3.349l-10.57,7.712a4.448,4.448,0,0,1-5.251,0l-9.476-6.89a4.157,4.157,0,0,1-1.712-3.353V5.111A4.467,4.467,0,0,1,69.7.65H96.075a4.467,4.467,0,0,1,4.461,4.461V36.586a4.467,4.467,0,0,1-4.461,4.461Z" transform="matrix(0.819, -0.574, 0.574, 0.819, 237.169, 150.11)" opacity="0.2"/>
    <path id="Path_488" data-name="Path 488" d="M96.979,22.639a1.366,1.366,0,0,1-.453-.079l-5.289-1.923a1.321,1.321,0,1,1,.906-2.481l5.289,1.923a1.32,1.32,0,0,1-.453,2.561ZM128.24,34.016a1.366,1.366,0,0,1-.453-.079L122.5,32.01a1.321,1.321,0,1,1,.906-2.481l5.289,1.923a1.32,1.32,0,0,1,.788,1.694A1.337,1.337,0,0,1,128.24,34.016Zm-5.751-12.491a1.32,1.32,0,0,1-.559-2.517l5.1-2.376a1.321,1.321,0,1,1,1.118,2.393l-5.1,2.376A1.322,1.322,0,0,1,122.489,21.525Zm-18.365-6.683a1.32,1.32,0,0,1-1.2-.761l-2.376-5.1a1.321,1.321,0,1,1,2.393-1.118l2.376,5.1a1.322,1.322,0,0,1-.638,1.756A1.392,1.392,0,0,1,104.125,14.842Zm10.164-8.417a1.319,1.319,0,0,1-1.3-1.091l-.682-3.85a1.321,1.321,0,0,1,2.6-.462l.678,3.85A1.322,1.322,0,0,1,114.517,6.4a1.033,1.033,0,0,1-.229.022Zm5.825,2.121a1.32,1.32,0,0,1-.849-2.332l3-2.512a1.321,1.321,0,0,1,1.7,2.024l-3,2.512A1.32,1.32,0,0,1,120.114,8.546ZM118.186,44.99a1.32,1.32,0,0,1-1.2-.761l-2.376-5.1a1.321,1.321,0,1,1,2.393-1.118l2.376,5.1a1.322,1.322,0,0,1-.638,1.756A1.351,1.351,0,0,1,118.186,44.99Z" transform="translate(137.238 206.314) rotate(43)" opacity="0.9"/>
    <path id="Path_489" data-name="Path 489" d="M493.821,99.356a1.32,1.32,0,0,1-.889-2.3,5.06,5.06,0,1,0-8.162-5.473,4.918,4.918,0,0,0-.26,2.4,1.321,1.321,0,0,1-2.618.356,7.7,7.7,0,1,1,12.812,4.668A1.3,1.3,0,0,1,493.821,99.356Z" transform="translate(-80.592 -108.818) rotate(43)" opacity="0.9"/>
    <path id="Path_490" data-name="Path 490" d="M206.673,279.521a15.179,15.179,0,0,1-10.317-4.065,1.32,1.32,0,0,1,1.8-1.932,12.516,12.516,0,1,0-2.8-3.863,1.321,1.321,0,1,1-2.393,1.118,15.126,15.126,0,1,1,14.488,8.725C207.188,279.517,206.928,279.521,206.673,279.521Z" transform="translate(229.049 -33.951) rotate(43)" opacity="0.9"/>
    <path id="Path_491" data-name="Path 491" d="M44.2,702.489a1.32,1.32,0,0,1-.559-2.517l7.84-3.665A1.321,1.321,0,0,1,52.6,698.7l-7.84,3.665A1.321,1.321,0,0,1,44.2,702.489Z" transform="translate(624.389 -249.527) rotate(43)" opacity="0.9"/>
    <path id="desk" d="M103.184,27.694a.812.812,0,0,1-.8-.941L104.7,12.492a3.246,3.246,0,0,1,3.2-2.725h9.555l.534-3.273H117.1a1.352,1.352,0,0,1-1.335-1.569l.615-3.789A1.347,1.347,0,0,1,117.717,0h3.566a3.245,3.245,0,0,1,3.2,3.766l-1.434,8.823a1.351,1.351,0,0,1-.623.933l-8,4.955a1.355,1.355,0,0,1-1.555-.092l-3.728-2.972a.811.811,0,1,1,1.011-1.269L113.74,17l7.731-4.79,1.414-8.7a1.623,1.623,0,0,0-1.6-1.883h-3.336l-.527,3.248h.891a1.352,1.352,0,0,1,1.335,1.57l-.622,3.814a1.347,1.347,0,0,1-1.335,1.135H107.9a1.616,1.616,0,0,0-1.6,1.363l-2.032,12.5,2.849-1.766a1.351,1.351,0,0,1,.712-.2h10.457a1.616,1.616,0,0,0,1.6-1.363l.651-4a.811.811,0,0,1,1.6.26l-.651,4a3.246,3.246,0,0,1-3.2,2.725h-10.38l-4.3,2.664a.813.813,0,0,1-.428.122Z" transform="matrix(0.105, 0.995, -0.995, 0.105, 461.589, 200.84)" opacity="0.2"/>
    <path id="Path_494" data-name="Path 494" d="M360.964,658.68H350.856a1.147,1.147,0,0,1-1.146-1.146V645.316a1.146,1.146,0,0,1,2.292,0v11.072h7.815V645.316a1.146,1.146,0,0,1,2.293,0v12.218A1.147,1.147,0,0,1,360.964,658.68Z" transform="translate(-550.436 133.829) rotate(-34)" opacity="0.9"/>
    <path id="Path_495" data-name="Path 495" d="M28.785,39.119H10.334a5.737,5.737,0,0,1-5.73-5.73V22.573a1.146,1.146,0,1,1,2.292,0V33.389a3.442,3.442,0,0,0,3.438,3.438H28.785a3.442,3.442,0,0,0,3.438-3.438v-15.4a1.146,1.146,0,0,1,1.146-1.146,3.461,3.461,0,0,0,3.455-3.324L34.672,4.9a3.433,3.433,0,0,0-3.336-2.605H7.783A3.433,3.433,0,0,0,4.447,4.9L2.294,13.518a3.457,3.457,0,0,0,6.912-.131,1.146,1.146,0,1,1,2.292,0,3.457,3.457,0,0,0,6.915,0,1.146,1.146,0,1,1,2.292,0,3.457,3.457,0,0,0,6.915,0,1.146,1.146,0,0,1,2.292,0,5.748,5.748,0,0,1-10.353,3.44,5.745,5.745,0,0,1-9.207,0A5.748,5.748,0,0,1,0,13.387a1.154,1.154,0,0,1,.034-.278L2.223,4.342A5.722,5.722,0,0,1,7.783,0H31.336A5.722,5.722,0,0,1,36.9,4.342l2.189,8.767a1.154,1.154,0,0,1,.034.278,5.758,5.758,0,0,1-4.6,5.633V33.389A5.736,5.736,0,0,1,28.785,39.119Z" transform="translate(74.866 459.384) rotate(-34)" opacity="0.9"/>
    <path id="Path_496" data-name="Path 496" d="M355.9,647.824a11.091,11.091,0,0,1-5.637-1.536,1.146,1.146,0,0,1,1.166-1.974,8.818,8.818,0,0,0,8.942,0,1.146,1.146,0,0,1,1.166,1.974A11.091,11.091,0,0,1,355.9,647.824Z" transform="translate(-550.419 133.835) rotate(-34)" opacity="0.9"/>
    <path id="Path_477" data-name="Path 477" d="M412.679,237.262H402.342a1.022,1.022,0,1,1,0-2.043h10.337a2.387,2.387,0,0,0,2.384-2.384v-12.4a1.022,1.022,0,1,1,2.043,0v12.4A4.432,4.432,0,0,1,412.679,237.262Z" transform="matrix(0.819, -0.574, 0.574, 0.819, -366.302, 782.308)" opacity="0.9"/>
    <path id="Path_478" data-name="Path 478" d="M236.724,174.936a1.022,1.022,0,0,1-1.022-1.022V163.587a2.387,2.387,0,0,0-2.384-2.384H220.932a1.022,1.022,0,1,1,0-2.043h12.386a4.432,4.432,0,0,1,4.427,4.427v10.327A1.022,1.022,0,0,1,236.724,174.936Z" transform="matrix(0.819, -0.574, 0.574, 0.819, -189.38, 729.473)" opacity="0.9"/>
    <path id="Path_479" data-name="Path 479" d="M160.182,298.227a1.022,1.022,0,0,1-1.022-1.022V284.827a4.432,4.432,0,0,1,4.427-4.427h10.364a1.022,1.022,0,1,1,0,2.043H163.587a2.387,2.387,0,0,0-2.384,2.384v12.378A1.022,1.022,0,0,1,160.182,298.227Z" transform="matrix(0.819, -0.574, 0.574, 0.819, -208.483, 599.883)" opacity="0.9"/>
    <path id="Path_480" data-name="Path 480" d="M297.256,417.5H284.827a4.432,4.432,0,0,1-4.427-4.427V402.752a1.022,1.022,0,0,1,2.043,0v10.323a2.387,2.387,0,0,0,2.384,2.384h12.429a1.022,1.022,0,1,1,0,2.043Z" transform="matrix(0.819, -0.574, 0.574, 0.819, -371.637, 571.052)" opacity="0.9"/>
    <path id="Path_481" data-name="Path 481" d="M345.668,7.392a3.732,3.732,0,1,1,2.639-6.372h0a3.731,3.731,0,0,1-2.639,6.372Zm0-5.419a1.688,1.688,0,1,0,1.195.494h0A1.683,1.683,0,0,0,345.668,1.973Z" transform="matrix(0.819, -0.574, 0.574, 0.819, -197.712, 923.074)" opacity="0.9"/>
    <path id="Path_482" data-name="Path 482" d="M466.64,812.3a3.733,3.733,0,1,1,2.639-1.092A3.733,3.733,0,0,1,466.64,812.3Zm0-5.422a1.688,1.688,0,1,0,1.195.494A1.688,1.688,0,0,0,466.64,806.883Z" transform="matrix(0.819, -0.574, 0.574, 0.819, -739.386, 353.208)" opacity="0.9"/>
    <path id="Path_483" data-name="Path 483" d="M808.609,349.235a3.733,3.733,0,1,1,2.641-1.093h0A3.709,3.709,0,0,1,808.609,349.235Zm0-5.423A1.69,1.69,0,1,0,809.8,346.7h0a1.69,1.69,0,0,0-1.195-2.884Z" transform="matrix(0.819, -0.574, 0.574, 0.819, -753.41, 909.079)" opacity="0.9"/>
    <path id="Path_484" data-name="Path 484" d="M3.685,470.254a3.733,3.733,0,1,1,2.64-1.093h0A3.709,3.709,0,0,1,3.685,470.254ZM5.6,468.438Zm-1.917-3.607a1.69,1.69,0,1,0,1.195.495A1.69,1.69,0,0,0,3.685,464.832Z" transform="matrix(0.819, -0.574, 0.574, 0.819, -183.561, 367.36)" opacity="0.9"/>
    <path id="Path_474" data-name="Path 474" d="M38.921,32.006A3.377,3.377,0,0,1,35.6,29.213v0A103.351,103.351,0,0,1,34.232,3.678c0-.011,0-.023,0-.034A3.4,3.4,0,0,1,37.87.505h0L56.882,2.083h.006a2.451,2.451,0,0,1,1.631.807,2.483,2.483,0,0,1,.6,1.741c-.011.433-.079,1.135-.082,1.165a.924.924,0,0,1-1.839-.178c0-.007.064-.667.074-1.034a.567.567,0,0,0-.564-.661L37.732,2.348a1.548,1.548,0,0,0-1.655,1.43v.015s0,0,0,.006a101.577,101.577,0,0,0,1.342,25.1,1.524,1.524,0,0,0,1.618,1.258l18.784-1.425a.659.659,0,0,0,.468-.253.414.414,0,0,0,.083-.341l-.207-1.089a.924.924,0,0,1,1.823-.306s.072.424.195,1.024a2.248,2.248,0,0,1-.414,1.819,2.5,2.5,0,0,1-1.792.987L39.17,32q-.124.01-.249.01Z" transform="translate(397.987 626.566) rotate(22)"/>
    <path id="Path_475" data-name="Path 475" d="M648.589,267.933a5.394,5.394,0,1,0-6.631.2l.474,6.166a.924.924,0,0,0,1.453.685l1.827-1.286,2.027,1.114a.924.924,0,0,0,1.366-.889Zm-3.444-7.7a3.546,3.546,0,1,1-3.546,3.546A3.55,3.55,0,0,1,645.145,260.238ZM646.1,271.8a.924.924,0,0,0-.977.054l-.97.683-.27-3.509a5.4,5.4,0,0,0,2.938-.116l.3,3.448Z" transform="translate(-52.745 174.878) rotate(22)"/>
    <path id="Path_476" data-name="Path 476" d="M229.991,279.968h-.045l-10.032-.484a.924.924,0,0,1,.089-1.846l10.032.484a.924.924,0,0,1-.044,1.847Zm-.517,5.846h-.005l-9.418-.052a.924.924,0,1,1,.01-1.848l9.418.052a.924.924,0,0,1-.005,1.848Zm-8.855,6.226a.924.924,0,0,1-.033-1.847l10.973-.4a.924.924,0,0,1,.067,1.847l-10.973.4Z" transform="translate(332.308 310.332) rotate(22)"/>
    <path id="Path_497" data-name="Path 497" d="M87.423,260.116A1.117,1.117,0,0,1,86.306,259v-6.756a1.117,1.117,0,1,1,2.234,0v5.409a11.081,11.081,0,0,0,5.175-2.941,11.194,11.194,0,0,0,3.084-9.99,1.117,1.117,0,1,1,2.2-.413,13.414,13.414,0,0,1-11.425,15.8A1.02,1.02,0,0,1,87.423,260.116Zm-7.07-13.806H73.6a1.117,1.117,0,0,1-1.108-1.262,13.425,13.425,0,0,1,15.813-11.436,1.117,1.117,0,0,1-.415,2.195,11.192,11.192,0,0,0-10,3.081,11.075,11.075,0,0,0-2.944,5.188h5.4a1.117,1.117,0,0,1,0,2.234Z" transform="translate(1267.319 549.921)" opacity="0.9"/>
    <path id="Path_498" data-name="Path 498" d="M215.313,30.924a1.115,1.115,0,0,1-.79-.327l-5.882-5.882a1.116,1.116,0,0,1-.186-1.333,83.538,83.538,0,0,1,5.21-8.1,59.616,59.616,0,0,1,5.778-6.95,29.429,29.429,0,0,1,10.3-6.8c3.588-1.32,6.447-1.277,7.842.119s1.439,4.254.119,7.842a29.432,29.432,0,0,1-6.8,10.3,59.612,59.612,0,0,1-6.95,5.778,83.493,83.493,0,0,1-8.1,5.21,1.115,1.115,0,0,1-.543.141Zm-4.492-7.188,4.681,4.681a73.832,73.832,0,0,0,13.828-10.2,29.407,29.407,0,0,0,3.9-4.815,24.2,24.2,0,0,0,2.379-4.677c1.088-2.959.969-4.921.4-5.492s-2.533-.69-5.492.4a24.206,24.206,0,0,0-4.677,2.379,29.41,29.41,0,0,0-4.815,3.9A73.808,73.808,0,0,0,210.821,23.736Z" transform="translate(1136.548 774.058)" opacity="0.9"/>
    <path id="Path_499" data-name="Path 499" d="M173.639,629.41a1.113,1.113,0,0,1-.79-.327l-3.4-3.4a1.117,1.117,0,0,1-.111-1.45l2.293-3.127a1.117,1.117,0,0,1,1.691-.129l4.2,4.2a1.117,1.117,0,0,1-.119,1.682l-3.094,2.326A1.116,1.116,0,0,1,173.639,629.41Zm-1.93-4.626,2.034,2.034,1.291-.971-2.368-2.369Z" transform="translate(1174.278 177.064)" opacity="0.9"/>
    <path id="Path_500" data-name="Path 500" d="M1.582,762.918a1.117,1.117,0,0,1-.79-1.907l4.576-4.576a1.117,1.117,0,0,1,1.58,1.58l-4.576,4.576A1.114,1.114,0,0,1,1.582,762.918Zm5.657.035a1.117,1.117,0,0,1-.79-1.907l2.167-2.167a1.117,1.117,0,1,1,1.58,1.579l-2.167,2.167A1.114,1.114,0,0,1,7.239,762.953Zm-5.7-5.682a1.117,1.117,0,0,1-.79-1.907L2.9,753.207a1.117,1.117,0,0,1,1.58,1.58l-2.157,2.157A1.115,1.115,0,0,1,1.537,757.271Z" transform="translate(1336.703 49.759)" opacity="0.9"/>
    <path id="Path_501" data-name="Path 501" d="M662.151,192.321a3.351,3.351,0,1,1,3.35-3.351A3.354,3.354,0,0,1,662.151,192.321Zm0-4.467a1.117,1.117,0,1,0,1.117,1.117A1.118,1.118,0,0,0,662.151,187.854Z" transform="translate(702.833 595.901)" opacity="0.9"/>
    <path id="Path_515" data-name="Path 515" d="M493.154,290.093a1.118,1.118,0,0,1-.559-2.086l23.2-13.4V247.819a1.119,1.119,0,1,1,2.237,0v27.435a1.107,1.107,0,0,1-.559.968l-23.76,13.72A1.136,1.136,0,0,1,493.154,290.093Z" transform="translate(-267.229 775.809) rotate(-19)"/>
    <path id="Path_516" data-name="Path 516" d="M92.079,290.187a1.136,1.136,0,0,1-.559-.151l-23.76-13.715a1.12,1.12,0,0,1-.559-.968V247.919a1.119,1.119,0,1,1,2.237,0V274.71l23.2,13.39a1.118,1.118,0,0,1-.559,2.086Z" transform="translate(111.963 645.143) rotate(-19)"/>
    <path id="Path_517" data-name="Path 517" d="M115.868,17.458a1.136,1.136,0,0,1-.559-.151l-23.2-13.4-23.2,13.4a1.118,1.118,0,1,1-1.119-1.935l23.76-13.72a1.111,1.111,0,0,1,1.119,0l23.76,13.715a1.122,1.122,0,0,1-.565,2.092Z" transform="translate(187.326 864.117) rotate(-19)"/>
    <path id="Path_518" data-name="Path 518" d="M493.154,412.6a1.118,1.118,0,0,1-.559-2.086l8.944-5.163V395.019a1.119,1.119,0,0,1,2.237,0v10.974a1.107,1.107,0,0,1-.559.968l-9.5,5.487A1.136,1.136,0,0,1,493.154,412.6Z" transform="translate(-312.473 644.414) rotate(-19)"/>
    <path id="Path_519" data-name="Path 519" d="M332.722,412.6a1.136,1.136,0,0,1-.559-.151l-9.5-5.487a1.12,1.12,0,0,1-.559-.968V395.019a1.119,1.119,0,1,1,2.237,0v10.325l8.944,5.168a1.118,1.118,0,0,1-.559,2.086Z" transform="translate(-160.781 592.182) rotate(-19)"/>
    <path id="Path_520" data-name="Path 520" d="M342.259,303.525a1.136,1.136,0,0,1-.559-.151l-8.944-5.163-8.944,5.163a1.118,1.118,0,1,1-1.119-1.935l9.5-5.487a1.111,1.111,0,0,1,1.119,0l9.5,5.487a1.118,1.118,0,0,1-.559,2.086Z" transform="translate(-130.662 679.76) rotate(-19)"/>
    <path id="Path_521" data-name="Path 521" d="M92.093,262.766a1.136,1.136,0,0,1-.559-.151L67.773,248.9a1.118,1.118,0,0,1,1.119-1.935l23.76,13.715a1.118,1.118,0,0,1-.559,2.086Z" transform="translate(111.946 645.134) rotate(-19)"/>
    <path id="Path_522" data-name="Path 522" d="M493.154,262.786a1.118,1.118,0,0,1-.559-2.086l23.76-13.715a1.118,1.118,0,0,1,1.119,1.935l-23.76,13.715A1.136,1.136,0,0,1,493.154,262.786Z" transform="translate(-267.271 775.688) rotate(-19)"/>
    <path id="Path_523" data-name="Path 523" d="M493.119,521.672A1.122,1.122,0,0,1,492,520.554V493.119a1.119,1.119,0,0,1,2.237,0v27.435A1.122,1.122,0,0,1,493.119,521.672Z" transform="translate(-342.591 556.835) rotate(-19)"/>
    <path id="Path_492" data-name="Path 492" d="M16.445,32.385c-1.215,0-2.43-.038-3.636-.113l-.611-.038a12.316,12.316,0,0,1-5.908-1.9A12.577,12.577,0,0,1,.506,20.444,12.321,12.321,0,0,1,1.739,14.36,58.541,58.541,0,0,1,6.1,6.811l.941-1.377a11.234,11.234,0,0,1,4.212-3.722,11.471,11.471,0,0,1,10.379,0,11.26,11.26,0,0,1,4.208,3.723l.941,1.377a58.542,58.542,0,0,1,4.366,7.55,12.321,12.321,0,0,1,1.233,6.083A12.577,12.577,0,0,1,26.6,30.329a12.316,12.316,0,0,1-5.908,1.9l-.611.038C18.874,32.348,17.66,32.385,16.445,32.385Zm0-30.043A9.588,9.588,0,0,0,12.1,3.381,9.382,9.382,0,0,0,8.591,6.49L7.65,7.867a56.667,56.667,0,0,0-4.226,7.306,10.46,10.46,0,0,0-1.05,5.169,10.707,10.707,0,0,0,4.919,8.409,10.464,10.464,0,0,0,5.021,1.616l.611.037a56.6,56.6,0,0,0,7.038,0l.611-.038A10.482,10.482,0,0,0,25.6,28.751a10.707,10.707,0,0,0,4.919-8.409,10.46,10.46,0,0,0-1.05-5.169,56.668,56.668,0,0,0-4.225-7.306L24.3,6.49a9.384,9.384,0,0,0-3.515-3.11,9.586,9.586,0,0,0-4.339-1.037Z" transform="matrix(0.695, 0.719, -0.719, 0.695, 529.515, 56.208)"/>
    <path id="Path_493" data-name="Path 493" d="M278.168,290.018c-.532,0-1.065-.017-1.594-.05l-.667-.042a5.608,5.608,0,0,1-4.707-8.045l.176-.365a25.666,25.666,0,0,1,1.913-3.307l.4-.591a5.411,5.411,0,0,1,8.949,0l.4.591a25.659,25.659,0,0,1,1.913,3.307l.176.365a5.607,5.607,0,0,1-4.707,8.045l-.667.041Q278.966,290.018,278.168,290.018Zm0-12.891a3.5,3.5,0,0,0-2.929,1.548l-.4.59a23.813,23.813,0,0,0-1.773,3.066l-.176.365a3.744,3.744,0,0,0,3.138,5.363l.667.041a23.681,23.681,0,0,0,2.954,0l.667-.041a3.744,3.744,0,0,0,3.138-5.363l-.176-.365a23.809,23.809,0,0,0-1.773-3.066l-.4-.59A3.5,3.5,0,0,0,278.168,277.127Z" transform="matrix(0.695, 0.719, -0.719, 0.695, 539.201, -316.984)"/>
    <path id="workplace" d="M114.622,15.627a1.07,1.07,0,0,0-.533-.912L91.443,1.644a1.059,1.059,0,0,0-1.066,0L67.731,14.716a1.075,1.075,0,0,0-.533.922V41.786a1.055,1.055,0,0,0,.533.922L90.377,55.785a1.069,1.069,0,0,0,1.066,0l22.646-13.071a1.068,1.068,0,0,0,.533-.922V15.627ZM90.91,3.8l20.513,11.845-11.456,6.61-6.7-3.87a3.669,3.669,0,1,0-4.728.011l-6.68,3.86L70.4,15.643Zm-12.2,30.045h0a1.66,1.66,0,1,1-.608,2.271,1.625,1.625,0,0,1-.165-1.258A1.664,1.664,0,0,1,78.713,33.843Zm12.181-16.6a1.663,1.663,0,1,1,1.663-1.663A1.665,1.665,0,0,1,90.894,17.248Zm.016,2.239,6.925,4-6.925,4-6.925-4Zm1.066,9.841,6.925-4v8l-6.925,4ZM69.331,17.488,80.787,24.1v7.724c-.1-.037-.2-.064-.293-.091a3.652,3.652,0,0,0-2.783.368h0a3.665,3.665,0,1,0,5.443,3.817l3.284,1.9A1.065,1.065,0,0,0,87.5,35.975l-4.59-2.649v-8l6.925,4V53.013L69.331,41.173Zm22.646,35.53V39.792l8.524-4.92a1.068,1.068,0,0,0,.533-.922V24.1l11.456-6.616V41.173Z" transform="matrix(0.719, 0.695, -0.695, 0.719, 757.028, -20.731)" opacity="0.2"/>
    <path id="Path_485" data-name="Path 485" d="M32.05,44.987H1.318A1.318,1.318,0,0,1,0,43.669V32.5a5.712,5.712,0,0,1,3.857-5.4l34.06-11.69A6.565,6.565,0,0,0,35.785,2.636H2.636V24.381a1.318,1.318,0,0,1-2.636,0V1.318A1.318,1.318,0,0,1,1.318,0H35.785a9.2,9.2,0,0,1,2.987,17.9L4.713,29.594A3.075,3.075,0,0,0,2.636,32.5v9.848H32.05a10.3,10.3,0,0,0,4.5-19.566A1.318,1.318,0,1,1,37.7,20.414,12.936,12.936,0,0,1,32.05,44.987Z" transform="matrix(0.883, 0.469, -0.469, 0.883, 889.249, 737.832)" opacity="0.9"/>
    <path id="Path_486" data-name="Path 486" d="M222.792,190.364a5.272,5.272,0,1,1,5.272-5.272A5.278,5.278,0,0,1,222.792,190.364Zm0-7.908a2.636,2.636,0,1,0,2.636,2.636A2.639,2.639,0,0,0,222.792,182.456Z" transform="matrix(0.883, 0.469, -0.469, 0.883, 786.339, 488.403)" opacity="0.9"/>
    <path id="Path_487" data-name="Path 487" d="M222.792,190.364a5.272,5.272,0,1,1,5.272-5.272A5.278,5.278,0,0,1,222.792,190.364Zm0-7.908a2.636,2.636,0,1,0,2.636,2.636A2.639,2.639,0,0,0,222.792,182.456Z" transform="matrix(0.883, 0.469, -0.469, 0.883, 789.269, 511.043)" opacity="0.9"/>
    <path id="Path_504" data-name="Path 504" d="M29.089,109.649H9.642a.964.964,0,0,1,0-1.929H29.089a1.905,1.905,0,0,0,1.9-1.9V89.047a1.905,1.905,0,0,0-1.9-1.9H16.834a3.848,3.848,0,0,1-2.292-.762L11.76,84.305a1.913,1.913,0,0,0-1.138-.379H3.832a1.912,1.912,0,0,0-1.9,1.906v19.984a1.905,1.905,0,0,0,1.9,1.9H5.752a.964.964,0,0,1,0,1.929H3.832A3.838,3.838,0,0,1,0,105.816V85.832A3.838,3.838,0,0,1,3.832,82h6.79a3.848,3.848,0,0,1,2.292.762L15.7,84.839a1.913,1.913,0,0,0,1.138.379H29.089a3.838,3.838,0,0,1,3.832,3.832V105.82A3.837,3.837,0,0,1,29.089,109.649Z" transform="matrix(0.616, 0.788, -0.788, 0.616, 607.268, 738.096)" opacity="0.9"/>
    <path id="Path_505" data-name="Path 505" d="M270.864,669.268a.963.963,0,0,1-.964-.965v-2.183a4.893,4.893,0,0,1,3.2-4.594l3.392-1.257a.965.965,0,0,1,.672,1.81l-3.392,1.257a2.982,2.982,0,0,0-1.939,2.784V668.3A.97.97,0,0,1,270.864,669.268Z" transform="matrix(0.616, 0.788, -0.788, 0.616, 887.43, 187.713)"/>
    <path id="Path_506" data-name="Path 506" d="M377.193,549.787a2.893,2.893,0,1,1,2.893-2.893A2.9,2.9,0,0,1,377.193,549.787Zm0-3.858a.964.964,0,1,0,.964.965A.967.967,0,0,0,377.193,545.929Z" transform="matrix(0.616, 0.788, -0.788, 0.616, 736.591, 177.335)"/>
    <path id="Path_507" data-name="Path 507" d="M477.064,599.776a.963.963,0,0,1-.964-.964v-4.6a4.892,4.892,0,0,1,3.2-4.594l3.093-1.145a.965.965,0,0,1,.672,1.81l-3.093,1.144a2.982,2.982,0,0,0-1.939,2.784v4.6A.968.968,0,0,1,477.064,599.776Z" transform="matrix(0.616, 0.788, -0.788, 0.616, 709.801, 73.232)"/>
    <path id="Path_508" data-name="Path 508" d="M569.054,468.108a3.054,3.054,0,1,1,3.054-3.054A3.057,3.057,0,0,1,569.054,468.108Zm0-4.179a1.125,1.125,0,1,0,1.125,1.125A1.126,1.126,0,0,0,569.054,463.929Z" transform="matrix(0.616, 0.788, -0.788, 0.616, 559.824, 79.99)"/>
    <path id="Path_509" data-name="Path 509" d="M681.564,526.317a.963.963,0,0,1-.964-.965v-7.243a4.583,4.583,0,0,1,2.993-4.3l3.36-1.244a.965.965,0,0,1,.672,1.81l-3.36,1.244a2.664,2.664,0,0,0-1.733,2.488v7.24A.97.97,0,0,1,681.564,526.317Z" transform="matrix(0.616, 0.788, -0.788, 0.616, 530.059, -37.509)"/>
    <path id="Path_510" data-name="Path 510" d="M771.054,386.208a3.154,3.154,0,1,1,3.154-3.154A3.157,3.157,0,0,1,771.054,386.208Zm0-4.382a1.225,1.225,0,1,0,1.225,1.225A1.227,1.227,0,0,0,771.054,381.826Z" transform="matrix(0.616, 0.788, -0.788, 0.616, 376.902, -25.073)"/>
    <path id="Path_546" data-name="Path 546" d="M420.906,182.012a2.906,2.906,0,1,1,2.906-2.906A2.906,2.906,0,0,1,420.906,182.012Zm0-3.957a1.051,1.051,0,1,0,1.051,1.051A1.05,1.05,0,0,0,420.906,178.055Z" transform="matrix(0.309, 0.951, -0.951, 0.309, 1087.272, -325.223)"/>
    <path id="Path_547" data-name="Path 547" d="M15.766,402.763a2.781,2.781,0,0,1-1.391-.371l-6.584-3.8A2.786,2.786,0,0,1,6.4,396.182v-7.6a2.8,2.8,0,0,1,1.391-2.411l5.339-3.079a.928.928,0,0,1,.927,1.608l-5.339,3.079a.929.929,0,0,0-.464.8v7.6a.929.929,0,0,0,.464.8l6.584,3.8a.936.936,0,0,0,.927,0l5.335-3.082a.928.928,0,1,1,.927,1.607h0l-5.335,3.079A2.753,2.753,0,0,1,15.766,402.763Z" transform="matrix(0.309, 0.951, -0.951, 0.309, 1401.096, -7.787)"/>
    <path id="Path_548" data-name="Path 548" d="M488.96,402.763a2.781,2.781,0,0,1-1.391-.371l-5.342-3.085a.928.928,0,0,1,.927-1.607l5.342,3.085a.936.936,0,0,0,.927,0l6.584-3.8a.93.93,0,0,0,.464-.8v-7.6a.929.929,0,0,0-.464-.8l-5.332-3.079a.928.928,0,0,1,.927-1.608l5.332,3.079a2.787,2.787,0,0,1,1.391,2.411v7.6a2.786,2.786,0,0,1-1.391,2.408l-6.584,3.8A2.814,2.814,0,0,1,488.96,402.763Z" transform="matrix(0.309, 0.951, -0.951, 0.309, 1258.741, -445.908)"/>
    <path id="Path_549" data-name="Path 549" d="M210.027,14.279a.926.926,0,0,1-.927-.927V7.181a2.786,2.786,0,0,1,1.391-2.408l6.584-3.8a2.794,2.794,0,0,1,2.782,0l6.584,3.8a2.786,2.786,0,0,1,1.391,2.408v6.167a.927.927,0,0,1-1.855,0V7.181a.929.929,0,0,0-.464-.8l-6.584-3.8a.936.936,0,0,0-.927,0l-6.584,3.8a.929.929,0,0,0-.464.8v6.17A.928.928,0,0,1,210.027,14.279Z" transform="matrix(0.309, 0.951, -0.951, 0.309, 987.987, -80.103)"/>
    <path id="Path_550" data-name="Path 550" d="M216.287,390.972a.938.938,0,0,1-.464-.124l-5.332-3.079a2.787,2.787,0,0,1-1.391-2.411v-1.431a.927.927,0,1,1,1.855,0v1.431a.929.929,0,0,0,.464.8l5.332,3.082a.926.926,0,0,1,.34,1.267.916.916,0,0,1-.8.461Zm4.352,0a.928.928,0,0,1-.464-1.731l5.339-3.082a.929.929,0,0,0,.464-.8v-1.431a.927.927,0,1,1,1.855,0v1.434a2.787,2.787,0,0,1-1.391,2.411l-5.339,3.079A.938.938,0,0,1,220.64,390.975Z" transform="matrix(0.309, 0.951, -0.951, 0.309, 1340.429, -194.618)"/>
    <path id="Path_551" data-name="Path 551" d="M414.7,356.881a.928.928,0,0,1-.464-1.731l5.336-3.079a2.794,2.794,0,0,1,2.782,0l1.252.723a.928.928,0,0,1-.927,1.607l-1.252-.723a.936.936,0,0,0-.927,0l-5.335,3.079A.906.906,0,0,1,414.7,356.881Zm-.009,12.254a.938.938,0,0,1-.464-.124l-1.24-.717a2.792,2.792,0,0,1-1.391-2.408v-6.176a.927.927,0,1,1,1.855,0v6.173a.929.929,0,0,0,.464.8l1.24.717a.928.928,0,0,1-.464,1.731Z" transform="matrix(0.309, 0.951, -0.951, 0.309, 1250.939, -371.881)"/>
    <path id="Path_552" data-name="Path 552" d="M218.427,369.041a.928.928,0,0,1-.464-1.731l1.249-.72a.929.929,0,0,0,.464-.8v-6.173a.927.927,0,0,1,1.855,0v6.173a2.786,2.786,0,0,1-1.391,2.408l-1.249.723A.938.938,0,0,1,218.427,369.041Zm0-12.257a.937.937,0,0,1-.464-.124l-5.335-3.082a.936.936,0,0,0-.927,0l-1.246.72a.928.928,0,1,1-.927-1.607l1.246-.72a2.794,2.794,0,0,1,2.782,0l5.335,3.085a.925.925,0,0,1-.464,1.728Z" transform="matrix(0.309, 0.951, -0.951, 0.309, 1311.5, -185.18)"/>
    <path id="Path_524" data-name="Path 524" d="M43.908,12.8A13.751,13.751,0,0,0,34.932,4.9V3.734a1.25,1.25,0,1,0-2.5,0v.72q-.59-.051-1.189-.051H18.653a1.25,1.25,0,0,0,0,2.5H31.245a11.443,11.443,0,0,1,1.189.062V7.6a1.25,1.25,0,0,0,2.5,0V7.518a11.264,11.264,0,0,1,7.557,10.629V31.336A11.245,11.245,0,0,1,31.245,42.582H28.191a1.25,1.25,0,1,0,0,2.5h3.054A13.735,13.735,0,0,0,44.99,31.336V18.146A13.693,13.693,0,0,0,43.908,12.8ZM29.849,31.322A13.741,13.741,0,0,0,6.385,21.6a13.83,13.83,0,0,0-1.527,1.813v-5.27A11.25,11.25,0,0,1,12.4,7.524v.052a1.25,1.25,0,0,0,2.5,0V3.71a1.25,1.25,0,0,0-2.5,0v1.2A13.727,13.727,0,0,0,2.36,18.146v13.19A13.735,13.735,0,0,0,16.105,45.081a1.276,1.276,0,0,0,.2-.016A13.731,13.731,0,0,0,29.849,31.322Zm-5.793,7.952a11.247,11.247,0,1,1,3.294-7.952,11.171,11.171,0,0,1-3.294,7.952Z" transform="translate(1507.996 225.804) rotate(42)" opacity="0.9"/>
    <path id="Path_525" data-name="Path 525" d="M209.776,401a1.246,1.246,0,0,1-.912-.4l-4.042-4.313a1.25,1.25,0,0,1,1.823-1.709l3.19,3.4,11.492-10.7a1.25,1.25,0,1,1,1.7,1.829l-12.4,11.546A1.244,1.244,0,0,1,209.776,401Z" transform="translate(1610.585 -177.57) rotate(42)" opacity="0.9"/>
    <path id="Path_553" data-name="Path 553" d="M186.8,362.572a1.7,1.7,0,0,1-1.216-.5l-11-11a1.719,1.719,0,1,1,2.431-2.431l11,11a1.72,1.72,0,0,1,0,2.431A1.7,1.7,0,0,1,186.8,362.572Zm.011-19.973a1.706,1.706,0,0,1-1.216-.5l-11.01-10.982a1.719,1.719,0,0,1,2.426-2.437l11.01,10.982a1.72,1.72,0,0,1,.006,2.431A1.679,1.679,0,0,1,186.807,342.6Zm-.011,10a1.7,1.7,0,0,1-1.216-.5L174.6,341.113a1.719,1.719,0,0,1,2.431-2.431l10.976,10.976a1.72,1.72,0,0,1-1.216,2.936Z" transform="translate(511.902 619.813)" opacity="0.9"/>
    <path id="Path_554" data-name="Path 554" d="M591.244,130.889a1.7,1.7,0,0,1-1.216-.5,1.72,1.72,0,0,1,0-2.431l21.47-21.47a1.719,1.719,0,0,1,2.431,2.431l-21.47,21.47A1.7,1.7,0,0,1,591.244,130.889Zm0-9.978a1.7,1.7,0,0,1-1.216-.5,1.72,1.72,0,0,1,0-2.431l15.265-15.265-2.558-2.558-10.271,10.27a1.719,1.719,0,0,1-2.431-2.431L601.52,96.5a1.717,1.717,0,0,1,2.431,0l4.989,4.989a1.72,1.72,0,0,1,0,2.431L592.46,120.406A1.72,1.72,0,0,1,591.244,120.911Z" transform="translate(120.276 838.674)" opacity="0.9"/>
    <path id="Path_555" data-name="Path 555" d="M367.655,312.575a1.7,1.7,0,0,1-1.216-.5,1.72,1.72,0,0,1,0-2.431l12.811-12.811a1.719,1.719,0,0,1,2.431,2.431L368.877,312.07A1.719,1.719,0,0,1,367.655,312.575Zm-.011,10a1.7,1.7,0,0,1-1.216-.5,1.72,1.72,0,0,1,0-2.431l12.822-12.822a1.719,1.719,0,0,1,2.431,2.431L368.86,322.066A1.72,1.72,0,0,1,367.644,322.57Zm0,9.978a1.7,1.7,0,0,1-1.216-.5,1.72,1.72,0,0,1,0-2.431l12.822-12.822a1.719,1.719,0,0,1,2.431,2.431L368.86,332.044A1.7,1.7,0,0,1,367.644,332.548Z" transform="translate(331.054 649.836)" opacity="0.9"/>
    <path id="Path_556" data-name="Path 556" d="M11.8,351.62a1.7,1.7,0,0,1-1.216-.5L.6,341.138a1.717,1.717,0,0,1,0-2.431l9.978-9.978a1.719,1.719,0,1,1,2.431,2.431l-8.762,8.762,8.762,8.762a1.72,1.72,0,0,1,0,2.431A1.7,1.7,0,0,1,11.8,351.62Z" transform="translate(675.901 619.766)" opacity="0.9"/>
    <path id="Path_511" data-name="Path 511" d="M10.168,69.711H7.34a.763.763,0,1,1,0-1.526h2.829a.763.763,0,0,1,0,1.526ZM22.178,84.989H4.284A2.287,2.287,0,0,1,2,82.705V64.384A2.287,2.287,0,0,1,4.284,62.1H23.691a.763.763,0,1,1,0,1.526H4.284a.76.76,0,0,0-.758.758V82.705a.76.76,0,0,0,.758.758H22.178a.76.76,0,0,0,.758-.758V74.982a.763.763,0,0,1,1.526,0v7.723A2.287,2.287,0,0,1,22.178,84.989Z" transform="matrix(0.839, -0.545, 0.545, 0.839, 1455.331, 540.645)" opacity="0.9"/>
    <path id="Path_512" data-name="Path 512" d="M181.663,484.534a.763.763,0,1,1,0-1.526L188.9,483h0a.763.763,0,0,1,0,1.526l-7.24.008Z" transform="matrix(0.839, -0.545, 0.545, 0.839, 1085.702, 291.585)" opacity="0.9"/>
    <path id="Path_513" data-name="Path 513" d="M181.663,484.534a.763.763,0,1,1,0-1.526L188.9,483h0a.763.763,0,0,1,0,1.526l-7.24.008Z" transform="matrix(0.839, -0.545, 0.545, 0.839, 1088.18, 295.4)" opacity="0.9"/>
    <path id="Path_514" data-name="Path 514" d="M642.132,121.3a.757.757,0,0,1-.369-.094l-4.235-2.33-.008,0-4.131-2.328a.762.762,0,0,1-.008-1.325l4.233-2.432,4.129-2.432a.763.763,0,0,1,1.15.656v9.527a.758.758,0,0,1-.761.761Zm-3.864-3.76,3.1,1.707v-6.9l-2.981,1.755-.008.005-3.073,1.765Z" transform="matrix(0.839, -0.545, 0.545, 0.839, 914.035, 836.215)" opacity="0.9"/>
    <path id="recruit" d="M100.467,42.837a1.237,1.237,0,0,1-.887-.368L94.4,37.29a1.252,1.252,0,0,1,0-1.774l5.179-5.179a1.255,1.255,0,0,1,1.774,0l5.179,5.179a1.252,1.252,0,0,1,0,1.774l-5.179,5.179A1.237,1.237,0,0,1,100.467,42.837ZM97.062,36.4l3.405,3.405,3.405-3.405L100.467,33Zm13.608-3.748a1.237,1.237,0,0,1-.887-.368l-5.171-5.166a1.252,1.252,0,0,1,0-1.774l1.606-1.6a8.12,8.12,0,0,0,0-11.487l-.008-.008a8.128,8.128,0,0,0-11.483,0l0,0a8.044,8.044,0,0,0-2.3,4.606,8.165,8.165,0,0,0,.879,4.966,1.255,1.255,0,0,1-2.213,1.184,10.737,10.737,0,0,1-1.15-6.5,10.506,10.506,0,0,1,3.012-6.028l0,0a10.63,10.63,0,0,1,15.035,0l.008.008a10.635,10.635,0,0,1,0,15.035l-.715.715,3.393,3.393.728-.728a15.457,15.457,0,1,0-21.866,0l.728.728,4.28-4.28a1.254,1.254,0,1,1,1.774,1.774l-5.166,5.166a1.255,1.255,0,0,1-1.774,0l-1.619-1.615a17.983,17.983,0,1,1,25.414,0l-1.619,1.619A1.248,1.248,0,0,1,110.67,32.655Z" transform="matrix(0.819, 0.574, -0.574, 0.819, 1582.047, 907.212)" opacity="0.2"/>
    <path id="Path_533" data-name="Path 533" d="M38.109,47.362,34.446,26.6a3.3,3.3,0,0,0-6.022-1.231,1.1,1.1,0,0,0,1.845,1.2,1.1,1.1,0,0,1,2.007.41L35.94,47.745a1.1,1.1,0,0,1-1.085,1.293H13.561a1.1,1.1,0,0,0,0,2.2H16.4l-2.006,5.542a1.1,1.1,0,0,1-1.036.727h-.9a1.1,1.1,0,0,1-1.085-.909L7.524,34.891l17.089-8.068a1.1,1.1,0,0,0-.941-1.992L2.5,34.825A3.312,3.312,0,0,0,.659,38.387L2.445,48.516A3.3,3.3,0,0,0,5.7,51.246h2.49l1.018,5.74a3.3,3.3,0,0,0,3.254,2.727h.9a3.314,3.314,0,0,0,3.107-2.18l2.277-6.292H34.856a3.3,3.3,0,0,0,3.254-3.879ZM5.7,49.043a1.1,1.1,0,0,1-1.085-.91L2.829,38a1.1,1.1,0,0,1,.615-1.187l2.017-.952L7.8,49.043H5.7Z" transform="matrix(0.035, 0.999, -0.999, 0.035, 1149.019, 912.925)"/>
    <path id="Path_534" data-name="Path 534" d="M308.618,67.631a3.293,3.293,0,0,1-1.482-.352l-5.073-2.547a1.1,1.1,0,1,1,.988-1.969l5.073,2.547a1.1,1.1,0,0,0,1.417-.383l8.684-13.311a1.1,1.1,0,0,1,1.845,1.2l-8.684,13.31A3.3,3.3,0,0,1,308.618,67.631Z" transform="matrix(0.035, 0.999, -0.999, 0.035, 1165.136, 622.385)"/>
    <path id="Path_533-2" data-name="Path 533" d="M38.109,47.362,34.446,26.6a3.3,3.3,0,0,0-6.022-1.231,1.1,1.1,0,0,0,1.845,1.2,1.1,1.1,0,0,1,2.007.41L35.94,47.745a1.1,1.1,0,0,1-1.085,1.293H13.561a1.1,1.1,0,0,0,0,2.2H16.4l-2.006,5.542a1.1,1.1,0,0,1-1.036.727h-.9a1.1,1.1,0,0,1-1.085-.909L7.524,34.891l17.089-8.068a1.1,1.1,0,0,0-.941-1.992L2.5,34.825A3.312,3.312,0,0,0,.659,38.387L2.445,48.516A3.3,3.3,0,0,0,5.7,51.246h2.49l1.018,5.74a3.3,3.3,0,0,0,3.254,2.727h.9a3.314,3.314,0,0,0,3.107-2.18l2.277-6.292H34.856a3.3,3.3,0,0,0,3.254-3.879ZM5.7,49.043a1.1,1.1,0,0,1-1.085-.91L2.829,38a1.1,1.1,0,0,1,.615-1.187l2.017-.952L7.8,49.043H5.7Z" transform="matrix(0.035, 0.999, -0.999, 0.035, 347.019, 466.779)"/>
    <path id="Path_534-2" data-name="Path 534" d="M308.618,67.631a3.293,3.293,0,0,1-1.482-.352l-5.073-2.547a1.1,1.1,0,1,1,.988-1.969l5.073,2.547a1.1,1.1,0,0,0,1.417-.383l8.684-13.311a1.1,1.1,0,0,1,1.845,1.2l-8.684,13.31A3.3,3.3,0,0,1,308.618,67.631Z" transform="matrix(0.035, 0.999, -0.999, 0.035, 363.136, 176.239)"/>
    <path id="Path_535" data-name="Path 535" d="M26.722,30.295H3.54A3.554,3.554,0,0,1,0,26.443L1.534,8.189A.888.888,0,0,1,3.3,8.337L1.765,26.591A1.78,1.78,0,0,0,3.54,28.52H26.725A1.78,1.78,0,0,0,28.5,26.591L26.746,5.751a1.781,1.781,0,0,0-.4-.979L24.421,2.426a1.772,1.772,0,0,0-1.376-.651H7.217a1.772,1.772,0,0,0-1.376.651L4.581,3.964h18.9a.888.888,0,1,1,0,1.775H3.306A1.171,1.171,0,0,1,2.4,3.825L4.472,1.3A3.528,3.528,0,0,1,7.217,0H23.042A3.538,3.538,0,0,1,25.79,1.3l1.923,2.346A3.531,3.531,0,0,1,28.506,5.6l1.754,20.84a3.554,3.554,0,0,1-3.538,3.852ZM15.131,16.946A7.576,7.576,0,0,1,7.554,9.37a.888.888,0,1,1,1.775,0,5.8,5.8,0,1,0,11.6,0,.888.888,0,1,1,1.775,0,7.576,7.576,0,0,1-7.577,7.577Z" transform="matrix(0.819, 0.574, -0.574, 0.819, 1669.385, 417.782)"/>
    <circle id="Ellipse_46" data-name="Ellipse 46" cx="1.035" cy="1.035" r="1.035" transform="matrix(0.819, 0.574, -0.574, 0.819, 1662.937, 435.277)"/>
    <circle id="Ellipse_47" data-name="Ellipse 47" cx="1.035" cy="1.035" r="1.035" transform="matrix(0.819, 0.574, -0.574, 0.819, 1661.155, 437.822)"/>
    <circle id="Ellipse_48" data-name="Ellipse 48" cx="1.035" cy="1.035" r="1.035" transform="matrix(0.819, 0.574, -0.574, 0.819, 1659.374, 440.366)"/>
    <path id="crm" d="M29.306,216.491a13.356,13.356,0,0,1-9.453-3.888l0,0-7.4-7.4a4.541,4.541,0,0,1,3.212-7.751h.013a4.515,4.515,0,0,1,3.2,1.331l6.779,6.779a2.047,2.047,0,1,0,2.9-2.9l-7.392-7.4a10.872,10.872,0,0,0-7.688-3.158h-.025a10.936,10.936,0,1,0,3.133,21.426,1.253,1.253,0,1,1,.709,2.4,13.455,13.455,0,0,1-13.228-3.3,13.428,13.428,0,0,1,9.378-23.036h.033a13.369,13.369,0,0,1,9.453,3.884l0,0,7.392,7.392a4.549,4.549,0,1,1-6.433,6.433l-6.779-6.775a2.042,2.042,0,0,0-2.874-.008,2.039,2.039,0,0,0-.008,2.891l7.392,7.392A10.935,10.935,0,1,0,29.306,192.1a11,11,0,0,0-2.745.346c-.129.033-.259.071-.388.108a1.251,1.251,0,1,1-.713-2.4l.476-.133a13.485,13.485,0,0,1,3.375-.425,13.445,13.445,0,0,1,0,26.891Z" transform="translate(1537.674 1.503) rotate(71)" opacity="0.2"/>
    <path id="recruit-2" data-name="recruit" d="M100.6,43.155a1.247,1.247,0,0,1-.893-.371L94.49,37.567a1.262,1.262,0,0,1,0-1.787l5.217-5.217a1.264,1.264,0,0,1,1.787,0l5.217,5.217a1.262,1.262,0,0,1,0,1.787l-5.217,5.217A1.247,1.247,0,0,1,100.6,43.155ZM97.17,36.674,100.6,40.1l3.431-3.431L100.6,33.243ZM110.88,32.9a1.247,1.247,0,0,1-.893-.371l-5.209-5.2a1.262,1.262,0,0,1,0-1.787l1.618-1.614a8.18,8.18,0,0,0,0-11.573l-.008-.008a8.188,8.188,0,0,0-11.568,0l0,0a8.1,8.1,0,0,0-2.318,4.64,8.226,8.226,0,0,0,.885,5,1.264,1.264,0,1,1-2.229,1.193,10.817,10.817,0,0,1-1.159-6.549,10.584,10.584,0,0,1,3.034-6.073l0,0a10.709,10.709,0,0,1,15.146,0l.008.008a10.714,10.714,0,0,1,0,15.146l-.721.721,3.418,3.418.733-.733a15.572,15.572,0,1,0-22.029,0l.733.733,4.311-4.311a1.264,1.264,0,0,1,1.787,1.787l-5.2,5.2a1.264,1.264,0,0,1-1.787,0L87.8,30.9a18.117,18.117,0,1,1,25.6,0l-1.631,1.631A1.257,1.257,0,0,1,110.88,32.9Z" transform="matrix(0.788, 0.616, -0.616, 0.788, 1765.311, 192.192)" opacity="0.2"/>
    <path id="Path_536" data-name="Path 536" d="M118.225,42.352h-11.57a1.227,1.227,0,0,1,0-2.455h11.57a6.958,6.958,0,0,0,6.951-6.951V9.905a6.958,6.958,0,0,0-6.951-6.951H95.2A2.042,2.042,0,0,0,93.155,5v6.632a1.227,1.227,0,0,1-2.455,0V5A4.506,4.506,0,0,1,95.2.5h23.025a9.408,9.408,0,0,1,9.405,9.4V32.946A9.4,9.4,0,0,1,118.225,42.352Zm-20.353,0H95.2a4.5,4.5,0,0,1-4.5-4.5V16.541a1.227,1.227,0,0,1,2.455,0V37.856A2.042,2.042,0,0,0,95.2,39.9h2.676a1.227,1.227,0,1,1,0,2.455Z" transform="matrix(0.602, 0.799, -0.799, 0.602, 1577.211, 669.156)"/>
    <path id="Path_537" data-name="Path 537" d="M36.833,724.655H31.927a1.227,1.227,0,0,1,0-2.455h4.905a1.227,1.227,0,0,1,0,2.455Z" transform="matrix(0.602, 0.799, -0.799, 0.602, 2164.638, 298.553)"/>
    <path id="Path_538" data-name="Path 538" d="M36.833,724.655H31.927a1.227,1.227,0,0,1,0-2.455h4.905a1.227,1.227,0,0,1,0,2.455Z" transform="matrix(0.602, 0.799, -0.799, 0.602, 2172.476, 292.646)"/>
    <path id="Path_539" data-name="Path 539" d="M36.833,724.655H31.927a1.227,1.227,0,0,1,0-2.455h4.905a1.227,1.227,0,0,1,0,2.455Z" transform="matrix(0.602, 0.799, -0.799, 0.602, 2180.311, 286.742)"/>
    <path id="Path_540" data-name="Path 540" d="M336.932,387.528H335.3a4.5,4.5,0,0,1-4.5-4.5v-8.207a4.5,4.5,0,0,1,4.5-4.5h10.2v-3.8a3.668,3.668,0,0,0-3.662-3.661,3.576,3.576,0,0,0-2.577,1.109,3.784,3.784,0,0,0-1.084,2.651,1.227,1.227,0,0,1-2.455,0v-.192c0-.053,0-.1.008-.155a6.233,6.233,0,0,1,1.767-4.017,6.01,6.01,0,0,1,4.337-1.853,6.122,6.122,0,0,1,6.116,6.116v5.032a1.226,1.226,0,0,1-1.227,1.227H335.3a2.043,2.043,0,0,0-2.041,2.046v8.207a2.043,2.043,0,0,0,2.046,2.041h1.636a1.229,1.229,0,1,1,0,2.459Z" transform="matrix(0.602, 0.799, -0.799, 0.602, 1714.297, 277.517)"/>
    <path id="Path_541" data-name="Path 541" d="M210.523,244.519a8.6,8.6,0,0,0-12.8,11.44l-3.115,3.112a.955.955,0,0,0,.675,1.631.942.942,0,0,0,.675-.28l3.112-3.112a8.6,8.6,0,0,0,11.456-12.79Zm-6.08,12.768a6.688,6.688,0,1,1,6.688-6.688A6.7,6.7,0,0,1,204.443,257.287Z" transform="matrix(0.799, -0.602, 0.602, 0.799, 1396.154, 19.386)"/>
    <path id="Path_542" data-name="Path 542" d="M76.6,17.688a.954.954,0,0,1-.955-.955V14.1a.954.954,0,0,1,.955-.955h2.628a.955.955,0,1,1,0,1.911H77.552v1.672A.956.956,0,0,1,76.6,17.688Zm5.281,2.65H79.249a.955.955,0,0,1,0-1.911h1.672V16.755a.955.955,0,1,1,1.911,0v2.628A.958.958,0,0,1,81.877,20.338Zm-2.64,12.695a.942.942,0,0,1-.478-.127l-5.319-3.07A16.879,16.879,0,0,1,65,15.216V9.073a.958.958,0,0,1,.478-.828L78.759.579a.949.949,0,0,1,.955,0L93,8.248a.958.958,0,0,1,.478.828v6.14a16.879,16.879,0,0,1-8.44,14.619l-5.319,3.07A.942.942,0,0,1,79.236,33.033ZM66.911,9.627v5.589A14.971,14.971,0,0,0,74.4,28.179l4.841,2.8,4.841-2.8a14.971,14.971,0,0,0,7.484-12.962V9.627L79.236,2.509Z" transform="matrix(0.799, -0.602, 0.602, 0.799, 1636.887, 130.802)"/>
    <path id="Path_543" data-name="Path 543" d="M8.556,27.609a.92.92,0,0,1-.9-.76L3.681,4.33a1.115,1.115,0,0,0-.769-.874L1.139,2.9a.92.92,0,1,1,.546-1.756L3.459,1.7a2.947,2.947,0,0,1,2.034,2.31L9.463,26.529a.92.92,0,0,1-.746,1.065.931.931,0,0,1-.161.014Zm4.373,3.062a.92.92,0,0,1-.159-1.825l16.314-2.877a1.118,1.118,0,1,0-.388-2.2L14.685,26.237a2.957,2.957,0,0,1-3.426-2.4L8.789,9.827a2.957,2.957,0,0,1,2.4-3.426L25.2,3.931a2.957,2.957,0,0,1,3.426,2.4L30.911,19.3a.919.919,0,1,1-1.811.318L26.813,6.648a1.118,1.118,0,0,0-1.295-.907L11.507,8.212a1.118,1.118,0,0,0-.907,1.3l2.47,14.011a1.118,1.118,0,0,0,1.3.907l14.011-2.47A2.957,2.957,0,1,1,29.4,27.779L13.09,30.656A.925.925,0,0,1,12.929,30.67Z" transform="matrix(0.875, -0.485, 0.485, 0.875, 1807.077, 659.68)" opacity="0.9"/>
    <path id="Path_544" data-name="Path 544" d="M497.925,294.106a.92.92,0,0,1-.158-1.825l5.32-.938a.92.92,0,1,1,.319,1.811l-5.32.938A.931.931,0,0,1,497.925,294.106Z" transform="matrix(0.875, -0.485, 0.485, 0.875, 1249.737, 646.962)" opacity="0.9"/>
    <path id="Path_545" data-name="Path 545" d="M206.126,790.24a3.678,3.678,0,1,1,.644-.057A3.678,3.678,0,0,1,206.126,790.24Zm.012-5.5a1.845,1.845,0,0,0-.322.028,1.822,1.822,0,1,0,.322-.028Z" transform="matrix(0.875, -0.485, 0.485, 0.875, 1268.46, 91.79)" opacity="0.9"/>
  </g>
</svg>
