<svg xmlns="http://www.w3.org/2000/svg" xmlns:xlink="http://www.w3.org/1999/xlink" width="350" height="301.497" viewBox="0 0 350 301.497">
  <defs>
    <clipPath id="clip-path">
      <rect id="Rectangle_2608" data-name="Rectangle 2608" width="350" height="190.485" fill="#ddd"/>
    </clipPath>
    <filter id="Path_4167" x="72.675" y="61.137" width="155.631" height="152.274" filterUnits="userSpaceOnUse">
      <feOffset dy="3" input="SourceAlpha"/>
      <feGaussianBlur stdDeviation="3" result="blur"/>
      <feFlood flood-color="#b2b2b2" flood-opacity="0.545"/>
      <feComposite operator="in" in2="blur"/>
      <feComposite in="SourceGraphic"/>
    </filter>
    <filter id="Rectangle_2622" x="141.982" y="159.997" width="75" height="37" filterUnits="userSpaceOnUse">
      <feOffset dy="3" input="SourceAlpha"/>
      <feGaussianBlur stdDeviation="3" result="blur-2"/>
      <feFlood flood-color="#5f6cbe" flood-opacity="0.325"/>
      <feComposite operator="in" in2="blur-2"/>
      <feComposite in="SourceGraphic"/>
    </filter>
    <filter id="Rectangle_2622-2" x="83.982" y="159.997" width="65" height="37" filterUnits="userSpaceOnUse">
      <feOffset dy="3" input="SourceAlpha"/>
      <feGaussianBlur stdDeviation="3" result="blur-3"/>
      <feFlood flood-color="#ddd" flood-opacity="0.325"/>
      <feComposite operator="in" in2="blur-3"/>
      <feComposite in="SourceGraphic"/>
    </filter>
  </defs>
  <g id="Group_6735" data-name="Group 6735" transform="translate(-857.915 -100)">
    <line id="Line_133" data-name="Line 133" x2="248.39" transform="translate(910.344 400.997)" fill="none" stroke="#e8e8e8" stroke-linecap="round" stroke-miterlimit="10" stroke-width="1"/>
    <g id="Group_6618" data-name="Group 6618" transform="translate(857.915 158.937)" opacity="0.102" style="isolation: isolate">
      <g id="Group_6617" data-name="Group 6617" transform="translate(0 0)">
        <g id="Group_6616" data-name="Group 6616" clip-path="url(#clip-path)">
          <path id="Path_4008" data-name="Path 4008" d="M327.38,268.975H285.868a22.028,22.028,0,0,0,7.276-16.551v-4.9c0-14.187,10.711-25.688,23.924-25.688,13.544,0,24.524-11.79,24.524-26.333s-10.98-26.333-24.524-26.333H313.05c-13.213,0-23.924-11.5-23.924-25.688,0-11.838-8.937-21.433-19.963-21.433H113.178c-12.272,0-22.22,10.682-22.22,23.858a24.165,24.165,0,0,0,11.512,20.909H75.07a20.627,20.627,0,0,0-20.691,20.561,24.719,24.719,0,0,1-24.8,24.64H25.418a25.257,25.257,0,1,0,0,50.514,24.722,24.722,0,0,1,24.8,24.64v4.7a20.627,20.627,0,0,0,20.691,20.561h96.28q1.089.1,2.207.1H327.38c12.493,0,22.62-9.751,22.62-21.781s-10.127-21.781-22.62-21.781" transform="translate(0 -122.052)" fill="#ddd"/>
        </g>
      </g>
    </g>
    <g id="Group_6719" data-name="Group 6719" transform="translate(1032.781 254.18)">
      <path id="Path_4161" data-name="Path 4161" d="M10.963,21.464l2.569-2.912L8.052,15.3Z" transform="translate(125.445 0.976)" fill="#c9a75a"/>
      <path id="Path_4163" data-name="Path 4163" d="M21.282,18.072C34.748,18.223,55.9,21.064,88.018,31.1c2.893.9,5.749,1.889,8.6,2.9,8.38,2.979,36.006,11.113,56.477-2.49" transform="translate(-21.282 -6.169)" fill="none" stroke="#ead199" stroke-linecap="round" stroke-miterlimit="15" stroke-width="1" stroke-dasharray="6"/>
      <path id="Path_4165" data-name="Path 4165" d="M14.046,0,9.25,22.1,0,16.274Z" transform="translate(133.496 0)" fill="#e0c588"/>
      <path id="Path_4166" data-name="Path 4166" d="M0,12.162,22.954,0,8.907,16.274Z" transform="translate(124.589 0)" fill="#ead199"/>
    </g>
    <g id="Group_6726" data-name="Group 6726" transform="matrix(0.848, 0.53, -0.53, 0.848, 914.305, 160.97)">
      <path id="Path_4161-2" data-name="Path 4161" d="M2.227,5.346,0,2.822,4.751,0Z" transform="translate(7.425 14.107)" fill="#626eb1"/>
      <path id="Path_4163-2" data-name="Path 4163" d="M114.262,0C102.589.131,84.251,2.594,56.41,11.3c-2.508.784-4.983,1.638-7.453,2.516C41.693,16.395,17.745,23.446,0,11.654" transform="translate(13.638 10.318)" fill="none" stroke="#8592db" stroke-linecap="round" stroke-miterlimit="15" stroke-width="1" stroke-dasharray="6"/>
      <path id="Path_4165-2" data-name="Path 4165" d="M0,0,4.158,19.156l8.018-5.049Z" transform="translate(0 0)" fill="#8592db"/>
      <path id="Path_4166-2" data-name="Path 4166" d="M19.9,10.543,0,0,12.177,14.107Z" transform="translate(0 0)" fill="#9ea9eb"/>
    </g>
    <g id="Group_6694" data-name="Group 6694" transform="translate(891.326 277.197)">
      <path id="Path_4132" data-name="Path 4132" d="M51.674,0S72.666,17.554,98.726,17.916c0,0,27.117,76.153-47.534,105.882,0,0-68.044-19.819-47.235-105.7,0,0,22.333,2.312,47.717-18.1" transform="translate(0 0)" fill="#97c0f0"/>
      <path id="Path_4133" data-name="Path 4133" d="M57.914,12.216s19.321,16.156,43.3,16.489c0,0,24.958,70.089-43.748,97.45,0,0-62.626-18.24-43.474-97.283,0,0,20.554,2.127,43.917-16.656" transform="translate(-6.233 -7.353)" fill="#599ae5"/>
      <g id="Group_6693" data-name="Group 6693" transform="translate(29.64 31.325)">
        <path id="Path_4135" data-name="Path 4135" d="M118.314,83.257A15.565,15.565,0,0,0,91.739,94.263v28.752h31.133V94.263a15.52,15.52,0,0,0-4.558-11.006m-2.436,12.75H98.092a13.769,13.769,0,0,0-1.632.1V93.913a11,11,0,1,1,22,0v2.349a13.163,13.163,0,0,0-2.583-.255" transform="translate(-84.86 -78.695)" fill="#fff"/>
        <path id="Path_4136" data-name="Path 4136" d="M118.708,135.417v17.371a13.231,13.231,0,0,1-13.232,13.232H87.691a13.233,13.233,0,0,1-13.232-13.232V135.417a13.227,13.227,0,0,1,6.879-11.608,13.063,13.063,0,0,1,4.721-1.525,13.768,13.768,0,0,1,1.632-.1h17.785a13.22,13.22,0,0,1,13.232,13.232" transform="translate(-74.459 -104.873)" fill="#ffaf52"/>
        <path id="Path_4137" data-name="Path 4137" d="M126.389,173.006a.889.889,0,0,1-.864,1.1H115.442a.889.889,0,0,1-.868-1.083l2.723-12.42a6.819,6.819,0,1,1,6.09.076Z" transform="translate(-98.019 -120.246)" fill="#dd8f34"/>
        <path id="Path_4138" data-name="Path 4138" d="M126.241,146.1V163.47A13.231,13.231,0,0,1,113.009,176.7H95.224a13.2,13.2,0,0,1-8.049-2.727,14.012,14.012,0,0,0,4.936.9h18.832a14.008,14.008,0,0,0,14.008-14.008V142.473a14.039,14.039,0,0,0-.231-2.536,13.158,13.158,0,0,1,1.521,6.162" transform="translate(-82.113 -115.558)" fill="#ed9f44"/>
      </g>
    </g>
    <g id="Group_6679" data-name="Group 6679" transform="translate(964.58 116.012)">
      <path id="Path_4009" data-name="Path 4009" d="M136.493,52.442h99.383a20.226,20.226,0,0,1,20.362,20.086V317.206a20.241,20.241,0,0,1-20.262,20.22H136.493a20.226,20.226,0,0,1-20.366-20.083q0-.069,0-.138V72.656a19.307,19.307,0,0,1,1.5-7.885A19.8,19.8,0,0,1,122,58.347a20.628,20.628,0,0,1,14.5-5.9" transform="translate(-114.797 -52.442)" fill="#8ca9d8"/>
      <path id="Path_4010" data-name="Path 4010" d="M246.553,139.744h0a1.146,1.146,0,0,1,.489.115,1.536,1.536,0,0,1,.727.727,1.143,1.143,0,0,1,.115.488v28.6a1.146,1.146,0,0,1-.115.488,1.543,1.543,0,0,1-.728.727,1.1,1.1,0,0,1-.975,0,1.545,1.545,0,0,1-.727-.727,1.162,1.162,0,0,1-.115-.488v-28.6a1.159,1.159,0,0,1,.115-.488,1.536,1.536,0,0,1,.727-.727,1.141,1.141,0,0,1,.488-.115" transform="translate(-105.335 -46.681)" fill="#7d9ac7"/>
      <path id="Path_4011" data-name="Path 4011" d="M116.22,116.886h0a1.143,1.143,0,0,1,.488.115,1.538,1.538,0,0,1,.728.727,1.143,1.143,0,0,1,.115.488v20.394a1.143,1.143,0,0,1-.115.488,1.543,1.543,0,0,1-.728.729,1.1,1.1,0,0,1-.975,0,1.546,1.546,0,0,1-.727-.729,1.159,1.159,0,0,1-.115-.488V118.216a1.159,1.159,0,0,1,.115-.488,1.536,1.536,0,0,1,.727-.727,1.143,1.143,0,0,1,.488-.115" transform="translate(-114.89 -48.168)" fill="#7d9ac7"/>
      <path id="Path_4013" data-name="Path 4013" d="M116.22,146.125h0a1.144,1.144,0,0,1,.488.115,1.538,1.538,0,0,1,.728.727,1.143,1.143,0,0,1,.115.488v20.395a1.151,1.151,0,0,1-.115.489,1.543,1.543,0,0,1-.728.727,1.1,1.1,0,0,1-.975,0,1.545,1.545,0,0,1-.727-.727,1.168,1.168,0,0,1-.115-.489V147.455a1.434,1.434,0,0,1,.115-.581,1.177,1.177,0,0,1,.3-.416,1.29,1.29,0,0,1,.426-.25,1.473,1.473,0,0,1,.488-.083" transform="translate(-114.89 -46.229)" fill="#7d9ac7"/>
      <path id="Path_4014" data-name="Path 4014" d="M138.857,58.617h93.667a16.262,16.262,0,0,1,16.353,16.168V313.821a16.261,16.261,0,0,1-16.267,16.253H138.857A16.261,16.261,0,0,1,122.508,313.9V74.87a16.26,16.26,0,0,1,16.267-16.253h.082" transform="translate(-114.306 -51.968)" fill="#eff4fa"/>
      <path id="Path_4015" data-name="Path 4015" d="M169.844,65h25.938a5.644,5.644,0,0,1,2.175.43,5.448,5.448,0,0,1,2.937,2.937,5.7,5.7,0,0,1,0,4.347,5.444,5.444,0,0,1-2.937,2.937,5.645,5.645,0,0,1-2.175.431H169.844a5.645,5.645,0,0,1-2.175-.431,5.449,5.449,0,0,1-2.935-2.934,5.723,5.723,0,0,1,0-4.351,5.455,5.455,0,0,1,2.937-2.937,5.638,5.638,0,0,1,2.173-.43" transform="translate(-111.32 -53.711)" fill="#7d9ac7"/>
    </g>
    <g id="Group_6651" data-name="Group 6651" transform="translate(1082.611 287.109)">
      <path id="Path_2946" data-name="Path 2946" d="M45.4,191.141c-12.883,27.337,3.482,52.2,3.482,52.2,4.079,7.547,4.513,18.436,4.326,25.051" transform="translate(-9.321 -178.718)" fill="none" stroke="#3d8971" stroke-miterlimit="10" stroke-width="1"/>
      <path id="Path_2947" data-name="Path 2947" d="M57.614,172.09c-2.462.228-7.768,2.045-10.088,13.091,0,0,9.868-7.147,11.358-11.361a1.28,1.28,0,0,0-1.272-1.73" transform="translate(-11.785 -172.088)" fill="#46987e"/>
      <path id="Path_2948" data-name="Path 2948" d="M40.258,211.51s5.013-29.978,19.29-25.519c0,0,2.35,2.1-7.424,9.972S40.258,211.51,40.258,211.51" transform="translate(-9.254 -176.769)" fill="#46987e"/>
      <path id="Path_2949" data-name="Path 2949" d="M42.142,209.2s1.289-8.492,12.965-18.135" transform="translate(-9.761 -178.691)" fill="none" stroke="#3a846d" stroke-linecap="round" stroke-miterlimit="10" stroke-width="1"/>
      <path id="Path_2950" data-name="Path 2950" d="M47,243.895s-2.348-27,9.3-27.532a1.735,1.735,0,0,1,1.77,1.7c0,.04,0,.081,0,.121-.056,1.915-.989,5.411-5.527,10.529-5.241,5.912-5.545,15.184-5.545,15.184" transform="translate(-11.533 -187.495)" fill="#46987e"/>
      <path id="Path_2951" data-name="Path 2951" d="M47.8,239.331s-.725-11.933,6.12-16.5" transform="translate(-11.818 -189.749)" fill="none" stroke="#3a846d" stroke-linecap="round" stroke-miterlimit="10" stroke-width="1"/>
      <path id="Path_2952" data-name="Path 2952" d="M54.116,263.615s-4.593-16.091,4.593-18.6a1.212,1.212,0,0,1,1.46.9,1.236,1.236,0,0,1,.033.268c.062,1.477-.411,4.089-3.291,7.692a12.382,12.382,0,0,0-2.8,9.741" transform="translate(-13.681 -197.456)" fill="#46987e"/>
      <path id="Path_2953" data-name="Path 2953" d="M54.309,266.226h0c0-.016-1.934-9.144,2.846-11.537" transform="translate(-14.037 -202.82)" fill="none" stroke="#3a846d" stroke-linecap="round" stroke-miterlimit="10" stroke-width="1"/>
      <path id="Path_2954" data-name="Path 2954" d="M59.67,282.935S58.13,260.1,69,257.683a1.9,1.9,0,0,1,2.249,2.092,12.906,12.906,0,0,1-4.042,8.051,6.874,6.874,0,0,1-.986.805c-1.435.977-6.242,4.932-6.546,14.3" transform="translate(-15.99 -201.863)" fill="#46987e"/>
      <path id="Path_2955" data-name="Path 2955" d="M59.714,284.91s-.546-11.778,6.164-18.593" transform="translate(-16.027 -204.881)" fill="none" stroke="#3a846d" stroke-linecap="round" stroke-miterlimit="10" stroke-width="1"/>
      <path id="Path_2956" data-name="Path 2956" d="M42.772,286.452s-5.194-28.412-25-28.572a7.983,7.983,0,0,0-6.008,2.558c-1.293,1.425-2.037,3.3.175,5.1a6.675,6.675,0,0,0,3.493,1.423c5.413.6,25.989,3.891,27.336,19.491" transform="translate(1.103 -201.943)" fill="#46987e"/>
      <path id="Path_2957" data-name="Path 2957" d="M35.764,256.738s-12.073-21.315-25.289-13.492a2.239,2.239,0,0,0-.22,3.691c1.116.825,3.175,1.6,6.922,1.952,9.782.915,18.586,7.849,18.586,7.849" transform="translate(1.501 -196.251)" fill="#46987e"/>
      <path id="Path_2958" data-name="Path 2958" d="M37.028,256.828s-8.922-10.9-20.317-10.527" transform="translate(-1.05 -197.911)" fill="none" stroke="#3a846d" stroke-linecap="round" stroke-miterlimit="10" stroke-width="1"/>
      <path id="Path_2959" data-name="Path 2959" d="M27.9,235.874s-8.949-22.035-25.63-16.85a3.456,3.456,0,0,0-1.853,1.333c-.869,1.279-.989,3.414,6.1,4.712,10.63,1.947,18.407,3.266,21.384,10.8" transform="translate(4.771 -188.147)" fill="#46987e"/>
      <path id="Path_2960" data-name="Path 2960" d="M8.125,222.609a19.511,19.511,0,0,1,18.266,8.6" transform="translate(1.941 -189.641)" fill="none" stroke="#3a846d" stroke-linecap="round" stroke-miterlimit="10" stroke-width="1"/>
      <path id="Path_2961" data-name="Path 2961" d="M33.018,216.907S30.2,201.99,21.9,203.467a.919.919,0,0,0-.735,1.073.947.947,0,0,0,.035.134c.405,1.184,1.646,3.22,5.443,4.9,5.74,2.543,6.379,7.334,6.379,7.334" transform="translate(-2.596 -182.973)" fill="#46987e"/>
      <path id="Path_2962" data-name="Path 2962" d="M37.821,201.91s1.942-16.856-5.472-18.9a1.081,1.081,0,0,0-1.357,1.1c.048,1.354.663,3.859,3.452,7.905,3.937,5.717,3.377,9.894,3.377,9.894" transform="translate(-6.025 -175.876)" fill="#46987e"/>
      <path id="Path_2963" data-name="Path 2963" d="M34.42,188.2s3.035,2.653,4.448,11.192" transform="translate(-7.22 -177.694)" fill="none" stroke="#3a846d" stroke-linecap="round" stroke-miterlimit="10" stroke-width="1"/>
      <g id="Group_6650" data-name="Group 6650" transform="translate(0 22.968)">
        <path id="Path_2970" data-name="Path 2970" d="M61.821,333.34H56.145a7.427,7.427,0,0,1-7.305-7.545V312.324H69.123v13.467a7.429,7.429,0,0,1-7.305,7.548" transform="translate(-13.569 -242.42)" fill="#623d1b"/>
        <path id="Path_2964" data-name="Path 2964" d="M61.821,333.34H56.145a7.427,7.427,0,0,1-7.305-7.545V312.324H69.123v13.467a7.429,7.429,0,0,1-7.305,7.548" transform="translate(-16.209 -242.42)" fill="#956538"/>
        <rect id="Rectangle_2144" data-name="Rectangle 2144" width="22.92" height="1.667" transform="translate(32.634 72.216)" fill="#80522c"/>
        <rect id="Rectangle_2145" data-name="Rectangle 2145" width="70.539" height="90.919" fill="none"/>
      </g>
    </g>
    <rect id="Rectangle_2624" data-name="Rectangle 2624" width="103.527" height="123.798" transform="translate(879.017 276.078)" fill="none"/>
    <g id="Group_6718" data-name="Group 6718" transform="translate(1071.101 100)">
      <g id="Group_6633" data-name="Group 6633" transform="translate(0 0)">
        <path id="Path_4016" data-name="Path 4016" d="M151.881,124.883h18.257a14.133,14.133,0,0,1,5.539,1.127,14.43,14.43,0,0,1,7.61,7.607,14.125,14.125,0,0,1,1.128,5.539v18.257a14.126,14.126,0,0,1-1.128,5.539,14.43,14.43,0,0,1-7.607,7.61,14.113,14.113,0,0,1-5.539,1.127h-18.26a14.113,14.113,0,0,1-5.539-1.127,14.429,14.429,0,0,1-7.607-7.607,14.123,14.123,0,0,1-1.128-5.542V139.157A14.231,14.231,0,0,1,151.8,124.883h.086" transform="translate(-137.608 -124.883)" fill="#5f6cbe"/>
        <path id="Path_4017" data-name="Path 4017" d="M160.855,167.156a12.194,12.194,0,0,0,3.41,1.851,11.934,11.934,0,0,0,10.931-1.591,1.136,1.136,0,0,1,.383-.2.8.8,0,0,1,.37-.015.9.9,0,0,1,.346.157,1.432,1.432,0,0,1,.31.315,1.146,1.146,0,0,1,.2.406.973.973,0,0,1,.014.406.857.857,0,0,1-.464.617,13.838,13.838,0,0,1-16.648-.258,1.08,1.08,0,0,1-.293-.333,1.054,1.054,0,0,1-.124-.382,1.113,1.113,0,0,1,.02-.382,1.043,1.043,0,0,1,.14-.333.879.879,0,0,1,.256-.315.838.838,0,0,1,.352-.157.927.927,0,0,1,.4.015,1.115,1.115,0,0,1,.4.2ZM182.37,156.49v.52a15.612,15.612,0,0,1-.216,2.6,14.941,14.941,0,0,1-.649,2.506,14.486,14.486,0,0,1-2.593,4.52,1.253,1.253,0,0,1-.328.24,1.157,1.157,0,0,1-.376.118.9.9,0,0,1-.376-.029.768.768,0,0,1-.328-.2,1.273,1.273,0,0,1-.236-.333,1.2,1.2,0,0,1-.117-.382.947.947,0,0,1,.028-.382.79.79,0,0,1,.2-.333,13.246,13.246,0,0,0,1.27-1.846,12.829,12.829,0,0,0,1.677-6.353v-.39a.715.715,0,0,1,.014-.384,1.008,1.008,0,0,1,.2-.348,1.364,1.364,0,0,1,.314-.275,1.3,1.3,0,0,1,.374-.165.684.684,0,0,1,.378.015.984.984,0,0,1,.342.2,1.36,1.36,0,0,1,.27.319,1.327,1.327,0,0,1,.163.38Zm-26.126,3.772q.195.635.433,1.243t.528,1.2q.289.585.624,1.146t.722,1.1a.789.789,0,0,1,.195.333.937.937,0,0,1,.028.382,1.217,1.217,0,0,1-.116.382,1.286,1.286,0,0,1-.236.333.77.77,0,0,1-.328.2.9.9,0,0,1-.376.029,1.157,1.157,0,0,1-.376-.118,1.256,1.256,0,0,1-.328-.24,12.086,12.086,0,0,1-.888-1.238,13.879,13.879,0,0,1-.744-1.347q-.335-.694-.6-1.42c-.176-.482-.328-.97-.454-1.458a1.148,1.148,0,0,1,.1-.8.975.975,0,0,1,.264-.319.96.96,0,0,1,.408-.185.817.817,0,0,1,.378-.006.941.941,0,0,1,.342.152,1.106,1.106,0,0,1,.433.634Zm16.521-11.186a8.949,8.949,0,0,1,2.621,2.465,9.306,9.306,0,0,1,1.593,6.735,9.164,9.164,0,0,1-6.855,7.546,8.824,8.824,0,0,1-3.472.151,8.672,8.672,0,0,1-3.361-1.289,8.949,8.949,0,0,1-2.621-2.465,9.3,9.3,0,0,1-1.593-6.735,8.967,8.967,0,0,1,1.269-3.417c.195-.293.39-.577.6-.851a10.072,10.072,0,0,1,.677-.792,8.372,8.372,0,0,1,.772-.717,7.937,7.937,0,0,1,.892-.632,1.265,1.265,0,0,1,.8-.114,1.061,1.061,0,0,1,.352.132.8.8,0,0,1,.257.242,1.322,1.322,0,0,1,.112.813,1.124,1.124,0,0,1-.13.357.8.8,0,0,1-.239.26,6.931,6.931,0,0,0-3.105,4.438,7.132,7.132,0,0,0,.929,5.316,6.846,6.846,0,0,0,9.6,2.211,6.931,6.931,0,0,0,3.105-4.439,7.135,7.135,0,0,0-.928-5.316,4.885,4.885,0,0,0-.45-.659,6.861,6.861,0,0,0-.559-.61c-.2-.2-.412-.382-.63-.561s-.443-.35-.666-.512a.894.894,0,0,1-.312-.26.97.97,0,0,1-.169-.357,1.149,1.149,0,0,1-.024-.406,1.239,1.239,0,0,1,.12-.406,2.259,2.259,0,0,1,.328-.185,1.66,1.66,0,0,1,.376-.124.939.939,0,0,1,.376,0,.646.646,0,0,1,.328.18Zm-10.245-4.55a1.244,1.244,0,0,1,.12.406,1.153,1.153,0,0,1-.024.406.979.979,0,0,1-.168.357.9.9,0,0,1-.312.259,12.14,12.14,0,0,0-2.6,2.018,12.946,12.946,0,0,0-3.233,5.645,12.435,12.435,0,0,0-.44,3.262.92.92,0,0,1-.088.382,1.2,1.2,0,0,1-.56.57.835.835,0,0,1-.752,0,1.2,1.2,0,0,1-.56-.57.922.922,0,0,1-.089-.382,14.894,14.894,0,0,1,1.97-7.414,15.183,15.183,0,0,1,2.3-3.048A15.462,15.462,0,0,1,161.111,144a1.567,1.567,0,0,1,.4-.047,1.4,1.4,0,0,1,.4.066,1.079,1.079,0,0,1,.352.185.932.932,0,0,1,.256.319Zm12.039-.652a14.434,14.434,0,0,1,2.433,1.62,14.7,14.7,0,0,1,2.063,2.07,14.374,14.374,0,0,1,1.607,2.44,13.583,13.583,0,0,1,1.07,2.714,1.205,1.205,0,0,1,.026.4,1.263,1.263,0,0,1-.106.392,1.021,1.021,0,0,1-.226.319.772.772,0,0,1-.334.185,1.153,1.153,0,0,1-.4.026,1.211,1.211,0,0,1-.386-.108,1,1,0,0,1-.314-.229.794.794,0,0,1-.182-.34,11.734,11.734,0,0,0-.924-2.333,12.589,12.589,0,0,0-1.381-2.089,13.479,13.479,0,0,0-1.764-1.8,14.062,14.062,0,0,0-2.078-1.456.906.906,0,0,1-.313-.259.987.987,0,0,1-.168-.357,1.152,1.152,0,0,1-.024-.406,1.239,1.239,0,0,1,.119-.407.61.61,0,0,1,.182-.264.939.939,0,0,1,.314-.177,1.06,1.06,0,0,1,.386-.055.97.97,0,0,1,.4.1Z" transform="translate(-145.089 -133.837)" fill="#fff"/>
        <path id="Path_4018" data-name="Path 4018" d="M177.574,141.067a1.066,1.066,0,0,1,.715.276,1,1,0,0,1,.235.33,1.072,1.072,0,0,1,.09.437v9.628a4.349,4.349,0,0,1,1.634.989,4.211,4.211,0,0,1,1,1.574,6.484,6.484,0,0,1,.366,2.113,11.744,11.744,0,0,1-.269,2.6,1.1,1.1,0,0,1-.439.634.972.972,0,0,1-.348.152.848.848,0,0,1-.384-.006,1.105,1.105,0,0,1-.634-.439.951.951,0,0,1-.152-.347.84.84,0,0,1,.006-.384.732.732,0,0,1,.02-.175,1.384,1.384,0,0,1,.045-.15c.016-.049.032-.1.045-.151a.761.761,0,0,0,.02-.174h-1.3a.9.9,0,0,1-.382-.09,1.21,1.21,0,0,1-.57-.569.911.911,0,0,1-.089-.382,1.066,1.066,0,0,1,.071-.382,1.042,1.042,0,0,1,.205-.333.993.993,0,0,1,.33-.236,1.061,1.061,0,0,1,.437-.089h1.431a2.42,2.42,0,0,0-.141-.823,2.25,2.25,0,0,0-.4-.689,2.372,2.372,0,0,0-.616-.518,2.719,2.719,0,0,0-.8-.311,1.963,1.963,0,0,0-.481.167,2.332,2.332,0,0,0-.817.674,2,2,0,0,0-.264.461,5.885,5.885,0,0,0-.221.9,6.756,6.756,0,0,0-.088.937,7.974,7.974,0,0,0,.034.961,9.415,9.415,0,0,0,.144.973,1.137,1.137,0,0,1-.1.8.971.971,0,0,1-.684.5,1.135,1.135,0,0,1-.8-.1.971.971,0,0,1-.5-.683v-.132a13.037,13.037,0,0,1-.2-2.657,6.826,6.826,0,0,1,.389-2.1,4.107,4.107,0,0,1,2.539-2.523v-6.764l-1.17.132a1.065,1.065,0,0,1-.38-.072,1.049,1.049,0,0,1-.336-.2.991.991,0,0,1-.236-.33,1.074,1.074,0,0,1-.087-.438,1.108,1.108,0,0,1,.257-.715.949.949,0,0,1,.289-.236.776.776,0,0,1,.362-.089l1.431-.132v-.649a.874.874,0,0,1-.061-.457.8.8,0,0,1,.161-.371.887.887,0,0,1,.3-.25.854.854,0,0,1,.378-.092" transform="translate(-154.506 -132.492)" fill="#e9ca62"/>
      </g>
    </g>
    <g id="Group_6734" data-name="Group 6734" transform="translate(939.59 167.137)">
      <g id="Group_6731" data-name="Group 6731" transform="translate(0 0)">
        <g transform="matrix(1, 0, 0, 1, -81.68, -67.14)" filter="url(#Path_4167)">
          <path id="Path_4167-2" data-name="Path 4167" d="M137.631,11.3V122.9c0,6.243-3.744,11.3-8.362,11.3H114.411c-11.117.056-22.939.117-27.368,0H8.362C3.744,134.207,0,129.146,0,122.9V11.3C0,5.061,3.744,0,8.362,0H129.269c4.618,0,8.362,5.061,8.362,11.3" transform="translate(81.68 67.14)" fill="#fff"/>
        </g>
        <g id="Group_6730" data-name="Group 6730" transform="translate(11.307 98.86)">
          <g id="Group_6723" data-name="Group 6723" transform="translate(58 0)">
            <g transform="matrix(1, 0, 0, 1, -150.98, -166)" filter="url(#Rectangle_2622)">
              <rect id="Rectangle_2622-3" data-name="Rectangle 2622" width="57" height="19" rx="6" transform="translate(150.98 166)" fill="#5f6cbe"/>
            </g>
            <text id="APPROVED" transform="translate(12 11)" fill="#fff" font-size="6" font-family="ZohoPuvi-Bold, Zoho Puvi" font-weight="700"><tspan x="0" y="0">APPROVED</tspan></text>
          </g>
          <g id="Group_6729" data-name="Group 6729" transform="translate(0 0)">
            <g transform="matrix(1, 0, 0, 1, -92.98, -166)" filter="url(#Rectangle_2622-2)">
              <rect id="Rectangle_2622-4" data-name="Rectangle 2622" width="47" height="19" rx="6" transform="translate(92.98 166)" fill="#f7f7f9"/>
            </g>
            <text id="DENY" transform="translate(14 11)" font-size="6" font-family="ZohoPuvi-Bold, Zoho Puvi" font-weight="700" opacity="0.3"><tspan x="0" y="0">DENY</tspan></text>
          </g>
        </g>
        <g id="Group_6733" data-name="Group 6733" transform="translate(11.307 46.86)">
          <rect id="Rectangle_2625" data-name="Rectangle 2625" width="87" height="4" rx="2" transform="translate(14 16)" fill="#f0f2ff"/>
          <rect id="Rectangle_2626" data-name="Rectangle 2626" width="115" height="5" rx="2.5" transform="translate(0 31)" fill="#f0f2ff"/>
          <rect id="Rectangle_2627" data-name="Rectangle 2627" width="59" height="5" rx="2.5" transform="translate(28)" fill="#d3ffd3"/>
        </g>
      </g>
      <g id="Group_6732" data-name="Group 6732" transform="translate(55.947 11.189)">
        <path id="Path_4169" data-name="Path 4169" d="M16.894,1.535a1.52,1.52,0,1,1-3.039.016A1.533,1.533,0,0,1,15.367,0h0A1.531,1.531,0,0,1,16.89,1.534Z" transform="translate(-0.127 0)" fill="#5f6cbe"/>
        <path id="Path_4170" data-name="Path 4170" d="M23.331,16.578V10.432A7.54,7.54,0,0,0,15.975,2.96,7.408,7.408,0,0,0,9.528,6.49a6.739,6.739,0,0,0-.514.938l-.044.1" transform="translate(-0.254 0.336)" fill="none" stroke="#5f6cbe" stroke-miterlimit="10" stroke-width="2"/>
        <path id="Path_4171" data-name="Path 4171" d="M23.473,15.156v.033a7,7,0,0,0,1.449,3.284.715.715,0,0,1-.239.973.684.684,0,0,1-.36.1H7.639" transform="translate(-0.383 1.72)" fill="none" stroke="#5f6cbe" stroke-miterlimit="10" stroke-width="2"/>
        <path id="Path_4172" data-name="Path 4172" d="M8.554,14.21l-.005,1.052A8.433,8.433,0,0,1,7.1,18.58a.715.715,0,0,0,.236.972.7.7,0,0,0,.363.1H24.384" transform="translate(-0.444 1.613)" fill="none" stroke="#5f6cbe" stroke-miterlimit="10" stroke-width="2"/>
        <path id="Path_4173" data-name="Path 4173" d="M17.608,20.008a2.3,2.3,0,1,1-4.6,0Z" transform="translate(0.134 2.271)" fill="#5f6cbe"/>
        <path id="Path_4174" data-name="Path 4174" d="M1.1,10h9.867a1.114,1.114,0,0,1,0,2.227H1.1A1.114,1.114,0,0,1,1.1,10" transform="translate(0 1.135)" fill="#5f6cbe"/>
        <path id="Path_4175" data-name="Path 4175" d="M4.1,6h6.578a1.114,1.114,0,0,1,0,2.227H4.1A1.114,1.114,0,0,1,4.1,6" transform="translate(0.289 0.681)" fill="#5f6cbe"/>
        <path id="Path_4176" data-name="Path 4176" d="M3.1,14h7.675a1.114,1.114,0,0,1,0,2.227H3.1A1.114,1.114,0,0,1,3.1,14" transform="translate(0.193 1.589)" fill="#5f6cbe"/>
        <ellipse id="Ellipse_452" data-name="Ellipse 452" cx="3" cy="3.5" rx="3" ry="3.5" transform="translate(19.359 4.671)" fill="#ff6969"/>
      </g>
    </g>
  </g>
</svg>
