<?xml version="1.0" encoding="UTF-8"?>
<svg width="320px" height="240px" viewBox="0 0 320 240" version="1.1" xmlns="http://www.w3.org/2000/svg" xmlns:xlink="http://www.w3.org/1999/xlink">
    <title>TOTP (with laptop)</title>
    <defs>
        <path d="M9.74001819,1.4379085 L50.0014561,1.4379085 C53.9721308,1.4379085 57.6132175,4.65677631 58.1340509,8.62745098 L70.01651,99.2156863 C70.5373434,103.186361 67.7406945,106.405229 63.7700198,106.405229 L23.5085819,106.405229 C19.5379072,106.405229 15.8968205,103.186361 15.3759871,99.2156863 L3.49352802,8.62745098 C2.97269461,4.65677631 5.76934352,1.4379085 9.74001819,1.4379085 Z" id="path-1"></path>
        <path d="M55.7040307,7.95144389 L62.4150857,58.127451 L62.4150857,58.127451 C62.9359192,62.0981257 60.1392702,65.3169935 56.1685956,65.3169935 L15.9071577,65.3169935 C11.936483,65.3169935 8.29539628,62.0981257 7.77456287,58.127451 L1.69346019e-13,0 L46.618272,0 C51.2112009,-3.14669078e-15 55.0951473,3.39905372 55.7040307,7.95144389 Z" id="path-3"></path>
        <filter x="-15.2%" y="-13.0%" width="130.4%" height="129.1%" filterUnits="objectBoundingBox" id="filter-4">
            <feOffset dx="0" dy="1" in="SourceAlpha" result="shadowOffsetOuter1"></feOffset>
            <feGaussianBlur stdDeviation="3" in="shadowOffsetOuter1" result="shadowBlurOuter1"></feGaussianBlur>
            <feColorMatrix values="0 0 0 0 0   0 0 0 0 0   0 0 0 0 0  0 0 0 0.0835336538 0" type="matrix" in="shadowBlurOuter1"></feColorMatrix>
        </filter>
    </defs>
    <g id="TOTP-(with-laptop)" stroke="none" stroke-width="1" fill="none" fill-rule="evenodd">
        <g id="PushIllustration" transform="translate(3.000000, 13.000000)">
            <path d="M108.314253,182.886859 C94.9921318,121.635648 81.670011,91.0100421 45.7002847,49.732052 C9.73055852,8.45406188 106.982041,-14.1822553 188.246978,9.78560995 C269.511915,33.7534752 297.488368,91.0100421 258.854218,148.266609 C220.220068,205.523176 121.636373,244.13807 108.314253,182.886859 Z" id="Path-5" fill="#F3FAFF" transform="translate(157.000000, 107.000000) rotate(-180.000000) translate(-157.000000, -107.000000) "></path>
            <g id="Group-8" transform="translate(0.000000, 28.000000)">
                <path d="M89.2260749,158.089044 C135.495968,158.089044 170.198387,158.089044 193.333333,158.089044 C216.408586,158.089044 251.021465,158.089044 297.17197,158.089044 C298.984525,158.089044 299.701686,153.351275 298.888889,153.065069 C285.461173,148.336855 264.455198,143.185484 235.870966,137.610957 C234.858853,137.254568 232.294556,136.927012 230.143448,136.879341 C229.970743,136.875513 229.803634,136.873593 229.643228,136.873593 L19.888547,130.232558 C18.0759922,130.232558 19.2170148,134.892778 20.1352207,135.2161 L82.9983367,157.351681 C84.0104499,157.708069 86.574747,158.035625 88.7258547,158.083297 C88.8985594,158.087124 89.0656683,158.089044 89.2260749,158.089044 Z" id="Rectangle" fill="#0270C2"></path>
                <path d="M4.13368945,1.11111111 L212.079585,1.11111111 C213.892139,1.11111111 215.424907,2.45250245 215.66522,4.24905603 L232.117752,127.246472 C232.382642,129.226764 230.992034,131.046843 229.011743,131.311733 C228.852752,131.333 228.692523,131.343669 228.532117,131.343669 L20.5862214,131.343669 C18.7736666,131.343669 17.2408991,130.002278 17.0005863,128.205724 L0.548054342,5.20830831 C0.283164138,3.22801672 1.67377172,1.40793727 3.65406331,1.14304706 C3.81305384,1.12177997 3.97328285,1.11111111 4.13368945,1.11111111 Z" id="Rectangle" fill="#0270C2"></path>
                <path d="M5.24480056,0 L213.190696,0 C215.003251,1.90408692e-14 216.536018,1.34139134 216.776331,3.13794492 L233.228863,126.135361 C233.493753,128.115653 232.103145,129.935732 230.122854,130.200622 C229.963863,130.221889 229.803634,130.232558 229.643228,130.232558 L21.6973325,130.232558 C19.8847777,130.232558 18.3520102,128.891167 18.1116974,127.094613 L1.65916545,4.0971972 C1.39427525,2.11690561 2.78488283,0.296826155 4.76517442,0.0319359507 C4.92416495,0.0106688631 5.08439396,2.24991226e-15 5.24480056,0 Z" id="Rectangle" fill="#29A3FF"></path>
                <polygon id="Rectangle" fill="#FFFFFF" points="5 4 213.010336 4 230.430664 126.997416 22.420328 126.997416"></polygon>
                <path d="M89.2260749,153.670231 L297.17197,153.670231 C298.984525,153.670231 299.652288,153.428824 298.734082,153.105502 L235.870966,130.969922 C234.858853,130.613533 232.294556,130.285977 230.143448,130.238306 C229.970743,130.234478 229.803634,130.232558 229.643228,130.232558 L21.6973325,130.232558 C19.8847777,130.232558 19.2170148,130.473965 20.1352207,130.797287 L82.9983367,152.932868 C84.0104499,153.289256 86.574747,153.616812 88.7258547,153.664484 C88.8985594,153.668311 89.0656683,153.670231 89.2260749,153.670231 Z" id="Rectangle" fill="#5FBAFF"></path>
                <path d="M47.6295401,133 L225.822366,133 C225.939869,133 226.056453,133.020709 226.166767,133.061178 L256.152248,144.061178 C256.670746,144.251385 256.936877,144.825904 256.746669,145.344402 C256.602203,145.738209 256.227316,146 255.807847,146 L77.6150212,146 C77.497518,146 77.3809343,145.979291 77.2706197,145.938822 L47.2851385,134.938822 C46.7666412,134.748615 46.5005099,134.174096 46.6907176,133.655598 C46.8351836,133.261791 47.2100707,133 47.6295401,133 Z" id="Rectangle" fill-opacity="0.540537587" fill="#218BDA"></path>
            </g>
            <g id="Group-3" transform="translate(81.000000, 53.000000)">
                <path d="M1.43619854,0 L78.0801725,0 C78.9620329,0 79.752887,0.7163444 79.8465946,1.6 L87.9908783,78.4 C88.0845859,79.2836556 87.4456618,80 86.5638015,80 L9.91982745,80 C9.03796708,80 8.24711299,79.2836556 8.15340542,78.4 L0.00912165959,1.6 C-0.0845859179,0.7163444 0.554338165,0 1.43619854,0 Z" id="Rectangle" stroke="#D6E5ED" stroke-width="0.5" fill="#FFFFFF"></path>
                <path d="M10.8933135,10 L24.8933135,10 C25.4455983,10 25.943977,10.4477153 26.0064735,11 L26.4591133,15 C26.5216099,15.5522847 26.1245581,16 25.5722733,16 L11.5722733,16 C11.0199886,16 10.5216099,15.5522847 10.4591133,15 L10.0064735,11 C9.94397698,10.4477153 10.3410288,10 10.8933135,10 Z" id="Rectangle" fill="#F3F3F3"></path>
                <path d="M12.7512331,22 L55.7512331,22 C56.5796602,22 57.3272282,22.6715729 57.420973,23.5 C57.5147178,24.3284271 56.9191401,25 56.090713,25 L13.090713,25 C12.2622858,25 11.5147178,24.3284271 11.420973,23.5 C11.3272282,22.6715729 11.9228059,22 12.7512331,22 Z" id="Rectangle" fill="#F3F3F3"></path>
                <path d="M13.5433528,29 L41.0433528,29 C41.8717799,29 42.619348,29.6715729 42.7130927,30.5 C42.8068375,31.3284271 42.2112598,32 41.3828327,32 L13.8828327,32 C13.0544056,32 12.3068375,31.3284271 12.2130927,30.5 C12.119348,29.6715729 12.7149257,29 13.5433528,29 Z" id="Rectangle" fill="#F3F3F3"></path>
                <path d="M16.3158284,42 L71.9069114,42 C72.7148616,42 73.4394329,42.6268014 73.5252867,43.4 L73.9916428,47.6 C74.0774966,48.3731986 73.4921218,49 72.6841716,49 L17.0930886,49 C16.2851384,49 15.5605671,48.3731986 15.4747133,47.6 L15.0083572,43.4 C14.9225034,42.6268014 15.5078782,42 16.3158284,42 Z" id="Rectangle" stroke="#DDDCDC" stroke-width="0.5" fill="#FBFBFB"></path>
                <path d="M18.3158284,55 L73.9069114,55 C74.7148616,55 75.4394329,55.6268014 75.5252867,56.4 L75.9916428,60.6 C76.0774966,61.3731986 75.4921218,62 74.6841716,62 L19.0930886,62 C18.2851384,62 17.5605671,61.3731986 17.4747133,60.6 L17.0083572,56.4 C16.9225034,55.6268014 17.5078782,55 18.3158284,55 Z" id="Rectangle" fill="#159AFF"></path>
            </g>
            <g id="Group-2" transform="translate(243.000000, 41.000000)">
                <path d="M8.83245348,0 L48.3749371,0 C53.9338817,0 59.0314031,4.50641494 59.7605698,10.0653595 L71.5487237,99.9346405 C72.2778905,105.493585 68.362582,110 62.8036374,110 L23.2611538,110 C17.7022092,110 12.6046878,105.493585 11.8755211,99.9346405 L0.0873672348,10.0653595 C-0.641799536,4.50641494 3.27350894,0 8.83245348,0 Z" id="Rectangle" fill="#29A3FF"></path>
                <path d="M9.55140773,0 L49.8128456,0 C54.5776552,0 58.9469593,3.86264137 59.5719594,8.62745098 L71.4544185,99.2156863 C72.0794185,103.980496 68.7234399,107.843137 63.9586302,107.843137 L23.6971923,107.843137 C18.9323827,107.843137 14.5630787,103.980496 13.9380786,99.2156863 L2.05561952,8.62745098 C1.43061943,3.86264137 4.78659812,0 9.55140773,0 Z" id="Rectangle" fill="#0270C2"></path>
                <mask id="mask-2" fill="white">
                    <use xlink:href="#path-1"></use>
                </mask>
                <use id="Rectangle" fill="#F8F8F8" xlink:href="#path-1"></use>
                <g id="Group" mask="url(#mask-2)">
                    <g transform="translate(7.791667, 41.250000)">
                        <g id="Rectangle" fill="none">
                            <use fill="black" fill-opacity="1" filter="url(#filter-4)" xlink:href="#path-3"></use>
                            <use fill="#FFFFFF" fill-rule="evenodd" xlink:href="#path-3"></use>
                        </g>
                        <path d="M19.4559176,5.5 L37.3309176,5.5 C38.3434396,5.5 39.2683393,6.32081129 39.3967389,7.33333333 C39.5251384,8.34585537 38.8084155,9.16666667 37.7958935,9.16666667 L19.9208935,9.16666667 C18.9083715,9.16666667 17.9834718,8.34585537 17.8550722,7.33333333 C17.7266726,6.32081129 18.4433955,5.5 19.4559176,5.5 Z" id="Rectangle" fill="#F2F2F2" fill-rule="evenodd"></path>
                        <path d="M11.7721919,12.375 L46.2999697,12.375 C46.8906075,12.375 47.4301323,12.8538066 47.5050321,13.4444444 L47.5244061,13.5972222 C47.5993058,14.1878601 47.1812175,14.6666667 46.5905796,14.6666667 L12.0628018,14.6666667 C11.472164,14.6666667 10.9326392,14.1878601 10.8577394,13.5972222 L10.8383654,13.4444444 C10.7634657,12.8538066 11.181554,12.375 11.7721919,12.375 Z" id="Rectangle-Copy" fill="#F2F2F2" fill-rule="evenodd"></path>
                        <path d="M16.3621678,16.0416667 L43.0982789,16.0416667 C43.6889168,16.0416667 44.2284416,16.5204733 44.3033414,17.1111111 L44.3227154,17.2638889 C44.3976151,17.8545267 43.9795267,18.3333333 43.3888889,18.3333333 L16.6527778,18.3333333 C16.0621399,18.3333333 15.5226151,17.8545267 15.4477154,17.2638889 L15.4283414,17.1111111 C15.3534416,16.5204733 15.77153,16.0416667 16.3621678,16.0416667 Z" id="Rectangle-Copy" fill="#F2F2F2" fill-rule="evenodd"></path>
                        <g id="Group-13" stroke-width="1" fill="none" fill-rule="evenodd" transform="translate(18.333333, 25.208333)">
                            <g id="Group-6" fill-rule="nonzero">
                                <path d="M12.0175083,5.50420429e-15 C4.43072339,5.50420429e-15 -0.893781462,6.15030433 0.124893815,13.7370892 C1.14356909,21.3238741 8.1196729,27.4741784 15.7064578,27.4741784 C23.2932426,27.4741784 28.6177475,21.3238741 27.5990722,13.7370892 C26.5803969,6.15030433 19.6042931,5.50420429e-15 12.0175083,5.50420429e-15 Z M12.2116635,1.44600939 C18.9998394,1.44600939 25.2416165,6.94891326 26.1530628,13.7370892 C27.0645091,20.5252651 22.3004785,26.028169 15.5123025,26.028169 C8.72412659,26.028169 2.48234951,20.5252651 1.5709032,13.7370892 C0.659456904,6.94891326 5.42348756,1.44600939 12.2116635,1.44600939 Z" id="Oval" fill="#F7F7F7"></path>
                                <path d="M16.7474096,14.8855854 L16.6578214,14.2183594 L17.0073207,14.2183594 L16.9410539,13.7248239 L16.5915545,13.7248239 L16.3333129,11.8015185 L15.714805,11.8015185 L14.7018174,13.832851 L14.7811159,14.2183594 L16.045668,14.2183594 L16.1352562,14.8855854 L16.7474096,14.8855854 Z M15.9794012,13.7248239 L15.2973479,13.7248239 L15.802356,12.7059804 L15.8332159,12.6360805 L15.9794012,13.7248239 Z M18.6324863,14.9279489 C18.8457162,14.9279489 19.0248734,14.8845263 19.1699579,14.797681 C19.3150424,14.7108357 19.4190247,14.5886875 19.4819048,14.4312362 C19.5447849,14.273785 19.5628578,14.0955051 19.5361236,13.8963963 C19.4921353,13.5687848 19.3745966,13.3138974 19.1835076,13.1317342 C18.9924186,12.9495709 18.7500138,12.8584892 18.4562932,12.8584892 C18.2924874,12.8584892 18.1430746,12.8973225 18.0080546,12.974989 L17.9952896,12.3119993 L19.2217145,12.3119993 L19.1531724,11.8015185 L17.4247393,11.8015185 L17.4572736,13.3689701 L17.9606657,13.4897062 L18.0125801,13.4346336 C18.0927171,13.3583792 18.2055096,13.320252 18.3509579,13.320252 C18.5091151,13.320252 18.6375203,13.3668519 18.7361735,13.4600517 C18.8348266,13.5532515 18.8959087,13.6874028 18.9194197,13.8625055 C18.9438787,14.0446688 18.9253706,14.1855276 18.8638955,14.285082 C18.8024203,14.3846363 18.7024889,14.4344135 18.5641013,14.4344135 C18.4398349,14.4344135 18.3344339,14.3987575 18.2478984,14.3274455 C18.1613629,14.2561335 18.1031136,14.1562262 18.0731505,14.0277234 L17.4673517,14.0277234 C17.4965111,14.2028261 17.5665336,14.3588652 17.677419,14.4958407 C17.7883044,14.6328162 17.9286037,14.7390781 18.098317,14.8146264 C18.2680302,14.8901748 18.4460867,14.9279489 18.6324863,14.9279489 Z M21.2977189,14.9279489 C21.4982397,14.9279489 21.6718644,14.8827612 21.8185931,14.7923856 C21.9653217,14.70201 22.0712064,14.5756254 22.1362472,14.4132317 C22.2012879,14.2508381 22.2203463,14.0693809 22.1934225,13.86886 C22.1513302,13.5553697 22.0383123,13.3026005 21.8543688,13.1105524 C21.6704253,12.9185043 21.4443023,12.8224802 21.1759998,12.8224802 C20.9260548,12.8224802 20.7303661,12.9057952 20.5889337,13.0724252 C20.5894541,12.8238923 20.664703,12.629726 20.8146803,12.4899263 C20.9646576,12.3501265 21.1777494,12.2781085 21.4539558,12.2738721 L21.5132648,12.2738721 L21.4455759,11.7697458 L21.3439034,11.7697458 C21.0320148,11.7711579 20.7672384,11.8421169 20.5495742,11.9826227 C20.33191,12.1231285 20.1770923,12.3215311 20.0851209,12.5778307 C19.9931496,12.8341302 19.969632,13.129616 20.0145684,13.4642881 L20.0441467,13.6845786 C20.0947712,14.0616142 20.2351592,14.3631015 20.4653107,14.5890405 C20.6954622,14.8149795 20.9729316,14.9279489 21.2977189,14.9279489 Z M21.218743,14.4344135 C21.0732948,14.4344135 20.9525989,14.3768697 20.8566553,14.261782 C20.7607118,14.1466944 20.6989937,13.9867719 20.671501,13.7820147 L20.6464732,13.5956151 C20.6732241,13.510888 20.7233846,13.4427533 20.7969548,13.3912109 C20.870525,13.3396686 20.9567343,13.3138974 21.0555825,13.3138974 C21.1939702,13.3138974 21.311036,13.3654398 21.40678,13.4685244 C21.502524,13.5716091 21.5616775,13.7071725 21.5842405,13.8752146 C21.6064242,14.0404324 21.5838857,14.1749367 21.5166248,14.2787274 C21.4493639,14.3825182 21.35007,14.4344135 21.218743,14.4344135 Z" id="456" fill="#000000"></path>
                                <path d="M7.02426739,14.8855854 L6.60960186,11.7972821 L6.54393835,11.7972821 L5.32810905,12.2548085 L5.39494472,12.7525803 L6.09528451,12.5259353 L6.412114,14.8855854 L7.02426739,14.8855854 Z M10.2847079,14.8855854 L10.218441,14.39205 L8.89246173,14.39205 L9.49432052,13.6528059 C9.65811754,13.4424002 9.7689375,13.2581188 9.82678041,13.0999615 C9.88462332,12.9418042 9.90330612,12.7864712 9.88282881,12.6339624 C9.84547668,12.355775 9.72865758,12.1404269 9.53237151,11.9879181 C9.33608544,11.8354093 9.07907907,11.7591549 8.7613524,11.7591549 C8.55377097,11.7591549 8.37400253,11.8032836 8.22204707,11.891541 C8.07009162,11.9797985 7.95970739,12.1015937 7.89089438,12.2569267 C7.82208137,12.4122598 7.80028358,12.5838322 7.82550101,12.7716439 L8.43977258,12.7716439 C8.41891606,12.6163109 8.44198099,12.4909854 8.50896736,12.3956674 C8.57595374,12.3003494 8.67864074,12.2526904 8.81702836,12.2526904 C8.94553115,12.2526904 9.04964098,12.2918767 9.12935785,12.3702492 C9.20907472,12.4486218 9.25812898,12.5562958 9.27652064,12.6932713 C9.28998258,12.7935318 9.27137117,12.8994407 9.22068643,13.010998 C9.17000169,13.1225554 9.08622063,13.2531763 8.96934323,13.4028609 L8.11445383,14.4661862 L8.17076644,14.8855854 L10.2847079,14.8855854 Z M11.7842762,14.9279489 C12.1132999,14.9279489 12.3666272,14.84534 12.5442582,14.6801221 C12.7218892,14.5149043 12.7923131,14.2953198 12.7555298,14.0213688 C12.7327772,13.8519146 12.6703417,13.7050543 12.5682233,13.5807879 C12.4661049,13.4565214 12.3240292,13.3633216 12.141996,13.3011884 C12.2732635,13.237643 12.3740035,13.1465614 12.4442159,13.0279434 C12.5144283,12.9093255 12.5400543,12.7794106 12.5210939,12.6381987 C12.4843105,12.3642477 12.3629495,12.1492527 12.1570106,11.9932136 C11.9510717,11.8371745 11.6850026,11.7591549 11.3588032,11.7591549 C11.1709915,11.7591549 11.003901,11.795164 10.8575317,11.867182 C10.7111625,11.9392 10.6031348,12.0391074 10.5334487,12.1669042 C10.4637627,12.2947009 10.4397271,12.43909 10.461342,12.6000715 L11.0734954,12.6000715 C11.0596543,12.4969869 11.0879595,12.4133188 11.1584111,12.3490675 C11.2288628,12.2848161 11.3226915,12.2526904 11.4398973,12.2526904 C11.5698122,12.2526904 11.6764831,12.2872873 11.75991,12.3564811 C11.8433368,12.4256749 11.8933929,12.522405 11.9100781,12.6466714 C11.9273321,12.7751742 11.9037521,12.8782589 11.8393381,12.9559254 C11.7749241,13.0335919 11.6650505,13.0724252 11.5097175,13.0724252 L11.1835181,13.0724252 L11.2477941,13.5511334 L11.5718753,13.5511334 C11.9107838,13.5511334 12.1009049,13.7050543 12.1422388,14.0128961 C12.1593032,14.1399868 12.1316977,14.2420124 12.0594222,14.3189728 C11.9871467,14.3959333 11.8782849,14.4344135 11.7328366,14.4344135 C11.605746,14.4344135 11.4938483,14.3976984 11.3971435,14.3242683 C11.3004388,14.2508381 11.2443126,14.1562262 11.228765,14.0404324 L10.6166117,14.0404324 C10.652447,14.3073228 10.7790561,14.5219649 10.996439,14.6843585 C11.213822,14.8467521 11.4764344,14.9279489 11.7842762,14.9279489 Z" id="123" fill="#000000"></path>
                                <path d="M12.0563393,0.289201878 C12.295922,0.289201878 12.51622,0.483422015 12.5483887,0.723004695 C12.5805574,0.962587375 12.4124151,1.15680751 12.1728325,1.15680751 C5.22493473,1.15680751 0.34880923,6.78919148 1.28170133,13.7370892 C1.7750833,17.4116486 3.8176569,20.8288976 6.84729192,23.2035687 C7.04870329,23.3614378 7.10361709,23.6355085 6.96994531,23.8157229 C6.83627353,23.9959372 6.56463496,24.0140516 6.36322359,23.8561825 C3.12557128,21.3184645 0.94140504,17.6643295 0.414095693,13.7370892 C-0.583133789,6.31002612 4.62927623,0.289201878 12.0563393,0.289201878 Z" id="Path" fill="#32BC95"></path>
                            </g>
                        </g>
                    </g>
                </g>
            </g>
            <path d="M266,124 C246.666667,142 229.666667,140.333333 215,119 C193,87 174,98 162,98" id="Path-2" stroke="#159AFF" stroke-width="1.6" stroke-linecap="round" stroke-dasharray="4,4"></path>
        </g>
        <polyline id="Path" stroke="#159AFF" stroke-width="1.6" stroke-linecap="round" stroke-linejoin="round" transform="translate(164.847041, 110.966014) rotate(-4.900000) translate(-164.847041, -110.966014) " points="167.847041 106.466014 161.847041 110.966014 167.847041 115.466014"></polyline>
    </g>
</svg>