<?xml version="1.0" encoding="UTF-8"?>
<svg width="360px" height="287px" viewBox="0 0 360 287" version="1.1" xmlns="http://www.w3.org/2000/svg" xmlns:xlink="http://www.w3.org/1999/xlink">
    <!-- Generator: Sketch 64 (93537) - https://sketch.com -->
    <title>UpdateProfile</title>
    <desc>Created with Sketch.</desc>
    <defs>
        <path d="M327.105926,283.755416 C347.826553,254.431051 360,218.637156 360,180 C360,80.588745 279.411255,0 180,0 C80.588745,0 0,80.588745 0,180 C0,219.263504 12.5713346,255.590815 33.9085046,285.176435 C102.24,285.84 228.96,285.12 327.105926,283.755416 Z" id="path-1"></path>
        <linearGradient x1="100%" y1="48.0025025%" x2="0.0118765542%" y2="52.4685339%" id="linearGradient-3">
            <stop stop-color="#007DE2" offset="0%"></stop>
            <stop stop-color="#0070DD" offset="100%"></stop>
        </linearGradient>
        <circle id="path-4" cx="82" cy="82" r="82"></circle>
        <circle id="path-6" cx="82" cy="82" r="82"></circle>
        <filter x="-15.2%" y="-15.2%" width="130.5%" height="130.5%" filterUnits="objectBoundingBox" id="filter-8">
            <feGaussianBlur stdDeviation="10" in="SourceAlpha" result="shadowBlurInner1"></feGaussianBlur>
            <feOffset dx="-30" dy="-19" in="shadowBlurInner1" result="shadowOffsetInner1"></feOffset>
            <feComposite in="shadowOffsetInner1" in2="SourceAlpha" operator="arithmetic" k2="-1" k3="1" result="shadowInnerInner1"></feComposite>
            <feColorMatrix values="0 0 0 0 0   0 0 0 0 0   0 0 0 0 0  0 0 0 0.25 0" type="matrix" in="shadowInnerInner1" result="shadowMatrixInner1"></feColorMatrix>
            <feGaussianBlur stdDeviation="10" in="SourceAlpha" result="shadowBlurInner2"></feGaussianBlur>
            <feOffset dx="10" dy="11" in="shadowBlurInner2" result="shadowOffsetInner2"></feOffset>
            <feComposite in="shadowOffsetInner2" in2="SourceAlpha" operator="arithmetic" k2="-1" k3="1" result="shadowInnerInner2"></feComposite>
            <feColorMatrix values="0 0 0 0 1   0 0 0 0 1   0 0 0 0 1  0 0 0 0.25 0" type="matrix" in="shadowInnerInner2" result="shadowMatrixInner2"></feColorMatrix>
            <feMerge>
                <feMergeNode in="shadowMatrixInner1"></feMergeNode>
                <feMergeNode in="shadowMatrixInner2"></feMergeNode>
            </feMerge>
        </filter>
        <linearGradient x1="50%" y1="0%" x2="50%" y2="100%" id="linearGradient-9">
            <stop stop-color="#0070DD" offset="0%"></stop>
            <stop stop-color="#00AAF3" offset="100%"></stop>
        </linearGradient>
    </defs>
    <g id="New" stroke="none" stroke-width="1" fill="none" fill-rule="evenodd">
        <g id="CCPA2" transform="translate(-850.000000, -100.000000)">
            <g id="UpdateProfile" transform="translate(850.000000, 100.000000)">
                <g id="bg">
                    <mask id="mask-2" fill="white">
                        <use xlink:href="#path-1"></use>
                    </mask>
                    <use id="Oval" fill="#F0F9FF" xlink:href="#path-1"></use>
                    <g id="Group-5" mask="url(#mask-2)" stroke="#D6ECFB" stroke-linejoin="round" stroke-width="2">
                        <g transform="translate(298.000000, 179.000000) rotate(-45.000000) translate(-298.000000, -179.000000) translate(290.000000, 171.000000)" id="Rectangle">
                            <polygon points="8 0 8 12.8 -5.68434189e-14 16"></polygon>
                            <polygon transform="translate(12.000000, 8.000000) scale(-1, 1) translate(-12.000000, -8.000000) " points="16 0 16 12.8 8 16"></polygon>
                        </g>
                    </g>
                    <g id="Group-5" mask="url(#mask-2)" stroke="#D6ECFB" stroke-linejoin="round" stroke-width="2">
                        <g transform="translate(218.000000, 39.000000) rotate(75.000000) translate(-218.000000, -39.000000) translate(210.000000, 31.000000)" id="Rectangle">
                            <polygon points="8 0 8 12.8 -5.68434189e-14 16"></polygon>
                            <polygon transform="translate(12.000000, 8.000000) scale(-1, 1) translate(-12.000000, -8.000000) " points="16 0 16 12.8 8 16"></polygon>
                        </g>
                    </g>
                    <path d="M74,223 C81.1797017,223 87,227.745763 87,236.050847 C87,241.090077 83.4104101,247.60352 76.2312304,255.591174 C76.1600154,255.670409 76.0846302,255.745794 76.0053953,255.817009 C74.7731213,256.924558 72.8763201,256.823448 71.7687712,255.591174 L71.7687712,255.591174 L71.37362,255.148933 C64.4578733,247.362787 61,240.996758 61,236.050847 C61,227.745763 66.8202983,223 74,223 Z M74.5,230 C71.4624339,230 69,232.462434 69,235.5 C69,238.537566 71.4624339,241 74.5,241 C77.5375661,241 80,238.537566 80,235.5 C80,232.462434 77.5375661,230 74.5,230 Z" id="Combined-Shape" fill="#D6ECFB" mask="url(#mask-2)"></path>
                    <path d="M298,66 C305.179702,66 311,70.7457627 311,79.0508475 C311,84.0900774 307.41041,90.6035196 300.23123,98.591174 C300.160015,98.6704089 300.08463,98.7457941 300.005395,98.8170091 C298.773121,99.9245579 296.87632,99.8234481 295.768771,98.5911741 L295.768771,98.5911741 L295.37362,98.148933 C288.457873,90.362787 285,83.9967585 285,79.0508475 C285,70.7457627 290.820298,66 298,66 Z M298.5,73 C295.462434,73 293,75.4624339 293,78.5 C293,81.5375661 295.462434,84 298.5,84 C301.537566,84 304,81.5375661 304,78.5 C304,75.4624339 301.537566,73 298.5,73 Z" id="Combined-Shape" fill="#D6ECFB" mask="url(#mask-2)"></path>
                    <path d="M134,4 C139.522847,4 144,7.66101695 144,14.0677966 C144,17.8266438 141.418388,22.6487652 136.255163,28.5341609 C136.169044,28.6323252 136.076607,28.7247618 135.978443,28.8108808 C134.732955,29.9035407 132.837512,29.7796491 131.744852,28.5341612 L131.744852,28.5341612 L131.396806,28.134539 C126.465602,22.4301312 124,17.7412171 124,14.0677966 C124,7.66101695 128.477153,4 134,4 Z M134,9 C131.790861,9 130,11.0147186 130,13.5 C130,15.9852814 131.790861,18 134,18 C136.209139,18 138,15.9852814 138,13.5 C138,11.0147186 136.209139,9 134,9 Z" id="Combined-Shape" stroke="#D6ECFB" stroke-width="2" mask="url(#mask-2)"></path>
                    <path d="M-28,288 C-4,221.333333 38,183.666667 98,175 C188,162 252,234 320,129" id="Path-7" stroke="#FFFFFF" stroke-width="2" mask="url(#mask-2)"></path>
                    <path d="M12,219 C36,152.333333 78,114.666667 138,106 C228,93 292,165 360,60" id="Path-7" stroke="#FFFFFF" stroke-width="2" mask="url(#mask-2)"></path>
                    <circle id="Oval" fill="#D9EDFB" opacity="0.534109933" mask="url(#mask-2)" cx="50" cy="106" r="25"></circle>
                    <polyline id="Path-56" stroke="#D6ECFB" stroke-width="3" stroke-linecap="round" stroke-linejoin="round" mask="url(#mask-2)" points="50 88 50 106 59 111"></polyline>
                    <g id="Group-15" mask="url(#mask-2)">
                        <g transform="translate(91.000000, 42.000000)">
                            <g id="Group-2" stroke-width="1" fill="none" transform="translate(0.000000, 19.040000)">
                                <rect id="Rectangle" fill="#0172D3" x="52.92" y="211.343145" width="80.36" height="14" rx="2"></rect>
                                <path d="M73.1,195.4 L113.1,195.4 C121.936556,195.4 129.1,202.563444 129.1,211.4 L129.1,211.4 L129.1,211.4 L57.1,211.4 C57.1,202.563444 64.263444,195.4 73.1,195.4 Z" id="Rectangle-Copy-8" fill="url(#linearGradient-3)"></path>
                                <rect id="Rectangle" fill="#0070DD" x="84.5" y="181" width="6" height="17" rx="3"></rect>
                                <rect id="Rectangle" fill="#0070DD" x="95.6" y="181.4" width="6" height="17" rx="3"></rect>
                                <path d="M56.4554953,0.614398999 C23.16134,15.6953437 -5.68434189e-14,49.2144339 -5.68434189e-14,88.143145 C-5.68434189e-14,138.23435 38.3483414,179.368819 87.2882115,183.789741 M98.8765006,184.14206 C109.341102,183.838537 119.38602,181.86103 128.752809,178.467986" id="Shape" stroke="#0070DD" stroke-width="6.53333333" stroke-linecap="round"></path>
                            </g>
                            <g id="Path-14-+-Path-67-+-Path-68-+-Path-69-+-Path-70-+-Path-71-Mask" stroke-width="1" fill="none" transform="translate(14.000000, 25.000000)">
                                <mask id="mask-5" fill="white">
                                    <use xlink:href="#path-4"></use>
                                </mask>
                                <use id="Mask" fill="#FFFFFF" xlink:href="#path-4"></use>
                                <mask id="mask-7" fill="white">
                                    <use xlink:href="#path-6"></use>
                                </mask>
                                <g id="Mask">
                                    <use fill="#0070DD" fill-rule="evenodd" xlink:href="#path-6"></use>
                                    <use fill="black" fill-opacity="1" filter="url(#filter-8)" xlink:href="#path-6"></use>
                                </g>
                                <path d="M-7.84688995,66.6985646 C-7.84688995,66.6985646 -0.784688995,69.8373206 3.92344498,74.5454545 C8.63157895,79.2535885 7.06220096,84.7464115 12.5550239,88.6698565 C18.0478469,92.5933014 23.5406699,95.7320574 25.1100478,104.363636 C26.6794258,112.995215 31.3875598,120.057416 36.0956938,123.980861 C40.8038278,127.904306 40.8038278,137.320574 36.0956938,142.813397 C32.9569378,146.475279 25.1100478,150.398724 12.5550239,154.583732 C-5.75438596,132.089314 -14.9090909,113.518341 -14.9090909,98.8708134 C-14.9090909,76.8995215 -7.84688995,66.6985646 -7.84688995,66.6985646 Z" id="Path-14" fill-opacity="0.130791084" fill="#000000" mask="url(#mask-7)"></path>
                                <path d="M18.0478469,44.7272727 C18.8325359,43.1578947 20.4019139,40.0191388 26.6794258,36.8803828 C32.9569378,33.7416268 35.3110048,30.6028708 36.8803828,24.3253589 C38.4497608,18.0478469 42.3732057,15.6937799 51.0047847,16.4784689 C59.6363636,17.2631579 63.5598086,10.9856459 68.2679426,13.3397129 C72.9760766,15.6937799 70.6220096,20.4019139 68.2679426,21.9712919 C65.9138756,23.5406699 51.0047847,25.8947368 49.4354067,33.7416268 C47.8660287,41.5885167 37.6650718,45.5119617 30.6028708,49.4354067 C23.5406699,53.3588517 20.4019139,54.9282297 18.8325359,52.5741627 C17.2631579,50.2200957 17.2631579,46.2966507 18.0478469,44.7272727 Z" id="Path-67" fill-opacity="0.130791084" fill="#000000" mask="url(#mask-7)"></path>
                                <path d="M169.492823,38.4497608 C167.923445,53.3588517 149.875598,65.1291866 145.952153,69.0526316 C142.028708,72.9760766 136.535885,69.8373206 136.535885,65.1291866 C136.535885,60.4210526 128.688995,60.4210526 126.334928,67.4832536 C123.980861,74.5454545 116.133971,81.6076555 107.502392,85.5311005 C98.8708134,89.4545455 102.009569,94.1626794 107.502392,93.3779904 C112.995215,92.5933014 116.91866,94.1626794 121.626794,97.3014354 C126.334928,100.440191 130.258373,98.0861244 130.258373,105.933014 C130.258373,113.779904 117.703349,117.703349 117.703349,130.258373 C117.703349,142.813397 116.133971,143.598086 112.995215,144.382775 C109.856459,145.167464 103.578947,144.382775 102.009569,138.889952 C100.440191,133.397129 102.009569,129.473684 92.5933014,126.334928 C85.2904939,123.900659 82.3923445,123.980861 82.3923445,114.564593 C82.3923445,105.148325 76.1148325,103.578947 65.9138756,104.363636 C55.7129187,105.148325 46.2966507,105.933014 43.1578947,102.794258 C40.0191388,99.6555024 41.5885167,93.3779904 47.8660287,81.6076555 C54.1435407,69.8373206 59.6363636,68.2679426 65.9138756,63.5598086 C72.1913876,58.8516746 61.2057416,56.4976077 62.7751196,53.3588517 C64.3444976,50.2200957 66.6985646,47.0813397 72.1913876,51.0047847 C77.6842105,54.9282297 83.9617225,57.2822967 84.7464115,47.8660287 C85.5311005,38.4497608 87.8851675,36.8803828 98.0861244,29.8181818 C108.287081,22.7559809 109.856459,17.2631579 123.196172,14.1244019 C136.535885,10.9856459 171.062201,23.5406699 169.492823,38.4497608 Z M94.1626794,54.9282297 C90.2392344,55.7129187 83.1770335,60.4210526 77.6842105,65.9138756 C72.1913876,71.4066986 79.2535885,72.1913876 83.9617225,72.1913876 C88.6698565,72.1913876 90.2392344,75.3301435 91.0239234,77.6842105 C91.8086124,80.0382775 94.1626794,84.7464115 98.8708134,81.6076555 C103.578947,78.4688995 104.363636,74.5454545 104.363636,74.5454545 C104.363636,74.5454545 107.502392,68.2679426 111.425837,65.1291866 C115.349282,61.9904306 115.349282,58.8516746 109.07177,58.8516746 C102.794258,58.8516746 98.0861244,54.1435407 94.1626794,54.9282297 Z M120.842105,43.9425837 C116.302119,40.9159262 111.762133,42.9967532 111.443639,43.1492443 L111.420061,43.1603931 C111.221354,43.2467275 105.977431,45.5563781 108.287081,47.8660287 C110.641148,50.2200957 115.349282,49.4354067 120.057416,49.4354067 C124.76555,49.4354067 125.550239,47.0813397 120.842105,43.9425837 Z" id="Combined-Shape" fill-opacity="0.130791084" fill="#000000" mask="url(#mask-7)"></path>
                                <path d="M134.966507,121.626794 C134.966507,120.057416 134.966507,115.349282 138.889952,112.210526 C142.813397,109.07177 148.30622,111.425837 146.736842,116.91866 C145.167464,122.411483 142.813397,123.980861 139.674641,124.76555 C136.535885,125.550239 134.966507,123.196172 134.966507,121.626794 Z" id="Path-69" fill-opacity="0.130791084" fill="#000000" mask="url(#mask-7)"></path>
                            </g>
                            <ellipse id="Oval" fill="#0070DD" transform="translate(122.500000, 180.500000) rotate(-23.000000) translate(-122.500000, -180.500000) " cx="122.5" cy="180.5" rx="11.5" ry="5.5"></ellipse>
                            <path d="M64.2521163,34.1563284 C68.419274,34.1563284 70.7826856,33.3108364 72.7998983,31.7238173 C73.8571726,30.8920189 53.137441,31.4726048 54.2727509,32.326242 C56.3116894,33.8593156 60.1724551,34.1563284 64.2521163,34.1563284 Z" id="Oval" fill="#0070DD" transform="translate(63.533384, 32.738369) rotate(-22.000000) translate(-63.533384, -32.738369) "></path>
                            <rect id="Rectangle" fill="#0070DD" transform="translate(57.533235, 19.381320) rotate(-22.000000) translate(-57.533235, -19.381320) " x="53.9399017" y="4.88131958" width="7.18666667" height="29"></rect>
                            <circle id="Oval" fill="url(#linearGradient-9)" cx="52.2666667" cy="5.91647828" r="5.88"></circle>
                            <rect id="Rectangle" fill="#0070DD" transform="translate(127.924311, 193.605347) rotate(-22.000000) translate(-127.924311, -193.605347) " x="124.330978" y="179.105347" width="7.18666667" height="29"></rect>
                            <circle id="Oval" fill="url(#linearGradient-9)" cx="134.586667" cy="208.449812" r="5.88"></circle>
                        </g>
                    </g>
                </g>
                <ellipse id="Shaddow" fill="#5DACE9" cx="180" cy="285.12" rx="167.76" ry="1.44"></ellipse>
            </g>
        </g>
    </g>
</svg>