<svg width="37" height="31" viewBox="0 0 37 31" fill="none" xmlns="http://www.w3.org/2000/svg">
<path d="M35.1712 30.6439C34.7355 30.6439 34.3178 30.4709 34.0097 30.163C33.7016 29.855 33.5284 29.4373 33.5282 29.0017V2.50106C33.5345 2.06952 33.7104 1.65778 34.0177 1.35484C34.3251 1.0519 34.7394 0.88208 35.171 0.88208C35.6026 0.88208 36.0168 1.0519 36.3242 1.35484C36.6316 1.65778 36.8075 2.06952 36.8138 2.50106V29.0017C36.8137 29.4373 36.6406 29.855 36.3325 30.163C36.0245 30.4709 35.6067 30.6439 35.1712 30.6439Z" fill="#192E31"/>
<path d="M29.4594 26.1857V3.54076C29.4583 2.67 29.112 1.8352 28.4962 1.21951C27.8804 0.603815 27.0456 0.257519 26.1748 0.256592H9.99036C9.11959 0.257519 8.28475 0.603815 7.669 1.21951C7.05324 1.8352 6.70686 2.67 6.70584 3.54076V8.1566C6.70266 8.37435 6.7428 8.59056 6.82393 8.79266C6.90506 8.99476 7.02556 9.17871 7.17843 9.33382C7.33129 9.48893 7.51346 9.6121 7.71435 9.69618C7.91525 9.78025 8.13085 9.82355 8.34862 9.82355C8.5664 9.82355 8.782 9.78025 8.98289 9.69618C9.18378 9.6121 9.36596 9.48893 9.51882 9.33382C9.67168 9.17871 9.79218 8.99476 9.87331 8.79266C9.95444 8.59056 9.99459 8.37435 9.99141 8.1566V3.54181H26.1752V26.3829L21.9088 24.4731C21.6412 24.2969 21.3276 24.2031 21.0072 24.2035L4.24175 24.2042V15.7215H17.6326C18.0683 15.7215 18.4861 15.5484 18.7941 15.2404C19.1022 14.9323 19.2753 14.5145 19.2753 14.0789C19.2753 13.6432 19.1022 13.2254 18.7941 12.9174C18.4861 12.6093 18.0683 12.4363 17.6326 12.4363H2.59879C2.16314 12.4363 1.74534 12.6093 1.43729 12.9174C1.12924 13.2254 0.956177 13.6432 0.956177 14.0789V24.2042C0.957104 25.075 1.30345 25.9099 1.91921 26.5257C2.53498 27.1414 3.36987 27.4878 4.2407 27.4887H20.6045L24.8449 29.3866C25.3451 29.6106 25.8933 29.7059 26.4397 29.6638C26.9861 29.6217 27.5133 29.4435 27.9733 29.1455C28.4332 28.8476 28.8112 28.4392 29.0729 27.9577C29.3347 27.4762 29.4717 26.9369 29.4716 26.3888C29.4717 26.321 29.4677 26.2531 29.4594 26.1857Z" fill="#192E31"/>
</svg>
