<svg width="25" height="25" viewBox="0 0 25 25" fill="none" xmlns="http://www.w3.org/2000/svg">
<rect x="0.981201" y="0.824219" width="24" height="24.022" rx="12" fill="#F1F4F7"/>
<g clip-path="url(#clip0)">
<path d="M19.3109 11.708L18.2649 11.4468C18.1629 11.1186 18.033 10.8045 17.8746 10.5057L18.4298 9.58083C18.6241 9.25664 18.5729 8.84058 18.3056 8.57371L17.4927 7.75996C17.2249 7.49221 16.8098 7.44102 16.4856 7.63571L15.5607 8.19089C15.2619 8.03296 14.9469 7.90214 14.6196 7.80064L14.3584 6.75458C14.2653 6.38664 13.9363 6.12939 13.5574 6.12939H12.4072C12.0283 6.12939 11.6984 6.38664 11.607 6.75458L11.3449 7.79977C11.0177 7.90171 10.7027 8.03164 10.4048 8.19002L9.479 7.63483C9.15482 7.43971 8.73919 7.49089 8.471 7.75864L7.65813 8.57152C7.39038 8.83927 7.33919 9.25446 7.53388 9.57952L8.08863 10.5044C7.93157 10.8032 7.79988 11.1173 7.69838 11.4455L6.65319 11.7084C6.28525 11.8003 6.02844 12.1301 6.02844 12.5086V13.6588C6.02844 14.0376 6.28569 14.3675 6.65363 14.459L7.69969 14.7201C7.80163 15.0483 7.93157 15.3624 8.08994 15.6612L7.53519 16.5852C7.34094 16.9094 7.39213 17.3255 7.65944 17.5923L8.47057 18.4065C8.73832 18.6743 9.15351 18.7255 9.47769 18.5308L10.4017 17.976C10.7005 18.134 11.0155 18.2648 11.3445 18.3663L11.6057 19.4123C11.6976 19.7803 12.0274 20.0375 12.4059 20.0375H13.5569C13.9358 20.0375 14.2657 19.7803 14.3571 19.4123L14.6183 18.3663C14.9464 18.2643 15.2614 18.1344 15.5594 17.976L16.4834 18.5308C16.8076 18.725 17.2236 18.6738 17.4905 18.4065L18.3034 17.5936C18.5711 17.3259 18.6223 16.9107 18.4276 16.5865L17.8729 15.6625C18.0308 15.3637 18.1616 15.0487 18.2631 14.7215L19.3092 14.4603C19.6771 14.3671 19.9344 14.0381 19.9344 13.6592V12.5081C19.9344 12.1293 19.6776 11.7994 19.3096 11.708H19.3109ZM19.2283 13.6579C19.2283 13.7117 19.1915 13.759 19.139 13.773L17.7049 14.1317L17.6511 14.333C17.5408 14.7468 17.3763 15.1397 17.1663 15.502L17.0622 15.6822L17.1689 15.8611L17.8221 16.9501C17.8501 16.996 17.8431 17.056 17.8051 17.0949L16.9922 17.9078C16.9541 17.9458 16.8951 17.9528 16.8474 17.9248L15.5795 17.1649L15.3997 17.269C15.0374 17.479 14.6446 17.644 14.2307 17.7542L14.0294 17.808L13.6707 19.2421C13.6576 19.2942 13.6108 19.3314 13.5556 19.3314H12.4059C12.3521 19.3314 12.3048 19.2946 12.2908 19.2421L11.9321 17.808L11.7308 17.7542C11.3161 17.644 10.9241 17.4795 10.5618 17.269L10.3816 17.1649L10.2026 17.2716L9.11369 17.9248C9.06775 17.9528 9.00782 17.9458 8.96888 17.9078L8.15601 17.0949C8.11794 17.0568 8.11094 16.9978 8.13894 16.9501L8.79213 15.8611L8.89888 15.6822L8.79475 15.502C8.58476 15.1397 8.42069 14.7468 8.30957 14.333L8.25575 14.1317L6.8225 13.7725C6.77044 13.7603 6.73325 13.7126 6.73325 13.6583V12.5086C6.73325 12.4548 6.77 12.4075 6.8225 12.3935L8.25663 12.0348L8.31044 11.8335C8.42157 11.4196 8.58563 11.0276 8.7965 10.6654L8.90063 10.4851L8.79344 10.3062L8.14025 9.21596C8.11225 9.17002 8.11926 9.11008 8.15732 9.07202L8.97019 8.25914C9.00825 8.22108 9.06732 8.21408 9.11501 8.24208L10.3842 9.00202L10.5644 8.89789C10.9267 8.68877 11.3187 8.52383 11.7326 8.41314L11.9338 8.35933L12.2926 6.92521C12.3057 6.87314 12.3525 6.83596 12.4076 6.83596H13.5578C13.6116 6.83596 13.6589 6.87271 13.6729 6.92521L14.0316 8.35933L14.2329 8.41314C14.6468 8.52339 15.0396 8.68789 15.4019 8.89833L15.5817 9.00246L15.7606 8.89571L16.8509 8.24252C16.8968 8.21452 16.9568 8.22152 16.9957 8.25958L17.8086 9.07246C17.8466 9.11052 17.8536 9.16958 17.8256 9.21727L17.1724 10.3075L17.0644 10.4856L17.1685 10.6658C17.3785 11.0281 17.5426 11.4201 17.6533 11.8348L17.7071 12.0361L19.1412 12.3948C19.1933 12.408 19.2304 12.4548 19.2304 12.5099V13.657H19.2283V13.6579ZM12.9812 15.6039C11.5913 15.6039 10.4603 14.4721 10.4603 13.083C10.4603 11.6931 11.5913 10.5621 12.9812 10.5621C14.3711 10.5621 15.5021 11.6931 15.5021 13.083C15.5021 14.473 14.3711 15.6039 12.9812 15.6039ZM12.9812 11.2578C11.9749 11.2578 11.1559 12.0768 11.1559 13.083C11.1559 14.0893 11.9749 14.9083 12.9812 14.9083C13.9874 14.9083 14.8064 14.0901 14.8064 13.083C14.8064 12.0768 13.9874 11.2578 12.9812 11.2578Z" fill="#627282"/>
</g>
<defs>
<clipPath id="clip0">
<rect width="14" height="14" fill="white" transform="translate(5.9812 6.08301)"/>
</clipPath>
</defs>
</svg>
