<svg width="169" height="39" viewBox="0 0 169 39" fill="none" xmlns="http://www.w3.org/2000/svg">
<rect x="0.598755" y="0.034668" width="38" height="38" rx="5.97286" fill="#FADF50"/>
<g clip-path="url(#clip0)">
<path d="M29.8598 8.77368H9.33777V29.2957H29.8598V8.77368Z" fill="#FADF50"/>
<path d="M28.9198 27.7301C28.6705 27.7301 28.4314 27.6311 28.255 27.4548C28.0787 27.2786 27.9796 27.0395 27.9795 26.7902V11.6229C27.9831 11.3759 28.0837 11.1403 28.2597 10.9669C28.4356 10.7935 28.6727 10.6963 28.9197 10.6963C29.1667 10.6963 29.4038 10.7935 29.5798 10.9669C29.7557 11.1403 29.8563 11.3759 29.8599 11.6229V26.7902C29.8599 27.0395 29.7608 27.2785 29.5845 27.4548C29.4082 27.6311 29.1691 27.7301 28.9198 27.7301V27.7301Z" fill="#2A3255"/>
<path d="M25.6512 25.179V12.2184C25.6506 11.72 25.4524 11.2422 25.0999 10.8899C24.7475 10.5375 24.2697 10.3393 23.7713 10.3387H14.5084C14.01 10.3393 13.5322 10.5375 13.1798 10.8899C12.8273 11.2422 12.6291 11.72 12.6285 12.2184V14.8602C12.6267 14.9848 12.6497 15.1086 12.6961 15.2243C12.7425 15.3399 12.8115 15.4452 12.899 15.534C12.9865 15.6228 13.0907 15.6932 13.2057 15.7414C13.3207 15.7895 13.4441 15.8143 13.5687 15.8143C13.6934 15.8143 13.8168 15.7895 13.9318 15.7414C14.0467 15.6932 14.151 15.6228 14.2385 15.534C14.326 15.4452 14.3949 15.3399 14.4414 15.2243C14.4878 15.1086 14.5108 14.9848 14.509 14.8602V12.219H23.7715V25.2918L21.3297 24.1987C21.1765 24.0979 20.9971 24.0442 20.8137 24.0444L11.2182 24.0448V19.1899H18.8823C19.1317 19.1899 19.3708 19.0908 19.5471 18.9145C19.7234 18.7382 19.8224 18.4991 19.8224 18.2498C19.8224 18.0004 19.7234 17.7613 19.5471 17.585C19.3708 17.4087 19.1317 17.3096 18.8823 17.3096H10.2779C10.0286 17.3096 9.78943 17.4087 9.61313 17.585C9.43682 17.7613 9.33777 18.0004 9.33777 18.2498V24.0448C9.3383 24.5432 9.53652 25.0211 9.88895 25.3735C10.2414 25.7259 10.7192 25.9241 11.2176 25.9247H20.5832L23.0102 27.0109C23.2964 27.1391 23.6102 27.1937 23.9229 27.1696C24.2357 27.1455 24.5374 27.0435 24.8006 26.873C25.0639 26.7024 25.2802 26.4687 25.43 26.1931C25.5798 25.9175 25.6583 25.6088 25.6582 25.2952C25.6583 25.2563 25.6559 25.2175 25.6512 25.179V25.179Z" fill="#2A3255"/>
</g>
<path d="M64.2305 25.5025H61.9425C61.6858 25.5025 61.4731 25.4402 61.3045 25.3155C61.1431 25.1835 61.0258 25.0222 60.9525 24.8315L59.7645 21.5865H53.1755L51.9875 24.8315C51.9288 25.0002 51.8115 25.1542 51.6355 25.2935C51.4668 25.4328 51.2578 25.5025 51.0085 25.5025H48.7095L54.9575 9.59649H57.9825L64.2305 25.5025ZM53.9345 19.4965H59.0055L57.0695 14.2055C56.9815 13.9708 56.8825 13.6958 56.7725 13.3805C56.6698 13.0578 56.5671 12.7095 56.4645 12.3355C56.3618 12.7095 56.2591 13.0578 56.1565 13.3805C56.0611 13.7032 55.9658 13.9855 55.8705 14.2275L53.9345 19.4965Z" fill="black"/>
<path d="M66.1546 25.5025V14.2165H67.7496C68.0283 14.2165 68.2226 14.2678 68.3326 14.3705C68.4426 14.4732 68.5159 14.6492 68.5526 14.8985L68.7176 16.2625C69.1209 15.5658 69.5939 15.0158 70.1366 14.6125C70.6793 14.2092 71.2879 14.0075 71.9626 14.0075C72.5199 14.0075 72.9819 14.1358 73.3486 14.3925L72.9966 16.4275C72.9746 16.5595 72.9269 16.6548 72.8536 16.7135C72.7803 16.7648 72.6813 16.7905 72.5566 16.7905C72.4466 16.7905 72.2963 16.7648 72.1056 16.7135C71.9149 16.6622 71.6619 16.6365 71.3466 16.6365C70.7819 16.6365 70.2979 16.7942 69.8946 17.1095C69.4913 17.4175 69.1503 17.8722 68.8716 18.4735V25.5025H66.1546Z" fill="black"/>
<path d="M84.0968 25.5025H82.8758C82.6191 25.5025 82.4175 25.4658 82.2708 25.3925C82.1241 25.3118 82.0141 25.1542 81.9408 24.9195L81.6988 24.1165C81.4128 24.3732 81.1305 24.6005 80.8518 24.7985C80.5805 24.9892 80.2981 25.1505 80.0048 25.2825C79.7115 25.4145 79.3998 25.5135 79.0698 25.5795C78.7398 25.6455 78.3731 25.6785 77.9698 25.6785C77.4931 25.6785 77.0531 25.6162 76.6498 25.4915C76.2465 25.3595 75.8981 25.1652 75.6048 24.9085C75.3188 24.6518 75.0951 24.3328 74.9338 23.9515C74.7725 23.5702 74.6918 23.1265 74.6918 22.6205C74.6918 22.1952 74.8018 21.7772 75.0218 21.3665C75.2491 20.9485 75.6231 20.5745 76.1438 20.2445C76.6645 19.9072 77.3575 19.6285 78.2228 19.4085C79.0882 19.1885 80.1625 19.0638 81.4458 19.0345V18.3745C81.4458 17.6192 81.2845 17.0618 80.9618 16.7025C80.6465 16.3358 80.1845 16.1525 79.5758 16.1525C79.1358 16.1525 78.7691 16.2038 78.4758 16.3065C78.1825 16.4092 77.9258 16.5265 77.7058 16.6585C77.4931 16.7832 77.2951 16.8968 77.1118 16.9995C76.9285 17.1022 76.7268 17.1535 76.5068 17.1535C76.3235 17.1535 76.1658 17.1058 76.0338 17.0105C75.9018 16.9152 75.7955 16.7978 75.7148 16.6585L75.2198 15.7895C76.5178 14.6015 78.0835 14.0075 79.9168 14.0075C80.5768 14.0075 81.1635 14.1175 81.6768 14.3375C82.1975 14.5502 82.6375 14.8508 82.9968 15.2395C83.3561 15.6208 83.6275 16.0792 83.8108 16.6145C84.0015 17.1498 84.0968 17.7365 84.0968 18.3745V25.5025ZM78.8168 23.8085C79.0955 23.8085 79.3522 23.7828 79.5868 23.7315C79.8215 23.6802 80.0415 23.6032 80.2468 23.5005C80.4595 23.3978 80.6611 23.2732 80.8518 23.1265C81.0498 22.9725 81.2478 22.7928 81.4458 22.5875V20.6845C80.6538 20.7212 79.9901 20.7908 79.4548 20.8935C78.9268 20.9888 78.5015 21.1135 78.1788 21.2675C77.8561 21.4215 77.6251 21.6012 77.4858 21.8065C77.3538 22.0118 77.2878 22.2355 77.2878 22.4775C77.2878 22.9542 77.4271 23.2952 77.7058 23.5005C77.9918 23.7058 78.3621 23.8085 78.8168 23.8085Z" fill="black"/>
<path d="M90.9154 25.6785C89.9401 25.6785 89.1884 25.4035 88.6604 24.8535C88.1324 24.2962 87.8684 23.5298 87.8684 22.5545V16.2515H86.7244C86.5778 16.2515 86.4494 16.2038 86.3394 16.1085C86.2368 16.0132 86.1854 15.8702 86.1854 15.6795V14.6015L88.0004 14.3045L88.5724 11.2245C88.6018 11.0778 88.6678 10.9642 88.7704 10.8835C88.8804 10.8028 89.0161 10.7625 89.1774 10.7625H90.5854V14.3155H93.5554V16.2515H90.5854V22.3675C90.5854 22.7195 90.6734 22.9945 90.8494 23.1925C91.0254 23.3905 91.2601 23.4895 91.5534 23.4895C91.7221 23.4895 91.8614 23.4712 91.9714 23.4345C92.0888 23.3905 92.1878 23.3465 92.2684 23.3025C92.3564 23.2585 92.4334 23.2182 92.4994 23.1815C92.5654 23.1375 92.6314 23.1155 92.6974 23.1155C92.7781 23.1155 92.8441 23.1375 92.8954 23.1815C92.9468 23.2182 93.0018 23.2768 93.0604 23.3575L93.8744 24.6775C93.4784 25.0075 93.0238 25.2568 92.5104 25.4255C91.9971 25.5942 91.4654 25.6785 90.9154 25.6785Z" fill="black"/>
<path d="M99.8633 25.6785C98.8879 25.6785 98.1362 25.4035 97.6082 24.8535C97.0802 24.2962 96.8162 23.5298 96.8162 22.5545V16.2515H95.6722C95.5256 16.2515 95.3973 16.2038 95.2873 16.1085C95.1846 16.0132 95.1333 15.8702 95.1333 15.6795V14.6015L96.9482 14.3045L97.5203 11.2245C97.5496 11.0778 97.6156 10.9642 97.7183 10.8835C97.8283 10.8028 97.9639 10.7625 98.1253 10.7625H99.5332V14.3155H102.503V16.2515H99.5332V22.3675C99.5332 22.7195 99.6212 22.9945 99.7972 23.1925C99.9732 23.3905 100.208 23.4895 100.501 23.4895C100.67 23.4895 100.809 23.4712 100.919 23.4345C101.037 23.3905 101.136 23.3465 101.216 23.3025C101.304 23.2585 101.381 23.2182 101.447 23.1815C101.513 23.1375 101.579 23.1155 101.645 23.1155C101.726 23.1155 101.792 23.1375 101.843 23.1815C101.895 23.2182 101.95 23.2768 102.008 23.3575L102.822 24.6775C102.426 25.0075 101.972 25.2568 101.458 25.4255C100.945 25.5942 100.413 25.6785 99.8633 25.6785Z" fill="black"/>
<path d="M113.948 25.5025H112.727C112.47 25.5025 112.269 25.4658 112.122 25.3925C111.975 25.3118 111.865 25.1542 111.792 24.9195L111.55 24.1165C111.264 24.3732 110.982 24.6005 110.703 24.7985C110.432 24.9892 110.149 25.1505 109.856 25.2825C109.563 25.4145 109.251 25.5135 108.921 25.5795C108.591 25.6455 108.224 25.6785 107.821 25.6785C107.344 25.6785 106.904 25.6162 106.501 25.4915C106.098 25.3595 105.749 25.1652 105.456 24.9085C105.17 24.6518 104.946 24.3328 104.785 23.9515C104.624 23.5702 104.543 23.1265 104.543 22.6205C104.543 22.1952 104.653 21.7772 104.873 21.3665C105.1 20.9485 105.474 20.5745 105.995 20.2445C106.516 19.9072 107.209 19.6285 108.074 19.4085C108.939 19.1885 110.014 19.0638 111.297 19.0345V18.3745C111.297 17.6192 111.136 17.0618 110.813 16.7025C110.498 16.3358 110.036 16.1525 109.427 16.1525C108.987 16.1525 108.62 16.2038 108.327 16.3065C108.034 16.4092 107.777 16.5265 107.557 16.6585C107.344 16.7832 107.146 16.8968 106.963 16.9995C106.78 17.1022 106.578 17.1535 106.358 17.1535C106.175 17.1535 106.017 17.1058 105.885 17.0105C105.753 16.9152 105.647 16.7978 105.566 16.6585L105.071 15.7895C106.369 14.6015 107.935 14.0075 109.768 14.0075C110.428 14.0075 111.015 14.1175 111.528 14.3375C112.049 14.5502 112.489 14.8508 112.848 15.2395C113.207 15.6208 113.479 16.0792 113.662 16.6145C113.853 17.1498 113.948 17.7365 113.948 18.3745V25.5025ZM108.668 23.8085C108.947 23.8085 109.203 23.7828 109.438 23.7315C109.673 23.6802 109.893 23.6032 110.098 23.5005C110.311 23.3978 110.512 23.2732 110.703 23.1265C110.901 22.9725 111.099 22.7928 111.297 22.5875V20.6845C110.505 20.7212 109.841 20.7908 109.306 20.8935C108.778 20.9888 108.353 21.1135 108.03 21.2675C107.707 21.4215 107.476 21.6012 107.337 21.8065C107.205 22.0118 107.139 22.2355 107.139 22.4775C107.139 22.9542 107.278 23.2952 107.557 23.5005C107.843 23.7058 108.213 23.8085 108.668 23.8085Z" fill="black"/>
<path d="M119.953 14.2165V25.5025H117.236V14.2165H119.953ZM120.36 10.9275C120.36 11.1622 120.312 11.3822 120.217 11.5875C120.121 11.7928 119.993 11.9725 119.832 12.1265C119.678 12.2805 119.494 12.4052 119.282 12.5005C119.069 12.5885 118.842 12.6325 118.6 12.6325C118.365 12.6325 118.141 12.5885 117.929 12.5005C117.723 12.4052 117.544 12.2805 117.39 12.1265C117.236 11.9725 117.111 11.7928 117.016 11.5875C116.928 11.3822 116.884 11.1622 116.884 10.9275C116.884 10.6855 116.928 10.4582 117.016 10.2455C117.111 10.0328 117.236 9.84949 117.39 9.69549C117.544 9.54149 117.723 9.42049 117.929 9.33249C118.141 9.23716 118.365 9.18949 118.6 9.18949C118.842 9.18949 119.069 9.23716 119.282 9.33249C119.494 9.42049 119.678 9.54149 119.832 9.69549C119.993 9.84949 120.121 10.0328 120.217 10.2455C120.312 10.4582 120.36 10.6855 120.36 10.9275Z" fill="black"/>
<path d="M126.791 14.2165H128.947C129.153 14.2165 129.325 14.2642 129.464 14.3595C129.604 14.4548 129.692 14.5758 129.728 14.7225L131.345 20.7505C131.433 21.0805 131.503 21.4032 131.554 21.7185C131.613 22.0338 131.668 22.3492 131.719 22.6645C131.8 22.3492 131.884 22.0338 131.972 21.7185C132.068 21.4032 132.167 21.0805 132.269 20.7505L134.139 14.7005C134.183 14.5538 134.271 14.4328 134.403 14.3375C134.535 14.2422 134.689 14.1945 134.865 14.1945H136.064C136.262 14.1945 136.427 14.2422 136.559 14.3375C136.691 14.4328 136.779 14.5538 136.823 14.7005L138.671 20.8605C138.767 21.1758 138.851 21.4838 138.924 21.7845C139.005 22.0778 139.082 22.3748 139.155 22.6755C139.207 22.3602 139.262 22.0448 139.32 21.7295C139.386 21.4142 139.467 21.0878 139.562 20.7505L141.234 14.7225C141.271 14.5758 141.359 14.4548 141.498 14.3595C141.638 14.2642 141.799 14.2165 141.982 14.2165H144.039L140.464 25.5025H138.275C138.041 25.5025 137.872 25.3412 137.769 25.0185L135.734 18.4955C135.668 18.2828 135.606 18.0702 135.547 17.8575C135.496 17.6375 135.452 17.4212 135.415 17.2085C135.371 17.4285 135.324 17.6485 135.272 17.8685C135.221 18.0812 135.162 18.2975 135.096 18.5175L133.039 25.0185C132.937 25.3412 132.739 25.5025 132.445 25.5025H130.366L126.791 14.2165Z" fill="black"/>
<path d="M150.673 14.0405C151.384 14.0405 152.037 14.1542 152.631 14.3815C153.232 14.6088 153.749 14.9425 154.182 15.3825C154.614 15.8152 154.952 16.3505 155.194 16.9885C155.436 17.6192 155.557 18.3415 155.557 19.1555C155.557 19.3608 155.546 19.5332 155.524 19.6725C155.509 19.8045 155.476 19.9108 155.425 19.9915C155.381 20.0648 155.318 20.1198 155.238 20.1565C155.157 20.1858 155.054 20.2005 154.93 20.2005H147.956C148.036 21.3592 148.348 22.2098 148.891 22.7525C149.433 23.2952 150.152 23.5665 151.047 23.5665C151.487 23.5665 151.864 23.5152 152.18 23.4125C152.502 23.3098 152.781 23.1962 153.016 23.0715C153.258 22.9468 153.467 22.8332 153.643 22.7305C153.826 22.6278 154.002 22.5765 154.171 22.5765C154.281 22.5765 154.376 22.5985 154.457 22.6425C154.537 22.6865 154.607 22.7488 154.666 22.8295L155.458 23.8195C155.157 24.1715 154.82 24.4685 154.446 24.7105C154.072 24.9452 153.679 25.1358 153.269 25.2825C152.865 25.4218 152.451 25.5208 152.026 25.5795C151.608 25.6382 151.201 25.6675 150.805 25.6675C150.02 25.6675 149.29 25.5392 148.616 25.2825C147.941 25.0185 147.354 24.6335 146.856 24.1275C146.357 23.6142 145.965 22.9835 145.679 22.2355C145.393 21.4802 145.25 20.6075 145.25 19.6175C145.25 18.8475 145.374 18.1252 145.624 17.4505C145.873 16.7685 146.229 16.1782 146.691 15.6795C147.16 15.1735 147.728 14.7738 148.396 14.4805C149.07 14.1872 149.829 14.0405 150.673 14.0405ZM150.728 15.9875C149.936 15.9875 149.316 16.2112 148.869 16.6585C148.421 17.1058 148.135 17.7402 148.011 18.5615H153.115C153.115 18.2095 153.067 17.8795 152.972 17.5715C152.876 17.2562 152.73 16.9812 152.532 16.7465C152.334 16.5118 152.084 16.3285 151.784 16.1965C151.483 16.0572 151.131 15.9875 150.728 15.9875Z" fill="black"/>
<path d="M158.234 25.5025V9.15649H160.951V15.6025C161.398 15.1258 161.904 14.7482 162.469 14.4695C163.033 14.1835 163.693 14.0405 164.449 14.0405C165.065 14.0405 165.626 14.1688 166.132 14.4255C166.645 14.6748 167.085 15.0415 167.452 15.5255C167.826 16.0095 168.112 16.6072 168.31 17.3185C168.515 18.0298 168.618 18.8475 168.618 19.7715C168.618 20.6148 168.504 21.3958 168.277 22.1145C168.049 22.8332 167.723 23.4565 167.298 23.9845C166.88 24.5125 166.37 24.9268 165.769 25.2275C165.175 25.5208 164.507 25.6675 163.767 25.6675C163.422 25.6675 163.107 25.6308 162.821 25.5575C162.535 25.4915 162.274 25.3962 162.04 25.2715C161.805 25.1468 161.585 24.9965 161.38 24.8205C161.182 24.6372 160.991 24.4355 160.808 24.2155L160.687 24.9745C160.643 25.1652 160.566 25.3008 160.456 25.3815C160.353 25.4622 160.21 25.5025 160.027 25.5025H158.234ZM163.514 16.1525C162.949 16.1525 162.465 16.2735 162.062 16.5155C161.666 16.7502 161.295 17.0838 160.951 17.5165V22.5765C161.259 22.9578 161.592 23.2255 161.952 23.3795C162.318 23.5262 162.714 23.5995 163.14 23.5995C163.55 23.5995 163.921 23.5225 164.251 23.3685C164.581 23.2145 164.859 22.9798 165.087 22.6645C165.321 22.3492 165.501 21.9532 165.626 21.4765C165.75 20.9925 165.813 20.4242 165.813 19.7715C165.813 19.1115 165.758 18.5542 165.648 18.0995C165.545 17.6375 165.395 17.2635 165.197 16.9775C164.999 16.6915 164.757 16.4825 164.471 16.3505C164.192 16.2185 163.873 16.1525 163.514 16.1525Z" fill="black"/>
<defs>
<clipPath id="clip0">
<rect width="20.522" height="20.522" fill="white" transform="translate(9.33777 8.77368)"/>
</clipPath>
</defs>
</svg>
