<svg id="English_get_it_from_MS_864X312" data-name="English_get it from MS_864X312" xmlns="http://www.w3.org/2000/svg" width="83.09" height="30.005" viewBox="0 0 83.09 30.005">
  <g id="Layer_2">
    <rect id="Rectangle_2693" data-name="Rectangle 2693" width="82.657" height="29.572" transform="translate(0.221 0.221)"/>
    <path id="Path_4186" data-name="Path 4186" d="M.433.433H82.657V29.572H.433ZM0,30H83.09V0H0Z" fill="#d2d2d2"/>
  </g>
  <g id="Layer_1" transform="translate(6.78 6.222)">
    <rect id="Rectangle_2694" data-name="Rectangle 2694" width="8.059" height="8.059" transform="translate(0 0.375)" fill="#f25022"/>
    <rect id="Rectangle_2695" data-name="Rectangle 2695" width="8.059" height="8.059" transform="translate(8.896 0.375)" fill="#7fba00"/>
    <rect id="Rectangle_2696" data-name="Rectangle 2696" width="8.059" height="8.059" transform="translate(0 9.261)" fill="#00a4ef"/>
    <rect id="Rectangle_2697" data-name="Rectangle 2697" width="8.059" height="8.059" transform="translate(8.896 9.261)" fill="#ffb900"/>
    <path id="Path_4187" data-name="Path 4187" d="M408.3,155.137a.78.78,0,0,1,.26-.6.907.907,0,0,1,1.241.01.816.816,0,0,1,.25.587.76.76,0,0,1-.26.587.933.933,0,0,1-1.25,0,.829.829,0,0,1-.24-.587M409.887,163h-1.433V156.9h1.433Z" transform="translate(-375.814 -145.683)" fill="#fff"/>
    <path id="Path_4188" data-name="Path 4188" d="M438.656,185a2.082,2.082,0,0,0,.712-.144,2.86,2.86,0,0,0,.712-.394V185.8a2.791,2.791,0,0,1-.779.3,4.268,4.268,0,0,1-.962.106,2.915,2.915,0,0,1-3.039-3.029,3.465,3.465,0,0,1,.866-2.423,3.124,3.124,0,0,1,2.443-.952,3.468,3.468,0,0,1,.817.106,2.774,2.774,0,0,1,.654.24v1.375a2.818,2.818,0,0,0-.683-.375,2.03,2.03,0,0,0-.712-.135,1.825,1.825,0,0,0-1.375.548,2.084,2.084,0,0,0-.519,1.491,1.98,1.98,0,0,0,.5,1.443,1.806,1.806,0,0,0,1.366.51" transform="translate(-400.218 -168.731)" fill="#fff"/>
    <path id="Path_4189" data-name="Path 4189" d="M499.21,180.3a2.772,2.772,0,0,1,.308.019c.087.019.173.038.231.058v1.452a1.156,1.156,0,0,0-.327-.154,1.662,1.662,0,0,0-.529-.077,1.1,1.1,0,0,0-.894.442,2.157,2.157,0,0,0-.365,1.375V186.5H496.2V180.4h1.433v.962h.019a1.636,1.636,0,0,1,.6-.779,1.667,1.667,0,0,1,.962-.279" transform="translate(-455.261 -169.183)" fill="#fff"/>
    <path id="Path_4190" data-name="Path 4190" d="M533.9,183.089a3.341,3.341,0,0,1,.856-2.4,3.163,3.163,0,0,1,2.375-.885,2.949,2.949,0,0,1,2.241.856,3.207,3.207,0,0,1,.808,2.3,3.261,3.261,0,0,1-.856,2.366A3.089,3.089,0,0,1,537,186.2a2.9,2.9,0,0,1-3.1-3.106m1.5-.048a2.192,2.192,0,0,0,.433,1.462,1.541,1.541,0,0,0,1.241.5,1.441,1.441,0,0,0,1.192-.5,2.364,2.364,0,0,0,.414-1.5,2.3,2.3,0,0,0-.423-1.491,1.466,1.466,0,0,0-1.192-.5,1.508,1.508,0,0,0-1.231.529,2.305,2.305,0,0,0-.433,1.5" transform="translate(-489.335 -168.731)" fill="#fff"/>
    <path id="Path_4191" data-name="Path 4191" d="M607.752,181.46a.63.63,0,0,0,.192.481,3.733,3.733,0,0,0,.866.442,2.927,2.927,0,0,1,1.212.779,1.611,1.611,0,0,1,.346,1.039,1.67,1.67,0,0,1-.664,1.385,2.826,2.826,0,0,1-1.789.519,3.919,3.919,0,0,1-.837-.1,3.988,3.988,0,0,1-.779-.231v-1.414a3.349,3.349,0,0,0,.846.433,2.512,2.512,0,0,0,.817.163,1.521,1.521,0,0,0,.721-.135.484.484,0,0,0,.231-.462.614.614,0,0,0-.24-.5,3.47,3.47,0,0,0-.914-.471,2.786,2.786,0,0,1-1.125-.75,1.658,1.658,0,0,1-.337-1.058,1.685,1.685,0,0,1,.654-1.356,2.592,2.592,0,0,1,1.7-.529,4.108,4.108,0,0,1,.721.067,2.944,2.944,0,0,1,.664.183v1.366a3.557,3.557,0,0,0-.664-.327,2.333,2.333,0,0,0-.75-.135,1.085,1.085,0,0,0-.635.163.5.5,0,0,0-.24.442" transform="translate(-554.773 -168.641)" fill="#fff"/>
    <path id="Path_4192" data-name="Path 4192" d="M655.2,183.089a3.341,3.341,0,0,1,.856-2.4,3.163,3.163,0,0,1,2.375-.885,2.949,2.949,0,0,1,2.241.856,3.206,3.206,0,0,1,.808,2.3,3.261,3.261,0,0,1-.856,2.366,3.089,3.089,0,0,1-2.327.875,2.9,2.9,0,0,1-3.1-3.106m1.491-.048a2.191,2.191,0,0,0,.433,1.462,1.541,1.541,0,0,0,1.241.5,1.441,1.441,0,0,0,1.193-.5,2.364,2.364,0,0,0,.414-1.5,2.3,2.3,0,0,0-.423-1.491,1.466,1.466,0,0,0-1.193-.5,1.508,1.508,0,0,0-1.231.529,2.3,2.3,0,0,0-.433,1.5" transform="translate(-598.97 -168.731)" fill="#fff"/>
    <path id="Path_4193" data-name="Path 4193" d="M726.506,154.012v3.135a2.1,2.1,0,0,0,.452,1.462,1.765,1.765,0,0,0,1.366.481,2.824,2.824,0,0,0,.625-.067,1.546,1.546,0,0,0,.452-.144v-1.193a1.3,1.3,0,0,1-.308.144,1,1,0,0,1-.3.058.823.823,0,0,1-.644-.231,1.226,1.226,0,0,1-.2-.8V154h1.462v-1.173h-1.452v-1.808l-1.442.442v1.375h-2.145v-.74a1.258,1.258,0,0,1,.24-.837.853.853,0,0,1,.692-.279,1.387,1.387,0,0,1,.414.058,1.368,1.368,0,0,1,.25.106v-1.241a1.773,1.773,0,0,0-.356-.077,3.3,3.3,0,0,0-.462-.029,2.175,2.175,0,0,0-1.606.615,2.13,2.13,0,0,0-.625,1.577v.846H721.9v1.173h1.019v4.933h1.452v-4.933Z" transform="translate(-659.256 -141.616)" fill="#fff"/>
    <path id="Path_4194" data-name="Path 4194" d="M308.823,156.2v8.521h-1.481v-6.674h-.019l-2.645,6.674H303.7l-2.712-6.674h-.019v6.674H299.6V156.2h2.116l2.452,6.318h.038l2.587-6.318Z" transform="translate(-277.568 -147.401)" fill="#fff"/>
    <path id="Path_4195" data-name="Path 4195" d="M300.322,72.437a3.452,3.452,0,0,1-1.731.433,2.565,2.565,0,0,1-1.308-.327,2.169,2.169,0,0,1-.875-.914,3.037,3.037,0,0,1,.029-2.722,2.41,2.41,0,0,1,.952-.962,2.8,2.8,0,0,1,1.394-.346,4.277,4.277,0,0,1,.779.077,2.629,2.629,0,0,1,.635.192v.769a2.576,2.576,0,0,0-1.471-.385,1.825,1.825,0,0,0-.962.26,1.752,1.752,0,0,0-.664.712,2.29,2.29,0,0,0-.231,1.039,2.09,2.09,0,0,0,.481,1.443,1.676,1.676,0,0,0,1.318.529,1.974,1.974,0,0,0,.942-.212V70.706h-1.087v-.635h1.8Z" transform="translate(-274.404 -67.321)" fill="#fff"/>
    <path id="Path_4196" data-name="Path 4196" d="M352.641,84.9h-2.52a1.229,1.229,0,0,0,.317.846,1.1,1.1,0,0,0,.789.3,1.81,1.81,0,0,0,1.135-.375v.615a1.81,1.81,0,0,1-.548.24,2.713,2.713,0,0,1-.683.087,1.652,1.652,0,0,1-1.279-.49,1.984,1.984,0,0,1-.452-1.385,2.207,2.207,0,0,1,.221-.991,1.661,1.661,0,0,1,.615-.692,1.628,1.628,0,0,1,.875-.25,1.409,1.409,0,0,1,1.116.462,1.872,1.872,0,0,1,.4,1.279V84.9Zm-.7-.548a1.06,1.06,0,0,0-.221-.721.776.776,0,0,0-.616-.25.9.9,0,0,0-.635.26,1.277,1.277,0,0,0-.346.712Z" transform="translate(-322.578 -81.059)" fill="#fff"/>
    <path id="Path_4197" data-name="Path 4197" d="M390.622,77.083a.8.8,0,0,1-.279.087,1.943,1.943,0,0,1-.317.029c-.673,0-1.01-.375-1.01-1.116v-2.02H388.4v-.577h.615v-.866l.7-.221v1.077h.894v.577h-.894v1.9a.846.846,0,0,0,.115.51.5.5,0,0,0,.414.144.612.612,0,0,0,.365-.115v.587Z" transform="translate(-357.828 -71.659)" fill="#fff"/>
    <path id="Path_4198" data-name="Path 4198" d="M439.385,66.142a.4.4,0,0,1-.125.3.465.465,0,0,1-.635,0,.392.392,0,0,1-.125-.308.4.4,0,0,1,.135-.308.463.463,0,0,1,.308-.125.421.421,0,0,1,.308.125.415.415,0,0,1,.135.317m-.1,4.924h-.7V67.431h.7Z" transform="translate(-403.11 -65.604)" fill="#fff"/>
    <path id="Path_4199" data-name="Path 4199" d="M457.522,77.083a.8.8,0,0,1-.279.087,1.943,1.943,0,0,1-.317.029c-.673,0-1.01-.375-1.01-1.116v-2.02H455.3v-.577h.616v-.866l.7-.221v1.077h.894v.577h-.894v1.9a.846.846,0,0,0,.115.51.5.5,0,0,0,.414.144.612.612,0,0,0,.365-.115v.587Z" transform="translate(-418.294 -71.659)" fill="#fff"/>
    <path id="Path_4200" data-name="Path 4200" d="M504.689,65.373a.844.844,0,0,0-.385-.1c-.394,0-.587.24-.587.721v.519h.827v.577h-.827v3.058h-.7V67.1H502.4v-.577h.615v-.558a1.276,1.276,0,0,1,.327-.923,1.409,1.409,0,0,1,1.356-.279v.606Z" transform="translate(-460.865 -64.7)" fill="#fff"/>
    <path id="Path_4201" data-name="Path 4201" d="M534.3,83.769a.778.778,0,0,0-.212-.087,1.449,1.449,0,0,0-.25-.038.712.712,0,0,0-.606.337,1.485,1.485,0,0,0-.231.866V86.7h-.7V83.067h.7V83.8h.019a1.252,1.252,0,0,1,.366-.587.833.833,0,0,1,.567-.212,1,1,0,0,1,.337.048v.721Z" transform="translate(-487.889 -81.24)" fill="#fff"/>
    <path id="Path_4202" data-name="Path 4202" d="M560.364,84.685a1.936,1.936,0,0,1-.51,1.4,1.8,1.8,0,0,1-1.346.519,1.76,1.76,0,0,1-1.317-.51,1.863,1.863,0,0,1-.49-1.356,1.952,1.952,0,0,1,.51-1.423,1.842,1.842,0,0,1,1.385-.519,1.66,1.66,0,0,1,1.289.5,1.9,1.9,0,0,1,.481,1.385m-.721.019a1.51,1.51,0,0,0-.279-.981,1,1,0,0,0-.8-.337,1.024,1.024,0,0,0-.827.356,1.469,1.469,0,0,0-.3.991,1.405,1.405,0,0,0,.3.962,1.033,1.033,0,0,0,.827.346.99.99,0,0,0,.808-.337,1.672,1.672,0,0,0,.269-1" transform="translate(-509.943 -81.059)" fill="#fff"/>
    <path id="Path_4203" data-name="Path 4203" d="M610.3,86.431h-.7V84.364a1.5,1.5,0,0,0-.173-.817.662.662,0,0,0-.6-.25.707.707,0,0,0-.587.317,1.215,1.215,0,0,0-.24.76v2.058h-.7V84.3c0-.664-.26-1-.769-1a.726.726,0,0,0-.6.308,1.249,1.249,0,0,0-.231.779v2.058H605V82.8h.7v.567h.01a1.24,1.24,0,0,1,1.135-.654,1.145,1.145,0,0,1,.635.192,1.1,1.1,0,0,1,.4.539,1.52,1.52,0,0,1,.51-.558,1.386,1.386,0,0,1,.7-.183c.8,0,1.193.49,1.193,1.481v2.25Z" transform="translate(-553.598 -80.969)" fill="#fff"/>
  </g>
</svg>
