<?xml version="1.0" standalone="no"?>
<!DOCTYPE svg PUBLIC "-//W3C//DTD SVG 1.1//EN" "http://www.w3.org/Graphics/SVG/1.1/DTD/svg11.dtd" >
<svg xmlns="http://www.w3.org/2000/svg">
<metadata>Generated by IcoMoon</metadata>
<defs>
<font id="flags" horiz-adv-x="1024">
<font-face units-per-em="1024" ascent="960" descent="-64" />
<missing-glyph horiz-adv-x="1024" />
<glyph unicode="&#x20;" horiz-adv-x="512" d="" />
<glyph unicode="&#xe900;" horiz-adv-x="1434" d="M102.399 960h1228.8c56.552 0 102.4-45.848 102.4-102.4v-819.2c0-56.552-45.848-102.4-102.4-102.4h-1228.8c-56.552 0-102.4 45.848-102.4 102.4v819.2c0 56.552 45.848 102.4 102.4 102.4z" />
<glyph unicode="&#xe901;" horiz-adv-x="1434" d="M-0.001 960h1433.6v-204.8h-1433.6v204.8z" />
<glyph unicode="&#xe902;" horiz-adv-x="1434" d="M-0.001 140.8h1433.6v-204.8h-1433.6v204.8z" />
<glyph unicode="&#xe903;" horiz-adv-x="1434" d="M-0.001 755.2h1433.6v-614.4h-1433.6v614.4z" />
<glyph unicode="&#xe904;" horiz-adv-x="1434" d="M-0.001 686.935h1433.6v-477.865h-1433.6v477.865z" />
<glyph unicode="&#xe905;" horiz-adv-x="1434" d="M1023.999 448c0-94.255-137.538-170.665-307.2-170.665s-307.2 76.409-307.2 170.665c0 94.255 137.538 170.665 307.2 170.665s307.2-76.409 307.2-170.665z" />
<glyph unicode="&#xe906;" horiz-adv-x="1434" d="M750.934 618.665c0 0-204.354 15.403-289.689-69.926s-60.682-113.404 0-189.257c60.682-75.853 221.418-82.146 221.418-82.146l68.265 341.335z" />
<glyph unicode="&#xe907;" horiz-adv-x="1434" d="M836.264 448c0-28.276-22.924-51.2-51.2-51.2s-51.2 22.924-51.2 51.2c0 28.276 22.924 51.2 51.2 51.2s51.2-22.924 51.2-51.2z" />
<glyph unicode="&#xe908;" horiz-adv-x="1434" d="M699.734 448c0-28.276-22.924-51.2-51.2-51.2s-51.2 22.924-51.2 51.2c0 28.276 22.924 51.2 51.2 51.2s51.2-22.924 51.2-51.2z" />
<glyph unicode="&#xe909;" horiz-adv-x="1434" d="M102.4 960h1228.799c56.553 0 102.4-45.847 102.4-102.4v-819.199c0-56.553-45.847-102.4-102.4-102.4h-1228.799c-56.553 0-102.4 45.847-102.4 102.4v819.199c0 56.553 45.847 102.4 102.4 102.4z" />
<glyph unicode="&#xe90a;" horiz-adv-x="1434" d="M682.662 960h750.934v-1023.999h-750.934v1023.999z" />
<glyph unicode="&#xe90b;" horiz-adv-x="1434" d="M0 960h477.865v-1023.999h-477.865v1023.999z" />
<glyph unicode="&#xe90c;" horiz-adv-x="1434" d="M477.866 960h477.865v-1023.999h-477.865v1023.999z" />
<glyph unicode="&#xe90d;" horiz-adv-x="1434" d="M580.266 516.266c18.846 0 34.134-15.282 34.134-34.134 0-36.952 19.707-70.43 51.107-88.654 16.305-9.461 21.858-30.349 12.392-46.654s-30.349-21.858-46.654-12.392c-52.242 30.311-85.113 86.164-85.113 147.7 0 18.85 15.282 34.134 34.134 34.134zM853.333 516.266c18.846 0 34.134-15.282 34.134-34.134 0-58.91-30.117-112.716-78.812-143.859-15.881-10.156-36.989-5.517-47.145 10.364s-5.517 36.989 10.364 47.145c29.282 18.724 47.326 50.971 47.326 86.349 0 18.846 15.282 34.134 34.134 34.134z" />
<glyph unicode="&#xe90e;" horiz-adv-x="1434" d="M785.062 516.266c0-56.553-30.563-102.4-68.266-102.4s-68.266 45.847-68.266 102.4c0 56.553 30.563 102.4 68.266 102.4s68.266-45.847 68.266-102.4z" />
<glyph unicode="&#xe90f;" horiz-adv-x="1434" d="M102.4 960h1228.8c56.553 0 102.4-45.847 102.4-102.4v-819.2c0-56.553-45.847-102.4-102.4-102.4h-1228.8c-56.553 0-102.4 45.847-102.4 102.4v819.2c0 56.553 45.847 102.4 102.4 102.4z" />
<glyph unicode="&#xe910;" horiz-adv-x="1434" d="M0 960h1433.6v-1024h-1433.6v1024z" />
<glyph unicode="&#xe911;" horiz-adv-x="1434" d="M0 345.6h409.6v-409.6h204.8v409.6h819.2v204.8h-819.2v409.6h-204.8v-409.6h-409.6z" />
<glyph unicode="&#xe912;" horiz-adv-x="1434" d="M1434-64h-1433.6v1024h1433.6v-1024z" />
<glyph unicode="&#xe913;" horiz-adv-x="1434" d="M795.333 165.066c13.401-13.4 36.822-15.895 52.247-5.614l46.439 30.959c15.45 10.302 14.392 25.451-2.319 33.804l-75.929 37.964c-16.73 8.368-30.298 30.31-30.298 49.284v0c0 18.842 15.152 34.131 34.131 34.131v0c18.842 0 47.725-6.794 64.436-15.152l75.929-37.964c16.73-8.368 40.967-4.484 54.17 8.724l20.518 20.506c13.187 13.187 10.287 30.671-6.423 39.028l-75.929 37.964c-16.742 8.368-17.744 23.514-2.319 33.804l46.439 30.959c15.45 10.302 13.431 21.564-5.739 25.399l-103.23 20.648c-18.622 3.723-21.118 16.194-6.088 27.465l81.274 60.966c15.257 11.446 12.479 20.723-6.506 20.723v0c-18.854 0-48.747-3.653-67.185-8.262l-70.426-17.607c-18.253-4.562-24.682 4.294-14.397 19.718l30.959 46.439c10.302 15.462 3.543 27.98-15.443 27.98h-34.202c-18.831 0-38.844 14.246-44.902 32.399l-12.534 37.594c-5.964 17.896-15.546 18.163-21.594 0l-12.534-37.594c-5.964-17.896-25.91-32.399-44.902-32.399h-34.202c-18.831 0-25.727-12.555-15.443-27.98l30.959-46.439c10.302-15.45 4.042-24.327-14.397-19.718l-70.426 17.607c-18.253 4.562-48.2 8.262-67.185 8.262v0c-18.842 0-21.542-9.452-6.506-20.723l81.274-60.966c15.257-11.446 13.077-23.631-6.088-27.465l-103.23-20.648c-18.622-3.723-21.164-15.113-5.739-25.399l46.439-30.959c15.45-10.302 14.392-25.451-2.319-33.804l-75.929-37.964c-16.742-8.368-19.636-25.815-6.423-39.028l20.518-20.506c13.187-13.187 37.465-17.082 54.17-8.724l75.929 37.964c16.742 8.368 45.451 15.152 64.436 15.152v0c18.842 0 34.131-15.152 34.131-34.131v0c0-18.854-13.888-41.078-30.857-49.56l-105.675-52.84 74.42-49.611c15.462-10.302 38.95-7.695 52.247 5.614l53.867 53.867c13.401 13.4 35.224 13.309 48.533 0l53.867-53.867z" />
<glyph unicode="&#xe914;" horiz-adv-x="1434" d="M0 960h1433.6v-1024h-1433.6v1024z" />
<glyph unicode="&#xe915;" horiz-adv-x="1434" d="M0 960h750.933v-1024h-750.933v1024z" />
<glyph unicode="&#xe916;" horiz-adv-x="1434" d="M887.459 394.752l-80.252-57.21 29.61 94.003-79.209 58.646 98.553 0.887 31.298 93.455 31.298-93.455 98.553-0.887-79.209-58.646 29.61-94.003z" />
<glyph unicode="&#xe917;" horiz-adv-x="1434" d="M704.046 755.2c77.841 0 148.627-31.514 201.277-82.981-36.291 17.357-77.417 27.126-120.973 27.126-147.835 0-267.685-112.531-267.685-251.345s119.835-251.345 267.685-251.345c43.547 0 84.682 9.768 121.029 27.099-52.709-51.439-123.493-82.953-201.333-82.953-162.618 0-294.446 137.538-294.446 307.2s131.828 307.2 294.446 307.2z" />
<glyph unicode="&#xe918;" horiz-adv-x="1434" d="M102.4 960h1228.8c56.532 0 102.4-45.844 102.4-102.4v-819.2c0-56.556-45.868-102.4-102.4-102.4h-1228.8c-56.556 0-102.4 45.844-102.4 102.4v819.2c0 56.556 45.844 102.4 102.4 102.4z" />
<glyph unicode="&#xe919;" horiz-adv-x="1434" d="M0 960h1433.6v-1024h-1433.6v1024z" />
<glyph unicode="&#xe91a;" horiz-adv-x="1434" d="M682.676 960h750.932v-1024h-750.932v1024z" />
<glyph unicode="&#xe91b;" horiz-adv-x="1434" d="M477.852 960h477.868v-1024h-477.868v1024z" />
<glyph unicode="&#xe91c;" horiz-adv-x="1434" d="M648.533 516.244h68.268v-34.132h-68.268z" />
<glyph unicode="&#xe91d;" horiz-adv-x="1434" d="M785.372 550.4c18.677 0 32.591-14.729 31.020-33.812l-8.566-102.786c-3.139-37.676-36.18-68.204-74.116-68.204h-33.8c-37.804 0-70.932 30.219-74.116 68.204l-8.566 102.786c-1.556 18.677 12.588 33.812 31.020 33.812h137.163zM782.080 516.301h-130.611l8.33-99.668c1.54-18.476 16.98-34.068 35.116-36.556l4.995-0.364h33.8c18.44 0 35.372 14.188 39.345 31.98l0.755 4.933 8.276 99.668z" />
<glyph unicode="&#xe91e;" horiz-adv-x="1434" d="M648.533 482.132h136.556v-34.132h-136.556z" />
<glyph unicode="&#xe91f;" horiz-adv-x="1434" d="M102.4 960h1228.8c56.554 0 102.4-45.846 102.4-102.4v-819.2c0-56.554-45.846-102.4-102.4-102.4h-1228.8c-56.554 0-102.4 45.846-102.4 102.4v819.2c0 56.554 45.846 102.4 102.4 102.4z" />
<glyph unicode="&#xe920;" horiz-adv-x="1434" d="M0 960h1433.6v-1024h-1433.6v1024z" />
<glyph unicode="&#xe921;" horiz-adv-x="1434" d="M0 413.867h1433.6v-477.867h-1433.6v477.867z" />
<glyph unicode="&#xe922;" horiz-adv-x="1434" d="M0 413.867h1433.6v-477.867h-1433.6v477.867z" />
<glyph unicode="&#xe923;" horiz-adv-x="1434" d="M0 960h1433.6v-546.133h-1433.6v546.133z" />
<glyph unicode="&#xe924;" horiz-adv-x="1434" d="M0 960h1433.6v-546.133h-1433.6v546.133z" />
<glyph unicode="&#xe925;" horiz-adv-x="1434" d="M662.643 643.772c4.879 18.205 23.596 29.015 41.805 24.136 109.254-29.274 174.090-141.574 144.815-250.828-4.66-17.392-11.421-33.659-19.946-48.599l42.95-28.613c15.685-10.457 19.924-31.651 9.467-47.334s-31.651-19.924-47.334-9.467v0l-48.611 32.413c-49.646-43.064-119.096-61.511-187.356-43.22-18.205 4.879-29.015 23.596-24.136 41.805s23.596 29.015 41.805 24.136c38.864-10.414 78.307-2.964 109.609 17.315l-96.113 64.080c-15.685 10.457-19.924 31.645-9.467 47.334s31.651 19.924 47.334 9.467v0l104.836-69.89c4.617 8.803 8.34 18.239 11.019 28.238 19.516 72.836-23.708 147.702-96.541 167.218-18.211 4.879-29.015 23.596-24.136 41.805zM648.533 584.533c18.845 0 34.133-15.282 34.133-34.133s-15.282-34.133-34.133-34.133c-18.851 0-34.133 15.282-34.133 34.133s15.282 34.133 34.133 34.133z" />
<glyph unicode="&#xe926;" horiz-adv-x="1434" d="M662.643 643.772c4.879 18.205 23.596 29.015 41.805 24.136 109.254-29.274 174.090-141.574 144.815-250.828-4.66-17.392-11.421-33.659-19.946-48.599l42.95-28.613c15.685-10.457 19.924-31.651 9.467-47.334s-31.651-19.924-47.334-9.467v0l-48.611 32.413c-49.646-43.064-119.096-61.511-187.356-43.22-18.205 4.879-29.015 23.596-24.136 41.805s23.596 29.015 41.805 24.136c38.864-10.414 78.307-2.964 109.609 17.315l-96.113 64.080c-15.685 10.457-19.924 31.645-9.467 47.334s31.651 19.924 47.334 9.467v0l104.836-69.89c4.617 8.803 8.34 18.239 11.019 28.238 19.516 72.836-23.708 147.702-96.541 167.218-18.211 4.879-29.015 23.596-24.136 41.805zM648.533 584.533c18.845 0 34.133-15.282 34.133-34.133s-15.282-34.133-34.133-34.133c-18.851 0-34.133 15.282-34.133 34.133s15.282 34.133 34.133 34.133z" />
<glyph unicode="&#xe927;" horiz-adv-x="1434" d="M0 413.866h477.866v-477.866h68.266v477.866h887.466v68.266h-887.466v477.866h-68.266v-477.866h-477.866z" />
<glyph unicode="&#xe928;" horiz-adv-x="1426" d="M0.004-64v1024h1426.285v-1024z" />
<glyph unicode="&#xe929;" horiz-adv-x="1426" d="M514.435 429.077l-176.931 129.91v-123.22c0.001-0.089 0.002-0.195 0.002-0.3 0-13.268-10.756-24.024-24.024-24.024-0.024 0-0.049 0-0.073 0h-93.904c-13.305 0.202-24.021 11-24.091 24.317v123.661l-195.414-147.986v136.707l96.163 82.715h-96.163v137.145l107.351 5.024-107.351 103.224v27.345l152.757-128.449 42.653 1.994v26.666l-195.41 154.467h53.21l142.177-109.859v111.585h142.117v-119.579l194.6 117.853q63.063 3.444 79.816 0 12.808-2.63 8.866-18.226v0c-0.501-23.886-11.931-45.004-29.475-58.617l-0.173-0.129-141.94-104.156h148.286c0.021 0 0.046 0 0.071 0 13.341 0 24.156-10.814 24.158-24.154v0-97.979c-0.087-13.331-10.892-24.11-24.225-24.154h-165.383l162.946-143.527c25.671-22.606 21.982-63.739-14.854-74.070l-6.844-1.497-5.774-0.336c-19.975 0.57-38.319 7.095-53.445 17.851l0.298-0.202zM535.050 458.74c9.132-6.317 20.314-10.296 32.39-10.852l0.137-0.005 3.219 0.237c6.714 1.098 7.618 5.841 1.185 11.524l-194.379 171.212h-40.098v-27.089zM0 520.796v-54.683l195.398 139.017v25.726h-48.147zM337.504 777.145h50.718l182.302 133.82c8.614 6.944 14.229 17.307 14.767 28.996l0.003 0.087v18.226l-247.79-159.171zM0 958.274v0z" />
<glyph unicode="&#xe92a;" horiz-adv-x="1426" d="M561.689 448.002c-8.28 0.415-15.854 3.119-22.193 7.487l0.144-0.094-238.205 175.462v-182.855h-70.922v182.855l-230.512-164.573v54.86l194.948 146.209-194.948-0.395v73.612h195.051l-195.051 137.145v82.285l230.512-182.855v182.855h70.922v-182.855l283.71 182.855v-24.19c-0.414-7.995-4.218-15.026-9.99-19.736l-0.049-0.039-238.225-175.466h248.244v-73.142h-248.221l239.11-211.365c5.043-4.459 3.59-8.072-2.875-8.072z" />
<glyph unicode="&#xe92b;" horiz-adv-x="1426" d="M919.16 160.213l-4.874 137.106 219.339-0.81v-129.807s-1.623-81.128-107.233-119.27c-55.156 12.708-97.315 56.73-107.109 111.937l-0.124 0.844zM914.287 297.318v0zM968.286 332.203l-8.175-12.713 1.114 21.67s-44.853-24.091-69.686 12.038l29.284 94.591-15.197-25.114-14.087-7.899s-8.527-31.65-31.512-27.523l21.872 46.097s-53.024-39.916-83.774-4.826 17.049 20.296 17.049 20.296v0s-15.92-16.86 4.076-24.77 60.425 25.11 60.425 25.11l-46.709-6.88-7.413 5.849 22.614 10.663-7.417 19.952 20.015-14.79 46.701 1.722s27.432 0.344 28.542-16.169-1.856-22.701-1.856-22.701l5.924 2.765-27.428-54.699s4.451-48.158 53.751-13.76l22.981-30.615-9.636-17.199zM1040.599 336.306l22.981 30.619c49.3-34.399 53.747 13.76 53.747 13.76l-27.428 54.699 5.924-2.765s-2.97 6.193-1.852 22.705 28.542 16.169 28.542 16.169l46.705-1.722 20.007 14.802-7.413-19.952 22.61-10.663-7.409-5.849-46.713 6.88s40.406-33.024 60.425-25.114 4.080 24.766 4.080 24.766v0s47.819 14.794 17.053-20.296-83.782 4.81-83.782 4.81l21.872-46.097c-22.981-4.127-31.508 27.523-31.508 27.523l-14.091 7.899-15.193 25.134 29.284-94.603c-24.834-36.125-69.686-12.042-69.686-12.042l1.114-21.666-8.155 12.725-11.493-18.917z" />
<glyph unicode="&#xe92c;" horiz-adv-x="1426" d="M966.035 75.775l-17.717 17.895s-4.637 29.225 21.824 8.811 44.501 1.185 44.501 1.185 12.030 17.417 40.892-7.804c0 0 13.23-6.607 22.851 1.185s19.557 25.694 32.187 9.478l-34.197-34.478c-24.66-23.4-49.584-26.315-49.584-26.315s-0.257 0-0.754 0c-4.435-0.016-28.096 1.426-60.003 30.043zM1030.884 150.023s-35.481-31.228-70.962 0.596c0 0-18.124 18.625-36.765-7.796l-3.997 17.389-0.466 13.582c0.028 0.032 25.007 27.251 51.448 6.84s44.501 1.185 44.501 1.185 12.030 17.417 40.892-7.808c0 0 13.23-6.607 22.851 1.205s28.266 24.616 40.892 8.404 14.435-6.007 14.435-6.007l-0.288-15.884-4.739-19.482s-18.424 23.384-43.076-0.036c-5.269-5.339-12.572-8.661-20.65-8.708h-0.009c-18.167-0.016-34.067 16.504-34.067 16.504zM918.694 173.794v0zM1030.884 229.765s-35.481-31.228-70.962 0.6c0 0-24.052 9.609-42.696-16.812l-1.805 38.431s28.262 28.83 54.722 8.408 44.501 1.185 44.501 1.185 12.030 17.417 40.892-7.804c0 0 13.226-6.603 22.847 1.185s28.266 24.624 40.896 8.404 14.435-6.003 14.435-6.003l-1.24-39.185s-22.215 27.175-46.867 3.752c-5.27-5.341-12.574-8.664-20.654-8.712h-0.009c-18.159 0.032-34.059 16.552-34.059 16.552z" />
<glyph unicode="&#xe92d;" horiz-adv-x="1426" d="M787.615 55.898s-31.366-5.738-44.628 2.836-5.197 9.644 32.91 39.099c27.566 21.327 64.201 28.040 82.356 30.153l5.134 6.623v19.672l9.826-4.795 2.030 17.294 8.294-9.119 15.008 10.075-2.587-12.472 11.374-10.557-28.435-12.48 22.235 1.919-4.167-12.476-13.033-0.687c3.159-1.809 6.67-3.874 10.375-6.137l3.077 4.763 8.373-8.878s34.083 4.439 27.507-16.65c-0.618-2.102-1.541-3.934-2.735-5.554l0.034 0.048c8.779-8.151 14.806-16.37 14.478-23.408-1.153-24.648-69.832-12.555-69.832-12.555-11.713-4.368-25.247-6.896-39.371-6.896-0.043 0-0.086 0-0.129 0h0.007c-0.278-0.002-0.606-0.004-0.935-0.004-17.094 0-33.311 3.753-47.873 10.479l0.708-0.293zM1172.776 55.847s-68.679-12.101-69.832 12.551c-0.332 7.042 5.699 15.264 14.482 23.412-1.163 1.571-2.087 3.403-2.67 5.382l-0.031 0.124c-6.58 21.090 27.507 16.65 27.507 16.65l8.373 8.878 3.077-4.763c3.704 2.263 7.215 4.344 10.375 6.137l-13.033 0.687-4.135 12.476 22.235-1.919-28.435 12.476 11.374 10.561-2.587 12.472 15.008-10.075 8.294 9.119 2.069-17.274 9.826 4.795v-19.672l5.134-6.623c18.167-2.097 54.789-8.835 82.356-30.157 38.107-29.47 46.207-30.544 32.91-39.099s-44.628-2.84-44.628-2.84c-13.855-6.433-30.074-10.185-47.17-10.185-0.334 0-0.667 0.001-1 0.004h0.051c-0.067 0-0.146 0-0.225 0-14.107 0-27.624 2.523-40.126 7.143l0.802-0.259zM924.496 138.689v0l100.503 108.114 101.743-108.114c-4.072-18.412-20.833-36.824-20.833-36.824l-80.689 87.024-77.103-92.063c-10.066 11.826-18.104 25.745-23.351 40.964l-0.27 0.899zM950.858 416.257l65.22 141.458 44.493-146.284z" />
<glyph unicode="&#xe92e;" horiz-adv-x="1426" d="M1078.154 314.143c0-13.337-13.728-24.146-30.667-24.146s-30.667 10.809-30.667 24.146 13.728 24.146 30.667 24.146 30.667-10.809 30.667-24.146z" />
<glyph unicode="&#xe92f;" horiz-adv-x="1426" d="M997.729 301.576l-8.337 28.901-22.985 30.615-15.596 2.164 4.344 10.888 26.066-3.227-9.557 8.061s32.148 39.912 67.767 20.142l49.090-67.297s-0.865-23.384-10.861-31.042l-6.516 0.395s26.935 27.010-5.648 27.010-38.23-26.204-38.23-26.204l-29.537-0.395z" />
<glyph unicode="&#xe930;" horiz-adv-x="1426" d="M757.92 70.535s24.849 33.257 8.12 55.441l79.307 143.243-17.662 42.132 3.823 26.164s13.854 36.366 45.398 21.287v-26.607l-16.726-17.737 0.482-16.856s19.593 28.384 50.654 30.6 41.571-29.715 41.571-29.715h-37.27s-11.473 6.655-29.154-15.967l23.416-27.495 0.952-33.261-16.263-36.362-9.084 11.974 0.482 28.83c-2.466 8.918-6.46 16.689-11.728 23.414l0.109-0.144-5.099-38.791-51.594-60.765s5.261-45.666-7.168-70.512l-13.376 9.313s-15.778-24.312-29.225-24.312c-4.29 0.135-7.987 2.549-9.934 6.065l-0.031 0.060zM1250.898 91.956l-13.38-9.313c-12.425 24.83-7.168 70.512-7.168 70.512l-51.61 60.757-5.099 38.798c-5.159-6.582-9.154-14.354-11.512-22.808l-0.111-0.466 0.478-28.83-9.084-11.97-16.248 36.362 0.956 33.261 23.412 27.495c-17.681 22.622-29.15 15.967-29.15 15.967h-37.27s10.509 31.934 41.571 29.715 50.654-30.6 50.654-30.6l0.478 16.852-16.726 17.74v26.611c31.54 15.079 45.398-21.287 45.398-21.287l3.823-26.164-17.673-42.132h-0.020l79.327-143.247c-16.726-22.176 8.124-55.433 8.124-55.433-1.974-3.572-5.662-5.983-9.925-6.125l-0.019-0.001c-13.448-0.004-29.225 24.308-29.225 24.308z" />
<glyph unicode="&#xe931;" horiz-adv-x="1426" d="M802.323 306.844s28.293 13.132 38.396-9.376-0.679-83.142-0.679-83.142l-18.858-22.511-7.409-18.755-74.090-71.878s-41.76 104.393 62.641 205.663zM1234.228 176.31l-7.409 18.752-18.858 22.511s-10.778 60.634-0.675 83.142 38.396 9.368 38.396 9.368c104.401-101.269 62.645-205.663 62.645-205.663z" />
<glyph unicode="&#xe932;" horiz-adv-x="1436" d="M1.209-63.987h1433.585v1023.987h-1433.585z" />
<glyph unicode="&#xe933;" horiz-adv-x="1436" d="M0 423.519l1436.091-487.502-1.486 34.916-1293.651 451.97 1293.673 489.621 1.486 47.475z" />
<glyph unicode="&#xe934;" horiz-adv-x="1436" d="M140.945 422.904l1293.849-451.988-0.145 949.837z" />
<glyph unicode="&#xe935;" horiz-adv-x="1434" d="M102.4 960h1228.8c56.548 0 102.4-45.846 102.4-102.4v-819.2c0-56.548-45.846-102.4-102.4-102.4h-1228.8c-56.548 0-102.4 45.846-102.4 102.4v819.2c0 56.548 45.846 102.4 102.4 102.4z" />
<glyph unicode="&#xe936;" horiz-adv-x="1434" d="M0 960h1433.6v-1024h-1433.6v1024z" />
<glyph unicode="&#xe937;" horiz-adv-x="1434" d="M887.475 448v170.667l68.267-34.133 68.267 34.133 68.267-34.133 68.267 34.133v-170.667c0-102.4-136.533-170.667-136.533-170.667s-136.533 68.267-136.533 170.667z" />
<glyph unicode="&#xe938;" horiz-adv-x="1434" d="M887.475 345.6h273.067v-68.267h-273.067v68.267z" />
<glyph unicode="&#xe939;" horiz-adv-x="1434" d="M955.733 482.133c18.851 0 34.133-15.282 34.133-34.133s-15.282-34.133-34.133-34.133c-18.851 0-34.133 15.282-34.133 34.133s15.282 34.133 34.133 34.133zM1092.267 482.133c18.851 0 34.133-15.282 34.133-34.133s-15.282-34.133-34.133-34.133c-18.851 0-34.133 15.282-34.133 34.133s15.282 34.133 34.133 34.133zM1024 550.4c18.851 0 34.133-15.282 34.133-34.133s-15.282-34.133-34.133-34.133c-18.851 0-34.133 15.282-34.133 34.133s15.282 34.133 34.133 34.133z" />
<glyph unicode="&#xe93a;" horiz-adv-x="1434" d="M238.933 755.2l-238.926 204.798h34.133l238.926-170.667h68.267l273.067 170.667v-17.060c0-9.426-5.906-21.285-14.231-27.232l-224.703-160.502v-68.267l226.087-193.789c7.095-6.081 4.929-11.011-4.221-11.011v0c-9.426 0-22.973 4.219-31.297 10.165l-224.703 160.502h-68.267l-273.067-170.667v34.133l238.926 170.667v68.267z" />
<glyph unicode="&#xe93b;" horiz-adv-x="1434" d="M648.533 942.933v78.652l-316.962-198.081h-47.616l-238.883 170.633h-137.343l297.071-254.652v-34.918l-238.926-170.731v-113.284l316.962 198.149h47.565l215.803-154.178c13.951-9.965 34.397-16.517 51.137-16.517l5.557 0.312 6.586 1.399c35.442 9.676 38.975 48.187 14.291 69.349l-214.17 183.557v35.072l210.409 150.237c17.136 12.236 28.525 34.356 28.525 55.007zM34.129 960l238.926-170.667h68.267l273.067 170.667v-17.060c0-9.426-5.906-21.285-14.231-27.232l-224.703-160.502v-68.267l226.087-193.789c6.204-5.321 5.322-9.761-1.124-10.787l-3.099-0.224c-9.426 0-22.973 4.219-31.297 10.165l-224.703 160.502h-68.267l-273.067-170.667v34.133l238.926 170.667v68.267l-238.926 204.798h34.133z" />
<glyph unicode="&#xe93c;" horiz-adv-x="1434" d="M0 789.333v-136.533h238.926v-170.981c0-18.677 15.662-33.827 34.453-33.827h67.627c19.036 0 34.453 15.393 34.453 33.827v170.981h238.483c19.104 0 34.584 15.662 34.584 34.453v67.627c0 19.036-15.464 34.453-34.584 34.453h-238.483v170.667h-136.533v-170.667h-238.926z" />
<glyph unicode="&#xe93d;" horiz-adv-x="1434" d="M0 755.2h273.067v204.798h68.267v-204.798h273.067v-68.267h-273.067v-204.798h-68.267v204.798h-273.067z" />
<glyph unicode="&#xe93e;" horiz-adv-x="1434" d="M-2.458 960h1436.058v-1022.976h-1436.058z" />
<glyph unicode="&#xe93f;" horiz-adv-x="1434" d="M0.563 958.771h1431.552v-431.974h-1431.552z" />
<glyph unicode="&#xe940;" horiz-adv-x="1434" d="M263.373 553.626h950.067v-227.584h-950.067z" />
<glyph unicode="&#xe941;" horiz-adv-x="1434" d="M1432.627 956.262v-1020.416h-716.39l716.39 1020.723zM-0.051 956.262v-1020.416h716.237l-716.186 1020.723z" />
<glyph unicode="&#xe942;" horiz-adv-x="1434" d="M1051.904 553.37l-143.718 38.605 122.112 97.997-149.811-22.938 76.8 139.162-133.12-81.92 24.064 161.792-90.112-127.59-36.301 148.019-40.96-152.576-89.907 129.997 25.6-166.4-133.12 86.579 77.158-139.008-145.613 24.986 120.013-95.59-150.323-40.96h667.238z" />
<glyph unicode="&#xe943;" horiz-adv-x="1434" d="M1331.648 960c56.306 0 101.952-45.975 101.952-101.929v-820.143c0-56.297-46.075-101.911-101.952-101.911h-1229.697c-56.306 0-101.952 45.975-101.952 101.911v820.143c0 56.297 46.075 101.929 101.952 101.929h1229.697zM1331.648 934.4h-1229.697c-39.44 0-72.273-30.418-76.009-69.004l-0.343-7.337v-820.143c0-39.469 30.399-72.256 69.015-75.977l7.337-0.361h1229.697c39.44 0 72.273 30.418 76.009 69.004l0.343 7.337v820.143c0 39.469-30.399 72.256-69.033 75.977l-7.319 0.343z" />
<glyph unicode="&#xe944;" horiz-adv-x="1434" d="M0 960h1433.6v-341.333h-1433.6v341.333z" />
<glyph unicode="&#xe945;" horiz-adv-x="1434" d="M0 277.333h1433.6v-341.333h-1433.6v341.333z" />
<glyph unicode="&#xe946;" horiz-adv-x="1434" d="M716.8 584.533c-75.405 0-136.533-61.128-136.533-136.533s61.128-136.533 136.533-136.533c75.405 0 136.533 61.128 136.533 136.533s-61.128 136.533-136.533 136.533zM716.8 550.4c56.554 0 102.4-45.846 102.4-102.4s-45.846-102.4-102.4-102.4c-56.554 0-102.4 45.846-102.4 102.4s45.846 102.4 102.4 102.4z" />
<glyph unicode="&#xe947;" horiz-adv-x="1434" d="M819.2 448c0-56.554-45.846-102.4-102.4-102.4s-102.4 45.846-102.4 102.4c0 56.554 45.846 102.4 102.4 102.4s102.4-45.846 102.4-102.4z" />
<glyph unicode="&#xe948;" horiz-adv-x="1434" d="M102.4 960h1228.8c56.554 0 102.4-45.846 102.4-102.4v-819.2c0-56.554-45.846-102.4-102.4-102.4h-1228.8c-56.554 0-102.4 45.846-102.4 102.4v819.2c0 56.554 45.846 102.4 102.4 102.4z" />
<glyph unicode="&#xe949;" horiz-adv-x="1434" d="M0 618.667h1433.6v-341.333h-1433.6v341.333z" />
<glyph unicode="&#xe94a;" horiz-adv-x="1434" d="M0 960h1433.6v-341.333h-1433.6v341.333z" />
<glyph unicode="&#xe94b;" horiz-adv-x="1434" d="M0 277.333h1433.6v-341.333h-1433.6v341.333z" />
<glyph unicode="&#xe94c;" horiz-adv-x="1434" d="M102.4 960h1228.8c56.554 0 102.4-45.846 102.4-102.4v-819.2c0-56.554-45.846-102.4-102.4-102.4h-1228.8c-56.554 0-102.4 45.846-102.4 102.4v819.2c0 56.554 45.846 102.4 102.4 102.4z" />
<glyph unicode="&#xe94d;" horiz-adv-x="1434" d="M0 960h1433.6v-1024h-1433.6v1024z" />
<glyph unicode="&#xe94e;" horiz-adv-x="1434" d="M0 960h1433.6v-1024h-1433.6v1024z" />
<glyph unicode="&#xe94f;" horiz-adv-x="1434" d="M212.796 660.658l60.361-115.776 60.452 115.74 115.733 60.445-115.733 60.404-60.452 115.781-60.397-115.781-115.788-60.404 115.824-60.409zM273.157 618.667l-35.111 67.289-67.289 35.111 67.289 35.111 35.111 67.289 35.111-67.289 67.289-35.111-67.289-35.111-35.111-67.289z" />
<glyph unicode="&#xe950;" horiz-adv-x="1434" d="M238.046 756.178l35.111 67.289 35.111-67.289 67.289-35.111-67.289-35.111-35.111-67.289-35.111 67.289-67.289 35.111z" />
<glyph unicode="&#xe951;" horiz-adv-x="1434" d="M0 209.067h1433.6v-68.267h-1433.6v68.267z" />
<glyph unicode="&#xe952;" horiz-adv-x="1434" d="M0 345.6h1433.6v-68.267h-1433.6v68.267z" />
<glyph unicode="&#xe953;" horiz-adv-x="1434" d="M102.4 960h1228.8c56.55 0 102.4-45.846 102.4-102.4v-819.2c0-56.55-45.846-102.4-102.4-102.4h-1228.8c-56.55 0-102.4 45.846-102.4 102.4v819.2c0 56.55 45.846 102.4 102.4 102.4z" />
<glyph unicode="&#xe954;" horiz-adv-x="1434" d="M0 960h1433.6v-1024h-1433.6v1024z" />
<glyph unicode="&#xe955;" horiz-adv-x="1434" d="M238.933 755.2l-238.933 204.8h34.133l238.933-170.667h68.267l273.067 170.667v-17.067c0-9.426-5.906-21.285-14.231-27.232l-224.703-160.502v-68.267l226.087-193.789c7.095-6.081 4.929-11.011-4.221-11.011v0c-9.426 0-22.973 4.219-31.297 10.165l-224.703 160.502h-68.267l-273.067-170.667v34.133l238.933 170.667v68.267z" />
<glyph unicode="&#xe956;" horiz-adv-x="1434" d="M648.533 942.933v78.652l-316.962-198.083h-47.616l-238.883 170.633h-137.343l297.071-254.652v-34.918l-238.933-170.731v-113.284l316.962 198.151h47.565l215.803-154.178c13.951-9.965 34.397-16.519 51.137-16.519l5.557 0.312 6.586 1.399c35.442 9.676 38.977 48.187 14.291 69.349l-214.168 183.557v35.072l210.409 150.237c17.134 12.236 28.525 34.356 28.525 55.007zM34.131 960l238.933-170.667h68.267l273.067 170.667v-17.067c0-9.426-5.906-21.285-14.231-27.232l-224.703-160.502v-68.267l226.087-193.789c6.206-5.321 5.324-9.761-1.122-10.787l-3.099-0.224c-9.426 0-22.973 4.219-31.297 10.165l-224.703 160.502h-68.267l-273.067-170.667v34.133l238.933 170.667v68.267l-238.933 204.8h34.133z" />
<glyph unicode="&#xe957;" horiz-adv-x="1434" d="M0 789.333v-136.533h238.933v-170.981c0-18.677 15.662-33.819 34.453-33.819h67.627c19.028 0 34.453 15.393 34.453 33.819v170.981h238.483c19.102 0 34.584 15.662 34.584 34.453v67.627c0 19.028-15.464 34.453-34.584 34.453h-238.483v170.667h-136.533v-170.667h-238.933z" />
<glyph unicode="&#xe958;" horiz-adv-x="1434" d="M0 755.2h273.067v204.8h68.267v-204.8h273.067v-68.267h-273.067v-204.8h-68.267v204.8h-273.067z" />
<glyph unicode="&#xe959;" horiz-adv-x="1434" d="M307.2 123.733l-60.189-31.643 11.495 67.022-48.694 47.465 67.294 9.778 30.095 60.978 30.095-60.978 67.294-9.778-48.694-47.465 11.495-67.022z" />
<glyph unicode="&#xe95a;" horiz-adv-x="1434" d="M1024 72.533l-48.272-14.138 14.138 48.272-14.138 48.272 48.272-14.138 48.272 14.138-14.138-48.272 14.138-48.272z" />
<glyph unicode="&#xe95b;" horiz-adv-x="1434" d="M1024 721.067l-48.272-14.138 14.138 48.272-14.138 48.272 48.272-14.138 48.272 14.138-14.138-48.272 14.138-48.272z" />
<glyph unicode="&#xe95c;" horiz-adv-x="1434" d="M1228.8 516.267l-48.272-14.138 14.138 48.272-14.138 48.272 48.272-14.138 48.272 14.138-14.138-48.272 14.138-48.272z" />
<glyph unicode="&#xe95d;" horiz-adv-x="1434" d="M819.2 448l-48.272-14.138 14.138 48.272-14.138 48.272 48.272-14.138 48.272 14.138-14.138-48.272 14.138-48.272z" />
<glyph unicode="&#xe95e;" horiz-adv-x="1434" d="M1126.4 362.667l-24.136-7.069 7.069 24.136-7.069 24.136 24.136-7.069 24.136 7.069-7.069-24.136 7.069-24.136z" />
<glyph unicode="&#xe95f;" horiz-adv-x="1434" d="M102.4 960h1228.8c56.554 0 102.4-45.846 102.4-102.4v-819.2c0-56.554-45.846-102.4-102.4-102.4h-1228.8c-56.554 0-102.4 45.846-102.4 102.4v819.2c0 56.554 45.846 102.4 102.4 102.4z" />
<glyph unicode="&#xe960;" horiz-adv-x="1434" d="M0 960h1433.6v-341.333h-1433.6v341.333z" />
<glyph unicode="&#xe961;" horiz-adv-x="1434" d="M0 277.333h1433.6v-341.333h-1433.6v341.333z" />
<glyph unicode="&#xe962;" horiz-adv-x="1434" d="M102.4 960h1228.8c56.554 0 102.4-45.846 102.4-102.4v-819.2c0-56.554-45.846-102.4-102.4-102.4h-1228.8c-56.554 0-102.4 45.846-102.4 102.4v819.2c0 56.554 45.846 102.4 102.4 102.4z" />
<glyph unicode="&#xe963;" horiz-adv-x="1434" d="M0 960h1433.6v-341.333h-1433.6v341.333z" />
<glyph unicode="&#xe964;" horiz-adv-x="1434" d="M0 277.333h1433.6v-341.333h-1433.6v341.333z" />
<glyph unicode="&#xe965;" horiz-adv-x="1434" d="M0 618.667h1433.6v-341.333h-1433.6v341.333z" />
<glyph unicode="&#xe966;" horiz-adv-x="1434" d="M716.8 550.4c21.061 0 40.637-6.358 56.913-17.26-1.878 0.13-3.788 0.193-5.713 0.193-47.128 0-85.333-38.205-85.333-85.333s38.205-85.333 85.333-85.333l5.713 0.193c-16.276-10.902-35.852-17.26-56.913-17.26-56.554 0-102.4 45.846-102.4 102.4s45.846 102.4 102.4 102.4zM785.058 482.133c18.842 0 34.133-15.282 34.133-34.133s-15.282-34.133-34.133-34.133c-18.854 0-34.133 15.282-34.133 34.133s15.282 34.133 34.133 34.133z" />
<glyph unicode="&#xe967;" horiz-adv-x="1434" d="M716.8 550.4c21.061 0 40.637-6.358 56.913-17.26-1.878 0.13-3.788 0.193-5.713 0.193-47.128 0-85.333-38.205-85.333-85.333s38.205-85.333 85.333-85.333l5.713 0.193c-16.276-10.902-35.852-17.26-56.913-17.26-56.554 0-102.4 45.846-102.4 102.4s45.846 102.4 102.4 102.4zM785.058 482.133c18.842 0 34.133-15.282 34.133-34.133s-15.282-34.133-34.133-34.133c-18.854 0-34.133 15.282-34.133 34.133s15.282 34.133 34.133 34.133z" />
<glyph unicode="&#xe968;" horiz-adv-x="1434" d="M102.4 960h1228.8c56.554 0 102.4-45.846 102.4-102.4v-819.2c0-56.554-45.846-102.4-102.4-102.4h-1228.8c-56.554 0-102.4 45.846-102.4 102.4v819.2c0 56.554 45.846 102.4 102.4 102.4z" />
<glyph unicode="&#xe969;" horiz-adv-x="1434" d="M0 277.333h1433.6v-341.333h-1433.6v341.333z" />
<glyph unicode="&#xe96a;" horiz-adv-x="1434" d="M0 960h1433.6v-341.333h-1433.6v341.333z" />
<glyph unicode="&#xe96b;" horiz-adv-x="1434" d="M0 618.667h1433.6v-341.333h-1433.6v341.333z" />
<glyph unicode="&#xe96c;" horiz-adv-x="1434" d="M0 960l682.667-512-682.667-512z" />
<glyph unicode="&#xe96d;" horiz-adv-x="1434" d="M11.203 952h1411.2v-1008h-1411.2v1008z" />
<glyph unicode="&#xe96e;" horiz-adv-x="1434" d="M1422.403 952v-1008h-907.2l-100.8 67.2 100.8 67.2-100.8 67.2 100.8 67.2-100.8 67.2 100.8 67.2-100.8 67.2 100.8 67.2-100.8 67.2 100.8 67.2-100.8 67.2 100.8 67.2-100.8 67.2 100.8 67.2-100.8 67.2h1008z" />
<glyph unicode="&#xe96f;" horiz-adv-x="1434" d="M102.4 960h1228.8c56.554 0 102.4-45.846 102.4-102.4v-819.2c0-56.554-45.846-102.4-102.4-102.4h-1228.8c-56.554 0-102.4 45.846-102.4 102.4v819.2c0 56.554 45.846 102.4 102.4 102.4z" />
<glyph unicode="&#xe970;" horiz-adv-x="1434" d="M0 960h1433.6v-1024h-1433.6v1024z" />
<glyph unicode="&#xe971;" horiz-adv-x="1434" d="M955.733 448c0-169.662-137.538-307.2-307.2-307.2s-307.2 137.538-307.2 307.2c0 169.662 137.538 307.2 307.2 307.2s307.2-137.538 307.2-307.2z" />
<glyph unicode="&#xe972;" horiz-adv-x="1434" d="M102.4 960h1228.8c56.554 0 102.4-45.846 102.4-102.4v-819.2c0-56.554-45.846-102.4-102.4-102.4h-1228.8c-56.554 0-102.4 45.846-102.4 102.4v819.2c0 56.554 45.846 102.4 102.4 102.4z" />
<glyph unicode="&#xe973;" horiz-adv-x="1434" d="M0 960h1433.6v-1024h-1433.6v1024z" />
<glyph unicode="&#xe974;" horiz-adv-x="1434" d="M682.667 960h750.933v-1024h-750.933v1024z" />
<glyph unicode="&#xe975;" horiz-adv-x="1434" d="M0 960h477.867v-1024h-477.867v1024z" />
<glyph unicode="&#xe976;" horiz-adv-x="1434" d="M477.867 960h477.867v-1024h-477.867v1024z" />
<glyph unicode="&#xe977;" horiz-adv-x="1434" d="M708.49 638.562c5.348 7.864 14.072 7.52 18.984 0l48.291-73.923c5.137-7.864 1.301-14.238-8.033-14.238h-16.532c-9.573 0-16.601-7.333-15.635-16.988l13.669-136.69c0.938-9.382 9.615-16.988 18.765-16.988v0c9.426 0 22.4 5.276 29.39 12.191l9.487 9.386c6.806 6.733 12.323 19.536 12.323 29.51v33.995c0 9.565-5.333 22.652-12.323 29.642l-9.487 9.488c-6.806 6.806-4.959 14.778 3.677 17.656l70.4 23.467c8.837 2.946 14.651-2 12.876-11.655l-25.139-136.69c-1.726-9.382-8.697-22.345-15.494-28.879l-46.274-44.484c-6.831-6.567-20.286-11.891-29.436-11.891v0c-9.426 0-17.067-7.306-17.067-17.227v-33.814c0-9.514-7.306-17.227-17.227-17.227h-33.814c-9.514 0-17.227 7.306-17.227 17.227v33.814c0 9.514-7.917 17.227-17.067 17.227v0c-9.426 0-22.423 5.357-28.958 11.891l-44.484 44.484c-6.567 6.567-13.358 19.224-15.289 28.879l-27.338 136.69c-1.876 9.382 3.967 14.533 12.602 11.655l70.4-23.467c8.837-2.946 10.667-10.667 3.677-17.656l-9.487-9.488c-6.806-6.806-12.323-19.668-12.323-29.642v-33.995c0-9.565 5.333-22.595 12.323-29.51l9.487-9.386c6.806-6.733 20.24-12.191 29.39-12.191v0c9.426 0 17.8 7.333 18.765 16.988l13.669 136.69c0.938 9.382-6.301 16.988-15.635 16.988h-16.532c-9.573 0-12.765 6.719-7.651 14.238l50.273 73.923z" />
<glyph unicode="&#xe978;" horiz-adv-x="1434" d="M102.399 960h1228.8c56.552 0 102.4-45.848 102.4-102.4v-819.2c0-56.552-45.848-102.4-102.4-102.4h-1228.8c-56.552 0-102.4 45.848-102.4 102.4v819.2c0 56.552 45.848 102.4 102.4 102.4z" />
<glyph unicode="&#xe979;" horiz-adv-x="1434" d="M-0.001 960h1433.6v-1024h-1433.6v1024z" />
<glyph unicode="&#xe97a;" horiz-adv-x="1434" d="M1160.534-64v1024h-716.8z" />
<glyph unicode="&#xe97b;" horiz-adv-x="1434" d="M1160.534-64v1024h-716.8z" />
<glyph unicode="&#xe97c;" horiz-adv-x="1434" d="M887.465 4.265l-48.273-14.137 14.137 48.273-14.137 48.273 48.273-14.137 48.273 14.137-14.137-48.273 14.137-48.273z" />
<glyph unicode="&#xe97d;" horiz-adv-x="1434" d="M750.934 209.065l-48.273-14.137 14.137 48.273-14.137 48.273 48.273-14.137 48.273 14.137-14.137-48.273 14.137-48.273z" />
<glyph unicode="&#xe97e;" horiz-adv-x="1434" d="M614.399 413.865l-48.273-14.137 14.137 48.273-14.137 48.273 48.273-14.137 48.273 14.137-14.137-48.273 14.137-48.273z" />
<glyph unicode="&#xe97f;" horiz-adv-x="1434" d="M477.865 618.665l-48.273-14.137 14.137 48.273-14.137 48.273 48.273-14.137 48.273 14.137-14.137-48.273 14.137-48.273z" />
<glyph unicode="&#xe980;" horiz-adv-x="1434" d="M341.334 823.465l-48.273-14.137 14.137 48.273-14.137 48.273 48.273-14.137 48.273 14.137-14.137-48.273 14.137-48.273z" />
<glyph unicode="&#xe981;" horiz-adv-x="1434" d="M102.4 960h1228.8c56.554 0 102.4-45.846 102.4-102.4v-819.2c0-56.554-45.846-102.4-102.4-102.4h-1228.8c-56.554 0-102.4 45.846-102.4 102.4v819.2c0 56.554 45.846 102.4 102.4 102.4z" />
<glyph unicode="&#xe982;" horiz-adv-x="1434" d="M0 960h1433.6v-682.667h-1433.6v682.667z" />
<glyph unicode="&#xe983;" horiz-adv-x="1434" d="M0 277.333h1433.6v-341.333h-1433.6v341.333z" />
<glyph unicode="&#xe984;" horiz-adv-x="1434" d="M204.8 960v-153.549l-34.133-51.251 34.133-51.251v-102.298l-34.133-51.251 34.133-51.251v-102.298l-34.133-51.251 34.133-51.251v-102.298l-34.133-51.251 34.133-51.251v-153.549h-204.8v1024h204.8z" />
<glyph unicode="&#xe985;" horiz-adv-x="1434" d="M-34.133 243.2l68.267-102.4-68.267-102.4-68.267 102.4 68.267 102.4zM-34.133 448l68.267-102.4-68.267-102.4-68.267 102.4 68.267 102.4zM-34.133 652.8l68.267-102.4-68.267-102.4-68.267 102.4 68.267 102.4zM-34.133 857.6l68.267-102.4-68.267-102.4-68.267 102.4 68.267 102.4z" />
<glyph unicode="&#xe986;" horiz-adv-x="1434" d="M102.4 140.8l68.267-102.4-68.267-102.4-68.267 102.4 68.267 102.4zM102.4 345.6l68.267-102.4-68.267-102.4-68.267 102.4 68.267 102.4zM102.4 550.4l68.267-102.4-68.267-102.4-68.267 102.4 68.267 102.4zM102.4 755.2l68.267-102.4-68.267-102.4-68.267 102.4 68.267 102.4zM102.4 960l68.267-102.4-68.267-102.4-68.267 102.4 68.267 102.4z" />
<glyph unicode="&#xe987;" horiz-adv-x="1434" d="M102.4 960h1228.8c56.554 0 102.4-45.846 102.4-102.4v-819.2c0-56.554-45.846-102.4-102.4-102.4h-1228.8c-56.554 0-102.4 45.846-102.4 102.4v819.2c0 56.554 45.846 102.4 102.4 102.4z" />
<glyph unicode="&#xe988;" horiz-adv-x="1434" d="M682.667 960h750.933v-1024h-750.933v1024z" />
<glyph unicode="&#xe989;" horiz-adv-x="1434" d="M0 960h477.867v-1024h-477.867v1024z" />
<glyph unicode="&#xe98a;" horiz-adv-x="1434" d="M477.867 960h477.867v-1024h-477.867v1024z" />
<glyph unicode="&#xe98b;" horiz-adv-x="1434" d="M102.4 960h1228.8c56.553 0 102.4-45.847 102.4-102.4v-819.2c0-56.553-45.847-102.4-102.4-102.4h-1228.8c-56.553 0-102.4 45.847-102.4 102.4v819.2c0 56.553 45.847 102.4 102.4 102.4z" />
<glyph unicode="&#xe98c;" horiz-adv-x="1434" d="M0 823.466h1433.6v-750.934h-1433.6v750.934z" />
<glyph unicode="&#xe98d;" horiz-adv-x="1434" d="M0 960h1433.6v-136.534h-1433.6v136.534z" />
<glyph unicode="&#xe98e;" horiz-adv-x="1434" d="M0 72.534h1433.6v-136.534h-1433.6v136.534z" />
<glyph unicode="&#xe98f;" horiz-adv-x="1434" d="M1024 448c0-169.662-137.538-307.2-307.2-307.2s-307.2 137.538-307.2 307.2c0 169.662 137.538 307.2 307.2 307.2s307.2-137.538 307.2-307.2z" />
<glyph unicode="&#xe990;" horiz-adv-x="1434" d="M776.050 679.521c18.267-4.663 29.292-23.251 24.63-41.514s-23.251-29.292-41.514-24.63c-13.716 3.5-27.908 5.29-42.366 5.29-18.85 0-34.134 15.281-34.134 34.134s15.281 34.134 34.134 34.134c20.165 0 40.031-2.506 59.25-7.411zM920.332 573.211c9.89-16.047 4.898-37.077-11.15-46.967s-37.077-4.898-46.967 11.15c-7.492 12.157-16.49 23.342-26.764 33.281-13.547 13.107-13.907 34.718-0.799 48.265s34.718 13.907 48.265 0.799c14.355-13.887 26.93-29.522 37.411-46.527zM950.044 395.961c-4.090-18.401-22.323-30.003-40.727-25.914s-30.003 22.323-25.914 40.727c1.802 8.108 3.008 16.351 3.612 24.801l0.435 14.802-0.077 3.308c-0.613 18.842 14.162 34.612 33.002 35.229s34.612-14.162 35.229-33.002l0.128-7.403c0-18.078-1.902-35.504-5.69-52.545zM848.661 248.72c-15.713-10.414-36.895-6.119-47.31 9.593s-6.119 36.895 9.593 47.31c11.903 7.891 22.788 17.25 32.382 27.841 12.655 13.972 34.242 15.036 48.214 2.381s15.036-34.242 2.381-48.214c-13.406-14.799-28.615-27.877-45.26-38.91zM671.985 213.27c-18.521 3.518-30.683 21.383-27.166 39.905s21.383 30.683 39.905 27.166c10.584-2.011 21.313-3.003 32.904-3.001 3.521 0.018 7.026 0.141 10.515 0.367 18.811 1.232 35.057-13.022 36.289-31.833s-13.022-35.057-31.833-36.289c-4.863-0.318-9.749-0.488-14.805-0.513-15.991-0.003-30.99 1.384-45.808 4.199zM521.951 309.688c-10.922 15.364-7.324 36.674 8.041 47.596s36.674 7.324 47.596-8.041c8.279-11.644 17.991-22.222 28.891-31.464 14.375-12.193 16.147-33.733 3.951-48.109s-33.733-16.147-48.109-3.951c-15.229 12.916-28.799 27.694-40.37 43.971zM480.804 485.535c2.942 18.62 20.421 31.33 39.042 28.388s31.33-20.421 28.388-39.042c-1.416-8.965-2.099-17.958-2.095-28.096 0.036-5.287 0.313-10.54 0.825-15.75 1.846-18.761-11.866-35.466-30.625-37.312s-35.466 11.866-37.312 30.625c-0.717 7.272-1.102 14.6-1.153 22.185-0.006 13.884 0.948 26.448 2.931 38.999zM572.182 638.21c15 11.42 36.415 8.517 47.836-6.483s8.517-36.415-6.483-47.836c-11.366-8.655-21.62-18.705-30.502-29.895-11.719-14.765-33.189-17.237-47.957-5.517s-17.237 33.189-5.517 47.957c12.412 15.639 26.736 29.678 42.623 41.772zM714.592 686.924c18.85 0.17 34.271-14.971 34.442-33.823s-14.971-34.273-33.823-34.442c-7.061-0.064-14.056-0.555-20.965-1.466-18.69-2.465-35.837 10.692-38.301 29.382s10.692 35.837 29.382 38.301c9.66 1.273 19.427 1.958 29.266 2.048z" />
<glyph unicode="&#xe991;" horiz-adv-x="1434" d="M102.399 960h1228.8c56.553 0 102.4-45.847 102.4-102.4v-819.2c0-56.553-45.847-102.4-102.4-102.4h-1228.8c-56.553 0-102.4 45.847-102.4 102.4v819.2c0 56.553 45.847 102.4 102.4 102.4z" />
<glyph unicode="&#xe992;" horiz-adv-x="1434" d="M-0.001 482.134h1433.6v-546.134h-1433.6v546.134z" />
<glyph unicode="&#xe993;" horiz-adv-x="1434" d="M-0.001 482.134h1433.6v-546.134h-1433.6v546.134z" />
<glyph unicode="&#xe994;" horiz-adv-x="1434" d="M-0.001 960h1433.6v-477.866h-1433.6v477.866z" />
<glyph unicode="&#xe995;" horiz-adv-x="1434" d="M-0.001 960h1433.6v-477.866h-1433.6v477.866z" />
<glyph unicode="&#xe996;" horiz-adv-x="1434" d="M-0.001 960h546.134v-1024h-546.134v1024z" />
<glyph unicode="&#xe997;" horiz-adv-x="1434" d="M103.17 959.358h1227.259c56.478 0 102.272-45.789 102.272-102.272v-818.173c0-56.478-45.789-102.272-102.272-102.272h-1227.259c-56.478 0-102.272 45.789-102.272 102.272v818.173c0 56.478 45.789 102.272 102.272 102.272z" />
<glyph unicode="&#xe998;" horiz-adv-x="1434" d="M0.899 959.358h1431.802v-1022.716h-1431.802v1022.716z" />
<glyph unicode="&#xe999;" horiz-adv-x="1434" d="M0.899 959.358h613.63v-477.268h-613.63v477.268z" />
<glyph unicode="&#xe99a;" horiz-adv-x="1434" d="M887.253 448v170.453h272.725v-170.453c0-102.272-136.362-170.453-136.362-170.453s-136.362 68.181-136.362 170.453z" />
<glyph unicode="&#xe99b;" horiz-adv-x="1434" d="M1091.797 413.91c0-37.656-30.525-68.181-68.181-68.181s-68.181 30.525-68.181 68.181c0 37.656 30.525 68.181 68.181 68.181s68.181-30.525 68.181-68.181z" />
<glyph unicode="&#xe99c;" horiz-adv-x="1434" d="M955.434 482.090c18.827 0 34.090-15.263 34.090-34.090s-15.263-34.090-34.090-34.090c-18.827 0-34.090 15.263-34.090 34.090s15.263 34.090 34.090 34.090zM1091.797 482.090c18.827 0 34.090-15.263 34.090-34.090s-15.263-34.090-34.090-34.090c-18.827 0-34.090 15.263-34.090 34.090s15.263 34.090 34.090 34.090zM1023.615 550.272c18.827 0 34.090-15.263 34.090-34.090s-15.263-34.090-34.090-34.090c-18.827 0-34.090 15.263-34.090 34.090s15.263 34.090 34.090 34.090z" />
<glyph unicode="&#xe99d;" horiz-adv-x="1434" d="M887.253 345.728h272.725v-68.181h-272.725v68.181z" />
<glyph unicode="&#xe99e;" horiz-adv-x="1434" d="M239.532 754.815l-238.627 204.542h34.090l238.627-170.453h68.181l272.725 170.453v-17.040c0-9.414-5.899-21.258-14.213-27.198l-224.421-160.301v-68.181l225.804-193.546c7.086-6.073 4.923-10.997-4.216-10.997v0c-9.414 0-22.944 4.214-31.258 10.152l-224.421 160.301h-68.181l-272.725-170.453v34.090l238.627 170.453v68.181z" />
<glyph unicode="&#xe99f;" horiz-adv-x="1434" d="M648.619 942.313v78.553l-316.565-197.834h-47.556l-238.584 170.419h-137.171l296.699-254.333v-34.874l-238.627-170.517v-113.142l316.565 197.902h47.505l215.532-153.985c13.934-9.953 34.354-16.497 51.073-16.497l5.55 0.312 6.578 1.397c35.398 9.664 38.927 48.127 14.273 69.262l-213.901 183.327v35.028l210.145 150.049c17.114 12.221 28.489 34.313 28.489 54.938zM34.986 959.358l238.627-170.453h68.181l272.725 170.453v-17.040c0-9.414-5.899-21.258-14.213-27.198l-224.421-160.301v-68.181l225.804-193.546c6.197-5.314 5.316-9.749-1.122-10.773l-3.095-0.224c-9.414 0-22.944 4.214-31.258 10.152l-224.421 160.301h-68.181l-272.725-170.453v34.090l238.627 170.453v68.181l-238.627 204.542h34.090z" />
<glyph unicode="&#xe9a0;" horiz-adv-x="1434" d="M0.899 788.905v-136.362h238.627v-170.767c0-18.654 15.642-33.777 34.41-33.777h67.542c19.004 0 34.41 15.374 34.41 33.777v170.767h238.184c19.079 0 34.541 15.642 34.541 34.41v67.542c0 19.004-15.445 34.41-34.541 34.41h-238.184v170.453h-136.362v-170.453h-238.627z" />
<glyph unicode="&#xe9a1;" horiz-adv-x="1434" d="M0.899 754.815h272.725v204.542h68.181v-204.542h272.725v-68.181h-272.725v-204.542h-68.181v204.542h-272.725z" />
<glyph unicode="&#xe9a2;" horiz-adv-x="1434" d="M102.399 960h1228.8c56.553 0 102.4-45.847 102.4-102.4v-819.2c0-56.553-45.847-102.4-102.4-102.4h-1228.8c-56.553 0-102.4 45.847-102.4 102.4v819.2c0 56.553 45.847 102.4 102.4 102.4z" />
<glyph unicode="&#xe9a3;" horiz-adv-x="1434" d="M-0.001 960h1433.6v-1024h-1433.6v1024z" />
<glyph unicode="&#xe9a4;" horiz-adv-x="1434" d="M-0.001-64l1433.6 1024h-1433.6z" />
<glyph unicode="&#xe9a5;" horiz-adv-x="1434" d="M102.399 960h1228.8c56.553 0 102.4-45.847 102.4-102.4v-819.2c0-56.553-45.847-102.4-102.4-102.4h-1228.8c-56.553 0-102.4 45.847-102.4 102.4v819.2c0 56.553 45.847 102.4 102.4 102.4z" />
<glyph unicode="&#xe9a6;" horiz-adv-x="1434" d="M-0.001 277.334h1433.6v-341.334h-1433.6v341.334z" />
<glyph unicode="&#xe9a7;" horiz-adv-x="1434" d="M-0.001 960h1433.6v-341.334h-1433.6v341.334z" />
<glyph unicode="&#xe9a8;" horiz-adv-x="1434" d="M-0.001 618.666h1433.6v-341.334h-1433.6v341.334z" />
<glyph unicode="&#xe9a9;" horiz-adv-x="1434" d="M102.399 960h1228.8c56.553 0 102.4-45.847 102.4-102.4v-819.2c0-56.553-45.847-102.4-102.4-102.4h-1228.8c-56.553 0-102.4 45.847-102.4 102.4v819.2c0 56.553 45.847 102.4 102.4 102.4z" />
<glyph unicode="&#xe9aa;" horiz-adv-x="1434" d="M-0.001 960h1433.6v-341.334h-1433.6v341.334z" />
<glyph unicode="&#xe9ab;" horiz-adv-x="1434" d="M-0.001 277.334h1433.6v-341.334h-1433.6v341.334z" />
<glyph unicode="&#xe9ac;" horiz-adv-x="1434" d="M-0.001 618.666h1433.6v-341.334h-1433.6v341.334z" />
<glyph unicode="&#xe9ad;" horiz-adv-x="1434" d="M-0.001 550.4h1433.6v-204.8h-1433.6v204.8z" />
<glyph unicode="&#xe9ae;" horiz-adv-x="1425" d="M4.692 955.308h1419.333v-1013.808h-1419.333v1013.808z" />
<glyph unicode="&#xe9af;" horiz-adv-x="1425" d="M1121.458 149.231c-32.24-43.589-69.87-80.8-112.447-111.593l-1.491-1.027 64.099-91.649-8.31-5.809-64.090 91.635c-80.173-55.548-179.508-88.736-286.595-88.736-104.528 0-201.671 31.621-282.385 85.82l1.822-1.152-59.947-87.52-8.367 5.734 59.923 87.506c-47.117 33.022-87.148 72.209-120.041 116.967l-0.993 1.415-296.73-212.87-5.908 8.24 296.748 212.884c-55.95 79.163-89.846 177.399-90.994 283.491l-0.002 0.283h-202.791v10.136h202.772c0.555 84.216 21.655 163.379 58.53 232.893l-1.324-2.735 5.8 31.829 5.903-10.657q10.502 17.977 22.411 34.983l-297.053 212.453 5.908 8.249 297.035-212.438c33.773 45.911 73.621 84.894 118.879 116.7l1.624 1.082-59.707 87.689 8.376 5.706 59.717-87.665c77.94 52.64 173.871 84.235 277.15 84.793l0.143 0.001h10.136v-0.028c102.347-1.213 197.098-32.716 275.989-85.937l-1.792 1.139 59.67 87.698 8.381-5.706-59.66-87.703c48.288-33.902 89.202-74.351 122.552-120.614l1.034-1.508 298.738 207.464v-14.26l-292.76-201.749c54.253-78.382 87.044-175.237 88.081-279.694l0.002-0.26 202.687 4.402 0.221-10.131-202.889-4.411c-0.789-107.665-35.176-207.145-93.18-288.65l1.047 1.55 297.861-213.222-5.898-8.245zM437.781 35.11c76.288-51.443 170.155-82.321 271.2-82.878l0.143-0.001v141.91h1.849c-71.862 0.223-138.622 21.878-194.276 58.905l1.297-0.812zM712.625 94.16h6.635v-141.896c102.606 1.23 197.428 33.534 275.77 87.915l-1.63-1.071-29.563 42.232 8.306 5.809 29.539-42.232c43.119 31.147 79.944 67.558 110.553 108.854l0.955 1.349-44.551 31.909 5.941 8.245 44.579-31.909c55.732 78.258 89.402 175.606 90.235 280.777l0.001 0.205-68.074-1.478-0.221 10.136 68.285 1.483c-0.998 102.644-33.125 197.589-87.373 276.076l1.078-1.649-57.3-39.492 0.784-3.041-9.765-4.101 2.276-20.286 29.933-72.152-14.439-11.811v-16.142l-10.525-12.67 10.525-9.821-3.984-3.646 9.413-11.201 16.109-1.314 12.313-18.409 12.102-4.993 13.055 10.239 12.599-1.459-12.599-16.213 12.599-32.331-14.786-12.074 6.349-18.742-4.162-19.183 8.348-11.262 18.878-2.9-20.178-26.799 8.109-10.708-9.779-11.806 8.733-6.424-40.355-34.964 7.724-23.852-2.074-17.672-13.909-2.59-2.989-12.67-17.175-8.625-4.341-14.514 10.943-19.882-25.372-1.497 6.405-14.021-12.585-10.854-20.178-3.824-4.416-9.854 12.956-10.84-27.414-24.434 7.222-13.022-21.346 3.501-58.187-30.797-7.616-8.991h-5.88l3.909 11.304-20.042-7.508-6.128 7.508-32.378-18.409-14.964 4.538-30.581-4.538-21.909 10.896-30.797-6.358-24.157 17.761-2.891-6.203-5.007 9.296 5.007 6.194v24.833l9.385-2.44 7.039 16.264h4.692l-4.692 10.614h4.692l1.839 10.84-4.594 3.96 6.64 3.472-3.881 22.444-18.188 18.141-7.902-2.468 5.007-12.585-34.401-3.097-2.093 1.248zM310.868 156.725c33.188-45.214 72.387-83.589 116.929-114.871l1.594-1.061 80.213 117.129c-32.397 22.831-59.963 49.812-82.704 80.578l-0.687 0.973zM544.831 191.417l-21.116-30.816c46.629-31.040 102.985-51.146 163.708-55.432l1.088-0.062 20.595-0.68v94.164l-15.194 9.052-61.472 17.639-3.257-4.988-22.106-3.092-6.142-11.802-22.993 14.894-10.488-3.092v-9.559l-26.527 9.559-2.9-5.012-26.447 10.323-14.27-6.569-3.416 10.567-64.395 25.809c23.693-33.761 52.145-62.276 84.746-85.307l1.089-0.73 21.116 30.863zM304.979 164.979l115.355 82.752c-22.622 32.376-40.336 70.149-50.994 110.779l-0.548 2.46-5.044-2.581-12.749 12.904-7.161 27.517 9.15 8.212 4.585-4.772-5.317 40.595h-136.359c1.15-104.156 34.328-200.341 90.125-279.424l-1.043 1.558zM425.806 257.731l-5.795 23.613v10.835l-13.017 20.333 4.284 30.703-8.55 3.374-6.931 15.776h11.196l2.074 19.206-31.013-15.856c10.372-41.025 26.795-77.051 48.523-109.196l-0.773 1.213zM357.798 450.503c0.114 32.043 4.454 63.023 12.489 92.479l-0.579-2.491-5.955 2.051-12.754-14.007-7.161 13.998-8.54-9.854-3.111 9.854-16.363-9.854-3.566 32.599v12.754h9.423l-9.423 27.873-12.158-4.922-12.144 13.608-8.78 14.26-3.045 23.092h-10.018l-1.342 12.233c-30.388-61.727-48.382-134.297-48.914-211.015l-0.001-0.18h141.938v-2.478zM371.875 499.54l6.785 5.288h-5.889c-0.31-1.774-0.601-3.524-0.877-5.284zM378.168 529.839l5.303 5.908-3.379 1.168q-1.009-3.524-1.924-7.076zM456.063 581.457l44.504 12.322-69.139 49.435c-7.135-9.818-14.373-21.128-20.956-32.855l-0.911-1.766zM437.439 651.375l75.695-54.133 13.514 3.754 5.875 16.738 21.937 6.889v18.545l12.956 20.605-3.285 22.608 19.281 40.862v28.324h7.607l9.854 13.533 13.139 4.613v3.81c-33.877-11.408-63.271-26.165-90.12-44.391l1.282 0.821 39.525-58.032-8.381-5.706-39.44 57.976c-30.553-21.862-56.747-47.226-78.788-75.945l-0.642-0.871zM290.977 674.837l44.283-22.871 63.602-37.132c7.499 14.084 14.761 25.852 22.663 37.139l-0.758-1.143-115.473 82.588q-13.35-19.084-24.922-39.417zM311.183 741.672l115.473-82.588c23.21 31.304 50.444 57.949 81.304 79.814l1.11 0.747-79.923 117.312c-45.881-32.204-84.885-70.361-116.988-113.916l-0.967-1.374zM1060.146 711.298l2.923-11.379 54.034 37.54c-33.666 46.739-73.712 86.319-119.38 118.444l-1.588 1.059-70.599-103.789 11.891-11.562 20.398 7.611 39.257-13.303 8.278 3.285 2.046-14.969h8.728v5.204h7.818l1.877-14.458 9.676 10.995zM437.542 862.692l79.918-117.345c28.381 19.003 61.216 34.441 96.298 44.585l2.493 0.617 16.17 18.676h7.546l43.593 14.692 25.565-7.198v129.011c-101.289-0.564-195.241-31.502-273.342-84.156l1.759 1.118zM921.249 764.891l66.521 97.768c-75.499 50.996-168.278 81.849-268.192 83.054l-0.308 0.003v-131.859l16.447-4.631 5.162 10.483 35.325-10.483 20.717 10.483 46.456-38.882h52.209l7.536-11.731 7.926 4.617 7.794 3.43z" />
<glyph unicode="&#xe9b0;" horiz-adv-x="1425" d="M7.747-55.080l-3.228 4.552 538.595 380.828c-20.079 32.386-32.317 71.492-33.2 113.391l-0.004 0.242h-505.053v10.136h505.048c0.855 40.284 12.072 77.773 31.080 110.134l-0.579-1.067-535.549 385.089 5.898 8.245 536.211-382.724c12.342 18.684 26.58 34.769 42.775 48.635l0.312 0.261-226.309 330.361 8.371 5.748 227.919-328.090c29.39 22.564 65.207 38.235 104.256 43.961l1.231 0.148 0.202 13.519 1.586 57.919 1.351 28.859 0.469 6.368v174.448h10.136v-152.145c69.684-1.221 134.173-22.449 188.255-58.161l-1.32 0.819 141.821 209.187h17.761l-147.968-217.098c32.733-23.425 60.525-51.172 83.269-82.793l0.726-1.061 417.543 295.247 3.224-8.123-415.661-294.496c37.072-54.213 59.545-120.983 60.488-192.946l0.002-0.239h354.888v-10.136h-354.884c-0.951-73.716-24.341-141.785-63.634-197.903l0.754 1.137 419.574-299.475v-6.203h-19.070l-408.927 294.027c-20.737-27.316-44.438-50.864-71.011-70.789l-0.925-0.664 154.552-222.48h-22.106l-145.885 212.964c-53.753-36.718-119.87-59.091-191.138-60.341l-0.316-0.004v-141.999h-10.136v175.382l-0.704 13.233-1.38 42.453-0.798 39.778c-41.486 5.925-78.342 22.276-108.884 46.295l0.488-0.37-223.17-327.367h-14.19l227.464 335.49c-15.057 13.192-28.168 28.032-39.225 44.376l-0.516 0.808-537.849-381.082zM720.020 112.968l0.699-8.531 3.989 0.056c67.523 2.327 129.592 23.826 181.458 59.185l-1.186-0.763-58.483 85.375c-31.264-17.267-68.538-27.428-108.185-27.428-0.124 0-0.247 0-0.371 0h0.019q-9.446 0-18.709 0.755v-94.845zM918.363 172.398c26.544 19.914 49.435 42.664 68.866 68.19l0.621 0.85-78.796 56.657c-14.17-16.006-30.267-29.834-48.048-41.272l-0.909-0.547zM737.96 231.007c0.097 0 0.211 0 0.326 0 37.51 0 72.798 9.517 103.579 26.268l-1.139-0.567-121.479 177.334v-202.246q9.258-0.784 18.714-0.788zM706.023 233.354l-0.516 25.781-1.122 102.54-0.263 63.297-100.579-147.569c28.411-22.496 63.222-38.153 101.279-43.922l1.201-0.15zM996.253 253.086c36.047 51.449 58.466 114.794 60.827 183.234l0.016 0.58 0.122 7.039h-91.203c-1.081-51.247-18.978-98.114-48.37-135.521l0.371 0.49zM854.296 264.639c17.723 11.315 32.994 24.349 46.269 39.205l0.186 0.212-147.579 106.111zM593.713 285.576l89.983 132.671-127.166-90.096c10.863-16.149 23.128-30.133 36.956-42.396l0.228-0.198zM909.752 314.825c27.841 35.279 45.031 80.098 46.114 128.89l0.004 0.243h-226.141l0.877-1.267zM551.41 336.19l147.189 104.075 2.501 3.688h-181.050c0.879-39.953 12.429-77.032 31.898-108.724l-0.538 0.942zM1057.26 454.089c-0.947 69.993-22.717 134.717-59.377 188.477l0.763-1.185-78.261-55.428c27.581-36.311 44.559-82.003 45.626-131.612l0.004-0.247zM955.86 454.089c-1.071 47.663-17.349 91.325-44.151 126.545l0.389-0.533-177.845-126.012zM692.114 454.089l-143.407 103.103c-17.274-29.624-27.804-65.053-28.653-102.872l-0.004-0.246zM729.373 462.024l177.099 125.224c-16.217 19.646-35.372 36.15-56.931 49.051l-0.997 0.553zM696.811 466.805l-101.001 147.438c-15.528-13.42-28.94-28.672-40.081-45.555l-0.509-0.821zM719.246 470.719l117.162 172.792c-28.557 14.79-62.341 23.463-98.15 23.463-0.107 0-0.213 0-0.32 0h0.017q-9.455 0-18.709-0.793zM704.071 480.878l0.563 135.965 0.709 47.694c-38.038-5.855-71.801-20.817-100.049-42.585l0.507 0.376zM914.764 593.118l78.749 55.681c-22.756 31.684-49.69 58.589-80.368 80.608l-1.038 0.708-57.84-84.868c23.568-14.155 43.578-31.5 60.19-51.741l0.32-0.402zM842.147 651.957l58.342 86.060c-49.675 32.818-110.137 53.195-175.206 55.44l-0.58 0.016-4.397 0.061-0.967-10.399-0.099-1.642v-105.159q9.254 0.751 18.709 0.755c0.103 0 0.225 0 0.347 0 37.922 0 73.674-9.294 105.101-25.729l-1.252 0.596z" />
<glyph unicode="&#xe9b1;" horiz-adv-x="1434" d="M102.399 960h1228.8c56.553 0 102.4-45.847 102.4-102.4v-819.2c0-56.553-45.847-102.4-102.4-102.4h-1228.8c-56.553 0-102.4 45.847-102.4 102.4v819.2c0 56.553 45.847 102.4 102.4 102.4z" />
<glyph unicode="&#xe9b2;" horiz-adv-x="1434" d="M-0.001 960h1433.6v-1024h-1433.6v1024z" />
<glyph unicode="&#xe9b3;" horiz-adv-x="1434" d="M165.308 429.381c-15.893 10.282-15.567 27.167 0 37.238l522.718 338.227c15.893 10.282 41.985 10.074 57.552 0l522.718-338.227c15.893-10.282 15.567-27.169 0-37.238l-522.718-338.227c-15.893-10.282-41.985-10.074-57.552 0l-522.718 338.227z" />
<glyph unicode="&#xe9b4;" horiz-adv-x="1434" d="M955.734 448c0-131.958-106.977-238.934-238.934-238.934s-238.934 106.975-238.934 238.934c0 131.958 106.977 238.934 238.934 238.934s238.934-106.975 238.934-238.934z" />
<glyph unicode="&#xe9b5;" horiz-adv-x="1434" d="M554.863 554.461l21.502-3.43c7.471-1.311 15.257-2.788 23.364-4.432l25.326-5.409 27.389-6.367 29.549-7.303 48.597-12.665c36.258-9.673 73.997-22.937 109.783-38.019l26.419-11.626c40.361-18.529 69.274-34.9 86.73-49.106-0.528-8.403-2.541-18.993-6.049-31.775s-8.156-25.302-13.953-37.558c-13.663 12.565-33.716 25.674-60.148 39.327l-22.431 11.125c-42.478 20.255-91.824 39.37-137.951 51.675l-44.926 11.617-27.481 6.683-25.492 5.827c-4.081 0.9-8.082 1.762-12.001 2.591l-22.491 4.543-20.477 3.682-18.455 2.823c-2.909 0.4-5.729 0.761-8.466 1.088l-15.401 1.527-13.354 0.663c-14.382 0.267-17.237 1.103-23.151-2.191 2.767 14.915 5.837 27.565 9.212 37.954s8.023 21.484 13.939 33.293c0 1.934 16.801 0.419 50.399-4.535z" />
<glyph unicode="&#xe9b6;" horiz-adv-x="1436" d="M1124.551 141.476c-0.879-4.866-10.853-3.385-10.853-3.385 10.853 5.943 10.99 13.517 10.99 13.517-4.396 17.254-38.71 9.882-53.704 8.959-0.352-0.010-0.766-0.016-1.182-0.016-9.584 0-18.431 3.159-25.555 8.492l0.111-0.080c-8.603-6.704-24.063-2.251-24.063-2.251-20.072-6.299-30.331 2.866-30.331 2.866-3.223 4.308-8.312 7.067-14.046 7.067-0.824 0-1.635-0.057-2.429-0.167l0.092 0.010c-25.14-10.084-40.6 11.93-40.6 11.93-28.468-4.559-44.838 27.439-44.838 27.439-4.135 3.303-6.76 8.344-6.76 13.999 0 5.083 2.121 9.67 5.527 12.924l0.007 0.006c-6.453 17.922 14.695 21.144 14.695 21.144 0 14.067 18.379 10.55 18.379 10.55 6.91 10.291 13.157 1.534 13.157 1.534 5.833 15.614 30.362 4.765 30.362 4.765l12.44-0.971v-5.323l-13.671-10.651c-5.482-6.963 3.482-19.918 3.482-19.918 6.014-23.39 37.36-5.983 37.36-5.983 26.375 11.979 70.145-11.429 70.145-11.429 35.277 16.898 60.263-2.405 60.263-2.405 10.801-13.21 27.694-2.356 27.694-2.356 47.102 12.493 7.222-17.764 7.222-17.764 53.55 13.003 20.63-10.445 20.63-10.445 10.291 11.979-17.583 3.688-17.583 3.688-12.489-13.671 16.383-9.117 16.383-9.117 53.555-18.902 13.829-20.278 13.829-20.278-1.692 15.72-28.52 11.675-28.52 11.675-13.003-2.558-1.024-13.21-1.024-13.21 2.558 1.688 21.979-5.526 21.979-5.526-1.534-5.073-15.566-2.409-15.566-2.409 6.299-4.198 4.915-8.906 4.915-8.906-6.967 2.37-12.937 5.104-18.571 8.354l0.499-0.266c-18.432 15.72-33.584 9.271-33.584 9.271 17.711-5.376 3.688-20.274 3.688-20.274-10.805-5.737-1.688-11.979-1.688-11.979-0.356-0.026-0.699-0.044-1.029-0.040-0.108-0.005-0.234-0.008-0.361-0.008-4.043 0-7.381 3.017-7.886 6.923l-0.004 0.040zM1051.646 271.352c-13.363 27.395 15.97 36.657 15.97 36.657 14.204 2.023 26.741 7.993 36.786 16.75l-0.085-0.072c-26.34 6.629-20.551 29.514-20.551 29.514 9.574 25.188 51.814 17.1 51.814 17.1l18.533 24.116 10.7-8.295-18.278-27.083 10.955-9.231c-0.717-14.59-22.322-26.982-22.322-26.982-4.484-0.589-9.673-0.927-14.94-0.932h-0.006l-9.724-11.262c-7.781-12.7 3.024-10.343 3.024-10.343 15.1 2.154 15.1-9.671 15.1-9.671 1.284-8.449-12.084-7.574-12.084-7.574-4.246-14.225-18.238-18.071-32.156-18.071-11.783 0.297-23.003 2.243-33.587 5.615l0.851-0.234zM783.326 354.513c64.461 3.583 101.984 25.496 101.984 25.496 24.045-22.256 71.543-21.918 72.035-21.913l0.101-20.019c-28.414-0.288-55.179-7.061-78.975-18.907l1.054 0.475c-25.034 18.331-96.199 34.868-96.199 34.868zM957.35 358.096v0zM897.179 392.322c5.020 2.15 8.352 15.254 8.352 15.254v0l11.486 22.797 21.922 11.869 28.775-19.781-17.408-25.395c-5.016-7.117-29.338-20.841-29.338-20.841-2.964-0.546-6.396-0.878-9.898-0.918h-0.036c-21.707 0.022-13.856 17.016-13.856 17.016z" />
<glyph unicode="&#xe9b7;" horiz-adv-x="1436" d="M957.271 414.736c-15.869 6.154-18.427-4.611-18.427-4.611-15.364 5.636-33.281-2.558-33.281-2.558-0.363 1.844-0.57 3.964-0.57 6.133 0 8.95 3.535 17.075 9.284 23.054l-0.010-0.011 52.75 61.437 2.048-12.308 13.047 12.37 13.056 7.117 43.009-4.093 32.257-25.602-43.519-29.18-30.736-12.291-38.908-28.661c0.932 1.275 1.492 2.873 1.492 4.602s-0.559 3.328-1.507 4.625l0.015-0.022zM1299.269 549.975s14.506 13.671 5.715 25.549c0 0-28.978 11.724-32.529 20.889 0 0 21.865 25.294 65.74 22.837 0 0 13.108 3.688 21.707-1.64 0 0 20.48 0.409 23.738-10.242 0.312 0.029 0.674 0.045 1.040 0.045 6.676 0 12.089-5.412 12.089-12.089 0-0.248-0.007-0.494-0.022-0.738l0.002 0.034s8.603-10.651-3.275-27.035c0 0 4.097-12.308-17.614-18.023z" />
<glyph unicode="&#xe9b8;" horiz-adv-x="1436" d="M975.971 279.818l263.783 39.22s21.979-1.794 7.117-14.287l-270.9-30.261zM957.455 338.073l-0.101 20.028 303.407-12.392c2.745-1.963 4.514-5.14 4.514-8.73s-1.768-6.767-4.481-8.708l-0.032-0.022zM1154.14 395.43l-11.315-11.315c-0.977 1.872-1.55 4.089-1.55 6.439 0 5.856 3.556 10.881 8.627 13.035l0.093 0.035s-5.121 13.72 13.003 24.318l6.862 11.315s-35.272-8.55-56.162 18.124l-13.931 4.396-7.113-6.55-20.278 1.095v-5.992l-9.882 2.15v-5.482l-9.829 4.967-2.198-6.594-23.553 1.13c-2.058 3.534-5.829 5.871-10.146 5.871-1.071 0-2.108-0.144-3.093-0.413l0.082 0.019 16.994 10.937h-14.796c5.348 6.969 12.363 12.404 20.46 15.753l0.329 0.12-31.589 1.758 3.991 9.574-20.735-5.578-6.299 13.72c2.737 6.294 6.976 11.498 12.279 15.316l0.109 0.074s-12.185 3.517-29.237-8.959c0 0-19.918-22.48-32.406 1.758 0 0-7.117 28.059 21.707 46.697 0 0-28.573 6.594-11.214 32.617 0 0 10.955 23.448 54.016 41.572l43.106 18.071s47.414 17.614 54.271 31.65c0 0 3.583-2.048 2.048-10.445 0 0 91.082 36.657 131.687 77.877 0 0 5.376-1.794 1.794-11.979 0 0 47.717 30.463 50.113 32.868 0 0 0-14.946-11.93-19.148 0.931-1.49 1.484-3.3 1.484-5.239 0-1.903-0.532-3.682-1.456-5.197l0.025 0.044 39.95 26.235s8.295-9.987-1.688-25.962l8.352 5.323s4.967-8.651-15.311-28.622l8.651 2s3.635-13.979-37.936-35.892c0 0 8.651-4.66-4.66-14.643 0 0-12.955-12.339-3.328-9.987 0 0 13.003 6.299 13.671 8.651 0 0 0.971-8.651-17.307-21.298 0 0 30.925 0.664 48.231 12.955 0 0 2.967-16.59-44.236-35.892 2.282-0.623 4.901-0.981 7.605-0.981 4.979 0 9.675 1.214 13.807 3.363l-0.166-0.079s12.647-1.319-28.261-24.617c0 0 3.020-8.291 16.638 0 0 0 14.067-16.893 32.529-20.836 0 0 11.469-13.21-8.352-26.815-3.67-2.083-8.062-3.311-12.74-3.311-1.232 0-2.444 0.085-3.631 0.25l0.137-0.016s-8.396-14.946-32.969-18.463c0 0-8.352-14.067-38.244-33.848 0 0 10.55-9.671 29.452-5.275 0 0-8.792-6.594-0.44-7.033 0 0 23.738 12.308 15.412-6.154 0 0-3.517-12.748-10.55-17.61l16.704 1.758s-2.198-9.627-17.144-16.234c0 0-7.324 1.319-5.275-8.55 0 0 5.886-9.574-3.517-4.611 0 0-7.222 6.453-8.704-7.781l0.207-17.583-8.91 0.818s-4.198-16.744-12.902-20.326c0 0-6.348 3.385-6.348 6.761 0 0-6.396-17.355-16.994-20.432l-5.93 8.203-2.712-11.262c-10.346 4.245-17.5 14.241-17.5 25.907 0 0.52 0.014 1.037 0.042 1.55l-0.003-0.071z" />
<glyph unicode="&#xe9b9;" horiz-adv-x="1481" d="M0 960h1480.912v-1024h-1480.912v1024z" />
<glyph unicode="&#xe9ba;" horiz-adv-x="1481" d="M1.773 958.858h736.203v-1022.278h-736.203v1022.278z" />
<glyph unicode="&#xe9bb;" horiz-adv-x="1481" d="M1170.115 474.206s-14.008 17.89-15.797 42.263l-1.070 43.351 32.246 7.204-0.048-7.156h0.019s-6.341-94.353 53.317-91.397c0 0 12.267-0.417 15.638 16.101 0 0-1.692 34.242-33.431 99.832 0 0-16.518 60.522 35.108 68.542 0 0 40.632 0.417 49.931-17.332l-17.79-26.673s-21.117 17.793-38.080 14.827c0 0-4.649-35.11 12.314-50.347 0 0 34.242-69.418 0-112.146 0 0-19.228-21.733-43.902-21.737-15.156-0.007-32.371 8.192-48.454 34.67zM1015.908 462.339c-34.294 42.728 0 112.147 0 112.147 16.916 15.238 12.267 50.346 12.267 50.346-16.961 2.97-38.080-14.823-38.080-14.823l-17.793 26.674c9.295 17.748 49.931 17.333 49.931 17.333 51.625-8.019 35.11-68.542 35.11-68.542-31.74-65.59-33.432-99.832-33.432-99.832 3.37-16.515 15.638-16.103 15.638-16.103 59.659-2.953 53.317 91.399 53.317 91.399h0.016l-0.048 7.156 32.246-7.204-1.070-43.349c-1.789-24.374-15.797-42.264-15.797-42.264-16.084-26.477-33.288-34.677-48.438-34.675-24.657 0.001-43.866 21.735-43.866 21.735z" />
<glyph unicode="&#xe9bc;" horiz-adv-x="1481" d="M896.368 256.304s-14.311 29.135 5.111 58.271c0 0 27.602 57.248 105.806 27.090 0 0 1.838-1.582 4.697-4.443 16.472-16.772 66.399-77.693-19.519-130.499-7.28-1.85-15.637-2.912-24.242-2.912-0.179 0-0.359 0-0.538 0.001h0.028c-23.972 0-58.518 8.247-71.343 52.492zM969.457 251.703c8.178-37.313 39.358-17.89 39.358-17.89 23.512 32.713-15.334 39.869-15.334 39.869l0.511 7.668c35.27 7.156 16.356 34.757 16.356 34.757-29.642 26.577-40.376-10.736-40.376-10.736l-10.222-0.511c-5.111 33.223-38.335 15.844-38.335 15.844-17.89-36.802 15.845-41.913 15.845-41.913v-5.111c-31.692-5.11-16.872-37.312-16.872-37.312 36.29-22.49 40.383 15.335 40.383 15.335zM1208.931 323.812l22.393 23.976c21.15 3.132 15.174-12.107 15.174-12.107l-0.014-0.018-8.015-22.704-11.804-4.393c-2.318-0.71-4.99-1.147-7.754-1.207l-0.033-0.001c-14.394 0.010-9.943 16.452-9.943 16.452zM1048.436 325.548c-23.615 0-20.665 27.878-20.665 27.878v0l144.851 125.83c-0.735 1.877-1.161 4.050-1.161 6.323 0 0.658 0.036 1.308 0.105 1.948l-0.007-0.079h-11.661l-0.299 13.289h10.046v12.571h11.804v-11.851h11.407v-4.626l51.685 44.899c-2.453 3.986-4.842 9.376-4.153 14.534h-11.667l-0.299 13.289h10.044v12.572h11.804v-11.851h11.407v-11.661h-11.851c1.050-3.682 2.205-6.784 3.57-9.771l-0.175 0.428 68.111 59.169c23.161-9.361 17.633-23.161 17.633-23.161l-9.567-8.685 0.32-0.342 14.009-14.821-9.201-10.015 12.826-12.361 10.782 9.615 13.242-16.454 0.35-20.796-33.224-24.838-10.782 7.204-0.414 21.629-8.785-6.389-8.018 4.808v-14.823l5.207 3.626 8.785-10.014 1.631-19.216-26.835-22.843-29.23 27.653-21.136 25.369-195.854-177.711c-1.381-0.201-2.981-0.318-4.606-0.324h-0.007zM1181.777 487.216l2.97 2.581h-3.747s0.271-1.016 0.782-2.582zM1083.172 469.329c6.246 3.369 10.383 18.751 10.383 18.751h-11.845v11.664h11.404v11.846h11.804v-12.571h10.048l-0.299-13.289h-11.665c1.327-9.919-8.737-20.701-8.737-20.701-5.927 0.464-11.086 4.297-11.086 4.297zM1114.961 499.022h0.016zM1159.574 500.738h0.016zM1010.63 537.243c6.246 3.369 10.383 18.751 10.383 18.751h-11.853v11.661h11.404v11.855h11.804v-12.579h10.050l-0.299-13.289h-11.663c1.327-9.919-8.738-20.701-8.738-20.701-5.928 0.467-11.086 4.301-11.086 4.301zM1042.418 566.932h0.014zM1228.405 569.548h0.020zM1078.485 572.809c-3.654 4.458-12.598 11.447-15.799 13.894-5.012 0.066-3.494 7.054-3.494 7.054 4.166 2.932 6.861 8.426 7.544 9.929-3.306 0.837-5.714 3.785-5.714 7.296 0 4.151 3.365 7.515 7.515 7.515s7.515-3.365 7.515-7.515c0-3.691-2.661-6.761-6.169-7.395l-0.046-0.007c0.841-0.106 1.815-0.166 2.802-0.166 7.599 0 14.363 3.579 18.696 9.144l0.040 0.053c-2.689 0.099-4.831 2.303-4.831 5.007 0 2.767 2.243 5.011 5.011 5.011s5.011-2.243 5.011-5.011c0-2.574-1.941-4.694-4.438-4.978l-0.023-0.002c12.545-6.908 31.896-1.555 38.036 0.435-0.668 0.513-1.235 1.113-1.696 1.792l-0.017 0.027c-1.41-1.928-3.664-3.166-6.207-3.166-4.234 0-7.666 3.432-7.666 7.666s3.432 7.666 7.666 7.666c2.635 0 4.959-1.329 6.339-3.354l0.017-0.027c0.545 0.748 1.199 1.378 1.947 1.879l0.028 0.017c-2.076 1.394-3.424 3.733-3.424 6.386 0 4.234 3.433 7.667 7.667 7.667s7.667-3.433 7.667-7.667c0-2.654-1.348-4.992-3.397-6.369l-0.028-0.017c0.775-0.519 1.43-1.149 1.96-1.875l0.015-0.022c1.397 2.051 3.722 3.381 6.357 3.381 4.234 0 7.667-3.433 7.667-7.667s-3.433-7.667-7.667-7.667c-2.544 0-4.799 1.239-6.193 3.146l-0.015 0.022c-0.954-1.404-2.328-2.46-3.939-2.995l-0.054-0.016c3.248-0.504 6.994-0.792 10.807-0.792 0.072 0 0.144 0 0.217 0h-0.011c14.225-10.014 27.030 0.055 29.099 1.834-2.421 0.385-4.25 2.458-4.25 4.958 0 2.771 2.246 5.017 5.017 5.017s5.017-2.246 5.017-5.017c0-2.769-2.244-5.014-5.012-5.017v0c-0.109 0-0.218 0-0.324 0.011 7.451-14.591 17.438-11.208 21.028-9.348-3.729 0.475-6.582 3.629-6.582 7.448 0 4.145 3.36 7.505 7.505 7.505s7.505-3.36 7.505-7.505c0-3.639-2.589-6.672-6.026-7.36l-0.048-0.008c12.167-9.185 1.973-15.983 1.973-15.983l-0.038 0.020v-0.011l-1.377-10.178c-13.752-2.859-15.075-6.438-15.075-6.438-48.767 25.397-108.107 1.79-108.107 1.79zM1062.24 622.801c-4.020 4.832-1.438 22.003-0.836 25.643-3.451 1.154-2.216 6.853-2.216 6.853 4.161 2.927 6.855 8.413 7.542 9.923-3.309 0.835-5.719 3.785-5.719 7.298 0 4.151 3.365 7.516 7.516 7.516s7.516-3.365 7.516-7.516c0-3.682-2.647-6.745-6.142-7.391l-0.046-0.007c0.836-0.105 1.803-0.164 2.784-0.164 7.604 0 14.371 3.585 18.703 9.158l0.040 0.053c-2.693 0.095-4.841 2.301-4.841 5.009 0 2.768 2.244 5.012 5.012 5.012s5.012-2.244 5.012-5.012c0-2.582-1.952-4.708-4.461-4.982l-0.022-0.002c12.555-6.933 31.946-1.559 38.073 0.427-0.674 0.513-1.246 1.117-1.71 1.799l-0.017 0.027c-1.41-1.932-3.666-3.173-6.212-3.173-4.235 0-7.668 3.433-7.668 7.668s3.433 7.668 7.668 7.668c2.634 0 4.958-1.328 6.339-3.352l0.017-0.026c0.546 0.748 1.202 1.378 1.951 1.879l0.028 0.018c-2.077 1.394-3.425 3.733-3.425 6.387 0 4.235 3.433 7.668 7.668 7.668s7.668-3.433 7.668-7.668c0-2.654-1.348-4.993-3.398-6.37l-0.028-0.017c0.776-0.519 1.432-1.148 1.963-1.875l0.015-0.022c1.397 2.049 3.721 3.377 6.355 3.377 4.234 0 7.667-3.433 7.667-7.667s-3.433-7.667-7.667-7.667c-2.546 0-4.801 1.24-6.196 3.15l-0.015 0.022c-0.96-1.412-2.346-2.471-3.971-3.002l-0.054-0.015c3.259-0.508 7.018-0.799 10.844-0.799 0.071 0 0.143 0 0.214 0h-0.011c14.261-10.039 27.094 0.106 29.115 1.847-2.429 0.379-4.265 2.456-4.265 4.962 0 2.772 2.247 5.019 5.019 5.019s5.019-2.247 5.019-5.019c0-2.771-2.246-5.017-5.016-5.019v0c-0.112 0-0.223 0-0.333 0.011 7.443-14.588 17.42-11.23 21.022-9.369-3.729 0.478-6.582 3.633-6.582 7.454 0 4.148 3.363 7.511 7.511 7.511s7.511-3.363 7.511-7.511c0-3.635-2.582-6.667-6.012-7.362l-0.048-0.008c12.15-9.142 1.962-15.98 1.962-15.98l-0.020 0.011-1.373-10.175c15.431-13.896 3.93-16.196 3.93-16.196-77.491 43.441-143.379-0.006-143.379-0.006zM1067.388 689.289l-0.015 0.015s-7.412 0.974-3.675 6.852c2.346 2.097 4.928 4.048 7.662 5.78l0.24 0.142c-0.374 1.887-2.077 12.27 4.455 18.15 2.202 1.252 4.842 2.515 7.57 3.603l0.449 0.158q-4.483-1.248-9.052-2.774l0.015-0.018s-6.598 3.626 0.607 8.129c4.575 1.773 10.101 3.392 15.788 4.57l0.708 0.123-2.857 14.293c1.084 4.093 4.009 10.030 9.551 15.942 5.941 6.27 13.534 10.917 22.083 13.246l0.334 0.078 1.263 0.416 0.013 0.014q0.438 0.13 0.88 0.25c1.389 2.573 3.602 4.551 6.279 5.607l0.082 0.029 0.299-0.008c-3.682 1.076-6.237 3.406-6.237 6.106 0 3.74 4.856 6.743 10.829 6.743s10.829-3.019 10.829-6.743c0-2.995-3.116-5.518-7.426-6.402 2.593-0.913 4.697-2.668 6.033-4.931l0.029-0.052c12.055-2.902 24.585-11.504 36.070-28.323l0.392-0.921 1.434-16.885q6.033-1.372 12.308-3.142s4.87-8.418-3.086-7.706q1.739-0.673 3.494-1.391s7.288-16.872 3.655-20.628q4.258-2.161 8.631-4.627c0.054-0.305 0.084-0.657 0.084-1.015 0-2.987-2.127-5.476-4.949-6.037l-0.039-0.006s-71.911 32.405-134.729 1.371zM1178.766 733.187l-3.046 14.541v-0.007l-4.119 5.562c-16.084 20.175-33.277 24.059-47.567 19.828l-7.318-2.521c-5.555-2.36-10.274-5.686-14.157-9.809l-0.019-0.021c-2.401-2.555-4.528-5.415-6.305-8.503l-0.118-0.222-1.886-3.856 1.426-13.439c10.889 2.166 23.408 3.405 36.216 3.405 0.197 0 0.393 0 0.59-0.001h-0.031c16.428-0.031 32.418-1.835 47.811-5.231l-1.478 0.274zM1139.562 745.919c-1.172-1.748-3.14-2.884-5.374-2.884-2.030 0-3.841 0.938-5.023 2.404l-0.010 0.012c-1.19-1.478-2.999-2.416-5.027-2.416-3.555 0-6.437 2.882-6.437 6.437s2.882 6.437 6.437 6.437c2.028 0 3.837-0.938 5.017-2.403l0.010-0.012c0.724 0.898 1.668 1.592 2.751 2.002l0.044 0.015h-2.051c-14.515 7.527 3.544 12.789 3.674 12.826 20.508-3.978 5.271-12.826 5.271-12.826h-2.405c1.305-0.491 2.376-1.355 3.112-2.461l0.015-0.024c1.169 1.748 3.135 2.883 5.366 2.883 3.555 0 6.436-2.882 6.436-6.436s-2.882-6.436-6.436-6.436c-2.231 0-4.197 1.135-5.352 2.859l-0.015 0.023zM1181.592 747.388s0.864 13.078 13.753 15.893c0 0 1.808-15.965-12.080-15.966q-0.805 0-1.676 0.073zM1073.222 763.117c10.431 0.399 15.893-15.286 15.893-15.286-21.164 2.204-15.893 15.286-15.893 15.286zM1133.57 768.338v0zM1133.57 768.338v0zM1122.987 801.19c-2.362 0.453-4.122 2.503-4.122 4.964 0 2.789 2.261 5.049 5.049 5.049s5.049-2.261 5.049-5.049c0-2.786-2.256-5.045-5.041-5.049v0c-0.001 0-0.003 0-0.005 0-0.329 0-0.65 0.031-0.961 0.091l0.032-0.005zM1139.443 806.169c0 2.796 2.267 5.063 5.063 5.063s5.063-2.267 5.063-5.063c0-2.796-2.267-5.063-5.063-5.063v0c-2.793 0.007-5.056 2.27-5.062 5.063v0.001zM1130.435 805.363c0 1.861 1.509 3.37 3.37 3.37s3.37-1.509 3.37-3.37c0-1.861-1.509-3.37-3.37-3.37v0c-1.854 0.018-3.352 1.516-3.37 3.368v0.002zM1129.337 819.040c0 0 0 0.001 0 0.001 0 2.796 2.267 5.063 5.063 5.063s5.063-2.267 5.063-5.063c0-2.796-2.267-5.063-5.063-5.063v0c-2.789 0.010-5.048 2.268-5.058 5.057v0.001z" />
<glyph unicode="&#xe9bd;" horiz-adv-x="1481" d="M1119.191 72.186l-4.823 5.462 8.208 117.344-10.126 0.169c-37.269 1.187-69.169 8.145-87.967 19.798l-5.238 3.63-4.404 3.91-3.545 4.293c-7.072 10.256-9.008 19.457-4.992 27.17 3.051 5.85 8.919 9.633 17.086 11.727l5.272 1.076 5.481 0.605 0.991-0.656 1.849 1.182 6.65 5.041 3.76 3.158 9.551 8.745c15.158 14.843 28.722 31.202 40.482 48.866l0.696 1.111 9.491 14.982 10.782 18.411c2.995 5.083 5.655 9.434 8.307 13.545l3.469 5.216-2.309 2.089-36 34.034c-0.481 0.465-0.779 1.116-0.779 1.837 0 1.411 1.144 2.555 2.555 2.555 0.217 0 0.427-0.027 0.628-0.078l-0.018 0.004 1.176-0.648-0.015 0.006 23.625-22.488 14.111-13.010q1.372 2.614 3.104 5.418c-3.601 8.143-8.303 15.122-14.018 21.129l0.029-0.030c-4.65 5.043-9.814 9.494-15.444 13.308l-0.309 0.197-3.059 1.857 2.479 4.467v0.001c7.699-4.593 14.307-10.010 20.012-16.265l0.061-0.068c5.311-5.608 9.837-12.036 13.354-19.057l0.208-0.459q0.756 1.104 1.558 2.232l0.307 0.431c2.837 15.167 0.845 30.305-4.477 44.639l-3.095 7.361q-0.721 1.518-1.373 2.717l-1.16 2.012 0.019-0.021 4.336 2.709 2.771-5.151c1.046-2.186 2.17-4.82 3.294-7.844 3.84-9.697 6.066-20.93 6.066-32.684 0-1.947-0.061-3.879-0.181-5.795l0.013 0.262q1.805 2.271 3.736 4.592l5.079 5.952 9.617 10.563 7.987 8.103-0.007 0.014 0.010-0.006 3.547-3.667-7.845-7.96c-4.422-4.656-9.441-10.228-14.476-16.26-3.319-3.977-6.347-7.84-9.035-11.554q-0.728-3.612-1.808-7.226l2.603-0.928-0.413-6.548 2.738 0.608 4.872-10.407 5.124-10.127 1.518-1.298-0.513-0.62c8.856-16.836 17.454-30.902 26.826-44.389l-0.904 1.374c22.902-33.044 45.585-53.71 66.987-60.698l6.374-1.689c8.339-1.644 13.577-7.088 14.334-14.816 0.059-0.589 0.093-1.273 0.093-1.966 0-1.52-0.162-3.002-0.47-4.429l0.025 0.138-0.898-3.483-1.372-3.033-2.367-2.841c-24.259-16.027-58.619-26.932-97.212-31.953l-14.662-1.609-5.325-0.349 1.035-106.33-5.068-5.153-5.111-0.043-5.153 5.144 0.754 105.622-2.139-0.16-6.438-118.477-5.391-4.823zM1027.195 250.867c-4.124-1.055-6.559-2.556-7.309-3.975-0.932-1.803-0.031-5.522 4.015-11.372 9.684-14.066 45.723-23.96 90.701-25.205l9.036-0.123 11.081 157.147-4.874-9.566-9.049-15.815c-16.228-26.955-34.183-49.789-53.195-68.143-5.306-5.221-10.961-10.137-16.908-14.691l-0.432-0.318-5.015-3.5-6.716-3.124c-0.162 0-0.325 0-0.489 0-0.004 0-0.009 0-0.014 0-3.846 0-7.58-0.48-11.146-1.383l0.313 0.067zM1151.651 211.313l4.435 0.259c32.959 2.895 63.286 10.072 86.562 20.865l9.538 4.841 5.491 2.012 0.599 1.592c0.304 0.868 0.48 1.869 0.48 2.911 0 0.121-0.002 0.241-0.007 0.36l0.001-0.017c-0.049 0.541-0.114 0.757-0.712 0.959l-1.355 0.317c-27.899 5.591-55.575 29.165-82.96 68.691-6.604 9.523-12.978 19.695-19.061 30.334l-4.321 7.893-0.019 0.013zM1077.137 574.161c0 10.175 25.348 18.449 56.576 18.449s56.578-8.275 56.578-18.449-25.35-18.449-56.578-18.449-56.576 8.275-56.576 18.449z" />
<glyph unicode="&#xe9be;" horiz-adv-x="1481" d="M1295.297 200.817c-0.153-0.001-0.335-0.001-0.516-0.001-8.602 0-16.955 1.060-24.938 3.057l0.706-0.149c-85.92 52.811-35.971 113.729-19.52 130.501 2.86 2.858 4.692 4.44 4.692 4.44 78.204 30.157 105.806-27.090 105.806-27.090 19.423-29.135 5.111-58.271 5.111-58.271-12.825-44.246-47.367-52.492-71.338-52.492zM1252.652 313.128s-18.912-27.602 16.356-34.757l0.511-7.668s-38.846-7.156-15.334-39.869c0 0 31.181-19.423 39.358 17.89h8.685s4.093-37.824 40.38-15.333c0 0 14.823 32.202-16.872 37.312v5.111s33.734 5.111 15.844 41.913c0 0-33.223 17.379-38.335-15.844l-10.223 0.511s-5.834 20.291-20.787 20.288c-5.312 0-11.795-2.573-19.58-9.553zM1036.339 308.647l-11.804 4.393-8.019 22.698-0.018 0.018s-5.973 15.237 15.174 12.108l22.394-23.976s4.449-16.446-9.946-16.447c-2.795 0.060-5.464 0.497-7.991 1.262l0.21-0.055zM1209.935 322.878l-195.864 177.716-21.124-25.357-29.232-27.653-26.835 22.844 1.633 19.216 8.785 10.015 5.206-3.626v14.827l-8.017-4.808-8.785 6.389-0.416-21.629-10.782-7.204-33.227 24.838 0.352 20.795 13.242 16.453 10.782-9.615 12.825 12.364-9.2 10.014 14.32 15.156-9.552 8.672c-22.015 1.141-13.178 16.562-13.178 16.562l12.11 15.384c21.464 8.286 18.705-8.785 18.705-8.785h0.016l-0.008-0.010 293.545-255.005s2.951-27.877-20.67-27.878c-1.638 0.006-3.244 0.123-4.817 0.345l0.185-0.021zM1325.846 606.97h0.016s-2.763 17.071 18.704 8.785l12.109-15.382s8.85-15.429-13.195-16.564z" />
<glyph unicode="&#xe9bf;" horiz-adv-x="1481" d="M1275.095 202.348c-3.042 0.448-5.727 1.077-8.324 1.904l0.369-0.101c-39.208 24.099-54.021 51.873-49.348 81.34 2.735 17.223 11.598 33.023 23.284 46.545l6.049 6.568 2.065 2.014c1.083 1.043 2.239 2.037 3.45 2.963l0.096 0.071c41.018 15.812 72.079 9.916 94.024-9.627v0.006c7.829-6.976 12.698-13.962 14.821-18.43 11.721-17.57 12.934-36.258 7.979-53.41l-1.868-5.497c-0.269-0.655-0.494-1.158-0.67-1.497-7.957-27.466-24.614-43.687-47.239-50.596-7.753-2.399-16.665-3.781-25.901-3.781-0.199 0-0.398 0.001-0.597 0.002h0.031c-6.446 0.015-12.75 0.57-18.885 1.622l0.667-0.095zM1255.329 339.369l-0.011-0.024-4.567-4.312-5.759-6.246c-11.136-12.9-19.584-27.942-22.15-44.078-4.335-27.301 9.425-53.111 46.313-75.894l3.864-0.868c0.864-0.164 1.836-0.353 2.907-0.525 13.777-2.268 28.575-2.122 42.373 2.088 21.006 6.421 36.347 21.364 43.986 47.551l1.49 3.73c0.287 0.847 0.599 1.797 0.893 2.842 3.993 13.838 3.641 28.721-3.848 43.263l-3.656 6.207c-2.022 4.201-6.519 10.656-13.791 17.138-12.497 11.125-28.139 17.523-47.136 17.523-12.228-0.003-25.844-2.658-40.909-8.4zM943.627 206.136c-22.626 6.909-39.267 23.13-47.069 50.186l-1.71 4.26c-0.322 0.934-0.66 1.99-0.991 3.141-4.953 17.151-3.737 35.84 7.808 53.111 2.296 4.758 7.165 11.757 14.992 18.734 18.577 16.536 43.67 23.308 75.81 15.426l8.936-2.525-0.018-0.012 9.297-3.271-0.942-2.357 1.697 1.909 3.021-2.855 87.997 75.898-25.808 23.449c-16.599-7.193-33.713-3.346-49.965 7.853-4.984 3.383-9.321 7.13-13.183 11.321l-0.047 0.052c-5.698 7.057-10.126 15.405-12.777 24.511l-0.125 0.501-7.969-9.549-32.654-27.747-27.722 25.013 1.938 17.859-13.287-6.933-34.249 26.932 0.927 22.362 16.931 16.772 7.317-9.679 12.724 8.796-9.169 13.508 12.7 13.447-8.44 7.668-0.415 1.388c-1.198 5.391 0.286 11.562 6.356 17.218 2.304 2.095 4.911 3.919 7.734 5.388l0.203 0.096 5.162 2.384 0.013 0.017 0.93-2.351 1.692 1.914 63.726-55.556q1.929 5.94 4.27 11.902l3.226 7.587 1.243 2.187c5.101 4.6 8.478 11.575 10.338 20.349 1.076 5.215 1.692 11.209 1.692 17.347 0 2.655-0.115 5.283-0.341 7.88l0.024-0.337-0.065 0.874-1.83 0.1-4.010-0.352c-5.506-0.871-11.513-3.332-17.613-6.879-4.735-2.759-8.502-5.522-14.414-6.789l-17.923 29.291c4.045 7.713 13.145 12.704 25.706 15.686 7.933 1.923 17.041 3.026 26.406 3.026 0.018 0 0.036 0 0.053 0h-0.003l6.548-1.334-0.044-0.013c18.551-4.84 28.78-17.161 32.321-34.542 0.877-4.501 1.379-9.678 1.379-14.971 0-5.159-0.477-10.207-1.389-15.102l0.078 0.507c-0.154-0.976-0.32-1.865-0.481-2.675l-0.989-4.083c-7.817-15.37-15.689-34.073-22.316-53.355l-0.967-3.235 40.788-35.56c3.934 6.483 6.975 14.409 9.207 23.604 2.66 10.957 4.185 23.537 4.185 36.472 0 2.291-0.048 4.57-0.143 6.837l0.011-0.324-0.094 2.123 3.059 9.675 34.251-9.763-1.076-43.474c-0.905-10.922-3.774-20.977-8.256-30.097l0.218 0.491c-2.42-5.278-5.13-9.814-8.263-14.016l0.144 0.202q-2.196-3.604-4.451-6.833l26.77-23.338 34.657 29.892c-2.68 3.754-5.184 8.028-7.294 12.523l-0.213 0.506c-4.276 8.664-7.149 18.762-8.026 29.426l-0.020 0.301 0.925 45.906 35.365 4.692-0.212-18.495c0.399-19.353 3.153-36.392 8.839-49.534l42.275 36.463c-7.162 19.759-14.056 35.693-21.739 51.167l1.291-2.875-1.311 6.318c-0.831 4.388-1.307 9.437-1.307 14.596 0 5.294 0.501 10.471 1.457 15.486l-0.081-0.514c3.935 19.299 16.122 32.376 38.876 35.875h-0.018c0.008 0 0.018 0 0.028 0 9.373 0 18.488-1.102 27.224-3.184l-0.796 0.16c12.579-3.001 21.664-7.987 25.706-15.687l-0.139-2.596-21.564-27.218c-3.121 2.559-6.599 4.977-10.262 7.113l-0.38 0.205c-6.097 3.545-12.097 6.009-17.612 6.879l-3.747 0.613c-1.020 0.292-1.741 0.74-1.884 1.62l-0.283-2.852c-0.207-2.273-0.326-4.917-0.326-7.588 0-6.128 0.622-12.11 1.807-17.888l-0.098 0.571c1.857-8.762 5.248-15.747 10.958-21.116 0.393-0.782 0.817-1.697 1.28-2.72l3.054-7.432 0.79-2.257 2.552 2.196 0.022 0.013c3.846-1.519 7.164-3.331 10.217-5.491l-0.15 0.1 38.271 31.5 3.481-0.225 10.173-10.782 14.027-18.304-9.304-6.45 9.361-12.298 14.471 9.295 13.803-18.017-0.67-22.9-36.179-24.915-10.062 7.841 0.776-20.858-30.255-22.762-26.617 25.209c-2.599-5.997-5.754-11.168-9.515-15.83l0.101 0.129c-3.893-4.202-8.207-7.918-12.903-11.114l-0.26-0.167c-19.653-13.537-40.569-16.335-60.317-1.87l-30.073-27.224 75.267-65.619 0.071-0.898c0.051-0.754 0.081-1.635 0.081-2.523 0-4.126-0.632-8.105-1.805-11.845l0.076 0.28c-3.1-9.743-10.094-15.686-22.388-15.299l-5.591 0.56-75.373 68.485-91.985-83.271c3.103-6.303 5.492-13.616 6.791-21.3l0.066-0.474c4.686-29.467-10.126-57.24-49.997-81.624l-4.205-0.958c-0.927-0.178-1.954-0.365-3.095-0.551-5.472-0.962-11.778-1.517-18.212-1.529h-0.011c-0.164-0.001-0.357-0.002-0.551-0.002-9.246 0-18.169 1.385-26.572 3.959l0.642-0.169zM920.057 331.756l-0.017-0.017c-7.271-6.481-11.769-12.939-13.965-17.442-10.763-16.157-11.88-33.332-7.313-49.164l1.756-5.167c0.282-0.68 0.542-1.29 0.787-1.819 7.465-25.778 22.81-40.724 43.815-47.127 13.799-4.211 28.591-4.376 42.373-2.088l6.108 1.117c37.537 23.073 51.307 48.887 46.973 76.188-1.189 7.106-3.202 13.473-5.974 19.413l0.192-0.458-31.614-28.619q-1.357-0.182-2.645-0.27c3.12-0.982 5.806-2.153 8.338-3.565l-0.224 0.115c12.872-7.083 17.154-18.686 7.91-34.523l-3.179-4.884-2.096 1.513 1.375-2.196-1.389-0.799-4.193-1.938c-5.6-2.244-11.343-3.287-16.825-2.396-8.859 1.42-15.604 7.637-17.696 17.97l-0.608 4.676-6.154 2.277c-0.572-4.506-1.87-8.594-3.781-12.317l0.097 0.208c-6.979-13.877-20.425-17.603-41.559-4.015l-1.864 5.144c-1.145 3.492-1.806 7.511-1.806 11.684 0 1.24 0.058 2.467 0.172 3.677l-0.012-0.155c1.074 9.456 6.647 16.378 15.94 17.777l4.203 0.254 2.172 2.587c-4.333 0.769-8.197 2.299-11.625 4.457l0.134-0.079c-12.287 7.548-16.014 21.118-5.147 42.329l3.423 1.535c0.736 0.287 1.545 0.599 2.413 0.888 4.001 1.507 8.626 2.38 13.455 2.38 0.539 0 1.076-0.011 1.609-0.032l-0.077 0.002c9.803-0.607 16.964-6.156 18.326-15.899l0.225-4.443 7.893-1.333c1.281 4.126 3.017 7.718 5.2 10.986l-0.096-0.152c5.984 9.112 13.992 13.335 23.832 10.456l11.654 10.053-2.164 2.054-8.435 2.972c-9.84 3.403-21.186 5.447-32.984 5.62l-0.082 0.001c-18.961-0.011-34.456-6.397-46.852-17.438zM974.427 253.382c2.895-13.193 8.702-19.435 16.613-20.694 4.426-0.708 9.297 0.171 14.111 2.105l2.021 0.867 2.244 1.192 2.775 4.12c6.845 11.664 5.005 19.703-2.818 25.367l-3.21 2.014-8.259 3.993-4.505 2.634 0.399 1.556c-8.894 1.34-14.532 6.928-17.227 15.407-1.097 3.461-1.73 7.441-1.73 11.57 0 0.887 0.029 1.767 0.087 2.639l-0.006-0.119 0.071 0.898 0.862 1.659 18.263 15.751c-5.926 0.389-10.729-2.968-14.751-9.108l-0.016 0.023-4.224-7.318-2.579-3.993-12.878 1.651c-1.885 12.297-7.687 17.627-16.472 18.178-0.425 0.021-0.924 0.033-1.425 0.033-2.537 0-5.002-0.306-7.36-0.883l0.211 0.044-7.388-2.302c-0.733-0.223-1.141-0.266-1.072 0.052-8.613-17.73-5.663-28.431 4.346-34.588 2.403-1.483 4.825-2.462 7.508-3.811l4.25-2.396-2.142-7.633c-11.69-1.886-17.052-7.549-18.028-16.078-0.080-0.873-0.126-1.889-0.126-2.915 0-3.666 0.584-7.196 1.664-10.502l-0.068 0.239 0.765-2.554c0.159-0.609 0.159-0.931-0.14-0.799 17.604-10.906 27.696-8.112 33.32 3.075l3.417 8.086 2.296 4.557zM999.018 282.313l-0.753-1.449q1.366-0.011 2.837 0.121l2.016 1.826zM980 305.458l0.017-0.017-0.014-3.639c0.076-1.535 0.233-2.961 0.47-4.36l-0.030 0.214 0.992-4.176c2.225-6.988 6.651-11.298 13.535-12.356l0.983 3.851c12.426 2.525 18.178 7.574 19.199 14.411 0.566 3.759-0.304 7.94-2.139 12.098l-1.897 3.843c-3.166 3.001-6.83 5.52-10.847 7.412l-0.253 0.107zM1016.688 315.688c0.332-0.644 0.67-1.355 1.007-2.124 2.201-4.96 3.26-10.050 2.525-14.918-0.020-0.132-0.041-0.264-0.063-0.393l12.504 11.333c-5.244 9.738-11.418 18.118-18.596 25.519l0.028-0.029-9.999-8.685c4.125-2.226 7.681-4.794 10.862-7.76l-0.030 0.028v0.032zM1017.954 338.423c7.098-7.349 13.279-15.655 18.314-24.687l0.309-0.603 90.647 82.139-21.419 19.461zM1208.206 328.001c10.149-1.365 16.291 1.797 19.616 8.32l1.437 3.543c0.79 2.462 1.306 5.307 1.434 8.253l0.002 0.069-0.049 3.63-73.665 63.992-22.714-20.565zM1130.736 398.455l22.621 20.498-21.347 18.543-22.609-19.639zM1106.066 420.892l22.611 19.502-25.999 22.584c-3.25-4.272-6.707-8.049-10.477-11.49l-0.066-0.060c-3.209-2.93-6.788-5.556-10.631-7.775l-0.295-0.157zM1156.802 422.076l29.888 27.083q-0.641 0.547-1.281 1.12c-6.163 5.683-11.512 12.108-15.944 19.166l-0.228 0.39-33.67-29.251zM1247.922 452.188c4.572 3.102 8.554 6.515 12.119 10.325l0.037 0.040c3.786 4.7 6.965 10.108 9.289 15.95l0.148 0.422-14.71 17.686c0.82-3.721 1.419-8.122 1.67-12.616l0.010-0.222c-1.387-6.801-4.314-11.626-8.361-14.662-2.673-2.137-6.099-3.434-9.827-3.451h-0.004l-6.565 0.020v-0.031c-5.714 0.321-11.039 1.645-15.915 3.798l0.292-0.115-21.747-19.688c17.522-12.309 35.831-9.672 53.561 2.544zM1017.337 463.744c3.624-3.88 7.631-7.322 11.984-10.292l0.245-0.158c14.142-9.744 28.646-13.394 42.828-8.211l-24.122 21.919c-1.87-0.231-4.034-0.363-6.228-0.363-0.999 0-1.991 0.027-2.976 0.081l0.137-0.006-2.995 0.29c-2.63 0.579-4.939 1.686-6.909 3.211l0.040-0.029c-4.028 3.037-6.967 7.858-8.405 15.301 0.053 0.891 0.135 1.943 0.278 3.172l0.413 2.558-9.256 8.41-7.787-9.326c2.361-10.2 6.794-19.123 12.855-26.686l-0.101 0.13zM1077.167 447.172c4.395 2.316 8.184 5 11.576 8.111l-0.040-0.036c3.683 3.355 6.996 6.986 9.954 10.899l0.144 0.2-20.898 18.153c-6.164-8.265-14.027-13.902-23.748-16.397zM938.966 491.983l-2.523-17.056 23.416-22.937 29.035 27.438 10.149 12.154c-1.15 5.536-1.809 11.898-1.809 18.414 0 1.17 0.021 2.334 0.063 3.494l-0.005-0.168-65.648 59.65-12.554-10.183 9.097-13.577-16.307-12.438-7.094 9.917-12.679-14.903-1.378-18.71 30.271-24.758 9.65 5.134 4.464 23.64 5.975-6.263 11.896 2.611-4.013-16.918-1.050 2.284 3.814 12.436-10.834-4.684-4.736 8.401-1.374-20.773 11.887 10.131 1.098-5.18h-0.014l-0.634 1.398zM1188.818 454.063q0.838-0.75 1.677-1.453l21.058 19.084c-7.373 4.439-13.178 11.132-17.611 19.604l-20.816-18.082c4.51-7.3 9.703-13.594 15.636-19.101l0.057-0.052zM1300.13 453.594l25.947 20.68-1.008 17.747-5.405 9.613-9.233-1.532 3.864 17.022 5.208-4.933 12.851 4.376-0.733-19.543 7.829-7.288 32.199 22.753 0.209 19.25-9.552 16.152-14.262-9.547-12.942 15.939 9.231 6.539-22.609 23.928-36.417-28.717c5.935-5.615 7.388-11.727 6.196-17.071-0.093-0.355-0.151-0.581-0.223-0.787l-0.847-1.56-11.769-10.651c0.741-4.963 1.164-10.69 1.164-16.516 0-3.157-0.124-6.286-0.368-9.381l0.026 0.409c-0.585-7.492-2.058-14.438-4.325-21.014l0.177 0.591zM1101.597 470.197q2.078 2.995 4.132 6.369c2.837 3.79 5.406 8.088 7.512 12.643l0.184 0.445c3.994 8.063 6.693 17.458 7.546 27.38l0.020 0.292 3.072 40.794-29.138 9.722 0.223-19.554c-0.221-12.152-1.759-23.833-4.478-35.053l0.224 1.095c-2.435-10.022-5.834-18.721-10.273-25.844zM1238.431 470.751l1.886 0.212c1.817 0.432 3.407 1.21 4.771 2.267l-0.028-0.021c3.021 2.262 5.275 5.99 6.376 10.965-0.466 5.598-1.305 10.713-2.512 15.684l0.142-0.691-28.564-25.856c4.478-1.679 9.653-2.651 15.056-2.651 1.011 0 2.014 0.034 3.008 0.101l-0.135-0.007zM1025.958 485.87c1.147-5.611 3.394-9.333 6.422-11.6 1.808-1.46 4.112-2.373 6.626-2.457h0.018l3.92 0.033-16.831 15.292zM1049.442 472.386c10.232 1.763 18.33 7.105 24.549 15.51l-39.716 34.5q-1.983-6.394-3.542-12.361l-2.629-11.009-1.159-6.18zM1215.753 475.502l32.065 29.056q-0.121 0.499-0.247 1.003l-8.148 17.978 2.406 1.98q-0.915 2.817-1.913 5.717l-41.858-36.36c4.382-8.607 10.214-15.248 17.694-19.374zM1155.385 559.567l1.062-43.227c0.864-10.257 3.565-19.696 7.776-28.258l-0.206 0.463c2.13-4.559 4.383-8.44 6.932-12.1l-0.173 0.263 21.317 18.39c-6.332 14.085-9.345 32.378-9.773 53.048l-0.009 7.066 0.161 4.267 3.167 4.733zM1271.445 484.584c1.436 4.742 2.486 10.286 2.945 15.996l0.018 0.285c0.21 2.551 0.33 5.522 0.33 8.521 0 4.366-0.254 8.672-0.749 12.905l0.049-0.515-19.133-17.32zM1003.352 496.739l5.26 6.298-6.212 5.643c0.057-4.264 0.401-8.397 1.014-12.441l-0.062 0.499zM1022.533 496.855l0.188 1.16c0.756 3.779 1.767 8.23 3.095 13.32q1.848 7.058 4.267 14.694l-22.445 19.497q-1.426-5.128-2.488-10.199l19.357-16.584-9.105-15.408zM1011.672 506.735l9.051 11.358-16.314 13.413c-0.922-4.741-1.603-10.388-1.895-16.137l-0.012-0.298zM1251.647 510.258q0.241-0.917 0.467-1.807l21.164 19.175c-1.011 6.466-2.202 11.948-3.675 17.313l0.255-1.088-22.774-17.958q2.612-8.147 4.563-15.638zM997.642 519.494c0.516 5.977 1.317 11.346 2.422 16.604l-0.156-0.888-58.316 47.958-6.448-6.84zM1246.066 528.998l22.721 18.692q-0.73 2.52-1.538 5.038l-0.599 1.724-22.575-19.61q1.037-2.956 1.992-5.843zM1031.741 531.094c7.5 21.885 15.171 39.98 23.915 57.445l-1.212-2.672 1.198 5.816c0.79 4.139 1.242 8.9 1.242 13.766 0 4.929-0.464 9.749-1.35 14.42l0.076-0.479c-3.527 17.327-14.137 28.701-33.991 31.811l-5.337-0.158-0.048 0.023c-7.218-0.363-14.001-1.347-20.561-2.907l0.763 0.153c-11.265-2.677-19.182-7.017-22.493-10.475l14.020-26.148c3.335 2.745 7.051 5.332 10.967 7.612l0.401 0.216c6.609 3.832 13.16 6.517 19.39 7.506 3.294 0.523 6.447 0.565 11.506-2.139l0.617-11.761c0-0.020 0-0.044 0-0.067 0-6.253-0.653-12.354-1.893-18.237l0.101 0.574c-2.062-9.744-5.898-17.67-11.342-22.326l-3.718-8.656q-2.678-6.831-4.805-13.643zM1277.769 531.693l8.564 7.76 0.42 2.906c0.011 3.147-1.398 6.602-5.117 10.064l-0.448 0.357-6.976-5.501c1.442-5.204 2.64-10.405 3.559-15.587zM1255.743 650.104l-6.028-1.308c-13.992-3.831-22.424-12.499-26.419-24.927l-1.437-5.549c-0.807-4.192-1.268-9.014-1.268-13.943 0-4.865 0.449-9.624 1.309-14.24l-0.074 0.478 1.038-5.379c6.116-12.032 12.796-27.369 18.699-43.087l1.124-3.412 22.638 19.521-1.354 3.897-3.611 9.035c-6.052 5.427-9.891 13.353-11.963 23.097-1.164 5.547-1.831 11.92-1.831 18.449 0 2.783 0.121 5.538 0.358 8.259l-0.025-0.353c0.22 2.533 0.22 2.533 2.396 5.324 1.386 0.239 2.982 0.376 4.61 0.376 1.698 0 3.361-0.149 4.978-0.434l-0.171 0.025c6.236-0.979 12.778-3.66 19.393-7.507 5.023-2.923 9.020-5.846 7.594-8.369l16.794 25.286-1.119 1.677c-3.15 3.665-8.297 6.572-15.037 8.722l-5.341 1.479c-7.444 1.801-15.997 2.85-24.791 2.882h-0.021zM942.963 588.608l57.785-49.506q1.15 5.033 2.645 10.115l-64.258 55.819-3.178-1.497c-2.637-1.351-4.909-2.933-6.94-4.775l0.026 0.024c-3.718-3.462-5.128-6.917-5.116-10.062l0.287-2.461 7.148-6.5 8.156 8.638 3.483 0.225zM1272.109 554.318q0.499-1.55 0.965-3.103l4.962 4.082-2.524 2.012-2.771 2.432-1.939-1.684zM1256.352 228.553c-2.409 0.914-4.491 2.065-6.379 3.464l0.070-0.050c-13.195 18.354-9.427 31.597 4.73 39.392 2.48 1.393 5.359 2.623 8.375 3.535l0.31 0.081 2.081 0.558 0.886 2.946c-12.333 2.506-19.582 7.7-22.269 14.902l-0.97 3.761c-0.734 4.882 0.332 9.954 2.522 14.919 0.921 2.136 1.979 3.975 3.219 5.672l-0.057-0.082c16.988 15.237 30.482 12.556 39.439-1.092l0.013-0.022c2.134-3.239 3.609-6.47 3.336-8.086l-0.551-0.898 7.572-2.673c2.262 14.662 10.004 21.81 21.204 22.503 0.451 0.018 0.98 0.029 1.511 0.029 4.836 0 9.469-0.873 13.748-2.469l-0.272 0.089c2.662-0.834 4.975-2.051 7.013-3.61l-0.054 0.040c9.745-20.059 6.017-33.631-6.269-41.178-3.428-2.109-6.848-3.359-8.468-2.714l-0.859 0.862-2.143-2.587c13.961-2.256 21.056-9.744 22.288-20.544 0.102-1.055 0.16-2.28 0.16-3.519 0-4.177-0.66-8.201-1.881-11.971l0.077 0.275c-0.628-2.377-1.605-4.461-2.888-6.316l0.043 0.066c-20.154-12.49-33.599-8.756-40.58 5.125-1.822 3.626-2.877 7.229-2.096 8.929l0.944 0.898-6.19 2.014c-3.313-15.126-10.669-23.032-20.798-24.647-1.181-0.195-2.541-0.307-3.928-0.307-0.014 0-0.029 0-0.043 0h0.002c-4.658 0.087-9.063 1.073-13.080 2.792l0.227-0.086zM1251.253 311.794c-0.286-0.542-0.571-1.159-0.864-1.82-1.832-4.155-2.716-8.339-2.139-12.097 0.882-5.854 5.224-10.412 15.557-14.658l5.678-2.096 0.511-7.667-2.569-0.156 0.48-2.529-4.207-1.116c-0.799-0.27-1.632-0.574-2.503-0.925l-3.971-1.887c-11.59-6.369-14.362-16.188-3.769-31.26l2.76-1.446c0.607-0.289 1.29-0.577 2.021-0.867 4.825-1.933 9.684-2.811 14.111-2.106 6.93 1.112 12.236 6.029 17.071 17.41l2.044 5.282 11.225-2.277c0.51-3.86 1.625-7.358 3.254-10.55l-0.085 0.183c5.623-11.181 15.711-13.976 32.346-4.182l0.998 2.578c0.194 0.566 0.399 1.198 0.606 1.884 1.013 3.064 1.597 6.591 1.597 10.255 0 1.029-0.046 2.047-0.136 3.053l0.009-0.13c-0.833 7.317-4.892 12.52-14.749 16.641l-5.422 1.968 2.163 7.637c3.615 0.659 6.836 1.944 9.696 3.747l-0.112-0.066c10.009 6.159 12.961 16.855 5.464 33.444l-2.972 1.32c-0.655 0.257-1.372 0.528-2.156 0.799-3.524 1.334-7.598 2.107-11.853 2.107-0.408 0-0.815-0.007-1.22-0.021l0.059 0.002c-7.696-0.478-13.078-4.624-17.353-15.336l-1.76-5.010-12.554 2.355c-1.131 3.598-2.649 6.729-4.551 9.582l0.085-0.136c-7.317 11.151-17.22 13.126-31.342 0.542l-0.013 0.031z" />
<glyph unicode="&#xe9c8;" horiz-adv-x="1434" d="M-0.001-64h1433.6v1024h-1433.6z" />
<glyph unicode="&#xe9c9;" horiz-adv-x="1434" d="M-0.001 470.528l1363.968-494.592 69.632-32.768v227.328l-61.44 22.016-1.024 0.512-1371.136 498.176z" />
<glyph unicode="&#xe9ca;" horiz-adv-x="1434" d="M-0.001 691.205l1372.16-498.688 61.44-28.722v207.922l-1433.6 539.648z" />
<glyph unicode="&#xe9ce;" horiz-adv-x="1434" d="M102.399 960h1228.8c56.553 0 102.4-45.847 102.4-102.4v-819.2c0-56.553-45.847-102.4-102.4-102.4h-1228.8c-56.553 0-102.4 45.847-102.4 102.4v819.2c0 56.553 45.847 102.4 102.4 102.4z" />
<glyph unicode="&#xe9cf;" horiz-adv-x="1434" d="M-0.001 413.866h1433.6v-477.866h-1433.6v477.866z" />
<glyph unicode="&#xe9d0;" horiz-adv-x="1434" d="M-0.001 960h1433.6v-546.134h-1433.6v546.134z" />
<glyph unicode="&#xe9d1;" horiz-adv-x="1434" d="M716.799 333.994l-120.378-85.814 44.416 141.006-118.817 87.969 147.828 1.33 46.946 140.183 46.946-140.183 147.828-1.33-118.817-87.967 44.416-141.006z" />
<glyph unicode="&#xe9d2;" horiz-adv-x="1426" d="M289.942 585.238l-5.745-10.094v-30.652l-15.955-8.709v-6.262h41.812v6.612l-15.646 10.797v26.82z" />
<glyph unicode="&#xe9d3;" horiz-adv-x="1426" d="M54.599 469.695l-6.44-33.138h-10.125c0 0-19.322-114.982 89.267-143.613l0.464-9.534c0 0 92.951-41.685 184.975 0.997l0.927 9.040c0 0 98.472 8.537 87.887 144.107l-9.661-0.997c0 0 2.301 23.595-6.44 33.641l-24.388-10.047 8.287-44.693 7.823-0.494c0 0-4.603-88.38-95.707-90.895l-0.464-7.021c0 0-64.415-25.614-121.479 0.997l-0.927 5.53c0 0-84.663-2.011-94.333 93.39l6.904-1.006 8.287 44.693-24.852 9.040z" />
<glyph unicode="&#xe9d4;" horiz-adv-x="1425" d="M0.007-63.996h1424.683v1023.991h-1424.683z" />
<glyph unicode="&#xe9d5;" horiz-adv-x="1434" d="M252.313 732.687l-10.65-36.358 10.65-36.324-36.358 10.65-36.324-10.65 10.65 36.324-10.65 36.358 36.324-10.65z" />
<glyph unicode="&#xe9d6;" horiz-adv-x="1434" d="M473.304 724.793l-10.65-36.358 10.65-36.324-36.358 10.65-36.324-10.65 10.65 36.324-10.65 36.358 36.324-10.65z" />
<glyph unicode="&#xe9d7;" horiz-adv-x="1434" d="M413.071 598.846c0-6.147-4.954-11.104-11.104-11.104s-11.104 4.954-11.104 11.104c0 6.147 4.954 11.104 11.104 11.104s11.104-4.954 11.104-11.104z" />
<glyph unicode="&#xe9d8;" horiz-adv-x="1434" d="M102.4 960h1228.8c56.553 0 102.4-45.847 102.4-102.4v-819.2c0-56.553-45.847-102.4-102.4-102.4h-1228.8c-56.553 0-102.4 45.847-102.4 102.4v819.2c0 56.553 45.847 102.4 102.4 102.4z" />
<glyph unicode="&#xe9d9;" horiz-adv-x="1434" d="M0 960h1433.6v-273.066h-1433.6v273.066z" />
<glyph unicode="&#xe9da;" horiz-adv-x="1434" d="M0 209.066h1433.6v-273.066h-1433.6v273.066z" />
<glyph unicode="&#xe9db;" horiz-adv-x="1434" d="M0 686.934h1433.6v-477.866h-1433.6v477.866z" />
<glyph unicode="&#xe9dc;" horiz-adv-x="1434" d="M580.266 413.866v-136.534h-136.534l68.266 136.534h68.266zM819.2 413.866v-136.534h-204.8v136.534h204.8zM921.6 413.866l68.266-136.534h-136.534v136.534h68.266zM887.466 550.4c18.85 0 34.134-15.109 34.134-34.097v-68.303h-68.266v68.303c0 17.119 12.52 31.293 29.060 33.728l5.075 0.369zM716.8 584.534c18.85 0 34.134-15.137 34.134-34.012v-37.354h68.266v-65.168h-204.8v65.168h68.266v37.354c0 17.075 12.52 31.212 29.060 33.641l5.075 0.368zM546.134 550.4c18.85 0 34.134-15.109 34.134-34.097v-68.303h-68.266v68.303c0 17.119 12.52 31.293 29.060 33.728l5.075 0.369z" />
<glyph unicode="&#xe9dd;" horiz-adv-x="1434" d="M102.399 960h1228.8c56.553 0 102.4-45.847 102.4-102.4v-819.2c0-56.553-45.847-102.4-102.4-102.4h-1228.8c-56.553 0-102.4 45.847-102.4 102.4v819.2c0 56.553 45.847 102.4 102.4 102.4z" />
<glyph unicode="&#xe9de;" horiz-adv-x="1434" d="M682.665 960h750.934v-1024h-750.934v1024z" />
<glyph unicode="&#xe9df;" horiz-adv-x="1434" d="M-0.001 960h477.866v-1024h-477.866v1024z" />
<glyph unicode="&#xe9e0;" horiz-adv-x="1434" d="M477.865 960h477.866v-1024h-477.866v1024z" />
<glyph unicode="&#xe9e1;" horiz-adv-x="1434" d="M955.734 960h477.866v-1024h-477.866v1024z" />
<glyph unicode="&#xe9e2;" horiz-adv-x="1434" d="M716.799 381.44l-100.317-71.514 37.014 117.504-99.011 73.309 123.19 1.11 39.124 116.819 39.124-116.819 123.19-1.11-99.011-73.309 37.014-117.504z" />
<glyph unicode="&#xe9e3;" horiz-adv-x="1434" d="M102.4 960h1228.8c56.553 0 102.4-45.847 102.4-102.4v-819.2c0-56.553-45.847-102.4-102.4-102.4h-1228.8c-56.553 0-102.4 45.847-102.4 102.4v819.2c0 56.553 45.847 102.4 102.4 102.4z" />
<glyph unicode="&#xe9e4;" horiz-adv-x="1434" d="M1024 960h409.6v-1024h-409.6v1024z" />
<glyph unicode="&#xe9e5;" horiz-adv-x="1434" d="M0 960h409.6v-1024h-409.6v1024z" />
<glyph unicode="&#xe9e6;" horiz-adv-x="1434" d="M796.959 459.89c-6.566-6.566-10.424-4.559-8.493 5.096l30.737 153.68-68.266-34.134-34.134 102.4-34.134-102.4-68.266 34.134 30.737-153.68c1.877-9.381-1.958-11.63-8.493-5.096l-44.484 44.484c-6.566 6.566-17.224 6.559-24.215-0.431l-21.809-21.809-68.266 34.134 34.134-68.266-21.809-21.809c-6.807-6.807-6.817-17.827-0.576-24.069l90.654-90.654h102.4l17.066-102.4h34.134l17.066 102.4h102.4l90.654 90.654c6.488 6.488 6.414 17.080-0.576 24.069l-21.809 21.809 34.134 68.266-68.266-34.134-21.809 21.809c-6.807 6.807-17.681 6.966-24.215 0.431l-44.484-44.484z" />
<glyph unicode="&#xe9e7;" horiz-adv-x="1434" d="M102.4 960h1228.8c56.553 0 102.4-45.847 102.4-102.4v-819.2c0-56.553-45.847-102.4-102.4-102.4h-1228.8c-56.553 0-102.4 45.847-102.4 102.4v819.2c0 56.553 45.847 102.4 102.4 102.4z" />
<glyph unicode="&#xe9e8;" horiz-adv-x="1434" d="M0 960h1433.6v-546.134h-1433.6v546.134z" />
<glyph unicode="&#xe9e9;" horiz-adv-x="1434" d="M0 209.066h1433.6v-273.066h-1433.6v273.066z" />
<glyph unicode="&#xe9ea;" horiz-adv-x="1434" d="M0 413.866h1433.6v-204.8h-1433.6v204.8z" />
<glyph unicode="&#xe9eb;" horiz-adv-x="1434" d="M0 345.6h1433.6v-68.266h-1433.6v68.266z" />
<glyph unicode="&#xe9ec;" horiz-adv-x="1434" d="M605.384 542.989c18.267-4.663 29.292-23.251 24.63-41.514s-23.251-29.292-41.514-24.63c-13.716 3.5-27.908 5.29-42.366 5.29-18.85 0-34.134 15.281-34.134 34.134s15.281 34.134 34.134 34.134c20.165 0 40.031-2.506 59.25-7.411zM749.667 436.676c9.89-16.047 4.898-37.077-11.15-46.967s-37.077-4.898-46.967 11.15c-7.492 12.157-16.49 23.342-26.764 33.281-13.547 13.107-13.907 34.718-0.799 48.265s34.718 13.907 48.265 0.799c14.355-13.887 26.93-29.522 37.411-46.527zM779.375 259.427c-4.090-18.401-22.323-30.003-40.727-25.914s-30.003 22.323-25.914 40.727c1.802 8.108 3.008 16.351 3.612 24.801l0.413 16.165c-0.012 0.485-0.029 1.069-0.051 1.945-0.613 18.842 14.162 34.612 33.002 35.229s34.612-14.162 35.229-33.002l0.128-7.403c0-18.078-1.902-35.504-5.69-52.545zM677.993 112.186c-15.713-10.414-36.895-6.119-47.31 9.593s-6.119 36.895 9.593 47.31c11.903 7.891 22.788 17.25 32.382 27.841 12.655 13.972 34.242 15.036 48.214 2.381s15.036-34.242 2.381-48.214c-13.406-14.799-28.615-27.877-45.26-38.91zM501.319 76.736c-18.521 3.518-30.683 21.383-27.166 39.905s21.383 30.683 39.903 27.166c10.584-2.011 21.313-3.003 32.904-3.001 3.521 0.018 7.026 0.141 10.515 0.367 18.811 1.232 35.057-13.022 36.289-31.833s-13.022-35.057-31.833-36.289c-4.863-0.318-9.749-0.488-14.805-0.513-15.991-0.003-30.99 1.384-45.808 4.199zM351.282 173.153c-10.922 15.364-7.324 36.674 8.041 47.596s36.674 7.324 47.596-8.041c8.279-11.644 17.991-22.222 28.891-31.464 14.375-12.193 16.147-33.733 3.951-48.109s-33.733-16.147-48.109-3.951c-15.229 12.916-28.799 27.694-40.37 43.971zM310.136 349.005c2.942 18.62 20.421 31.33 39.042 28.388s31.33-20.421 28.388-39.042c-1.416-8.965-2.099-17.958-2.095-28.096 0.036-5.287 0.313-10.54 0.825-15.75 1.846-18.761-11.866-35.466-30.625-37.312s-35.466 11.866-37.312 30.625c-0.717 7.272-1.102 14.6-1.153 22.185-0.006 13.884 0.948 26.448 2.931 38.999zM401.514 501.676c15 11.42 36.415 8.517 47.836-6.483s8.517-36.415-6.483-47.836c-11.366-8.655-21.62-18.705-30.502-29.895-11.719-14.765-33.189-17.237-47.957-5.517s-17.237 33.189-5.517 47.957c12.412 15.639 26.736 29.678 42.623 41.772zM543.924 550.39c18.85 0.17 34.273-14.971 34.442-33.823s-14.971-34.273-33.823-34.442c-7.061-0.064-14.056-0.555-20.965-1.466-18.69-2.465-35.837 10.692-38.301 29.382s10.692 35.837 29.382 38.301c9.66 1.273 19.427 1.958 29.266 2.048z" />
<glyph unicode="&#xe9ed;" horiz-adv-x="1434" d="M103.17 959.358h1227.259c56.484 0 102.272-45.788 102.272-102.272v-818.173c0-56.484-45.788-102.272-102.272-102.272h-1227.259c-56.484 0-102.272 45.788-102.272 102.272v818.173c0 56.484 45.788 102.272 102.272 102.272z" />
<glyph unicode="&#xe9ee;" horiz-adv-x="1434" d="M0.899 959.358h1431.803v-1022.717h-1431.803v1022.717z" />
<glyph unicode="&#xe9ef;" horiz-adv-x="1434" d="M1159.977 686.629c0-37.655-45.788-68.182-102.272-68.182s-102.272 30.53-102.272 68.182c0 37.655 45.788 68.182 102.272 68.182s102.272-30.53 102.272-68.182z" />
<glyph unicode="&#xe9f0;" horiz-adv-x="1434" d="M887.254 448v238.629h340.905v-238.629c0-170.453-170.453-238.629-170.453-238.629s-170.453 68.182-170.453 238.629z" />
<glyph unicode="&#xe9f1;" horiz-adv-x="1434" d="M887.254 686.629h340.905v-68.182h-340.905z" />
<glyph unicode="&#xe9f2;" horiz-adv-x="1434" d="M1228.159 277.547v-68.182h-340.905v68.182h340.905zM1228.159 413.91v-68.182h-340.905v68.182h340.905zM1228.159 550.272v-68.182h-340.905v68.182h340.905z" />
<glyph unicode="&#xe9f3;" horiz-adv-x="1434" d="M239.532 754.815l-238.629 204.548h34.090l238.629-170.453h68.182l272.724 170.453v-17.045c0-9.414-5.899-21.258-14.213-27.198l-224.421-160.3v-68.182l225.804-193.546c7.086-6.073 4.922-10.998-4.216-10.998v0c-9.414 0-22.944 4.214-31.258 10.152l-224.421 160.3h-68.182l-272.724-170.453v34.090l238.629 170.453v68.182z" />
<glyph unicode="&#xe9f4;" horiz-adv-x="1434" d="M648.619 942.312v78.554l-316.564-197.835h-47.556l-238.583 170.419h-137.171l296.699-254.333v-34.874l-238.629-170.517v-113.142l316.564 197.907h47.505l215.532-153.985c13.933-9.952 34.354-16.503 51.073-16.503l5.55 0.311 6.578 1.397c35.398 9.663 38.933 48.127 14.273 69.262l-213.895 183.327v35.028l210.145 150.049c17.108 12.221 28.49 34.313 28.49 54.938zM34.992 959.358l238.629-170.453h68.182l272.724 170.453v-17.045c0-9.414-5.899-21.258-14.213-27.198l-224.421-160.3v-68.182l225.804-193.546c6.203-5.315 5.322-9.749-1.116-10.773l-3.095-0.224c-9.414 0-22.944 4.214-31.258 10.152l-224.421 160.3h-68.182l-272.724-170.453v34.090l238.629 170.453v68.182l-238.629 204.548h34.090z" />
<glyph unicode="&#xe9f5;" horiz-adv-x="1434" d="M0.899 788.905v-136.362h238.629v-170.767c0-18.654 15.642-33.777 34.41-33.777h67.542c19.005 0 34.41 15.374 34.41 33.777v170.767h238.184c19.078 0 34.54 15.642 34.54 34.41v67.542c0 19.005-15.445 34.41-34.54 34.41h-238.184v170.453h-136.362v-170.453h-238.629z" />
<glyph unicode="&#xe9f6;" horiz-adv-x="1434" d="M0.899 754.815h272.724v204.548h68.182v-204.548h272.724v-68.182h-272.724v-204.548h-68.182v204.548h-272.724z" />
</font>
</defs>
</svg>
